<svg width="197" height="60" viewBox="0 0 197 60" fill="none" xmlns="http://www.w3.org/2000/svg">
<g clip-path="url(#clip0_389_2187)">
<path d="M52.6323 43.9019V46.8287C51.3247 45.6905 49.6901 45.0401 48.0556 45.0401C46.4211 45.0401 44.7865 45.6905 43.6424 46.8287C42.4982 47.9669 41.8444 49.5929 41.8444 51.3816C41.8444 53.0076 42.4982 54.6336 43.6424 55.7718C44.7865 56.91 46.4211 57.5604 48.0556 57.5604C48.8729 57.5604 49.6901 57.3978 50.3439 57.0726C50.6708 56.91 51.1612 56.7474 51.4881 56.4222C51.9785 56.097 52.3054 55.9344 52.6323 55.6092V58.6986C51.1612 59.5116 49.6901 59.8368 48.0556 59.9994C43.3155 59.9994 39.3926 56.2596 39.3926 51.5442V51.3816C39.3926 49.2677 40.2098 47.3165 41.5175 45.6905C43.152 43.7393 45.6038 42.6011 48.219 42.6011C49.6901 42.6011 51.1612 43.0889 52.6323 43.9019Z" fill="white"/>
<path d="M71.4282 55.6092H64.2362L62.2748 59.6743H59.4961L67.8322 41.9507L75.8414 59.6743H73.0627L71.4282 55.6092ZM70.284 53.3328L67.8322 47.6417L65.217 53.3328H70.284Z" fill="white"/>
<path d="M85.8131 52.8459V59.6752H83.3613V42.9272H86.3035C87.4477 42.9272 88.4284 42.9272 89.5725 43.2525C90.2264 43.4151 90.8802 43.9029 91.534 44.3907C92.5147 45.3663 93.0051 46.6671 93.0051 47.9679C93.0051 49.4313 92.5147 50.7321 91.534 51.5451C90.3898 52.5207 88.9187 53.0085 87.4477 52.8459H85.8131ZM85.8131 50.5695H86.7938C89.0822 50.5695 90.2264 49.7565 90.2264 47.9679C90.2264 46.1793 89.0822 45.3663 86.6304 45.3663H85.8131V50.5695Z" fill="white"/>
<path d="M103.301 42.9272V59.6752H100.85V42.9272H103.301Z" fill="white"/>
<path d="M117.36 45.3663V59.6752H114.745V45.3663H110.822V42.9272H121.12V45.3663H117.36Z" fill="white"/>
<path d="M137.628 55.6092H130.436L128.475 59.6743H125.859L134.195 41.9507L142.205 59.6743H139.426L137.628 55.6092ZM136.647 53.3328L134.195 47.6417L131.58 53.3328H136.647Z" fill="white"/>
<path d="M152.176 42.9272V57.2362H157.079V59.6752H149.561V42.9272H152.176Z" fill="white"/>
<path d="M0 34.3089L6.70158 0L17.6529 24.7154L29.0946 0L35.1424 34.3089H30.2388L27.1332 14.9593L17.6529 35.7724L8.49956 14.9593L5.06704 34.3089H0Z" fill="white"/>
<path d="M59.6607 6.99181H46.748V14.6341H59.1704V19.1869H46.748V29.9186H59.6607V34.4715H42.0078V2.43896H59.6607V6.99181Z" fill="white"/>
<path d="M70.9387 15.1219L83.3612 2.43896H89.8993L75.352 16.9105L89.8993 34.3089H83.3612L71.9195 20.1625L70.9387 21.1382V34.3089H66.0352V2.43896H70.9387V15.1219Z" fill="white"/>
<path d="M130.436 34.3094V0.163086L153.809 24.5533V2.43951H158.713V36.2606L135.339 12.033V34.3094H130.436Z" fill="white"/>
<path d="M183.231 17.724H196.471V18.6996C196.471 20.8134 196.144 22.9273 195.654 25.0411C195 26.8297 194.183 28.4557 192.875 29.9191C189.933 33.1712 185.846 35.1224 181.433 34.9598C177.183 34.9598 172.934 33.1712 169.991 30.0817C166.886 26.9923 165.088 22.7647 165.088 18.3744C165.088 13.9842 166.722 9.75654 169.991 6.66711C173.097 3.41508 177.347 1.78906 181.924 1.78906C184.375 1.78906 186.827 2.27687 188.952 3.25248C191.24 4.55329 193.365 6.17931 195.163 8.13053L191.731 11.3826C189.606 8.13053 186.01 6.17931 182.087 6.17931C178.818 6.0167 175.712 7.31752 173.587 9.59394C171.299 11.8704 169.991 14.9598 170.155 18.2118C169.991 21.6265 171.463 24.7159 173.914 26.9923C176.039 29.1061 178.818 30.2443 181.76 30.2443C184.048 30.2443 186.337 29.4313 188.135 27.8053C189.933 26.3419 191.077 24.2281 191.404 21.9517H183.395L183.231 17.724Z" fill="white"/>
<path d="M115.397 15.2849C115.397 15.2849 113.108 16.5857 116.541 17.5614C119.973 18.537 125.367 21.3012 121.771 24.7158C118.502 27.6427 109.022 29.7565 104.445 35.7727C105.753 36.0979 107.061 36.2605 108.532 36.2605C118.339 36.2605 126.185 28.4557 126.185 18.6996C126.185 17.0735 126.021 15.6101 125.531 14.1467C122.098 13.8215 118.666 14.3093 115.397 15.2849Z" fill="#B70004"/>
<path d="M106.244 24.0655C114.744 23.5777 117.032 21.4638 113.436 19.6752C111.801 19.0248 110.167 18.0492 108.532 17.2362C107.061 16.2606 105.917 13.1712 124.714 11.3825C120.628 2.43944 110.167 -1.46299 101.34 2.43944C92.514 6.34188 88.4276 16.7484 92.3505 25.6915C92.6774 26.3419 93.0043 27.1549 93.4947 27.8053C97.4175 25.6915 101.667 24.3907 106.244 24.0655Z" fill="#B70004"/>
</g>
<defs>
<clipPath id="clip0_389_2187">
<rect width="196.471" height="60" fill="white"/>
</clipPath>
</defs>
</svg>
