<?xml version="1.0" standalone="no"?>
<!DOCTYPE svg PUBLIC "-//W3C//DTD SVG 1.1//EN" "http://www.w3.org/Graphics/SVG/1.1/DTD/svg11.dtd" >
<svg xmlns="http://www.w3.org/2000/svg" xmlns:xlink="http://www.w3.org/1999/xlink" version="1.1">
<metadata>
Created by FontForge 20201107 at Tue Jun 29 03:59:45 2021
 By 
Copyright (c) 2017 by Kastelov. All rights reserved.
</metadata>
<defs>
<font id="FSAxiformaLight" horiz-adv-x="860" >
  <font-face 
    font-family="FS Axiforma Light"
    font-weight="300"
    font-stretch="normal"
    units-per-em="1000"
    panose-1="0 0 4 0 0 0 0 0 0 0"
    ascent="771"
    descent="-229"
    x-height="534"
    cap-height="739"
    bbox="-397 -274 2530 1148"
    underline-thickness="50"
    underline-position="-100"
    unicode-range="U+000D-25CA"
  />
<missing-glyph horiz-adv-x="130" 
 />
    <glyph glyph-name="f_b" unicode="fb" horiz-adv-x="1047" 
d="M118 578q0 91 49 140.5t128 49.5q57 0 108 -27l-22 -49q-45 20 -82 20q-58 0 -89.5 -34.5t-31.5 -100.5v-42h200v-53h-200v-482h-60v482h-94v53h94v43zM737 547q112 0 189 -81q76 -80 76 -199q0 -118 -76 -200q-77 -81 -190 -81q-69 0 -124.5 32t-88.5 89v-107h-60v755
h60v-328q34 57 89.5 88.5t124.5 31.5zM733 43q91 0 149 64q59 65 59 160t-58 159q-59 65 -150 65q-93 0 -153 -65q-59 -65 -59 -157q0 -94 59 -161q60 -65 153 -65z" />
    <glyph glyph-name="f_f" unicode="ff" horiz-adv-x="728" 
d="M652 712q-63 0 -96 -34.5t-33 -100.5v-42h200v-53h-200v-482h-60v482h-285v-482h-60v482h-94v53h94v43q0 91 53.5 140.5t144.5 49.5q78 0 146 -41l-25 -49q-56 34 -118 34q-67 0 -104 -34.5t-37 -100.5v-42h285v43q0 91 50 140.5t135 49.5q62 0 115 -29l-21 -49
q-43 22 -90 22z" />
    <glyph glyph-name="f_f_i" unicode="ffi" horiz-adv-x="951" 
d="M644 712q-57 0 -89 -34.5t-32 -100.5v-42h212v-53h-212v-482h-60v482h-285v-482h-60v482h-94v53h94v43q0 91 53.5 140.5t144.5 49.5q78 0 146 -41l-25 -49q-56 34 -118 34q-67 0 -104 -34.5t-37 -100.5v-42h285v43q0 91 49 140.5t128 49.5q56 0 109 -27l-23 -49
q-45 20 -82 20zM841 722q21 0 35.5 -14.5t14.5 -36.5t-14.5 -37t-35.5 -15q-23 0 -38 15t-15 37t15 36.5t38 14.5zM810 0v535h60v-535h-60z" />
    <glyph glyph-name="f_f_j" unicode="ffj" horiz-adv-x="951" 
d="M733 482h-210v-482h-60v482h-285v-482h-60v482h-94v53h94v43q0 91 53.5 140.5t144.5 49.5q78 0 146 -41l-25 -49q-56 34 -118 34q-67 0 -104 -34.5t-37 -100.5v-42h285v43q0 91 49 140.5t128 49.5q56 0 109 -27l-23 -49q-45 20 -82 20q-57 0 -89 -34.5t-32 -100.5v-42
h210v-53zM841 722q21 0 35.5 -14.5t14.5 -36.5t-14.5 -37t-35.5 -15q-23 0 -38 15t-15 37t15 36.5t38 14.5zM810 535h60v-584q0 -88 -42.5 -133.5t-115.5 -45.5q-55 0 -96 23l16 51q44 -19 76 -19q51 0 76.5 31.5t25.5 88.5v588z" />
    <glyph glyph-name="f_h" unicode="fh" horiz-adv-x="993" 
d="M118 578q0 91 49 140.5t128 49.5q57 0 108 -27l-22 -49q-45 20 -82 20q-58 0 -89.5 -34.5t-31.5 -100.5v-42h200v-53h-200v-482h-60v482h-94v53h94v43zM706 549q90 0 151 -59q61 -58 61 -167v-323h-60v313q0 85 -42 132.5t-117 47.5q-71 0 -123 -48q-53 -48 -53 -144
v-301h-60v755h58v-310q24 51 72.5 77.5t112.5 26.5z" />
    <glyph glyph-name="f_i" unicode="fi" horiz-adv-x="606" 
d="M118 578q0 91 49 140.5t128 49.5q57 0 108 -27l-22 -49q-45 20 -82 20q-58 0 -89.5 -34.5t-31.5 -100.5v-42h200v-53h-200v-482h-60v482h-94v53h94v43zM458 707q15 15 37 15t36 -15q15 -15 15 -37t-15 -37q-14 -14 -36 -14t-37 14q-15 15 -15 37t15 37zM465 0v535h60
v-535h-60z" />
    <glyph glyph-name="f_j" unicode="fj" horiz-adv-x="606" 
d="M388 482h-210v-482h-60v482h-94v53h94v43q0 91 49 140.5t128 49.5q57 0 108 -27l-22 -49q-45 20 -82 20q-58 0 -89.5 -34.5t-31.5 -100.5v-42h210v-53zM458 707q15 15 37 15t36 -15q15 -14 15 -36t-15 -37q-14 -14 -36 -14t-37 14q-15 15 -15 37t15 36zM465 535h60v-584
q0 -88 -43 -133.5t-116 -45.5q-54 0 -95 23l16 51q42 -19 76 -19q49 0 75.5 31.5t26.5 88.5v588z" />
    <glyph glyph-name="f_k" unicode="fk" horiz-adv-x="890" 
d="M118 578q0 91 49 140.5t128 49.5q57 0 108 -27l-22 -49q-45 20 -82 20q-58 0 -89.5 -34.5t-31.5 -100.5v-42h200v-53h-200v-482h-60v482h-94v53h94v43zM816 0l-230 279l-63 -56v-223h-60v755h60v-459l267 239h81l-243 -218l266 -317h-78z" />
    <glyph glyph-name="f_l" unicode="fl" horiz-adv-x="605" 
d="M118 578q0 91 47 140.5t126 49.5q57 0 108 -27l-18 -49q-45 20 -82 20q-58 0 -89.5 -34.5t-31.5 -100.5v-42h200v-53h-200v-482h-60v482h-94v53h94v43zM463 755h60v-755h-60v755z" />
    <glyph glyph-name=".notdef" horiz-adv-x="130" 
 />
    <glyph glyph-name=".null" horiz-adv-x="0" 
 />
    <glyph glyph-name="nonmarkingreturn" unicode="&#xd;" horiz-adv-x="333" 
 />
    <glyph glyph-name="CR.001" horiz-adv-x="130" 
 />
    <glyph glyph-name="CR.001" horiz-adv-x="130" 
 />
    <glyph glyph-name="space" unicode=" " horiz-adv-x="247" 
 />
    <glyph glyph-name="exclam" unicode="!" horiz-adv-x="270" 
d="M106 164l-3 578h64l-4 -578h-57zM136 -12q-21 0 -35 14t-14 34t14 33.5t35 13.5q20 0 34 -13.5t14 -33.5q0 -21 -14 -34.5t-34 -13.5z" />
    <glyph glyph-name="quotedbl" unicode="&#x22;" horiz-adv-x="397" 
d="M80 449l85 290h71l-103 -290h-53zM245 449l85 290h71l-103 -290h-53z" />
    <glyph glyph-name="numbersign" unicode="#" horiz-adv-x="684" 
d="M638 469h-124l-39 -192h126l-10 -51h-127l-46 -226h-55l46 226h-191l-46 -226h-55l46 226h-127l9 51h129l39 192h-131l10 50h132l45 220h55l-45 -220h191l45 220h55l-45 -220h123zM420 277l39 192h-191l-39 -192h191z" />
    <glyph glyph-name="dollar" unicode="$" horiz-adv-x="552" 
d="M508 191q0 -82 -56 -138t-144 -63v-102h-51v101q-73 5 -132.5 43t-91.5 110l50 33q28 -61 77.5 -95t113.5 -34q38 0 69 11t53.5 30t34.5 45.5t12 56.5q0 78 -96 126q-11 5 -29.5 14t-46.5 20q-27 12 -45 21l-28 14q-126 63 -126 176q0 77 51 130q52 53 138 61v92h50v-92
q114 -12 181 -109l-45 -37q-63 90 -162 90q-66 0 -107.5 -36t-41.5 -96q0 -76 89 -123q10 -5 30 -14.5t51 -23.5q61 -27 84 -39q118 -63 118 -172z" />
    <glyph glyph-name="percent" unicode="%" horiz-adv-x="872" 
d="M220 389q-74 0 -130 53q-54 52 -54 128q0 75 54 128q55 54 130 54q76 0 130 -54q54 -53 54 -128q0 -76 -54 -128q-55 -53 -130 -53zM120 0l562 739h65l-563 -739h-64zM126 476q39 -39 94 -39t93 39q39 39 39 94t-39 94q-38 39 -93 39t-94 -39q-38 -40 -38 -94t38 -94z
M782 41q-55 -53 -130 -53t-130 53q-54 52 -54 128q0 75 54 128q54 54 130 54t130 -54q54 -53 54 -128q0 -76 -54 -128zM520 169q0 -54 38 -94q39 -39 94 -39t93 38q39 39 39 95t-39 95q-38 39 -93 39t-94 -39q-38 -40 -38 -95z" />
    <glyph glyph-name="ampersand" unicode="&#x26;" horiz-adv-x="680" 
d="M673 35l-36 -42l-122 114q-116 -117 -245 -117q-99 0 -163 60t-64 148q0 135 155 219q-53 73 -53 149q0 79 52 131q53 53 126 53q64 0 111 -41q46 -40 46 -104q0 -37 -15 -67t-49 -56q-17 -13 -31 -22t-25 -16q-23 -14 -69 -36l-12 -6q24 -27 56 -56l175 -161
q19 22 39 50.5t43 63.5l43 -33q-39 -64 -84 -118zM324 701q-52 0 -88 -39q-35 -40 -35 -95q0 -62 45 -126l55 27q8 4 19 10.5t26 15.5q15 10 25.5 17.5t16.5 14.5q13 14 24 34.5t11 42.5q0 42 -28 70t-71 28zM275 43q102 0 200 101l-184 172q-33 30 -60 60
q-61 -35 -94.5 -76.5t-33.5 -99.5q0 -68 48 -113q49 -44 124 -44z" />
    <glyph glyph-name="quotesingle" unicode="'" horiz-adv-x="232" 
d="M49 449l85 290h71l-103 -290h-53z" />
    <glyph glyph-name="parenleft" unicode="(" horiz-adv-x="369" 
d="M337 -220q-140 77 -216 211t-76 303q0 170 76 303q77 136 216 212l27 -46q-126 -75 -191.5 -195.5t-65.5 -273.5t66 -273t191 -195z" />
    <glyph glyph-name="parenright" unicode=")" horiz-adv-x="369" 
d="M5 -174q125 75 190.5 195t65.5 273t-65.5 273.5t-190.5 195.5l26 46q139 -76 216 -212q77 -134 77 -303q0 -167 -77 -303q-76 -134 -216 -211z" />
    <glyph glyph-name="asterisk" unicode="*" horiz-adv-x="441" 
d="M124 405l-39 31l98 114l-135 62l21 44l129 -61l-2 149h50l-2 -149l129 61l20 -44l-135 -62l98 -114l-39 -31l-96 120z" />
    <glyph glyph-name="plus" unicode="+" horiz-adv-x="513" 
d="M476 371v-56h-191v-190l-56 -1v191h-191v56h191v192h56v-192h191z" />
    <glyph glyph-name="comma" unicode="," horiz-adv-x="224" 
d="M116 79q23 0 38 -17t15 -42q0 -76 -105 -142l-19 27q65 46 79 84q-8 -4 -17 -4q-17 0 -30 13.5t-13 31.5q0 20 15 34.5t37 14.5z" />
    <glyph glyph-name="hyphen" unicode="-" horiz-adv-x="523" 
d="M71 249v56h382v-56h-382z" />
    <glyph glyph-name="period" unicode="." horiz-adv-x="219" 
d="M110 -16q-21 0 -35 14t-14 34t14 33.5t35 13.5q20 0 34 -13.5t14 -33.5q0 -21 -14 -34.5t-34 -13.5z" />
    <glyph glyph-name="slash" unicode="/" horiz-adv-x="570" 
d="M21 -123l471 948h56l-469 -948h-58z" />
    <glyph glyph-name="zero" unicode="0" horiz-adv-x="663" 
d="M331 -12q-73 0 -128.5 34.5t-86.5 91.5q-31 58 -45.5 122.5t-14.5 133.5t14.5 133.5t45.5 121.5q31 58 86.5 92.5t128.5 34.5q75 0 130 -34.5t85 -92.5q31 -57 45.5 -121t14.5 -134t-14.5 -134t-45.5 -122q-30 -57 -85 -91.5t-130 -34.5zM331 45q101 0 157 89t56 236
q0 146 -56 235q-56 90 -157 90q-102 0 -157 -90q-55 -88 -55 -235t55 -236q56 -89 157 -89z" />
    <glyph glyph-name="one" unicode="1" horiz-adv-x="369" 
d="M220 739h48v-739h-62v653l-161 -136l-36 43z" />
    <glyph glyph-name="two" unicode="2" horiz-adv-x="538" 
d="M137 56h352v-57h-437v53l213 240q79 90 114 145q37 56 37 113q0 31 -11.5 58t-32 46t-49.5 30t-63 11q-100 0 -185 -88l-38 42q100 103 224 103q95 0 154 -58q61 -57 61 -148q0 -51 -31 -112q-16 -31 -45 -71t-72 -89z" />
    <glyph glyph-name="three" unicode="3" horiz-adv-x="542" 
d="M245 -12q-118 0 -215 75l31 49q89 -67 184 -67q81 0 129 42.5t48 111.5q0 67 -45.5 109t-136.5 42h-79v55h73q85 0 129 44t44 104q0 31 -11.5 57.5t-32 45t-49.5 29t-63 10.5q-100 0 -173 -73l-34 42q37 40 93 64t116 24q97 0 156 -56q60 -56 60 -138q0 -63 -34.5 -110
t-91.5 -65v-4q66 -15 103.5 -63.5t37.5 -117.5q0 -91 -67 -151q-67 -59 -172 -59z" />
    <glyph glyph-name="four" unicode="4" horiz-adv-x="566" 
d="M525 253v-56h-83v-197h-61v197h-357l-10 38l391 504h37v-486h83zM97 253h284v365z" />
    <glyph glyph-name="five" unicode="5" horiz-adv-x="559" 
d="M281 474q100 0 168 -66q67 -66 67 -173q0 -110 -72 -179q-71 -68 -180 -68q-121 0 -222 91l33 46q89 -80 187 -80q83 0 138 53q54 52 54 137q0 82 -50 132t-128 50q-94 0 -157 -78l-44 22l38 378h353v-55h-302l-28 -259q58 49 145 49z" />
    <glyph glyph-name="six" unicode="6" horiz-adv-x="601" 
d="M315 -9q-125 0 -192 100t-67 257q0 76 17 148.5t53 129.5t90.5 91.5t129.5 34.5q105 0 178 -61l-28 -46q-64 52 -147 52q-64 0 -112.5 -34.5t-74.5 -91.5t-37.5 -119.5t-8.5 -125.5h3q16 64 75 108q58 43 132 43q98 0 164 -68t66 -172q0 -105 -68 -176q-67 -70 -173 -70z
M319 47q74 0 125 54q52 55 52 136q0 79 -51 132q-50 53 -125 53t-130 -55q-54 -54 -54 -131q0 -75 53 -133q53 -56 130 -56z" />
    <glyph glyph-name="seven" unicode="7" horiz-adv-x="487" 
d="M19 739h450v-38l-295 -701h-66l294 684h-383v55z" />
    <glyph glyph-name="eight" unicode="8" horiz-adv-x="609" 
d="M305 -12q-112 0 -182 60t-70 149q0 33 10.5 63.5t30 56t48 44.5t64.5 29v2q-61 25 -92.5 70.5t-31.5 99.5q0 81 62 135q62 55 161 55q98 0 159 -55q62 -54 62 -135q0 -54 -32 -100.5t-92 -69.5v-3q36 -10 64.5 -29t48.5 -44t30.5 -55.5t10.5 -63.5q0 -89 -71 -149
t-180 -60zM304 416q78 0 121 43t43 100q0 58 -46 98q-46 41 -117 41q-72 0 -119 -41q-45 -41 -45 -98t43 -100t120 -43zM496 203q0 65 -49 111q-50 48 -142 48q-94 0 -143 -48q-50 -47 -50 -112q0 -68 54 -114q55 -45 139 -45t137 45q54 46 54 115z" />
    <glyph glyph-name="nine" unicode="9" horiz-adv-x="600" 
d="M261 -10q-109 0 -180 61l27 47q65 -53 151 -53q67 0 112 34t71 88t35.5 120t7.5 131h-3q-17 -65 -76 -109q-58 -43 -132 -43q-96 0 -164 68q-66 67 -66 171q0 105 68 176t174 71q125 0 191 -100q66 -99 66 -259q0 -77 -16 -150t-50 -129t-87.5 -90t-128.5 -34zM281 321
q74 0 128 54q55 55 55 132q0 75 -53 133q-53 57 -130 57q-74 0 -125 -55q-51 -54 -51 -136q0 -80 50 -133q51 -52 126 -52z" />
    <glyph glyph-name="colon" unicode=":" horiz-adv-x="238" 
d="M126 368q-21 0 -35 14t-14 34t14 33.5t35 13.5q20 0 34 -13.5t14 -33.5q0 -21 -14 -34.5t-34 -13.5zM126 -16q-21 0 -35 14t-14 34t14 33.5t35 13.5q20 0 34 -13.5t14 -33.5q0 -21 -14 -34.5t-34 -13.5z" />
    <glyph glyph-name="semicolon" unicode=";" horiz-adv-x="268" 
d="M136 366q-24 -2 -36.5 14t-12.5 35t12.5 34.5t36.5 13.5q21 0 35.5 -13.5t14.5 -34.5t-14.5 -35t-35.5 -14zM136 79q23 0 38 -17t15 -42q0 -76 -105 -142l-19 27q65 46 79 84q-8 -4 -17 -4q-17 0 -30 13.5t-13 31.5q0 20 15 34.5t37 14.5z" />
    <glyph glyph-name="less" unicode="&#x3c;" horiz-adv-x="541" 
d="M474 65l-441 243v44l441 243v-64l-367 -201l367 -200v-65z" />
    <glyph glyph-name="equal" unicode="=" horiz-adv-x="586" 
d="M74 386v55h438v-55h-438zM74 214v55h438v-55h-438z" />
    <glyph glyph-name="greater" unicode="&#x3e;" horiz-adv-x="529" 
d="M62 59v65l354 201l-354 200v64l436 -249v-32z" />
    <glyph glyph-name="question" unicode="?" horiz-adv-x="496" 
d="M189 161v75q0 40 20.5 75.5t49.5 62.5q22 19 45 39.5t42 43t31 48t12 55.5q0 59 -44 98q-43 40 -111 40q-94 0 -166 -84l-39 39q38 48 92.5 74.5t114.5 26.5q88 0 150 -54q63 -53 63 -140q0 -45 -21 -84t-51 -67q-22 -20 -45 -40.5t-42.5 -41.5t-32 -43t-12.5 -46v-77
h-56zM218 -12q-21 0 -35.5 14t-14.5 34t14.5 33.5t35.5 13.5q19 0 33 -13.5t14 -33.5q0 -21 -14 -34.5t-33 -13.5z" />
    <glyph glyph-name="at" unicode="@" horiz-adv-x="968" 
d="M618 483h52v-279q0 -39 19.5 -59.5t48.5 -20.5q54 0 92 59q38 61 38 146q0 145 -112 250q-111 105 -265 105q-162 0 -274 -117q-113 -118 -113 -283q0 -167 117 -282q116 -115 287 -115q81 0 155.5 28t129.5 79l30 -40q-53 -50 -138 -84q-84 -34 -181 -34q-126 0 -231 60
t-165 163t-60 224q-1 60 14 117.5t44 108t70 92.5t91 72t106.5 46t116.5 15q178 0 305 -121t127 -286q0 -107 -56 -181q-56 -72 -133 -72q-46 0 -75 25.5t-36 61.5q-26 -42 -68 -64.5t-93 -22.5q-83 0 -140 60q-56 62 -56 150q0 91 58 152q59 62 143 62q48 0 88.5 -20
t63.5 -54v59zM468 124q64 0 107 46q44 47 44 115q0 70 -43 116q-44 47 -106 47q-64 0 -108 -47q-43 -46 -43 -116q0 -69 42 -115t107 -46z" />
    <glyph glyph-name="A" unicode="A" horiz-adv-x="652" 
d="M569 0l-88 224h-311l-88 -224h-67l295 739h33l293 -739h-67zM326 630l-136 -349h271z" />
    <glyph glyph-name="B" unicode="B" horiz-adv-x="661" 
d="M467 400q34 -9 61 -28t45.5 -44t28 -55t9.5 -63q0 -86 -61 -148q-62 -62 -173 -62h-276v739h266q99 0 151 -55q54 -54 54 -129q0 -54 -28.5 -96.5t-76.5 -58.5zM162 681v-257h210q30 0 55.5 10t44 28t28.5 42t10 51q0 55 -38.5 90.5t-110.5 35.5h-199zM372 58
q78 0 127 44q49 45 49 111t-49 109q-50 44 -128 44h-209v-308h210z" />
    <glyph glyph-name="C" unicode="C" horiz-adv-x="785" 
d="M430 -11q-160 0 -269 106q-110 107 -110 272q0 168 111 276q112 109 270 109q102 0 188 -46q87 -45 133 -118l-47 -35q-42 63 -114.5 101.5t-159.5 38.5q-136 0 -228 -92q-91 -91 -91 -233q0 -140 90 -231q91 -90 228 -90q85 0 157.5 36.5t120.5 100.5l44 -36
q-54 -72 -137.5 -115.5t-185.5 -43.5z" />
    <glyph glyph-name="D" unicode="D" horiz-adv-x="749" 
d="M101 0v739h254q157 0 248 -100q92 -101 92 -271t-93 -269t-255 -99h-246zM162 58h185q134 0 209 84q76 85 76 227q0 141 -75 227q-73 85 -204 85h-191v-623z" />
    <glyph glyph-name="E" unicode="E" horiz-adv-x="601" 
d="M101 0v739h445v-58h-384v-278h358v-57h-358v-288h386v-58h-447z" />
    <glyph glyph-name="F" unicode="F" horiz-adv-x="555" 
d="M101 0v739h428v-59h-367v-276h326v-59h-326v-345h-61z" />
    <glyph glyph-name="G" unicode="G" horiz-adv-x="819" 
d="M428 -11q-164 0 -270 108q-107 109 -107 272q0 166 112 274q112 109 271 109q91 0 175 -38t133 -99l-44 -40q-45 55 -115.5 86.5t-148.5 31.5q-136 0 -229 -93q-92 -92 -92 -231q0 -140 90 -231t226 -91q156 0 275 122v173h-295v57h354v-253q-136 -157 -335 -157z" />
    <glyph glyph-name="H" unicode="H" horiz-adv-x="737" 
d="M101 0v739h62v-342h412v342h61v-739h-61v339h-412v-339h-62z" />
    <glyph glyph-name="I" unicode="I" horiz-adv-x="263" 
d="M101 739h61v-739h-61v739z" />
    <glyph glyph-name="J" unicode="J" horiz-adv-x="550" 
d="M229 -12q-127 0 -208 98l41 43q30 -39 74 -61t93 -22q36 0 66.5 12.5t52.5 36t34.5 57t12.5 75.5v512h62v-508q0 -118 -64 -181q-65 -62 -164 -62z" />
    <glyph glyph-name="K" unicode="K" horiz-adv-x="625" 
d="M555 0l-287 346l-106 -124v-222h-61v739h61v-432l369 432h74l-296 -349l324 -390h-78z" />
    <glyph glyph-name="L" unicode="L" horiz-adv-x="589" 
d="M101 0v739h61v-680h413v-59h-474z" />
    <glyph glyph-name="M" unicode="M" horiz-adv-x="904" 
d="M101 0v739h27l325 -478l322 478h28v-739h-61v588l-282 -418h-15l-283 417v-587h-61z" />
    <glyph glyph-name="N" unicode="N" horiz-adv-x="770" 
d="M608 739h61v-739h-32l-475 601v-601h-61v739h27l480 -607v607z" />
    <glyph glyph-name="O" unicode="O" 
d="M428 -12q-159 0 -268 111q-110 112 -110 269q0 158 111 271t269 113q157 0 268 -112q112 -112 112 -270t-112 -270q-111 -112 -270 -112zM430 47q133 0 225 93q92 95 92 229q0 135 -92 230q-91 94 -225 94q-133 0 -226 -95q-92 -95 -92 -229t92 -229q91 -93 226 -93z" />
    <glyph glyph-name="P" unicode="P" horiz-adv-x="598" 
d="M329 739q115 0 175 -67q61 -67 61 -159q0 -93 -64 -160q-63 -66 -181 -66h-158v-287h-61v739h228zM321 344q42 0 76 13t57.5 35.5t36 54t12.5 67.5t-12 67t-34 53t-54 34.5t-71 12.5h-170v-337h159z" />
    <glyph glyph-name="Q" unicode="Q" 
d="M706 -68q45 0 91 17l8 -53q-45 -19 -101 -19q-138 0 -239 113q-12 -1 -21 -1.5t-14 -0.5q-157 0 -269 112q-111 112 -111 270q0 157 111 270q112 112 269 112q158 0 269 -112q111 -113 111 -270q0 -128 -77 -231q-77 -102 -197 -136q74 -71 170 -71zM113 369
q0 -134 92 -229q91 -93 225 -93q133 0 225 93q92 95 92 229q0 135 -92 230q-91 94 -225 94t-225 -94q-92 -95 -92 -230z" />
    <glyph glyph-name="R" unicode="R" horiz-adv-x="619" 
d="M499 0l-189 312h-148v-312h-61v739h223q113 0 173 -64q61 -62 61 -150q0 -75 -48 -133q-46 -57 -135 -74l198 -318h-74zM162 681v-311h148q91 0 138 43.5t47 113.5q0 69 -45.5 111.5t-124.5 42.5h-163z" />
    <glyph glyph-name="S" unicode="S" horiz-adv-x="551" 
d="M275 -12q-78 0 -143.5 39t-99.5 115l49 33q28 -61 77 -95t115 -34q75 0 122 41t47 102q0 43 -24.5 72.5t-72.5 53.5q-11 5 -29.5 14t-46.5 21q-27 12 -45 20.5t-28 13.5q-126 63 -126 176q0 83 58 137q58 55 154 55q132 0 209 -110l-46 -37q-63 90 -162 90
q-66 0 -107.5 -36t-41.5 -96q0 -76 89 -123q10 -5 30 -14.5t51 -23.5q61 -27 84 -39q119 -65 119 -172q0 -90 -67 -147q-67 -56 -165 -56z" />
    <glyph glyph-name="T" unicode="T" horiz-adv-x="539" 
d="M239 680h-224v59h509v-59h-224v-680h-61v680z" />
    <glyph glyph-name="U" unicode="U" horiz-adv-x="685" 
d="M93 739h61v-489q0 -97 49 -149.5t140 -52.5q90 0 139 53t49 149v489h61v-499q0 -118 -68 -186q-67 -67 -181 -67t-182 67q-68 68 -68 186v499z" />
    <glyph glyph-name="V" unicode="V" horiz-adv-x="664" 
d="M584 739h65l-300 -739h-32l-304 739h67l253 -631z" />
    <glyph glyph-name="W" unicode="W" horiz-adv-x="1010" 
d="M263 0l-247 739h62l201 -618l212 618h27l215 -617l199 617h61l-245 -739h-30l-213 622l-212 -622h-30z" />
    <glyph glyph-name="X" unicode="X" horiz-adv-x="591" 
d="M12 0l248 376l-237 363h72l201 -313l202 313h74l-240 -363l245 -376h-72l-209 323l-210 -323h-74z" />
    <glyph glyph-name="Y" unicode="Y" horiz-adv-x="602" 
d="M581 739l-250 -446v-293h-61v293l-248 446h67l212 -389l213 389h67z" />
    <glyph glyph-name="Z" unicode="Z" horiz-adv-x="577" 
d="M26 0v37l430 644h-411v58h490v-46l-421 -635h432v-58h-520z" />
    <glyph glyph-name="bracketleft" unicode="[" horiz-adv-x="360" 
d="M95 -227v1038h254v-51h-193v-936h193v-51h-254z" />
    <glyph glyph-name="backslash" unicode="\" horiz-adv-x="571" 
d="M550 -123h-57l-471 948h57z" />
    <glyph glyph-name="bracketright" unicode="]" horiz-adv-x="360" 
d="M11 -227v51h193v936h-193v51h254v-1038h-254z" />
    <glyph glyph-name="asciicircum" unicode="^" horiz-adv-x="504" 
d="M46 431l193 308h27l192 -308h-62l-144 237l-143 -237h-63z" />
    <glyph glyph-name="underscore" unicode="_" horiz-adv-x="575" 
d="M0 -141v55h575v-55h-575z" />
    <glyph glyph-name="grave" unicode="`" horiz-adv-x="426" 
d="M186 620h-51l-85 160h77z" />
    <glyph glyph-name="a" unicode="a" horiz-adv-x="662" 
d="M522 535h58v-535h-58v104q-34 -55 -89 -86t-122 -31q-114 0 -190 81q-76 82 -76 202q0 118 75 198q77 80 191 80q67 0 122 -30.5t89 -85.5v103zM314 42q93 0 153 66t60 162q0 93 -60 158t-153 65q-92 0 -151 -65q-58 -64 -58 -160q0 -97 58 -161q59 -65 151 -65z" />
    <glyph glyph-name="b" unicode="b" horiz-adv-x="665" 
d="M355 547q112 0 189 -81q76 -80 76 -199q0 -118 -76 -200q-77 -81 -190 -81q-69 0 -124.5 32t-88.5 89v-107h-60v755h60v-328q34 57 89.5 88.5t124.5 31.5zM351 43q91 0 149 64q59 65 59 160t-58 159q-59 65 -150 65q-93 0 -153 -65q-59 -65 -59 -157q0 -94 59 -161
q60 -65 153 -65z" />
    <glyph glyph-name="c" unicode="c" horiz-adv-x="595" 
d="M319 -12q-120 0 -196 78q-77 80 -77 201q0 122 78 202q79 79 201 79q79 0 143.5 -37t95.5 -101l-49 -28q-27 51 -78 81t-112 30q-96 0 -157 -64q-62 -64 -62 -162t60 -161t153 -63q30 0 59 8t54.5 23t46 35.5t33.5 44.5l49 -30q-31 -61 -98 -99q-65 -37 -144 -37z" />
    <glyph glyph-name="d" unicode="d" horiz-adv-x="665" 
d="M523 755h60v-755h-60v104q-34 -57 -88.5 -87.5t-123.5 -30.5q-114 0 -190 81q-76 82 -76 200q0 119 76 199q76 81 190 81q69 0 123.5 -31t88.5 -86v325zM314 42q93 0 153 66t60 161q0 93 -60 158t-153 65q-92 0 -151 -65q-58 -64 -58 -160t58 -160q59 -65 151 -65z" />
    <glyph glyph-name="e" unicode="e" horiz-adv-x="604" 
d="M561 291q0 -11 -3 -47h-450q3 -45 19 -81.5t43.5 -63t66.5 -41t88 -14.5q26 0 53 4.5t53 13t49 20t41 26.5l28 -46q-39 -31 -99 -52.5t-126 -21.5q-74 0 -126.5 24t-86.5 64t-49.5 90t-15.5 103q0 121 73 200t193 79q108 0 178 -70q71 -69 71 -187zM312 493
q-42 0 -77.5 -14t-62 -39.5t-43.5 -61t-21 -79.5h391q0 45 -14 80.5t-39 61t-59 39t-75 13.5z" />
    <glyph glyph-name="f" unicode="f" horiz-adv-x="382" 
d="M307 712q-63 0 -96 -34.5t-33 -100.5v-42h200v-53h-200v-482h-60v482h-94v53h94v43q0 91 50 140.5t135 49.5q62 0 115 -29l-21 -49q-44 22 -90 22z" />
    <glyph glyph-name="g" unicode="g" horiz-adv-x="663" 
d="M522 535h60v-488q0 -127 -75 -200q-74 -74 -202 -74q-127 0 -230 76l31 48q91 -69 200 -69q50 0 90 15t68 42.5t43 67t15 88.5v69q-34 -54 -89 -83t-121 -29q-115 0 -191 79t-76 196q0 115 77 195t191 80q66 0 120.5 -28.5t88.5 -80.5v96zM314 53q92 0 152 64
q61 64 61 158q0 93 -61 155q-60 63 -152 63t-150 -63q-59 -64 -59 -157t59 -157q58 -63 150 -63z" />
    <glyph glyph-name="h" unicode="h" horiz-adv-x="611" 
d="M81 0v755h58v-310q24 51 72.5 77.5t112.5 26.5q90 0 151 -59q61 -58 61 -167v-323h-60v313q0 85 -42 132.5t-117 47.5q-71 0 -123 -48q-53 -48 -53 -144v-301h-60z" />
    <glyph glyph-name="i" unicode="i" horiz-adv-x="223" 
d="M109 619q-22 0 -37 14.5t-15 36.5t15 36.5t37 14.5q21 0 36 -14.5t15 -36.5t-15 -36.5t-36 -14.5zM137 0h-60v535h60v-535z" />
    <glyph glyph-name="j" unicode="j" horiz-adv-x="247" 
d="M136 619q-22 0 -37 14.5t-15 36.5t15 36.5t37 14.5q21 0 36 -14.5t15 -36.5t-15 -36.5t-36 -14.5zM7 -228q-57 0 -95 23l15 51q44 -19 76 -19q51 0 76.5 31.5t25.5 88.5v588h60v-584q0 -88 -42.5 -133.5t-115.5 -45.5z" />
    <glyph glyph-name="k" unicode="k" horiz-adv-x="508" 
d="M434 0l-230 279l-63 -56v-223h-60v755h60v-459l267 239h81l-243 -218l266 -317h-78z" />
    <glyph glyph-name="l" unicode="l" horiz-adv-x="223" 
d="M141 0h-60v755h60v-755z" />
    <glyph glyph-name="m" unicode="m" horiz-adv-x="954" 
d="M675 549q90 0 147 -57q58 -57 58 -159v-333h-60v328q0 78 -40 121.5t-107 43.5q-63 0 -113 -44q-49 -43 -49 -129v-320h-60v321q0 79 -39.5 125.5t-106.5 46.5q-65 0 -115 -47q-49 -46 -49 -145v-301h-60v535h59v-90q22 49 67 76.5t102 27.5q58 0 105 -29.5t69 -86.5
q25 57 77 86.5t115 29.5z" />
    <glyph glyph-name="n" unicode="n" horiz-adv-x="612" 
d="M81 0v535h58v-94q24 54 72 81t114 27q89 0 151 -59q61 -58 61 -167v-323h-60v312q0 85 -42 133t-117 48q-71 0 -124 -49q-53 -48 -53 -144v-300h-60z" />
    <glyph glyph-name="o" unicode="o" horiz-adv-x="646" 
d="M45 268q0 119 79 199q79 81 199 81q119 0 199 -81q79 -80 79 -199q0 -120 -79 -200q-80 -81 -199 -81q-120 0 -199 81q-79 80 -79 200zM323 42q94 0 156 65q62 67 62 161q0 95 -62 160t-156 65q-93 0 -156 -66q-62 -65 -62 -159t62 -161q63 -65 156 -65z" />
    <glyph glyph-name="p" unicode="p" horiz-adv-x="666" 
d="M355 549q114 0 190 -82q76 -80 76 -199t-76 -199q-77 -81 -190 -81q-69 0 -124.5 31t-89.5 88v-327h-60v755h60v-109q34 58 89.5 90.5t124.5 32.5zM352 43q91 0 150 65t59 160t-59 160t-150 65q-93 0 -153 -66t-60 -161q0 -94 60 -158q60 -65 153 -65z" />
    <glyph glyph-name="q" unicode="q" horiz-adv-x="666" 
d="M524 535h60v-755h-60v325q-34 -55 -89 -86t-124 -31q-114 0 -190 81q-76 80 -76 199t76 199q76 82 190 82q69 0 124 -32t89 -89v107zM314 43q93 0 153 65q60 64 60 158q0 95 -60 161t-153 66q-91 0 -150 -65t-59 -160q0 -96 58 -160q59 -65 151 -65z" />
    <glyph glyph-name="r" unicode="r" horiz-adv-x="366" 
d="M81 0v535h57v-86q43 100 155 100q31 0 66 -9l-7 -57q-29 9 -57 9q-36 0 -65 -13.5t-48.5 -38.5t-30 -59t-10.5 -76v-305h-60z" />
    <glyph glyph-name="s" unicode="s" horiz-adv-x="442" 
d="M220 -12q-60 0 -110 28.5t-79 88.5l48 30q46 -93 141 -93q27 0 49.5 8t38.5 22t25 32t9 39q0 52 -68 87q-20 10 -64 27q-23 10 -39 17t-25 12q-85 43 -85 125q0 30 11.5 56t33 45t51.5 30t68 11q110 0 161 -84l-42 -34q-38 65 -120 65q-51 0 -78 -24.5t-27 -62.5
q0 -53 58 -81l60 -26q23 -10 41 -17.5t30 -13.5q46 -22 70 -52t24 -76q0 -67 -51 -113q-50 -46 -131 -46z" />
    <glyph glyph-name="t" unicode="t" horiz-adv-x="414" 
d="M411 34q-58 -46 -142 -46q-81 0 -121 49.5t-40 137.5v307h-95v53h96v189h59v-189h220v-53h-220v-309q0 -130 106 -130q62 0 112 37z" />
    <glyph glyph-name="u" unicode="u" horiz-adv-x="585" 
d="M292 -13q-99 0 -159 60q-59 62 -59 162v326h60v-325q0 -78 42.5 -122.5t115.5 -44.5q75 0 117 45t42 123v324h60v-326q0 -103 -58 -162.5t-161 -59.5z" />
    <glyph glyph-name="v" unicode="v" horiz-adv-x="539" 
d="M458 535h66l-236 -534h-37l-236 534h66l189 -442z" />
    <glyph glyph-name="w" unicode="w" horiz-adv-x="814" 
d="M204 1l-188 534h62l149 -440l160 440l40 -1l162 -439l146 440h63l-187 -534h-42l-162 449l-161 -449h-42z" />
    <glyph glyph-name="x" unicode="x" horiz-adv-x="474" 
d="M456 0h-70l-150 225l-151 -225h-72l189 276l-174 259h71l139 -212l143 212h71l-180 -262z" />
    <glyph glyph-name="y" unicode="y" horiz-adv-x="531" 
d="M449 535h66l-226 -575q-20 -51 -39.5 -86.5t-41.5 -58t-47 -32.5t-55 -10q-43 0 -77 19l9 53q35 -16 66 -16q42 0 72 34t56 103l13 34l-228 535h66l191 -457z" />
    <glyph glyph-name="z" unicode="z" horiz-adv-x="477" 
d="M106 53h341v-53h-419v41l330 440h-312v53h386v-43z" />
    <glyph glyph-name="braceleft" unicode="{" horiz-adv-x="343" 
d="M291 760q-111 0 -111 -120q0 -39 3 -118q2 -40 3 -65.5t1 -37.5q0 -46 -22.5 -79.5t-60.5 -49.5q38 -16 60.5 -48.5t22.5 -80.5q0 -12 -1 -37.5t-3 -65.5q-3 -80 -3 -117q0 -121 111 -121h36v-51h-38q-167 0 -167 174q0 42 3 122q2 40 3 64.5t1 34.5q0 88 -105 105v42
q105 16 105 105q0 10 -1 34.5t-3 64.5q-3 79 -3 123q0 87 42.5 130t124.5 43h38v-51h-36z" />
    <glyph glyph-name="bar" unicode="|" horiz-adv-x="245" 
d="M95 -179v1026h55v-1026h-55z" />
    <glyph glyph-name="braceright" unicode="}" horiz-adv-x="343" 
d="M214 416q0 -89 105 -105v-42q-105 -17 -105 -105q0 -20 3 -99q2 -40 3 -70t1 -52q0 -174 -167 -174h-38v51h35q112 0 112 121q0 19 -1 48t-3 69q-3 79 -3 103q0 48 22.5 80.5t60.5 48.5q-38 16 -60.5 48.5t-22.5 80.5q0 23 3 103q2 40 3 69.5t1 48.5q0 120 -112 120h-35
v51h38q82 0 124.5 -43t42.5 -130q0 -22 -1 -52.5t-3 -70.5q-3 -80 -3 -99z" />
    <glyph glyph-name="asciitilde" unicode="~" horiz-adv-x="636" 
d="M423 275q-43 0 -105 34t-93 34q-36 0 -61 -15t-52 -49l-40 29q57 89 155 89q44 0 108 -34t91 -34q33 0 54.5 13.5t45.5 45.5l40 -31q-54 -82 -143 -82z" />
    <glyph glyph-name="exclamdown" unicode="&#xa1;" horiz-adv-x="234" 
d="M128 526q20 0 34 -13.5t14 -34.5q0 -20 -14 -33.5t-34 -13.5q-21 0 -35 13.5t-14 33.5t14 34t35 14zM98 350h57l4 -578h-64z" />
    <glyph glyph-name="cent" unicode="&#xa2;" horiz-adv-x="607" 
d="M347 45q54 6 99 36t68 73l49 -30q-29 -57 -87 -93t-129 -42v-80h-51v80q-109 7 -179 85q-69 78 -69 193t69 192q70 78 179 88v82h51v-82q73 -5 132 -41t87 -96l-49 -28q-25 48 -70 77t-100 33v-447zM296 491q-84 -11 -136 -72t-52 -152q0 -92 52 -153t136 -70v447z" />
    <glyph glyph-name="sterling" unicode="&#xa3;" horiz-adv-x="551" 
d="M507 57v-57h-450v45q41 32 68 90q28 57 28 120q0 42 -16 93h-85v54h67q-31 93 -31 140q0 90 60 149q61 60 152 61q64 1 117 -30t83 -86l-49 -32q-50 92 -148 92q-66 -1 -110 -45q-43 -43 -43 -112q0 -41 32 -137h258v-54h-240q14 -56 14 -99q-2 -113 -78 -192h371z" />
    <glyph glyph-name="currency" unicode="&#xa4;" horiz-adv-x="636" 
d="M537 367q0 -79 -51 -140l73 -71l-38 -36l-73 72q-59 -45 -133 -45q-72 0 -130 43l-71 -70l-37 36l70 69q-52 62 -52 142q0 72 44 133l-78 78l37 36l77 -76q61 52 140 52t144 -54l79 78l37 -36l-81 -80q43 -58 43 -131zM150 368q0 -71 48 -120q49 -49 117 -49t117 49
q50 50 50 120q0 71 -49 120q-50 50 -118 50q-67 0 -117 -50q-48 -50 -48 -120z" />
    <glyph glyph-name="yen" unicode="&#xa5;" horiz-adv-x="602" 
d="M570 739l-213 -385h154v-50h-180v-78h180v-50h-180v-176h-61v176h-182v50h182v78h-182v50h157l-212 385h65l204 -377l204 377h64z" />
    <glyph glyph-name="brokenbar" unicode="&#xa6;" horiz-adv-x="245" 
d="M95 434v413h55v-413h-55zM150 234v-413h-55v413h55z" />
    <glyph glyph-name="section" unicode="&#xa7;" horiz-adv-x="545" 
d="M506 195q0 -86 -72 -129q26 -41 26 -92q0 -81 -58 -133t-147 -52q-130 0 -209 105l43 37q68 -86 165 -86q32 0 59 9.5t46.5 26.5t30.5 40.5t11 50.5q0 25 -11.5 48t-24.5 37q-11 14 -42 34q-29 19 -43 25l-50 26q-22 11 -39 20t-32 18t-28 18.5t-28 21.5
q-29 24 -42.5 52.5t-13.5 62.5q0 39 19 72.5t51 53.5q-30 43 -30 101q0 83 56 136q55 54 147 54q123 0 197 -104l-43 -35q-61 82 -151 82q-66 0 -106 -37t-40 -95q0 -32 12 -57.5t41 -48.5q15 -11 28 -19.5t24 -15.5q22 -14 69 -36l12 -6q20 -10 35.5 -18t29.5 -16.5
t26.5 -17t26.5 -20.5q55 -46 55 -113zM397 108q49 27 49 82q0 45 -34.5 75t-106.5 65q-58 28 -95.5 50.5t-56.5 39.5q-46 -25 -46 -81q0 -22 9 -40.5t27.5 -35.5t47 -34t67.5 -36l26 -14q11 -5 19 -9.5t12 -6.5q17 -9 41.5 -25t40.5 -30z" />
    <glyph glyph-name="dieresis" unicode="&#xa8;" horiz-adv-x="494" 
d="M56 695q0 21 16 37t39 16t38.5 -16t15.5 -37q0 -23 -15.5 -39t-38.5 -16t-39 16t-16 39zM240 695q0 21 16 37t39 16t39 -16t16 -37q0 -23 -16 -39t-39 -16t-39 16t-16 39z" />
    <glyph glyph-name="copyright" unicode="&#xa9;" horiz-adv-x="868" 
d="M49 369q0 157 113 270t272 113t272 -113t113 -270q0 -156 -113 -269q-112 -112 -272 -112t-272 112q-113 113 -113 269zM768 369q0 138 -98 236q-98 99 -236 99q-139 0 -236 -99q-98 -98 -98 -236q0 -137 98 -235t236 -98t236 98t98 235zM436 164q-85 0 -144 59
q-58 58 -58 146t58 146q59 59 144 59q96 0 158 -74l-34 -29q-50 59 -122 59q-67 0 -112 -45q-44 -46 -44 -116q0 -69 45 -115q45 -45 111 -45q74 0 124 53l31 -30q-60 -68 -157 -68z" />
    <glyph glyph-name="ordfeminine" unicode="&#xaa;" horiz-adv-x="410" 
d="M195 736q66 0 104.5 -37.5t38.5 -106.5v-201h-43v46q-39 -55 -118 -55q-57 0 -91 30.5t-34 78.5t37.5 76.5t103.5 28.5q54 0 102 -13v9q0 102 -101 102q-63 0 -103 -31l-21 35q49 38 125 38zM178 425q51 0 83.5 31t33.5 88q-46 13 -99 13q-48 0 -73.5 -18t-25.5 -48
q0 -31 22.5 -48.5t58.5 -17.5z" />
    <glyph glyph-name="guillemotleft" unicode="&#xab;" horiz-adv-x="492" 
d="M192 88l-145 203l145 203h60l-144 -203l144 -203h-60zM370 88l-144 203l144 203h61l-144 -203l144 -203h-61z" />
    <glyph glyph-name="logicalnot" unicode="&#xac;" horiz-adv-x="593" 
d="M79 303v56h439v-187h-54v131h-385z" />
    <glyph glyph-name="uni00AD" unicode="&#xad;" horiz-adv-x="520" 
d="M69 301v55h382v-55h-382z" />
    <glyph glyph-name="registered" unicode="&#xae;" horiz-adv-x="570" 
d="M117 691q70 70 168 70q97 0 168 -71q70 -70 70 -168t-70 -168q-71 -69 -168 -69q-98 0 -168 70t-70 169q0 98 70 167zM144 382q59 -59 141 -59t141 59t59 141t-59 141t-141 59t-141 -59t-59 -141t59 -141zM376 569q0 -55 -52 -71l55 -93h-41l-49 88h-48v-88h-35v241h91
q35 0 57 -21.5t22 -55.5zM241 616v-93h45q56 0 56 46q0 47 -53 47h-48z" />
    <glyph glyph-name="macron" unicode="&#xaf;" horiz-adv-x="474" 
d="M46 673v55h302v-54z" />
    <glyph glyph-name="degree" unicode="&#xb0;" horiz-adv-x="359" 
d="M275 585q-40 -38 -95 -38t-96 38q-40 39 -40 94t40 94q40 40 96 40t95 -40q40 -39 40 -94t-40 -94zM270 679q0 39 -26 65.5t-64 26.5q-19 0 -36 -7t-29.5 -19.5t-19.5 -29.5t-7 -36q0 -18 7 -34.5t19.5 -29t29.5 -19.5t36 -7q38 0 64 26t26 64z" />
    <glyph glyph-name="plusminus" unicode="&#xb1;" horiz-adv-x="588" 
d="M322 469h191v-57h-191v-190l-56 -1v191h-191v57h192v191h55v-191zM75 100v55h438v-55h-438z" />
    <glyph glyph-name="uni00B2" unicode="&#xb2;" horiz-adv-x="335" 
d="M114 553h176v-46h-245l-1 41l120 129q36 40 53.5 67t17.5 53q0 30 -21 49.5t-53 19.5q-49 0 -96 -46l-28 36q59 56 126 56q54 0 88 -32t34 -83q0 -54 -72 -135z" />
    <glyph glyph-name="uni00B3" unicode="&#xb3;" horiz-adv-x="313" 
d="M145 501q-64 0 -125 40l23 40q52 -34 101 -34q42 0 65 19.5t23 51.5t-22.5 51t-67.5 19h-47v45h43q40 0 63 19.5t23 48.5q0 30 -22 47.5t-56 17.5q-49 0 -92 -37l-25 35q48 48 121 48q55 0 90 -29.5t35 -74.5q0 -34 -19.5 -58.5t-51.5 -34.5v-2q37 -8 58 -34.5t21 -62.5
q0 -51 -38.5 -83t-99.5 -32z" />
    <glyph glyph-name="acute" unicode="&#xb4;" horiz-adv-x="455" 
d="M54 620l59 160h77l-85 -160h-51z" />
    <glyph glyph-name="paragraph" unicode="&#xb6;" horiz-adv-x="584" 
d="M535 734v-55h-76v-882h-57v882h-91v-882h-58v565h-27q-84 0 -140 53q-55 54 -55 135q0 79 55 131q56 53 139 53h310z" />
    <glyph glyph-name="periodcentered" unicode="&#xb7;" horiz-adv-x="237" 
d="M126 -16q-21 0 -35 14t-14 34t14 33.5t35 13.5q20 0 34 -13.5t14 -33.5q0 -21 -14 -34.5t-34 -13.5z" />
    <glyph glyph-name="cedilla" unicode="&#xb8;" horiz-adv-x="310" 
d="M184 -55q42 0 69.5 -22t27.5 -64q0 -45 -33.5 -76t-93.5 -31q-50 0 -102 24l17 42q43 -20 82 -20q36 0 57.5 18.5t21.5 42.5q0 20 -15 33.5t-46 13.5h-60l-8 17l37 97l50 -1l-31 -76q9 1 15.5 1.5t11.5 0.5z" />
    <glyph glyph-name="uni00B9" unicode="&#xb9;" horiz-adv-x="258" 
d="M154 901h38v-394h-51v324l-89 -72l-28 38z" />
    <glyph glyph-name="ordmasculine" unicode="&#xba;" horiz-adv-x="444" 
d="M47 557q0 75 50 127q51 52 125 52q75 0 124 -52q51 -51 51 -127q0 -75 -51 -126q-50 -50 -124 -50q-73 0 -125 50q-50 52 -50 126zM353 557q0 58 -38 98q-37 40 -93 40q-57 0 -94 -40q-37 -38 -37 -98q0 -59 37 -97q38 -38 94 -38q55 0 93 38q38 40 38 97z" />
    <glyph glyph-name="guillemotright" unicode="&#xbb;" horiz-adv-x="492" 
d="M122 88h-61l144 203l-144 203h61l144 -203zM300 88h-60l144 203l-144 203h60l145 -203z" />
    <glyph glyph-name="onequarter" unicode="&#xbc;" horiz-adv-x="840" 
d="M155 346v325l-89 -72l-28 38l130 104h38v-395h-51zM696 739h57l-577 -739h-58zM794 143v-42h-45v-101h-46v101h-188l-11 30l213 265h32v-253h45zM567 143h136v169z" />
    <glyph glyph-name="onehalf" unicode="&#xbd;" horiz-adv-x="818" 
d="M156 346v325l-89 -72l-28 38l130 104h38v-395h-51zM662 739h57l-576 -739h-59zM593 46h176v-46h-245l-1 41l120 129q36 40 53.5 67t17.5 53q0 30 -21 49.5t-53 19.5q-49 0 -96 -46l-28 36q59 56 126 56q54 0 88 -32t34 -83q0 -54 -72 -135z" />
    <glyph glyph-name="threequarters" unicode="&#xbe;" horiz-adv-x="812" 
d="M146 387q42 0 65 19.5t23 51.5t-22.5 51t-67.5 19h-47v45h43q40 0 63 19.5t23 48.5q0 30 -22 47.5t-56 17.5q-49 0 -92 -37l-25 35q48 48 121 48q55 0 90 -29.5t35 -74.5q0 -34 -19.5 -58.5t-51.5 -34.5v-2q37 -8 58 -34.5t21 -62.5q0 -51 -38.5 -83t-99.5 -32
q-64 0 -125 40l23 40q52 -34 101 -34zM709 739h57l-576 -739h-59zM707 396v-253h45v-42h-45v-101h-46v101h-188l-11 30l213 265h32zM525 143h136v169z" />
    <glyph glyph-name="questiondown" unicode="&#xbf;" horiz-adv-x="488" 
d="M272 527q21 0 35.5 -14t14.5 -34t-14.5 -33.5t-35.5 -13.5q-19 0 -33 13.5t-14 33.5q0 21 14 34.5t33 13.5zM301 354v-75q0 -40 -20.5 -75.5t-50.5 -62.5q-21 -20 -44 -40t-41.5 -42.5t-31 -48t-12.5 -55.5q0 -59 44 -98q43 -40 111 -40q94 0 166 84l39 -39
q-38 -48 -92.5 -74.5t-114.5 -26.5q-88 0 -151 54q-62 53 -62 140q0 45 21 84t51 67q22 20 45 40.5t42.5 41.5t32 43t12.5 46v77h56z" />
    <glyph glyph-name="Agrave" unicode="&#xc0;" horiz-adv-x="652" 
d="M351 795h-51l-85 160h77zM569 0l-88 224h-311l-88 -224h-67l295 739h33l293 -739h-67zM326 630l-136 -349h271z" />
    <glyph glyph-name="Aacute" unicode="&#xc1;" horiz-adv-x="652" 
d="M441 956l-85 -160h-51l59 160h77zM569 0l-88 224h-311l-88 -224h-67l295 739h33l293 -739h-67zM326 630l-136 -349h271z" />
    <glyph glyph-name="Acircumflex" unicode="&#xc2;" horiz-adv-x="652" 
d="M326 899l-92 -104h-64l138 155h37l138 -155h-65zM569 0l-88 224h-311l-88 -224h-67l295 739h33l293 -739h-67zM326 630l-136 -349h271z" />
    <glyph glyph-name="Atilde" unicode="&#xc3;" horiz-adv-x="652" 
d="M255 867q-44 0 -67 -53l-39 18q11 39 40.5 63.5t67.5 24.5q34 0 74 -28t62 -28t39 16t25 37l39 -17q-11 -39 -39 -63.5t-66 -24.5q-35 0 -75 27q-40 28 -61 28zM569 0l-88 224h-311l-88 -224h-67l295 739h33l293 -739h-67zM326 630l-136 -349h271z" />
    <glyph glyph-name="Adieresis" unicode="&#xc4;" horiz-adv-x="652" 
d="M186 862q0 20 15 35.5t37 15.5t37 -15t15 -36q0 -23 -15 -38t-37 -15t-37 15.5t-15 37.5zM362 862q0 21 15 36t37 15t37.5 -15t15.5 -36q0 -22 -15.5 -37.5t-37.5 -15.5t-37 15t-15 38zM569 0l-88 224h-311l-88 -224h-67l295 739h33l293 -739h-67zM326 630l-136 -349h271
z" />
    <glyph glyph-name="Aring" unicode="&#xc5;" horiz-adv-x="652" 
d="M328 786q-23 0 -43 8.5t-35 23t-24 34t-9 42.5t9 43t24 35t35 23.5t43 8.5q47 0 79 -32q33 -32 33 -78q0 -23 -8.5 -42.5t-23.5 -34t-35.5 -23t-44.5 -8.5zM377 944q-20 20 -49 20t-49 -20t-20 -49t20 -49t49 -20t49 20q21 20 21 49t-21 49zM569 0l-88 224h-311l-88 -224
h-67l295 739h33l293 -739h-67zM326 630l-136 -349h271z" />
    <glyph glyph-name="AE" unicode="&#xc6;" horiz-adv-x="990" 
d="M552 58h385v-58h-446v243h-278l-155 -243h-71l479 739h470v-58h-384v-280h354v-58h-354v-285zM250 301h241v378z" />
    <glyph glyph-name="Ccedilla" unicode="&#xc7;" horiz-adv-x="785" 
d="M431 47q85 0 157.5 36.5t120.5 100.5l44 -36q-52 -72 -134.5 -115t-182.5 -44l-19 -47q9 1 15.5 1.5t11.5 0.5q42 0 69.5 -22t27.5 -64q0 -45 -33.5 -76t-93.5 -31q-50 0 -102 24l17 42q43 -20 82 -20q36 0 57.5 18.5t21.5 42.5q0 20 -15 33.5t-46 13.5h-60l-8 17l26 69
q-145 15 -240 118q-96 103 -96 258q0 168 111 276q112 109 270 109q102 0 188 -46q87 -45 133 -118l-47 -35q-42 63 -114.5 101.5t-159.5 38.5q-136 0 -228 -92q-91 -91 -91 -233q0 -140 90 -231q91 -90 228 -90z" />
    <glyph glyph-name="Egrave" unicode="&#xc8;" horiz-adv-x="601" 
d="M350 795h-51l-85 160h77zM101 0v739h445v-58h-384v-278h358v-57h-358v-288h386v-58h-447z" />
    <glyph glyph-name="Eacute" unicode="&#xc9;" horiz-adv-x="601" 
d="M291 796l59 160h77l-85 -160h-51zM101 0v739h445v-58h-384v-278h358v-57h-358v-288h386v-58h-447z" />
    <glyph glyph-name="Ecircumflex" unicode="&#xca;" horiz-adv-x="601" 
d="M161 795l138 155h37l138 -155h-65l-92 104l-92 -104h-64zM101 0v739h445v-58h-384v-278h358v-57h-358v-288h386v-58h-447z" />
    <glyph glyph-name="Edieresis" unicode="&#xcb;" horiz-adv-x="601" 
d="M188 862q0 20 15 35.5t37 15.5t37 -15t15 -36q0 -23 -15 -38t-37 -15t-37 15.5t-15 37.5zM364 862q0 21 15 36t37 15t37.5 -15t15.5 -36q0 -22 -15.5 -37.5t-37.5 -15.5t-37 15t-15 38zM101 0v739h445v-58h-384v-278h358v-57h-358v-288h386v-58h-447z" />
    <glyph glyph-name="Igrave" unicode="&#xcc;" horiz-adv-x="270" 
d="M164 796h-51l-85 160h77zM109 739h61v-739h-61v739z" />
    <glyph glyph-name="Iacute" unicode="&#xcd;" horiz-adv-x="258" 
d="M107 796l59 160h77l-85 -160h-51zM104 739h61v-739h-61v739z" />
    <glyph glyph-name="Icircumflex" unicode="&#xce;" horiz-adv-x="263" 
d="M-17 796l138 155h37l138 -155h-65l-92 104l-92 -104h-64zM109 739h61v-739h-61v739z" />
    <glyph glyph-name="Idieresis" unicode="&#xcf;" horiz-adv-x="263" 
d="M50 808q-22 0 -37.5 15t-15.5 38q0 21 15.5 36.5t37.5 15.5q23 0 38 -15.5t15 -36.5q0 -23 -15 -38t-38 -15zM176 861q0 21 16 36.5t38 15.5t38 -15.5t16 -36.5q0 -22 -15.5 -37.5t-38.5 -15.5t-38.5 15.5t-15.5 37.5zM109 739h61v-739h-61v739z" />
    <glyph glyph-name="Eth" unicode="&#xd0;" horiz-adv-x="774" 
d="M380 739q157 0 248 -100q92 -101 92 -271t-93 -269t-255 -99h-246v343h-121v55h121v341h254zM372 58q134 0 209 84q76 85 76 227q0 141 -75 227q-73 85 -204 85h-191v-283h222v-55h-222v-285h185z" />
    <glyph glyph-name="Ntilde" unicode="&#xd1;" horiz-adv-x="770" 
d="M216 826q11 39 40.5 63.5t67.5 24.5q33 0 73 -28t63 -28q22 0 39 16t25 37l39 -17q-11 -39 -39 -63.5t-66 -24.5q-35 0 -75 27q-40 28 -61 28q-44 0 -67 -53zM608 739h61v-739h-32l-475 601v-601h-61v739h27l480 -607v607z" />
    <glyph glyph-name="Ograve" unicode="&#xd2;" 
d="M469 795h-51l-85 160h77zM428 -12q-159 0 -268 111q-110 112 -110 269q0 158 111 271t269 113q157 0 268 -112q112 -112 112 -270t-112 -270q-111 -112 -270 -112zM430 47q133 0 225 93q92 95 92 229q0 135 -92 230q-91 94 -225 94q-133 0 -226 -95q-92 -95 -92 -229
t92 -229q91 -93 226 -93z" />
    <glyph glyph-name="Oacute" unicode="&#xd3;" 
d="M404 796l59 160h77l-85 -160h-51zM428 -12q-159 0 -268 111q-110 112 -110 269q0 158 111 271t269 113q157 0 268 -112q112 -112 112 -270t-112 -270q-111 -112 -270 -112zM430 47q133 0 225 93q92 95 92 229q0 135 -92 230q-91 94 -225 94q-133 0 -226 -95
q-92 -95 -92 -229t92 -229q91 -93 226 -93z" />
    <glyph glyph-name="Ocircumflex" unicode="&#xd4;" 
d="M273 795l138 155h37l138 -155h-65l-92 104l-92 -104h-64zM428 -12q-159 0 -268 111q-110 112 -110 269q0 158 111 271t269 113q157 0 268 -112q112 -112 112 -270t-112 -270q-111 -112 -270 -112zM430 47q133 0 225 93q92 95 92 229q0 135 -92 230q-91 94 -225 94
q-133 0 -226 -95q-92 -95 -92 -229t92 -229q91 -93 226 -93z" />
    <glyph glyph-name="Otilde" unicode="&#xd5;" 
d="M261 832q11 39 40.5 63.5t67.5 24.5q34 0 74 -28t62 -28t39 16t25 37l39 -17q-11 -39 -39 -63.5t-66 -24.5q-35 0 -75 27q-40 28 -61 28q-44 0 -67 -53zM428 -12q-159 0 -268 111q-110 112 -110 269q0 158 111 271t269 113q157 0 268 -112q112 -112 112 -270t-112 -270
q-111 -112 -270 -112zM430 47q133 0 225 93q92 95 92 229q0 135 -92 230q-91 94 -225 94q-133 0 -226 -95q-92 -95 -92 -229t92 -229q91 -93 226 -93z" />
    <glyph glyph-name="Odieresis" unicode="&#xd6;" 
d="M293 862q0 20 15.5 35.5t36.5 15.5q22 0 37 -15t15 -36q0 -23 -15 -38t-37 -15t-37 15.5t-15 37.5zM521 809q-22 0 -37 15t-15 38q0 21 15 36t37 15t37.5 -15t15.5 -36q0 -22 -15 -37.5t-38 -15.5zM428 -12q-159 0 -268 111q-110 112 -110 269q0 158 111 271t269 113
q157 0 268 -112q112 -112 112 -270t-112 -270q-111 -112 -270 -112zM430 47q133 0 225 93q92 95 92 229q0 135 -92 230q-91 94 -225 94q-133 0 -226 -95q-92 -95 -92 -229t92 -229q91 -93 226 -93z" />
    <glyph glyph-name="multiply" unicode="&#xd7;" horiz-adv-x="495" 
d="M433 191l-36 -38l-149 149l-149 -149l-36 38l148 148l-147 147l35 37l148 -147l148 148l37 -36l-148 -149z" />
    <glyph glyph-name="Oslash" unicode="&#xd8;" 
d="M671 665q66 -54 102.5 -130.5t36.5 -164.5q0 -158 -112 -270q-111 -112 -270 -112q-105 0 -196 54l-54 -76l-44 29l55 78q-66 54 -102.5 130.5t-36.5 164.5q0 158 111 271t269 113q105 0 199 -56l55 78l43 -29zM112 369q0 -73 29 -137.5t83 -109.5l370 525
q-74 46 -164 46q-133 0 -226 -95q-92 -95 -92 -229zM430 47q133 0 225 93q92 95 92 229q0 75 -29.5 138.5t-81.5 108.5l-369 -524q73 -45 163 -45z" />
    <glyph glyph-name="Ugrave" unicode="&#xd9;" horiz-adv-x="685" 
d="M376 795h-51l-85 160h77zM93 739h61v-489q0 -97 49 -149.5t140 -52.5q90 0 139 53t49 149v489h61v-499q0 -118 -68 -186q-67 -67 -181 -67t-182 67q-68 68 -68 186v499z" />
    <glyph glyph-name="Uacute" unicode="&#xda;" horiz-adv-x="685" 
d="M311 796l59 160h77l-85 -160h-51zM93 739h61v-489q0 -97 49 -149.5t140 -52.5q90 0 139 53t49 149v489h61v-499q0 -118 -68 -186q-67 -67 -181 -67t-182 67q-68 68 -68 186v499z" />
    <glyph glyph-name="Ucircumflex" unicode="&#xdb;" horiz-adv-x="685" 
d="M185 795l138 155h37l138 -155h-65l-92 104l-92 -104h-64zM93 739h61v-489q0 -97 49 -149.5t140 -52.5q90 0 139 53t49 149v489h61v-499q0 -118 -68 -186q-67 -67 -181 -67t-182 67q-68 68 -68 186v499z" />
    <glyph glyph-name="Udieresis" unicode="&#xdc;" horiz-adv-x="685" 
d="M202 862q0 20 15 35.5t37 15.5t37 -15t15 -36q0 -23 -15 -38t-37 -15t-37 15.5t-15 37.5zM378 862q0 21 15 36t37 15t37.5 -15t15.5 -36q0 -22 -15.5 -37.5t-37.5 -15.5t-37 15t-15 38zM93 739h61v-489q0 -97 49 -149.5t140 -52.5q90 0 139 53t49 149v489h61v-499
q0 -118 -68 -186q-67 -67 -181 -67t-182 67q-68 68 -68 186v499z" />
    <glyph glyph-name="Yacute" unicode="&#xdd;" horiz-adv-x="602" 
d="M272 796l59 160h77l-85 -160h-51zM581 739l-250 -446v-293h-61v293l-248 446h67l212 -389l213 389h67z" />
    <glyph glyph-name="Thorn" unicode="&#xde;" horiz-adv-x="610" 
d="M330 609q115 0 175 -67q61 -67 61 -159q0 -93 -64 -160q-63 -66 -181 -66h-159v-157h-61v739h61v-130h168zM321 214q86 0 134 48q49 49 49 122q0 72 -47 119q-47 48 -125 48h-170v-337h159z" />
    <glyph glyph-name="germandbls" unicode="&#xdf;" horiz-adv-x="619" 
d="M427 393q67 -21 107.5 -72.5t40.5 -123.5q0 -94 -69 -155q-67 -61 -171 -61q-81 0 -134 28l19 54q44 -25 114 -25q80 0 129 46q51 46 51 117q0 73 -57 117q-57 45 -148 46v49q64 0 119 44q54 43 54 111q0 33 -12 60.5t-33 47.5t-50 31t-64 11q-41 0 -74.5 -16t-57 -45.5
t-36.5 -72t-13 -96.5v-665h-61v677q0 131 69 202q71 71 176 71q96 0 157 -59q60 -59 60 -143q0 -58 -31 -105.5t-85 -72.5z" />
    <glyph glyph-name="agrave" unicode="&#xe0;" horiz-adv-x="662" 
d="M356 621h-51l-85 160h77zM522 535h58v-535h-58v104q-34 -55 -89 -86t-122 -31q-114 0 -190 81q-76 82 -76 202q0 118 75 198q77 80 191 80q67 0 122 -30.5t89 -85.5v103zM314 42q93 0 153 66t60 162q0 93 -60 158t-153 65q-92 0 -151 -65q-58 -64 -58 -160q0 -97 58 -161
q59 -65 151 -65z" />
    <glyph glyph-name="aacute" unicode="&#xe1;" horiz-adv-x="662" 
d="M433 781l-85 -160h-51l59 160h77zM522 535h58v-535h-58v104q-34 -55 -89 -86t-122 -31q-114 0 -190 81q-76 82 -76 202q0 118 75 198q77 80 191 80q67 0 122 -30.5t89 -85.5v103zM314 42q93 0 153 66t60 162q0 93 -60 158t-153 65q-92 0 -151 -65q-58 -64 -58 -160
q0 -97 58 -161q59 -65 151 -65z" />
    <glyph glyph-name="acircumflex" unicode="&#xe2;" horiz-adv-x="662" 
d="M324 724l-92 -104h-64l138 155h37l138 -155h-65zM522 535h58v-535h-58v104q-34 -55 -89 -86t-122 -31q-114 0 -190 81q-76 82 -76 202q0 118 75 198q77 80 191 80q67 0 122 -30.5t89 -85.5v103zM314 42q93 0 153 66t60 162q0 93 -60 158t-153 65q-92 0 -151 -65
q-58 -64 -58 -160q0 -97 58 -161q59 -65 151 -65z" />
    <glyph glyph-name="atilde" unicode="&#xe3;" horiz-adv-x="662" 
d="M259 683q-40 0 -63 -50l-37 17q11 37 38.5 60t63.5 23q31 0 69 -27q40 -26 59 -26q20 0 37 15t24 35l36 -16q-10 -37 -37 -60t-62 -23q-32 0 -70 26t-58 26zM522 535h58v-535h-58v104q-34 -55 -89 -86t-122 -31q-114 0 -190 81q-76 82 -76 202q0 118 75 198q77 80 191 80
q67 0 122 -30.5t89 -85.5v103zM314 42q93 0 153 66t60 162q0 93 -60 158t-153 65q-92 0 -151 -65q-58 -64 -58 -160q0 -97 58 -161q59 -65 151 -65z" />
    <glyph glyph-name="adieresis" unicode="&#xe4;" horiz-adv-x="662" 
d="M178 680q0 21 16 37t39 16t38.5 -16t15.5 -37q0 -23 -15.5 -39t-38.5 -16t-39 16t-16 39zM362 680q0 21 16 37t39 16t39 -16t16 -37q0 -23 -16 -39t-39 -16t-39 16t-16 39zM522 535h58v-535h-58v104q-34 -55 -89 -86t-122 -31q-114 0 -190 81q-76 82 -76 202
q0 118 75 198q77 80 191 80q67 0 122 -30.5t89 -85.5v103zM314 42q93 0 153 66t60 162q0 93 -60 158t-153 65q-92 0 -151 -65q-58 -64 -58 -160q0 -97 58 -161q59 -65 151 -65z" />
    <glyph glyph-name="aring" unicode="&#xe5;" horiz-adv-x="662" 
d="M323 604q-23 0 -43 8.5t-35 23t-24 34t-9 42.5t9 43t24 35t35 23.5t43 8.5q47 0 79 -32q33 -32 33 -78q0 -23 -8.5 -42.5t-23.5 -34t-35.5 -23t-44.5 -8.5zM372 762q-20 20 -49 20t-49 -20t-20 -49t20 -49t49 -20t49 20q21 20 21 49t-21 49zM522 535h58v-535h-58v104
q-34 -55 -89 -86t-122 -31q-114 0 -190 81q-76 82 -76 202q0 118 75 198q77 80 191 80q67 0 122 -30.5t89 -85.5v103zM314 42q93 0 153 66t60 162q0 93 -60 158t-153 65q-92 0 -151 -65q-58 -64 -58 -160q0 -97 58 -161q59 -65 151 -65z" />
    <glyph glyph-name="ae" unicode="&#xe6;" horiz-adv-x="988" 
d="M945 295q0 -11 -3 -47h-435q3 -45 18 -82.5t41.5 -64.5t63.5 -42t83 -15q50 0 101.5 17.5t86.5 46.5l28 -47q-37 -31 -95.5 -52t-122.5 -21q-91 0 -150.5 41t-89.5 110q-16 -37 -41 -65.5t-56.5 -47.5t-68.5 -29t-76 -10q-44 0 -79.5 11.5t-61.5 32.5t-40 51t-14 67
q0 45 21 76t57 47t73.5 22.5t82.5 6.5h174q-8 100 -53 145.5t-130 45.5q-106 0 -173 -54l-29 45q18 15 42 27t50.5 20.5t54.5 13t55 4.5q73 0 132 -33t86 -102q32 63 91 99t137 36q104 0 172 -68t68 -185zM704 493q-41 0 -75 -13.5t-59.5 -39t-41.5 -61t-20 -78.5h376
q0 45 -13.5 80.5t-37.5 60t-57 38t-72 13.5zM231 43q87 0 145 55q59 55 67 150h-175q-174 0 -174 -100q0 -48 38 -76.5t99 -28.5z" />
    <glyph glyph-name="ccedilla" unicode="&#xe7;" horiz-adv-x="595" 
d="M319 43q30 0 59 8t54.5 23t46 35.5t33.5 44.5l49 -30q-15 -30 -39.5 -54.5t-55 -42.5t-66 -28t-72.5 -11l-19 -45q9 1 15.5 1.5t11.5 0.5q42 0 69.5 -22t27.5 -64q0 -45 -33.5 -76t-93.5 -31q-50 0 -102 24l17 42q43 -20 82 -20q36 0 57.5 18.5t21.5 42.5q0 20 -15 33.5
t-46 13.5h-60l-8 17l26 68q-106 14 -169 89q-64 76 -64 187q0 122 78 202q79 79 201 79q79 0 143.5 -37t95.5 -101l-49 -28q-27 51 -78 81t-112 30q-96 0 -157 -64q-62 -64 -62 -162t60 -161t153 -63z" />
    <glyph glyph-name="egrave" unicode="&#xe8;" horiz-adv-x="604" 
d="M340 620h-51l-85 160h77zM561 291q0 -11 -3 -47h-450q3 -45 19 -81.5t43.5 -63t66.5 -41t88 -14.5q26 0 53 4.5t53 13t49 20t41 26.5l28 -46q-39 -31 -99 -52.5t-126 -21.5q-74 0 -126.5 24t-86.5 64t-49.5 90t-15.5 103q0 121 73 200t193 79q108 0 178 -70
q71 -69 71 -187zM312 493q-42 0 -77.5 -14t-62 -39.5t-43.5 -61t-21 -79.5h391q0 45 -14 80.5t-39 61t-59 39t-75 13.5z" />
    <glyph glyph-name="eacute" unicode="&#xe9;" horiz-adv-x="604" 
d="M417 781l-85 -160h-51l59 160h77zM561 291q0 -11 -3 -47h-450q3 -45 19 -81.5t43.5 -63t66.5 -41t88 -14.5q26 0 53 4.5t53 13t49 20t41 26.5l28 -46q-39 -31 -99 -52.5t-126 -21.5q-74 0 -126.5 24t-86.5 64t-49.5 90t-15.5 103q0 121 73 200t193 79q108 0 178 -70
q71 -69 71 -187zM312 493q-42 0 -77.5 -14t-62 -39.5t-43.5 -61t-21 -79.5h391q0 45 -14 80.5t-39 61t-59 39t-75 13.5z" />
    <glyph glyph-name="ecircumflex" unicode="&#xea;" horiz-adv-x="604" 
d="M309 725l-92 -104h-64l138 155h37l138 -155h-65zM561 291q0 -11 -3 -47h-450q3 -45 19 -81.5t43.5 -63t66.5 -41t88 -14.5q26 0 53 4.5t53 13t49 20t41 26.5l28 -46q-39 -31 -99 -52.5t-126 -21.5q-74 0 -126.5 24t-86.5 64t-49.5 90t-15.5 103q0 121 73 200t193 79
q108 0 178 -70q71 -69 71 -187zM312 493q-42 0 -77.5 -14t-62 -39.5t-43.5 -61t-21 -79.5h391q0 45 -14 80.5t-39 61t-59 39t-75 13.5z" />
    <glyph glyph-name="edieresis" unicode="&#xeb;" horiz-adv-x="604" 
d="M173 678q0 21 16 37t39 16t38.5 -16t15.5 -37q0 -23 -15.5 -39t-38.5 -16t-39 16t-16 39zM357 678q0 21 16 37t39 16t39 -16t16 -37q0 -23 -16 -39t-39 -16t-39 16t-16 39zM561 291q0 -11 -3 -47h-450q3 -45 19 -81.5t43.5 -63t66.5 -41t88 -14.5q26 0 53 4.5t53 13
t49 20t41 26.5l28 -46q-39 -31 -99 -52.5t-126 -21.5q-74 0 -126.5 24t-86.5 64t-49.5 90t-15.5 103q0 121 73 200t193 79q108 0 178 -70q71 -69 71 -187zM312 493q-42 0 -77.5 -14t-62 -39.5t-43.5 -61t-21 -79.5h391q0 45 -14 80.5t-39 61t-59 39t-75 13.5z" />
    <glyph glyph-name="igrave" unicode="&#xec;" horiz-adv-x="223" 
d="M136 620h-51l-85 160h77zM137 0h-60v535h60v-535z" />
    <glyph glyph-name="iacute" unicode="&#xed;" horiz-adv-x="226" 
d="M88 621l59 160h77l-85 -160h-51zM141 0h-60v535h60v-535z" />
    <glyph glyph-name="icircumflex" unicode="&#xee;" horiz-adv-x="223" 
d="M-49 619l138 155h37l138 -155h-65l-92 104l-92 -104h-64zM137 0h-60v535h60v-535z" />
    <glyph glyph-name="idieresis" unicode="&#xef;" horiz-adv-x="223" 
d="M-39 680q0 21 16 37t39 16t38.5 -16t15.5 -37q0 -23 -15.5 -39t-38.5 -16t-39 16t-16 39zM145 680q0 21 16 37t39 16t39 -16t16 -37q0 -23 -16 -39t-39 -16t-39 16t-16 39zM137 0h-60v535h60v-535z" />
    <glyph glyph-name="eth" unicode="&#xf0;" horiz-adv-x="657" 
d="M469 698q134 -167 134 -351q0 -159 -80 -260q-79 -100 -212 -100q-114 0 -190 76q-75 76 -75 189q0 112 75 189q75 76 188 76q40 0 76.5 -11t66.5 -30.5t53.5 -47t38.5 -60.5q-5 130 -83 244q-8 11 -17.5 24.5t-22.5 29.5l-114 -77l-30 41l110 74q-45 47 -112 99l40 42
q73 -58 121 -109l111 74l28 -41zM521 254q0 89 -60 149t-149 60q-91 0 -149 -61q-58 -59 -58 -150q0 -89 58 -150q58 -60 148 -60t150 61t60 151z" />
    <glyph glyph-name="ntilde" unicode="&#xf1;" horiz-adv-x="612" 
d="M144 648q11 37 38.5 60t63.5 23q31 0 69 -27q40 -26 59 -26q20 0 37 15t24 35l36 -16q-10 -37 -37 -60t-62 -23q-32 0 -70 26t-58 26q-40 0 -63 -50zM81 0v535h58v-94q24 54 72 81t114 27q89 0 151 -59q61 -58 61 -167v-323h-60v312q0 85 -42 133t-117 48q-71 0 -124 -49
q-53 -48 -53 -144v-300h-60z" />
    <glyph glyph-name="ograve" unicode="&#xf2;" horiz-adv-x="646" 
d="M355 620h-51l-85 160h77zM45 268q0 119 79 199q79 81 199 81q119 0 199 -81q79 -80 79 -199q0 -120 -79 -200q-80 -81 -199 -81q-120 0 -199 81q-79 80 -79 200zM323 42q94 0 156 65q62 67 62 161q0 95 -62 160t-156 65q-93 0 -156 -66q-62 -65 -62 -159t62 -161
q63 -65 156 -65z" />
    <glyph glyph-name="oacute" unicode="&#xf3;" horiz-adv-x="646" 
d="M291 621l59 160h77l-85 -160h-51zM45 268q0 119 79 199q79 81 199 81q119 0 199 -81q79 -80 79 -199q0 -120 -79 -200q-80 -81 -199 -81q-120 0 -199 81q-79 80 -79 200zM323 42q94 0 156 65q62 67 62 161q0 95 -62 160t-156 65q-93 0 -156 -66q-62 -65 -62 -159t62 -161
q63 -65 156 -65z" />
    <glyph glyph-name="ocircumflex" unicode="&#xf4;" horiz-adv-x="646" 
d="M167 622l138 155h37l138 -155h-65l-92 104l-92 -104h-64zM45 268q0 119 79 199q79 81 199 81q119 0 199 -81q79 -80 79 -199q0 -120 -79 -200q-80 -81 -199 -81q-120 0 -199 81q-79 80 -79 200zM323 42q94 0 156 65q62 67 62 161q0 95 -62 160t-156 65q-93 0 -156 -66
q-62 -65 -62 -159t62 -161q63 -65 156 -65z" />
    <glyph glyph-name="otilde" unicode="&#xf5;" horiz-adv-x="646" 
d="M158 647q11 37 38.5 60t63.5 23q31 0 69 -27q40 -26 59 -26q20 0 37 15t24 35l36 -16q-10 -37 -37 -60t-62 -23q-32 0 -70 26t-58 26q-40 0 -63 -50zM45 268q0 119 79 199q79 81 199 81q119 0 199 -81q79 -80 79 -199q0 -120 -79 -200q-80 -81 -199 -81q-120 0 -199 81
q-79 80 -79 200zM323 42q94 0 156 65q62 67 62 161q0 95 -62 160t-156 65q-93 0 -156 -66q-62 -65 -62 -159t62 -161q63 -65 156 -65z" />
    <glyph glyph-name="odieresis" unicode="&#xf6;" horiz-adv-x="646" 
d="M177 680q0 21 16 37t39 16t38.5 -16t15.5 -37q0 -23 -15.5 -39t-38.5 -16t-39 16t-16 39zM361 680q0 21 16 37t39 16t39 -16t16 -37q0 -23 -16 -39t-39 -16t-39 16t-16 39zM45 268q0 119 79 199q79 81 199 81q119 0 199 -81q79 -80 79 -199q0 -120 -79 -200
q-80 -81 -199 -81q-120 0 -199 81q-79 80 -79 200zM323 42q94 0 156 65q62 67 62 161q0 95 -62 160t-156 65q-93 0 -156 -66q-62 -65 -62 -159t62 -161q63 -65 156 -65z" />
    <glyph glyph-name="divide" unicode="&#xf7;" horiz-adv-x="521" 
d="M270 425q-23 0 -39 15.5t-16 38.5q0 22 16 37t39 15q22 0 38 -15t16 -37q0 -23 -16 -38.5t-38 -15.5zM65 299v55h391v-55h-391zM270 123q-23 0 -39 15.5t-16 38.5q0 22 16 37t39 15q22 0 38 -15t16 -37q0 -23 -16 -38.5t-38 -15.5z" />
    <glyph glyph-name="oslash" unicode="&#xf8;" horiz-adv-x="646" 
d="M503 485q98 -83 98 -217q0 -120 -79 -200q-80 -81 -199 -81q-76 0 -140 36l-54 -79l-38 27l54 78q-48 39 -74 96t-26 123q0 119 79 199q79 81 199 81q77 0 140 -36l50 73l41 -26zM105 268q0 -104 73 -171l253 368q-49 28 -108 28q-93 0 -156 -66q-62 -65 -62 -159z
M323 42q94 0 156 65q62 67 62 161q0 103 -71 169l-254 -367q47 -28 107 -28z" />
    <glyph glyph-name="ugrave" unicode="&#xf9;" horiz-adv-x="585" 
d="M329 621h-51l-85 160h77zM292 -13q-99 0 -159 60q-59 62 -59 162v326h60v-325q0 -78 42.5 -122.5t115.5 -44.5q75 0 117 45t42 123v324h60v-326q0 -103 -58 -162.5t-161 -59.5z" />
    <glyph glyph-name="uacute" unicode="&#xfa;" horiz-adv-x="585" 
d="M263 621l59 160h77l-85 -160h-51zM292 -13q-99 0 -159 60q-59 62 -59 162v326h60v-325q0 -78 42.5 -122.5t115.5 -44.5q75 0 117 45t42 123v324h60v-326q0 -103 -58 -162.5t-161 -59.5z" />
    <glyph glyph-name="ucircumflex" unicode="&#xfb;" horiz-adv-x="585" 
d="M137 619l138 155h37l138 -155h-65l-92 104l-92 -104h-64zM292 -13q-99 0 -159 60q-59 62 -59 162v326h60v-325q0 -78 42.5 -122.5t115.5 -44.5q75 0 117 45t42 123v324h60v-326q0 -103 -58 -162.5t-161 -59.5z" />
    <glyph glyph-name="udieresis" unicode="&#xfc;" horiz-adv-x="585" 
d="M146 680q0 21 16 37t39 16t38.5 -16t15.5 -37q0 -23 -15.5 -39t-38.5 -16t-39 16t-16 39zM330 680q0 21 16 37t39 16t39 -16t16 -37q0 -23 -16 -39t-39 -16t-39 16t-16 39zM292 -13q-99 0 -159 60q-59 62 -59 162v326h60v-325q0 -78 42.5 -122.5t115.5 -44.5q75 0 117 45
t42 123v324h60v-326q0 -103 -58 -162.5t-161 -59.5z" />
    <glyph glyph-name="yacute" unicode="&#xfd;" horiz-adv-x="531" 
d="M371 780l-85 -160h-51l59 160h77zM449 535h66l-226 -575q-20 -51 -39.5 -86.5t-41.5 -58t-47 -32.5t-55 -10q-43 0 -77 19l9 53q35 -16 66 -16q42 0 72 34t56 103l13 34l-228 535h66l191 -457z" />
    <glyph glyph-name="thorn" unicode="&#xfe;" horiz-adv-x="665" 
d="M353 549q115 0 191 -82q76 -80 76 -199t-76 -199q-77 -81 -191 -81q-67 0 -122.5 30.5t-89.5 85.5v-324h-60v975h60v-327q35 57 90 89t122 32zM351 43q91 0 150 65t59 160t-59 160t-150 65q-93 0 -153 -66t-60 -161q0 -94 60 -158q60 -65 153 -65z" />
    <glyph glyph-name="ydieresis" unicode="&#xff;" horiz-adv-x="531" 
d="M123 679q0 21 16 37t39 16t38.5 -16t15.5 -37q0 -23 -15.5 -39t-38.5 -16t-39 16t-16 39zM307 679q0 21 16 37t39 16t39 -16t16 -37q0 -23 -16 -39t-39 -16t-39 16t-16 39zM449 535h66l-226 -575q-20 -51 -39.5 -86.5t-41.5 -58t-47 -32.5t-55 -10q-43 0 -77 19l9 53
q35 -16 66 -16q42 0 72 34t56 103l13 34l-228 535h66l191 -457z" />
    <glyph glyph-name="Amacron" unicode="&#x100;" horiz-adv-x="652" 
d="M492 875v-54l-332 -1v55h332zM569 0l-88 224h-311l-88 -224h-67l295 739h33l293 -739h-67zM326 630l-136 -349h271z" />
    <glyph glyph-name="amacron" unicode="&#x101;" horiz-adv-x="662" 
d="M475 712v-54l-302 -1v55h302zM522 535h58v-535h-58v104q-34 -55 -89 -86t-122 -31q-114 0 -190 81q-76 82 -76 202q0 118 75 198q77 80 191 80q67 0 122 -30.5t89 -85.5v103zM314 42q93 0 153 66t60 162q0 93 -60 158t-153 65q-92 0 -151 -65q-58 -64 -58 -160
q0 -97 58 -161q59 -65 151 -65z" />
    <glyph glyph-name="Abreve" unicode="&#x102;" horiz-adv-x="652" 
d="M232 935q1 -51 26.5 -74.5t68.5 -23.5q45 0 70 23.5t25 74.5h49q-1 -64 -39.5 -102t-104.5 -38t-103.5 38t-38.5 102h47zM569 0l-88 224h-311l-88 -224h-67l295 739h33l293 -739h-67zM326 630l-136 -349h271z" />
    <glyph glyph-name="abreve" unicode="&#x103;" horiz-adv-x="662" 
d="M522 535h58v-535h-58v104q-34 -55 -89 -86t-122 -31q-114 0 -190 81q-76 82 -76 202q0 118 75 198q77 80 191 80q67 0 122 -30.5t89 -85.5v103zM314 42q93 0 153 66t60 162q0 93 -60 158t-153 65q-92 0 -151 -65q-58 -64 -58 -160q0 -97 58 -161q59 -65 151 -65zM224 756
q1 -51 26.5 -74.5t68.5 -23.5q45 0 70 23.5t25 74.5h49q-1 -64 -39.5 -102t-104.5 -38t-103.5 38t-38.5 102h47z" />
    <glyph glyph-name="Aogonek" unicode="&#x104;" horiz-adv-x="648" 
d="M650 -229q-42 -30 -89 -30q-48 0 -78 29t-30 77q0 88 116 153l-88 224h-311l-88 -224h-67l295 739h33l293 -739q-61 -27 -95.5 -66.5t-34.5 -77.5q0 -27 18 -45.5t44 -18.5q29 0 58 20zM326 630l-136 -349h271z" />
    <glyph glyph-name="aogonek" unicode="&#x105;" horiz-adv-x="656" 
d="M595 -229q-42 -30 -89 -30q-48 0 -78 29t-30 77q0 93 124 157v100q-34 -55 -89 -86t-122 -31q-114 0 -190 81q-76 82 -76 202q0 118 75 198q77 80 191 80q67 0 122 -30.5t89 -85.5v103h58v-535h1q-61 -27 -95.5 -66.5t-34.5 -77.5q0 -27 18 -45.5t44 -18.5q29 0 58 20z
M314 42q93 0 153 66t60 162q0 93 -60 158t-153 65q-92 0 -151 -65q-58 -64 -58 -160q0 -97 58 -161q59 -65 151 -65z" />
    <glyph glyph-name="Cacute" unicode="&#x106;" horiz-adv-x="785" 
d="M411 796l59 160h77l-85 -160h-51zM430 -11q-160 0 -269 106q-110 107 -110 272q0 168 111 276q112 109 270 109q102 0 188 -46q87 -45 133 -118l-47 -35q-42 63 -114.5 101.5t-159.5 38.5q-136 0 -228 -92q-91 -91 -91 -233q0 -140 90 -231q91 -90 228 -90
q85 0 157.5 36.5t120.5 100.5l44 -36q-54 -72 -137.5 -115.5t-185.5 -43.5z" />
    <glyph glyph-name="cacute" unicode="&#x107;" horiz-adv-x="595" 
d="M293 621l59 160h77l-85 -160h-51zM319 -12q-120 0 -196 78q-77 80 -77 201q0 122 78 202q79 79 201 79q79 0 143.5 -37t95.5 -101l-49 -28q-27 51 -78 81t-112 30q-96 0 -157 -64q-62 -64 -62 -162t60 -161t153 -63q30 0 59 8t54.5 23t46 35.5t33.5 44.5l49 -30
q-31 -61 -98 -99q-65 -37 -144 -37z" />
    <glyph glyph-name="Ccircumflex" unicode="&#x108;" horiz-adv-x="785" 
d="M273 795l138 155h37l138 -155h-65l-92 104l-92 -104h-64zM430 -11q-160 0 -269 106q-110 107 -110 272q0 168 111 276q112 109 270 109q102 0 188 -46q87 -45 133 -118l-47 -35q-42 63 -114.5 101.5t-159.5 38.5q-136 0 -228 -92q-91 -91 -91 -233q0 -140 90 -231
q91 -90 228 -90q85 0 157.5 36.5t120.5 100.5l44 -36q-54 -72 -137.5 -115.5t-185.5 -43.5z" />
    <glyph glyph-name="ccircumflex" unicode="&#x109;" horiz-adv-x="595" 
d="M165 621l138 155h37l138 -155h-65l-92 104l-92 -104h-64zM319 -12q-120 0 -196 78q-77 80 -77 201q0 122 78 202q79 79 201 79q79 0 143.5 -37t95.5 -101l-49 -28q-27 51 -78 81t-112 30q-96 0 -157 -64q-62 -64 -62 -162t60 -161t153 -63q30 0 59 8t54.5 23t46 35.5
t33.5 44.5l49 -30q-31 -61 -98 -99q-65 -37 -144 -37z" />
    <glyph glyph-name="Cdotaccent" unicode="&#x10a;" horiz-adv-x="785" 
d="M430 808q-22 0 -37 14.5t-15 36.5t15 36.5t37 14.5q21 0 36 -14.5t15 -36.5t-15 -36.5t-36 -14.5zM430 -11q-160 0 -269 106q-110 107 -110 272q0 168 111 276q112 109 270 109q102 0 188 -46q87 -45 133 -118l-47 -35q-42 63 -114.5 101.5t-159.5 38.5q-136 0 -228 -92
q-91 -91 -91 -233q0 -140 90 -231q91 -90 228 -90q85 0 157.5 36.5t120.5 100.5l44 -36q-54 -72 -137.5 -115.5t-185.5 -43.5z" />
    <glyph glyph-name="cdotaccent" unicode="&#x10b;" horiz-adv-x="595" 
d="M321 619q-22 0 -37 14.5t-15 36.5t15 36.5t37 14.5q21 0 36 -14.5t15 -36.5t-15 -36.5t-36 -14.5zM319 -12q-120 0 -196 78q-77 80 -77 201q0 122 78 202q79 79 201 79q79 0 143.5 -37t95.5 -101l-49 -28q-27 51 -78 81t-112 30q-96 0 -157 -64q-62 -64 -62 -162t60 -161
t153 -63q30 0 59 8t54.5 23t46 35.5t33.5 44.5l49 -30q-31 -61 -98 -99q-65 -37 -144 -37z" />
    <glyph glyph-name="Ccaron" unicode="&#x10c;" horiz-adv-x="785" 
d="M277 951h64l92 -104l92 104h65l-138 -155h-37zM430 -11q-160 0 -269 106q-110 107 -110 272q0 168 111 276q112 109 270 109q102 0 188 -46q87 -45 133 -118l-47 -35q-42 63 -114.5 101.5t-159.5 38.5q-136 0 -228 -92q-91 -91 -91 -233q0 -140 90 -231q91 -90 228 -90
q85 0 157.5 36.5t120.5 100.5l44 -36q-54 -72 -137.5 -115.5t-185.5 -43.5z" />
    <glyph glyph-name="ccaron" unicode="&#x10d;" horiz-adv-x="595" 
d="M164 777h64l92 -104l92 104h65l-138 -155h-37zM319 -12q-120 0 -196 78q-77 80 -77 201q0 122 78 202q79 79 201 79q79 0 143.5 -37t95.5 -101l-49 -28q-27 51 -78 81t-112 30q-96 0 -157 -64q-62 -64 -62 -162t60 -161t153 -63q30 0 59 8t54.5 23t46 35.5t33.5 44.5
l49 -30q-31 -61 -98 -99q-65 -37 -144 -37z" />
    <glyph glyph-name="Dcaron" unicode="&#x10e;" horiz-adv-x="749" 
d="M178 951h64l92 -104l92 104h65l-138 -155h-37zM101 0v739h254q157 0 248 -100q92 -101 92 -271t-93 -269t-255 -99h-246zM162 58h185q134 0 209 84q76 85 76 227q0 141 -75 227q-73 85 -204 85h-191v-623z" />
    <glyph glyph-name="dcaron" unicode="&#x10f;" horiz-adv-x="695" 
d="M698 780h70l-76 -157h-50zM523 755h60v-755h-60v104q-34 -57 -88.5 -87.5t-123.5 -30.5q-114 0 -190 81q-76 82 -76 200q0 119 76 199q76 81 190 81q69 0 123.5 -31t88.5 -86v325zM314 42q93 0 153 66t60 161q0 93 -60 158t-153 65q-92 0 -151 -65q-58 -64 -58 -160
t58 -160q59 -65 151 -65z" />
    <glyph glyph-name="Dcroat" unicode="&#x110;" horiz-adv-x="774" 
d="M380 739q157 0 248 -100q92 -101 92 -271t-93 -269t-255 -99h-246v343h-121v55h121v341h254zM372 58q134 0 209 84q76 85 76 227q0 141 -75 227q-73 85 -204 85h-191v-283h222v-55h-222v-285h185z" />
    <glyph glyph-name="dcroat" unicode="&#x111;" horiz-adv-x="665" 
d="M659 655v-49h-76v-606h-60v104q-34 -57 -88.5 -87.5t-123.5 -30.5q-114 0 -190 81q-76 82 -76 200q0 119 76 199q76 81 190 81q69 0 123.5 -31t88.5 -86v176h-182v49h182v100h60v-100h76zM314 42q93 0 153 66t60 161q0 93 -60 158t-153 65q-92 0 -151 -65
q-58 -64 -58 -160t58 -160q59 -65 151 -65z" />
    <glyph glyph-name="Emacron" unicode="&#x112;" horiz-adv-x="601" 
d="M163 820v55h332v-54zM101 0v739h445v-58h-384v-278h358v-57h-358v-288h386v-58h-447z" />
    <glyph glyph-name="emacron" unicode="&#x113;" horiz-adv-x="604" 
d="M459 711v-54l-302 -1v55h302zM561 291q0 -11 -3 -47h-450q3 -45 19 -81.5t43.5 -63t66.5 -41t88 -14.5q26 0 53 4.5t53 13t49 20t41 26.5l28 -46q-39 -31 -99 -52.5t-126 -21.5q-74 0 -126.5 24t-86.5 64t-49.5 90t-15.5 103q0 121 73 200t193 79q108 0 178 -70
q71 -69 71 -187zM312 493q-42 0 -77.5 -14t-62 -39.5t-43.5 -61t-21 -79.5h391q0 45 -14 80.5t-39 61t-59 39t-75 13.5z" />
    <glyph glyph-name="Ebreve" unicode="&#x114;" horiz-adv-x="601" 
d="M221 952q1 -57 30 -84.5t78 -27.5q51 0 79.5 27.5t29.5 84.5h55q-1 -73 -45 -116.5t-119 -43.5t-118 43.5t-44 116.5h54zM101 0v739h445v-58h-384v-278h358v-57h-358v-288h386v-58h-447z" />
    <glyph glyph-name="ebreve" unicode="&#x115;" horiz-adv-x="604" 
d="M207 778q1 -57 30 -84.5t78 -27.5q51 0 79.5 27.5t29.5 84.5h55q-1 -73 -45 -116.5t-119 -43.5t-118 43.5t-44 116.5h54zM561 291q0 -11 -3 -47h-450q3 -45 19 -81.5t43.5 -63t66.5 -41t88 -14.5q26 0 53 4.5t53 13t49 20t41 26.5l28 -46q-39 -31 -99 -52.5t-126 -21.5
q-74 0 -126.5 24t-86.5 64t-49.5 90t-15.5 103q0 121 73 200t193 79q108 0 178 -70q71 -69 71 -187zM312 493q-42 0 -77.5 -14t-62 -39.5t-43.5 -61t-21 -79.5h391q0 45 -14 80.5t-39 61t-59 39t-75 13.5z" />
    <glyph glyph-name="Edotaccent" unicode="&#x116;" horiz-adv-x="601" 
d="M326 808q-22 0 -37 14.5t-15 36.5t15 36.5t37 14.5q21 0 36 -14.5t15 -36.5t-15 -36.5t-36 -14.5zM101 0v739h445v-58h-384v-278h358v-57h-358v-288h386v-58h-447z" />
    <glyph glyph-name="edotaccent" unicode="&#x117;" horiz-adv-x="604" 
d="M316 619q-22 0 -37 14.5t-15 36.5t15 36.5t37 14.5q21 0 36 -14.5t15 -36.5t-15 -36.5t-36 -14.5zM561 291q0 -11 -3 -47h-450q3 -45 19 -81.5t43.5 -63t66.5 -41t88 -14.5q26 0 53 4.5t53 13t49 20t41 26.5l28 -46q-39 -31 -99 -52.5t-126 -21.5q-74 0 -126.5 24
t-86.5 64t-49.5 90t-15.5 103q0 121 73 200t193 79q108 0 178 -70q71 -69 71 -187zM312 493q-42 0 -77.5 -14t-62 -39.5t-43.5 -61t-21 -79.5h391q0 45 -14 80.5t-39 61t-59 39t-75 13.5z" />
    <glyph glyph-name="Eogonek" unicode="&#x118;" horiz-adv-x="594" 
d="M563 -229q-42 -30 -89 -30q-48 0 -78 29t-30 77q0 88 116 153h-381v739h445v-58h-384v-278h358v-57h-358v-288h386v-58h1q-61 -27 -95.5 -66.5t-34.5 -77.5q0 -27 18 -45.5t44 -18.5q29 0 58 20z" />
    <glyph glyph-name="eogonek" unicode="&#x119;" horiz-adv-x="604" 
d="M561 291q0 -11 -3 -47h-450q3 -45 19 -81.5t43.5 -63t66.5 -41t88 -14.5q26 0 53 4.5t53 13t49 20t41 26.5l28 -46q-48 -39 -114 -58q-61 -27 -95 -66t-34 -77q0 -27 18 -45.5t44 -18.5q29 0 58 20l24 -41q-42 -30 -89 -30q-48 0 -78 29t-30 77q0 78 88 136h-17
q-74 0 -126.5 24t-86.5 64t-49.5 90t-15.5 103q0 121 73 200t193 79q108 0 178 -70q71 -69 71 -187zM312 493q-42 0 -77.5 -14t-62 -39.5t-43.5 -61t-21 -79.5h391q0 45 -14 80.5t-39 61t-59 39t-75 13.5z" />
    <glyph glyph-name="Ecaron" unicode="&#x11a;" horiz-adv-x="601" 
d="M166 951h64l92 -104l92 104h65l-138 -155h-37zM101 0v739h445v-58h-384v-278h358v-57h-358v-288h386v-58h-447z" />
    <glyph glyph-name="ecaron" unicode="&#x11b;" horiz-adv-x="604" 
d="M332 622h-37l-138 155h64l92 -104l92 104h65zM561 291q0 -11 -3 -47h-450q3 -45 19 -81.5t43.5 -63t66.5 -41t88 -14.5q26 0 53 4.5t53 13t49 20t41 26.5l28 -46q-39 -31 -99 -52.5t-126 -21.5q-74 0 -126.5 24t-86.5 64t-49.5 90t-15.5 103q0 121 73 200t193 79
q108 0 178 -70q71 -69 71 -187zM312 493q-42 0 -77.5 -14t-62 -39.5t-43.5 -61t-21 -79.5h391q0 45 -14 80.5t-39 61t-59 39t-75 13.5z" />
    <glyph glyph-name="Gcircumflex" unicode="&#x11c;" horiz-adv-x="819" 
d="M275 797l138 155h37l138 -155h-65l-92 104l-92 -104h-64zM428 -11q-164 0 -270 108q-107 109 -107 272q0 166 112 274q112 109 271 109q91 0 175 -38t133 -99l-44 -40q-45 55 -115.5 86.5t-148.5 31.5q-136 0 -229 -93q-92 -92 -92 -231q0 -140 90 -231t226 -91
q156 0 275 122v173h-295v57h354v-253q-136 -157 -335 -157z" />
    <glyph glyph-name="gcircumflex" unicode="&#x11d;" horiz-adv-x="663" 
d="M317 725l-92 -104h-64l138 155h37l138 -155h-65zM522 535h60v-488q0 -127 -75 -200q-74 -74 -202 -74q-127 0 -230 76l31 48q91 -69 200 -69q50 0 90 15t68 42.5t43 67t15 88.5v69q-34 -54 -89 -83t-121 -29q-115 0 -191 79t-76 196q0 115 77 195t191 80
q66 0 120.5 -28.5t88.5 -80.5v96zM314 53q92 0 152 64q61 64 61 158q0 93 -61 155q-60 63 -152 63t-150 -63q-59 -64 -59 -157t59 -157q58 -63 150 -63z" />
    <glyph glyph-name="Gbreve" unicode="&#x11e;" horiz-adv-x="819" 
d="M323 951q1 -57 30 -84.5t78 -27.5q51 0 79.5 27.5t29.5 84.5h55q-1 -73 -45 -116.5t-119 -43.5t-118 43.5t-44 116.5h54zM428 -11q-164 0 -270 108q-107 109 -107 272q0 166 112 274q112 109 271 109q91 0 175 -38t133 -99l-44 -40q-45 55 -115.5 86.5t-148.5 31.5
q-136 0 -229 -93q-92 -92 -92 -231q0 -140 90 -231t226 -91q156 0 275 122v173h-295v57h354v-253q-136 -157 -335 -157z" />
    <glyph glyph-name="gbreve" unicode="&#x11f;" horiz-adv-x="663" 
d="M200 776q1 -57 30 -84.5t78 -27.5q51 0 79.5 27.5t29.5 84.5h55q-1 -73 -45 -116.5t-119 -43.5t-118 43.5t-44 116.5h54zM522 535h60v-488q0 -127 -75 -200q-74 -74 -202 -74q-127 0 -230 76l31 48q91 -69 200 -69q50 0 90 15t68 42.5t43 67t15 88.5v69q-34 -54 -89 -83
t-121 -29q-115 0 -191 79t-76 196q0 115 77 195t191 80q66 0 120.5 -28.5t88.5 -80.5v96zM314 53q92 0 152 64q61 64 61 158q0 93 -61 155q-60 63 -152 63t-150 -63q-59 -64 -59 -157t59 -157q58 -63 150 -63z" />
    <glyph glyph-name="Gdotaccent" unicode="&#x120;" horiz-adv-x="819" 
d="M435 808q-22 0 -37 14.5t-15 36.5t15 36.5t37 14.5q21 0 36 -14.5t15 -36.5t-15 -36.5t-36 -14.5zM428 -11q-164 0 -270 108q-107 109 -107 272q0 166 112 274q112 109 271 109q91 0 175 -38t133 -99l-44 -40q-45 55 -115.5 86.5t-148.5 31.5q-136 0 -229 -93
q-92 -92 -92 -231q0 -140 90 -231t226 -91q156 0 275 122v173h-295v57h354v-253q-136 -157 -335 -157z" />
    <glyph glyph-name="gdotaccent" unicode="&#x121;" horiz-adv-x="663" 
d="M316 621q-22 0 -37 14.5t-15 36.5t15 36.5t37 14.5q21 0 36 -14.5t15 -36.5t-15 -36.5t-36 -14.5zM522 535h60v-488q0 -127 -75 -200q-74 -74 -202 -74q-127 0 -230 76l31 48q91 -69 200 -69q50 0 90 15t68 42.5t43 67t15 88.5v69q-34 -54 -89 -83t-121 -29
q-115 0 -191 79t-76 196q0 115 77 195t191 80q66 0 120.5 -28.5t88.5 -80.5v96zM314 53q92 0 152 64q61 64 61 158q0 93 -61 155q-60 63 -152 63t-150 -63q-59 -64 -59 -157t59 -157q58 -63 150 -63z" />
    <glyph glyph-name="Gcommaaccent" unicode="&#x122;" horiz-adv-x="819" 
d="M409 399h354v-253q-136 -157 -335 -157q-164 0 -270 108q-107 109 -107 272q0 166 112 274q112 109 271 109q91 0 175 -38t133 -99l-44 -40q-45 55 -115.5 86.5t-148.5 31.5q-136 0 -229 -93q-92 -92 -92 -231q0 -140 90 -231t226 -91q156 0 275 122v173h-295v57z
M432 -41q23 0 38.5 -17t15.5 -42q0 -77 -106 -144l-19 28q65 46 80 85q-7 -4 -18 -4q-17 0 -30 13t-13 31q0 21 15 35.5t37 14.5z" />
    <glyph glyph-name="gcommaaccent" unicode="&#x123;" horiz-adv-x="663" 
d="M309 600q-23 0 -38.5 17t-15.5 42q0 77 106 144l19 -28q-65 -46 -80 -85q7 4 18 4q17 0 30 -13t13 -31q0 -21 -15 -35.5t-37 -14.5zM522 535h60v-488q0 -127 -75 -200q-74 -74 -202 -74q-127 0 -230 76l31 48q91 -69 200 -69q50 0 90 15t68 42.5t43 67t15 88.5v69
q-34 -54 -89 -83t-121 -29q-115 0 -191 79t-76 196q0 115 77 195t191 80q66 0 120.5 -28.5t88.5 -80.5v96zM314 53q92 0 152 64q61 64 61 158q0 93 -61 155q-60 63 -152 63t-150 -63q-59 -64 -59 -157t59 -157q58 -63 150 -63z" />
    <glyph glyph-name="Hcircumflex" unicode="&#x124;" horiz-adv-x="737" 
d="M213 795l138 155h37l138 -155h-65l-92 104l-92 -104h-64zM101 0v739h62v-342h412v342h61v-739h-61v339h-412v-339h-62z" />
    <glyph glyph-name="hcircumflex" unicode="&#x125;" horiz-adv-x="623" 
d="M-33 796l138 155h37l138 -155h-65l-92 104l-92 -104h-64zM93 0v755h58v-310q24 51 72.5 77.5t112.5 26.5q90 0 151 -59q61 -58 61 -167v-323h-60v313q0 85 -42 132.5t-117 47.5q-71 0 -123 -48q-53 -48 -53 -144v-301h-60z" />
    <glyph glyph-name="Hbar" unicode="&#x126;" horiz-adv-x="754" 
d="M733 590v-55h-85v-535h-61v339h-412v-339h-62v535h-86v55h86v149h62v-149h412v149h61v-149h85zM587 397v138h-412v-138h412z" />
    <glyph glyph-name="hbar" unicode="&#x127;" horiz-adv-x="623" 
d="M336 549q90 0 151 -59q61 -58 61 -167v-323h-60v313q0 85 -42 132.5t-117 47.5q-71 0 -123 -48q-53 -48 -53 -144v-301h-60v606h-81v49h81v100h58v-100h179v-49h-179v-161q24 51 72.5 77.5t112.5 26.5z" />
    <glyph glyph-name="Itilde" unicode="&#x128;" horiz-adv-x="263" 
d="M-31 840q11 39 40.5 63.5t67.5 24.5q33 0 73 -28t63 -28q22 0 39 16t25 37l39 -17q-11 -39 -39 -63.5t-66 -24.5q-35 0 -75 27q-40 28 -61 28q-44 0 -67 -53zM109 739h61v-739h-61v739z" />
    <glyph glyph-name="itilde" unicode="&#x129;" horiz-adv-x="223" 
d="M-54 649q11 37 38.5 60t63.5 23q31 0 69 -27q40 -26 59 -26q20 0 37 15t24 35l36 -16q-10 -37 -37 -60t-62 -23q-32 0 -70 26t-58 26q-40 0 -63 -50zM137 0h-60v535h60v-535z" />
    <glyph glyph-name="Imacron" unicode="&#x12a;" horiz-adv-x="263" 
d="M-25 828v55h332v-54zM109 739h61v-739h-61v739z" />
    <glyph glyph-name="imacron" unicode="&#x12b;" horiz-adv-x="223" 
d="M-42 657v55h302v-54zM137 0h-60v535h60v-535z" />
    <glyph glyph-name="Ibreve" unicode="&#x12c;" horiz-adv-x="263" 
d="M31 950q1 -57 30 -84.5t78 -27.5q51 0 79.5 27.5t29.5 84.5h55q-1 -73 -45 -116.5t-119 -43.5t-118 43.5t-44 116.5h54zM109 739h61v-739h-61v739z" />
    <glyph glyph-name="ibreve" unicode="&#x12d;" horiz-adv-x="223" 
d="M0 776q1 -57 30 -84.5t78 -27.5q51 0 79.5 27.5t29.5 84.5h55q-1 -73 -45 -116.5t-119 -43.5t-118 43.5t-44 116.5h54zM137 0h-60v535h60v-535z" />
    <glyph glyph-name="Iogonek" unicode="&#x12e;" horiz-adv-x="263" 
d="M184 -229q-42 -30 -89 -30q-48 0 -78 29t-30 77q0 93 122 156v736h61v-739q-61 -27 -95.5 -66.5t-34.5 -77.5q0 -27 18 -45.5t44 -18.5q29 0 58 20z" />
    <glyph glyph-name="iogonek" unicode="&#x12f;" horiz-adv-x="223" 
d="M110 619q-22 0 -37 14.5t-15 36.5t15 36.5t37 14.5q21 0 36 -14.5t15 -36.5t-15 -36.5t-36 -14.5zM71 -208q29 0 58 20l24 -41q-42 -30 -89 -30q-48 0 -78 29t-30 77q0 93 122 156v532h60v-535h1q-61 -27 -95.5 -66.5t-34.5 -77.5q0 -27 18 -45.5t44 -18.5z" />
    <glyph glyph-name="Idotaccent" unicode="&#x130;" horiz-adv-x="263" 
d="M143 807q-22 0 -37 14.5t-15 36.5t15 36.5t37 14.5q21 0 36 -14.5t15 -36.5t-15 -36.5t-36 -14.5zM111 739h61v-739h-61v739z" />
    <glyph glyph-name="dotlessi" unicode="&#x131;" horiz-adv-x="223" 
d="M141 0h-60v535h60v-535z" />
    <glyph glyph-name="IJ" unicode="&#x132;" horiz-adv-x="790" 
d="M101 739h61v-739h-61v739zM476 -12q-127 0 -208 98l41 43q30 -39 74 -61t93 -22q36 0 66.5 12.5t52.5 36t34.5 57t12.5 75.5v512h62v-508q0 -118 -64 -181q-65 -62 -164 -62z" />
    <glyph glyph-name="ij" unicode="&#x133;" horiz-adv-x="492" 
d="M109 619q-22 0 -37 14.5t-15 36.5t15 36.5t37 14.5q21 0 36 -14.5t15 -36.5t-15 -36.5t-36 -14.5zM366 619q-22 0 -37 14.5t-15 36.5t15 36.5t37 14.5q21 0 36 -14.5t15 -36.5t-15 -36.5t-36 -14.5zM137 0h-60v535h60v-535zM237 -228q-57 0 -95 23l15 51q44 -19 76 -19
q51 0 76.5 31.5t25.5 88.5v588h60v-584q0 -88 -42.5 -133.5t-115.5 -45.5z" />
    <glyph glyph-name="Jcircumflex" unicode="&#x134;" horiz-adv-x="543" 
d="M270 795l138 155h37l138 -155h-65l-92 104l-92 -104h-64zM229 -12q-127 0 -208 98l41 43q30 -39 74 -61t93 -22q36 0 66.5 12.5t52.5 36t34.5 57t12.5 75.5v512h62v-508q0 -118 -64 -181q-65 -62 -164 -62z" />
    <glyph glyph-name="jcircumflex" unicode="&#x135;" horiz-adv-x="247" 
d="M-22 619l138 155h37l138 -155h-65l-92 104l-92 -104h-64zM7 -228q-57 0 -95 23l15 51q44 -19 76 -19q51 0 76.5 31.5t25.5 88.5v588h60v-584q0 -88 -42.5 -133.5t-115.5 -45.5z" />
    <glyph glyph-name="Kcommaaccent" unicode="&#x136;" horiz-adv-x="625" 
d="M309 390l324 -390h-78l-287 346l-106 -124v-222h-61v739h61v-432l369 432h74zM351 -25q23 0 38.5 -17t15.5 -42q0 -77 -106 -144l-19 28q65 46 80 85q-7 -4 -18 -4q-17 0 -30 13t-13 31q0 21 15 35.5t37 14.5z" />
    <glyph glyph-name="kcommaaccent" unicode="&#x137;" horiz-adv-x="508" 
d="M246 317l266 -317h-78l-230 279l-63 -56v-223h-60v755h60v-459l267 239h81zM276 -28q23 0 38.5 -17t15.5 -42q0 -77 -106 -144l-19 28q65 46 80 85q-7 -4 -18 -4q-17 0 -30 13t-13 31q0 21 15 35.5t37 14.5z" />
    <glyph glyph-name="kgreenlandic" unicode="&#x138;" horiz-adv-x="507" 
d="M434 0l-224 266l-69 -65v-201h-60v535h60v-262l267 262h81l-238 -229l260 -306h-77z" />
    <glyph glyph-name="Lacute" unicode="&#x139;" horiz-adv-x="594" 
d="M111 796l59 160h77l-85 -160h-51zM106 0v739h61v-680h413v-59h-474z" />
    <glyph glyph-name="lacute" unicode="&#x13a;" horiz-adv-x="219" 
d="M91 797l59 160h77l-85 -160h-51zM145 0h-60v755h60v-755z" />
    <glyph glyph-name="Lcommaaccent" unicode="&#x13b;" horiz-adv-x="589" 
d="M162 59h413v-59h-474v739h61v-680zM339 -34q23 0 38.5 -17t15.5 -42q0 -77 -106 -144l-19 28q65 46 80 85q-7 -4 -18 -4q-17 0 -30 13t-13 31q0 21 15 35.5t37 14.5z" />
    <glyph glyph-name="lcommaaccent" unicode="&#x13c;" horiz-adv-x="223" 
d="M148 755v-755h-60v755h60zM119 -42q23 0 38.5 -17t15.5 -42q0 -77 -106 -144l-19 28q65 46 80 85q-7 -4 -18 -4q-17 0 -30 13t-13 31q0 21 15 35.5t37 14.5z" />
    <glyph glyph-name="Lcaron" unicode="&#x13d;" horiz-adv-x="593" 
d="M418 618l56 157h70l-76 -157h-50zM101 0v739h61v-680h413v-59h-474z" />
    <glyph glyph-name="lcaron" unicode="&#x13e;" horiz-adv-x="245" 
d="M197 625l56 157h70l-76 -157h-50zM141 0h-60v755h60v-755z" />
    <glyph glyph-name="Ldot" unicode="&#x13f;" horiz-adv-x="591" 
d="M101 0v739h61v-680h413v-59h-474zM429 341q-21 0 -35 14t-14 34t14 33.5t35 13.5q20 0 34 -13.5t14 -33.5q0 -21 -14 -34.5t-34 -13.5z" />
    <glyph glyph-name="ldot" unicode="&#x140;" horiz-adv-x="300" 
d="M141 0h-60v755h60v-755zM260 309q-21 0 -35 14t-14 34t14 33.5t35 13.5q20 0 34 -13.5t14 -33.5q0 -21 -14 -34.5t-34 -13.5z" />
    <glyph glyph-name="Lslash" unicode="&#x141;" horiz-adv-x="602" 
d="M175 59h413v-59h-474v303l-87 -60v63l87 61v372h61v-330l128 89v-64l-128 -89v-286z" />
    <glyph glyph-name="lslash" unicode="&#x142;" horiz-adv-x="284" 
d="M252 492v-67l-75 -59v-366h-60v319l-70 -55v66l70 55v370h60v-322z" />
    <glyph glyph-name="Nacute" unicode="&#x143;" horiz-adv-x="770" 
d="M357 796l59 160h77l-85 -160h-51zM608 739h61v-739h-32l-475 601v-601h-61v739h27l480 -607v607z" />
    <glyph glyph-name="nacute" unicode="&#x144;" horiz-adv-x="612" 
d="M277 621l59 160h77l-85 -160h-51zM81 0v535h58v-94q24 54 72 81t114 27q89 0 151 -59q61 -58 61 -167v-323h-60v312q0 85 -42 133t-117 48q-71 0 -124 -49q-53 -48 -53 -144v-300h-60z" />
    <glyph glyph-name="Ncommaaccent" unicode="&#x145;" horiz-adv-x="770" 
d="M608 739h61v-739h-32l-475 601v-601h-61v739h27l480 -607v607zM394 -32q23 0 38.5 -17t15.5 -42q0 -77 -106 -144l-19 28q65 46 80 85q-7 -4 -18 -4q-17 0 -30 13t-13 31q0 21 15 35.5t37 14.5z" />
    <glyph glyph-name="ncommaaccent" unicode="&#x146;" horiz-adv-x="612" 
d="M325 549q89 0 151 -59q61 -58 61 -167v-323h-60v312q0 85 -42 133t-117 48q-71 0 -124 -49q-53 -48 -53 -144v-300h-60v535h58v-94q24 54 72 81t114 27zM316 -33q23 0 38.5 -17t15.5 -42q0 -77 -106 -144l-19 28q65 46 80 85q-7 -4 -18 -4q-17 0 -30 13t-13 31
q0 21 15 35.5t37 14.5z" />
    <glyph glyph-name="Ncaron" unicode="&#x147;" horiz-adv-x="770" 
d="M238 951h64l92 -104l92 104h65l-138 -155h-37zM608 739h61v-739h-32l-475 601v-601h-61v739h27l480 -607v607z" />
    <glyph glyph-name="ncaron" unicode="&#x148;" horiz-adv-x="612" 
d="M155 776h64l92 -104l92 104h65l-138 -155h-37zM81 0v535h58v-94q24 54 72 81t114 27q89 0 151 -59q61 -58 61 -167v-323h-60v312q0 85 -42 133t-117 48q-71 0 -124 -49q-53 -48 -53 -144v-300h-60z" />
    <glyph glyph-name="napostrophe" unicode="&#x149;" horiz-adv-x="628" 
d="M-24 625l56 157h70l-76 -157h-50zM98 0v535h58v-94q24 54 72 81t114 27q89 0 151 -59q61 -58 61 -167v-323h-60v312q0 85 -42 133t-117 48q-71 0 -124 -49q-53 -48 -53 -144v-300h-60z" />
    <glyph glyph-name="Eng" unicode="&#x14a;" horiz-adv-x="770" 
d="M608 739h61v-757q0 -109 -62 -171t-156 -62q-77 0 -151 44l26 51q59 -37 126 -37q70 0 113 46.5t43 127.5v50l-446 571v-602h-61v739h27l480 -613v613z" />
    <glyph glyph-name="eng" unicode="&#x14b;" horiz-adv-x="599" 
d="M323 -170q142 -15 142 137v356q0 79 -42 124.5t-111 45.5q-67 0 -119 -46t-52 -141v-306h-60v535h58v-85q24 46 71 72.5t107 26.5q89 0 148 -58q60 -57 60 -162v-349q0 -228 -206 -205z" />
    <glyph glyph-name="Omacron" unicode="&#x14c;" 
d="M262 820v55h332v-54zM428 -12q-159 0 -268 111q-110 112 -110 269q0 158 111 271t269 113q157 0 268 -112q112 -112 112 -270t-112 -270q-111 -112 -270 -112zM430 47q133 0 225 93q92 95 92 229q0 135 -92 230q-91 94 -225 94q-133 0 -226 -95q-92 -95 -92 -229t92 -229
q91 -93 226 -93z" />
    <glyph glyph-name="omacron" unicode="&#x14d;" horiz-adv-x="646" 
d="M172 656v55h302v-54zM45 268q0 119 79 199q79 81 199 81q119 0 199 -81q79 -80 79 -199q0 -120 -79 -200q-80 -81 -199 -81q-120 0 -199 81q-79 80 -79 200zM323 42q94 0 156 65q62 67 62 161q0 95 -62 160t-156 65q-93 0 -156 -66q-62 -65 -62 -159t62 -161
q63 -65 156 -65z" />
    <glyph glyph-name="Obreve" unicode="&#x14e;" 
d="M322 949q1 -57 30 -84.5t78 -27.5q51 0 79.5 27.5t29.5 84.5h55q-1 -73 -45 -116.5t-119 -43.5t-118 43.5t-44 116.5h54zM428 -12q-159 0 -268 111q-110 112 -110 269q0 158 111 271t269 113q157 0 268 -112q112 -112 112 -270t-112 -270q-111 -112 -270 -112zM430 47
q133 0 225 93q92 95 92 229q0 135 -92 230q-91 94 -225 94q-133 0 -226 -95q-92 -95 -92 -229t92 -229q91 -93 226 -93z" />
    <glyph glyph-name="obreve" unicode="&#x14f;" horiz-adv-x="646" 
d="M217 776q1 -57 30 -84.5t78 -27.5q51 0 79.5 27.5t29.5 84.5h55q-1 -73 -45 -116.5t-119 -43.5t-118 43.5t-44 116.5h54zM45 268q0 119 79 199q79 81 199 81q119 0 199 -81q79 -80 79 -199q0 -120 -79 -200q-80 -81 -199 -81q-120 0 -199 81q-79 80 -79 200zM323 42
q94 0 156 65q62 67 62 161q0 95 -62 160t-156 65q-93 0 -156 -66q-62 -65 -62 -159t62 -161q63 -65 156 -65z" />
    <glyph glyph-name="Ohungarumlaut" unicode="&#x150;" 
d="M327 795l45 160h76l-76 -160h-45zM480 795l58 160h76l-88 -160h-46zM428 -12q-159 0 -268 111q-110 112 -110 269q0 158 111 271t269 113q157 0 268 -112q112 -112 112 -270t-112 -270q-111 -112 -270 -112zM430 47q133 0 225 93q92 95 92 229q0 135 -92 230
q-91 94 -225 94q-133 0 -226 -95q-92 -95 -92 -229t92 -229q91 -93 226 -93z" />
    <glyph glyph-name="ohungarumlaut" unicode="&#x151;" horiz-adv-x="646" 
d="M224 620l45 160h76l-76 -160h-45zM377 620l58 160h76l-88 -160h-46zM45 268q0 119 79 199q79 81 199 81q119 0 199 -81q79 -80 79 -199q0 -120 -79 -200q-80 -81 -199 -81q-120 0 -199 81q-79 80 -79 200zM323 42q94 0 156 65q62 67 62 161q0 95 -62 160t-156 65
q-93 0 -156 -66q-62 -65 -62 -159t62 -161q63 -65 156 -65z" />
    <glyph glyph-name="OE" unicode="&#x152;" horiz-adv-x="970" 
d="M531 58h386v-58h-443q-17 -1 -29 -1.5t-19 -0.5q-189 0 -280 100t-91 270t89 271q90 102 273 102q8 0 19.5 -0.5t27.5 -1.5h451v-58h-384v-278h358v-57h-358v-288zM419 56q10 0 22.5 0.5t28.5 1.5v623q-16 1 -28.5 1.5t-22.5 0.5q-84 0 -142 -25.5t-93 -69t-50.5 -100
t-15.5 -118.5q0 -63 15 -119.5t50.5 -100t93 -69t142.5 -25.5z" />
    <glyph glyph-name="oe" unicode="&#x153;" horiz-adv-x="1068" 
d="M1024 291q0 -11 -3 -47h-435q7 -90 61 -145t149 -55q51 0 102.5 17.5t87.5 46.5l27 -46q-38 -31 -96 -52.5t-122 -21.5q-175 0 -242 147q-33 -69 -95 -108t-143 -39q-117 0 -193 81q-77 82 -77 200q0 116 77 198q76 82 193 82q79 0 142 -40t96 -107q31 69 90.5 107.5
t140.5 38.5q105 0 172 -70q68 -70 68 -187zM784 493q-41 0 -75.5 -14t-60 -39.5t-42 -61t-20.5 -79.5h378q0 45 -13.5 80.5t-37.5 61t-57 39t-72 13.5zM524 269q0 93 -60 158t-149 65t-149 -65t-60 -158q0 -96 60 -160q60 -65 149 -65t149 65q60 64 60 160z" />
    <glyph glyph-name="Racute" unicode="&#x154;" horiz-adv-x="619" 
d="M399 956l-85 -160h-51l59 160h77zM499 0l-189 312h-148v-312h-61v739h223q113 0 173 -64q61 -62 61 -150q0 -75 -48 -133q-46 -57 -135 -74l198 -318h-74zM162 681v-311h148q91 0 138 43.5t47 113.5q0 69 -45.5 111.5t-124.5 42.5h-163z" />
    <glyph glyph-name="racute" unicode="&#x155;" horiz-adv-x="371" 
d="M178 621l59 160h77l-85 -160h-51zM81 0v535h57v-86q43 100 155 100q31 0 66 -9l-7 -57q-29 9 -57 9q-36 0 -65 -13.5t-48.5 -38.5t-30 -59t-10.5 -76v-305h-60z" />
    <glyph glyph-name="Rcommaaccent" unicode="&#x156;" horiz-adv-x="619" 
d="M573 0h-74l-189 312h-148v-312h-61v739h223q113 0 173 -64q61 -62 61 -150q0 -75 -48 -133q-46 -57 -135 -74zM162 681v-311h148q91 0 138 43.5t47 113.5q0 69 -45.5 111.5t-124.5 42.5h-163zM322 -26q23 0 38.5 -17t15.5 -42q0 -77 -106 -144l-19 28q65 46 80 85
q-7 -4 -18 -4q-17 0 -30 13t-13 31q0 21 15 35.5t37 14.5z" />
    <glyph glyph-name="rcommaaccent" unicode="&#x157;" horiz-adv-x="378" 
d="M299 549q31 0 66 -9l-7 -57q-29 9 -57 9q-36 0 -65 -13.5t-48.5 -38.5t-30 -59t-10.5 -76v-305h-60v535h57v-86q43 100 155 100zM119 -39q23 0 38.5 -17t15.5 -42q0 -77 -106 -144l-19 28q65 46 80 85q-7 -4 -18 -4q-17 0 -30 13t-13 31q0 21 15 35.5t37 14.5z" />
    <glyph glyph-name="Rcaron" unicode="&#x158;" horiz-adv-x="619" 
d="M321 796h-37l-138 155h64l92 -104l92 104h65zM499 0l-189 312h-148v-312h-61v739h223q113 0 173 -64q61 -62 61 -150q0 -75 -48 -133q-46 -57 -135 -74l198 -318h-74zM162 681v-311h148q91 0 138 43.5t47 113.5q0 69 -45.5 111.5t-124.5 42.5h-163z" />
    <glyph glyph-name="rcaron" unicode="&#x159;" horiz-adv-x="375" 
d="M56 776h64l92 -104l92 104h65l-138 -155h-37zM87 0v535h57v-86q43 100 155 100q31 0 66 -9l-7 -57q-29 9 -57 9q-36 0 -65 -13.5t-48.5 -38.5t-30 -59t-10.5 -76v-305h-60z" />
    <glyph glyph-name="Sacute" unicode="&#x15a;" horiz-adv-x="551" 
d="M246 795l59 160h77l-85 -160h-51zM275 -12q-78 0 -143.5 39t-99.5 115l49 33q28 -61 77 -95t115 -34q75 0 122 41t47 102q0 43 -24.5 72.5t-72.5 53.5q-11 5 -29.5 14t-46.5 21q-27 12 -45 20.5t-28 13.5q-126 63 -126 176q0 83 58 137q58 55 154 55q132 0 209 -110
l-46 -37q-63 90 -162 90q-66 0 -107.5 -36t-41.5 -96q0 -76 89 -123q10 -5 30 -14.5t51 -23.5q61 -27 84 -39q119 -65 119 -172q0 -90 -67 -147q-67 -56 -165 -56z" />
    <glyph glyph-name="sacute" unicode="&#x15b;" horiz-adv-x="442" 
d="M193 621l59 160h77l-85 -160h-51zM220 -12q-60 0 -110 28.5t-79 88.5l48 30q46 -93 141 -93q27 0 49.5 8t38.5 22t25 32t9 39q0 52 -68 87q-20 10 -64 27q-23 10 -39 17t-25 12q-85 43 -85 125q0 30 11.5 56t33 45t51.5 30t68 11q110 0 161 -84l-42 -34q-38 65 -120 65
q-51 0 -78 -24.5t-27 -62.5q0 -53 58 -81l60 -26q23 -10 41 -17.5t30 -13.5q46 -22 70 -52t24 -76q0 -67 -51 -113q-50 -46 -131 -46z" />
    <glyph glyph-name="Scircumflex" unicode="&#x15c;" horiz-adv-x="551" 
d="M132 794l138 155h37l138 -155h-65l-92 104l-92 -104h-64zM275 -12q-78 0 -143.5 39t-99.5 115l49 33q28 -61 77 -95t115 -34q75 0 122 41t47 102q0 43 -24.5 72.5t-72.5 53.5q-11 5 -29.5 14t-46.5 21q-27 12 -45 20.5t-28 13.5q-126 63 -126 176q0 83 58 137
q58 55 154 55q132 0 209 -110l-46 -37q-63 90 -162 90q-66 0 -107.5 -36t-41.5 -96q0 -76 89 -123q10 -5 30 -14.5t51 -23.5q61 -27 84 -39q119 -65 119 -172q0 -90 -67 -147q-67 -56 -165 -56z" />
    <glyph glyph-name="scircumflex" unicode="&#x15d;" horiz-adv-x="442" 
d="M67 621l138 155h37l138 -155h-65l-92 104l-92 -104h-64zM220 -12q-60 0 -110 28.5t-79 88.5l48 30q46 -93 141 -93q27 0 49.5 8t38.5 22t25 32t9 39q0 52 -68 87q-20 10 -64 27q-23 10 -39 17t-25 12q-85 43 -85 125q0 30 11.5 56t33 45t51.5 30t68 11q110 0 161 -84
l-42 -34q-38 65 -120 65q-51 0 -78 -24.5t-27 -62.5q0 -53 58 -81l60 -26q23 -10 41 -17.5t30 -13.5q46 -22 70 -52t24 -76q0 -67 -51 -113q-50 -46 -131 -46z" />
    <glyph glyph-name="Scedilla" unicode="&#x15e;" horiz-adv-x="551" 
d="M507 191q0 -88 -63 -143t-158 -60l-23 -57q9 1 15.5 1.5t11.5 0.5q42 0 69.5 -22t27.5 -64q0 -45 -33.5 -76t-93.5 -31q-50 0 -102 24l17 42q43 -20 82 -20q36 0 57.5 18.5t21.5 42.5q0 20 -15 33.5t-46 13.5h-60l-8 17l30 79q-67 9 -121 47.5t-84 104.5l49 33
q28 -61 77 -95t115 -34q75 0 122 41t47 102q0 43 -24.5 72.5t-72.5 53.5q-11 5 -29.5 14t-46.5 21q-27 12 -45 20.5t-28 13.5q-126 63 -126 176q0 83 58 137q58 55 154 55q132 0 209 -110l-46 -37q-63 90 -162 90q-66 0 -107.5 -36t-41.5 -96q0 -76 89 -123q10 -5 30 -14.5
t51 -23.5q61 -27 84 -39q119 -65 119 -172z" />
    <glyph glyph-name="scedilla" unicode="&#x15f;" horiz-adv-x="442" 
d="M402 147q0 -64 -50 -111t-126 -48l-19 -46q9 1 15.5 1.5t11.5 0.5q42 0 69.5 -22t27.5 -64q0 -45 -33.5 -76t-93.5 -31q-50 0 -102 24l17 42q43 -20 82 -20q36 0 57.5 18.5t21.5 42.5q0 20 -15 33.5t-46 13.5h-60l-8 17l27 70q-101 20 -147 113l48 30q46 -93 141 -93
q27 0 49.5 8t38.5 22t25 32t9 39q0 52 -68 87q-20 10 -64 27q-23 10 -39 17t-25 12q-85 43 -85 125q0 30 11.5 56t33 45t51.5 30t68 11q110 0 161 -84l-42 -34q-38 65 -120 65q-51 0 -78 -24.5t-27 -62.5q0 -53 58 -81l60 -26q23 -10 41 -17.5t30 -13.5q46 -22 70 -52
t24 -76z" />
    <glyph glyph-name="Scaron" unicode="&#x160;" horiz-adv-x="551" 
d="M138 950h64l92 -104l92 104h65l-138 -155h-37zM275 -12q-78 0 -143.5 39t-99.5 115l49 33q28 -61 77 -95t115 -34q75 0 122 41t47 102q0 43 -24.5 72.5t-72.5 53.5q-11 5 -29.5 14t-46.5 21q-27 12 -45 20.5t-28 13.5q-126 63 -126 176q0 83 58 137q58 55 154 55
q132 0 209 -110l-46 -37q-63 90 -162 90q-66 0 -107.5 -36t-41.5 -96q0 -76 89 -123q10 -5 30 -14.5t51 -23.5q61 -27 84 -39q119 -65 119 -172q0 -90 -67 -147q-67 -56 -165 -56z" />
    <glyph glyph-name="scaron" unicode="&#x161;" horiz-adv-x="442" 
d="M67 776h64l92 -104l92 104h65l-138 -155h-37zM220 -12q-60 0 -110 28.5t-79 88.5l48 30q46 -93 141 -93q27 0 49.5 8t38.5 22t25 32t9 39q0 52 -68 87q-20 10 -64 27q-23 10 -39 17t-25 12q-85 43 -85 125q0 30 11.5 56t33 45t51.5 30t68 11q110 0 161 -84l-42 -34
q-38 65 -120 65q-51 0 -78 -24.5t-27 -62.5q0 -53 58 -81l60 -26q23 -10 41 -17.5t30 -13.5q46 -22 70 -52t24 -76q0 -67 -51 -113q-50 -46 -131 -46z" />
    <glyph glyph-name="Tcaron" unicode="&#x164;" horiz-adv-x="539" 
d="M114 951h64l92 -104l92 104h65l-138 -155h-37zM239 680h-224v59h509v-59h-224v-680h-61v680z" />
    <glyph glyph-name="tcaron" unicode="&#x165;" horiz-adv-x="418" 
d="M457 781l-76 -157h-50l56 157h70zM274 43q62 0 112 37l25 -46q-58 -46 -142 -46q-81 0 -121 49.5t-40 137.5v307h-95v53h96v189h59v-189h220v-53h-220v-309q0 -130 106 -130z" />
    <glyph glyph-name="Tbar" unicode="&#x166;" horiz-adv-x="574" 
d="M542 680h-224v-255h172v-55h-172v-370h-61v370h-171v55h171v255h-224v59h509v-59z" />
    <glyph glyph-name="tbar" unicode="&#x167;" horiz-adv-x="422" 
d="M417 34q-58 -46 -142 -46q-81 0 -121 49.5t-40 137.5v121h-94v54h94v132h-95v53h96v189h59v-189h220v-53h-220v-132h218v-54h-218v-123q0 -130 106 -130q62 0 112 37z" />
    <glyph glyph-name="Utilde" unicode="&#x168;" horiz-adv-x="685" 
d="M173 828q11 39 40.5 63.5t67.5 24.5q34 0 74 -28t62 -28t39 16t25 37l39 -17q-11 -39 -39 -63.5t-66 -24.5q-35 0 -75 27q-40 28 -61 28q-44 0 -67 -53zM93 739h61v-489q0 -97 49 -149.5t140 -52.5q90 0 139 53t49 149v489h61v-499q0 -118 -68 -186q-67 -67 -181 -67
t-182 67q-68 68 -68 186v499z" />
    <glyph glyph-name="utilde" unicode="&#x169;" horiz-adv-x="585" 
d="M129 647q11 37 38.5 60t63.5 23q31 0 69 -27q40 -26 59 -26q20 0 37 15t24 35l36 -16q-10 -37 -37 -60t-62 -23q-32 0 -70 26t-58 26q-40 0 -63 -50zM292 -13q-99 0 -159 60q-59 62 -59 162v326h60v-325q0 -78 42.5 -122.5t115.5 -44.5q75 0 117 45t42 123v324h60v-326
q0 -103 -58 -162.5t-161 -59.5z" />
    <glyph glyph-name="Umacron" unicode="&#x16a;" horiz-adv-x="685" 
d="M170 820v55h332v-54zM93 739h61v-489q0 -97 49 -149.5t140 -52.5q90 0 139 53t49 149v489h61v-499q0 -118 -68 -186q-67 -67 -181 -67t-182 67q-68 68 -68 186v499z" />
    <glyph glyph-name="umacron" unicode="&#x16b;" horiz-adv-x="585" 
d="M142 650v55h302v-54zM292 -13q-99 0 -159 60q-59 62 -59 162v326h60v-325q0 -78 42.5 -122.5t115.5 -44.5q75 0 117 45t42 123v324h60v-326q0 -103 -58 -162.5t-161 -59.5z" />
    <glyph glyph-name="Ubreve" unicode="&#x16c;" horiz-adv-x="685" 
d="M233 949q1 -57 30 -84.5t78 -27.5q51 0 79.5 27.5t29.5 84.5h55q-1 -73 -45 -116.5t-119 -43.5t-118 43.5t-44 116.5h54zM93 739h61v-489q0 -97 49 -149.5t140 -52.5q90 0 139 53t49 149v489h61v-499q0 -118 -68 -186q-67 -67 -181 -67t-182 67q-68 68 -68 186v499z" />
    <glyph glyph-name="ubreve" unicode="&#x16d;" horiz-adv-x="585" 
d="M184 775q1 -57 30 -84.5t78 -27.5q51 0 79.5 27.5t29.5 84.5h55q-1 -73 -45 -116.5t-119 -43.5t-118 43.5t-44 116.5h54zM292 -13q-99 0 -159 60q-59 62 -59 162v326h60v-325q0 -78 42.5 -122.5t115.5 -44.5q75 0 117 45t42 123v324h60v-326q0 -103 -58 -162.5
t-161 -59.5z" />
    <glyph glyph-name="Uring" unicode="&#x16e;" horiz-adv-x="685" 
d="M343 786q-23 0 -43 8.5t-35 23t-24 34t-9 42.5t9 43t24 35t35 23.5t43 8.5q47 0 79 -32q33 -32 33 -78q0 -23 -8.5 -42.5t-23.5 -34t-35.5 -23t-44.5 -8.5zM294 846q20 -20 49 -20t49 20q21 20 21 49t-21 49q-20 20 -49 20t-49 -20t-20 -49t20 -49zM93 739h61v-489
q0 -97 49 -149.5t140 -52.5q90 0 139 53t49 149v489h61v-499q0 -118 -68 -186q-67 -67 -181 -67t-182 67q-68 68 -68 186v499z" />
    <glyph glyph-name="uring" unicode="&#x16f;" horiz-adv-x="585" 
d="M292 591q-23 0 -43 8.5t-35 23t-24 34t-9 42.5t9 43t24 35t35 23.5t43 8.5q47 0 79 -32q33 -32 33 -78q0 -23 -8.5 -42.5t-23.5 -34t-35.5 -23t-44.5 -8.5zM243 651q20 -20 49 -20t49 20q21 20 21 49t-21 49q-20 20 -49 20t-49 -20t-20 -49t20 -49zM292 -13
q-99 0 -159 60q-59 62 -59 162v326h60v-325q0 -78 42.5 -122.5t115.5 -44.5q75 0 117 45t42 123v324h60v-326q0 -103 -58 -162.5t-161 -59.5z" />
    <glyph glyph-name="Uhungarumlaut" unicode="&#x170;" horiz-adv-x="685" 
d="M231 795l45 160h76l-76 -160h-45zM384 795l58 160h76l-88 -160h-46zM93 739h61v-489q0 -97 49 -149.5t140 -52.5q90 0 139 53t49 149v489h61v-499q0 -118 -68 -186q-67 -67 -181 -67t-182 67q-68 68 -68 186v499z" />
    <glyph glyph-name="uhungarumlaut" unicode="&#x171;" horiz-adv-x="585" 
d="M181 620l45 160h76l-76 -160h-45zM334 620l58 160h76l-88 -160h-46zM292 -13q-99 0 -159 60q-59 62 -59 162v326h60v-325q0 -78 42.5 -122.5t115.5 -44.5q75 0 117 45t42 123v324h60v-326q0 -103 -58 -162.5t-161 -59.5z" />
    <glyph glyph-name="Uogonek" unicode="&#x172;" horiz-adv-x="685" 
d="M531 739h61v-499q0 -90 -39.5 -151t-111.5 -86q-58 -27 -90.5 -65.5t-32.5 -75.5q0 -27 18 -45.5t44 -18.5q29 0 58 20l24 -41q-42 -30 -89 -30q-48 0 -78 29t-30 77q0 76 85 134h-7q-114 0 -182 67q-68 68 -68 186v499h61v-489q0 -97 49 -149.5t140 -52.5q90 0 139 53
t49 149v489z" />
    <glyph glyph-name="uogonek" unicode="&#x173;" horiz-adv-x="585" 
d="M451 535h60v-326q0 -78 -34 -131.5t-97 -76.5q-61 -27 -95.5 -66.5t-34.5 -77.5q0 -27 18 -45.5t44 -18.5q29 0 58 20l24 -41q-42 -30 -89 -30q-48 0 -78 29t-30 77q0 79 92 139q-99 2 -157 61q-58 61 -58 161v326h60v-325q0 -78 42.5 -122.5t115.5 -44.5q75 0 117 45
t42 123v324z" />
    <glyph glyph-name="Wcircumflex" unicode="&#x174;" horiz-adv-x="1010" 
d="M349 795l138 155h37l138 -155h-65l-92 104l-92 -104h-64zM263 0l-247 739h62l201 -618l212 618h27l215 -617l199 617h61l-245 -739h-30l-213 622l-212 -622h-30z" />
    <glyph glyph-name="wcircumflex" unicode="&#x175;" horiz-adv-x="814" 
d="M251 621l138 155h37l138 -155h-65l-92 104l-92 -104h-64zM204 1l-188 534h62l149 -440l160 440l40 -1l162 -439l146 440h63l-187 -534h-42l-162 449l-161 -449h-42z" />
    <glyph glyph-name="Ycircumflex" unicode="&#x176;" horiz-adv-x="602" 
d="M145 795l138 155h37l138 -155h-65l-92 104l-92 -104h-64zM581 739l-250 -446v-293h-61v293l-248 446h67l212 -389l213 389h67z" />
    <glyph glyph-name="ycircumflex" unicode="&#x177;" horiz-adv-x="531" 
d="M270 723l-92 -104h-64l138 155h37l138 -155h-65zM449 535h66l-226 -575q-20 -51 -39.5 -86.5t-41.5 -58t-47 -32.5t-55 -10q-43 0 -77 19l9 53q35 -16 66 -16q42 0 72 34t56 103l13 34l-228 535h66l191 -457z" />
    <glyph glyph-name="Ydieresis" unicode="&#x178;" horiz-adv-x="602" 
d="M162 862q0 20 15 35.5t37 15.5t37 -15t15 -36q0 -23 -15 -38t-37 -15t-37 15.5t-15 37.5zM338 862q0 21 15 36t37 15t37.5 -15t15.5 -36q0 -22 -15.5 -37.5t-37.5 -15.5t-37 15t-15 38zM581 739l-250 -446v-293h-61v293l-248 446h67l212 -389l213 389h67z" />
    <glyph glyph-name="Zacute" unicode="&#x179;" horiz-adv-x="577" 
d="M269 796l59 160h77l-85 -160h-51zM26 0v37l430 644h-411v58h490v-46l-421 -635h432v-58h-520z" />
    <glyph glyph-name="zacute" unicode="&#x17a;" horiz-adv-x="477" 
d="M204 621l59 160h77l-85 -160h-51zM106 53h341v-53h-419v41l330 440h-312v53h386v-43z" />
    <glyph glyph-name="Zdotaccent" unicode="&#x17b;" horiz-adv-x="577" 
d="M296 808q-22 0 -37 14.5t-15 36.5t15 36.5t37 14.5q21 0 36 -14.5t15 -36.5t-15 -36.5t-36 -14.5zM26 0v37l430 644h-411v58h490v-46l-421 -635h432v-58h-520z" />
    <glyph glyph-name="zdotaccent" unicode="&#x17c;" horiz-adv-x="477" 
d="M247 618q-22 0 -37 14.5t-15 36.5t15 36.5t37 14.5q21 0 36 -14.5t15 -36.5t-15 -36.5t-36 -14.5zM106 53h341v-53h-419v41l330 440h-312v53h386v-43z" />
    <glyph glyph-name="Zcaron" unicode="&#x17d;" horiz-adv-x="577" 
d="M143 951h64l92 -104l92 104h65l-138 -155h-37zM26 0v37l430 644h-411v58h490v-46l-421 -635h432v-58h-520z" />
    <glyph glyph-name="zcaron" unicode="&#x17e;" horiz-adv-x="477" 
d="M83 776h64l92 -104l92 104h65l-138 -155h-37zM106 53h341v-53h-419v41l330 440h-312v53h386v-43z" />
    <glyph glyph-name="Ohorn" unicode="&#x1a0;" 
d="M571 724q35 0 54 14.5t19 41.5q0 19 -13 52l43 13q8 -14 13.5 -31.5t5.5 -36.5q0 -48 -30.5 -76t-91.5 -28v51zM428 -12q-159 0 -268 111q-110 112 -110 269q0 158 111 271t269 113q157 0 268 -112q112 -112 112 -270t-112 -270q-111 -112 -270 -112zM430 47
q133 0 225 93q92 95 92 229q0 135 -92 230q-91 94 -225 94q-133 0 -226 -95q-92 -95 -92 -229t92 -229q91 -93 226 -93z" />
    <glyph glyph-name="ohorn" unicode="&#x1a1;" horiz-adv-x="646" 
d="M449 519q35 0 54 14.5t19 41.5q0 19 -13 52l43 13q8 -14 13.5 -31.5t5.5 -36.5q0 -48 -30.5 -76t-91.5 -28v51zM45 268q0 119 79 199q79 81 199 81q119 0 199 -81q79 -80 79 -199q0 -120 -79 -200q-80 -81 -199 -81q-120 0 -199 81q-79 80 -79 200zM323 42q94 0 156 65
q62 67 62 161q0 95 -62 160t-156 65q-93 0 -156 -66q-62 -65 -62 -159t62 -161q63 -65 156 -65z" />
    <glyph glyph-name="Uhorn" unicode="&#x1af;" horiz-adv-x="685" 
d="M531 739q35 0 54 14.5t19 41.5q0 19 -13 52l43 13q8 -14 13.5 -31.5t5.5 -36.5q0 -48 -30.5 -76t-91.5 -28v51zM93 739h61v-489q0 -97 49 -149.5t140 -52.5q90 0 139 53t49 149v489h61v-499q0 -118 -68 -186q-67 -67 -181 -67t-182 67q-68 68 -68 186v499z" />
    <glyph glyph-name="uhorn" unicode="&#x1b0;" horiz-adv-x="585" 
d="M451 532q35 0 54 14.5t19 41.5q0 19 -13 52l43 13q8 -14 13.5 -31.5t5.5 -36.5q0 -48 -30.5 -76t-91.5 -28v51zM292 -13q-99 0 -159 60q-59 62 -59 162v326h60v-325q0 -78 42.5 -122.5t115.5 -44.5q75 0 117 45t42 123v324h60v-326q0 -103 -58 -162.5t-161 -59.5z" />
    <glyph glyph-name="Scommaaccent" unicode="&#x218;" horiz-adv-x="551" 
d="M388 363q119 -65 119 -172q0 -90 -67 -147q-67 -56 -165 -56q-78 0 -143.5 39t-99.5 115l49 33q28 -61 77 -95t115 -34q75 0 122 41t47 102q0 43 -24.5 72.5t-72.5 53.5q-11 5 -29.5 14t-46.5 21q-27 12 -45 20.5t-28 13.5q-126 63 -126 176q0 83 58 137q58 55 154 55
q132 0 209 -110l-46 -37q-63 90 -162 90q-66 0 -107.5 -36t-41.5 -96q0 -76 89 -123q10 -5 30 -14.5t51 -23.5q61 -27 84 -39zM277 -50q23 0 38.5 -17t15.5 -42q0 -77 -106 -144l-19 28q65 46 80 85q-7 -4 -18 -4q-17 0 -30 13t-13 31q0 21 15 35.5t37 14.5z" />
    <glyph glyph-name="scommaaccent" unicode="&#x219;" horiz-adv-x="442" 
d="M308 275q46 -22 70 -52t24 -76q0 -67 -51 -113q-50 -46 -131 -46q-60 0 -110 28.5t-79 88.5l48 30q46 -93 141 -93q27 0 49.5 8t38.5 22t25 32t9 39q0 52 -68 87q-20 10 -64 27q-23 10 -39 17t-25 12q-85 43 -85 125q0 30 11.5 56t33 45t51.5 30t68 11q110 0 161 -84
l-42 -34q-38 65 -120 65q-51 0 -78 -24.5t-27 -62.5q0 -53 58 -81l60 -26q23 -10 41 -17.5t30 -13.5zM221 -50q23 0 38.5 -17t15.5 -42q0 -77 -106 -144l-19 28q65 46 80 85q-7 -4 -18 -4q-17 0 -30 13t-13 31q0 21 15 35.5t37 14.5z" />
    <glyph glyph-name="uni021A" unicode="&#x21a;" horiz-adv-x="539" 
d="M15 739h509v-59h-224v-680h-61v680h-224v59zM270 -33q23 0 38.5 -17t15.5 -42q0 -77 -106 -144l-19 28q65 46 80 85q-7 -4 -18 -4q-17 0 -30 13t-13 31q0 21 15 35.5t37 14.5z" />
    <glyph glyph-name="uni021B" unicode="&#x21b;" horiz-adv-x="414" 
d="M411 34q-58 -46 -142 -46q-81 0 -121 49.5t-40 137.5v307h-95v53h96v189h59v-189h220v-53h-220v-309q0 -130 106 -130q62 0 112 37zM261 -60q23 0 38.5 -17t15.5 -42q0 -77 -106 -144l-19 28q65 46 80 85q-7 -4 -18 -4q-17 0 -30 13t-13 31q0 21 15 35.5t37 14.5z" />
    <glyph glyph-name="uni0237" unicode="&#x237;" horiz-adv-x="247" 
d="M7 -228q-57 0 -95 23l15 51q44 -19 76 -19q51 0 76.5 31.5t25.5 88.5v588h60v-584q0 -88 -42.5 -133.5t-115.5 -45.5z" />
    <glyph glyph-name="circumflex" unicode="&#x2c6;" horiz-adv-x="575" 
d="M51 626l138 155h37l138 -155h-65l-92 104l-92 -104h-64z" />
    <glyph glyph-name="caron" unicode="&#x2c7;" horiz-adv-x="549" 
d="M51 779h64l92 -104l92 104h65l-138 -155h-37z" />
    <glyph glyph-name="breve" unicode="&#x2d8;" horiz-adv-x="443" 
d="M106 780q1 -57 30 -84.5t78 -27.5q51 0 79.5 27.5t29.5 84.5h55q-1 -73 -45 -116.5t-119 -43.5t-118 43.5t-44 116.5h54z" />
    <glyph glyph-name="dotaccent" unicode="&#x2d9;" horiz-adv-x="300" 
d="M104 621q-22 0 -37 14.5t-15 36.5t15 36.5t37 14.5q21 0 36 -14.5t15 -36.5t-15 -36.5t-36 -14.5z" />
    <glyph glyph-name="ring" unicode="&#x2da;" horiz-adv-x="378" 
d="M163 605q-23 0 -43 8.5t-35 23t-24 34t-9 42.5t9 43t24 35t35 23.5t43 8.5q47 0 79 -32q33 -32 33 -78q0 -23 -8.5 -42.5t-23.5 -34t-35.5 -23t-44.5 -8.5zM114 665q20 -20 49 -20t49 20q21 20 21 49t-21 49q-20 20 -49 20t-49 -20t-20 -49t20 -49z" />
    <glyph glyph-name="ogonek" unicode="&#x2db;" horiz-adv-x="387" 
d="M249 -229q-42 -30 -89 -30q-48 0 -78 29t-30 77q0 102 148 169l35 -16q-61 -27 -95.5 -66.5t-34.5 -77.5q0 -27 18 -45.5t44 -18.5q29 0 58 20z" />
    <glyph glyph-name="tilde" unicode="&#x2dc;" horiz-adv-x="539" 
d="M54 674q11 37 38.5 60t63.5 23q31 0 69 -27q40 -26 59 -26q20 0 37 15t24 35l36 -16q-10 -37 -37 -60t-62 -23q-32 0 -70 26t-58 26q-40 0 -63 -50z" />
    <glyph glyph-name="hungarumlaut" unicode="&#x2dd;" horiz-adv-x="513" 
d="M50 620l45 160h76l-76 -160h-45zM203 620l58 160h76l-88 -160h-46z" />
    <glyph glyph-name="hookabovecomb" unicode="&#x309;" horiz-adv-x="236" 
d="M91 560q-2 0 -2 7.5t3 18t9.5 22.5t18.5 22q16 13 28 26.5t12 31.5q0 20 -14.5 31.5t-34.5 11.5q-29 0 -64 -40l-34 33q21 25 46.5 39.5t51.5 14.5q19 0 36.5 -6.5t31 -18t22 -28t8.5 -37.5q0 -38 -48 -82q-12 -11 -19 -20t-7 -26h-44z" />
    <glyph glyph-name="dotbelowcomb" unicode="&#x323;" horiz-adv-x="149" 
d="M73 -180q-22 0 -37 14.5t-15 36.5t15 36.5t37 14.5q21 0 36 -14.5t15 -36.5t-15 -36.5t-36 -14.5z" />
    <glyph glyph-name="uni0394" unicode="&#x394;" horiz-adv-x="712" 
d="M19 0v43l316 696h43l314 -696v-43h-673zM90 57h532l-266 598z" />
    <glyph glyph-name="uni03A9" unicode="&#x3a9;" horiz-adv-x="843" 
d="M64 0v54h184q-92 53 -141 140q-49 88 -49 189q0 156 106 262q107 107 258 107q152 0 257 -107q106 -106 106 -262q0 -51 -12.5 -99t-36.5 -90.5t-59.5 -78t-80.5 -61.5h183v-54h-295v46q117 52 177.5 140.5t60.5 194.5q0 131 -86 222q-86 90 -214 90q-130 0 -215 -90
q-86 -91 -86 -222q0 -106 60.5 -194.5t177.5 -140.5v-46h-295z" />
    <glyph glyph-name="uni03BC" unicode="&#x3bc;" horiz-adv-x="605" 
d="M463 535h60v-535h-56v96q-23 -54 -70.5 -81.5t-105.5 -27.5q-100 0 -150 83v-288h-60v753h60v-314q0 -77 42 -128q44 -50 113 -50q64 0 116 47q51 48 51 154v291z" />
    <glyph glyph-name="pi" unicode="&#x3c0;" horiz-adv-x="598" 
d="M117 0v482h-92v53h548v-53h-92v-482h-60v482h-244v-482h-60z" />
    <glyph glyph-name="uni0401" unicode="&#x401;" horiz-adv-x="601" 
d="M186 862q0 20 15 35.5t37 15.5t37 -15t15 -36q0 -23 -15 -38t-37 -15t-37 15.5t-15 37.5zM362 862q0 21 15 36t37 15t37.5 -15t15.5 -36q0 -22 -15.5 -37.5t-37.5 -15.5t-37 15t-15 38zM101 0v739h445v-58h-384v-278h358v-57h-358v-288h386v-58h-447z" />
    <glyph glyph-name="uni0410" unicode="&#x410;" horiz-adv-x="652" 
d="M569 0l-88 224h-311l-88 -224h-67l295 739h33l293 -739h-67zM326 630l-136 -349h271z" />
    <glyph glyph-name="uni0411" unicode="&#x411;" horiz-adv-x="634" 
d="M352 444q69 0 119.5 -22t76.5 -58q26 -35 38 -71.5t12 -74.5q0 -40 -14 -79t-44 -70t-76.5 -50t-111.5 -19h-251v739h424v-58h-363v-237h190zM342 58q45 0 81 12.5t61 34.5t38 52.5t13 66.5q0 72 -49.5 117t-136.5 45h-187v-328h180z" />
    <glyph glyph-name="uni0412" unicode="&#x412;" horiz-adv-x="661" 
d="M467 400q34 -9 61 -28t45.5 -44t28 -55t9.5 -63q0 -86 -61 -148q-62 -62 -173 -62h-276v739h266q99 0 151 -55q54 -54 54 -129q0 -54 -28.5 -96.5t-76.5 -58.5zM162 681v-257h210q30 0 55.5 10t44 28t28.5 42t10 51q0 55 -38.5 90.5t-110.5 35.5h-199zM372 58
q78 0 127 44q49 45 49 111t-49 109q-50 44 -128 44h-209v-308h210z" />
    <glyph glyph-name="uni0413" unicode="&#x413;" horiz-adv-x="532" 
d="M101 0v739h416v-58h-355v-681h-61z" />
    <glyph glyph-name="uni0414" unicode="&#x414;" horiz-adv-x="727" 
d="M632 57h68v-207h-63v150h-548v-150h-63v207h68l254 682h32zM160 57h406l-203 573z" />
    <glyph glyph-name="uni0415" unicode="&#x415;" horiz-adv-x="601" 
d="M101 0v739h445v-58h-384v-278h358v-57h-358v-288h386v-58h-447z" />
    <glyph glyph-name="uni0416" unicode="&#x416;" horiz-adv-x="928" 
d="M918 2q-30 -13 -64 -13q-73 0 -123 62q-26 31 -82 135l-14 25q-14 26 -23.5 43.5t-16.5 28.5q-13 21 -31.5 37.5t-40.5 16.5h-28v-339h-61v339h-29q-31 0 -52 -26q-10 -13 -25 -38t-35 -62q-34 -63 -57 -101.5t-35 -54.5q-57 -65 -126 -66q-35 0 -65 13l10 58
q24 -10 51 -10q47 0 74 35q14 17 43 65.5t74 127.5q41 68 69 86q-23 14 -36.5 28t-27.5 40l-14 27l-13 32l-12 30q-23 57 -39 90.5t-26 46.5q-26 32 -70 32q-20 0 -47 -10l-16 55q33 15 65 15q75 0 117 -59q23 -31 73 -153q2 -4 3 -7l2 -6q13 -32 18 -45l18 -33
q16 -29 36 -38t55 -13h17v341h61v-341h17q27 0 46 7.5t34 28.5t23 38l24 55q49 125 71 158q41 63 109 67h14q33 0 65 -15l-15 -55q-27 10 -47 10q-48 0 -71 -32q-11 -16 -27.5 -49.5t-37.5 -87.5q-1 -2 -3.5 -8t-6.5 -17q-8 -20 -11.5 -27.5t-11.5 -24.5t-13.5 -26
t-14.5 -22q-9 -12 -18 -20.5t-20 -14.5q26 -18 65 -83l21 -37q38 -67 63 -107t38 -54q28 -30 70 -30q27 0 50 10z" />
    <glyph glyph-name="uni0417" unicode="&#x417;" horiz-adv-x="586" 
d="M264 -12q-126 0 -240 75l30 51q106 -68 210 -68q89 0 147 44q58 43 58 115q0 31 -11.5 58t-33.5 46.5t-54.5 30.5t-74.5 11h-145v57h111q89 0 139 44q50 45 50 106q0 60 -50 98t-123 38q-107 0 -198 -72l-33 46q45 39 107.5 61.5t126.5 22.5q104 0 168 -55t64 -139
q0 -58 -31.5 -102.5t-97.5 -66.5v-3q72 -13 110 -64t38 -120q0 -95 -74 -155q-74 -59 -193 -59z" />
    <glyph glyph-name="uni0418" unicode="&#x418;" horiz-adv-x="770" 
d="M101 0v739h61v-615l472 615h35v-739h-61v618l-473 -618h-34z" />
    <glyph glyph-name="uni0419" unicode="&#x419;" horiz-adv-x="770" 
d="M389 782q-104 0 -179 91l34 37q33 -39 70 -58t75 -19t75 19t70 58l35 -37q-78 -91 -180 -91zM101 0v739h61v-615l472 615h35v-739h-61v618l-473 -618h-34z" />
    <glyph glyph-name="uni041A" unicode="&#x41a;" horiz-adv-x="625" 
d="M555 0l-287 346l-106 -124v-222h-61v739h61v-432l369 432h74l-296 -349l324 -390h-78z" />
    <glyph glyph-name="uni041B" unicode="&#x41b;" horiz-adv-x="617" 
d="M18 0l275 739h33l273 -739h-68l-221 623l-225 -623h-67z" />
    <glyph glyph-name="uni041C" unicode="&#x41c;" horiz-adv-x="904" 
d="M101 0v739h27l325 -478l322 478h28v-739h-61v588l-282 -418h-15l-283 417v-587h-61z" />
    <glyph glyph-name="uni041D" unicode="&#x41d;" horiz-adv-x="737" 
d="M101 0v739h62v-342h412v342h61v-739h-61v339h-412v-339h-62z" />
    <glyph glyph-name="uni041E" unicode="&#x41e;" 
d="M428 -12q-159 0 -268 111q-110 112 -110 269q0 158 111 271t269 113q157 0 268 -112q112 -112 112 -270t-112 -270q-111 -112 -270 -112zM430 47q133 0 225 93q92 95 92 229q0 135 -92 230q-91 94 -225 94q-133 0 -226 -95q-92 -95 -92 -229t92 -229q91 -93 226 -93z" />
    <glyph glyph-name="uni041F" unicode="&#x41f;" horiz-adv-x="737" 
d="M101 0v739h535v-739h-61v681h-412v-681h-62z" />
    <glyph glyph-name="uni0420" unicode="&#x420;" horiz-adv-x="598" 
d="M329 739q115 0 175 -67q61 -67 61 -159q0 -93 -64 -160q-63 -66 -181 -66h-158v-287h-61v739h228zM321 344q42 0 76 13t57.5 35.5t36 54t12.5 67.5t-12 67t-34 53t-54 34.5t-71 12.5h-170v-337h159z" />
    <glyph glyph-name="uni0421" unicode="&#x421;" horiz-adv-x="785" 
d="M430 -11q-160 0 -269 106q-110 107 -110 272q0 168 111 276q112 109 270 109q102 0 188 -46q87 -45 133 -118l-47 -35q-42 63 -114.5 101.5t-159.5 38.5q-136 0 -228 -92q-91 -91 -91 -233q0 -140 90 -231q91 -90 228 -90q85 0 157.5 36.5t120.5 100.5l44 -36
q-54 -72 -137.5 -115.5t-185.5 -43.5z" />
    <glyph glyph-name="uni0422" unicode="&#x422;" horiz-adv-x="539" 
d="M239 680h-224v59h509v-59h-224v-680h-61v680z" />
    <glyph glyph-name="uni0423" unicode="&#x423;" horiz-adv-x="577" 
d="M117 -12q-34 0 -64 13l6 58q27 -13 55 -13q27 0 50.5 13.5t41.5 37.5t32.5 49.5t30.5 57.5l8 17l-258 517h69l221 -448l194 448h69l-250 -559q-18 -40 -34.5 -68.5t-41.5 -59.5q-25 -30 -58 -46.5t-71 -16.5z" />
    <glyph glyph-name="uni0424" unicode="&#x424;" horiz-adv-x="908" 
d="M484 -80h-61v87q-162 7 -269 110q-105 102 -105 253q0 152 105 253q107 103 269 110v86h61v-86q163 -7 269 -110q106 -100 106 -253q0 -152 -106 -254t-269 -109v-87zM484 64q137 7 225 92q87 85 87 214t-87 213q-86 84 -225 92v-611zM423 675q-137 -8 -225 -93
q-87 -84 -87 -212t87 -213q88 -86 225 -93v611z" />
    <glyph glyph-name="uni0425" unicode="&#x425;" horiz-adv-x="591" 
d="M12 0l248 376l-237 363h72l201 -313l202 313h74l-240 -363l245 -376h-72l-209 323l-210 -323h-74z" />
    <glyph glyph-name="uni0426" unicode="&#x426;" horiz-adv-x="701" 
d="M595 -150v150h-494v739h63v-681h359v681h63v-681h72v-208h-63z" />
    <glyph glyph-name="uni0427" unicode="&#x427;" horiz-adv-x="661" 
d="M498 739h62v-739h-62v278q-96 -43 -202 -43q-117 0 -179 60.5t-62 172.5v271h61v-257q0 -94 43.5 -140t137.5 -46q106 0 201 45v398z" />
    <glyph glyph-name="uni0428" unicode="&#x428;" horiz-adv-x="1074" 
d="M101 0v739h63v-681h341v681h63v-681h342v681h63v-739h-872z" />
    <glyph glyph-name="uni0429" unicode="&#x429;" horiz-adv-x="1087" 
d="M981 -150v150h-880v739h63v-681h341v681h63v-681h342v681h63v-681h71v-208h-63z" />
    <glyph glyph-name="uni042A" unicode="&#x42a;" horiz-adv-x="725" 
d="M434 482q113 0 184 -66q72 -65 72 -179q0 -98 -63 -168q-63 -69 -187 -69h-247v681h-177v58h238v-297q80 40 180 40zM430 58q98 0 147 52q50 53 50 132q0 87 -53 134t-144 47q-103 0 -176 -42v-323h176z" />
    <glyph glyph-name="uni042B" unicode="&#x42b;" horiz-adv-x="878" 
d="M360 454q69 0 119.5 -22.5t76.5 -58.5t38 -73.5t12 -75.5q0 -90 -62 -158q-62 -66 -184 -66h-251v739h61v-285h190zM716 739h61v-739h-61v739zM350 58q91 0 142 47.5t51 123.5q0 75 -49.5 121.5t-136.5 46.5h-187v-339h180z" />
    <glyph glyph-name="uni042C" unicode="&#x42c;" horiz-adv-x="633" 
d="M342 482q113 0 184 -66q72 -65 72 -179q0 -98 -63 -168q-63 -69 -187 -69h-247v739h61v-297q80 40 180 40zM338 58q98 0 147 52q50 53 50 132q0 87 -53 134t-144 47q-103 0 -176 -42v-323h176z" />
    <glyph glyph-name="uni042D" unicode="&#x42d;" horiz-adv-x="790" 
d="M358 752q159 0 269 -109q112 -108 112 -276q0 -165 -110 -272q-109 -106 -269 -106q-102 0 -185.5 43.5t-137.5 115.5l44 36q48 -64 120.5 -100.5t157.5 -36.5q129 0 218 81q89 83 99 211h-443v57h443q-11 131 -100 213q-90 84 -218 84q-87 0 -159.5 -38.5t-114.5 -101.5
l-47 35q46 73 133 118q86 46 188 46z" />
    <glyph glyph-name="uni042E" unicode="&#x42e;" horiz-adv-x="1083" 
d="M653 752q157 0 268 -112q112 -112 112 -270t-112 -270q-111 -112 -270 -112q-151 0 -257 100q-107 101 -120 247h-112v-335h-61v739h61v-346h112q9 152 118 255q110 104 261 104zM653 47q133 0 225 93q92 95 92 229q0 135 -92 230q-91 94 -225 94q-133 0 -226 -95
q-92 -95 -92 -229t92 -229q91 -93 226 -93z" />
    <glyph glyph-name="uni042F" unicode="&#x42f;" horiz-adv-x="628" 
d="M527 739v-739h-61v304q-59 -13 -154 -13h-15l-180 -291h-74l189 299q-87 19 -128.5 77.5t-41.5 138.5q0 94 63 159t185 65h217zM318 349q48 0 84.5 3t63.5 8v321h-152q-91 0 -140 -43.5t-49 -121.5q0 -167 193 -167z" />
    <glyph glyph-name="uni0430" unicode="&#x430;" horiz-adv-x="662" 
d="M522 535h58v-535h-58v104q-34 -55 -89 -86t-122 -31q-114 0 -190 81q-76 82 -76 202q0 118 75 198q77 80 191 80q67 0 122 -30.5t89 -85.5v103zM314 42q93 0 153 66t60 162q0 93 -60 158t-153 65q-92 0 -151 -65q-58 -64 -58 -160q0 -97 58 -161q59 -65 151 -65z" />
    <glyph glyph-name="uni0431" unicode="&#x431;" horiz-adv-x="657" 
d="M350 524q104 0 182 -72q79 -72 79 -195q0 -116 -76 -193q-75 -77 -194 -77q-77 0 -130.5 31t-88 82t-50 116t-15.5 134q0 169 57 247q56 79 185 106l43 8l49 10l41 14q29 10 53 26t51 39l24 -55q-30 -30 -72 -50q-20 -10 -36 -16t-29 -10q-24 -6 -84 -18q-30 -6 -53 -12
t-42 -14t-35 -18.5t-31 -25.5q-30 -29 -44.5 -78.5t-19.5 -127.5q21 52 63 87t85 48.5t88 13.5zM342 42q89 0 148 62q60 61 60 153t-58 151q-58 61 -145 61q-89 0 -153 -59q-62 -59 -62 -148q0 -92 60 -156t150 -64z" />
    <glyph glyph-name="uni0432" unicode="&#x432;" horiz-adv-x="604" 
d="M404 408q64 -12 109 -64q45 -53 45 -133q0 -96 -65 -161q-65 -63 -176 -63q-122 0 -184 77.5t-62 212.5v207q0 128 65 208q66 80 184 80q94 0 150 -55q57 -54 57 -142q0 -27 -8.5 -53.5t-24 -48.5t-38.5 -39t-52 -26zM321 717q-85 0 -137.5 -61t-52.5 -184v-45h171
q73 0 119 43q47 44 47 107t-40 101.5t-107 38.5zM319 42q42 0 75 12.5t56 35.5t35.5 54.5t12.5 69.5q0 75 -48 116.5t-132 41.5h-187v-94q0 -122 52 -179t136 -57z" />
    <glyph glyph-name="uni0433" unicode="&#x433;" horiz-adv-x="486" 
d="M236 -13q-44 0 -80 9t-62.5 27t-41 45.5t-14.5 63.5q0 54 34 89t82 52q35 12 72.5 23.5t69 26t51.5 34.5t20 50q0 39 -32.5 62.5t-95.5 23.5q-79 0 -163 -32l-15 51q87 36 180 36q80 0 136 -35t56 -103q0 -51 -34 -83.5t-82 -48.5q-35 -12 -72.5 -23t-69 -26.5
t-51.5 -37.5t-20 -56q0 -46 35 -69.5t99 -23.5q101 0 193 49l20 -51q-104 -53 -215 -53z" />
    <glyph glyph-name="uni0434" unicode="&#x434;" horiz-adv-x="663" 
d="M522 535h60v-480q0 -140 -77 -211.5t-215 -71.5q-94 0 -197 38l14 52q99 -35 182 -35q112 0 172.5 56t60.5 165v62q-34 -54 -89 -83t-121 -29q-115 0 -191 79t-76 196q0 115 77 195t191 80q66 0 120.5 -28.5t88.5 -80.5v96zM314 53q92 0 152 64q61 64 61 158
q0 93 -61 155q-60 63 -152 63t-150 -63q-59 -64 -59 -157t59 -157q58 -63 150 -63z" />
    <glyph glyph-name="uni0435" unicode="&#x435;" horiz-adv-x="604" 
d="M561 291q0 -11 -3 -47h-450q3 -45 19 -81.5t43.5 -63t66.5 -41t88 -14.5q26 0 53 4.5t53 13t49 20t41 26.5l28 -46q-39 -31 -99 -52.5t-126 -21.5q-74 0 -126.5 24t-86.5 64t-49.5 90t-15.5 103q0 121 73 200t193 79q108 0 178 -70q71 -69 71 -187zM312 493
q-42 0 -77.5 -14t-62 -39.5t-43.5 -61t-21 -79.5h391q0 45 -14 80.5t-39 61t-59 39t-75 13.5z" />
    <glyph glyph-name="uni0436" unicode="&#x436;" horiz-adv-x="821" 
d="M808 2q-30 -11 -58 -11q-27 0 -49.5 8t-37.5 17q-7 5 -15 13.5t-17 21.5t-15.5 22.5t-11.5 17.5l-30 54q-28 51 -49.5 72.5t-51.5 21.5h-34v-241h-57v241h-34q-30 0 -51.5 -21.5t-49.5 -72.5q-13 -23 -22 -39t-16 -27q-13 -21 -34 -45q-22 -25 -46.5 -34t-57.5 -9
q-28 0 -58 11l8 48q21 -7 46 -7q36 0 56 20q19 19 68 100q8 14 14.5 24.5t11.5 18.5q23 41 55 57q-23 11 -40 29q-17 20 -25 37t-19 46q-25 72 -44 95q-18 23 -60 23q-16 0 -43 -6l-12 47q24 10 58 10q66 0 95 -33q30 -35 61 -120q21 -55 43 -77t70 -22h26v243h57v-243h26
q24 0 40.5 5.5t29 17t22.5 30.5t21 46q31 87 60 120q28 33 96 33q33 0 57 -10l-11 -47q-27 6 -43 6q-42 0 -60 -23q-19 -23 -44 -95q-5 -14 -10 -26t-9 -20q-8 -17 -25.5 -36.5t-39.5 -29.5q32 -16 55 -57q70 -117 84 -134q27 -27 66 -29q25 0 46 7z" />
    <glyph glyph-name="uni0437" unicode="&#x437;" horiz-adv-x="540" 
d="M249 -227q-120 0 -227 79l28 46q94 -70 196 -70q86 0 139 45q53 44 53 117q0 33 -11 61t-33 48.5t-53.5 32t-71.5 11.5h-141v55h97q91 0 144 47q52 46 52 110q0 61 -47 99q-47 39 -119 39q-102 0 -185 -74l-34 42q45 39 103 63t121 24q97 0 158 -55q63 -56 63 -138
q0 -60 -34.5 -106.5t-100.5 -68.5v-3q36 -6 64 -24t47.5 -43.5t30 -57t10.5 -66.5q0 -93 -69 -153t-180 -60z" />
    <glyph glyph-name="uni0438" unicode="&#x438;" horiz-adv-x="618" 
d="M537 535v-535h-57v97q-12 -24 -32 -44.5t-46 -35t-56.5 -22.5t-63.5 -8q-45 0 -83 13.5t-65.5 40.5t-43 68.5t-15.5 97.5v328h60v-326q0 -81 39 -123.5t112 -42.5q78 0 134 49q57 49 57 150v293h60z" />
    <glyph glyph-name="uni0439" unicode="&#x439;" horiz-adv-x="618" 
d="M311 577q-101 0 -171 88l32 35q31 -37 67 -55.5t72 -18.5t71.5 18.5t67.5 55.5l34 -35q-75 -88 -173 -88zM537 535v-535h-57v97q-12 -24 -32 -44.5t-46 -35t-56.5 -22.5t-63.5 -8q-45 0 -83 13.5t-65.5 40.5t-43 68.5t-15.5 97.5v328h60v-326q0 -81 39 -123.5t112 -42.5
q78 0 134 49q57 49 57 150v293h60z" />
    <glyph glyph-name="uni043A" unicode="&#x43a;" horiz-adv-x="508" 
d="M434 0l-230 279l-63 -56v-223h-60v755h60v-459l267 239h81l-243 -218l266 -317h-78z" />
    <glyph glyph-name="uni043B" unicode="&#x43b;" horiz-adv-x="546" 
d="M15 0l242 535h34l240 -535h-66l-191 437l-194 -437h-65z" />
    <glyph glyph-name="uni043C" unicode="&#x43c;" horiz-adv-x="756" 
d="M81 0v535h33l265 -344l263 344h33v-535h-60v409l-228 -299h-16l-230 298v-408h-60z" />
    <glyph glyph-name="uni043D" unicode="&#x43d;" horiz-adv-x="595" 
d="M454 535h60v-535h-60v250h-313v-250h-60v535h60v-232h313v232z" />
    <glyph glyph-name="uni043E" unicode="&#x43e;" horiz-adv-x="646" 
d="M45 268q0 119 79 199q79 81 199 81q119 0 199 -81q79 -80 79 -199q0 -120 -79 -200q-80 -81 -199 -81q-120 0 -199 81q-79 80 -79 200zM323 42q94 0 156 65q62 67 62 161q0 95 -62 160t-156 65q-93 0 -156 -66q-62 -65 -62 -159t62 -161q63 -65 156 -65z" />
    <glyph glyph-name="uni043F" unicode="&#x43f;" horiz-adv-x="612" 
d="M81 0v535h58v-94q24 54 72 81t114 27q89 0 151 -59q61 -58 61 -167v-323h-60v312q0 85 -42 133t-117 48q-71 0 -124 -49q-53 -48 -53 -144v-300h-60z" />
    <glyph glyph-name="uni0440" unicode="&#x440;" horiz-adv-x="666" 
d="M355 549q114 0 190 -82q76 -80 76 -199t-76 -199q-77 -81 -190 -81q-69 0 -124.5 31t-89.5 88v-327h-60v755h60v-109q34 58 89.5 90.5t124.5 32.5zM352 43q91 0 150 65t59 160t-59 160t-150 65q-93 0 -153 -66t-60 -161q0 -94 60 -158q60 -65 153 -65z" />
    <glyph glyph-name="uni0441" unicode="&#x441;" horiz-adv-x="595" 
d="M319 -12q-120 0 -196 78q-77 80 -77 201q0 122 78 202q79 79 201 79q79 0 143.5 -37t95.5 -101l-49 -28q-27 51 -78 81t-112 30q-96 0 -157 -64q-62 -64 -62 -162t60 -161t153 -63q30 0 59 8t54.5 23t46 35.5t33.5 44.5l49 -30q-31 -61 -98 -99q-65 -37 -144 -37z" />
    <glyph glyph-name="uni0442" unicode="&#x442;" horiz-adv-x="954" 
d="M675 549q90 0 147 -57q58 -57 58 -159v-333h-60v328q0 78 -40 121.5t-107 43.5q-63 0 -113 -44q-49 -43 -49 -129v-320h-60v321q0 79 -39.5 125.5t-106.5 46.5q-65 0 -115 -47q-49 -46 -49 -145v-301h-60v535h59v-90q22 49 67 76.5t102 27.5q58 0 105 -29.5t69 -86.5
q25 57 77 86.5t115 29.5z" />
    <glyph glyph-name="uni0443" unicode="&#x443;" horiz-adv-x="531" 
d="M447 535h66l-226 -575q-20 -51 -39.5 -86.5t-41.5 -58t-47 -32.5t-55 -10q-43 0 -77 19l9 53q35 -16 66 -16q42 0 72 34t56 103l13 34l-228 535h66l191 -457z" />
    <glyph glyph-name="uni0444" unicode="&#x444;" horiz-adv-x="791" 
d="M746 267q0 -124 -88 -199q-88 -74 -235 -79v-212h-56v212q-148 3 -235 78q-87 76 -87 201t88 201t234 79v207h56v-207q147 -5 234 -80q89 -77 89 -201zM103 269q0 -53 18.5 -94.5t53 -70.5t83.5 -45.5t109 -17.5v454q-61 -2 -110 -18t-83 -45t-52.5 -70.5t-18.5 -92.5z
M423 41q60 1 109 17t83.5 45.5t53.5 71t19 94.5q0 51 -18.5 92.5t-52.5 70.5t-83.5 45t-110.5 18v-454z" />
    <glyph glyph-name="uni0445" unicode="&#x445;" horiz-adv-x="475" 
d="M457 0h-70l-150 225l-151 -225h-72l189 276l-174 259h71l139 -212l143 212h71l-180 -262z" />
    <glyph glyph-name="uni0446" unicode="&#x446;" horiz-adv-x="656" 
d="M537 119q0 -26 6.5 -41.5t20.5 -24t35.5 -11.5t51.5 -3v-219h-57v171q-48 0 -80.5 26.5t-32.5 80.5q-22 -48 -78 -80q-55 -31 -121 -31q-45 0 -83 13.5t-65.5 40.5t-43 68.5t-15.5 97.5v328h60v-326q0 -81 39 -123.5t112 -42.5q78 0 134 49q57 49 57 150v293h60v-416z
" />
    <glyph glyph-name="uni0447" unicode="&#x447;" horiz-adv-x="547" 
d="M405 535h60v-535h-60v199q-81 -28 -161 -28q-200 0 -200 201v163h60v-157q0 -79 34.5 -115.5t109.5 -36.5q81 0 157 29v280z" />
    <glyph glyph-name="uni0448" unicode="&#x448;" horiz-adv-x="954" 
d="M813 535h60v-535h-57v97q-11 -24 -29 -44.5t-42 -35t-51.5 -22.5t-57.5 -8q-60 0 -106.5 29.5t-65.5 89.5q-12 -29 -31.5 -51t-45 -37t-55.5 -23t-61 -8q-86 0 -141 54q-55 55 -55 170v324h60v-318q0 -87 36 -130.5t105 -43.5t118 49q50 50 50 150v293h60v-326
q0 -79 37 -122.5t104 -43.5q68 0 118 50t50 149v293z" />
    <glyph glyph-name="uni0449" unicode="&#x449;" horiz-adv-x="989" 
d="M873 119q0 -26 6.5 -41.5t20.5 -24t35 -11.5t51 -3v-219h-57v171q-48 0 -79.5 25.5t-32.5 77.5q-10 -24 -28.5 -43.5t-42.5 -34t-52.5 -22t-59.5 -7.5q-60 0 -105.5 29.5t-64.5 89.5q-12 -29 -31.5 -51t-45 -37t-55.5 -23t-61 -8q-86 0 -141 54q-55 55 -55 170v324h60
v-318q0 -87 36 -130.5t105 -43.5t118 49q50 50 50 150v293h60v-326q0 -79 37 -122.5t103 -43.5q68 0 118 50q51 49 51 149v293h60v-416z" />
    <glyph glyph-name="uni044A" unicode="&#x44a;" horiz-adv-x="630" 
d="M377 418q96 0 156 -62q61 -61 61 -156q0 -91 -59 -153q-59 -60 -161 -60q-54 0 -95 17.5t-64 42.5q-35 43 -47.5 93.5t-10.5 92.5v246h-143v56h203v-172q67 55 160 55zM374 42q75 0 117.5 44.5t42.5 116.5t-43 116t-118 44q-97 0 -156 -65v-75q0 -30 7 -62t24.5 -58.5
t48 -43.5t77.5 -17z" />
    <glyph glyph-name="uni044B" unicode="&#x44b;" horiz-adv-x="733" 
d="M310 337q57 0 95.5 -16t61 -41t32 -55t9.5 -57q0 -69 -50 -119q-49 -49 -148 -49h-229v535h60v-198h169zM591 535h60v-535h-60v535zM302 53q72 0 109 32t37 86q0 49 -36 80.5t-103 31.5h-168v-230h161z" />
    <glyph glyph-name="uni044C" unicode="&#x44c;" horiz-adv-x="546" 
d="M293 418q95 0 157 -62q61 -61 61 -156q0 -91 -59 -153q-59 -60 -162 -60q-54 0 -95 17.5t-63 42.5q-35 43 -47.5 93.5t-10.5 92.5v302h60v-171q69 54 159 54zM291 42q36 0 65.5 12t50.5 33.5t32 51t11 64.5q0 36 -11.5 65.5t-32.5 50.5t-50.5 32.5t-65.5 11.5
q-96 0 -156 -64v-76q0 -30 7 -62t24.5 -58.5t48 -43.5t77.5 -17z" />
    <glyph glyph-name="uni044D" unicode="&#x44d;" horiz-adv-x="599" 
d="M277 548q119 0 197 -79q79 -79 79 -202q0 -121 -77 -201q-77 -78 -194 -78q-81 0 -146 36.5t-98 99.5l49 30q13 -24 33.5 -44.5t46 -35t55 -23t60.5 -8.5q85 0 143 55q60 57 67 143h-283v55h282q-9 88 -69 142q-59 55 -146 55q-63 0 -114 -30t-77 -81l-50 28
q31 64 96 101t146 37z" />
    <glyph glyph-name="uni044E" unicode="&#x44e;" horiz-adv-x="830" 
d="M507 548q119 0 199 -81q79 -80 79 -199q0 -120 -79 -200q-80 -81 -199 -81q-114 0 -191 73q-77 74 -86 183h-89v-243h-60v755h60v-459h89q10 108 87 180q78 72 190 72zM725 268q0 94 -63 159q-62 66 -155 66t-156 -66q-62 -65 -62 -159t62 -161q63 -65 156 -65t155 65
q63 66 63 161z" />
    <glyph glyph-name="uni044F" unicode="&#x44f;" horiz-adv-x="542" 
d="M460 535v-535h-60v217q-59 -9 -142 -9h-8l-142 -208h-70l150 215q-66 15 -99 57t-33 99q0 35 13 65t38.5 52t64 34.5t89.5 12.5h199zM267 260q42 0 74.5 2t58.5 6v214h-139q-70 0 -108 -28t-38 -82q0 -112 152 -112z" />
    <glyph glyph-name="uni0451" unicode="&#x451;" horiz-adv-x="604" 
d="M170 652q0 21 16 37t39 16t38.5 -16t15.5 -37q0 -23 -15.5 -39t-38.5 -16t-39 16t-16 39zM354 652q0 21 16 37t39 16t39 -16t16 -37q0 -23 -16 -39t-39 -16t-39 16t-16 39zM561 291q0 -11 -3 -47h-450q3 -45 19 -81.5t43.5 -63t66.5 -41t88 -14.5q26 0 53 4.5t53 13
t49 20t41 26.5l28 -46q-39 -31 -99 -52.5t-126 -21.5q-74 0 -126.5 24t-86.5 64t-49.5 90t-15.5 103q0 121 73 200t193 79q108 0 178 -70q71 -69 71 -187zM312 493q-42 0 -77.5 -14t-62 -39.5t-43.5 -61t-21 -79.5h391q0 45 -14 80.5t-39 61t-59 39t-75 13.5z" />
    <glyph glyph-name="Wgrave" unicode="&#x1e80;" horiz-adv-x="1010" 
d="M533 795h-51l-85 160h77zM263 0l-247 739h62l201 -618l212 618h27l215 -617l199 617h61l-245 -739h-30l-213 622l-212 -622h-30z" />
    <glyph glyph-name="wgrave" unicode="&#x1e81;" horiz-adv-x="814" 
d="M436 620h-51l-85 160h77zM204 1l-188 534h62l149 -440l160 440l40 -1l162 -439l146 440h63l-187 -534h-42l-162 449l-161 -449h-42z" />
    <glyph glyph-name="Wacute" unicode="&#x1e82;" horiz-adv-x="1010" 
d="M487 796l59 160h77l-85 -160h-51zM263 0l-247 739h62l201 -618l212 618h27l215 -617l199 617h61l-245 -739h-30l-213 622l-212 -622h-30z" />
    <glyph glyph-name="wacute" unicode="&#x1e83;" horiz-adv-x="814" 
d="M383 621l59 160h77l-85 -160h-51zM204 1l-188 534h62l149 -440l160 440l40 -1l162 -439l146 440h63l-187 -534h-42l-162 449l-161 -449h-42z" />
    <glyph glyph-name="Wdieresis" unicode="&#x1e84;" horiz-adv-x="1010" 
d="M365 862q0 20 15.5 35.5t36.5 15.5q22 0 37 -15t15 -36q0 -23 -15 -38t-37 -15t-37 15.5t-15 37.5zM593 809q-22 0 -37 15t-15 38q0 21 15 36t37 15t37.5 -15t15.5 -36q0 -22 -15 -37.5t-38 -15.5zM263 0l-247 739h62l201 -618l212 618h27l215 -617l199 617h61l-245 -739
h-30l-213 622l-212 -622h-30z" />
    <glyph glyph-name="wdieresis" unicode="&#x1e85;" horiz-adv-x="814" 
d="M260 680q0 21 16 37t39 16t38.5 -16t15.5 -37q0 -23 -15.5 -39t-38.5 -16t-39 16t-16 39zM444 680q0 21 16 37t39 16t39 -16t16 -37q0 -23 -16 -39t-39 -16t-39 16t-16 39zM204 1l-188 534h62l149 -440l160 440l40 -1l162 -439l146 440h63l-187 -534h-42l-162 449
l-161 -449h-42z" />
    <glyph glyph-name="uni1EA0" unicode="&#x1ea0;" horiz-adv-x="652" 
d="M569 0l-88 224h-311l-88 -224h-67l295 739h33l293 -739h-67zM326 630l-136 -349h271zM328 -180q-22 0 -37 14.5t-15 36.5t15 36.5t37 14.5q21 0 36 -14.5t15 -36.5t-15 -36.5t-36 -14.5z" />
    <glyph glyph-name="uni1EA1" unicode="&#x1ea1;" horiz-adv-x="662" 
d="M522 535h58v-535h-58v104q-34 -55 -89 -86t-122 -31q-114 0 -190 81q-76 82 -76 202q0 118 75 198q77 80 191 80q67 0 122 -30.5t89 -85.5v103zM314 42q93 0 153 66t60 162q0 93 -60 158t-153 65q-92 0 -151 -65q-58 -64 -58 -160q0 -97 58 -161q59 -65 151 -65z
M333 -180q-22 0 -37 14.5t-15 36.5t15 36.5t37 14.5q21 0 36 -14.5t15 -36.5t-15 -36.5t-36 -14.5z" />
    <glyph glyph-name="uni1EA2" unicode="&#x1ea2;" horiz-adv-x="652" 
d="M569 0l-88 224h-311l-88 -224h-67l295 739h33l293 -739h-67zM326 630l-136 -349h271zM305 796q-2 0 -2 7.5t3 18t9.5 22.5t18.5 22q16 13 28 26.5t12 31.5q0 20 -14.5 31.5t-34.5 11.5q-29 0 -64 -40l-34 33q21 25 46.5 39.5t51.5 14.5q19 0 36.5 -6.5t31 -18t22 -28
t8.5 -37.5q0 -38 -48 -82q-12 -11 -19 -20t-7 -26h-44z" />
    <glyph glyph-name="uni1EA3" unicode="&#x1ea3;" horiz-adv-x="662" 
d="M522 535h58v-535h-58v104q-34 -55 -89 -86t-122 -31q-114 0 -190 81q-76 82 -76 202q0 118 75 198q77 80 191 80q67 0 122 -30.5t89 -85.5v103zM314 42q93 0 153 66t60 162q0 93 -60 158t-153 65q-92 0 -151 -65q-58 -64 -58 -160q0 -97 58 -161q59 -65 151 -65zM310 621
q-2 0 -2 7.5t3 18t9.5 22.5t18.5 22q16 13 28 26.5t12 31.5q0 20 -14.5 31.5t-34.5 11.5q-29 0 -64 -40l-34 33q21 25 46.5 39.5t51.5 14.5q19 0 36.5 -6.5t31 -18t22 -28t8.5 -37.5q0 -38 -48 -82q-12 -11 -19 -20t-7 -26h-44z" />
    <glyph glyph-name="uni1EA4" unicode="&#x1ea4;" horiz-adv-x="652" 
d="M326 899l-92 -104h-64l138 155h37l138 -155h-65zM569 0l-88 224h-311l-88 -224h-67l295 739h33l293 -739h-67zM326 630l-136 -349h271zM448 916l59 160h77l-85 -160h-51z" />
    <glyph glyph-name="uni1EA5" unicode="&#x1ea5;" horiz-adv-x="662" 
d="M324 724l-92 -104h-64l138 155h37l138 -155h-65zM522 535h58v-535h-58v104q-34 -55 -89 -86t-122 -31q-114 0 -190 81q-76 82 -76 202q0 118 75 198q77 80 191 80q67 0 122 -30.5t89 -85.5v103zM314 42q93 0 153 66t60 162q0 93 -60 158t-153 65q-92 0 -151 -65
q-58 -64 -58 -160q0 -97 58 -161q59 -65 151 -65zM455 740l59 160h77l-85 -160h-51z" />
    <glyph glyph-name="uni1EA6" unicode="&#x1ea6;" horiz-adv-x="652" 
d="M326 899l-92 -104h-64l138 155h37l138 -155h-65zM569 0l-88 224h-311l-88 -224h-67l295 739h33l293 -739h-67zM326 630l-136 -349h271zM517 916h-51l-85 160h77z" />
    <glyph glyph-name="uni1EA7" unicode="&#x1ea7;" horiz-adv-x="662" 
d="M324 724l-92 -104h-64l138 155h37l138 -155h-65zM522 535h58v-535h-58v104q-34 -55 -89 -86t-122 -31q-114 0 -190 81q-76 82 -76 202q0 118 75 198q77 80 191 80q67 0 122 -30.5t89 -85.5v103zM314 42q93 0 153 66t60 162q0 93 -60 158t-153 65q-92 0 -151 -65
q-58 -64 -58 -160q0 -97 58 -161q59 -65 151 -65zM515 740h-51l-85 160h77z" />
    <glyph glyph-name="uni1EA8" unicode="&#x1ea8;" horiz-adv-x="652" 
d="M326 899l-92 -104h-64l138 155h37l138 -155h-65zM569 0l-88 224h-311l-88 -224h-67l295 739h33l293 -739h-67zM326 630l-136 -349h271zM485 880q-2 0 -2 7.5t3 18t9.5 22.5t18.5 22q16 13 28 26.5t12 31.5q0 20 -14.5 31.5t-34.5 11.5q-29 0 -64 -40l-34 33
q21 25 46.5 39.5t51.5 14.5q19 0 36.5 -6.5t31 -18t22 -28t8.5 -37.5q0 -38 -48 -82q-12 -11 -19 -20t-7 -26h-44z" />
    <glyph glyph-name="uni1EA9" unicode="&#x1ea9;" horiz-adv-x="662" 
d="M324 724l-92 -104h-64l138 155h37l138 -155h-65zM522 535h58v-535h-58v104q-34 -55 -89 -86t-122 -31q-114 0 -190 81q-76 82 -76 202q0 118 75 198q77 80 191 80q67 0 122 -30.5t89 -85.5v103zM314 42q93 0 153 66t60 162q0 93 -60 158t-153 65q-92 0 -151 -65
q-58 -64 -58 -160q0 -97 58 -161q59 -65 151 -65zM483 730q-2 0 -2 7.5t3 18t9.5 22.5t18.5 22q16 13 28 26.5t12 31.5q0 20 -14.5 31.5t-34.5 11.5q-29 0 -64 -40l-34 33q21 25 46.5 39.5t51.5 14.5q19 0 36.5 -6.5t31 -18t22 -28t8.5 -37.5q0 -38 -48 -82q-12 -11 -19 -20
t-7 -26h-44z" />
    <glyph glyph-name="uni1EAA" unicode="&#x1eaa;" horiz-adv-x="652" 
d="M326 899l-92 -104h-64l138 155h37l138 -155h-65zM569 0l-88 224h-311l-88 -224h-67l295 739h33l293 -739h-67zM326 630l-136 -349h271zM152 996q11 39 40.5 63.5t67.5 24.5q34 0 74 -28t62 -28t39 16t25 37l39 -17q-11 -39 -39 -63.5t-66 -24.5q-35 0 -75 27
q-40 28 -61 28q-44 0 -67 -53z" />
    <glyph glyph-name="uni1EAB" unicode="&#x1eab;" horiz-adv-x="662" 
d="M324 724l-92 -104h-64l138 155h37l138 -155h-65zM522 535h58v-535h-58v104q-34 -55 -89 -86t-122 -31q-114 0 -190 81q-76 82 -76 202q0 118 75 198q77 80 191 80q67 0 122 -30.5t89 -85.5v103zM314 42q93 0 153 66t60 162q0 93 -60 158t-153 65q-92 0 -151 -65
q-58 -64 -58 -160q0 -97 58 -161q59 -65 151 -65zM167 824q11 37 38.5 60t63.5 23q31 0 69 -27q40 -26 59 -26q20 0 37 15t24 35l36 -16q-10 -37 -37 -60t-62 -23q-32 0 -70 26t-58 26q-40 0 -63 -50z" />
    <glyph glyph-name="uni1EAC" unicode="&#x1eac;" horiz-adv-x="652" 
d="M328 -180q-22 0 -37 14.5t-15 36.5t15 36.5t37 14.5q21 0 36 -14.5t15 -36.5t-15 -36.5t-36 -14.5zM326 899l-92 -104h-64l138 155h37l138 -155h-65zM569 0l-88 224h-311l-88 -224h-67l295 739h33l293 -739h-67zM326 630l-136 -349h271z" />
    <glyph glyph-name="uni1EAD" unicode="&#x1ead;" horiz-adv-x="662" 
d="M333 -180q-22 0 -37 14.5t-15 36.5t15 36.5t37 14.5q21 0 36 -14.5t15 -36.5t-15 -36.5t-36 -14.5zM324 724l-92 -104h-64l138 155h37l138 -155h-65zM522 535h58v-535h-58v104q-34 -55 -89 -86t-122 -31q-114 0 -190 81q-76 82 -76 202q0 118 75 198q77 80 191 80
q67 0 122 -30.5t89 -85.5v103zM314 42q93 0 153 66t60 162q0 93 -60 158t-153 65q-92 0 -151 -65q-58 -64 -58 -160q0 -97 58 -161q59 -65 151 -65z" />
    <glyph glyph-name="uni1EAE" unicode="&#x1eae;" horiz-adv-x="652" 
d="M232 935q1 -51 26.5 -74.5t68.5 -23.5q45 0 70 23.5t25 74.5h49q-1 -64 -39.5 -102t-104.5 -38t-103.5 38t-38.5 102h47zM569 0l-88 224h-311l-88 -224h-67l295 739h33l293 -739h-67zM326 630l-136 -349h271zM289 916l59 160h77l-85 -160h-51z" />
    <glyph glyph-name="uni1EAF" unicode="&#x1eaf;" horiz-adv-x="662" 
d="M522 535h58v-535h-58v104q-34 -55 -89 -86t-122 -31q-114 0 -190 81q-76 82 -76 202q0 118 75 198q77 80 191 80q67 0 122 -30.5t89 -85.5v103zM314 42q93 0 153 66t60 162q0 93 -60 158t-153 65q-92 0 -151 -65q-58 -64 -58 -160q0 -97 58 -161q59 -65 151 -65zM224 756
q1 -51 26.5 -74.5t68.5 -23.5q45 0 70 23.5t25 74.5h49q-1 -64 -39.5 -102t-104.5 -38t-103.5 38t-38.5 102h47zM286 770l59 160h77l-85 -160h-51z" />
    <glyph glyph-name="uni1EB0" unicode="&#x1eb0;" horiz-adv-x="652" 
d="M232 935q1 -51 26.5 -74.5t68.5 -23.5q45 0 70 23.5t25 74.5h49q-1 -64 -39.5 -102t-104.5 -38t-103.5 38t-38.5 102h47zM569 0l-88 224h-311l-88 -224h-67l295 739h33l293 -739h-67zM326 630l-136 -349h271zM364 916h-51l-85 160h77z" />
    <glyph glyph-name="uni1EB1" unicode="&#x1eb1;" horiz-adv-x="662" 
d="M522 535h58v-535h-58v104q-34 -55 -89 -86t-122 -31q-114 0 -190 81q-76 82 -76 202q0 118 75 198q77 80 191 80q67 0 122 -30.5t89 -85.5v103zM314 42q93 0 153 66t60 162q0 93 -60 158t-153 65q-92 0 -151 -65q-58 -64 -58 -160q0 -97 58 -161q59 -65 151 -65zM224 756
q1 -51 26.5 -74.5t68.5 -23.5q45 0 70 23.5t25 74.5h49q-1 -64 -39.5 -102t-104.5 -38t-103.5 38t-38.5 102h47zM359 770h-51l-85 160h77z" />
    <glyph glyph-name="uni1EB2" unicode="&#x1eb2;" horiz-adv-x="652" 
d="M232 935q1 -51 26.5 -74.5t68.5 -23.5q45 0 70 23.5t25 74.5h49q-1 -64 -39.5 -102t-104.5 -38t-103.5 38t-38.5 102h47zM569 0l-88 224h-311l-88 -224h-67l295 739h33l293 -739h-67zM326 630l-136 -349h271zM305 930q-2 0 -2 7.5t3 18t9.5 22.5t18.5 22q16 13 28 26.5
t12 31.5q0 20 -14.5 31.5t-34.5 11.5q-29 0 -64 -40l-34 33q21 25 46.5 39.5t51.5 14.5q19 0 36.5 -6.5t31 -18t22 -28t8.5 -37.5q0 -38 -48 -82q-12 -11 -19 -20t-7 -26h-44z" />
    <glyph glyph-name="uni1EB3" unicode="&#x1eb3;" horiz-adv-x="662" 
d="M522 535h58v-535h-58v104q-34 -55 -89 -86t-122 -31q-114 0 -190 81q-76 82 -76 202q0 118 75 198q77 80 191 80q67 0 122 -30.5t89 -85.5v103zM314 42q93 0 153 66t60 162q0 93 -60 158t-153 65q-92 0 -151 -65q-58 -64 -58 -160q0 -97 58 -161q59 -65 151 -65zM224 756
q1 -51 26.5 -74.5t68.5 -23.5q45 0 70 23.5t25 74.5h49q-1 -64 -39.5 -102t-104.5 -38t-103.5 38t-38.5 102h47zM297 760q-2 0 -2 7.5t3 18t9.5 22.5t18.5 22q16 13 28 26.5t12 31.5q0 20 -14.5 31.5t-34.5 11.5q-29 0 -64 -40l-34 33q21 25 46.5 39.5t51.5 14.5
q19 0 36.5 -6.5t31 -18t22 -28t8.5 -37.5q0 -38 -48 -82q-12 -11 -19 -20t-7 -26h-44z" />
    <glyph glyph-name="uni1EB4" unicode="&#x1eb4;" horiz-adv-x="652" 
d="M232 935q1 -51 26.5 -74.5t68.5 -23.5q45 0 70 23.5t25 74.5h49q-1 -64 -39.5 -102t-104.5 -38t-103.5 38t-38.5 102h47zM569 0l-88 224h-311l-88 -224h-67l295 739h33l293 -739h-67zM326 630l-136 -349h271zM152 996q11 39 40.5 63.5t67.5 24.5q34 0 74 -28t62 -28
t39 16t25 37l39 -17q-11 -39 -39 -63.5t-66 -24.5q-35 0 -75 27q-40 28 -61 28q-44 0 -67 -53z" />
    <glyph glyph-name="uni1EB5" unicode="&#x1eb5;" horiz-adv-x="662" 
d="M522 535h58v-535h-58v104q-34 -55 -89 -86t-122 -31q-114 0 -190 81q-76 82 -76 202q0 118 75 198q77 80 191 80q67 0 122 -30.5t89 -85.5v103zM314 42q93 0 153 66t60 162q0 93 -60 158t-153 65q-92 0 -151 -65q-58 -64 -58 -160q0 -97 58 -161q59 -65 151 -65zM224 756
q1 -51 26.5 -74.5t68.5 -23.5q45 0 70 23.5t25 74.5h49q-1 -64 -39.5 -102t-104.5 -38t-103.5 38t-38.5 102h47zM167 824q11 37 38.5 60t63.5 23q31 0 69 -27q40 -26 59 -26q20 0 37 15t24 35l36 -16q-10 -37 -37 -60t-62 -23q-32 0 -70 26t-58 26q-40 0 -63 -50z" />
    <glyph glyph-name="uni1EB6" unicode="&#x1eb6;" horiz-adv-x="652" 
d="M328 -180q-22 0 -37 14.5t-15 36.5t15 36.5t37 14.5q21 0 36 -14.5t15 -36.5t-15 -36.5t-36 -14.5zM232 935q1 -51 26.5 -74.5t68.5 -23.5q45 0 70 23.5t25 74.5h49q-1 -64 -39.5 -102t-104.5 -38t-103.5 38t-38.5 102h47zM569 0l-88 224h-311l-88 -224h-67l295 739h33
l293 -739h-67zM326 630l-136 -349h271z" />
    <glyph glyph-name="uni1EB7" unicode="&#x1eb7;" horiz-adv-x="662" 
d="M333 -180q-22 0 -37 14.5t-15 36.5t15 36.5t37 14.5q21 0 36 -14.5t15 -36.5t-15 -36.5t-36 -14.5zM522 535h58v-535h-58v104q-34 -55 -89 -86t-122 -31q-114 0 -190 81q-76 82 -76 202q0 118 75 198q77 80 191 80q67 0 122 -30.5t89 -85.5v103zM314 42q93 0 153 66
t60 162q0 93 -60 158t-153 65q-92 0 -151 -65q-58 -64 -58 -160q0 -97 58 -161q59 -65 151 -65zM224 756q1 -51 26.5 -74.5t68.5 -23.5q45 0 70 23.5t25 74.5h49q-1 -64 -39.5 -102t-104.5 -38t-103.5 38t-38.5 102h47z" />
    <glyph glyph-name="uni1EB8" unicode="&#x1eb8;" horiz-adv-x="601" 
d="M101 0v739h445v-58h-384v-278h358v-57h-358v-288h386v-58h-447zM303 -180q-22 0 -37 14.5t-15 36.5t15 36.5t37 14.5q21 0 36 -14.5t15 -36.5t-15 -36.5t-36 -14.5z" />
    <glyph glyph-name="uni1EB9" unicode="&#x1eb9;" horiz-adv-x="604" 
d="M561 291q0 -11 -3 -47h-450q3 -45 19 -81.5t43.5 -63t66.5 -41t88 -14.5q26 0 53 4.5t53 13t49 20t41 26.5l28 -46q-39 -31 -99 -52.5t-126 -21.5q-74 0 -126.5 24t-86.5 64t-49.5 90t-15.5 103q0 121 73 200t193 79q108 0 178 -70q71 -69 71 -187zM312 493
q-42 0 -77.5 -14t-62 -39.5t-43.5 -61t-21 -79.5h391q0 45 -14 80.5t-39 61t-59 39t-75 13.5zM304 -180q-22 0 -37 14.5t-15 36.5t15 36.5t37 14.5q21 0 36 -14.5t15 -36.5t-15 -36.5t-36 -14.5z" />
    <glyph glyph-name="uni1EBA" unicode="&#x1eba;" horiz-adv-x="601" 
d="M101 0v739h445v-58h-384v-278h358v-57h-358v-288h386v-58h-447zM279 796q-2 0 -2 7.5t3 18t9.5 22.5t18.5 22q16 13 28 26.5t12 31.5q0 20 -14.5 31.5t-34.5 11.5q-29 0 -64 -40l-34 33q21 25 46.5 39.5t51.5 14.5q19 0 36.5 -6.5t31 -18t22 -28t8.5 -37.5q0 -38 -48 -82
q-12 -11 -19 -20t-7 -26h-44z" />
    <glyph glyph-name="uni1EBB" unicode="&#x1ebb;" horiz-adv-x="604" 
d="M561 291q0 -11 -3 -47h-450q3 -45 19 -81.5t43.5 -63t66.5 -41t88 -14.5q26 0 53 4.5t53 13t49 20t41 26.5l28 -46q-39 -31 -99 -52.5t-126 -21.5q-74 0 -126.5 24t-86.5 64t-49.5 90t-15.5 103q0 121 73 200t193 79q108 0 178 -70q71 -69 71 -187zM312 493
q-42 0 -77.5 -14t-62 -39.5t-43.5 -61t-21 -79.5h391q0 45 -14 80.5t-39 61t-59 39t-75 13.5zM281 621q-2 0 -2 7.5t3 18t9.5 22.5t18.5 22q16 13 28 26.5t12 31.5q0 20 -14.5 31.5t-34.5 11.5q-29 0 -64 -40l-34 33q21 25 46.5 39.5t51.5 14.5q19 0 36.5 -6.5t31 -18
t22 -28t8.5 -37.5q0 -38 -48 -82q-12 -11 -19 -20t-7 -26h-44z" />
    <glyph glyph-name="uni1EBC" unicode="&#x1ebc;" horiz-adv-x="601" 
d="M101 0v739h445v-58h-384v-278h358v-57h-358v-288h386v-58h-447zM141 828q11 39 40.5 63.5t67.5 24.5q34 0 74 -28t62 -28t39 16t25 37l39 -17q-11 -39 -39 -63.5t-66 -24.5q-35 0 -75 27q-40 28 -61 28q-44 0 -67 -53z" />
    <glyph glyph-name="uni1EBD" unicode="&#x1ebd;" horiz-adv-x="604" 
d="M561 291q0 -11 -3 -47h-450q3 -45 19 -81.5t43.5 -63t66.5 -41t88 -14.5q26 0 53 4.5t53 13t49 20t41 26.5l28 -46q-39 -31 -99 -52.5t-126 -21.5q-74 0 -126.5 24t-86.5 64t-49.5 90t-15.5 103q0 121 73 200t193 79q108 0 178 -70q71 -69 71 -187zM312 493
q-42 0 -77.5 -14t-62 -39.5t-43.5 -61t-21 -79.5h391q0 45 -14 80.5t-39 61t-59 39t-75 13.5zM138 647q11 37 38.5 60t63.5 23q31 0 69 -27q40 -26 59 -26q20 0 37 15t24 35l36 -16q-10 -37 -37 -60t-62 -23q-32 0 -70 26t-58 26q-40 0 -63 -50z" />
    <glyph glyph-name="uni1EBE" unicode="&#x1ebe;" horiz-adv-x="601" 
d="M161 795l138 155h37l138 -155h-65l-92 104l-92 -104h-64zM101 0v739h445v-58h-384v-278h358v-57h-358v-288h386v-58h-447zM441 916l59 160h77l-85 -160h-51z" />
    <glyph glyph-name="uni1EBF" unicode="&#x1ebf;" horiz-adv-x="604" 
d="M309 725l-92 -104h-64l138 155h37l138 -155h-65zM561 291q0 -11 -3 -47h-450q3 -45 19 -81.5t43.5 -63t66.5 -41t88 -14.5q26 0 53 4.5t53 13t49 20t41 26.5l28 -46q-39 -31 -99 -52.5t-126 -21.5q-74 0 -126.5 24t-86.5 64t-49.5 90t-15.5 103q0 121 73 200t193 79
q108 0 178 -70q71 -69 71 -187zM312 493q-42 0 -77.5 -14t-62 -39.5t-43.5 -61t-21 -79.5h391q0 45 -14 80.5t-39 61t-59 39t-75 13.5zM443 740l59 160h77l-85 -160h-51z" />
    <glyph glyph-name="uni1EC0" unicode="&#x1ec0;" horiz-adv-x="601" 
d="M161 795l138 155h37l138 -155h-65l-92 104l-92 -104h-64zM101 0v739h445v-58h-384v-278h358v-57h-358v-288h386v-58h-447zM503 916h-51l-85 160h77z" />
    <glyph glyph-name="uni1EC1" unicode="&#x1ec1;" horiz-adv-x="604" 
d="M309 725l-92 -104h-64l138 155h37l138 -155h-65zM561 291q0 -11 -3 -47h-450q3 -45 19 -81.5t43.5 -63t66.5 -41t88 -14.5q26 0 53 4.5t53 13t49 20t41 26.5l28 -46q-39 -31 -99 -52.5t-126 -21.5q-74 0 -126.5 24t-86.5 64t-49.5 90t-15.5 103q0 121 73 200t193 79
q108 0 178 -70q71 -69 71 -187zM312 493q-42 0 -77.5 -14t-62 -39.5t-43.5 -61t-21 -79.5h391q0 45 -14 80.5t-39 61t-59 39t-75 13.5zM498 740h-51l-85 160h77z" />
    <glyph glyph-name="uni1EC2" unicode="&#x1ec2;" horiz-adv-x="601" 
d="M161 795l138 155h37l138 -155h-65l-92 104l-92 -104h-64zM101 0v739h445v-58h-384v-278h358v-57h-358v-288h386v-58h-447zM478 880q-2 0 -2 7.5t3 18t9.5 22.5t18.5 22q16 13 28 26.5t12 31.5q0 20 -14.5 31.5t-34.5 11.5q-29 0 -64 -40l-34 33q21 25 46.5 39.5
t51.5 14.5q19 0 36.5 -6.5t31 -18t22 -28t8.5 -37.5q0 -38 -48 -82q-12 -11 -19 -20t-7 -26h-44z" />
    <glyph glyph-name="uni1EC3" unicode="&#x1ec3;" horiz-adv-x="604" 
d="M309 725l-92 -104h-64l138 155h37l138 -155h-65zM561 291q0 -11 -3 -47h-450q3 -45 19 -81.5t43.5 -63t66.5 -41t88 -14.5q26 0 53 4.5t53 13t49 20t41 26.5l28 -46q-39 -31 -99 -52.5t-126 -21.5q-74 0 -126.5 24t-86.5 64t-49.5 90t-15.5 103q0 121 73 200t193 79
q108 0 178 -70q71 -69 71 -187zM312 493q-42 0 -77.5 -14t-62 -39.5t-43.5 -61t-21 -79.5h391q0 45 -14 80.5t-39 61t-59 39t-75 13.5zM455 730q-2 0 -2 7.5t3 18t9.5 22.5t18.5 22q16 13 28 26.5t12 31.5q0 20 -14.5 31.5t-34.5 11.5q-29 0 -64 -40l-34 33q21 25 46.5 39.5
t51.5 14.5q19 0 36.5 -6.5t31 -18t22 -28t8.5 -37.5q0 -38 -48 -82q-12 -11 -19 -20t-7 -26h-44z" />
    <glyph glyph-name="uni1EC4" unicode="&#x1ec4;" horiz-adv-x="601" 
d="M161 795l138 155h37l138 -155h-65l-92 104l-92 -104h-64zM101 0v739h445v-58h-384v-278h358v-57h-358v-288h386v-58h-447zM144 996q11 39 40.5 63.5t67.5 24.5q34 0 74 -28t62 -28t39 16t25 37l39 -17q-11 -39 -39 -63.5t-66 -24.5q-35 0 -75 27q-40 28 -61 28
q-44 0 -67 -53z" />
    <glyph glyph-name="uni1EC5" unicode="&#x1ec5;" horiz-adv-x="604" 
d="M309 725l-92 -104h-64l138 155h37l138 -155h-65zM561 291q0 -11 -3 -47h-450q3 -45 19 -81.5t43.5 -63t66.5 -41t88 -14.5q26 0 53 4.5t53 13t49 20t41 26.5l28 -46q-39 -31 -99 -52.5t-126 -21.5q-74 0 -126.5 24t-86.5 64t-49.5 90t-15.5 103q0 121 73 200t193 79
q108 0 178 -70q71 -69 71 -187zM312 493q-42 0 -77.5 -14t-62 -39.5t-43.5 -61t-21 -79.5h391q0 45 -14 80.5t-39 61t-59 39t-75 13.5zM145 824q11 37 38.5 60t63.5 23q31 0 69 -27q40 -26 59 -26q20 0 37 15t24 35l36 -16q-10 -37 -37 -60t-62 -23q-32 0 -70 26t-58 26
q-40 0 -63 -50z" />
    <glyph glyph-name="uni1EC6" unicode="&#x1ec6;" horiz-adv-x="601" 
d="M303 -180q-22 0 -37 14.5t-15 36.5t15 36.5t37 14.5q21 0 36 -14.5t15 -36.5t-15 -36.5t-36 -14.5zM161 795l138 155h37l138 -155h-65l-92 104l-92 -104h-64zM101 0v739h445v-58h-384v-278h358v-57h-358v-288h386v-58h-447z" />
    <glyph glyph-name="uni1EC7" unicode="&#x1ec7;" horiz-adv-x="604" 
d="M304 -180q-22 0 -37 14.5t-15 36.5t15 36.5t37 14.5q21 0 36 -14.5t15 -36.5t-15 -36.5t-36 -14.5zM309 725l-92 -104h-64l138 155h37l138 -155h-65zM561 291q0 -11 -3 -47h-450q3 -45 19 -81.5t43.5 -63t66.5 -41t88 -14.5q26 0 53 4.5t53 13t49 20t41 26.5l28 -46
q-39 -31 -99 -52.5t-126 -21.5q-74 0 -126.5 24t-86.5 64t-49.5 90t-15.5 103q0 121 73 200t193 79q108 0 178 -70q71 -69 71 -187zM312 493q-42 0 -77.5 -14t-62 -39.5t-43.5 -61t-21 -79.5h391q0 45 -14 80.5t-39 61t-59 39t-75 13.5z" />
    <glyph glyph-name="uni1EC8" unicode="&#x1ec8;" horiz-adv-x="263" 
d="M101 739h61v-739h-61v739zM110 796q-2 0 -2 7.5t3 18t9.5 22.5t18.5 22q16 13 28 26.5t12 31.5q0 20 -14.5 31.5t-34.5 11.5q-29 0 -64 -40l-34 33q21 25 46.5 39.5t51.5 14.5q19 0 36.5 -6.5t31 -18t22 -28t8.5 -37.5q0 -38 -48 -82q-12 -11 -19 -20t-7 -26h-44z" />
    <glyph glyph-name="uni1EC9" unicode="&#x1ec9;" horiz-adv-x="223" 
d="M141 0h-60v535h60v-535zM91 621q-2 0 -2 7.5t3 18t9.5 22.5t18.5 22q16 13 28 26.5t12 31.5q0 20 -14.5 31.5t-34.5 11.5q-29 0 -64 -40l-34 33q21 25 46.5 39.5t51.5 14.5q19 0 36.5 -6.5t31 -18t22 -28t8.5 -37.5q0 -38 -48 -82q-12 -11 -19 -20t-7 -26h-44z" />
    <glyph glyph-name="uni1ECA" unicode="&#x1eca;" horiz-adv-x="263" 
d="M101 739h61v-739h-61v739zM134 -180q-22 0 -37 14.5t-15 36.5t15 36.5t37 14.5q21 0 36 -14.5t15 -36.5t-15 -36.5t-36 -14.5z" />
    <glyph glyph-name="uni1ECB" unicode="&#x1ecb;" horiz-adv-x="223" 
d="M109 619q-22 0 -37 14.5t-15 36.5t15 36.5t37 14.5q21 0 36 -14.5t15 -36.5t-15 -36.5t-36 -14.5zM137 0h-60v535h60v-535zM114 -180q-22 0 -37 14.5t-15 36.5t15 36.5t37 14.5q21 0 36 -14.5t15 -36.5t-15 -36.5t-36 -14.5z" />
    <glyph glyph-name="uni1ECC" unicode="&#x1ecc;" 
d="M428 -12q-159 0 -268 111q-110 112 -110 269q0 158 111 271t269 113q157 0 268 -112q112 -112 112 -270t-112 -270q-111 -112 -270 -112zM430 47q133 0 225 93q92 95 92 229q0 135 -92 230q-91 94 -225 94q-133 0 -226 -95q-92 -95 -92 -229t92 -229q91 -93 226 -93z
M432 -180q-22 0 -37 14.5t-15 36.5t15 36.5t37 14.5q21 0 36 -14.5t15 -36.5t-15 -36.5t-36 -14.5z" />
    <glyph glyph-name="uni1ECD" unicode="&#x1ecd;" horiz-adv-x="646" 
d="M45 268q0 119 79 199q79 81 199 81q119 0 199 -81q79 -80 79 -199q0 -120 -79 -200q-80 -81 -199 -81q-120 0 -199 81q-79 80 -79 200zM323 42q94 0 156 65q62 67 62 161q0 95 -62 160t-156 65q-93 0 -156 -66q-62 -65 -62 -159t62 -161q63 -65 156 -65zM325 -180
q-22 0 -37 14.5t-15 36.5t15 36.5t37 14.5q21 0 36 -14.5t15 -36.5t-15 -36.5t-36 -14.5z" />
    <glyph glyph-name="uni1ECE" unicode="&#x1ece;" 
d="M428 -12q-159 0 -268 111q-110 112 -110 269q0 158 111 271t269 113q157 0 268 -112q112 -112 112 -270t-112 -270q-111 -112 -270 -112zM430 47q133 0 225 93q92 95 92 229q0 135 -92 230q-91 94 -225 94q-133 0 -226 -95q-92 -95 -92 -229t92 -229q91 -93 226 -93z
M409 796q-2 0 -2 7.5t3 18t9.5 22.5t18.5 22q16 13 28 26.5t12 31.5q0 20 -14.5 31.5t-34.5 11.5q-29 0 -64 -40l-34 33q21 25 46.5 39.5t51.5 14.5q19 0 36.5 -6.5t31 -18t22 -28t8.5 -37.5q0 -38 -48 -82q-12 -11 -19 -20t-7 -26h-44z" />
    <glyph glyph-name="uni1ECF" unicode="&#x1ecf;" horiz-adv-x="646" 
d="M45 268q0 119 79 199q79 81 199 81q119 0 199 -81q79 -80 79 -199q0 -120 -79 -200q-80 -81 -199 -81q-120 0 -199 81q-79 80 -79 200zM323 42q94 0 156 65q62 67 62 161q0 95 -62 160t-156 65q-93 0 -156 -66q-62 -65 -62 -159t62 -161q63 -65 156 -65zM302 621
q-2 0 -2 7.5t3 18t9.5 22.5t18.5 22q16 13 28 26.5t12 31.5q0 20 -14.5 31.5t-34.5 11.5q-29 0 -64 -40l-34 33q21 25 46.5 39.5t51.5 14.5q19 0 36.5 -6.5t31 -18t22 -28t8.5 -37.5q0 -38 -48 -82q-12 -11 -19 -20t-7 -26h-44z" />
    <glyph glyph-name="uni1ED0" unicode="&#x1ed0;" 
d="M273 795l138 155h37l138 -155h-65l-92 104l-92 -104h-64zM428 -12q-159 0 -268 111q-110 112 -110 269q0 158 111 271t269 113q157 0 268 -112q112 -112 112 -270t-112 -270q-111 -112 -270 -112zM430 47q133 0 225 93q92 95 92 229q0 135 -92 230q-91 94 -225 94
q-133 0 -226 -95q-92 -95 -92 -229t92 -229q91 -93 226 -93zM548 916l59 160h77l-85 -160h-51z" />
    <glyph glyph-name="uni1ED1" unicode="&#x1ed1;" horiz-adv-x="646" 
d="M167 622l138 155h37l138 -155h-65l-92 104l-92 -104h-64zM45 268q0 119 79 199q79 81 199 81q119 0 199 -81q79 -80 79 -199q0 -120 -79 -200q-80 -81 -199 -81q-120 0 -199 81q-79 80 -79 200zM323 42q94 0 156 65q62 67 62 161q0 95 -62 160t-156 65q-93 0 -156 -66
q-62 -65 -62 -159t62 -161q63 -65 156 -65zM448 740l59 160h77l-85 -160h-51z" />
    <glyph glyph-name="uni1ED2" unicode="&#x1ed2;" 
d="M273 795l138 155h37l138 -155h-65l-92 104l-92 -104h-64zM428 -12q-159 0 -268 111q-110 112 -110 269q0 158 111 271t269 113q157 0 268 -112q112 -112 112 -270t-112 -270q-111 -112 -270 -112zM430 47q133 0 225 93q92 95 92 229q0 135 -92 230q-91 94 -225 94
q-133 0 -226 -95q-92 -95 -92 -229t92 -229q91 -93 226 -93zM614 916h-51l-85 160h77z" />
    <glyph glyph-name="uni1ED3" unicode="&#x1ed3;" horiz-adv-x="646" 
d="M167 622l138 155h37l138 -155h-65l-92 104l-92 -104h-64zM45 268q0 119 79 199q79 81 199 81q119 0 199 -81q79 -80 79 -199q0 -120 -79 -200q-80 -81 -199 -81q-120 0 -199 81q-79 80 -79 200zM323 42q94 0 156 65q62 67 62 161q0 95 -62 160t-156 65q-93 0 -156 -66
q-62 -65 -62 -159t62 -161q63 -65 156 -65zM520 740h-51l-85 160h77z" />
    <glyph glyph-name="uni1ED4" unicode="&#x1ed4;" 
d="M273 795l138 155h37l138 -155h-65l-92 104l-92 -104h-64zM428 -12q-159 0 -268 111q-110 112 -110 269q0 158 111 271t269 113q157 0 268 -112q112 -112 112 -270t-112 -270q-111 -112 -270 -112zM430 47q133 0 225 93q92 95 92 229q0 135 -92 230q-91 94 -225 94
q-133 0 -226 -95q-92 -95 -92 -229t92 -229q91 -93 226 -93zM585 880q-2 0 -2 7.5t3 18t9.5 22.5t18.5 22q16 13 28 26.5t12 31.5q0 20 -14.5 31.5t-34.5 11.5q-29 0 -64 -40l-34 33q21 25 46.5 39.5t51.5 14.5q19 0 36.5 -6.5t31 -18t22 -28t8.5 -37.5q0 -38 -48 -82
q-12 -11 -19 -20t-7 -26h-44z" />
    <glyph glyph-name="uni1ED5" unicode="&#x1ed5;" horiz-adv-x="646" 
d="M167 622l138 155h37l138 -155h-65l-92 104l-92 -104h-64zM45 268q0 119 79 199q79 81 199 81q119 0 199 -81q79 -80 79 -199q0 -120 -79 -200q-80 -81 -199 -81q-120 0 -199 81q-79 80 -79 200zM323 42q94 0 156 65q62 67 62 161q0 95 -62 160t-156 65q-93 0 -156 -66
q-62 -65 -62 -159t62 -161q63 -65 156 -65zM471 730q-2 0 -2 7.5t3 18t9.5 22.5t18.5 22q16 13 28 26.5t12 31.5q0 20 -14.5 31.5t-34.5 11.5q-29 0 -64 -40l-34 33q21 25 46.5 39.5t51.5 14.5q19 0 36.5 -6.5t31 -18t22 -28t8.5 -37.5q0 -38 -48 -82q-12 -11 -19 -20
t-7 -26h-44z" />
    <glyph glyph-name="uni1ED6" unicode="&#x1ed6;" 
d="M273 795l138 155h37l138 -155h-65l-92 104l-92 -104h-64zM428 -12q-159 0 -268 111q-110 112 -110 269q0 158 111 271t269 113q157 0 268 -112q112 -112 112 -270t-112 -270q-111 -112 -270 -112zM430 47q133 0 225 93q92 95 92 229q0 135 -92 230q-91 94 -225 94
q-133 0 -226 -95q-92 -95 -92 -229t92 -229q91 -93 226 -93zM256 996q11 39 40.5 63.5t67.5 24.5q34 0 74 -28t62 -28t39 16t25 37l39 -17q-11 -39 -39 -63.5t-66 -24.5q-35 0 -75 27q-40 28 -61 28q-44 0 -67 -53z" />
    <glyph glyph-name="uni1ED7" unicode="&#x1ed7;" horiz-adv-x="646" 
d="M167 622l138 155h37l138 -155h-65l-92 104l-92 -104h-64zM45 268q0 119 79 199q79 81 199 81q119 0 199 -81q79 -80 79 -199q0 -120 -79 -200q-80 -81 -199 -81q-120 0 -199 81q-79 80 -79 200zM323 42q94 0 156 65q62 67 62 161q0 95 -62 160t-156 65q-93 0 -156 -66
q-62 -65 -62 -159t62 -161q63 -65 156 -65zM159 824q11 37 38.5 60t63.5 23q31 0 69 -27q40 -26 59 -26q20 0 37 15t24 35l36 -16q-10 -37 -37 -60t-62 -23q-32 0 -70 26t-58 26q-40 0 -63 -50z" />
    <glyph glyph-name="uni1ED8" unicode="&#x1ed8;" 
d="M432 -180q-22 0 -37 14.5t-15 36.5t15 36.5t37 14.5q21 0 36 -14.5t15 -36.5t-15 -36.5t-36 -14.5zM273 795l138 155h37l138 -155h-65l-92 104l-92 -104h-64zM428 -12q-159 0 -268 111q-110 112 -110 269q0 158 111 271t269 113q157 0 268 -112q112 -112 112 -270
t-112 -270q-111 -112 -270 -112zM430 47q133 0 225 93q92 95 92 229q0 135 -92 230q-91 94 -225 94q-133 0 -226 -95q-92 -95 -92 -229t92 -229q91 -93 226 -93z" />
    <glyph glyph-name="uni1ED9" unicode="&#x1ed9;" horiz-adv-x="646" 
d="M325 -180q-22 0 -37 14.5t-15 36.5t15 36.5t37 14.5q21 0 36 -14.5t15 -36.5t-15 -36.5t-36 -14.5zM167 622l138 155h37l138 -155h-65l-92 104l-92 -104h-64zM45 268q0 119 79 199q79 81 199 81q119 0 199 -81q79 -80 79 -199q0 -120 -79 -200q-80 -81 -199 -81
q-120 0 -199 81q-79 80 -79 200zM323 42q94 0 156 65q62 67 62 161q0 95 -62 160t-156 65q-93 0 -156 -66q-62 -65 -62 -159t62 -161q63 -65 156 -65z" />
    <glyph glyph-name="uni1EDA" unicode="&#x1eda;" 
d="M571 724q35 0 54 14.5t19 41.5q0 19 -13 52l43 13q8 -14 13.5 -31.5t5.5 -36.5q0 -48 -30.5 -76t-91.5 -28v51zM428 -12q-159 0 -268 111q-110 112 -110 269q0 158 111 271t269 113q157 0 268 -112q112 -112 112 -270t-112 -270q-111 -112 -270 -112zM430 47
q133 0 225 93q92 95 92 229q0 135 -92 230q-91 94 -225 94q-133 0 -226 -95q-92 -95 -92 -229t92 -229q91 -93 226 -93zM404 796l59 160h77l-85 -160h-51z" />
    <glyph glyph-name="uni1EDB" unicode="&#x1edb;" horiz-adv-x="646" 
d="M449 519q35 0 54 14.5t19 41.5q0 19 -13 52l43 13q8 -14 13.5 -31.5t5.5 -36.5q0 -48 -30.5 -76t-91.5 -28v51zM45 268q0 119 79 199q79 81 199 81q119 0 199 -81q79 -80 79 -199q0 -120 -79 -200q-80 -81 -199 -81q-120 0 -199 81q-79 80 -79 200zM323 42q94 0 156 65
q62 67 62 161q0 95 -62 160t-156 65q-93 0 -156 -66q-62 -65 -62 -159t62 -161q63 -65 156 -65zM291 621l59 160h77l-85 -160h-51z" />
    <glyph glyph-name="uni1EDC" unicode="&#x1edc;" 
d="M571 724q35 0 54 14.5t19 41.5q0 19 -13 52l43 13q8 -14 13.5 -31.5t5.5 -36.5q0 -48 -30.5 -76t-91.5 -28v51zM428 -12q-159 0 -268 111q-110 112 -110 269q0 158 111 271t269 113q157 0 268 -112q112 -112 112 -270t-112 -270q-111 -112 -270 -112zM430 47
q133 0 225 93q92 95 92 229q0 135 -92 230q-91 94 -225 94q-133 0 -226 -95q-92 -95 -92 -229t92 -229q91 -93 226 -93zM469 795h-51l-85 160h77z" />
    <glyph glyph-name="uni1EDD" unicode="&#x1edd;" horiz-adv-x="646" 
d="M449 519q35 0 54 14.5t19 41.5q0 19 -13 52l43 13q8 -14 13.5 -31.5t5.5 -36.5q0 -48 -30.5 -76t-91.5 -28v51zM45 268q0 119 79 199q79 81 199 81q119 0 199 -81q79 -80 79 -199q0 -120 -79 -200q-80 -81 -199 -81q-120 0 -199 81q-79 80 -79 200zM323 42q94 0 156 65
q62 67 62 161q0 95 -62 160t-156 65q-93 0 -156 -66q-62 -65 -62 -159t62 -161q63 -65 156 -65zM355 620h-51l-85 160h77z" />
    <glyph glyph-name="uni1EDE" unicode="&#x1ede;" 
d="M571 724q35 0 54 14.5t19 41.5q0 19 -13 52l43 13q8 -14 13.5 -31.5t5.5 -36.5q0 -48 -30.5 -76t-91.5 -28v51zM428 -12q-159 0 -268 111q-110 112 -110 269q0 158 111 271t269 113q157 0 268 -112q112 -112 112 -270t-112 -270q-111 -112 -270 -112zM430 47
q133 0 225 93q92 95 92 229q0 135 -92 230q-91 94 -225 94q-133 0 -226 -95q-92 -95 -92 -229t92 -229q91 -93 226 -93zM409 796q-2 0 -2 7.5t3 18t9.5 22.5t18.5 22q16 13 28 26.5t12 31.5q0 20 -14.5 31.5t-34.5 11.5q-29 0 -64 -40l-34 33q21 25 46.5 39.5t51.5 14.5
q19 0 36.5 -6.5t31 -18t22 -28t8.5 -37.5q0 -38 -48 -82q-12 -11 -19 -20t-7 -26h-44z" />
    <glyph glyph-name="uni1EDF" unicode="&#x1edf;" horiz-adv-x="646" 
d="M449 519q35 0 54 14.5t19 41.5q0 19 -13 52l43 13q8 -14 13.5 -31.5t5.5 -36.5q0 -48 -30.5 -76t-91.5 -28v51zM45 268q0 119 79 199q79 81 199 81q119 0 199 -81q79 -80 79 -199q0 -120 -79 -200q-80 -81 -199 -81q-120 0 -199 81q-79 80 -79 200zM323 42q94 0 156 65
q62 67 62 161q0 95 -62 160t-156 65q-93 0 -156 -66q-62 -65 -62 -159t62 -161q63 -65 156 -65zM302 621q-2 0 -2 7.5t3 18t9.5 22.5t18.5 22q16 13 28 26.5t12 31.5q0 20 -14.5 31.5t-34.5 11.5q-29 0 -64 -40l-34 33q21 25 46.5 39.5t51.5 14.5q19 0 36.5 -6.5t31 -18
t22 -28t8.5 -37.5q0 -38 -48 -82q-12 -11 -19 -20t-7 -26h-44z" />
    <glyph glyph-name="uni1EE0" unicode="&#x1ee0;" 
d="M571 724q35 0 54 14.5t19 41.5q0 19 -13 52l43 13q8 -14 13.5 -31.5t5.5 -36.5q0 -48 -30.5 -76t-91.5 -28v51zM428 -12q-159 0 -268 111q-110 112 -110 269q0 158 111 271t269 113q157 0 268 -112q112 -112 112 -270t-112 -270q-111 -112 -270 -112zM430 47
q133 0 225 93q92 95 92 229q0 135 -92 230q-91 94 -225 94q-133 0 -226 -95q-92 -95 -92 -229t92 -229q91 -93 226 -93zM261 832q11 39 40.5 63.5t67.5 24.5q34 0 74 -28t62 -28t39 16t25 37l39 -17q-11 -39 -39 -63.5t-66 -24.5q-35 0 -75 27q-40 28 -61 28q-44 0 -67 -53z
" />
    <glyph glyph-name="uni1EE1" unicode="&#x1ee1;" horiz-adv-x="646" 
d="M449 519q35 0 54 14.5t19 41.5q0 19 -13 52l43 13q8 -14 13.5 -31.5t5.5 -36.5q0 -48 -30.5 -76t-91.5 -28v51zM45 268q0 119 79 199q79 81 199 81q119 0 199 -81q79 -80 79 -199q0 -120 -79 -200q-80 -81 -199 -81q-120 0 -199 81q-79 80 -79 200zM323 42q94 0 156 65
q62 67 62 161q0 95 -62 160t-156 65q-93 0 -156 -66q-62 -65 -62 -159t62 -161q63 -65 156 -65zM158 647q11 37 38.5 60t63.5 23q31 0 69 -27q40 -26 59 -26q20 0 37 15t24 35l36 -16q-10 -37 -37 -60t-62 -23q-32 0 -70 26t-58 26q-40 0 -63 -50z" />
    <glyph glyph-name="uni1EE2" unicode="&#x1ee2;" 
d="M571 724q35 0 54 14.5t19 41.5q0 19 -13 52l43 13q8 -14 13.5 -31.5t5.5 -36.5q0 -48 -30.5 -76t-91.5 -28v51zM428 -12q-159 0 -268 111q-110 112 -110 269q0 158 111 271t269 113q157 0 268 -112q112 -112 112 -270t-112 -270q-111 -112 -270 -112zM430 47
q133 0 225 93q92 95 92 229q0 135 -92 230q-91 94 -225 94q-133 0 -226 -95q-92 -95 -92 -229t92 -229q91 -93 226 -93zM432 -180q-22 0 -37 14.5t-15 36.5t15 36.5t37 14.5q21 0 36 -14.5t15 -36.5t-15 -36.5t-36 -14.5z" />
    <glyph glyph-name="uni1EE3" unicode="&#x1ee3;" horiz-adv-x="646" 
d="M449 519q35 0 54 14.5t19 41.5q0 19 -13 52l43 13q8 -14 13.5 -31.5t5.5 -36.5q0 -48 -30.5 -76t-91.5 -28v51zM45 268q0 119 79 199q79 81 199 81q119 0 199 -81q79 -80 79 -199q0 -120 -79 -200q-80 -81 -199 -81q-120 0 -199 81q-79 80 -79 200zM323 42q94 0 156 65
q62 67 62 161q0 95 -62 160t-156 65q-93 0 -156 -66q-62 -65 -62 -159t62 -161q63 -65 156 -65zM325 -180q-22 0 -37 14.5t-15 36.5t15 36.5t37 14.5q21 0 36 -14.5t15 -36.5t-15 -36.5t-36 -14.5z" />
    <glyph glyph-name="uni1EE4" unicode="&#x1ee4;" horiz-adv-x="685" 
d="M93 739h61v-489q0 -97 49 -149.5t140 -52.5q90 0 139 53t49 149v489h61v-499q0 -118 -68 -186q-67 -67 -181 -67t-182 67q-68 68 -68 186v499zM345 -180q-22 0 -37 14.5t-15 36.5t15 36.5t37 14.5q21 0 36 -14.5t15 -36.5t-15 -36.5t-36 -14.5z" />
    <glyph glyph-name="uni1EE5" unicode="&#x1ee5;" horiz-adv-x="585" 
d="M292 -13q-99 0 -159 60q-59 62 -59 162v326h60v-325q0 -78 42.5 -122.5t115.5 -44.5q75 0 117 45t42 123v324h60v-326q0 -103 -58 -162.5t-161 -59.5zM295 -180q-22 0 -37 14.5t-15 36.5t15 36.5t37 14.5q21 0 36 -14.5t15 -36.5t-15 -36.5t-36 -14.5z" />
    <glyph glyph-name="uni1EE6" unicode="&#x1ee6;" horiz-adv-x="685" 
d="M93 739h61v-489q0 -97 49 -149.5t140 -52.5q90 0 139 53t49 149v489h61v-499q0 -118 -68 -186q-67 -67 -181 -67t-182 67q-68 68 -68 186v499zM321 796q-2 0 -2 7.5t3 18t9.5 22.5t18.5 22q16 13 28 26.5t12 31.5q0 20 -14.5 31.5t-34.5 11.5q-29 0 -64 -40l-34 33
q21 25 46.5 39.5t51.5 14.5q19 0 36.5 -6.5t31 -18t22 -28t8.5 -37.5q0 -38 -48 -82q-12 -11 -19 -20t-7 -26h-44z" />
    <glyph glyph-name="uni1EE7" unicode="&#x1ee7;" horiz-adv-x="585" 
d="M292 -13q-99 0 -159 60q-59 62 -59 162v326h60v-325q0 -78 42.5 -122.5t115.5 -44.5q75 0 117 45t42 123v324h60v-326q0 -103 -58 -162.5t-161 -59.5zM271 621q-2 0 -2 7.5t3 18t9.5 22.5t18.5 22q16 13 28 26.5t12 31.5q0 20 -14.5 31.5t-34.5 11.5q-29 0 -64 -40
l-34 33q21 25 46.5 39.5t51.5 14.5q19 0 36.5 -6.5t31 -18t22 -28t8.5 -37.5q0 -38 -48 -82q-12 -11 -19 -20t-7 -26h-44z" />
    <glyph glyph-name="uni1EE8" unicode="&#x1ee8;" horiz-adv-x="685" 
d="M531 739q35 0 54 14.5t19 41.5q0 19 -13 52l43 13q8 -14 13.5 -31.5t5.5 -36.5q0 -48 -30.5 -76t-91.5 -28v51zM93 739h61v-489q0 -97 49 -149.5t140 -52.5q90 0 139 53t49 149v489h61v-499q0 -118 -68 -186q-67 -67 -181 -67t-182 67q-68 68 -68 186v499zM311 796
l59 160h77l-85 -160h-51z" />
    <glyph glyph-name="uni1EE9" unicode="&#x1ee9;" horiz-adv-x="585" 
d="M451 532q35 0 54 14.5t19 41.5q0 19 -13 52l43 13q8 -14 13.5 -31.5t5.5 -36.5q0 -48 -30.5 -76t-91.5 -28v51zM292 -13q-99 0 -159 60q-59 62 -59 162v326h60v-325q0 -78 42.5 -122.5t115.5 -44.5q75 0 117 45t42 123v324h60v-326q0 -103 -58 -162.5t-161 -59.5z
M263 621l59 160h77l-85 -160h-51z" />
    <glyph glyph-name="uni1EEA" unicode="&#x1eea;" horiz-adv-x="685" 
d="M531 739q35 0 54 14.5t19 41.5q0 19 -13 52l43 13q8 -14 13.5 -31.5t5.5 -36.5q0 -48 -30.5 -76t-91.5 -28v51zM93 739h61v-489q0 -97 49 -149.5t140 -52.5q90 0 139 53t49 149v489h61v-499q0 -118 -68 -186q-67 -67 -181 -67t-182 67q-68 68 -68 186v499zM376 795h-51
l-85 160h77z" />
    <glyph glyph-name="uni1EEB" unicode="&#x1eeb;" horiz-adv-x="585" 
d="M451 532q35 0 54 14.5t19 41.5q0 19 -13 52l43 13q8 -14 13.5 -31.5t5.5 -36.5q0 -48 -30.5 -76t-91.5 -28v51zM292 -13q-99 0 -159 60q-59 62 -59 162v326h60v-325q0 -78 42.5 -122.5t115.5 -44.5q75 0 117 45t42 123v324h60v-326q0 -103 -58 -162.5t-161 -59.5z
M329 621h-51l-85 160h77z" />
    <glyph glyph-name="uni1EEC" unicode="&#x1eec;" horiz-adv-x="685" 
d="M531 739q35 0 54 14.5t19 41.5q0 19 -13 52l43 13q8 -14 13.5 -31.5t5.5 -36.5q0 -48 -30.5 -76t-91.5 -28v51zM93 739h61v-489q0 -97 49 -149.5t140 -52.5q90 0 139 53t49 149v489h61v-499q0 -118 -68 -186q-67 -67 -181 -67t-182 67q-68 68 -68 186v499zM321 796
q-2 0 -2 7.5t3 18t9.5 22.5t18.5 22q16 13 28 26.5t12 31.5q0 20 -14.5 31.5t-34.5 11.5q-29 0 -64 -40l-34 33q21 25 46.5 39.5t51.5 14.5q19 0 36.5 -6.5t31 -18t22 -28t8.5 -37.5q0 -38 -48 -82q-12 -11 -19 -20t-7 -26h-44z" />
    <glyph glyph-name="uni1EED" unicode="&#x1eed;" horiz-adv-x="585" 
d="M451 532q35 0 54 14.5t19 41.5q0 19 -13 52l43 13q8 -14 13.5 -31.5t5.5 -36.5q0 -48 -30.5 -76t-91.5 -28v51zM292 -13q-99 0 -159 60q-59 62 -59 162v326h60v-325q0 -78 42.5 -122.5t115.5 -44.5q75 0 117 45t42 123v324h60v-326q0 -103 -58 -162.5t-161 -59.5z
M271 621q-2 0 -2 7.5t3 18t9.5 22.5t18.5 22q16 13 28 26.5t12 31.5q0 20 -14.5 31.5t-34.5 11.5q-29 0 -64 -40l-34 33q21 25 46.5 39.5t51.5 14.5q19 0 36.5 -6.5t31 -18t22 -28t8.5 -37.5q0 -38 -48 -82q-12 -11 -19 -20t-7 -26h-44z" />
    <glyph glyph-name="uni1EEE" unicode="&#x1eee;" horiz-adv-x="685" 
d="M531 739q35 0 54 14.5t19 41.5q0 19 -13 52l43 13q8 -14 13.5 -31.5t5.5 -36.5q0 -48 -30.5 -76t-91.5 -28v51zM93 739h61v-489q0 -97 49 -149.5t140 -52.5q90 0 139 53t49 149v489h61v-499q0 -118 -68 -186q-67 -67 -181 -67t-182 67q-68 68 -68 186v499zM173 828
q11 39 40.5 63.5t67.5 24.5q34 0 74 -28t62 -28t39 16t25 37l39 -17q-11 -39 -39 -63.5t-66 -24.5q-35 0 -75 27q-40 28 -61 28q-44 0 -67 -53z" />
    <glyph glyph-name="uni1EEF" unicode="&#x1eef;" horiz-adv-x="585" 
d="M451 532q35 0 54 14.5t19 41.5q0 19 -13 52l43 13q8 -14 13.5 -31.5t5.5 -36.5q0 -48 -30.5 -76t-91.5 -28v51zM292 -13q-99 0 -159 60q-59 62 -59 162v326h60v-325q0 -78 42.5 -122.5t115.5 -44.5q75 0 117 45t42 123v324h60v-326q0 -103 -58 -162.5t-161 -59.5z
M129 647q11 37 38.5 60t63.5 23q31 0 69 -27q40 -26 59 -26q20 0 37 15t24 35l36 -16q-10 -37 -37 -60t-62 -23q-32 0 -70 26t-58 26q-40 0 -63 -50z" />
    <glyph glyph-name="uni1EF0" unicode="&#x1ef0;" horiz-adv-x="685" 
d="M531 739q35 0 54 14.5t19 41.5q0 19 -13 52l43 13q8 -14 13.5 -31.5t5.5 -36.5q0 -48 -30.5 -76t-91.5 -28v51zM93 739h61v-489q0 -97 49 -149.5t140 -52.5q90 0 139 53t49 149v489h61v-499q0 -118 -68 -186q-67 -67 -181 -67t-182 67q-68 68 -68 186v499zM345 -180
q-22 0 -37 14.5t-15 36.5t15 36.5t37 14.5q21 0 36 -14.5t15 -36.5t-15 -36.5t-36 -14.5z" />
    <glyph glyph-name="uni1EF1" unicode="&#x1ef1;" horiz-adv-x="585" 
d="M451 532q35 0 54 14.5t19 41.5q0 19 -13 52l43 13q8 -14 13.5 -31.5t5.5 -36.5q0 -48 -30.5 -76t-91.5 -28v51zM292 -13q-99 0 -159 60q-59 62 -59 162v326h60v-325q0 -78 42.5 -122.5t115.5 -44.5q75 0 117 45t42 123v324h60v-326q0 -103 -58 -162.5t-161 -59.5z
M295 -180q-22 0 -37 14.5t-15 36.5t15 36.5t37 14.5q21 0 36 -14.5t15 -36.5t-15 -36.5t-36 -14.5z" />
    <glyph glyph-name="Ygrave" unicode="&#x1ef2;" horiz-adv-x="602" 
d="M330 796h-51l-85 160h77zM581 739l-250 -446v-293h-61v293l-248 446h67l212 -389l213 389h67z" />
    <glyph glyph-name="ygrave" unicode="&#x1ef3;" horiz-adv-x="531" 
d="M306 619h-51l-85 160h77zM449 535h66l-226 -575q-20 -51 -39.5 -86.5t-41.5 -58t-47 -32.5t-55 -10q-43 0 -77 19l9 53q35 -16 66 -16q42 0 72 34t56 103l13 34l-228 535h66l191 -457z" />
    <glyph glyph-name="uni1EF4" unicode="&#x1ef4;" horiz-adv-x="602" 
d="M581 739l-250 -446v-293h-61v293l-248 446h67l212 -389l213 389h67zM303 -180q-22 0 -37 14.5t-15 36.5t15 36.5t37 14.5q21 0 36 -14.5t15 -36.5t-15 -36.5t-36 -14.5z" />
    <glyph glyph-name="uni1EF5" unicode="&#x1ef5;" horiz-adv-x="531" 
d="M449 535h66l-226 -575q-20 -51 -39.5 -86.5t-41.5 -58t-47 -32.5t-55 -10q-43 0 -77 19l9 53q35 -16 66 -16q42 0 72 34t56 103l13 34l-228 535h66l191 -457zM413 -180q-22 0 -37 14.5t-15 36.5t15 36.5t37 14.5q21 0 36 -14.5t15 -36.5t-15 -36.5t-36 -14.5z" />
    <glyph glyph-name="uni1EF6" unicode="&#x1ef6;" horiz-adv-x="602" 
d="M581 739l-250 -446v-293h-61v293l-248 446h67l212 -389l213 389h67zM282 796q-2 0 -2 7.5t3 18t9.5 22.5t18.5 22q16 13 28 26.5t12 31.5q0 20 -14.5 31.5t-34.5 11.5q-29 0 -64 -40l-34 33q21 25 46.5 39.5t51.5 14.5q19 0 36.5 -6.5t31 -18t22 -28t8.5 -37.5
q0 -38 -48 -82q-12 -11 -19 -20t-7 -26h-44z" />
    <glyph glyph-name="uni1EF7" unicode="&#x1ef7;" horiz-adv-x="531" 
d="M449 535h66l-226 -575q-20 -51 -39.5 -86.5t-41.5 -58t-47 -32.5t-55 -10q-43 0 -77 19l9 53q35 -16 66 -16q42 0 72 34t56 103l13 34l-228 535h66l191 -457zM244 621q-2 0 -2 7.5t3 18t9.5 22.5t18.5 22q16 13 28 26.5t12 31.5q0 20 -14.5 31.5t-34.5 11.5
q-29 0 -64 -40l-34 33q21 25 46.5 39.5t51.5 14.5q19 0 36.5 -6.5t31 -18t22 -28t8.5 -37.5q0 -38 -48 -82q-12 -11 -19 -20t-7 -26h-44z" />
    <glyph glyph-name="uni1EF8" unicode="&#x1ef8;" horiz-adv-x="602" 
d="M581 739l-250 -446v-293h-61v293l-248 446h67l212 -389l213 389h67zM128 828q11 39 40.5 63.5t67.5 24.5q34 0 74 -28t62 -28t39 16t25 37l39 -17q-11 -39 -39 -63.5t-66 -24.5q-35 0 -75 27q-40 28 -61 28q-44 0 -67 -53z" />
    <glyph glyph-name="uni1EF9" unicode="&#x1ef9;" horiz-adv-x="531" 
d="M449 535h66l-226 -575q-20 -51 -39.5 -86.5t-41.5 -58t-47 -32.5t-55 -10q-43 0 -77 19l9 53q35 -16 66 -16q42 0 72 34t56 103l13 34l-228 535h66l191 -457zM111 647q11 37 38.5 60t63.5 23q31 0 69 -27q40 -26 59 -26q20 0 37 15t24 35l36 -16q-10 -37 -37 -60t-62 -23
q-32 0 -70 26t-58 26q-40 0 -63 -50z" />
    <glyph glyph-name="uni1EFA" unicode="&#x1efa;" horiz-adv-x="976" 
d="M233 567q-21 0 -54 -3.5t-64 -12.5t-52 -22.5t-21 -36.5q-17 22 -17 42q0 23 18 41t46 30.5t62 19t66 6.5q16 0 35 -1.5t33 -8.5t21.5 -20t7.5 -31q0 -2 -0.5 -10t-4.5 -9q-19 7 -34.5 11.5t-41.5 4.5zM959 657q15 -20 15 -35q0 -19 -17 -31.5t-46 -21t-60.5 -11
t-59.5 -2.5q-8 0 -17.5 0.5t-17.5 0.5q-3 -5 -5.5 -9t-3.5 -8q-3 -5 -8 -17t-10.5 -28.5t-10 -33.5t-4.5 -29t4.5 -19.5t15.5 -7.5q14 0 38 10q-3 -12 -9 -26t-14.5 -26t-20.5 -18t-28 -6q-26 0 -37 17.5t-11 43.5q0 22 5 46q-9 -13 -21 -20.5t-28 -7.5q-24 0 -34.5 9.5
t-10.5 25.5q0 22 11.5 44.5t20.5 44.5q-11 0 -25 -12.5t-25 -32t-20.5 -40.5t-12.5 -39q-7 0 -14.5 1t-15.5 4t-13.5 8.5t-5.5 12.5q0 11 7.5 30t20.5 43q-7 -2 -12.5 -3.5t-8.5 -2.5q-9 -19 -20.5 -36.5t-27 -30t-33 -21t-38.5 -8.5q-22 0 -40.5 15.5t-18.5 40.5
q0 27 10.5 46.5t26.5 32.5q0 1 -0.5 3t-0.5 3q0 13 6.5 27t18.5 24.5t30 17t42 6.5q23 0 40.5 -13.5t17.5 -44.5v-9t-2 -8q19 4 34 13q8 19 14.5 34t8.5 27q14 -1 30 -9.5t16 -22.5q0 -6 -2 -11t-5 -13q20 17 36 30.5t40 13.5q10 0 16.5 -6t6.5 -20q0 -13 -6.5 -26.5
t-16 -28.5t-16.5 -29t-7 -25q0 -8 8 -8q6 0 14.5 2.5t16.5 8.5q7 26 16 49t19 39q-16 10 -16 27q0 8 5 17q11 -6 27 -9q7 15 14.5 31.5t14.5 31.5t10 27t3 21v3h9q19 0 34.5 -9.5t15.5 -23.5q0 -3 -13.5 -31t-30.5 -56q24 0 50 3t49 9.5t44 17t39 24.5zM365 470
q9 0 20.5 10.5t17.5 23.5q-23 0 -45 11q-7 -17 -7 -29q0 -8 3.5 -12t10.5 -4zM418 537q5 9 5 20t-8.5 18t-16.5 7q-10 0 -17 -7t-7 -14q0 -11 11.5 -17.5t26.5 -6.5h6zM212 276q0 -15 18.5 -22.5t41 -14.5t41 -19t18.5 -35q0 -17 -13.5 -35.5t-36 -32.5t-53.5 -21.5
t-61 -7.5q-14 0 -32 1t-32.5 7.5t-27 18.5t-12.5 31q0 14 9 29t22 22q13 -26 38.5 -36.5t54.5 -10.5q27 0 49.5 7.5t22.5 17.5q0 8 -11 11.5t-25.5 4t-31 3.5t-31 9.5t-24.5 17.5t-10 29q0 35 22.5 62t53 47t66.5 32t63 12q25 0 38.5 -9t13.5 -27q0 -12 -5.5 -24
t-12.5 -24.5t-14 -22.5t-7 -20q-42 0 -42 43v9.5t2 11.5q-14 -3 -29.5 -9.5t-29.5 -14.5t-23.5 -18.5t-9.5 -21.5zM848 388q34 0 34 -27q0 -14 -11 -30h-12q-45 0 -71.5 -11t-44.5 -27.5t-30.5 -36.5t-22.5 -39q-6 -20 -16 -40q-7 -17 -16 -38.5t-16 -44.5q-8 0 -16 1
t-15.5 4.5t-13 9t-5.5 17.5q0 7 8.5 26t17.5 43q-6 -4 -10.5 -4.5t-10.5 -3.5q-7 -19 -19 -36t-27 -30t-33.5 -20.5t-39.5 -7.5q-22 0 -39 15t-17 41q0 24 10 44.5t24 32.5v7q0 11 3 18q-13 0 -27 -1q-5 -7 -12.5 -26t-15 -42.5t-14.5 -47t-8 -40.5q-3 -26 21 -26q13 0 37 9
q-2 -14 -8 -26.5t-15.5 -24t-21.5 -19t-26 -7.5q-27 0 -38.5 18t-11.5 43q0 27 5 52t13.5 50.5t18 47.5t16.5 39q-7 4 -10.5 11.5t-3.5 16.5q0 11 4 15q7 0 15.5 1t15.5 4q27 49 40 92q15 0 31.5 -10.5t16.5 -27.5q0 -11 -10 -23.5t-14 -26.5h7q19 0 26 -10q24 17 62 17
q23 0 41 -14t18 -47v-8v-8q7 1 13.5 5t14.5 9q9 20 14 38t5 29q0 6 -1 9q13 -3 23 -6q8 -3 16 -10.5t9 -18.5q29 46 67.5 73.5t75.5 27.5zM491 147q9 0 20.5 10t21.5 24q-28 2 -47 10q-2 -8 -5 -14t-3 -13q0 -17 13 -17zM547 214q3 11 3 19q0 11 -8 19t-14 8q-12 0 -19.5 -8
t-7.5 -15q0 -11 11 -17t27 -6h8zM790 202q11 0 19.5 10.5t8.5 19.5q0 12 -11 12q-6 0 -16 -6.5t-19 -18t-16.5 -27t-7.5 -27.5q0 -10 7 -17t20 -7q9 0 21 4.5t23 8.5t20 11t15 12q-5 -19 -14.5 -34.5t-25 -27t-34.5 -17t-38 -5.5q-26 0 -42 12t-16 39q0 24 13 51.5t32 51.5
t44 40.5t48 16.5q26 0 38 -12.5t12 -31.5q0 -24 -8.5 -41t-21.5 -30t-28 -19t-28 -6q-10 0 -16 4.5t-6 14.5q0 8 6 16.5t7 8.5q8 -6 14 -6zM88 271q-19 -4 -33 5t-26 21t-19.5 27t-9.5 23q20 -10 31 -12t24 2q10 2 18.5 16t15 34.5t11 44t7 45t4.5 37t2 20.5q0 1 3 1
q13 5 27.5 7t27.5 2q6 0 11 -3.5t5 -12.5q0 -14 -10 -37q14 0 23.5 1t31.5 1q23 0 38 -14t15 -36v-8t-4 -9q-10 5 -21 5.5t-23 0.5q-6 0 -20 -0.5t-28 -4.5t-25 -10.5t-12 -13.5q-2 -6 -7 -25.5t-12.5 -42t-19 -42.5t-25.5 -22z" />
    <glyph glyph-name="uni1EFB" unicode="&#x1efb;" horiz-adv-x="2546" 
d="M1134 125q0 -9 -0.5 -11.5t-5.5 -9.5q-2 -5 -5.5 -5.5t-7.5 -0.5q-87 -21 -166 -21h-31h-65t-58 2q-44 5 -79.5 12.5t-72.5 12.5q-33 7 -71 15t-74 14q-32 9 -62.5 16t-65.5 12q-32 8 -61.5 11t-58.5 5h-22q-50 0 -93 -6q-27 -8 -51.5 -18.5t-49.5 -24.5q-3 -3 -15 -3
q-2 0 -5.5 1.5t-8.5 3.5q0 2 -2 8.5t-2 8.5q0 3 2 7l2 4l2 3q0 3 4 5.5t15 15.5q11 12 22 26t24 26q12 29 27 37l2 8q1 0 2 1q2 2 2 4q11 19 17 40t8.5 41.5t3 38.5t0.5 30q0 7 -3 12t-5 13q0 6 -3 12t-7 11q-6 8 -13 19t-17 21q-9 8 -18 15.5t-16 16.5q-8 6 -18 12.5
t-15 8.5q-5 7 -6 11t-1 12q0 11 14 19q22 11 46.5 16t53.5 11h73h44q29 0 60.5 -4.5t64.5 -8.5q26 -7 60 -11.5t68 -12.5q47 -12 99 -19.5t106 -19.5q51 -6 107.5 -11.5t116.5 -14.5h56q24 0 41.5 0.5t36.5 5.5q38 5 68 9.5t55 10.5q27 5 46.5 13.5t36.5 16.5q18 10 30 18.5
t17 19.5q7 9 7 18q0 8 -0.5 10t-2.5 4q0 4 -4 5t-10 4h-13q-3 0 -11.5 -2t-18.5 -2q-35 -13 -52 -25l-20 -10t-18 -7q-12 -19 -20 -24q0 -2 -1 -3t-2 -3t-2 -3q-2 -5 -7 -9.5t-12 -4.5q-8 0 -13 -1t-12 -8h-5q-2 0 -4 1q-4 2 -4 8q-1 0 0 2q1 3 8 12q0 13 14 30q8 6 17.5 13
t17.5 21q9 8 19.5 16t24.5 14q11 7 26 11.5t29 8.5q10 3 15 6.5t10 3.5h21h13h10q8 0 14 -5t12 -5q4 -7 8.5 -9t6.5 -4q8 -11 10.5 -22.5t2.5 -22.5q-2 -14 -5.5 -23.5t-9.5 -13.5q-17 -32 -57.5 -55.5t-99.5 -37.5q-29 -10 -59.5 -12.5t-65.5 -2.5q-22 -5 -43 -5.5
t-45 -0.5h-62q-62 5 -119 8t-108 13q-54 9 -105.5 20.5t-97.5 17.5q-53 10 -102 19t-93 17q-25 0 -48 3t-43 3t-39.5 -0.5t-37.5 -5.5q-8 0 -10.5 -4t-7.5 -7v-15q5 -8 5.5 -10.5t2.5 -7.5q4 0 7 -3.5t3 -8.5q18 -23 30 -43t17 -40v-6q0 -4 1.5 -7t1.5 -5v-7q1 -12 1.5 -31
t-1 -40t-6.5 -42t-14 -37v-5q-2 -8 -2.5 -17t5.5 -17t20 -14.5t40 -7.5h4h20q32 -2 64 -4.5t67 -10.5q34 -5 68.5 -13.5t69.5 -17.5q32 -9 65.5 -15.5t68.5 -14.5q35 -6 71.5 -11.5t77.5 -7.5q26 -2 55.5 -5.5t59.5 -3.5h34q38 0 78.5 6t82.5 14q1 0 3 3q0 1 1 3
q5 0 6.5 -3.5t9.5 -8.5q2 0 5.5 -3t3.5 -5zM2419 434q-3 -12 -8.5 -33.5t-10 -46t-4.5 -50.5t8 -48q4 -6 6 -8t2 -8q5 -10 13.5 -19.5t19.5 -19.5q10 -9 17 -18.5t15 -17.5q11 -8 19.5 -13t17.5 -7q5 -5 6 -10.5t1 -9.5q0 -9 -4 -14t-9 -7q-24 -9 -51 -17t-53 -8
q-17 -5 -35.5 -6t-38.5 -1h-42q-29 4 -59.5 6.5t-65.5 7.5q-31 9 -63.5 14.5t-66.5 12.5q-48 11 -99 18t-102 21q-55 7 -110.5 13.5t-116.5 9.5h-55q-23 0 -43.5 -0.5t-37.5 -3.5q-35 -5 -65 -8.5t-60 -10.5q-24 -5 -44 -13l-35 -14q-17 -9 -29.5 -19.5t-17.5 -21.5
q-8 -11 -8 -19v-13q2 -2 6.5 -2.5t13.5 -3.5h7q9 0 17 0.5t18 3.5q13 5 28 8.5t23 10.5q11 6 20.5 11.5t15.5 11.5q8 9 11.5 12.5t4.5 8.5q6 0 8 3q1 1 1 3q9 14 20 14l26 12h6h2q4 0 3.5 -7.5t-5.5 -18.5q-5 -5 -8.5 -11.5t-8.5 -15.5q-7 -10 -15.5 -16.5t-19.5 -15.5
q-16 -16 -41 -30q-11 -10 -27 -15.5t-31 -9.5q-8 -1 -13.5 -1h-10.5q-2 0 -7.5 -0.5t-10.5 -4.5h-6q-2 0 -3 0.5t-4 4.5h-12q-8 0 -14.5 1t-14.5 5q-1 5 -5.5 7t-8.5 8q-5 11 -8 20.5t-3 19.5q4 11 6 22.5t10 16.5q17 32 57.5 54t97.5 36q29 11 59 16t63 8q26 0 49.5 1.5
t46.5 1.5q17 0 29 -0.5t25 -2.5q61 0 120 -6.5t111 -17.5q52 -9 102.5 -17.5t102.5 -18.5q51 -10 100 -19.5t95 -13.5q23 -5 45 -8.5t42 -3.5t41 3t38 3q6 5 9.5 7.5t5.5 6.5v19q-2 2 -4.5 5t-2.5 8q-2 2 -2.5 3.5t-2.5 3.5l-3 3q-17 25 -29.5 42t-17.5 39
q-10 22 -12.5 45.5t0 45.5t8 41t11.5 31q0 8 0.5 9.5t4.5 5.5l4 9h6v2q4 19 4 30q0 4 -4 15q-8 0 -16 7h-18h-20h-8h-11h-18q-35 0 -66 6t-69 8q-32 8 -66.5 16t-69.5 15q-35 9 -68 15t-66 15q-37 9 -72.5 12.5t-73.5 6.5q-27 5 -58 6t-60 1h-33q-39 0 -80 -4.5t-80 -9.5h-4
h-18q0 2 -3 5.5t-3 8.5t0.5 8t3.5 11l6 3t11 2q40 11 81 15.5t79 6.5h40q29 0 60 -2t58 -6q42 -2 78 -6.5t75 -12.5q32 -8 67.5 -15t72.5 -18q33 -7 64.5 -12.5t64.5 -11.5q67 -18 118 -18h25q23 0 46 1.5t44 10.5q27 5 53 14t49 23q3 5 7 6t13 1q1 0 4 -1q2 -1 4.5 -2.5
t4.5 -3.5q0 -5 1.5 -7.5t1.5 -11.5q0 -3 -2 -7.5t-7 -4.5q0 -5 -5 -12t-14 -12q-6 -7 -9 -12t-10 -13q-5 -2 -12 -9.5t-12 -15.5q-11 -14 -17.5 -24.5t-13.5 -18.5l-4 -2q0 -2 -1 -4q-2 -3 -4 -3zM301 321h-7q-5 0 -15 -3.5t-10 -23.5v-2q0 -5 -4.5 -9t-9.5 -4
q-9 0 -10.5 4.5t-1.5 10.5v100q0 15 4 22t9 10q5 4 13 3h32q25 0 37.5 -17t12.5 -37t-12.5 -37t-37.5 -17zM295 396h-14q-4 -1 -6 -8q-1 -3 -1 -6v-4q0 -5 1 -9q2 -9 10 -12h10q10 0 15.5 6t5.5 13.5t-5.5 13.5t-15.5 6zM480 414v-120q0 -9 -5 -13t-10.5 -4t-10.5 4t-5 13
v14q0 9 -6.5 15t-23.5 11q-10 2 -15.5 -1.5t-7.5 -8.5q-3 -6 -3 -16q0 -4 2.5 -5.5t2.5 -8.5q0 -6 -5.5 -10.5t-13.5 -4.5q-7 0 -9 4.5t-2 10.5v120q0 7 4.5 11t10.5 4t10.5 -4t4.5 -11v-28q0 -6 12 -11t21 -10q11 0 14.5 8.5t5.5 20.5q0 5 -1 10.5t-1 9.5t7 9.5t12 5.5
t8.5 -5.5t3.5 -9.5zM646 351q-1 -14 -6 -27t-14.5 -22.5t-23.5 -14.5t-32 -3q-17 3 -29.5 11.5t-20 20t-10 24.5t-0.5 25q2 13 8 26.5t16.5 24t25.5 16t33 2.5q16 -2 27 -10t17 -20t8 -26t1 -27zM613 357q0 22 -9.5 31t-26.5 13q-11 0 -22 -10.5t-11 -28.5q0 -21 9.5 -31.5
t23.5 -10.5q17 0 26.5 8t9.5 29zM780 414v-120q0 -6 -1.5 -13.5t-12.5 -1.5q-5 0 -7 2.5t-8 4.5q-1 6 -2 8t-8 9v2q-8 13 -15 15.5t-12.5 -1t-9 -9t-3.5 -7.5v-9q0 -9 -4.5 -13t-10.5 -4t-11.5 4t-7.5 13v120q4 4 6 7t6 8q5 0 10.5 -1t11.5 -9q4 -8 8 -14t12 -11
q1 -3 6 -6.5t10 -4t9.5 3t4.5 14.5v13q0 7 4.5 11t10 4t10 -4t4.5 -11zM932 303q-10 -8 -22 -13.5t-23 -5.5q-20 0 -36 9t-26 24t-13.5 33t1.5 36q11 28 39 40.5t58 7.5q6 -4 10 -8q9 -11 5 -25q-4 -5 -15 -3q-5 1 -11 3h-31q-11 -5 -16.5 -16t-5.5 -23q0 -8 3.5 -18.5
t10.5 -15.5q6 -5 10.5 -7t8.5 -7h11h4q4 5 6 5.5l6 1.5h4v7v6q0 8 -8 12q-4 2 -8 2q-7 0 -7 6q-5 2 -4.5 7.5t7.5 10.5h4h7q0 5 0.5 5.5t4.5 0.5q8 0 17 -7t14.5 -17.5t5 -24t-10.5 -26.5zM1069 286q-9 -2 -15 -2h-11q-23 0 -41 13.5t-26 32.5t-5 40.5t21 38.5
q16 19 36.5 21.5t37.5 -1.5q8 -4 10 -11t0.5 -13.5t-7 -10t-12.5 -0.5h-1q-10 2 -19 1t-15 -9q-17 -16 -17 -33t14 -25q8 -6 17.5 -7t20.5 -1q2 0 2 1q10 3 15 -1t6.5 -10.5t-1.5 -13.5t-10 -10zM1223 414v-120q0 -9 -5.5 -13t-11.5 -4t-11.5 4t-5.5 13v14q0 9 -6 15t-22 11
q-10 2 -15 -1.5t-7 -8.5q-3 -6 -3 -16v-14q0 -6 -6.5 -10.5t-14.5 -4.5q-1 0 -5.5 4.5t-4.5 10.5v120q0 7 5 11t10.5 4t10.5 -4t5 -11v-28q0 -6 13.5 -11t19.5 -10q10 0 15 8.5t5 20.5v20q0 4 6.5 9.5t14.5 5.5q6 0 9.5 -5.5t3.5 -9.5zM1366 414v-36v-40q0 -13 -5.5 -23.5
t-16.5 -14.5q-14 -21 -34 -21q-33 0 -42 15q-7 7 -13 19t-6 25v40v36q0 7 5.5 11t10.5 4t12.5 -6t7.5 -14v-23v-45q0 -15 4 -21t16 -6q11 -5 18 2.5t7 21.5v44v27q0 8 4.5 11.5t9.5 8.5q7 0 14.5 -4t7.5 -11zM1505 409l-48 -117q0 -8 -14 -8q-4 0 -8.5 1.5t-4.5 6.5
q-6 21 -12.5 38t-13.5 35q-2 13 -6.5 23t-7.5 21q-2 7 1 13t8.5 8t11.5 -1t11 -13q0 -5 2 -10.5t2 -9.5q1 -5 6.5 -10t11.5 -6.5t11.5 1.5t7.5 15h6v5l2.5 7.5t0.5 5.5q4 11 12.5 15t10.5 0q8 0 9 -6t1 -14zM1553 414v-120q0 -6 -5 -10.5t-10 -4.5q-8 0 -12 4.5t-4 10.5v120
q0 7 7 11t14 4q10 0 10 -15zM1653 279h-48q-11 0 -18.5 7.5t-7.5 13.5v109q0 8 7.5 14t18.5 6h41q8 0 15 -4t7 -9t-3 -12.5t-12 -7.5h-9h-12h-8q-2 -1 -2.5 -2.5t-1.5 -3.5t-1 -4q0 -8 5 -8q3 -5 7 -5.5t13 -0.5q8 0 12 -5t4 -10.5t-4 -10.5t-12 -5h-10h-10q-4 -2 -4.5 -7
t-0.5 -6q0 -6 3 -7.5t6 -6.5q1 -2 3 -3q3 -3 7 -3h15q8 0 12 -4.5t4 -10t-4 -10t-12 -4.5zM1794 414q0 -4 -2 -11t-11 -7h-12q-6 0 -9.5 -5t-5 -11t-2 -11.5t-0.5 -6.5v-68q0 -6 -3 -10.5t-11 -4.5t-13.5 4.5t-5.5 10.5v71q0 22 -6 26.5t-12 4.5h-13q-4 0 -8.5 7.5
t-0.5 12.5q0 13 22 13h80q9 0 11 -5.5t2 -9.5zM1832 279q-7 0 -13 4.5t-6 10.5q0 8 6 14t13 6q5 0 10 -6t5 -14q0 -6 -5 -10.5t-10 -4.5zM1959 286q-9 -2 -15 -2h-11q-24 0 -41.5 13.5t-25.5 32.5t-4.5 40.5t21.5 38.5q12 19 34 21.5t42 -1.5q8 -4 10.5 -11t0.5 -13.5
t-8 -10t-15 -0.5h-4q-8 2 -15 1t-15 -9q-17 -16 -18 -33t12 -25q12 -6 21 -7t19 -1h6v1q8 3 13 -1t6 -10.5t-2 -13.5t-11 -10zM2135 351q-2 -14 -8 -27t-16.5 -22.5t-25 -14.5t-32.5 -3q-17 3 -29 11.5t-19 20t-9.5 24.5t-0.5 25q1 13 7.5 26.5t17 24t25 16t33.5 2.5
q16 -2 27.5 -10t18.5 -20t9.5 -26t1.5 -27zM2101 357q0 22 -11 31t-26 13q-13 0 -23.5 -10.5t-10.5 -28.5q0 -21 10.5 -31.5t23.5 -10.5t25 8t12 29zM2277 414v-120q0 -6 -1.5 -10.5t-12.5 -4.5q-5 0 -9 4.5t-4 10.5v27q-3 11 -6 14t-6 1.5t-5.5 -5t-4.5 -3.5q-4 -8 -4 -7
q-1 -1 0 -1q0 -5 -4 -8.5t-7 -3.5q-7 0 -9 3.5t-9 8.5v1q0 1 -0.5 2.5t-0.5 4.5q-2 0 -5.5 3t-7 3.5t-6 -3.5t-2.5 -17v-20q0 -9 -4.5 -13t-10.5 -4t-10.5 4t-4.5 13v120q0 11 11 13.5t19 -8.5q0 -3 4 -11q2 -4 4 -7q8 -11 18 -15q8 -4 18 -2t21 17q3 0 3.5 4t1.5 4q5 4 6 6
t1 4q2 6 6.5 7t9 -0.5t8 -5t3.5 -6.5z" />
    <glyph glyph-name="uni2009" unicode="&#x2009;" horiz-adv-x="78" 
 />
    <glyph glyph-name="endash" unicode="&#x2013;" horiz-adv-x="698" 
d="M71 249v56h557v-56h-557z" />
    <glyph glyph-name="emdash" unicode="&#x2014;" horiz-adv-x="1017" 
d="M71 249v56h876v-56h-876z" />
    <glyph glyph-name="quoteleft" unicode="&#x2018;" horiz-adv-x="220" 
d="M113 647q17 0 30 -13t13 -31q0 -21 -15 -35t-37 -14q-23 0 -38 16.5t-15 42.5q0 76 105 142l19 -28q-64 -43 -79 -84q7 4 17 4z" />
    <glyph glyph-name="quoteright" unicode="&#x2019;" horiz-adv-x="218" 
d="M124 752q23 0 38 -17t15 -42q0 -76 -105 -142l-19 27q65 46 79 84q-8 -4 -17 -4q-17 0 -30 13t-13 32q0 20 15 34.5t37 14.5z" />
    <glyph glyph-name="quotesinglbase" unicode="&#x201a;" horiz-adv-x="224" 
d="M116 79q23 0 38 -17t15 -42q0 -76 -105 -142l-19 27q65 46 79 84q-8 -4 -17 -4q-17 0 -30 13t-13 32q0 20 15 34.5t37 14.5z" />
    <glyph glyph-name="quotedblleft" unicode="&#x201c;" horiz-adv-x="419" 
d="M185 727q-64 -43 -79 -84q7 4 17 4q17 0 30 -13t13 -31q0 -21 -15 -35t-37 -14q-23 0 -38 16.5t-15 42.5q0 76 105 142zM320 647q17 0 30 -13t13 -31q0 -21 -15 -35t-37 -14q-23 0 -38 16.5t-15 42.5q0 76 105 142l19 -28q-64 -43 -79 -84q7 4 17 4z" />
    <glyph glyph-name="quotedblright" unicode="&#x201d;" horiz-adv-x="413" 
d="M115 754q23 0 38 -16.5t15 -42.5q0 -76 -105 -142l-19 28q64 43 79 84q-7 -4 -17 -4q-17 0 -30 13t-13 31q0 21 15 35t37 14zM311 754q23 0 38 -16.5t15 -42.5q0 -76 -105 -142l-19 28q64 43 79 84q-7 -4 -17 -4q-17 0 -30 13t-13 31q0 21 15 35t37 14z" />
    <glyph glyph-name="quotedblbase" unicode="&#x201e;" horiz-adv-x="416" 
d="M105 77q23 0 38 -16.5t15 -42.5q0 -76 -105 -142l-19 28q64 43 79 84q-7 -4 -17 -4q-17 0 -30 13t-13 31q0 21 15 35t37 14zM301 77q23 0 38 -16.5t15 -42.5q0 -76 -105 -142l-19 28q64 43 79 84q-7 -4 -17 -4q-17 0 -30 13t-13 31q0 21 15 35t37 14z" />
    <glyph glyph-name="dagger" unicode="&#x2020;" horiz-adv-x="480" 
d="M442 496v-53h-174v-621h-56v621h-175v53h175v353h56v-353h174z" />
    <glyph glyph-name="daggerdbl" unicode="&#x2021;" horiz-adv-x="480" 
d="M443 477h-175v-283h175v-53h-175v-319h-56v319h-175v53h175v283h-175v53h175v319h56v-319h175v-53z" />
    <glyph glyph-name="bullet" unicode="&#x2022;" horiz-adv-x="369" 
d="M252 285q-14 -14 -31.5 -20.5t-36.5 -6.5t-36.5 6.5t-31.5 20.5t-21 31.5t-7 36.5t7 36.5t21 31.5q14 15 31.5 22t36.5 7t36.5 -7t31.5 -22q14 -14 21 -31.5t7 -36.5t-7 -36.5t-21 -31.5z" />
    <glyph glyph-name="ellipsis" unicode="&#x2026;" horiz-adv-x="629" 
d="M117 -16q-21 0 -35 14t-14 34t14 33.5t35 13.5q20 0 34 -13.5t14 -33.5q0 -21 -14 -34.5t-34 -13.5zM322 -16q-21 0 -35 14t-14 34t14 33.5t35 13.5q20 0 34 -13.5t14 -33.5q0 -21 -14 -34.5t-34 -13.5zM527 -16q-21 0 -35 14t-14 34t14 33.5t35 13.5q20 0 34 -13.5
t14 -33.5q0 -21 -14 -34.5t-34 -13.5z" />
    <glyph glyph-name="perthousand" unicode="&#x2030;" horiz-adv-x="1296" 
d="M220 389q-74 0 -130 53q-54 52 -54 128q0 75 54 128q55 54 130 54q76 0 130 -54q54 -53 54 -128q0 -76 -54 -128q-55 -53 -130 -53zM120 0l562 739h65l-563 -739h-64zM126 476q39 -39 94 -39t93 39q39 39 39 94t-39 94q-38 39 -93 39t-94 -39q-38 -40 -38 -94t38 -94z
M782 41q-55 -53 -130 -53t-130 53q-54 52 -54 128q0 75 54 128q54 54 130 54t130 -54q54 -53 54 -128q0 -76 -54 -128zM1081 -12q-75 0 -131 53q-54 52 -54 128q0 75 54 128q55 54 131 54q75 0 129 -54q55 -52 55 -128t-55 -128q-55 -53 -129 -53zM520 169q0 -54 38 -94
q39 -39 94 -39t93 38q39 39 39 95t-39 95q-38 39 -93 39t-94 -39q-38 -40 -38 -95zM1081 303q-55 0 -94 -39q-38 -40 -38 -95q0 -54 38 -94q39 -39 94 -39t93 39q39 39 39 94t-39 94q-39 40 -93 40z" />
    <glyph glyph-name="guilsinglleft" unicode="&#x2039;" horiz-adv-x="313" 
d="M192 88l-145 203l145 203h60l-144 -203l144 -203h-60z" />
    <glyph glyph-name="guilsinglright" unicode="&#x203a;" horiz-adv-x="313" 
d="M121 88h-60l144 203l-144 203h60l145 -203z" />
    <glyph glyph-name="fraction" unicode="&#x2044;" horiz-adv-x="171" 
d="M-231 0l578 739h57l-576 -739h-59z" />
    <glyph glyph-name="uni2070" unicode="&#x2070;" horiz-adv-x="368" 
d="M273 533q-37 -32 -89 -32q-27 0 -49 8.5t-40 23.5t-30.5 34.5t-19.5 41.5q-9 34 -12.5 72.5t1.5 75.5t19.5 69t41.5 54q37 32 89 32q27 0 49 -8.5t40 -23.5t30.5 -34.5t19.5 -41.5q10 -34 13.5 -72t-1.5 -75t-20 -69.5t-42 -54.5zM108 593q25 -43 76 -43q50 0 75 43
q26 44 26 114q0 69 -26 113q-25 43 -75 43q-51 0 -76 -43t-25 -113q0 -71 25 -114z" />
    <glyph glyph-name="uni2074" unicode="&#x2074;" horiz-adv-x="347" 
d="M306 650v-42h-45v-101h-46v101h-188l-11 30l213 265h32v-253h45zM79 650h136v169z" />
    <glyph glyph-name="uni2075" unicode="&#x2075;" horiz-adv-x="328" 
d="M164 759q28 0 52.5 -9t41.5 -25.5t27 -40t10 -51.5q0 -29 -10.5 -53t-29.5 -41.5t-45.5 -27.5t-57.5 -10q-68 0 -127 47l24 39q53 -41 101 -41q42 0 68 24.5t26 62.5q0 37 -24 60.5t-62 23.5q-48 0 -81 -38l-31 21l22 201h201v-44h-164l-13 -117q32 19 72 19z" />
    <glyph glyph-name="uni2076" unicode="&#x2076;" horiz-adv-x="345" 
d="M177 501q-36 0 -64 14t-47 39.5t-29 61t-10 77.5q0 91 43 155t127 64q61 0 105 -33l-21 -36q-38 27 -81 27q-65 0 -96 -55q-32 -54 -30 -123q11 32 42 51.5t70 19.5q28 0 52 -9.5t41.5 -27t27.5 -41t10 -51.5q0 -29 -10.5 -53t-29 -42t-44.5 -28t-56 -10zM179 543
q38 0 64 26t26 65q0 38 -26 63t-64 25t-65 -25.5t-27 -63.5q0 -37 26.5 -63.5t65.5 -26.5z" />
    <glyph glyph-name="uni2077" unicode="&#x2077;" horiz-adv-x="294" 
d="M24 901h252v-32l-158 -362h-52l155 350h-197v44z" />
    <glyph glyph-name="uni2078" unicode="&#x2078;" horiz-adv-x="360" 
d="M34 614q0 35 22.5 63t62.5 40v1q-68 29 -68 90q0 45 36 74.5t93 29.5t93.5 -29.5t36.5 -74.5q0 -29 -18 -53t-52 -37v-1q40 -12 63.5 -40t23.5 -63q0 -24 -10.5 -44.5t-30 -36t-46.5 -24t-60 -8.5t-59.5 8.5t-46 24t-30 36t-10.5 44.5zM180 738q28 -2 47 11t27 31t4.5 38
t-20.5 33q-22 19 -58 19t-58.5 -19t-22.5 -47q0 -27 21 -46.5t60 -19.5zM276 619q0 31 -24 53.5t-72 22.5t-72 -22t-24 -54q0 -33 27 -54t69 -21t69 21t27 54z" />
    <glyph glyph-name="uni2079" unicode="&#x2079;" horiz-adv-x="353" 
d="M154 501q-61 0 -104 33l20 36q37 -27 83 -27q63 0 91 52q31 53 29 127h-1q-11 -32 -41.5 -52t-68.5 -20q-57 0 -93 35.5t-36 92.5q0 29 10.5 53.5t28.5 42.5t43.5 28t55.5 10q36 0 63.5 -14t46 -39.5t28 -61.5t9.5 -79q0 -91 -41 -155q-41 -62 -123 -62zM169 690
q29 -2 50.5 14.5t31.5 40.5t6.5 51t-24.5 47q-26 27 -64 27t-63 -25.5t-25 -65.5q0 -38 25 -63.5t63 -25.5z" />
    <glyph glyph-name="uni2080" unicode="&#x2080;" horiz-adv-x="368" 
d="M273 -129q-37 -32 -89 -32q-54 0 -89.5 32t-49.5 77q-9 34 -12.5 72t1.5 74.5t19.5 69t41.5 54.5q37 32 89 32q54 0 89.5 -31.5t49.5 -76.5q10 -34 13.5 -72t-1.5 -75t-20 -69.5t-42 -54.5zM108 -68q26 -44 76 -44q49 0 75 44t26 113t-26 113q-25 43 -75 43
q-51 0 -76 -43t-25 -113t25 -113z" />
    <glyph glyph-name="uni2081" unicode="&#x2081;" horiz-adv-x="258" 
d="M154 239h38v-394h-51v324l-89 -72l-28 38z" />
    <glyph glyph-name="uni2082" unicode="&#x2082;" horiz-adv-x="335" 
d="M114 -109h176v-46h-245l-1 41l120 129q36 40 53.5 67t17.5 53q0 30 -21 49.5t-53 19.5q-49 0 -96 -46l-28 36q59 56 126 56q54 0 88 -32t34 -83q0 -54 -72 -135z" />
    <glyph glyph-name="uni2083" unicode="&#x2083;" horiz-adv-x="313" 
d="M145 -161q-64 0 -125 40l23 40q52 -34 101 -34q42 0 65 19.5t23 51.5t-22.5 51t-67.5 19h-47v45h43q40 0 63 19.5t23 48.5q0 30 -22 47.5t-56 17.5q-49 0 -92 -37l-25 35q48 48 121 48q55 0 90 -29.5t35 -74.5q0 -34 -19.5 -58.5t-51.5 -34.5v-2q37 -8 58 -34.5t21 -62.5
q0 -51 -38.5 -83t-99.5 -32z" />
    <glyph glyph-name="uni2084" unicode="&#x2084;" horiz-adv-x="347" 
d="M306 -12v-42h-45v-101h-46v101h-188l-11 30l213 265h32v-253h45zM79 -12h136v169z" />
    <glyph glyph-name="uni2085" unicode="&#x2085;" horiz-adv-x="328" 
d="M164 97q28 0 52.5 -9t41.5 -25.5t27 -40t10 -51.5q0 -29 -10.5 -53t-29.5 -41.5t-45.5 -27.5t-57.5 -10q-68 0 -127 47l24 39q53 -41 101 -41q42 0 68 24.5t26 62.5q0 37 -24 60.5t-62 23.5q-48 0 -81 -38l-31 21l22 201h201v-44h-164l-13 -117q32 19 72 19z" />
    <glyph glyph-name="uni2086" unicode="&#x2086;" horiz-adv-x="345" 
d="M177 -161q-36 0 -64 14t-47 39.5t-29 61t-10 77.5q0 91 43 155t127 64q61 0 105 -33l-21 -36q-38 27 -81 27q-65 0 -96 -55q-32 -54 -30 -123q11 32 42 51.5t70 19.5q28 0 52 -9.5t41.5 -27t27.5 -41t10 -51.5q0 -29 -10.5 -53t-29 -42t-44.5 -28t-56 -10zM179 -119
q38 0 64 26t26 65q0 38 -26 63t-64 25t-65 -25.5t-27 -63.5q0 -37 26.5 -63.5t65.5 -26.5z" />
    <glyph glyph-name="uni2087" unicode="&#x2087;" horiz-adv-x="294" 
d="M24 239h252v-32l-158 -362h-52l155 350h-197v44z" />
    <glyph glyph-name="uni2088" unicode="&#x2088;" horiz-adv-x="360" 
d="M34 -48q0 35 22.5 63t62.5 40v1q-68 29 -68 90q0 45 36 74.5t93 29.5t93.5 -29.5t36.5 -74.5q0 -29 -18 -53t-52 -37v-1q40 -12 63.5 -40t23.5 -63q0 -24 -10.5 -44.5t-30 -36t-46.5 -24t-60 -8.5t-59.5 8.5t-46 24t-30 36t-10.5 44.5zM180 76q28 -2 47 11t27 31t4.5 38
t-20.5 33q-22 19 -58 19t-58.5 -19t-22.5 -47q0 -27 21 -46.5t60 -19.5zM276 -43q0 31 -24 53.5t-72 22.5t-72 -22t-24 -54q0 -33 27 -54t69 -21t69 21t27 54z" />
    <glyph glyph-name="uni2089" unicode="&#x2089;" horiz-adv-x="353" 
d="M154 -161q-61 0 -104 33l20 36q37 -27 83 -27q62 0 91 53q30 53 29 126h-1q-11 -32 -41.5 -52t-68.5 -20q-57 0 -93 35.5t-36 92.5q0 29 10.5 53.5t28.5 42.5t43.5 28t55.5 10q36 0 63.5 -14t46 -39.5t28 -61.5t9.5 -79q0 -92 -41 -154q-41 -63 -123 -63zM169 28
q29 -2 50.5 14.5t31.5 40.5t6.5 51t-24.5 47q-26 27 -64 27t-63 -25.5t-25 -65.5q0 -38 25 -63.5t63 -25.5z" />
    <glyph glyph-name="Euro" unicode="&#x20ac;" horiz-adv-x="736" 
d="M476 696q-104 0 -183 -64q-78 -62 -107 -166h419l-22 -54h-408q-1 -14 -1.5 -24.5t-0.5 -18.5q0 -26 3 -50h376l-20 -54h-344q30 -98 108 -159q77 -61 179 -61q95 0 183 49l11 -56q-88 -49 -195 -49q-124 0 -221 76q-96 77 -128 200h-90l19 54h61q-3 24 -3 50
q0 8 0.5 18.5t1.5 24.5h-73l21 54h61q28 127 126 207q97 79 225 79q129 0 224 -68l-28 -49q-86 61 -194 61z" />
    <glyph glyph-name="trademark" unicode="&#x2122;" horiz-adv-x="795" 
d="M35 698v41h265v-41h-108v-309h-48v309h-109zM686 739h23v-350h-44v254l-132 -184h-19l-131 184v-254h-44v350h24l160 -224z" />
    <glyph glyph-name="estimated" unicode="&#x212e;" horiz-adv-x="965" 
d="M490 -17q-184 0 -312 110q-127 109 -127 273q0 165 127 274q127 111 312 111q183 0 310 -109q129 -110 129 -281v-21q0 -5 -7 -5h-686v-230q0 -3 4 -4q103 -72 250 -72q103 0 189 36.5t137 105.5l35 -29q-30 -37 -69.5 -66.5t-85.5 -50t-98.5 -31.5t-107.5 -11zM236 385
h508v244q0 2 -3 4q-106 73 -251 73q-146 0 -252 -73q-2 -2 -2 -5v-243z" />
    <glyph glyph-name="uni2150" unicode="&#x2150;" horiz-adv-x="842" 
d="M161 346v325l-89 -72l-28 38l130 104h38v-395h-51zM690 739h57l-577 -739h-58zM549 394h252v-32l-158 -362h-52l155 350h-197v44z" />
    <glyph glyph-name="uni2151" unicode="&#x2151;" horiz-adv-x="844" 
d="M156 346v325l-89 -72l-28 38l130 104h38v-395h-51zM682 739h57l-577 -739h-58zM650 405q36 0 63.5 -14t46 -39.5t28 -61.5t9.5 -79q0 -91 -41 -155q-41 -62 -123 -62q-61 0 -104 33l20 36q37 -27 83 -27q63 0 91 52q31 53 29 127h-1q-11 -32 -41.5 -52t-68.5 -20
q-57 0 -93 35.5t-36 92.5q0 29 10.5 53.5t28.5 42.5t43.5 28t55.5 10zM648 183q29 -2 50.5 14.5t31.5 40.5t6.5 51t-24.5 47q-26 27 -64 27t-63 -25.5t-25 -65.5q0 -38 25 -63.5t63 -25.5z" />
    <glyph glyph-name="uni2153" unicode="&#x2153;" horiz-adv-x="827" 
d="M156 346v325l-89 -72l-28 38l130 104h38v-395h-51zM664 739h57l-577 -739h-58zM700 207q37 -8 58 -34.5t21 -62.5q0 -51 -38.5 -83t-99.5 -32q-64 0 -125 40l23 40q52 -34 101 -34q42 0 65 19.5t23 51.5t-22.5 51t-67.5 19h-47v45h43q40 0 63 19.5t23 48.5q0 30 -22 47.5
t-56 17.5q-49 0 -92 -37l-25 35q48 48 121 48q55 0 90 -29.5t35 -74.5q0 -34 -19.5 -58.5t-51.5 -34.5v-2z" />
    <glyph glyph-name="uni2154" unicode="&#x2154;" horiz-adv-x="826" 
d="M293 393v-46h-245l-1 41l120 129q36 40 53.5 67t17.5 53q0 30 -21 49.5t-53 19.5q-49 0 -96 -46l-28 36q59 56 126 56q54 0 88 -32t34 -83q0 -54 -72 -135l-99 -109h176zM697 739h57l-577 -739h-58zM684 205q37 -8 58 -34.5t21 -62.5q0 -51 -38.5 -83t-99.5 -32
q-64 0 -125 40l23 40q52 -34 101 -34q42 0 65 19.5t23 51.5t-22.5 51t-67.5 19h-47v45h43q40 0 63 19.5t23 48.5q0 30 -22 47.5t-56 17.5q-49 0 -92 -37l-25 35q48 48 121 48q55 0 90 -29.5t35 -74.5q0 -34 -19.5 -58.5t-51.5 -34.5v-2z" />
    <glyph glyph-name="uni2155" unicode="&#x2155;" horiz-adv-x="836" 
d="M155 346v325l-89 -72l-28 38l130 104h38v-395h-51zM666 739h57l-577 -739h-58zM668 252q28 0 52.5 -9t41.5 -25.5t27 -40t10 -51.5q0 -29 -10.5 -53t-29.5 -41.5t-45.5 -27.5t-57.5 -10q-68 0 -127 47l24 39q53 -41 101 -41q42 0 68 24.5t26 62.5q0 37 -24 60.5t-62 23.5
q-48 0 -81 -38l-31 21l22 201h201v-44h-164l-13 -117q32 19 72 19z" />
    <glyph glyph-name="uni2156" unicode="&#x2156;" horiz-adv-x="829" 
d="M293 393v-46h-245l-1 41l120 129q36 40 53.5 67t17.5 53q0 30 -21 49.5t-53 19.5q-49 0 -96 -46l-28 36q59 56 126 56q54 0 88 -32t34 -83q0 -54 -72 -135l-99 -109h176zM698 739h57l-576 -739h-59zM645 252q28 0 52.5 -9t41.5 -25.5t27 -40t10 -51.5q0 -29 -10.5 -53
t-29.5 -41.5t-45.5 -27.5t-57.5 -10q-68 0 -127 47l24 39q53 -41 101 -41q42 0 68 24.5t26 62.5q0 37 -24 60.5t-62 23.5q-48 0 -81 -38l-31 21l22 201h201v-44h-164l-13 -117q32 19 72 19z" />
    <glyph glyph-name="uni2157" unicode="&#x2157;" horiz-adv-x="818" 
d="M148 387q42 0 65 19.5t23 51.5t-22.5 51t-67.5 19h-47v45h43q40 0 63 19.5t23 48.5q0 30 -22 47.5t-56 17.5q-49 0 -92 -37l-25 35q48 48 121 48q55 0 90 -29.5t35 -74.5q0 -34 -19.5 -58.5t-51.5 -34.5v-2q37 -8 58 -34.5t21 -62.5q0 -51 -38.5 -83t-99.5 -32
q-64 0 -125 40l23 40q52 -34 101 -34zM684 739h57l-577 -739h-58zM633 252q28 0 52.5 -9t41.5 -25.5t27 -40t10 -51.5q0 -29 -10.5 -53t-29.5 -41.5t-45.5 -27.5t-57.5 -10q-68 0 -127 47l24 39q53 -41 101 -41q42 0 68 24.5t26 62.5q0 37 -24 60.5t-62 23.5q-48 0 -81 -38
l-31 21l22 201h201v-44h-164l-13 -117q32 19 72 19z" />
    <glyph glyph-name="uni2158" unicode="&#x2158;" horiz-adv-x="857" 
d="M221 347v101h-188l-11 30l213 265h32v-253h45v-42h-45v-101h-46zM716 739h57l-576 -739h-59zM85 490h136v169zM664 252q28 0 52.5 -9t41.5 -25.5t27 -40t10 -51.5q0 -29 -10.5 -53t-29.5 -41.5t-45.5 -27.5t-57.5 -10q-68 0 -127 47l24 39q53 -41 101 -41q42 0 68 24.5
t26 62.5q0 37 -24 60.5t-62 23.5q-48 0 -81 -38l-31 21l22 201h201v-44h-164l-13 -117q32 19 72 19z" />
    <glyph glyph-name="uni2159" unicode="&#x2159;" horiz-adv-x="839" 
d="M155 346v325l-89 -72l-28 38l130 104h38v-395h-51zM669 739h57l-576 -739h-59zM663 252q28 0 52.5 -9t41.5 -25.5t27 -40t10 -51.5q0 -29 -10.5 -53t-29.5 -41.5t-45.5 -27.5t-57.5 -10q-68 0 -127 47l24 39q53 -41 101 -41q42 0 68 24.5t26 62.5q0 37 -24 60.5t-62 23.5
q-48 0 -81 -38l-31 21l22 201h201v-44h-164l-13 -117q32 19 72 19z" />
    <glyph glyph-name="uni215A" unicode="&#x215a;" horiz-adv-x="848" 
d="M152 386q42 0 68 24.5t26 62.5q0 37 -24 60.5t-62 23.5q-48 0 -81 -38l-31 21l22 201h201v-44h-164l-13 -117q32 19 72 19q28 0 52.5 -9t41.5 -25.5t27 -40t10 -51.5q0 -29 -10.5 -53t-29.5 -41.5t-45.5 -27.5t-57.5 -10q-68 0 -127 47l24 39q53 -41 101 -41zM686 739h58
l-577 -739h-59zM657 256q28 0 52 -9.5t41.5 -27t27.5 -41t10 -51.5q0 -29 -10.5 -53t-29 -42t-44.5 -28t-56 -10q-36 0 -64 14t-47 39.5t-29 61t-10 77.5q0 91 43 155t127 64q61 0 105 -33l-21 -36q-38 27 -81 27q-65 0 -96 -55q-32 -54 -30 -123q11 32 42 51.5t70 19.5z
M650 36q38 0 64 26t26 65q0 38 -26 63t-64 25t-65 -25.5t-27 -63.5q0 -37 26.5 -63.5t65.5 -26.5z" />
    <glyph glyph-name="oneeighth" unicode="&#x215b;" 
d="M156 346v325l-89 -72l-28 38l130 104h38v-395h-51zM693 739h57l-577 -739h-58zM723 210q40 -12 63.5 -40t23.5 -63q0 -24 -10.5 -44.5t-30 -36t-46.5 -24t-60 -8.5t-59.5 8.5t-46 24t-30 36t-10.5 44.5q0 35 22.5 63t62.5 40v1q-68 29 -68 90q0 45 36 74.5t93 29.5
t93.5 -29.5t36.5 -74.5q0 -29 -18 -53t-52 -37v-1zM582 297q0 -27 21 -46.5t60 -19.5q28 -2 47 11t27 31t4.5 38t-20.5 33q-22 19 -58 19t-58.5 -19t-22.5 -47zM759 112q0 31 -24 53.5t-72 22.5t-72 -22t-24 -54q0 -33 27 -54t69 -21t69 21t27 54z" />
    <glyph glyph-name="threeeighths" unicode="&#x215c;" horiz-adv-x="859" 
d="M147 341q-64 0 -125 40l23 40q52 -34 101 -34q42 0 65 19.5t23 51.5t-22.5 51t-67.5 19h-47v45h43q40 0 63 19.5t23 48.5q0 30 -22 47.5t-56 17.5q-49 0 -92 -37l-25 35q48 48 121 48q55 0 90 -29.5t35 -74.5q0 -34 -19.5 -58.5t-51.5 -34.5v-2q37 -8 58 -34.5t21 -62.5
q0 -51 -38.5 -83t-99.5 -32zM117 0l578 739h57l-576 -739h-59zM517 107q0 35 22.5 63t62.5 40v1q-68 29 -68 90q0 45 36 74.5t93 29.5t93.5 -29.5t36.5 -74.5q0 -29 -18 -53t-52 -37v-1q40 -12 63.5 -40t23.5 -63q0 -24 -10.5 -44.5t-30 -36t-46.5 -24t-60 -8.5t-59.5 8.5
t-46 24t-30 36t-10.5 44.5zM663 231q28 -2 47 11t27 31t4.5 38t-20.5 33q-22 19 -58 19t-58.5 -19t-22.5 -47q0 -27 21 -46.5t60 -19.5zM759 112q0 31 -24 53.5t-72 22.5t-72 -22t-24 -54q0 -33 27 -54t69 -21t69 21t27 54z" />
    <glyph glyph-name="fiveeighths" unicode="&#x215d;" horiz-adv-x="857" 
d="M151 386q42 0 68 24.5t26 62.5q0 37 -24 60.5t-62 23.5q-48 0 -81 -38l-31 21l22 201h201v-44h-164l-13 -117q32 19 72 19q28 0 52.5 -9t41.5 -25.5t27 -40t10 -51.5q0 -29 -10.5 -53t-29.5 -41.5t-45.5 -27.5t-57.5 -10q-68 0 -127 47l24 39q53 -41 101 -41zM693 739h57
l-577 -739h-58zM721 210q40 -12 63.5 -40t23.5 -63q0 -24 -10.5 -44.5t-30 -36t-46.5 -24t-60 -8.5t-59.5 8.5t-46 24t-30 36t-10.5 44.5q0 35 22.5 63t62.5 40v1q-68 29 -68 90q0 45 36 74.5t93 29.5t93.5 -29.5t36.5 -74.5q0 -29 -18 -53t-52 -37v-1zM580 297
q0 -27 21 -46.5t60 -19.5q28 -2 47 11t27 31t4.5 38t-20.5 33q-22 19 -58 19t-58.5 -19t-22.5 -47zM757 112q0 31 -24 53.5t-72 22.5t-72 -22t-24 -54q0 -33 27 -54t69 -21t69 21t27 54z" />
    <glyph glyph-name="seveneighths" unicode="&#x215e;" horiz-adv-x="802" 
d="M73 347l155 350h-197v44h252v-32l-158 -362h-52zM632 739h57l-576 -739h-59zM665 210q40 -12 63.5 -40t23.5 -63q0 -24 -10.5 -44.5t-30 -36t-46.5 -24t-60 -8.5t-59.5 8.5t-46 24t-30 36t-10.5 44.5q0 35 22.5 63t62.5 40v1q-68 29 -68 90q0 45 36 74.5t93 29.5
t93.5 -29.5t36.5 -74.5q0 -29 -18 -53t-52 -37v-1zM524 297q0 -27 21 -46.5t60 -19.5q28 -2 47 11t27 31t4.5 38t-20.5 33q-22 19 -58 19t-58.5 -19t-22.5 -47zM701 112q0 31 -24 53.5t-72 22.5t-72 -22t-24 -54q0 -33 27 -54t69 -21t69 21t27 54z" />
    <glyph glyph-name="partialdiff" unicode="&#x2202;" horiz-adv-x="624" 
d="M298 -13q-108 0 -180 73t-72 183q0 107 71 180q70 73 175 73q76 0 138 -42q63 -43 85 -111q-5 124 -77.5 232t-204.5 183l38 41q34 -19 69.5 -46t78.5 -72t75 -96q33 -51 55 -120.5t22 -144.5q0 -145 -77 -240q-77 -93 -196 -93zM295 41q84 0 140 59q56 61 56 144
q0 82 -57 141q-55 58 -139 58q-82 0 -137 -58q-54 -57 -54 -141q0 -86 54 -144q54 -59 137 -59z" />
    <glyph glyph-name="product" unicode="&#x220f;" horiz-adv-x="707" 
d="M671 719v-59h-107v-778h-62v778h-297v-778h-61v778h-108v59h635z" />
    <glyph glyph-name="summation" unicode="&#x2211;" horiz-adv-x="616" 
d="M44 -179v55l226 403l-226 405v55h537v-60h-465l221 -400l-221 -398h465v-60h-537z" />
    <glyph glyph-name="minus" unicode="&#x2212;" horiz-adv-x="586" 
d="M74 311v56h438v-56h-438z" />
    <glyph glyph-name="radical" unicode="&#x221a;" horiz-adv-x="667" 
d="M291 -118l-184 432h-109v57h152l165 -394l301 831h66l-342 -926h-49z" />
    <glyph glyph-name="infinity" unicode="&#x221e;" horiz-adv-x="906" 
d="M677 551q72 0 125 -53q52 -52 52 -127q0 -78 -54 -130q-55 -53 -126 -53q-60 0 -112.5 37.5t-112.5 104.5l-55 -57q-10 -9 -22 -19.5t-27 -22.5q-30 -24 -58 -34t-59 -10q-72 0 -125 53q-51 52 -51 128q0 77 53 130q55 53 130 53q50 0 96 -31q45 -31 119 -115
q78 82 126 113q49 33 101 33zM227 238q22 0 42.5 7.5t43 23t47.5 40t56 58.5q-36 40 -63.5 66.5t-47.5 39.5q-38 27 -70 27q-55 0 -92 -39q-37 -37 -37 -94q0 -54 35 -92q36 -37 86 -37zM673 239q51 0 89 38q38 40 38 95t-36 91q-34 37 -88 37q-41 0 -78 -27
q-19 -13 -47.5 -39.5t-66.5 -66.5q57 -64 100.5 -96t88.5 -32z" />
    <glyph glyph-name="integral" unicode="&#x222b;" horiz-adv-x="417" 
d="M81 -210q-60 0 -104 32l22 46q34 -24 78 -24q46 0 73.5 34.5t27.5 101.5v659q0 91 43 138t112 47q59 0 107 -33l-24 -46q-37 25 -80 25q-45 0 -72 -32.5t-27 -98.5v-659q0 -45 -12 -80.5t-33 -60t-49.5 -37t-61.5 -12.5z" />
    <glyph glyph-name="approxequal" unicode="&#x2248;" horiz-adv-x="638" 
d="M428 397q-43 0 -105 34t-93 34q-36 0 -61 -15t-52 -49l-40 29q57 89 155 89q44 0 108 -34t91 -34q33 0 54.5 13.5t45.5 45.5l40 -31q-54 -82 -143 -82zM430 219q-43 0 -105 34t-93 34q-36 0 -61 -15t-52 -49l-40 29q57 89 155 89q44 0 108 -34t91 -34q33 0 54.5 13.5
t45.5 45.5l40 -31q-54 -82 -143 -82z" />
    <glyph glyph-name="notequal" unicode="&#x2260;" horiz-adv-x="586" 
d="M512 386h-168l-56 -117h224v-55h-250l-57 -121h-54l58 121h-135v55h161l55 117h-216v55h242l58 121h53l-57 -121h142v-55z" />
    <glyph glyph-name="lessequal" unicode="&#x2264;" horiz-adv-x="593" 
d="M511 192l-443 211v32l443 211v-64l-355 -163l355 -164v-63zM511 71h-448v55h448v-55z" />
    <glyph glyph-name="greaterequal" unicode="&#x2265;" horiz-adv-x="593" 
d="M82 192v63l355 164l-355 163v64l443 -211v-32zM82 71v55h448v-55h-448z" />
    <glyph glyph-name="lozenge" unicode="&#x25ca;" horiz-adv-x="700" 
d="M329 -42l-297 418l297 416h42l297 -416l-297 -418h-42zM350 23l249 354l-249 351l-249 -351z" />
    <glyph glyph-name="NULL" horiz-adv-x="0" 
 />
    <glyph glyph-name="Euro.osf" horiz-adv-x="549" 
d="M143 205q22 -76 81 -121t144 -45q84 0 160 49v-54q-69 -45 -161 -45q-106 0 -183 59q-75 58 -99 157h-74l18 47h48q-1 12 -1.5 21t-0.5 15v19t1 13h-60l18 48h50q25 99 102 161q77 61 181 61q111 0 185 -61l-27 -43q-65 54 -156 54q-81 0 -142 -48q-61 -46 -84 -124h339
l-20 -48h-328q-2 -20 -2 -32t2 -36h304l-19 -47h-276z" />
    <glyph glyph-name="I_J.loclNLD" horiz-adv-x="797" 
d="M101 739h61v-739h-61v739zM476 -12q-127 0 -208 98l41 43q30 -39 74 -61t93 -22q36 0 66.5 12.5t52.5 36t34.5 57t12.5 75.5v512h62v-508q0 -118 -64 -181q-65 -62 -164 -62z" />
    <glyph glyph-name="Iacute_J.loclNLD" horiz-adv-x="793" 
d="M110 796l59 160h77l-85 -160h-51zM648 796l59 160h77l-85 -160h-51zM104 739h61v-739h-61v739zM479 -12q-127 0 -208 98l41 43q30 -39 74 -61t93 -22q36 0 66.5 12.5t52.5 36t34.5 57t12.5 75.5v512h62v-508q0 -118 -64 -181q-65 -62 -164 -62z" />
    <glyph glyph-name="J.loclNLD" horiz-adv-x="543" 
d="M398 796l59 160h77l-85 -160h-51zM229 -12q-127 0 -208 98l41 43q30 -39 74 -61t93 -22q36 0 66.5 12.5t52.5 36t34.5 57t12.5 75.5v512h62v-508q0 -118 -64 -181q-65 -62 -164 -62z" />
    <glyph glyph-name="Jacute" horiz-adv-x="543" 
d="M400 796l59 160h77l-85 -160h-51zM229 -12q-127 0 -208 98l41 43q30 -39 74 -61t93 -22q36 0 66.5 12.5t52.5 36t34.5 57t12.5 75.5v512h62v-508q0 -118 -64 -181q-65 -62 -164 -62z" />
    <glyph glyph-name="_1" horiz-adv-x="0" 
 />
    <glyph glyph-name="a.ss02" horiz-adv-x="552" 
d="M257 548q97 0 159 -57q62 -56 62 -167v-324h-58v90q-28 -49 -78.5 -77.5t-117.5 -28.5q-87 0 -139 48q-51 49 -51 123q0 73 55 117.5t161 44.5q132 0 170 12q-2 81 -45.5 122.5t-118.5 41.5q-94 0 -165 -53l-31 45q31 26 85 44.5t112 18.5zM227 40q86 0 139 60
q53 61 53 154v19q-39 -10 -144 -10q-88 0 -133.5 -24t-45.5 -85q0 -54 35.5 -84t95.5 -30z" />
    <glyph glyph-name="aacute.ss02" horiz-adv-x="552" 
d="M365 781l-85 -160h-51l59 160h77zM257 548q97 0 159 -57q62 -56 62 -167v-324h-58v90q-28 -49 -78.5 -77.5t-117.5 -28.5q-87 0 -139 48q-51 49 -51 123q0 73 55 117.5t161 44.5q132 0 170 12q-2 81 -45.5 122.5t-118.5 41.5q-94 0 -165 -53l-31 45q31 26 85 44.5
t112 18.5zM227 40q86 0 139 60q53 61 53 154v19q-39 -10 -144 -10q-88 0 -133.5 -24t-45.5 -85q0 -54 35.5 -84t95.5 -30z" />
    <glyph glyph-name="abreve.ss02" horiz-adv-x="552" 
d="M158 776q1 -57 30 -84.5t78 -27.5q51 0 79.5 27.5t29.5 84.5h55q-1 -73 -45 -116.5t-119 -43.5t-118 43.5t-44 116.5h54zM257 548q97 0 159 -57q62 -56 62 -167v-324h-58v90q-28 -49 -78.5 -77.5t-117.5 -28.5q-87 0 -139 48q-51 49 -51 123q0 73 55 117.5t161 44.5
q132 0 170 12q-2 81 -45.5 122.5t-118.5 41.5q-94 0 -165 -53l-31 45q31 26 85 44.5t112 18.5zM227 40q86 0 139 60q53 61 53 154v19q-39 -10 -144 -10q-88 0 -133.5 -24t-45.5 -85q0 -54 35.5 -84t95.5 -30z" />
    <glyph glyph-name="acircumflex.ss02" horiz-adv-x="552" 
d="M266 724l-92 -104h-64l138 155h37l138 -155h-65zM257 548q97 0 159 -57q62 -56 62 -167v-324h-58v90q-28 -49 -78.5 -77.5t-117.5 -28.5q-87 0 -139 48q-51 49 -51 123q0 73 55 117.5t161 44.5q132 0 170 12q-2 81 -45.5 122.5t-118.5 41.5q-94 0 -165 -53l-31 45
q31 26 85 44.5t112 18.5zM227 40q86 0 139 60q53 61 53 154v19q-39 -10 -144 -10q-88 0 -133.5 -24t-45.5 -85q0 -54 35.5 -84t95.5 -30z" />
    <glyph glyph-name="acute.case" horiz-adv-x="310" 
d="M54 796l59 160h77l-85 -160h-51z" />
    <glyph glyph-name="adieresis.ss02" horiz-adv-x="552" 
d="M122 680q0 21 16 37t39 16t38.5 -16t15.5 -37q0 -23 -15.5 -39t-38.5 -16t-39 16t-16 39zM306 680q0 21 16 37t39 16t39 -16t16 -37q0 -23 -16 -39t-39 -16t-39 16t-16 39zM257 548q97 0 159 -57q62 -56 62 -167v-324h-58v90q-28 -49 -78.5 -77.5t-117.5 -28.5
q-87 0 -139 48q-51 49 -51 123q0 73 55 117.5t161 44.5q132 0 170 12q-2 81 -45.5 122.5t-118.5 41.5q-94 0 -165 -53l-31 45q31 26 85 44.5t112 18.5zM227 40q86 0 139 60q53 61 53 154v19q-39 -10 -144 -10q-88 0 -133.5 -24t-45.5 -85q0 -54 35.5 -84t95.5 -30z" />
    <glyph glyph-name="agrave.ss02" horiz-adv-x="552" 
d="M302 621h-51l-85 160h77zM257 548q97 0 159 -57q62 -56 62 -167v-324h-58v90q-28 -49 -78.5 -77.5t-117.5 -28.5q-87 0 -139 48q-51 49 -51 123q0 73 55 117.5t161 44.5q132 0 170 12q-2 81 -45.5 122.5t-118.5 41.5q-94 0 -165 -53l-31 45q31 26 85 44.5t112 18.5z
M227 40q86 0 139 60q53 61 53 154v19q-39 -10 -144 -10q-88 0 -133.5 -24t-45.5 -85q0 -54 35.5 -84t95.5 -30z" />
    <glyph glyph-name="amacron.ss02" horiz-adv-x="552" 
d="M415 712v-54l-302 -1v55h302zM257 548q97 0 159 -57q62 -56 62 -167v-324h-58v90q-28 -49 -78.5 -77.5t-117.5 -28.5q-87 0 -139 48q-51 49 -51 123q0 73 55 117.5t161 44.5q132 0 170 12q-2 81 -45.5 122.5t-118.5 41.5q-94 0 -165 -53l-31 45q31 26 85 44.5t112 18.5z
M227 40q86 0 139 60q53 61 53 154v19q-39 -10 -144 -10q-88 0 -133.5 -24t-45.5 -85q0 -54 35.5 -84t95.5 -30z" />
    <glyph glyph-name="aogonek.ss02" horiz-adv-x="553" 
d="M493 -229q-42 -30 -89 -30q-48 0 -78 29t-30 77q0 93 124 157v86q-28 -49 -78.5 -77.5t-117.5 -28.5q-87 0 -139 48q-51 49 -51 123q0 73 55 117.5t161 44.5q132 0 170 12q-2 81 -45.5 122.5t-118.5 41.5q-94 0 -165 -53l-31 45q31 26 85 44.5t112 18.5q97 0 159 -57
q62 -56 62 -167v-324h1q-61 -27 -95.5 -66.5t-34.5 -77.5q0 -27 18 -45.5t44 -18.5q29 0 58 20zM227 40q86 0 139 60q53 61 53 154v19q-39 -10 -144 -10q-88 0 -133.5 -24t-45.5 -85q0 -54 35.5 -84t95.5 -30z" />
    <glyph glyph-name="aring.ss02" horiz-adv-x="552" 
d="M268 604q-23 0 -43 8.5t-35 23t-24 34t-9 42.5t9 43t24 35t35 23.5t43 8.5q47 0 79 -32q33 -32 33 -78q0 -23 -8.5 -42.5t-23.5 -34t-35.5 -23t-44.5 -8.5zM317 762q-20 20 -49 20t-49 -20t-20 -49t20 -49t49 -20t49 20q21 20 21 49t-21 49zM257 548q97 0 159 -57
q62 -56 62 -167v-324h-58v90q-28 -49 -78.5 -77.5t-117.5 -28.5q-87 0 -139 48q-51 49 -51 123q0 73 55 117.5t161 44.5q132 0 170 12q-2 81 -45.5 122.5t-118.5 41.5q-94 0 -165 -53l-31 45q31 26 85 44.5t112 18.5zM227 40q86 0 139 60q53 61 53 154v19q-39 -10 -144 -10
q-88 0 -133.5 -24t-45.5 -85q0 -54 35.5 -84t95.5 -30z" />
    <glyph glyph-name="at.case" horiz-adv-x="960" 
d="M619 558h53v-279q0 -39 19 -60t48 -21q54 0 92 60q38 61 38 146q0 144 -112 249q-111 105 -265 105q-162 0 -274 -117q-113 -116 -113 -282q0 -167 117 -282q116 -115 287 -115q81 0 155.5 27.5t129.5 78.5l30 -40q-27 -25 -62 -46.5t-76.5 -37t-87 -24.5t-93.5 -9
q-94 -2 -178 33.5t-146.5 97.5t-98 144t-33.5 172q-2 60 13.5 117.5t44.5 108t70 92.5t91 72t106.5 46t116.5 15q178 0 305 -121t127 -286q0 -107 -56 -181q-56 -72 -133 -72q-46 0 -75 25.5t-36 61.5q-26 -42 -68 -64.5t-93 -22.5q-83 0 -140 60q-56 62 -56 150
q0 91 58 152q59 62 143 62q48 0 88 -20.5t64 -54.5v60zM469 198q63 0 107 47t44 115q0 70 -43 116q-44 47 -106 47q-63 0 -107 -47t-44 -116q0 -70 42 -116t107 -46z" />
    <glyph glyph-name="atilde.ss02" horiz-adv-x="552" 
d="M209 683q-40 0 -63 -50l-37 17q11 37 38.5 60t63.5 23q31 0 69 -27q40 -26 59 -26q20 0 37 15t24 35l36 -16q-10 -37 -37 -60t-62 -23q-32 0 -70 26t-58 26zM257 548q97 0 159 -57q62 -56 62 -167v-324h-58v90q-28 -49 -78.5 -77.5t-117.5 -28.5q-87 0 -139 48
q-51 49 -51 123q0 73 55 117.5t161 44.5q132 0 170 12q-2 81 -45.5 122.5t-118.5 41.5q-94 0 -165 -53l-31 45q31 26 85 44.5t112 18.5zM227 40q86 0 139 60q53 61 53 154v19q-39 -10 -144 -10q-88 0 -133.5 -24t-45.5 -85q0 -54 35.5 -84t95.5 -30z" />
    <glyph glyph-name="backslash.case" horiz-adv-x="515" 
d="M488 0h-56l-407 739h56z" />
    <glyph glyph-name="braceleft.case" horiz-adv-x="347" 
d="M294 829q-112 0 -112 -120q0 -39 3 -118q2 -40 3 -65.5t1 -37.5q0 -48 -23 -80.5t-61 -48.5q84 -35 84 -129q0 -12 -1 -38t-3 -66q-3 -80 -3 -117q0 -120 112 -120h36v-51h-39q-167 0 -167 174q0 41 3 121q2 40 3 65t1 35q0 51 -28 74.5t-76 30.5v42q104 17 104 105
q0 10 -1 34.5t-3 64.5q-3 79 -3 123q0 87 42.5 130t124.5 43h39v-51h-36z" />
    <glyph glyph-name="braceright.case" horiz-adv-x="348" 
d="M216 485q0 -89 105 -105v-42q-105 -17 -105 -105q0 -21 3 -100q2 -40 3 -70t1 -51q0 -174 -167 -174h-38v51h36q57 0 84 29.5t27 90.5q0 19 -1 48t-3 69q-3 79 -3 104q0 96 85 129q-85 34 -85 129q0 23 3 103q2 40 3 69.5t1 48.5q0 61 -27 90.5t-84 29.5h-36v51h38
q82 0 124.5 -43t42.5 -130q0 -22 -1 -52.5t-3 -70.5q-3 -80 -3 -99z" />
    <glyph glyph-name="bracketleft.case" horiz-adv-x="369" 
d="M101 -157v1038h254v-51h-193v-936h193v-51h-254z" />
    <glyph glyph-name="bracketright.case" horiz-adv-x="369" 
d="M14 -157v51h193v936h-193v51h254v-1038h-254z" />
    <glyph glyph-name="breve.case" horiz-adv-x="441" 
d="M106 956q1 -57 30 -84.5t78 -27.5q51 0 79.5 27.5t29.5 84.5h55q-1 -73 -45 -116.5t-119 -43.5t-118 43.5t-44 116.5h54z" />
    <glyph glyph-name="brevecombcy" horiz-adv-x="0" 
d="M-218 606q-104 0 -179 91l34 37q33 -39 70 -58t75 -19t75 19t70 58l35 -37q-78 -91 -180 -91z" />
    <glyph glyph-name="caron.alt" horiz-adv-x="299" 
d="M39 625l56 157h70l-76 -157h-50z" />
    <glyph glyph-name="caron.case" horiz-adv-x="477" 
d="M80 947h64l92 -104l92 104h65l-138 -155h-37z" />
    <glyph glyph-name="cedilla.case" horiz-adv-x="310" 
d="M184 -55q42 0 69.5 -22t27.5 -64q0 -45 -33.5 -76t-93.5 -31q-50 0 -102 24l17 42q43 -20 82 -20q36 0 57.5 18.5t21.5 42.5q0 20 -15 33.5t-46 13.5h-60l-8 17l37 97l50 -1l-31 -76q9 1 15.5 1.5t11.5 0.5z" />
    <glyph glyph-name="circumflex.case" horiz-adv-x="478" 
d="M51 798l138 155h37l138 -155h-65l-92 104l-92 -104h-64z" />
    <glyph glyph-name="colon.case" horiz-adv-x="245" 
d="M123 459q-21 0 -35 14t-14 34t14 33.5t35 13.5q20 0 34 -13.5t14 -33.5q0 -21 -14 -34.5t-34 -13.5zM123 143q-21 0 -35 14t-14 34t14 33.5t35 13.5q20 0 34 -13.5t14 -33.5q0 -21 -14 -34.5t-34 -13.5z" />
    <glyph glyph-name="comma.ss03" horiz-adv-x="178" 
d="M85 104h59l-87 -279h-42z" />
    <glyph glyph-name="commaccent" horiz-adv-x="227" 
d="M126 -71q23 0 38.5 -17t15.5 -42q0 -77 -106 -144l-19 28q65 46 80 85q-7 -4 -18 -4q-17 0 -30 13t-13 31q0 21 15 35.5t37 14.5z" />
    <glyph glyph-name="commaccent.case" horiz-adv-x="163" 
d="M126 -71q23 0 38.5 -17t15.5 -42q0 -77 -106 -144l-19 28q65 46 80 85q-7 -4 -18 -4q-17 0 -30 13t-13 31q0 21 15 35.5t37 14.5z" />
    </font>
</defs>
</svg>
