<?xml version="1.0" standalone="no"?>
<!DOCTYPE svg PUBLIC "-//W3C//DTD SVG 1.1//EN" "http://www.w3.org/Graphics/SVG/1.1/DTD/svg11.dtd" >
<svg xmlns="http://www.w3.org/2000/svg" xmlns:xlink="http://www.w3.org/1999/xlink" version="1.1">
<metadata>
Created by FontForge 20201107 at Tue Jun 29 03:55:46 2021
 By 
Copyright (c) 2017 by Kastelov. All rights reserved.
</metadata>
<defs>
<font id="FSAxiformaBold" horiz-adv-x="654" >
  <font-face 
    font-family="FS Axiforma Bold"
    font-weight="700"
    font-stretch="normal"
    units-per-em="1000"
    panose-1="0 0 8 0 0 0 0 0 0 0"
    ascent="772"
    descent="-228"
    x-height="544"
    cap-height="739"
    bbox="-458 -350 2530 1236"
    underline-thickness="50"
    underline-position="-100"
    unicode-range="U+000D-25CA"
  />
<missing-glyph horiz-adv-x="130" 
 />
    <glyph glyph-name="f_b" unicode="fb" horiz-adv-x="1110" 
d="M112 557q0 112 54 169t148 57q75 0 144 -36l-34 -110q-45 22 -82 22q-42 0 -65.5 -24.5t-23.5 -69.5v-20h170v-118h-170v-427h-141v427h-84v118h84v12zM803 559q116 0 194 -83t78 -204q0 -122 -78 -204q-78 -81 -194 -81q-103 0 -170 81v-68h-137v760h141v-278
q68 77 166 77zM631 273q0 -66 42 -112q42 -45 108 -45t108 45q42 46 42 112t-42 111t-108 45t-108 -46q-42 -45 -42 -110z" />
    <glyph glyph-name="f_f" unicode="ff" horiz-adv-x="839" 
d="M759 659q-48 0 -74 -24.5t-26 -70.5v-19h170v-118h-170v-427h-140v427h-266v-427h-140v427h-85v118h85v21q0 54 17 94.5t48 68t74.5 41t96.5 13.5q89 -2 165 -41l-45 -110q-60 27 -102 27q-52 0 -83 -24.5t-31 -69.5v-20h266v21q0 53 16 93.5t45 68t69.5 41.5t89.5 14
q77 0 151 -40l-46 -107q-52 23 -85 23z" />
    <glyph glyph-name="f_f_i" unicode="ffi" horiz-adv-x="1121" 
d="M749 659q-42 0 -65.5 -24.5t-23.5 -69.5v-20h190v-118h-190v-427h-141v427h-266v-427h-141v427h-84v118h84v21q0 53 17 93.5t48 68t74 41.5t96 14q81 0 169 -41l-45 -111q-63 28 -107 28q-51 0 -81 -25t-30 -70v-19h266v12q0 112 55.5 169t151.5 57q75 0 144 -36
l-39 -110q-45 22 -82 22zM1049 632q-12 -12 -28.5 -18.5t-33.5 -6.5t-33.5 6.5t-29.5 18.5q-12 12 -18.5 28.5t-6.5 33.5t6.5 33t18.5 28q13 12 29.5 18.5t33.5 6.5t33.5 -6.5t28.5 -18.5t18.5 -28t6.5 -33t-6.5 -33.5t-18.5 -28.5zM916 0v545h141v-545h-141z" />
    <glyph glyph-name="f_f_j" unicode="ffj" horiz-adv-x="1120" 
d="M840 427h-181v-427h-140v427h-266v-427h-141v427h-84v118h84v21q0 105 65 161t169 56q86 0 166 -41l-41 -111q-60 28 -106 28q-51 0 -81.5 -25t-30.5 -70v-19h266v12q0 112 55.5 169t151.5 57q75 0 144 -36l-39 -110q-45 22 -83 22q-42 0 -65.5 -24.5t-23.5 -69.5v-20
h181v-118zM987 607q-38 0 -63 25t-25 62t25.5 61.5t62.5 24.5q36 0 61 -24.5t25 -61.5t-25 -62t-61 -25zM915 545h141v-553q0 -111 -57.5 -167.5t-150.5 -56.5q-82 0 -125 28l27 112q42 -16 74 -16q91 0 91 107v546z" />
    <glyph glyph-name="f_h" unicode="fh" horiz-adv-x="1075" 
d="M112 557q0 112 53.5 169t149.5 57q75 0 144 -36l-35 -110q-45 22 -82 22q-42 0 -65.5 -24.5t-23.5 -69.5v-20h170v-118h-170v-427h-141v427h-84v118h84v12zM805 560q88 0 150 -59t62 -168v-333h-141v295q0 66 -31 100.5t-83 34.5q-57 0 -91 -38.5t-34 -99.5v-292h-141
v760h137v-286q22 37 68 61.5t104 24.5z" />
    <glyph glyph-name="f_i" unicode="fi" horiz-adv-x="714" 
d="M112 557q0 112 55.5 169t151.5 57q75 0 144 -36l-39 -110q-45 22 -82 22q-42 0 -65.5 -24.5t-23.5 -69.5v-20h170v-118h-170v-427h-141v427h-84v118h84v12zM642 631q-12 -12 -28.5 -18t-33.5 -6t-33.5 6t-29.5 18q-12 12 -18.5 28.5t-6.5 33.5t6.5 33.5t18.5 28.5
q13 12 29.5 18.5t33.5 6.5t33.5 -6.5t28.5 -18.5t18.5 -28.5t6.5 -33.5t-6.5 -33.5t-18.5 -28.5zM509 0v545h141v-545h-141z" />
    <glyph glyph-name="f_j" unicode="fj" horiz-adv-x="714" 
d="M431 427h-178v-427h-141v427h-84v118h84v12q0 112 55.5 169t151.5 57q75 0 144 -36l-39 -110q-45 22 -82 22q-42 0 -65.5 -24.5t-23.5 -69.5v-20h178v-118zM642 631q-12 -12 -28.5 -18t-33.5 -6t-33.5 6t-29.5 18q-12 12 -18.5 28.5t-6.5 33.5t6.5 33.5t18.5 28.5
q13 12 29.5 18.5t33.5 6.5t33.5 -6.5t28.5 -18.5t18.5 -28.5t6.5 -33.5t-6.5 -33.5t-18.5 -28.5zM509 545h141v-553q0 -111 -57.5 -167.5t-151.5 -56.5q-82 0 -125 28l27 112q42 -16 74 -16q92 0 92 107v546z" />
    <glyph glyph-name="f_k" unicode="fk" horiz-adv-x="1016" 
d="M112 557q0 112 53.5 169t147.5 57q74 0 145 -36l-34 -110q-45 22 -82 22q-42 0 -65.5 -24.5t-23.5 -69.5v-20h170v-118h-170v-427h-141v427h-84v118h84v12zM854 0l-180 233l-37 -33v-200h-141v760h141v-401l198 186h178l-243 -223l257 -322h-173z" />
    <glyph glyph-name="f_l" unicode="fl" horiz-adv-x="701" 
d="M112 557q0 114 53 170t150 56q76 0 141 -36l-32 -110q-45 22 -82 22q-42 0 -65.5 -24.5t-23.5 -69.5v-20h170v-118h-170v-427h-141v427h-84v118h84v12zM496 760h141v-760h-141v760z" />
    <glyph glyph-name=".notdef" horiz-adv-x="130" 
 />
    <glyph glyph-name=".null" horiz-adv-x="0" 
 />
    <glyph glyph-name="nonmarkingreturn" unicode="&#xd;" horiz-adv-x="333" 
 />
    <glyph glyph-name="CR.001" horiz-adv-x="130" 
 />
    <glyph glyph-name="CR.001" horiz-adv-x="130" 
 />
    <glyph glyph-name="space" unicode=" " horiz-adv-x="247" 
 />
    <glyph glyph-name="exclam" unicode="!" horiz-adv-x="314" 
d="M93 205l-8 548h149l-10 -548h-131zM160 -12q-35 0 -59 23t-24 59q0 34 24 57t59 23q34 0 57.5 -23t23.5 -57q0 -36 -23.5 -59t-57.5 -23z" />
    <glyph glyph-name="quotedbl" unicode="&#x22;" horiz-adv-x="553" 
d="M36 428l88 309h163l-116 -309h-135zM289 428l88 309h163l-116 -309h-135z" />
    <glyph glyph-name="numbersign" unicode="#" horiz-adv-x="745" 
d="M691 449h-101l-29 -152h101l-22 -118h-102l-34 -179h-139l35 179h-129l-35 -179h-139l37 179h-101l23 118h102l31 152h-105l23 117h106l35 173h134l-34 -173h129l34 173h134l-33 -173h102zM424 297l30 152h-129l-30 -152h129z" />
    <glyph glyph-name="dollar" unicode="$" horiz-adv-x="591" 
d="M552 213q0 -85 -50.5 -142.5t-134.5 -75.5v-107h-126v103q-140 23 -212 147l99 95q27 -49 72 -77t93 -28q45 0 70.5 21.5t25.5 54.5q0 26 -16.5 44t-47.5 34q-9 5 -44 21q-33 16 -61.5 30.5t-49.5 28.5q-103 70 -103 178q0 80 48.5 134.5t129.5 71.5v97h127v-97
q92 -18 165 -94l-82 -106q-74 69 -148 69q-39 0 -62.5 -19.5t-23.5 -50.5q0 -27 24 -48q13 -10 22.5 -16t27.5 -17q5 -3 22.5 -12t46.5 -23t51 -25.5t36 -20.5q101 -63 101 -170z" />
    <glyph glyph-name="percent" unicode="%" horiz-adv-x="903" 
d="M31 567q0 77 56 131q55 54 135 54q78 0 134 -54t56 -131q0 -75 -56 -129q-56 -53 -134 -53q-79 0 -135 53q-56 54 -56 129zM111 0l538 739h138l-539 -739h-137zM222 483q34 0 59.5 24.5t25.5 60.5t-25.5 60.5t-59.5 24.5q-36 0 -61 -24.5t-25 -60.5t25.5 -60.5
t60.5 -24.5zM491 170q0 76 55 130t135 54q79 0 135 -54t56 -130q0 -75 -56 -129q-56 -53 -135 -53t-135 53q-55 54 -55 129zM767 171q0 36 -25 60.5t-61 24.5q-35 0 -60 -24.5t-25 -60.5q0 -37 25 -61t60 -24t60.5 24t25.5 61z" />
    <glyph glyph-name="ampersand" unicode="&#x26;" horiz-adv-x="703" 
d="M699 69l-78 -85l-106 96q-101 -90 -228 -90q-111 0 -182 62q-70 63 -70 155q0 129 131 212q-43 64 -43 140t58 134t152 58q78 0 132 -48q55 -46 55 -116q0 -76 -58 -124q-30 -24 -54 -39q-12 -7 -28.5 -16t-38.5 -20l38 -34l129 -115q41 47 77 102l87 -73
q-22 -32 -42 -58.5t-37 -46.5zM326 645q-37 0 -60 -25.5t-23 -63.5q0 -43 25 -84l65 32q21 12 40.5 32.5t19.5 44.5q0 27 -19 45.5t-48 18.5zM297 109q68 0 131 51l-145 131q-9 8 -21.5 20.5t-21.5 19.5q-65 -48 -65 -113q0 -48 33.5 -78.5t88.5 -30.5z" />
    <glyph glyph-name="quotesingle" unicode="'" horiz-adv-x="298" 
d="M35 428l88 309h163l-116 -309h-135z" />
    <glyph glyph-name="parenleft" unicode="(" horiz-adv-x="418" 
d="M348 -220q-153 79 -233 211.5t-80 302.5q0 171 80.5 302.5t237.5 212.5l60 -112q-224 -144 -224 -403q0 -252 224 -405z" />
    <glyph glyph-name="parenright" unicode=")" horiz-adv-x="418" 
d="M5 -111q224 153 224 405q0 259 -224 403l60 112q157 -81 237.5 -212.5t80.5 -302.5q0 -170 -80 -302.5t-234 -211.5z" />
    <glyph glyph-name="asterisk" unicode="*" horiz-adv-x="493" 
d="M152 367l-78 68l92 104l-132 57l42 94l122 -59l-5 142h107l-4 -142l122 59l41 -93l-131 -58l91 -104l-78 -68l-94 115z" />
    <glyph glyph-name="plus" unicode="+" horiz-adv-x="575" 
d="M543 414v-133h-188v-188l-132 -2v190h-190v133h190v189h132v-189h188z" />
    <glyph glyph-name="comma" unicode="," horiz-adv-x="262" 
d="M129 145q38 0 63.5 -27.5t25.5 -68.5q0 -108 -154 -210l-42 56q79 60 97 94h-3q-29 0 -50.5 22t-21.5 52q0 35 25 58.5t60 23.5z" />
    <glyph glyph-name="hyphen" unicode="-" horiz-adv-x="530" 
d="M60 211v132h411v-132h-411z" />
    <glyph glyph-name="period" unicode="." horiz-adv-x="248" 
d="M125 -16q-35 0 -59 23.5t-24 58.5q0 34 24 57t59 23q33 0 56.5 -23t23.5 -57q0 -35 -23.5 -58.5t-56.5 -23.5z" />
    <glyph glyph-name="slash" unicode="/" horiz-adv-x="671" 
d="M18 -123l480 948h154l-480 -948h-154z" />
    <glyph glyph-name="zero" unicode="0" horiz-adv-x="688" 
d="M344 -12q-99 0 -168 54t-100 138t-31 190q0 107 31 190q15 42 40.5 77t59.5 60.5t76 40t92 14.5q77 0 133.5 -31t93 -83.5t54.5 -122t18 -145.5q0 -77 -18 -146t-54.5 -121.5t-93 -83.5t-133.5 -31zM496 370q0 107 -38 175t-114 68q-75 0 -113 -68t-38 -175
q0 -54 9.5 -98.5t28 -77t47 -50t66.5 -17.5t66.5 17.5t47.5 50t28.5 77t9.5 98.5z" />
    <glyph glyph-name="one" unicode="1" horiz-adv-x="418" 
d="M226 739h110v-739h-145v543l-118 -91l-76 105z" />
    <glyph glyph-name="two" unicode="2" horiz-adv-x="580" 
d="M257 136h275v-136h-482v123l230 241q17 17 28.5 29.5t18.5 20.5q13 15 30 47q17 31 17 57q0 42 -28.5 68.5t-73.5 26.5q-78 0 -166 -82l-81 106q115 115 259 115q106 0 173 -64q68 -63 68 -162q0 -107 -138 -251z" />
    <glyph glyph-name="three" unicode="3" horiz-adv-x="565" 
d="M254 -12q-126 0 -241 73l62 118q91 -55 171 -55q57 0 88.5 25.5t31.5 67.5t-31.5 67t-82.5 25h-94v132h81q51 0 81.5 24t30.5 63q0 40 -29 62.5t-74 22.5q-68 0 -147 -57l-71 106q45 42 107 66t129 24q99 0 167 -56q67 -55 67 -137q0 -60 -35 -103.5t-90 -62.5v-4
q69 -15 107 -65t38 -117q0 -96 -74 -158q-73 -61 -192 -61z" />
    <glyph glyph-name="four" unicode="4" horiz-adv-x="616" 
d="M577 295v-123h-80v-172h-138v172h-325l-29 95l386 472h106v-444h80zM173 295h186v230z" />
    <glyph glyph-name="five" unicode="5" horiz-adv-x="588" 
d="M303 476q105 0 177 -66t72 -172q0 -109 -76 -179q-77 -71 -200 -71q-135 0 -248 82l59 118q94 -64 182 -64q63 0 98.5 33t35.5 81q0 24 -9.5 44.5t-26 35t-39.5 23t-50 8.5q-70 0 -122 -49l-86 69l40 370h391v-136h-281l-16 -145q46 18 99 18z" />
    <glyph glyph-name="six" unicode="6" horiz-adv-x="633" 
d="M354 477q105 0 172 -67q69 -68 69 -170q0 -108 -75 -178q-74 -71 -191 -71q-138 0 -211 100t-73 256q0 77 19 150t59 129.5t100 91t143 34.5q115 0 204 -65l-64 -111q-65 44 -132 44q-85 0 -134 -66t-54 -158q54 81 168 81zM329 118q50 0 85 35t35 85t-34 83
q-35 33 -85 33q-26 0 -47.5 -8.5t-38 -24.5t-25.5 -37.5t-9 -46.5q0 -51 34 -85t85 -34z" />
    <glyph glyph-name="seven" unicode="7" horiz-adv-x="524" 
d="M21 739h482v-102l-264 -637h-155l254 603h-317v136z" />
    <glyph glyph-name="eight" unicode="8" horiz-adv-x="636" 
d="M42 203q0 63 37.5 114.5t101.5 74.5v2q-51 23 -79.5 65t-28.5 96q0 86 67 141q68 56 178 56q109 0 177 -56t68 -141q0 -54 -29 -96t-80 -65v-3q32 -11 58 -30t44 -43.5t28 -54t10 -60.5q0 -93 -77 -155q-77 -60 -199 -60q-124 0 -200 60q-76 61 -76 155zM208 539
q0 -39 29 -65.5t80 -26.5t80 26t29 66t-29.5 66t-78.5 26t-79.5 -26t-30.5 -66zM445 221q0 45 -34.5 73t-92.5 28t-93 -27.5t-35 -72.5q0 -46 35.5 -75t92.5 -29t92 29t35 74z" />
    <glyph glyph-name="nine" unicode="9" horiz-adv-x="627" 
d="M303 752q135 0 207 -99t72 -258q0 -80 -18.5 -154t-57.5 -130t-98.5 -89.5t-140.5 -33.5q-119 0 -204 65l54 110q64 -45 141 -45q82 0 127.5 59t55.5 156q-28 -33 -72.5 -50.5t-93.5 -17.5q-102 0 -169 67t-67 170q0 109 73 179q74 71 191 71zM300 388q25 0 47 9t38 25
t25 37.5t9 46.5t-9 47t-25 38.5t-37.5 25.5t-46.5 9q-26 0 -47.5 -9t-37.5 -25t-25 -38t-9 -49q0 -51 33.5 -84t84.5 -33z" />
    <glyph glyph-name="colon" unicode=":" horiz-adv-x="278" 
d="M140 343q-35 0 -59 23.5t-24 58.5q0 34 24 57t59 23q33 0 56.5 -23t23.5 -57q0 -35 -23.5 -58.5t-56.5 -23.5zM140 -16q-35 0 -59 23.5t-24 58.5q0 34 24 57t59 23q33 0 56.5 -23t23.5 -57q0 -35 -23.5 -58.5t-56.5 -23.5z" />
    <glyph glyph-name="semicolon" unicode=";" horiz-adv-x="299" 
d="M154 342q-36 0 -60.5 24t-24.5 60q0 17 6.5 32t18 26t27 17.5t33.5 6.5q34 0 58 -24t24 -58q0 -36 -24 -60t-58 -24zM148 145q38 0 63.5 -27.5t25.5 -68.5q0 -108 -154 -210l-42 56q79 60 97 94h-3q-29 0 -50.5 22t-21.5 52q0 35 25 58.5t60 23.5z" />
    <glyph glyph-name="less" unicode="&#x3c;" horiz-adv-x="557" 
d="M492 46l-461 219v121l461 218v-140l-310 -137l310 -138v-143z" />
    <glyph glyph-name="equal" unicode="=" horiz-adv-x="590" 
d="M64 366v117h462v-117h-462zM64 172v117h462v-117h-462z" />
    <glyph glyph-name="greater" unicode="&#x3e;" horiz-adv-x="543" 
d="M59 39v143l294 138l-294 136v141l455 -226v-106z" />
    <glyph glyph-name="question" unicode="?" horiz-adv-x="550" 
d="M177 195v66q0 43 19 79t45 60q19 18 40.5 35.5t38.5 36t28.5 38.5t11.5 44q0 40 -28.5 65t-71.5 25q-74 0 -149 -87l-87 98q99 122 247 122q105 0 172 -61t67 -153q0 -48 -20.5 -86.5t-49.5 -65.5q-20 -19 -42.5 -37.5t-41.5 -38t-31 -40t-12 -42.5v-58h-136zM164 69
q0 34 24 57.5t59 23.5q34 0 57.5 -23.5t23.5 -57.5q0 -35 -23.5 -58t-57.5 -23t-58.5 23t-24.5 58z" />
    <glyph glyph-name="at" unicode="@" horiz-adv-x="966" 
d="M587 489h107v-258q0 -31 13 -47t32 -16q35 0 63 46t28 115q0 134 -99 224q-96 91 -238 89q-146 -2 -246 -105q-101 -104 -101 -250q0 -149 106 -254q107 -104 257 -104q148 0 267 91l49 -82q-26 -22 -60 -41t-79 -35q-88 -32 -182 -32q-196 0 -329 135q-134 134 -134 322
t132 320q132 133 322 133q187 0 313 -120q126 -119 126 -286q0 -114 -62 -191q-62 -75 -151 -75q-88 0 -118 74q-53 -74 -151 -74q-86 0 -145 62q-58 61 -58 155t58 156q58 63 147 63q84 0 133 -58v43zM473 169q47 0 80 33q33 34 33 83q0 50 -33 85q-32 35 -79 35
q-24 0 -45 -9t-36 -25t-24 -38t-9 -47t8.5 -46.5t24 -37t36 -24.5t44.5 -9z" />
    <glyph glyph-name="A" unicode="A" horiz-adv-x="696" 
d="M532 0l-55 160h-258l-57 -160h-155l282 739h121l278 -739h-156zM349 538l-88 -246h174z" />
    <glyph glyph-name="B" unicode="B" horiz-adv-x="692" 
d="M513 405q68 -17 104 -69.5t36 -120.5q0 -92 -64 -153q-64 -62 -170 -62h-337v739h322q99 0 154 -55q56 -56 56 -129q0 -49 -28 -91.5t-73 -58.5zM228 610v-161h145q46 0 70 25t24 58q0 32 -23 55t-65 23h-151zM390 130q54 0 82 29t28 68q0 40 -28 69t-82 29h-162v-195
h162z" />
    <glyph glyph-name="C" unicode="C" horiz-adv-x="765" 
d="M420 -11q-162 0 -271 105q-109 106 -109 273q0 168 111 276q112 109 271 109q50 0 96.5 -11t88 -31t75.5 -48.5t58 -62.5l-99 -97q-87 107 -211 107q-101 0 -168 -69q-68 -68 -68 -173q0 -102 67 -169t168 -67q129 0 215 108l102 -93q-26 -35 -60.5 -64t-76.5 -49.5
t-90 -32t-99 -11.5z" />
    <glyph glyph-name="D" unicode="D" horiz-adv-x="770" 
d="M82 0v739h289q167 0 261 -100q95 -100 95 -271t-97 -269q-96 -99 -265 -99h-283zM230 142h142q95 0 148 65t53 164q0 96 -53 161t-148 65h-142v-455z" />
    <glyph glyph-name="E" unicode="E" horiz-adv-x="637" 
d="M82 0v739h501v-138h-352v-159h326v-138h-326v-166h352v-138h-501z" />
    <glyph glyph-name="F" unicode="F" horiz-adv-x="603" 
d="M82 0v739h493v-140h-345v-166h303v-139h-303v-294h-148z" />
    <glyph glyph-name="G" unicode="G" horiz-adv-x="810" 
d="M425 -11q-167 0 -277 107q-108 108 -108 273q0 167 112 275t279 108q91 0 169 -33t129 -87l-97 -106q-83 83 -201 83q-103 0 -171 -68t-68 -171q0 -101 66 -170q67 -69 171 -69q57 0 110 22t88 57v101h-204v129h339v-304q-141 -147 -337 -147z" />
    <glyph glyph-name="H" unicode="H" horiz-adv-x="770" 
d="M82 0v739h148v-295h310v295h148v-739h-148v301h-310v-301h-148z" />
    <glyph glyph-name="I" unicode="I" horiz-adv-x="313" 
d="M82 739h149v-739h-149v739z" />
    <glyph glyph-name="J" unicode="J" horiz-adv-x="584" 
d="M233 -12q-138 0 -229 91l72 116q65 -65 146 -65q64 0 102 40t38 112v457h148v-462q0 -144 -78 -217q-78 -72 -199 -72z" />
    <glyph glyph-name="K" unicode="K" horiz-adv-x="696" 
d="M526 0l-205 293l-91 -109v-184h-148v739h148v-349l280 349h179l-271 -336l290 -403h-182z" />
    <glyph glyph-name="L" unicode="L" horiz-adv-x="620" 
d="M82 0v739h149v-597h375v-142h-524z" />
    <glyph glyph-name="M" unicode="M" horiz-adv-x="939" 
d="M82 0v739h98l290 -419l287 419h100v-739h-148v419l-215 -309h-51l-215 309v-419h-146z" />
    <glyph glyph-name="N" unicode="N" horiz-adv-x="794" 
d="M566 739h146v-739h-101l-383 453v-453h-146v739h94l390 -457v457z" />
    <glyph glyph-name="O" unicode="O" horiz-adv-x="848" 
d="M423 -12q-165 0 -274 109q-110 110 -110 270t111 273q112 112 274 112t273 -112q112 -112 112 -271t-112 -270q-111 -111 -274 -111zM655 369q0 102 -67 169q-68 68 -164 68t-164 -68q-67 -67 -67 -169q0 -101 66 -168q67 -67 165 -67t165 67t66 168z" />
    <glyph glyph-name="P" unicode="P" horiz-adv-x="639" 
d="M355 739q130 0 195 -71q66 -71 66 -173t-68 -172q-68 -68 -204 -68h-114v-255h-148v739h273zM349 389q57 0 86.5 31.5t29.5 76.5t-28.5 75t-79.5 30h-127v-213h119z" />
    <glyph glyph-name="Q" unicode="Q" horiz-adv-x="848" 
d="M823 -131q-66 -24 -133 -24q-171 0 -281 143q-156 7 -264 118q-106 109 -106 264q0 159 112 270q112 112 274 112q161 0 272 -112q112 -111 112 -270q0 -118 -65 -215q-65 -95 -170 -138q51 -45 125 -45q51 0 104 18zM191 368q0 -101 68 -169q67 -67 166 -67q98 0 165 67
q68 68 68 169q0 103 -68 171q-68 69 -165 69q-99 0 -166 -69q-68 -68 -68 -171z" />
    <glyph glyph-name="R" unicode="R" horiz-adv-x="675" 
d="M474 0l-156 269h-88v-269h-148v739h283q123 0 188 -68t65 -166q0 -72 -37.5 -131t-112.5 -86l179 -288h-173zM230 602v-200h121q58 0 86.5 29t28.5 72q0 42 -27 70.5t-75 28.5h-134z" />
    <glyph glyph-name="S" unicode="S" horiz-adv-x="606" 
d="M299 -12q-87 0 -160.5 35.5t-119.5 102.5l85 103q36 -51 87.5 -77t108.5 -26q46 0 76 22t30 57q0 46 -67 77q-8 4 -26 11t-47 18t-50.5 21.5t-36.5 18.5q-117 67 -117 184q0 93 70 154q71 62 182 62q144 0 243 -100l-79 -108q-31 33 -75.5 51t-86.5 18q-45 0 -70 -19.5
t-25 -51.5q0 -43 60 -73l73 -32q61 -26 90 -39q126 -62 126 -184q0 -99 -75 -162t-196 -63z" />
    <glyph glyph-name="T" unicode="T" horiz-adv-x="600" 
d="M225 596h-211v143h572v-143h-211v-596h-150v596z" />
    <glyph glyph-name="U" unicode="U" horiz-adv-x="725" 
d="M74 739h149v-459q0 -75 37 -112t103 -37q63 0 100.5 38.5t37.5 110.5v459h150v-469q0 -139 -82 -211q-81 -72 -206 -72t-207 72t-82 211v469z" />
    <glyph glyph-name="V" unicode="V" horiz-adv-x="738" 
d="M564 739h168l-303 -739h-118l-307 739h171l195 -511z" />
    <glyph glyph-name="W" unicode="W" horiz-adv-x="1065" 
d="M251 0l-245 739h162l149 -497l168 497h94l171 -497l147 497h162l-244 -739h-125l-157 484l-157 -484h-125z" />
    <glyph glyph-name="X" unicode="X" horiz-adv-x="669" 
d="M4 0l237 374l-221 365h171l144 -253l151 253h174l-233 -365l232 -374h-171l-154 259l-156 -259h-174z" />
    <glyph glyph-name="Y" unicode="Y" horiz-adv-x="679" 
d="M669 739l-256 -483v-256h-148v256l-253 483h171l156 -324l159 324h171z" />
    <glyph glyph-name="Z" unicode="Z" horiz-adv-x="651" 
d="M35 0v106l366 496h-352v137h554v-110l-359 -492h370v-137h-579z" />
    <glyph glyph-name="bracketleft" unicode="[" horiz-adv-x="407" 
d="M76 -227v1038h311v-125h-167v-788h167v-125h-311z" />
    <glyph glyph-name="backslash" unicode="\" horiz-adv-x="661" 
d="M644 -123h-153l-472 948h154z" />
    <glyph glyph-name="bracketright" unicode="]" horiz-adv-x="407" 
d="M20 -227v125h167v788h-167v125h311v-1038h-311z" />
    <glyph glyph-name="asciicircum" unicode="^" horiz-adv-x="542" 
d="M34 431l190 332h95l189 -332h-138l-98 188l-99 -188h-139z" />
    <glyph glyph-name="underscore" unicode="_" horiz-adv-x="591" 
d="M0 -191v130h591v-130h-591z" />
    <glyph glyph-name="grave" unicode="`" horiz-adv-x="390" 
d="M259 620h-125l-94 176h157z" />
    <glyph glyph-name="a" unicode="a" horiz-adv-x="676" 
d="M479 545h134v-545h-134v63q-70 -76 -174 -76q-118 0 -194 82t-76 206q0 123 77 203q76 81 193 81q102 0 174 -79v65zM481 273q0 64 -44 111q-43 46 -109 46q-67 0 -110 -46q-42 -47 -42 -111q0 -66 43 -112t109 -46t109 46q44 47 44 112z" />
    <glyph glyph-name="b" unicode="b" horiz-adv-x="678" 
d="M371 559q116 0 194 -83t78 -204q0 -122 -78 -204q-78 -81 -194 -81q-103 0 -170 81v-68h-137v760h141v-278q68 77 166 77zM199 273q0 -66 42 -112q42 -45 108 -45t108 45q42 46 42 112t-42 111t-108 45t-108 -46q-42 -45 -42 -110z" />
    <glyph glyph-name="c" unicode="c" horiz-adv-x="603" 
d="M324 -12q-126 0 -208 80q-81 79 -81 205t82 205q82 81 211 81q84 0 152 -39.5t102 -112.5l-113 -62q-50 83 -139 83q-68 0 -111 -45q-44 -44 -44 -110q0 -68 43 -112q44 -44 109 -44q43 0 82 23t57 59l114 -67q-18 -33 -44.5 -59.5t-59.5 -45.5t-71.5 -29t-80.5 -10z" />
    <glyph glyph-name="d" unicode="d" horiz-adv-x="676" 
d="M471 760h141v-760h-138v67q-66 -80 -169 -80q-117 0 -193 81q-77 83 -77 205q0 121 77 204q78 82 193 82q98 0 166 -77v278zM478 273q0 66 -42 111q-42 46 -109 46t-110 -46q-42 -45 -42 -111q0 -67 42 -113q43 -45 110 -45t109 45q42 46 42 113z" />
    <glyph glyph-name="e" unicode="e" horiz-adv-x="626" 
d="M593 285q0 -14 -1.5 -29.5t-3.5 -32.5h-409q30 -116 159 -116q44 0 92.5 15.5t83.5 39.5l56 -99q-104 -75 -238 -75q-143 0 -220 83q-76 82 -76 202q0 125 79 205q79 81 205 81q119 0 196 -74t77 -200zM320 442q-54 0 -91 -30t-50 -84h277q-10 54 -46 84t-90 30z" />
    <glyph glyph-name="f" unicode="f" horiz-adv-x="432" 
d="M354 659q-49 0 -75 -24.5t-26 -70.5v-19h169v-118h-169v-427h-141v427h-84v118h84v22q0 106 61 161q62 56 160 56q81 0 155 -40l-46 -108q-52 23 -88 23z" />
    <glyph glyph-name="g" unicode="g" horiz-adv-x="675" 
d="M481 545h130v-491q0 -132 -84 -208q-85 -77 -218 -77q-141 0 -250 79l55 106q94 -64 191 -64q81 0 125.5 42.5t44.5 108.5v28q-63 -70 -168 -70q-120 0 -196 79t-76 200t80 201t198 80q100 0 168 -74v60zM177 277q0 -68 43 -111q44 -44 108 -44t108 44q43 44 43 111
q0 66 -43 109q-44 44 -108 44t-108 -44q-43 -43 -43 -109z" />
    <glyph glyph-name="h" unicode="h" horiz-adv-x="642" 
d="M64 0v760h137v-286q22 37 68 61.5t104 24.5q88 0 150 -59t62 -168v-333h-141v295q0 66 -31 100.5t-83 34.5q-57 0 -91 -38.5t-34 -99.5v-292h-141z" />
    <glyph glyph-name="i" unicode="i" horiz-adv-x="269" 
d="M199 631q-12 -12 -28.5 -18.5t-33.5 -6.5t-33.5 6.5t-28.5 18.5t-18.5 28.5t-6.5 33.5t6.5 33t18.5 28t28.5 18.5t33.5 6.5t33.5 -6.5t28.5 -18.5t18.5 -28t6.5 -33t-6.5 -33.5t-18.5 -28.5zM207 0h-141v545h141v-545z" />
    <glyph glyph-name="j" unicode="j" horiz-adv-x="293" 
d="M220 631q-12 -12 -28.5 -18.5t-33.5 -6.5t-33.5 6.5t-28.5 18.5t-18.5 28.5t-6.5 33.5t6.5 33t18.5 28t28.5 18.5t33.5 6.5t33.5 -6.5t28.5 -18.5t18.5 -28t6.5 -33t-6.5 -33.5t-18.5 -28.5zM20 -232q-81 0 -124 28l26 112q45 -16 75 -16q91 0 91 107v546h141v-553
q0 -111 -57.5 -167.5t-151.5 -56.5z" />
    <glyph glyph-name="k" unicode="k" horiz-adv-x="583" 
d="M422 0l-180 233l-37 -33v-200h-141v760h141v-401l198 186h178l-243 -223l257 -322h-173z" />
    <glyph glyph-name="l" unicode="l" horiz-adv-x="268" 
d="M205 0h-141v760h141v-760z" />
    <glyph glyph-name="m" unicode="m" horiz-adv-x="1002" 
d="M723 560q98 0 159 -61q63 -62 63 -170v-329h-141v303q0 63 -30 95t-79 32q-54 0 -87 -35.5t-33 -95.5v-299h-141v302q0 61 -29.5 94.5t-80.5 33.5q-52 0 -85.5 -35.5t-33.5 -96.5v-298h-141v545h138v-78q23 43 67.5 68.5t98.5 24.5q51 0 94.5 -24t65.5 -72q30 45 82 70.5
t113 25.5z" />
    <glyph glyph-name="n" unicode="n" horiz-adv-x="643" 
d="M64 0v545h138v-76q22 40 67.5 65.5t103.5 25.5q89 0 151 -59t62 -168v-333h-141v295q0 66 -31.5 100.5t-83.5 34.5q-57 0 -91 -38.5t-34 -99.5v-292h-141z" />
    <glyph glyph-name="o" unicode="o" 
d="M35 273q0 121 82 203q82 84 210 84q127 0 210 -84q82 -82 82 -203q0 -122 -82 -204q-83 -83 -210 -83t-210 83q-82 82 -82 204zM219 162q43 -45 108 -45q63 0 107 45q44 47 44 111t-44 110q-44 45 -107 45q-65 0 -108 -45q-43 -44 -43 -110q0 -65 43 -111z" />
    <glyph glyph-name="p" unicode="p" horiz-adv-x="681" 
d="M377 559q115 0 192 -83q76 -82 76 -203q0 -120 -77 -203t-192 -83q-101 0 -171 76v-287h-141v769h140v-67q70 81 173 81zM352 116q67 0 109 45t42 111t-42 111t-109 45q-66 0 -108 -45t-42 -111t42 -111t108 -45z" />
    <glyph glyph-name="q" unicode="q" horiz-adv-x="681" 
d="M477 545h140v-769h-141v289q-69 -78 -172 -78q-116 0 -193 83q-76 82 -76 203t76 203q77 83 193 83q102 0 173 -81v67zM329 116q66 0 108 45t42 111t-42 111t-108 45q-67 0 -109 -45t-42 -111t42 -111t109 -45z" />
    <glyph glyph-name="r" unicode="r" horiz-adv-x="421" 
d="M64 0v545h135v-73q49 88 150 88q33 0 66 -12l-12 -135q-36 11 -65 11q-60 0 -96.5 -40t-36.5 -125v-259h-141z" />
    <glyph glyph-name="s" unicode="s" horiz-adv-x="496" 
d="M246 -14q-143 0 -225 105l75 89q29 -35 69 -55.5t82 -20.5q32 0 53.5 15t21.5 38q0 29 -39 47q-12 5 -65 25q-26 10 -43.5 17t-26.5 12q-94 45 -94 141q0 71 56 118q55 46 148 46q116 0 191 -78l-70 -91q-57 54 -125 54q-28 0 -45 -13.5t-17 -32.5q0 -34 48 -50
q107 -40 131 -53q92 -48 92 -138q0 -77 -60 -126q-58 -49 -157 -49z" />
    <glyph glyph-name="t" unicode="t" horiz-adv-x="461" 
d="M458 32q-68 -45 -161 -45q-94 0 -142 54.5t-48 160.5v225h-89v118h90v193h140v-193h180v-118h-180v-216q0 -96 77 -96q42 0 91 28z" />
    <glyph glyph-name="u" unicode="u" horiz-adv-x="614" 
d="M307 -13q-58 0 -104.5 16.5t-78.5 47.5t-49.5 76.5t-17.5 102.5v315h141v-315q0 -52 29 -83t80 -31t80 31t29 83v315h141v-315q0 -115 -66 -179t-184 -64z" />
    <glyph glyph-name="v" unicode="v" horiz-adv-x="596" 
d="M434 545h155l-237 -544h-108l-236 544h155l137 -353z" />
    <glyph glyph-name="w" unicode="w" horiz-adv-x="877" 
d="M194 1l-186 544h148l109 -357l123 357h99l127 -357l106 357h148l-184 -544h-123l-123 341l-121 -341h-123z" />
    <glyph glyph-name="x" unicode="x" horiz-adv-x="553" 
d="M542 0h-162l-104 179l-109 -179h-163l181 278l-161 267h161l93 -167l100 167h159l-170 -271z" />
    <glyph glyph-name="y" unicode="y" horiz-adv-x="599" 
d="M436 545h154l-219 -572q-40 -105 -95 -155t-136 -50q-62 0 -105 27l24 118q37 -18 70 -18q65 0 106 86l11 25l-238 539h163l141 -355z" />
    <glyph glyph-name="z" unicode="z" horiz-adv-x="538" 
d="M226 117h278v-117h-472v96l273 331h-259v117h448v-95z" />
    <glyph glyph-name="braceleft" unicode="{" horiz-adv-x="407" 
d="M180 288q40 -12 70 -44.5t30 -80.5q0 -26 -6 -90q-2 -32 -3.5 -54.5t-1.5 -36.5q0 -79 80 -79h28v-134h-68q-183 0 -183 187q0 15 1 38t3 55t3.5 53.5t1.5 34.5q0 52 -29 71.5t-86 25.5v112q27 4 44.5 8.5t35.5 14.5q35 19 35 74q0 13 -1.5 35t-3.5 54t-3 56t-1 41
q0 182 190 182h61v-134h-28q-80 0 -80 -78q0 -14 1.5 -37t3.5 -56q6 -66 6 -90q0 -48 -30 -80.5t-70 -44.5v-3z" />
    <glyph glyph-name="bar" unicode="|" horiz-adv-x="292" 
d="M76 -179v1026h140v-1026h-140z" />
    <glyph glyph-name="braceright" unicode="}" horiz-adv-x="407" 
d="M227 291q-40 12 -70 44.5t-30 80.5q0 12 1.5 34.5t3.5 55.5q6 66 6 93q0 78 -80 78h-28v134h61q190 0 190 -182q0 -17 -1 -41t-3 -56t-3 -54t-1 -35q0 -52 29 -71t86 -26v-112q-57 -6 -86 -25.5t-29 -71.5q0 -13 1 -34.5t3 -53.5t3 -55t1 -38q0 -187 -182 -187h-69v134
h28q80 0 80 79q0 26 -6 91q-2 32 -3.5 54.5t-1.5 35.5q0 48 30 80.5t70 44.5v3z" />
    <glyph glyph-name="asciitilde" unicode="~" horiz-adv-x="699" 
d="M457 231q-33 0 -65 10t-60.5 22.5t-53 22.5t-42.5 10q-26 0 -47 -14t-51 -50l-90 71q32 60 82.5 89t110.5 29q55 0 125 -32q72 -32 98 -32q27 0 47.5 14.5t49.5 53.5l93 -74q-72 -120 -197 -120z" />
    <glyph glyph-name="exclamdown" unicode="&#xa1;" horiz-adv-x="278" 
d="M154 526q34 0 57.5 -23t23.5 -59q0 -34 -23.5 -57t-57.5 -23q-35 0 -59 23t-24 57q0 36 24 59t59 23zM87 309h131l10 -548h-149z" />
    <glyph glyph-name="cent" unicode="&#xa2;" horiz-adv-x="620" 
d="M368 122q72 18 102 77l114 -67q-30 -58 -87 -95.5t-129 -46.5v-77h-79v77q-112 13 -181 90q-69 78 -69 193q0 114 68 191q69 78 182 92v77h79v-76q72 -8 130 -46t88 -104l-113 -62q-39 64 -105 79v-302zM179 273q0 -55 30.5 -96t79.5 -54v299q-49 -14 -79.5 -54.5
t-30.5 -94.5z" />
    <glyph glyph-name="sterling" unicode="&#xa3;" horiz-adv-x="588" 
d="M282 288q-1 -85 -65 -152h328v-136h-491v115q40 38 62 86t22 93q0 15 -1 20h-88v112h57q-19 63 -19 106q0 95 70 156q70 62 168 64q36 0 69.5 -8t62.5 -23.5t52.5 -37t39.5 -48.5l-96 -88q-19 30 -49.5 48t-63.5 18q-46 0 -75.5 -29.5t-29.5 -74.5q0 -31 18 -83h227v-112
h-199q1 -4 1 -10.5v-15.5z" />
    <glyph glyph-name="currency" unicode="&#xa4;" horiz-adv-x="644" 
d="M555 367q0 -69 -37 -122l76 -74l-66 -66l-76 75q-59 -39 -133 -39q-73 0 -128 37l-75 -73l-66 66l73 72q-37 58 -37 124q0 73 43 134l-79 77l66 66l82 -81q55 33 121 33q70 0 125 -34l84 82l66 -66l-81 -80q42 -59 42 -131zM319 493q-52 0 -86 -36q-34 -35 -34 -88
q0 -52 34 -89q34 -36 86 -36q51 0 86 36q36 37 36 89q0 26 -9.5 48.5t-26 39.5t-38.5 26.5t-48 9.5z" />
    <glyph glyph-name="yen" unicode="&#xa5;" horiz-adv-x="692" 
d="M665 739l-175 -335h97v-107h-154l-14 -28v-18h168v-107h-168v-144h-148v144h-168v107h168v20l-13 26h-155v107h99l-173 335h165l152 -321l154 321h165z" />
    <glyph glyph-name="brokenbar" unicode="&#xa6;" horiz-adv-x="292" 
d="M76 434v413h140v-413h-140zM216 234v-413h-140v413h140z" />
    <glyph glyph-name="section" unicode="&#xa7;" horiz-adv-x="617" 
d="M581 214q0 -88 -72 -137q30 -47 30 -100q0 -89 -68 -148q-68 -60 -177 -60q-161 0 -256 125l94 97q30 -38 73 -62t86 -24q42 0 66 21t24 51q0 44 -75 85q-9 5 -26 13.5l-43 21.5q-22 10 -39 18.5t-30 16.5t-27.5 18t-30.5 23q-62 50 -62 127q0 87 72 138q-31 46 -31 101
q0 95 68 154q70 59 176 59q135 0 224 -104l-101 -93q-53 60 -118 60q-43 0 -69 -21.5t-26 -52.5q0 -19 10.5 -34t27.5 -29q12 -7 19 -12t22 -13l23 -12q4 -2 11 -5t15 -6.5t15 -7l11 -5.5q20 -9 36.5 -17.5t31 -17t28 -18.5t28.5 -22q60 -48 60 -128zM410 162q19 16 19 40
q0 18 -15 35q-15 18 -33.5 29t-52.5 28q-46 23 -74.5 38t-40.5 22q-19 -19 -19 -42q0 -20 16 -37q8 -9 16 -15t17.5 -12t23 -13t31.5 -16z" />
    <glyph glyph-name="dieresis" unicode="&#xa8;" horiz-adv-x="509" 
d="M45 707q0 17 6.5 32t18 26t26.5 17.5t33 6.5t33 -6.5t26.5 -17.5t18 -26t6.5 -32q0 -37 -24 -61t-60 -24t-60 24t-24 61zM347 622q-36 0 -60.5 24t-24.5 61q0 35 24.5 58.5t60.5 23.5q35 0 59 -24t24 -58q0 -37 -24 -61t-59 -24z" />
    <glyph glyph-name="copyright" unicode="&#xa9;" horiz-adv-x="849" 
d="M40 369q0 157 113 270t272 113t272 -113t113 -270q0 -156 -113 -269q-112 -112 -272 -112t-272 112q-113 113 -113 269zM425 71q124 1 211 88q88 88 88 210q0 123 -88 211q-87 88 -211 88t-212 -88t-88 -211q0 -122 88 -210q88 -87 212 -88zM428 163q-89 0 -148 59
t-59 147q0 89 58 147q59 59 149 59q54 0 99 -24.5t71 -69.5l-71 -45q-42 50 -98 50q-49 0 -81 -33t-32 -84t32 -84t81 -33q62 0 98 49l70 -52q-27 -40 -71 -63t-98 -23z" />
    <glyph glyph-name="ordfeminine" unicode="&#xaa;" horiz-adv-x="408" 
d="M195 736q34 0 62.5 -10t49.5 -29.5t32.5 -49.5t11.5 -70v-186h-81v34q-37 -43 -107 -43q-58 0 -90.5 31.5t-32.5 79.5q0 51 39.5 77.5t106.5 26.5q7 0 17.5 -0.5t25.5 -1.5t24.5 -1h13.5q-6 63 -81 63q-57 0 -101 -25l-28 67q61 37 138 37zM178 456q38 0 62 21.5t27 57.5
q-24 2 -42.5 2.5t-31.5 -0.5q-68 0 -68 -41q0 -18 14 -29t39 -11z" />
    <glyph glyph-name="guillemotleft" unicode="&#xab;" horiz-adv-x="586" 
d="M169 88l-136 203l136 203h147l-140 -203l140 -203h-147zM392 88l-134 203l135 203h147l-139 -203l139 -203h-148z" />
    <glyph glyph-name="logicalnot" unicode="&#xac;" horiz-adv-x="603" 
d="M63 251v130h472v-241h-126v111h-346z" />
    <glyph glyph-name="uni00AD" unicode="&#xad;" horiz-adv-x="501" 
d="M59 263v130h382v-130h-382z" />
    <glyph glyph-name="registered" unicode="&#xae;" horiz-adv-x="593" 
d="M116 703q75 75 181 75t181 -75q75 -74 75 -180t-75 -181q-76 -74 -181 -74t-181 74q-75 75 -75 181t75 180zM161 387q55 -57 136 -57q79 0 135 57q56 58 56 136t-56 136q-56 57 -135 57q-81 0 -136 -57q-55 -56 -55 -136t55 -136zM398 565q0 -50 -45 -72l50 -88h-65
l-43 80h-32v-80h-59v241h110q36 0 60 -22.5t24 -58.5zM263 597v-65h36q38 0 38 34q0 31 -38 31h-36z" />
    <glyph glyph-name="macron" unicode="&#xaf;" horiz-adv-x="454" 
d="M40 636v124h327v-122z" />
    <glyph glyph-name="degree" unicode="&#xb0;" horiz-adv-x="366" 
d="M183 531q-64 0 -108 43q-44 44 -44 105q0 62 44 106q46 44 108 44q64 0 108 -44t44 -106q0 -61 -44 -105q-43 -43 -108 -43zM183 612q28 0 47.5 19.5t19.5 47.5t-19.5 47.5t-47.5 19.5q-27 0 -46.5 -19.5t-19.5 -47.5t19.5 -47.5t46.5 -19.5z" />
    <glyph glyph-name="plusminus" unicode="&#xb1;" horiz-adv-x="620" 
d="M564 362h-188v-184h188v-127h-508v127h190v184h-190v131h190v189h130v-189h188v-131z" />
    <glyph glyph-name="uni00B2" unicode="&#xb2;" horiz-adv-x="346" 
d="M170 590h139v-83h-272v75l129 130q46 46 46 75q0 18 -13.5 29.5t-33.5 11.5q-41 0 -96 -52l-45 68q63 68 147 68q30 0 55 -9t43 -25.5t28 -39.5t10 -50q0 -56 -56 -114z" />
    <glyph glyph-name="uni00B3" unicode="&#xb3;" horiz-adv-x="333" 
d="M48 613q55 -28 95 -28q31 -2 45.5 12t14.5 31t-15.5 30.5t-44.5 11.5h-53v79h47q23 0 41 10t18 30q0 19 -15.5 28.5t-36.5 9.5q-36 0 -79 -28l-45 66q56 47 135 47q59 0 97 -31q39 -30 39 -74q0 -32 -20 -55.5t-52 -33.5v-2q39 -9 60.5 -35t21.5 -61q2 -40 -24 -68.5
t-68.5 -41.5t-95 -6.5t-103.5 36.5z" />
    <glyph glyph-name="acute" unicode="&#xb4;" horiz-adv-x="405" 
d="M40 620l62 176h157l-94 -176h-125z" />
    <glyph glyph-name="paragraph" unicode="&#xb6;" horiz-adv-x="761" 
d="M714 734v-139h-77v-798h-142v798h-72v-798h-143v483h-29q-96 0 -160 62q-63 63 -63 164t65 164q65 64 171 64h450z" />
    <glyph glyph-name="periodcentered" unicode="&#xb7;" horiz-adv-x="265" 
d="M134 -16q-35 0 -59 23.5t-24 58.5q0 34 24 57t59 23q33 0 56.5 -23t23.5 -57q0 -35 -23.5 -58.5t-56.5 -23.5z" />
    <glyph glyph-name="cedilla" unicode="&#xb8;" horiz-adv-x="345" 
d="M202 -48q45 -2 76.5 -28.5t31.5 -71.5q0 -24 -10 -46t-28.5 -38.5t-46 -26t-61.5 -9.5q-61 0 -124 31l31 81q42 -21 81 -21q26 0 39 11t13 27q0 34 -56 34h-54l-8 27l39 98l104 -2z" />
    <glyph glyph-name="uni00B9" unicode="&#xb9;" horiz-adv-x="276" 
d="M154 901h70v-394h-94v264l-71 -53l-49 74z" />
    <glyph glyph-name="ordmasculine" unicode="&#xba;" horiz-adv-x="429" 
d="M214 381q-75 0 -128 50q-51 51 -51 126q0 76 51 126q51 51 128 51t128 -51q52 -49 52 -126q0 -75 -52 -126q-52 -50 -128 -50zM214 465q40 0 66 26.5t26 65.5q0 40 -26.5 66.5t-66.5 26.5q-39 0 -65 -26.5t-26 -66.5t26.5 -66t65.5 -26z" />
    <glyph glyph-name="guillemotright" unicode="&#xbb;" horiz-adv-x="586" 
d="M194 88h-148l139 203l-139 203h147l135 -203zM417 88h-147l140 203l-140 203h147l136 -203z" />
    <glyph glyph-name="onequarter" unicode="&#xbc;" horiz-adv-x="884" 
d="M150 346v265l-71 -53l-49 74l144 109h70v-395h-94zM684 739h113l-577 -739h-114zM840 164v-75h-42v-89h-85v89h-178l-19 56l210 251h72v-232h42zM618 164h95v114z" />
    <glyph glyph-name="onehalf" unicode="&#xbd;" horiz-adv-x="865" 
d="M151 346v265l-71 -53l-49 74l144 109h70v-395h-94zM662 739h113l-576 -739h-115zM684 83h139v-83h-272v75l129 130q46 46 46 75q0 18 -13.5 29.5t-33.5 11.5q-41 0 -96 -52l-45 68q63 68 147 68q30 0 55 -9t43 -25.5t28 -39.5t10 -50q0 -56 -56 -114z" />
    <glyph glyph-name="threequarters" unicode="&#xbe;" horiz-adv-x="849" 
d="M153 425q31 -2 45.5 12t14.5 31t-15.5 30.5t-44.5 11.5h-53v79h47q23 0 41 10t18 30q0 19 -15.5 28.5t-36.5 9.5q-36 0 -79 -28l-45 66q56 47 135 47q59 0 97 -31q39 -30 39 -74q0 -32 -20 -55.5t-52 -33.5v-2q39 -9 60.5 -35t21.5 -61q2 -40 -24 -68.5t-68.5 -41.5
t-95 -6.5t-103.5 36.5l38 73q55 -28 95 -28zM690 739h113l-576 -739h-115zM751 396v-232h42v-75h-42v-89h-85v89h-178l-19 56l210 251h72zM571 164h95v114z" />
    <glyph glyph-name="questiondown" unicode="&#xbf;" horiz-adv-x="543" 
d="M381 446q0 -34 -24 -57.5t-59 -23.5q-34 0 -57.5 23.5t-23.5 57.5q0 35 23.5 58t57.5 23t58.5 -23t24.5 -58zM368 320v-66q0 -43 -19 -79t-46 -61q-20 -17 -40.5 -34.5t-38 -36t-28.5 -39t-11 -43.5q0 -40 28.5 -65t71.5 -25q74 0 149 87l87 -98q-99 -122 -247 -122
q-105 0 -172 61t-67 153q0 48 20.5 86.5t49.5 64.5q21 19 43.5 38t41 38.5t30.5 39.5t12 43v58h136z" />
    <glyph glyph-name="Agrave" unicode="&#xc0;" horiz-adv-x="696" 
d="M417 795h-133l-97 183h165zM532 0l-55 160h-258l-57 -160h-155l282 739h121l278 -739h-156zM349 538l-88 -246h174z" />
    <glyph glyph-name="Aacute" unicode="&#xc1;" horiz-adv-x="696" 
d="M518 977l-98 -183h-130l65 183h163zM532 0l-55 160h-258l-57 -160h-155l282 739h121l278 -739h-156zM349 538l-88 -246h174z" />
    <glyph glyph-name="Acircumflex" unicode="&#xc2;" horiz-adv-x="696" 
d="M348 883l-68 -89h-139l154 183h109l155 -183h-144zM532 0l-55 160h-258l-57 -160h-155l282 739h121l278 -739h-156zM349 538l-88 -246h174z" />
    <glyph glyph-name="Atilde" unicode="&#xc3;" horiz-adv-x="696" 
d="M282 842q-40 0 -65 -52l-92 45q49 118 147 118q35 0 78 -22t59 -22q35 0 61 48l91 -43q-21 -57 -57 -87.5t-81 -30.5q-31 0 -77 23t-64 23zM532 0l-55 160h-258l-57 -160h-155l282 739h121l278 -739h-156zM349 538l-88 -246h174z" />
    <glyph glyph-name="Adieresis" unicode="&#xc4;" horiz-adv-x="696" 
d="M155 880q0 34 24 57.5t59 23.5t59 -23.5t24 -57.5q0 -36 -24 -60t-59 -24t-59 24t-24 60zM452 796q-36 0 -59.5 24t-23.5 60q0 34 24 57.5t59 23.5q34 0 58 -23.5t24 -57.5q0 -36 -24 -60t-58 -24zM532 0l-55 160h-258l-57 -160h-155l282 739h121l278 -739h-156zM349 538
l-88 -246h174z" />
    <glyph glyph-name="Aring" unicode="&#xc5;" horiz-adv-x="696" 
d="M213 911q0 56 40 95t98 39t97 -39q40 -39 40 -95q0 -57 -40 -94q-40 -38 -97 -38t-98 38q-40 39 -40 94zM351 966q-23 0 -39 -15.5t-16 -37.5q0 -23 16 -39t39 -16q22 0 37.5 16t15.5 39q0 22 -15.5 37.5t-37.5 15.5zM532 0l-55 160h-258l-57 -160h-155l282 739h121
l278 -739h-156zM349 538l-88 -246h174z" />
    <glyph glyph-name="AE" unicode="&#xc6;" horiz-adv-x="1050" 
d="M996 601h-357v-159h329v-138h-329v-166h356v-138h-506v174h-244l-100 -174h-163l447 739h567v-138zM321 306h168v292z" />
    <glyph glyph-name="Ccedilla" unicode="&#xc7;" horiz-adv-x="765" 
d="M746 146q-45 -63 -118 -104.5t-163 -50.5l-16 -39q45 -2 76.5 -28.5t31.5 -71.5q0 -24 -10 -46t-28.5 -38.5t-46 -26t-61.5 -9.5q-61 0 -124 31l31 81q42 -21 81 -21q26 0 39 11t13 27q0 34 -56 34h-54l-8 27l28 71q-140 20 -231 121q-90 102 -90 253q0 168 111 276
q112 109 271 109q50 0 96.5 -11t88 -31t75.5 -48.5t58 -62.5l-99 -97q-87 107 -211 107q-101 0 -168 -69q-68 -68 -68 -173q0 -102 67 -169t168 -67q129 0 215 108z" />
    <glyph glyph-name="Egrave" unicode="&#xc8;" horiz-adv-x="637" 
d="M410 795h-133l-97 183h165zM82 0v739h501v-138h-352v-159h326v-138h-326v-166h352v-138h-501z" />
    <glyph glyph-name="Eacute" unicode="&#xc9;" horiz-adv-x="637" 
d="M260 794l65 183h163l-98 -183h-130zM82 0v739h501v-138h-352v-159h326v-138h-326v-166h352v-138h-501z" />
    <glyph glyph-name="Ecircumflex" unicode="&#xca;" horiz-adv-x="637" 
d="M124 794l154 183h109l155 -183h-144l-67 89l-68 -89h-139zM82 0v739h501v-138h-352v-159h326v-138h-326v-166h352v-138h-501z" />
    <glyph glyph-name="Edieresis" unicode="&#xcb;" horiz-adv-x="637" 
d="M143 880q0 34 24 57.5t59 23.5t59 -23.5t24 -57.5q0 -36 -24 -60t-59 -24t-59 24t-24 60zM440 796q-36 0 -59.5 24t-23.5 60q0 34 24 57.5t59 23.5q34 0 58 -23.5t24 -57.5q0 -36 -24 -60t-58 -24zM82 0v739h501v-138h-352v-159h326v-138h-326v-166h352v-138h-501z" />
    <glyph glyph-name="Igrave" unicode="&#xcc;" horiz-adv-x="313" 
d="M228 795h-133l-97 183h165zM84 739h149v-739h-149v739z" />
    <glyph glyph-name="Iacute" unicode="&#xcd;" horiz-adv-x="311" 
d="M87 795l65 183h163l-98 -183h-130zM82 739h149v-739h-149v739z" />
    <glyph glyph-name="Icircumflex" unicode="&#xce;" horiz-adv-x="313" 
d="M-50 796l154 183h109l155 -183h-144l-67 89l-68 -89h-139zM84 739h149v-739h-149v739z" />
    <glyph glyph-name="Idieresis" unicode="&#xcf;" horiz-adv-x="313" 
d="M-37 882q0 17 6.5 32t18 26.5t27 18t33.5 6.5t33.5 -6.5t27 -18t18 -26.5t6.5 -32q0 -37 -24.5 -61.5t-60.5 -24.5t-60.5 24.5t-24.5 61.5zM268 796q-37 0 -61.5 24.5t-24.5 61.5q0 35 24.5 59t61.5 24q18 0 33 -6.5t26.5 -18t18 -26.5t6.5 -32q0 -37 -24.5 -61.5
t-59.5 -24.5zM84 739h149v-739h-149v739z" />
    <glyph glyph-name="Eth" unicode="&#xd0;" horiz-adv-x="786" 
d="M387 739q167 0 261 -100q95 -100 95 -271t-97 -269q-96 -99 -265 -99h-283v310h-82v120h82v309h289zM388 142q95 0 148 65t53 164q0 96 -53 161t-148 65h-142v-167h191v-120h-191v-168h142z" />
    <glyph glyph-name="Ntilde" unicode="&#xd1;" horiz-adv-x="794" 
d="M180 838q49 118 147 118q35 0 78 -22t59 -22q35 0 61 48l91 -43q-21 -57 -57 -87.5t-81 -30.5q-31 0 -77 23t-64 23q-40 0 -65 -52zM566 739h146v-739h-101l-383 453v-453h-146v739h94l390 -457v457z" />
    <glyph glyph-name="Ograve" unicode="&#xd2;" horiz-adv-x="848" 
d="M502 795h-133l-97 183h165zM423 -12q-165 0 -274 109q-110 110 -110 270t111 273q112 112 274 112t273 -112q112 -112 112 -271t-112 -270q-111 -111 -274 -111zM655 369q0 102 -67 169q-68 68 -164 68t-164 -68q-67 -67 -67 -169q0 -101 66 -168q67 -67 165 -67t165 67
t66 168z" />
    <glyph glyph-name="Oacute" unicode="&#xd3;" horiz-adv-x="848" 
d="M358 794l65 183h163l-98 -183h-130zM423 -12q-165 0 -274 109q-110 110 -110 270t111 273q112 112 274 112t273 -112q112 -112 112 -271t-112 -270q-111 -111 -274 -111zM655 369q0 102 -67 169q-68 68 -164 68t-164 -68q-67 -67 -67 -169q0 -101 66 -168q67 -67 165 -67
t165 67t66 168z" />
    <glyph glyph-name="Ocircumflex" unicode="&#xd4;" horiz-adv-x="848" 
d="M216 794l154 183h109l155 -183h-144l-67 89l-68 -89h-139zM423 -12q-165 0 -274 109q-110 110 -110 270t111 273q112 112 274 112t273 -112q112 -112 112 -271t-112 -270q-111 -111 -274 -111zM655 369q0 102 -67 169q-68 68 -164 68t-164 -68q-67 -67 -67 -169
q0 -101 66 -168q67 -67 165 -67t165 67t66 168z" />
    <glyph glyph-name="Otilde" unicode="&#xd5;" horiz-adv-x="848" 
d="M209 835q49 118 147 118q35 0 78 -22t59 -22q35 0 61 48l91 -43q-21 -57 -57 -87.5t-81 -30.5q-31 0 -77 23t-64 23q-40 0 -65 -52zM423 -12q-165 0 -274 109q-110 110 -110 270t111 273q112 112 274 112t273 -112q112 -112 112 -271t-112 -270q-111 -111 -274 -111z
M655 369q0 102 -67 169q-68 68 -164 68t-164 -68q-67 -67 -67 -169q0 -101 66 -168q67 -67 165 -67t165 67t66 168z" />
    <glyph glyph-name="Odieresis" unicode="&#xd6;" horiz-adv-x="848" 
d="M237 880q0 34 24 57.5t59 23.5t59 -23.5t24 -57.5q0 -36 -24 -60t-59 -24t-59 24t-24 60zM534 796q-36 0 -59.5 24t-23.5 60q0 34 24 57.5t59 23.5q34 0 58 -23.5t24 -57.5q0 -36 -24 -60t-58 -24zM423 -12q-165 0 -274 109q-110 110 -110 270t111 273q112 112 274 112
t273 -112q112 -112 112 -271t-112 -270q-111 -111 -274 -111zM655 369q0 102 -67 169q-68 68 -164 68t-164 -68q-67 -67 -67 -169q0 -101 66 -168q67 -67 165 -67t165 67t66 168z" />
    <glyph glyph-name="multiply" unicode="&#xd7;" horiz-adv-x="556" 
d="M512 488l-149 -150l148 -147l-84 -89l-150 150l-149 -150l-85 89l148 148l-147 147l84 87l148 -148l148 148z" />
    <glyph glyph-name="Oslash" unicode="&#xd8;" horiz-adv-x="848" 
d="M692 646q117 -114 117 -277q0 -159 -112 -270q-111 -111 -274 -111q-90 0 -169 36l-59 -84l-86 59l58 82q-61 52 -94.5 126.5t-33.5 159.5q0 160 111 273q112 112 274 112q102 0 184 -46l63 90l85 -59zM193 369q0 -98 62 -163l267 379q-48 21 -98 21q-96 0 -164 -68
q-67 -67 -67 -169zM424 134q98 0 165 67t66 168q0 87 -51 152l-262 -373q40 -14 82 -14z" />
    <glyph glyph-name="Ugrave" unicode="&#xd9;" horiz-adv-x="725" 
d="M438 795h-133l-97 183h165zM74 739h149v-459q0 -75 37 -112t103 -37q63 0 100.5 38.5t37.5 110.5v459h150v-469q0 -139 -82 -211q-81 -72 -206 -72t-207 72t-82 211v469z" />
    <glyph glyph-name="Uacute" unicode="&#xda;" horiz-adv-x="725" 
d="M292 794l65 183h163l-98 -183h-130zM74 739h149v-459q0 -75 37 -112t103 -37q63 0 100.5 38.5t37.5 110.5v459h150v-469q0 -139 -82 -211q-81 -72 -206 -72t-207 72t-82 211v469z" />
    <glyph glyph-name="Ucircumflex" unicode="&#xdb;" horiz-adv-x="725" 
d="M154 794l154 183h109l155 -183h-144l-67 89l-68 -89h-139zM74 739h149v-459q0 -75 37 -112t103 -37q63 0 100.5 38.5t37.5 110.5v459h150v-469q0 -139 -82 -211q-81 -72 -206 -72t-207 72t-82 211v469z" />
    <glyph glyph-name="Udieresis" unicode="&#xdc;" horiz-adv-x="725" 
d="M172 880q0 34 24 57.5t59 23.5t59 -23.5t24 -57.5q0 -36 -24 -60t-59 -24t-59 24t-24 60zM469 796q-35 0 -59 24t-24 60q0 34 24 57.5t59 23.5q34 0 58 -23.5t24 -57.5q0 -36 -24 -60t-58 -24zM74 739h149v-459q0 -75 37 -112t103 -37q63 0 100.5 38.5t37.5 110.5v459
h150v-469q0 -139 -82 -211q-81 -72 -206 -72t-207 72t-82 211v469z" />
    <glyph glyph-name="Yacute" unicode="&#xdd;" horiz-adv-x="679" 
d="M268 794l65 183h163l-98 -183h-130zM669 739l-256 -483v-256h-148v256l-253 483h171l156 -324l159 324h171z" />
    <glyph glyph-name="Thorn" unicode="&#xde;" horiz-adv-x="652" 
d="M360 619q126 0 191 -71t65 -170q0 -100 -68 -170q-68 -69 -200 -69h-118v-139h-148v739h148v-120h130zM352 275q57 0 84.5 31t27.5 74q0 42 -26.5 71.5t-77.5 29.5h-130v-206h122z" />
    <glyph glyph-name="germandbls" unicode="&#xdf;" horiz-adv-x="667" 
d="M500 396q60 -19 96 -71.5t36 -119.5q0 -97 -72 -161q-71 -63 -181 -63q-66 0 -126 23l29 120q34 -15 82 -15q28 0 51 8.5t39.5 22.5t25.5 33.5t9 42.5q0 52 -46 80.5t-121 28.5v112q58 0 93.5 31.5t35.5 79.5q0 43 -30 71t-79 28q-63 0 -99.5 -48t-36.5 -136v-640h-142
v660q0 81 26 140.5t68 92.5q43 33 91 49t99 16q106 0 177 -62q70 -61 70 -155q0 -54 -24.5 -97.5t-70.5 -70.5z" />
    <glyph glyph-name="agrave" unicode="&#xe0;" horiz-adv-x="678" 
d="M402 627h-125l-94 176h157zM479 545h134v-545h-134v63q-70 -76 -174 -76q-118 0 -194 82t-76 206q0 123 77 203q76 81 193 81q102 0 174 -79v65zM481 273q0 64 -44 111q-43 46 -109 46q-67 0 -110 -46q-42 -47 -42 -111q0 -66 43 -112t109 -46t109 46q44 47 44 112z" />
    <glyph glyph-name="aacute" unicode="&#xe1;" horiz-adv-x="678" 
d="M492 802l-94 -176h-125l62 176h157zM479 545h134v-545h-134v63q-70 -76 -174 -76q-118 0 -194 82t-76 206q0 123 77 203q76 81 193 81q102 0 174 -79v65zM481 273q0 64 -44 111q-43 46 -109 46q-67 0 -110 -46q-42 -47 -42 -111q0 -66 43 -112t109 -46t109 46
q44 47 44 112z" />
    <glyph glyph-name="acircumflex" unicode="&#xe2;" horiz-adv-x="678" 
d="M336 712l-65 -86h-134l148 176h105l149 -176h-138zM479 545h134v-545h-134v63q-70 -76 -174 -76q-118 0 -194 82t-76 206q0 123 77 203q76 81 193 81q102 0 174 -79v65zM481 273q0 64 -44 111q-43 46 -109 46q-67 0 -110 -46q-42 -47 -42 -111q0 -66 43 -112t109 -46
t109 46q44 47 44 112z" />
    <glyph glyph-name="atilde" unicode="&#xe3;" horiz-adv-x="678" 
d="M281 673q-39 0 -64 -51l-90 44q49 115 144 115q34 0 75 -22q43 -21 59 -21q33 0 59 47l89 -42q-20 -55 -55 -85t-80 -30q-32 0 -75 22q-44 23 -62 23zM479 545h134v-545h-134v63q-70 -76 -174 -76q-118 0 -194 82t-76 206q0 123 77 203q76 81 193 81q102 0 174 -79v65z
M481 273q0 64 -44 111q-43 46 -109 46q-67 0 -110 -46q-42 -47 -42 -111q0 -66 43 -112t109 -46t109 46q44 47 44 112z" />
    <glyph glyph-name="adieresis" unicode="&#xe4;" horiz-adv-x="678" 
d="M149 702q0 17 6.5 32t18 26t26.5 17.5t33 6.5t33 -6.5t26.5 -17.5t18 -26t6.5 -32q0 -37 -24 -61t-60 -24t-60 24t-24 61zM451 617q-36 0 -60.5 24t-24.5 61q0 35 24.5 58.5t60.5 23.5q35 0 59 -24t24 -58q0 -37 -24 -61t-59 -24zM479 545h134v-545h-134v63
q-70 -76 -174 -76q-118 0 -194 82t-76 206q0 123 77 203q76 81 193 81q102 0 174 -79v65zM481 273q0 64 -44 111q-43 46 -109 46q-67 0 -110 -46q-42 -47 -42 -111q0 -66 43 -112t109 -46t109 46q44 47 44 112z" />
    <glyph glyph-name="aring" unicode="&#xe5;" horiz-adv-x="678" 
d="M339 607q-57 0 -95 37q-38 38 -38 90q0 53 38 91q40 38 95 38t93 -38q39 -38 39 -91t-39 -90q-37 -37 -93 -37zM339 787q-22 0 -37.5 -14.5t-15.5 -36.5t15.5 -37.5t37.5 -15.5q21 0 36 15.5t15 37.5t-15 36.5t-36 14.5zM479 545h134v-545h-134v63q-70 -76 -174 -76
q-118 0 -194 82t-76 206q0 123 77 203q76 81 193 81q102 0 174 -79v65zM481 273q0 64 -44 111q-43 46 -109 46q-67 0 -110 -46q-42 -47 -42 -111q0 -66 43 -112t109 -46t109 46q44 47 44 112z" />
    <glyph glyph-name="ae" unicode="&#xe6;" horiz-adv-x="981" 
d="M947 294q0 -14 -1 -30t-3 -33l-401 1q11 -57 50.5 -92t102.5 -35q90 0 167 56l60 -97q-98 -76 -235 -76q-153 0 -229 108q-75 -109 -222 -109q-97 0 -153 50q-55 49 -55 127q0 48 22.5 82.5t60.5 51.5q39 18 80 25.5t87 7.5h124q-23 111 -140 111q-91 0 -163 -48l-48 100
q22 14 47.5 26t56.5 21q61 18 118 18q136 0 200 -94q79 94 213 94q112 0 186 -69q75 -69 75 -196zM820 331q-8 54 -44 83t-90 29t-91 -29t-51 -83h276zM251 105q54 0 97 33.5t55 93.5h-122q-120 0 -120 -63q0 -29 25 -46.5t65 -17.5z" />
    <glyph glyph-name="ccedilla" unicode="&#xe7;" horiz-adv-x="603" 
d="M327 117q43 0 82 23t57 59l114 -67q-31 -58 -88 -95.5t-129 -46.5l-16 -38q45 -2 76.5 -28.5t31.5 -71.5q0 -24 -10 -46t-28.5 -38.5t-46 -26t-61.5 -9.5q-61 0 -124 31l31 81q42 -21 81 -21q26 0 39 11t13 27q0 34 -56 34h-54l-8 27l29 72q-102 20 -164 95
q-61 76 -61 184q0 126 82 205q82 81 211 81q84 0 152 -39.5t102 -112.5l-113 -62q-50 83 -139 83q-68 0 -111 -45q-44 -44 -44 -110q0 -68 43 -112q44 -44 109 -44z" />
    <glyph glyph-name="egrave" unicode="&#xe8;" horiz-adv-x="626" 
d="M389 627h-125l-94 176h157zM593 285q0 -14 -1.5 -29.5t-3.5 -32.5h-409q30 -116 159 -116q44 0 92.5 15.5t83.5 39.5l56 -99q-104 -75 -238 -75q-143 0 -220 83q-76 82 -76 202q0 125 79 205q79 81 205 81q119 0 196 -74t77 -200zM320 442q-54 0 -91 -30t-50 -84h277
q-10 54 -46 84t-90 30z" />
    <glyph glyph-name="eacute" unicode="&#xe9;" horiz-adv-x="626" 
d="M470 802l-94 -176h-125l62 176h157zM593 285q0 -14 -1.5 -29.5t-3.5 -32.5h-409q30 -116 159 -116q44 0 92.5 15.5t83.5 39.5l56 -99q-104 -75 -238 -75q-143 0 -220 83q-76 82 -76 202q0 125 79 205q79 81 205 81q119 0 196 -74t77 -200zM320 442q-54 0 -91 -30t-50 -84
h277q-10 54 -46 84t-90 30z" />
    <glyph glyph-name="ecircumflex" unicode="&#xea;" horiz-adv-x="626" 
d="M320 715l-65 -86h-134l148 176h105l149 -176h-138zM593 285q0 -14 -1.5 -29.5t-3.5 -32.5h-409q30 -116 159 -116q44 0 92.5 15.5t83.5 39.5l56 -99q-104 -75 -238 -75q-143 0 -220 83q-76 82 -76 202q0 125 79 205q79 81 205 81q119 0 196 -74t77 -200zM320 442
q-54 0 -91 -30t-50 -84h277q-10 54 -46 84t-90 30z" />
    <glyph glyph-name="edieresis" unicode="&#xeb;" horiz-adv-x="626" 
d="M138 696q0 17 6.5 32t18 26t26.5 17.5t33 6.5t33 -6.5t26.5 -17.5t18 -26t6.5 -32q0 -37 -24 -61t-60 -24t-60 24t-24 61zM440 611q-36 0 -60.5 24t-24.5 61q0 35 24.5 58.5t60.5 23.5q35 0 59 -24t24 -58q0 -37 -24 -61t-59 -24zM593 285q0 -14 -1.5 -29.5t-3.5 -32.5
h-409q30 -116 159 -116q44 0 92.5 15.5t83.5 39.5l56 -99q-104 -75 -238 -75q-143 0 -220 83q-76 82 -76 202q0 125 79 205q79 81 205 81q119 0 196 -74t77 -200zM320 442q-54 0 -91 -30t-50 -84h277q-10 54 -46 84t-90 30z" />
    <glyph glyph-name="igrave" unicode="&#xec;" horiz-adv-x="271" 
d="M203 627h-125l-94 176h157zM207 0h-141v545h141v-545z" />
    <glyph glyph-name="iacute" unicode="&#xed;" horiz-adv-x="267" 
d="M70 626l62 176h157l-94 -176h-125zM205 0h-141v545h141v-545z" />
    <glyph glyph-name="icircumflex" unicode="&#xee;" horiz-adv-x="269" 
d="M-64 626l148 176h105l149 -176h-138l-65 86l-65 -86h-134zM207 0h-141v545h141v-545z" />
    <glyph glyph-name="idieresis" unicode="&#xef;" horiz-adv-x="269" 
d="M-56 700q0 17 6.5 32t18 26t26.5 17.5t33 6.5t33 -6.5t26.5 -17.5t18 -26t6.5 -32q0 -37 -24 -61t-60 -24t-60 24t-24 61zM246 615q-36 0 -60.5 24t-24.5 61q0 35 24.5 58.5t60.5 23.5q35 0 59 -24t24 -58q0 -37 -24 -61t-59 -24zM207 0h-141v545h141v-545z" />
    <glyph glyph-name="eth" unicode="&#xf0;" horiz-adv-x="655" 
d="M486 693q129 -168 129 -347q0 -154 -88 -257q-87 -102 -222 -102q-119 0 -195 76q-75 76 -75 188q0 111 76 184t178 73q119 0 182 -101q-22 111 -97 206l-84 -60l-53 67l80 57q-47 47 -98 86l99 95q30 -23 58 -48t54 -53l84 60l51 -68zM453 256q0 59 -41 98
q-40 40 -97 40q-58 0 -99 -41q-40 -40 -40 -100t39 -100t98 -40q58 0 99 41t41 102z" />
    <glyph glyph-name="ntilde" unicode="&#xf1;" horiz-adv-x="643" 
d="M114 665q49 115 144 115q34 0 75 -22q43 -21 59 -21q33 0 59 47l89 -42q-20 -55 -55 -85t-80 -30q-32 0 -75 22q-44 23 -62 23q-39 0 -64 -51zM64 0v545h138v-76q22 40 67.5 65.5t103.5 25.5q89 0 151 -59t62 -168v-333h-141v295q0 66 -31.5 100.5t-83.5 34.5
q-57 0 -91 -38.5t-34 -99.5v-292h-141z" />
    <glyph glyph-name="ograve" unicode="&#xf2;" 
d="M395 627h-125l-94 176h157zM35 273q0 121 82 203q82 84 210 84q127 0 210 -84q82 -82 82 -203q0 -122 -82 -204q-83 -83 -210 -83t-210 83q-82 82 -82 204zM219 162q43 -45 108 -45q63 0 107 45q44 47 44 111t-44 110q-44 45 -107 45q-65 0 -108 -45q-43 -44 -43 -110
q0 -65 43 -111z" />
    <glyph glyph-name="oacute" unicode="&#xf3;" 
d="M256 626l62 176h157l-94 -176h-125zM35 273q0 121 82 203q82 84 210 84q127 0 210 -84q82 -82 82 -203q0 -122 -82 -204q-83 -83 -210 -83t-210 83q-82 82 -82 204zM219 162q43 -45 108 -45q63 0 107 45q44 47 44 111t-44 110q-44 45 -107 45q-65 0 -108 -45
q-43 -44 -43 -110q0 -65 43 -111z" />
    <glyph glyph-name="ocircumflex" unicode="&#xf4;" 
d="M126 628l148 176h105l149 -176h-138l-65 86l-65 -86h-134zM35 273q0 121 82 203q82 84 210 84q127 0 210 -84q82 -82 82 -203q0 -122 -82 -204q-83 -83 -210 -83t-210 83q-82 82 -82 204zM219 162q43 -45 108 -45q63 0 107 45q44 47 44 111t-44 110q-44 45 -107 45
q-65 0 -108 -45q-43 -44 -43 -110q0 -65 43 -111z" />
    <glyph glyph-name="otilde" unicode="&#xf5;" 
d="M116 666q49 115 144 115q34 0 75 -22q43 -21 59 -21q33 0 59 47l89 -42q-20 -55 -55 -85t-80 -30q-32 0 -75 22q-44 23 -62 23q-39 0 -64 -51zM35 273q0 121 82 203q82 84 210 84q127 0 210 -84q82 -82 82 -203q0 -122 -82 -204q-83 -83 -210 -83t-210 83q-82 82 -82 204
zM219 162q43 -45 108 -45q63 0 107 45q44 47 44 111t-44 110q-44 45 -107 45q-65 0 -108 -45q-43 -44 -43 -110q0 -65 43 -111z" />
    <glyph glyph-name="odieresis" unicode="&#xf6;" 
d="M135 701q0 17 6.5 32t18 26t26.5 17.5t33 6.5t33 -6.5t26.5 -17.5t18 -26t6.5 -32q0 -37 -24 -61t-60 -24t-60 24t-24 61zM437 616q-36 0 -60.5 24t-24.5 61q0 35 24.5 58.5t60.5 23.5q35 0 59 -24t24 -58q0 -37 -24 -61t-59 -24zM35 273q0 121 82 203q82 84 210 84
q127 0 210 -84q82 -82 82 -203q0 -122 -82 -204q-83 -83 -210 -83t-210 83q-82 82 -82 204zM219 162q43 -45 108 -45q63 0 107 45q44 47 44 111t-44 110q-44 45 -107 45q-65 0 -108 -45q-43 -44 -43 -110q0 -65 43 -111z" />
    <glyph glyph-name="divide" unicode="&#xf7;" horiz-adv-x="553" 
d="M277 452q-33 0 -56 22.5t-23 55.5q0 32 23 54t56 22q32 0 54 -22t22 -54q0 -33 -22 -55.5t-54 -22.5zM42 283v119h468v-119h-468zM277 81q-33 0 -56 22.5t-23 55.5q0 32 23 54t56 22q32 0 54 -22t22 -54q0 -33 -22 -55.5t-54 -22.5z" />
    <glyph glyph-name="oslash" unicode="&#xf8;" 
d="M524 489q95 -84 95 -216q0 -122 -82 -204q-83 -83 -210 -83q-72 0 -132 28l-55 -79l-64 44l54 78q-95 83 -95 216q0 121 82 203q82 84 210 84q73 0 130 -28l50 73l67 -43zM176 273q0 -57 34 -100l169 246q-24 9 -52 9q-65 0 -108 -45q-43 -44 -43 -110zM327 117
q63 0 107 45q44 47 44 111q0 56 -35 100l-170 -246q27 -10 54 -10z" />
    <glyph glyph-name="ugrave" unicode="&#xf9;" horiz-adv-x="614" 
d="M377 627h-125l-94 176h157zM307 -13q-58 0 -104.5 16.5t-78.5 47.5t-49.5 76.5t-17.5 102.5v315h141v-315q0 -52 29 -83t80 -31t80 31t29 83v315h141v-315q0 -115 -66 -179t-184 -64z" />
    <glyph glyph-name="uacute" unicode="&#xfa;" horiz-adv-x="614" 
d="M240 626l62 176h157l-94 -176h-125zM307 -13q-58 0 -104.5 16.5t-78.5 47.5t-49.5 76.5t-17.5 102.5v315h141v-315q0 -52 29 -83t80 -31t80 31t29 83v315h141v-315q0 -115 -66 -179t-184 -64z" />
    <glyph glyph-name="ucircumflex" unicode="&#xfb;" horiz-adv-x="614" 
d="M107 628l148 176h105l149 -176h-138l-65 86l-65 -86h-134zM307 -13q-58 0 -104.5 16.5t-78.5 47.5t-49.5 76.5t-17.5 102.5v315h141v-315q0 -52 29 -83t80 -31t80 31t29 83v315h141v-315q0 -115 -66 -179t-184 -64z" />
    <glyph glyph-name="udieresis" unicode="&#xfc;" horiz-adv-x="614" 
d="M115 700q0 17 6.5 32t18 26t26.5 17.5t33 6.5t33 -6.5t26.5 -17.5t18 -26t6.5 -32q0 -37 -24 -61t-60 -24t-60 24t-24 61zM417 615q-36 0 -60.5 24t-24.5 61q0 35 24.5 58.5t60.5 23.5q35 0 59 -24t24 -58q0 -37 -24 -61t-59 -24zM307 -13q-58 0 -104.5 16.5t-78.5 47.5
t-49.5 76.5t-17.5 102.5v315h141v-315q0 -52 29 -83t80 -31t80 31t29 83v315h141v-315q0 -115 -66 -179t-184 -64z" />
    <glyph glyph-name="yacute" unicode="&#xfd;" horiz-adv-x="599" 
d="M452 801l-94 -176h-125l62 176h157zM436 545h154l-219 -572q-40 -105 -95 -155t-136 -50q-62 0 -105 27l24 118q37 -18 70 -18q65 0 106 86l11 25l-238 539h163l141 -355z" />
    <glyph glyph-name="thorn" unicode="&#xfe;" horiz-adv-x="681" 
d="M373 559q117 0 195 -83q79 -82 79 -203q0 -120 -79 -203q-78 -83 -194 -83q-99 0 -169 78v-289h-141v984h139v-281q71 80 170 80zM351 116q66 0 108 45q43 44 43 111t-43 111q-42 45 -108 45q-67 0 -109 -45t-42 -111t42 -111t109 -45z" />
    <glyph glyph-name="ydieresis" unicode="&#xff;" horiz-adv-x="599" 
d="M114 701q0 17 6.5 32t18 26t26.5 17.5t33 6.5t33 -6.5t26.5 -17.5t18 -26t6.5 -32q0 -37 -24 -61t-60 -24t-60 24t-24 61zM416 616q-36 0 -60.5 24t-24.5 61q0 35 24.5 58.5t60.5 23.5q35 0 59 -24t24 -58q0 -37 -24 -61t-59 -24zM436 545h154l-219 -572
q-40 -105 -95 -155t-136 -50q-62 0 -105 27l24 118q37 -18 70 -18q65 0 106 86l11 25l-238 539h163l141 -355z" />
    <glyph glyph-name="Amacron" unicode="&#x100;" horiz-adv-x="696" 
d="M534 932v-122l-368 -2v124h368zM532 0l-55 160h-258l-57 -160h-155l282 739h121l278 -739h-156zM349 538l-88 -246h174z" />
    <glyph glyph-name="amacron" unicode="&#x101;" horiz-adv-x="678" 
d="M502 759v-122l-327 -2v124h327zM479 545h134v-545h-134v63q-70 -76 -174 -76q-118 0 -194 82t-76 206q0 123 77 203q76 81 193 81q102 0 174 -79v65zM481 273q0 64 -44 111q-43 46 -109 46q-67 0 -110 -46q-42 -47 -42 -111q0 -66 43 -112t109 -46t109 46q44 47 44 112z
" />
    <glyph glyph-name="Abreve" unicode="&#x102;" horiz-adv-x="696" 
d="M279 955q2 -35 19.5 -55.5t49.5 -20.5q31 0 48 20.5t19 55.5h101q-5 -75 -49.5 -118t-118.5 -43q-75 0 -119 43t-49 118h99zM532 0l-55 160h-258l-57 -160h-155l282 739h121l278 -739h-156zM349 538l-88 -246h174z" />
    <glyph glyph-name="abreve" unicode="&#x103;" horiz-adv-x="678" 
d="M479 545h134v-545h-134v63q-70 -76 -174 -76q-118 0 -194 82t-76 206q0 123 77 203q76 81 193 81q102 0 174 -79v65zM481 273q0 64 -44 111q-43 46 -109 46q-67 0 -110 -46q-42 -47 -42 -111q0 -66 43 -112t109 -46t109 46q44 47 44 112zM268 782q2 -35 19.5 -55.5
t49.5 -20.5q31 0 48 20.5t19 55.5h101q-5 -75 -49.5 -118t-118.5 -43q-75 0 -119 43t-49 118h99z" />
    <glyph glyph-name="Aogonek" unicode="&#x104;" horiz-adv-x="693" 
d="M702 -234q-50 -30 -106 -30q-58 0 -90.5 32t-32.5 83q0 86 98 149h-39l-55 160h-258l-57 -160h-155l282 739h121l278 -739h-1q-21 -9 -38.5 -22.5t-31 -29t-21 -31.5t-7.5 -31q0 -30 23.5 -38t58.5 8zM349 538l-88 -246h174z" />
    <glyph glyph-name="aogonek" unicode="&#x105;" horiz-adv-x="672" 
d="M627 -234q-50 -30 -106 -30q-58 0 -90.5 32t-32.5 83q0 86 98 149h-17v63q-70 -76 -174 -76q-118 0 -194 82t-76 206q0 123 77 203q76 81 193 81q102 0 174 -79v65h134v-545h-1q-21 -9 -38.5 -22.5t-31 -29t-21 -31.5t-7.5 -31q0 -30 23.5 -38t58.5 8zM481 273
q0 64 -44 111q-43 46 -109 46q-67 0 -110 -46q-42 -47 -42 -111q0 -66 43 -112t109 -46t109 46q44 47 44 112z" />
    <glyph glyph-name="Cacute" unicode="&#x106;" horiz-adv-x="765" 
d="M361 794l65 183h163l-98 -183h-130zM420 -11q-162 0 -271 105q-109 106 -109 273q0 168 111 276q112 109 271 109q50 0 96.5 -11t88 -31t75.5 -48.5t58 -62.5l-99 -97q-87 107 -211 107q-101 0 -168 -69q-68 -68 -68 -173q0 -102 67 -169t168 -67q129 0 215 108l102 -93
q-26 -35 -60.5 -64t-76.5 -49.5t-90 -32t-99 -11.5z" />
    <glyph glyph-name="cacute" unicode="&#x107;" horiz-adv-x="603" 
d="M259 626l62 176h157l-94 -176h-125zM324 -12q-126 0 -208 80q-81 79 -81 205t82 205q82 81 211 81q84 0 152 -39.5t102 -112.5l-113 -62q-50 83 -139 83q-68 0 -111 -45q-44 -44 -44 -110q0 -68 43 -112q44 -44 109 -44q43 0 82 23t57 59l114 -67q-18 -33 -44.5 -59.5
t-59.5 -45.5t-71.5 -29t-80.5 -10z" />
    <glyph glyph-name="Ccircumflex" unicode="&#x108;" horiz-adv-x="765" 
d="M209 794l154 183h109l155 -183h-144l-67 89l-68 -89h-139zM420 -11q-162 0 -271 105q-109 106 -109 273q0 168 111 276q112 109 271 109q50 0 96.5 -11t88 -31t75.5 -48.5t58 -62.5l-99 -97q-87 107 -211 107q-101 0 -168 -69q-68 -68 -68 -173q0 -102 67 -169t168 -67
q129 0 215 108l102 -93q-26 -35 -60.5 -64t-76.5 -49.5t-90 -32t-99 -11.5z" />
    <glyph glyph-name="ccircumflex" unicode="&#x109;" horiz-adv-x="603" 
d="M123 627l148 176h105l149 -176h-138l-65 86l-65 -86h-134zM324 -12q-126 0 -208 80q-81 79 -81 205t82 205q82 81 211 81q84 0 152 -39.5t102 -112.5l-113 -62q-50 83 -139 83q-68 0 -111 -45q-44 -44 -44 -110q0 -68 43 -112q44 -44 109 -44q43 0 82 23t57 59l114 -67
q-18 -33 -44.5 -59.5t-59.5 -45.5t-71.5 -29t-80.5 -10z" />
    <glyph glyph-name="Cdotaccent" unicode="&#x10a;" horiz-adv-x="765" 
d="M481 820q-12 -12 -28.5 -18.5t-33.5 -6.5t-33.5 6.5t-28.5 18.5t-18.5 28.5t-6.5 33.5t6.5 33t18.5 28t28.5 18.5t33.5 6.5t33.5 -6.5t28.5 -18.5t18.5 -28t6.5 -33t-6.5 -33.5t-18.5 -28.5zM420 -11q-162 0 -271 105q-109 106 -109 273q0 168 111 276q112 109 271 109
q50 0 96.5 -11t88 -31t75.5 -48.5t58 -62.5l-99 -97q-87 107 -211 107q-101 0 -168 -69q-68 -68 -68 -173q0 -102 67 -169t168 -67q129 0 215 108l102 -93q-26 -35 -60.5 -64t-76.5 -49.5t-90 -32t-99 -11.5z" />
    <glyph glyph-name="cdotaccent" unicode="&#x10b;" horiz-adv-x="603" 
d="M386 633q-12 -12 -28.5 -18.5t-33.5 -6.5t-33.5 6.5t-28.5 18.5t-18.5 28.5t-6.5 33.5t6.5 33t18.5 28t28.5 18.5t33.5 6.5t33.5 -6.5t28.5 -18.5t18.5 -28t6.5 -33t-6.5 -33.5t-18.5 -28.5zM324 -12q-126 0 -208 80q-81 79 -81 205t82 205q82 81 211 81q84 0 152 -39.5
t102 -112.5l-113 -62q-50 83 -139 83q-68 0 -111 -45q-44 -44 -44 -110q0 -68 43 -112q44 -44 109 -44q43 0 82 23t57 59l114 -67q-18 -33 -44.5 -59.5t-59.5 -45.5t-71.5 -29t-80.5 -10z" />
    <glyph glyph-name="Ccaron" unicode="&#x10c;" horiz-adv-x="765" 
d="M222 970h134l65 -86l65 86h138l-149 -176h-105zM420 -11q-162 0 -271 105q-109 106 -109 273q0 168 111 276q112 109 271 109q50 0 96.5 -11t88 -31t75.5 -48.5t58 -62.5l-99 -97q-87 107 -211 107q-101 0 -168 -69q-68 -68 -68 -173q0 -102 67 -169t168 -67
q129 0 215 108l102 -93q-26 -35 -60.5 -64t-76.5 -49.5t-90 -32t-99 -11.5z" />
    <glyph glyph-name="ccaron" unicode="&#x10d;" horiz-adv-x="603" 
d="M125 802h134l65 -86l65 86h138l-149 -176h-105zM324 -12q-126 0 -208 80q-81 79 -81 205t82 205q82 81 211 81q84 0 152 -39.5t102 -112.5l-113 -62q-50 83 -139 83q-68 0 -111 -45q-44 -44 -44 -110q0 -68 43 -112q44 -44 109 -44q43 0 82 23t57 59l114 -67
q-18 -33 -44.5 -59.5t-59.5 -45.5t-71.5 -29t-80.5 -10z" />
    <glyph glyph-name="Dcaron" unicode="&#x10e;" horiz-adv-x="770" 
d="M151 970h134l65 -86l65 86h138l-149 -176h-105zM82 0v739h289q167 0 261 -100q95 -100 95 -271t-97 -269q-96 -99 -265 -99h-283zM230 142h142q95 0 148 65t53 164q0 96 -53 161t-148 65h-142v-455z" />
    <glyph glyph-name="dcaron" unicode="&#x10f;" horiz-adv-x="706" 
d="M712 804h147l-92 -179h-119zM471 760h141v-760h-138v67q-66 -80 -169 -80q-117 0 -193 81q-77 83 -77 205q0 121 77 204q78 82 193 82q98 0 166 -77v278zM478 273q0 66 -42 111q-42 46 -109 46t-110 -46q-42 -45 -42 -111q0 -67 42 -113q43 -45 110 -45t109 45
q42 46 42 113z" />
    <glyph glyph-name="Dcroat" unicode="&#x110;" horiz-adv-x="786" 
d="M387 739q167 0 261 -100q95 -100 95 -271t-97 -269q-96 -99 -265 -99h-283v310h-82v120h82v309h289zM388 142q95 0 148 65t53 164q0 96 -53 161t-148 65h-142v-167h191v-120h-191v-168h142z" />
    <glyph glyph-name="dcroat" unicode="&#x111;" horiz-adv-x="676" 
d="M688 681v-88h-76v-593h-138v67q-66 -80 -169 -80q-117 0 -193 81q-77 83 -77 205q0 121 77 204q78 82 193 82q98 0 166 -77v111h-140v88h140v79h141v-79h76zM478 273q0 66 -42 111q-42 46 -109 46t-110 -46q-42 -45 -42 -111q0 -67 42 -113q43 -45 110 -45t109 45
q42 46 42 113z" />
    <glyph glyph-name="Emacron" unicode="&#x112;" horiz-adv-x="637" 
d="M152 806v124h368v-122zM82 0v739h501v-138h-352v-159h326v-138h-326v-166h352v-138h-501z" />
    <glyph glyph-name="emacron" unicode="&#x113;" horiz-adv-x="626" 
d="M481 760v-122l-327 -2v124h327zM593 285q0 -14 -1.5 -29.5t-3.5 -32.5h-409q30 -116 159 -116q44 0 92.5 15.5t83.5 39.5l56 -99q-104 -75 -238 -75q-143 0 -220 83q-76 82 -76 202q0 125 79 205q79 81 205 81q119 0 196 -74t77 -200zM320 442q-54 0 -91 -30t-50 -84h277
q-10 54 -46 84t-90 30z" />
    <glyph glyph-name="Ebreve" unicode="&#x114;" horiz-adv-x="637" 
d="M260 973q2 -40 22.5 -64.5t57.5 -24.5q36 0 56.5 24.5t22.5 64.5h118q-5 -88 -57.5 -138t-139.5 -50t-138.5 50t-57.5 138h116zM82 0v739h501v-138h-352v-159h326v-138h-326v-166h352v-138h-501z" />
    <glyph glyph-name="ebreve" unicode="&#x115;" horiz-adv-x="626" 
d="M324 619q-82 0 -132.5 48t-55.5 133h111q2 -38 21.5 -62t55.5 -24t55.5 24t21.5 62h113q-5 -85 -55.5 -133t-134.5 -48zM593 285q0 -14 -1.5 -29.5t-3.5 -32.5h-409q30 -116 159 -116q44 0 92.5 15.5t83.5 39.5l56 -99q-104 -75 -238 -75q-143 0 -220 83q-76 82 -76 202
q0 125 79 205q79 81 205 81q119 0 196 -74t77 -200zM320 442q-54 0 -91 -30t-50 -84h277q-10 54 -46 84t-90 30z" />
    <glyph glyph-name="Edotaccent" unicode="&#x116;" horiz-adv-x="637" 
d="M397 820q-12 -12 -28.5 -18.5t-33.5 -6.5t-33.5 6.5t-28.5 18.5t-18.5 28.5t-6.5 33.5t6.5 33t18.5 28t28.5 18.5t33.5 6.5t33.5 -6.5t28.5 -18.5t18.5 -28t6.5 -33t-6.5 -33.5t-18.5 -28.5zM82 0v739h501v-138h-352v-159h326v-138h-326v-166h352v-138h-501z" />
    <glyph glyph-name="edotaccent" unicode="&#x117;" horiz-adv-x="626" 
d="M388 635q-12 -12 -28.5 -18.5t-33.5 -6.5t-33.5 6.5t-28.5 18.5t-18.5 28.5t-6.5 33.5t6.5 33t18.5 28t28.5 18.5t33.5 6.5t33.5 -6.5t28.5 -18.5t18.5 -28t6.5 -33t-6.5 -33.5t-18.5 -28.5zM593 285q0 -14 -1.5 -29.5t-3.5 -32.5h-409q30 -116 159 -116q44 0 92.5 15.5
t83.5 39.5l56 -99q-104 -75 -238 -75q-143 0 -220 83q-76 82 -76 202q0 125 79 205q79 81 205 81q119 0 196 -74t77 -200zM320 442q-54 0 -91 -30t-50 -84h277q-10 54 -46 84t-90 30z" />
    <glyph glyph-name="Eogonek" unicode="&#x118;" horiz-adv-x="632" 
d="M597 -234q-50 -30 -106 -30q-58 0 -90.5 32t-32.5 83q0 86 98 149h-384v739h501v-138h-352v-159h326v-138h-326v-166h352v-138h-1q-21 -9 -38.5 -22.5t-31 -29t-21 -31.5t-7.5 -31q0 -30 23.5 -38t58.5 8z" />
    <glyph glyph-name="eogonek" unicode="&#x119;" horiz-adv-x="626" 
d="M593 285q0 -14 -1.5 -29.5t-3.5 -32.5h-409q30 -116 159 -116q44 0 92.5 15.5t83.5 39.5l56 -99q-57 -40 -122 -59q-41 -19 -69 -51t-28 -62t23.5 -38t58.5 8l31 -90q-50 -30 -106 -30q-58 0 -90.5 32t-32.5 83q0 74 75 133q-90 5 -154 46q-64 43 -92 104t-28 134
q0 125 79 205q79 81 205 81q119 0 196 -74t77 -200zM320 442q-54 0 -91 -30t-50 -84h277q-10 54 -46 84t-90 30z" />
    <glyph glyph-name="Ecaron" unicode="&#x11a;" horiz-adv-x="637" 
d="M138 970h134l65 -86l65 86h138l-149 -176h-105zM82 0v739h501v-138h-352v-159h326v-138h-326v-166h352v-138h-501z" />
    <glyph glyph-name="ecaron" unicode="&#x11b;" horiz-adv-x="626" 
d="M375 625h-105l-148 176h134l65 -86l65 86h138zM593 285q0 -14 -1.5 -29.5t-3.5 -32.5h-409q30 -116 159 -116q44 0 92.5 15.5t83.5 39.5l56 -99q-104 -75 -238 -75q-143 0 -220 83q-76 82 -76 202q0 125 79 205q79 81 205 81q119 0 196 -74t77 -200zM320 442
q-54 0 -91 -30t-50 -84h277q-10 54 -46 84t-90 30z" />
    <glyph glyph-name="Gcircumflex" unicode="&#x11c;" horiz-adv-x="810" 
d="M224 797l154 183h109l155 -183h-144l-67 89l-68 -89h-139zM425 -11q-167 0 -277 107q-108 108 -108 273q0 167 112 275t279 108q91 0 169 -33t129 -87l-97 -106q-83 83 -201 83q-103 0 -171 -68t-68 -171q0 -101 66 -170q67 -69 171 -69q57 0 110 22t88 57v101h-204v129
h339v-304q-141 -147 -337 -147z" />
    <glyph glyph-name="gcircumflex" unicode="&#x11d;" horiz-adv-x="675" 
d="M324 712l-65 -86h-134l148 176h105l149 -176h-138zM481 545h130v-491q0 -132 -84 -208q-85 -77 -218 -77q-141 0 -250 79l55 106q94 -64 191 -64q81 0 125.5 42.5t44.5 108.5v28q-63 -70 -168 -70q-120 0 -196 79t-76 200t80 201t198 80q100 0 168 -74v60zM177 277
q0 -68 43 -111q44 -44 108 -44t108 44q43 44 43 111q0 66 -43 109q-44 44 -108 44t-108 -44q-43 -43 -43 -109z" />
    <glyph glyph-name="Gbreve" unicode="&#x11e;" horiz-adv-x="810" 
d="M348 976q2 -40 22.5 -64.5t57.5 -24.5q36 0 56.5 24.5t22.5 64.5h118q-5 -88 -57.5 -138t-139.5 -50t-138.5 50t-57.5 138h116zM425 -11q-167 0 -277 107q-108 108 -108 273q0 167 112 275t279 108q91 0 169 -33t129 -87l-97 -106q-83 83 -201 83q-103 0 -171 -68
t-68 -171q0 -101 66 -170q67 -69 171 -69q57 0 110 22t88 57v101h-204v129h339v-304q-141 -147 -337 -147z" />
    <glyph glyph-name="gbreve" unicode="&#x11f;" horiz-adv-x="675" 
d="M322 621q-82 0 -132.5 48t-55.5 133h111q2 -38 21.5 -62t55.5 -24t55.5 24t21.5 62h113q-5 -85 -55.5 -133t-134.5 -48zM481 545h130v-491q0 -132 -84 -208q-85 -77 -218 -77q-141 0 -250 79l55 106q94 -64 191 -64q81 0 125.5 42.5t44.5 108.5v28q-63 -70 -168 -70
q-120 0 -196 79t-76 200t80 201t198 80q100 0 168 -74v60zM177 277q0 -68 43 -111q44 -44 108 -44t108 44q43 44 43 111q0 66 -43 109q-44 44 -108 44t-108 -44q-43 -43 -43 -109z" />
    <glyph glyph-name="Gdotaccent" unicode="&#x120;" horiz-adv-x="810" 
d="M492 818q-12 -12 -28.5 -18.5t-33.5 -6.5t-33.5 6.5t-28.5 18.5t-18.5 28.5t-6.5 33.5t6.5 33t18.5 28t28.5 18.5t33.5 6.5t33.5 -6.5t28.5 -18.5t18.5 -28t6.5 -33t-6.5 -33.5t-18.5 -28.5zM425 -11q-167 0 -277 107q-108 108 -108 273q0 167 112 275t279 108
q91 0 169 -33t129 -87l-97 -106q-83 83 -201 83q-103 0 -171 -68t-68 -171q0 -101 66 -170q67 -69 171 -69q57 0 110 22t88 57v101h-204v129h339v-304q-141 -147 -337 -147z" />
    <glyph glyph-name="gdotaccent" unicode="&#x121;" horiz-adv-x="675" 
d="M387 635q-12 -12 -28.5 -18.5t-33.5 -6.5t-33.5 6.5t-28.5 18.5t-18.5 28.5t-6.5 33.5t6.5 33t18.5 28t28.5 18.5t33.5 6.5t33.5 -6.5t28.5 -18.5t18.5 -28t6.5 -33t-6.5 -33.5t-18.5 -28.5zM481 545h130v-491q0 -132 -84 -208q-85 -77 -218 -77q-141 0 -250 79l55 106
q94 -64 191 -64q81 0 125.5 42.5t44.5 108.5v28q-63 -70 -168 -70q-120 0 -196 79t-76 200t80 201t198 80q100 0 168 -74v60zM177 277q0 -68 43 -111q44 -44 108 -44t108 44q43 44 43 111q0 66 -43 109q-44 44 -108 44t-108 -44q-43 -43 -43 -109z" />
    <glyph glyph-name="Gcommaaccent" unicode="&#x122;" horiz-adv-x="810" 
d="M423 440h339v-304q-141 -147 -337 -147q-167 0 -277 107q-108 108 -108 273q0 167 112 275t279 108q91 0 169 -33t129 -87l-97 -106q-83 83 -201 83q-103 0 -171 -68t-68 -171q0 -101 66 -170q67 -69 171 -69q57 0 110 22t88 57v101h-204v129zM427 -40q37 0 62.5 -24.5
t25.5 -66.5q0 -48 -36 -93.5t-111 -97.5l-49 61q54 39 81 68q-24 6 -40.5 27t-16.5 47q0 33 24 56t60 23z" />
    <glyph glyph-name="gcommaaccent" unicode="&#x123;" horiz-adv-x="675" 
d="M324 601q-36 0 -61 25t-25 64q0 48 35.5 91.5t108.5 95.5l48 -60q-60 -47 -78 -66q23 -6 38.5 -26.5t15.5 -45.5q0 -32 -23.5 -55t-58.5 -23zM481 545h130v-491q0 -132 -84 -208q-85 -77 -218 -77q-141 0 -250 79l55 106q94 -64 191 -64q81 0 125.5 42.5t44.5 108.5v28
q-63 -70 -168 -70q-120 0 -196 79t-76 200t80 201t198 80q100 0 168 -74v60zM177 277q0 -68 43 -111q44 -44 108 -44t108 44q43 44 43 111q0 66 -43 109q-44 44 -108 44t-108 -44q-43 -43 -43 -109z" />
    <glyph glyph-name="Hcircumflex" unicode="&#x124;" horiz-adv-x="770" 
d="M178 794l154 183h109l155 -183h-144l-67 89l-68 -89h-139zM82 0v739h148v-295h310v295h148v-739h-148v301h-310v-301h-148z" />
    <glyph glyph-name="hcircumflex" unicode="&#x125;" horiz-adv-x="644" 
d="M-74 799l154 183h109l155 -183h-144l-67 89l-68 -89h-139zM65 0v760h137v-286q22 37 68 61.5t104 24.5q88 0 150 -59t62 -168v-333h-141v295q0 66 -31 100.5t-83 34.5q-57 0 -91 -38.5t-34 -99.5v-292h-141z" />
    <glyph glyph-name="Hbar" unicode="&#x126;" horiz-adv-x="802" 
d="M780 638v-102h-81v-536h-148v301h-310v-301h-148v536h-80v102h80v101h148v-101h310v101h148v-101h81zM551 444v92h-310v-92h310z" />
    <glyph glyph-name="hbar" unicode="&#x127;" horiz-adv-x="644" 
d="M374 560q88 0 150 -59t62 -168v-333h-141v295q0 66 -31 100.5t-83 34.5q-57 0 -91 -38.5t-34 -99.5v-292h-141v594h-65v88h65v78h137v-78h155v-88h-155v-120q22 37 68 61.5t104 24.5z" />
    <glyph glyph-name="Itilde" unicode="&#x128;" horiz-adv-x="313" 
d="M-62 845q49 118 147 118q35 0 78 -22t59 -22q35 0 61 48l91 -43q-21 -57 -57 -87.5t-81 -30.5q-31 0 -77 23t-64 23q-40 0 -65 -52zM84 739h149v-739h-149v739z" />
    <glyph glyph-name="itilde" unicode="&#x129;" horiz-adv-x="269" 
d="M-76 665q49 115 144 115q34 0 75 -22q43 -21 59 -21q33 0 59 47l89 -42q-20 -55 -55 -85t-80 -30q-32 0 -75 22q-44 23 -62 23q-39 0 -64 -51zM207 0h-141v545h141v-545z" />
    <glyph glyph-name="Imacron" unicode="&#x12a;" horiz-adv-x="313" 
d="M-26 817v124h368v-122zM84 739h149v-739h-149v739z" />
    <glyph glyph-name="imacron" unicode="&#x12b;" horiz-adv-x="269" 
d="M-26 637v124h327v-122zM207 0h-141v545h141v-545z" />
    <glyph glyph-name="Ibreve" unicode="&#x12c;" horiz-adv-x="313" 
d="M78 977q2 -40 22.5 -64.5t57.5 -24.5q36 0 56.5 24.5t22.5 64.5h118q-5 -88 -57.5 -138t-139.5 -50t-138.5 50t-57.5 138h116zM84 739h149v-739h-149v739z" />
    <glyph glyph-name="ibreve" unicode="&#x12d;" horiz-adv-x="269" 
d="M136 621q-82 0 -132.5 48t-55.5 133h111q2 -38 21.5 -62t55.5 -24t55.5 24t21.5 62h113q-5 -85 -55.5 -133t-134.5 -48zM207 0h-141v545h141v-545z" />
    <glyph glyph-name="Iogonek" unicode="&#x12e;" horiz-adv-x="313" 
d="M246 -234q-50 -30 -106 -30q-58 0 -90.5 32t-32.5 83q0 86 98 149h-32v739h149v-739h-1q-21 -9 -38.5 -22.5t-31 -29t-21 -31.5t-7.5 -31q0 -30 23.5 -38t58.5 8z" />
    <glyph glyph-name="iogonek" unicode="&#x12f;" horiz-adv-x="269" 
d="M199 631q-12 -12 -28.5 -18.5t-33.5 -6.5t-33.5 6.5t-28.5 18.5t-18.5 28.5t-6.5 33.5t6.5 33t18.5 28t28.5 18.5t33.5 6.5t33.5 -6.5t28.5 -18.5t18.5 -28t6.5 -33t-6.5 -33.5t-18.5 -28.5zM222 -234q-50 -30 -106 -30q-58 0 -90.5 32t-32.5 83q0 86 98 149h-25v545h141
v-545q-21 -9 -38.5 -22.5t-31 -29t-21 -31.5t-7.5 -31q0 -30 23.5 -38t58.5 8z" />
    <glyph glyph-name="Idotaccent" unicode="&#x130;" horiz-adv-x="313" 
d="M218 817q-12 -12 -28.5 -18.5t-33.5 -6.5t-33.5 6.5t-28.5 18.5t-18.5 28.5t-6.5 33.5t6.5 33t18.5 28t28.5 18.5t33.5 6.5t33.5 -6.5t28.5 -18.5t18.5 -28t6.5 -33t-6.5 -33.5t-18.5 -28.5zM82 739h149v-739h-149v739z" />
    <glyph glyph-name="dotlessi" unicode="&#x131;" horiz-adv-x="269" 
d="M205 0h-141v545h141v-545z" />
    <glyph glyph-name="IJ" unicode="&#x132;" horiz-adv-x="892" 
d="M82 739h149v-739h-149v739zM544 -12q-138 0 -229 91l72 116q65 -65 146 -65q64 0 102 40t38 112v457h148v-462q0 -144 -78 -217q-78 -72 -199 -72z" />
    <glyph glyph-name="ij" unicode="&#x133;" horiz-adv-x="575" 
d="M199 631q-12 -12 -28.5 -18.5t-33.5 -6.5t-33.5 6.5t-28.5 18.5t-18.5 28.5t-6.5 33.5t6.5 33t18.5 28t28.5 18.5t33.5 6.5t33.5 -6.5t28.5 -18.5t18.5 -28t6.5 -33t-6.5 -33.5t-18.5 -28.5zM479 631q-12 -12 -28.5 -18.5t-33.5 -6.5t-33.5 6.5t-28.5 18.5t-18.5 28.5
t-6.5 33.5t6.5 33t18.5 28t28.5 18.5t33.5 6.5t33.5 -6.5t28.5 -18.5t18.5 -28t6.5 -33t-6.5 -33.5t-18.5 -28.5zM207 0h-141v545h141v-545zM279 -232q-81 0 -124 28l26 112q45 -16 75 -16q91 0 91 107v546h141v-553q0 -111 -57.5 -167.5t-151.5 -56.5z" />
    <glyph glyph-name="Jcircumflex" unicode="&#x134;" horiz-adv-x="581" 
d="M227 794l154 183h109l155 -183h-144l-67 89l-68 -89h-139zM233 -12q-138 0 -229 91l72 116q65 -65 146 -65q64 0 102 40t38 112v457h148v-462q0 -144 -78 -217q-78 -72 -199 -72z" />
    <glyph glyph-name="jcircumflex" unicode="&#x135;" horiz-adv-x="293" 
d="M-44 626l148 176h105l149 -176h-138l-65 86l-65 -86h-134zM20 -232q-81 0 -124 28l26 112q45 -16 75 -16q91 0 91 107v546h141v-553q0 -111 -57.5 -167.5t-151.5 -56.5z" />
    <glyph glyph-name="Kcommaaccent" unicode="&#x136;" horiz-adv-x="696" 
d="M418 403l290 -403h-182l-205 293l-91 -109v-184h-148v739h148v-349l280 349h179zM370 -33q37 0 62.5 -24.5t25.5 -66.5q0 -48 -36 -93.5t-111 -97.5l-49 61q54 39 81 68q-24 6 -40.5 27t-16.5 47q0 33 24 56t60 23z" />
    <glyph glyph-name="kcommaaccent" unicode="&#x137;" horiz-adv-x="583" 
d="M338 322l257 -322h-173l-180 233l-37 -33v-200h-141v760h141v-401l198 186h178zM306 -16q36 0 61 -25t25 -64q0 -48 -35.5 -91.5t-108.5 -95.5l-48 60q60 46 78 66q-23 6 -38.5 26.5t-15.5 45.5q0 32 23.5 55t58.5 23z" />
    <glyph glyph-name="kgreenlandic" unicode="&#x138;" horiz-adv-x="573" 
d="M414 0l-170 224l-43 -41v-183h-137v545h137v-201l204 201h170l-238 -230l244 -315h-167z" />
    <glyph glyph-name="Lacute" unicode="&#x139;" horiz-adv-x="620" 
d="M92 794l65 183h163l-98 -183h-130zM82 0v739h149v-597h375v-142h-524z" />
    <glyph glyph-name="lacute" unicode="&#x13a;" horiz-adv-x="266" 
d="M68 796l65 183h163l-98 -183h-130zM205 0h-141v760h141v-760z" />
    <glyph glyph-name="Lcommaaccent" unicode="&#x13b;" horiz-adv-x="620" 
d="M231 142h375v-142h-524v739h149v-597zM351 -34q37 0 62.5 -24.5t25.5 -66.5q0 -48 -36 -93.5t-111 -97.5l-49 61q54 39 81 68q-24 6 -40.5 27t-16.5 47q0 33 24 56t60 23z" />
    <glyph glyph-name="lcommaaccent" unicode="&#x13c;" horiz-adv-x="268" 
d="M207 760v-760h-141v760h141zM132 -41q36 0 61 -25t25 -64q0 -48 -35.5 -91.5t-108.5 -95.5l-48 60q60 46 78 66q-23 6 -38.5 26.5t-15.5 45.5q0 32 23.5 55t58.5 23z" />
    <glyph glyph-name="Lcaron" unicode="&#x13d;" horiz-adv-x="625" 
d="M391 624l64 179h147l-92 -179h-119zM82 0v739h149v-597h375v-142h-524z" />
    <glyph glyph-name="lcaron" unicode="&#x13e;" horiz-adv-x="296" 
d="M233 625l64 179h147l-92 -179h-119zM205 0h-141v760h141v-760z" />
    <glyph glyph-name="Ldot" unicode="&#x13f;" horiz-adv-x="622" 
d="M82 0v739h149v-597h375v-142h-524zM468 328q-35 0 -59 23.5t-24 58.5q0 34 24 57t59 23q33 0 56.5 -23t23.5 -57q0 -35 -23.5 -58.5t-56.5 -23.5z" />
    <glyph glyph-name="ldot" unicode="&#x140;" horiz-adv-x="412" 
d="M205 0h-141v760h141v-760zM342 284q-35 0 -59 23.5t-24 58.5q0 34 24 57t59 23q33 0 56.5 -23t23.5 -57q0 -35 -23.5 -58.5t-56.5 -23.5z" />
    <glyph glyph-name="Lslash" unicode="&#x141;" horiz-adv-x="633" 
d="M244 142h375v-142h-524v257l-69 -43v133l69 44v348h149v-254l106 67v-134l-106 -67v-209z" />
    <glyph glyph-name="lslash" unicode="&#x142;" horiz-adv-x="345" 
d="M312 555v-136l-69 -50v-369h-141v266l-63 -46v136l63 46v358h141v-255z" />
    <glyph glyph-name="Nacute" unicode="&#x143;" horiz-adv-x="794" 
d="M323 794l65 183h163l-98 -183h-130zM566 739h146v-739h-101l-383 453v-453h-146v739h94l390 -457v457z" />
    <glyph glyph-name="nacute" unicode="&#x144;" horiz-adv-x="643" 
d="M257 626l62 176h157l-94 -176h-125zM64 0v545h138v-76q22 40 67.5 65.5t103.5 25.5q89 0 151 -59t62 -168v-333h-141v295q0 66 -31.5 100.5t-83.5 34.5q-57 0 -91 -38.5t-34 -99.5v-292h-141z" />
    <glyph glyph-name="Ncommaaccent" unicode="&#x145;" horiz-adv-x="794" 
d="M566 739h146v-739h-101l-383 453v-453h-146v739h94l390 -457v457zM408 -23q37 0 62.5 -24.5t25.5 -66.5q0 -48 -36 -93.5t-111 -97.5l-49 61q54 39 81 68q-24 6 -40.5 27t-16.5 47q0 33 24 56t60 23z" />
    <glyph glyph-name="ncommaaccent" unicode="&#x146;" horiz-adv-x="643" 
d="M373 560q89 0 151 -59t62 -168v-333h-141v295q0 66 -31.5 100.5t-83.5 34.5q-57 0 -91 -38.5t-34 -99.5v-292h-141v545h138v-76q22 40 67.5 65.5t103.5 25.5zM329 -26q36 0 61 -25t25 -64q0 -48 -35.5 -91.5t-108.5 -95.5l-48 60q60 46 78 66q-23 6 -38.5 26.5
t-15.5 45.5q0 32 23.5 55t58.5 23z" />
    <glyph glyph-name="Ncaron" unicode="&#x147;" horiz-adv-x="794" 
d="M203 970h134l65 -86l65 86h138l-149 -176h-105zM566 739h146v-739h-101l-383 453v-453h-146v739h94l390 -457v457z" />
    <glyph glyph-name="ncaron" unicode="&#x148;" horiz-adv-x="643" 
d="M127 800h134l65 -86l65 86h138l-149 -176h-105zM64 0v545h138v-76q22 40 67.5 65.5t103.5 25.5q89 0 151 -59t62 -168v-333h-141v295q0 66 -31.5 100.5t-83.5 34.5q-57 0 -91 -38.5t-34 -99.5v-292h-141z" />
    <glyph glyph-name="napostrophe" unicode="&#x149;" horiz-adv-x="699" 
d="M-39 624l64 179h147l-92 -179h-119zM119 0v545h138v-76q22 40 67.5 65.5t103.5 25.5q89 0 151 -59t62 -168v-333h-141v295q0 66 -31.5 100.5t-83.5 34.5q-57 0 -91 -38.5t-34 -99.5v-292h-141z" />
    <glyph glyph-name="Eng" unicode="&#x14a;" horiz-adv-x="794" 
d="M566 739h146v-701q0 -142 -77 -216q-76 -73 -193 -73q-76 0 -149 35l39 131q44 -25 102 -25t95.5 35.5t37.5 104.5v16l-339 408v-454h-146v739h94l390 -465v465z" />
    <glyph glyph-name="eng" unicode="&#x14b;" horiz-adv-x="643" 
d="M326 -103q60 -5 89 17.5t29 82.5v303q0 63 -30.5 96.5t-82.5 33.5q-57 0 -91.5 -38.5t-34.5 -99.5v-292h-141v545h137v-72q23 37 68.5 62t103.5 25q88 0 150 -59t62 -169v-337q0 -131 -73 -183q-71 -54 -188 -40z" />
    <glyph glyph-name="Omacron" unicode="&#x14c;" horiz-adv-x="848" 
d="M240 808v124h368v-122zM423 -12q-165 0 -274 109q-110 110 -110 270t111 273q112 112 274 112t273 -112q112 -112 112 -271t-112 -270q-111 -111 -274 -111zM655 369q0 102 -67 169q-68 68 -164 68t-164 -68q-67 -67 -67 -169q0 -101 66 -168q67 -67 165 -67t165 67
t66 168z" />
    <glyph glyph-name="omacron" unicode="&#x14d;" 
d="M164 635v124h327v-122zM35 273q0 121 82 203q82 84 210 84q127 0 210 -84q82 -82 82 -203q0 -122 -82 -204q-83 -83 -210 -83t-210 83q-82 82 -82 204zM219 162q43 -45 108 -45q63 0 107 45q44 47 44 111t-44 110q-44 45 -107 45q-65 0 -108 -45q-43 -44 -43 -110
q0 -65 43 -111z" />
    <glyph glyph-name="Obreve" unicode="&#x14e;" horiz-adv-x="848" 
d="M349 973q2 -40 22.5 -64.5t57.5 -24.5q36 0 56.5 24.5t22.5 64.5h118q-5 -88 -57.5 -138t-139.5 -50t-138.5 50t-57.5 138h116zM423 -12q-165 0 -274 109q-110 110 -110 270t111 273q112 112 274 112t273 -112q112 -112 112 -271t-112 -270q-111 -111 -274 -111zM655 369
q0 102 -67 169q-68 68 -164 68t-164 -68q-67 -67 -67 -169q0 -101 66 -168q67 -67 165 -67t165 67t66 168z" />
    <glyph glyph-name="obreve" unicode="&#x14f;" 
d="M326 621q-82 0 -132.5 48t-55.5 133h111q2 -38 21.5 -62t55.5 -24t55.5 24t21.5 62h113q-5 -85 -55.5 -133t-134.5 -48zM35 273q0 121 82 203q82 84 210 84q127 0 210 -84q82 -82 82 -203q0 -122 -82 -204q-83 -83 -210 -83t-210 83q-82 82 -82 204zM219 162
q43 -45 108 -45q63 0 107 45q44 47 44 111t-44 110q-44 45 -107 45q-65 0 -108 -45q-43 -44 -43 -110q0 -65 43 -111z" />
    <glyph glyph-name="Ohungarumlaut" unicode="&#x150;" horiz-adv-x="848" 
d="M261 795l45 183h156l-80 -183h-121zM468 795l59 183h162l-98 -183h-123zM423 -12q-165 0 -274 109q-110 110 -110 270t111 273q112 112 274 112t273 -112q112 -112 112 -271t-112 -270q-111 -111 -274 -111zM655 369q0 102 -67 169q-68 68 -164 68t-164 -68
q-67 -67 -67 -169q0 -101 66 -168q67 -67 165 -67t165 67t66 168z" />
    <glyph glyph-name="ohungarumlaut" unicode="&#x151;" 
d="M171 626l43 176h151l-77 -176h-117zM370 626l57 176h156l-94 -176h-119zM35 273q0 121 82 203q82 84 210 84q127 0 210 -84q82 -82 82 -203q0 -122 -82 -204q-83 -83 -210 -83t-210 83q-82 82 -82 204zM219 162q43 -45 108 -45q63 0 107 45q44 47 44 111t-44 110
q-44 45 -107 45q-65 0 -108 -45q-43 -44 -43 -110q0 -65 43 -111z" />
    <glyph glyph-name="OE" unicode="&#x152;" horiz-adv-x="1027" 
d="M973 601h-352v-159h326v-138h-326v-166h352v-138h-495q-20 -1 -34.5 -1.5t-22.5 -0.5q-188 0 -283 101q-95 103 -95 269q0 168 93 270q94 103 279 103q10 0 24 -0.5t33 -1.5h501v-138zM471 597q-26 3 -48 3q-117 0 -172 -67q-54 -66 -54 -163q0 -98 54 -165
q55 -66 172 -66q22 0 48 3v455z" />
    <glyph glyph-name="oe" unicode="&#x153;" horiz-adv-x="1066" 
d="M1033 285q0 -14 -1.5 -29.5t-3.5 -32.5h-409q30 -116 159 -116q44 0 92.5 15.5t83.5 39.5l56 -99q-104 -75 -238 -75q-150 0 -229 93q-82 -94 -219 -94q-127 0 -208 83q-81 82 -81 203q0 119 81 202t208 83q136 0 219 -93q81 94 217 94q119 0 196 -74t77 -200zM760 442
q-54 0 -91 -30t-50 -84h277q-10 54 -46 84t-90 30zM475 274q0 63 -44 109q-44 45 -107 45q-64 0 -107 -45q-43 -44 -43 -109t43 -111q43 -45 107 -45q63 0 107 45q44 47 44 111z" />
    <glyph glyph-name="Racute" unicode="&#x154;" horiz-adv-x="675" 
d="M463 977l-98 -183h-130l65 183h163zM474 0l-156 269h-88v-269h-148v739h283q123 0 188 -68t65 -166q0 -72 -37.5 -131t-112.5 -86l179 -288h-173zM230 602v-200h121q58 0 86.5 29t28.5 72q0 42 -27 70.5t-75 28.5h-134z" />
    <glyph glyph-name="racute" unicode="&#x155;" horiz-adv-x="432" 
d="M169 626l62 176h157l-94 -176h-125zM64 0v545h135v-73q49 88 150 88q33 0 66 -12l-12 -135q-36 11 -65 11q-60 0 -96.5 -40t-36.5 -125v-259h-141z" />
    <glyph glyph-name="Rcommaaccent" unicode="&#x156;" horiz-adv-x="675" 
d="M647 0h-173l-156 269h-88v-269h-148v739h283q123 0 188 -68t65 -166q0 -72 -37.5 -131t-112.5 -86zM230 602v-200h121q58 0 86.5 29t28.5 72q0 42 -27 70.5t-75 28.5h-134zM346 -26q37 0 62.5 -24.5t25.5 -66.5q0 -48 -36 -93.5t-111 -97.5l-49 61q54 39 81 68
q-24 6 -40.5 27t-16.5 47q0 33 24 56t60 23z" />
    <glyph glyph-name="rcommaaccent" unicode="&#x157;" horiz-adv-x="433" 
d="M350 560q33 0 66 -12l-12 -135q-36 11 -65 11q-60 0 -96.5 -40t-36.5 -125v-259h-141v545h135v-73q49 88 150 88zM133 -35q36 0 61 -25t25 -64q0 -48 -35.5 -91.5t-108.5 -95.5l-48 60q60 46 78 66q-23 6 -38.5 26.5t-15.5 45.5q0 32 23.5 55t58.5 23z" />
    <glyph glyph-name="Rcaron" unicode="&#x158;" horiz-adv-x="675" 
d="M374 794h-105l-148 176h134l65 -86l65 86h138zM474 0l-156 269h-88v-269h-148v739h283q123 0 188 -68t65 -166q0 -72 -37.5 -131t-112.5 -86l179 -288h-173zM230 602v-200h121q58 0 86.5 29t28.5 72q0 42 -27 70.5t-75 28.5h-134z" />
    <glyph glyph-name="rcaron" unicode="&#x159;" horiz-adv-x="432" 
d="M42 801h134l65 -86l65 86h138l-149 -176h-105zM65 0v545h135v-73q49 88 150 88q33 0 66 -12l-12 -135q-36 11 -65 11q-60 0 -96.5 -40t-36.5 -125v-259h-141z" />
    <glyph glyph-name="Sacute" unicode="&#x15a;" horiz-adv-x="598" 
d="M232 793l65 183h163l-98 -183h-130zM299 -12q-87 0 -160.5 35.5t-119.5 102.5l85 103q36 -51 87.5 -77t108.5 -26q46 0 76 22t30 57q0 46 -67 77q-8 4 -26 11t-47 18t-50.5 21.5t-36.5 18.5q-117 67 -117 184q0 93 70 154q71 62 182 62q144 0 243 -100l-79 -108
q-31 33 -75.5 51t-86.5 18q-45 0 -70 -19.5t-25 -51.5q0 -43 60 -73l73 -32q61 -26 90 -39q126 -62 126 -184q0 -99 -75 -162t-196 -63z" />
    <glyph glyph-name="sacute" unicode="&#x15b;" horiz-adv-x="490" 
d="M186 626l62 176h157l-94 -176h-125zM246 -14q-143 0 -225 105l75 89q29 -35 69 -55.5t82 -20.5q32 0 53.5 15t21.5 38q0 29 -39 47q-12 5 -65 25q-26 10 -43.5 17t-26.5 12q-94 45 -94 141q0 71 56 118q55 46 148 46q116 0 191 -78l-70 -91q-57 54 -125 54
q-28 0 -45 -13.5t-17 -32.5q0 -34 48 -50q107 -40 131 -53q92 -48 92 -138q0 -77 -60 -126q-58 -49 -157 -49z" />
    <glyph glyph-name="Scircumflex" unicode="&#x15c;" horiz-adv-x="598" 
d="M108 793l154 183h109l155 -183h-144l-67 89l-68 -89h-139zM299 -12q-87 0 -160.5 35.5t-119.5 102.5l85 103q36 -51 87.5 -77t108.5 -26q46 0 76 22t30 57q0 46 -67 77q-8 4 -26 11t-47 18t-50.5 21.5t-36.5 18.5q-117 67 -117 184q0 93 70 154q71 62 182 62
q144 0 243 -100l-79 -108q-31 33 -75.5 51t-86.5 18q-45 0 -70 -19.5t-25 -51.5q0 -43 60 -73l73 -32q61 -26 90 -39q126 -62 126 -184q0 -99 -75 -162t-196 -63z" />
    <glyph glyph-name="scircumflex" unicode="&#x15d;" horiz-adv-x="488" 
d="M51 627l148 176h105l149 -176h-138l-65 86l-65 -86h-134zM246 -14q-143 0 -225 105l75 89q29 -35 69 -55.5t82 -20.5q32 0 53.5 15t21.5 38q0 29 -39 47q-12 5 -65 25q-26 10 -43.5 17t-26.5 12q-94 45 -94 141q0 71 56 118q55 46 148 46q116 0 191 -78l-70 -91
q-57 54 -125 54q-28 0 -45 -13.5t-17 -32.5q0 -34 48 -50q107 -40 131 -53q92 -48 92 -138q0 -77 -60 -126q-58 -49 -157 -49z" />
    <glyph glyph-name="Scedilla" unicode="&#x15e;" horiz-adv-x="598" 
d="M570 213q0 -88 -62 -150q-61 -61 -165 -73l-16 -38q45 -2 76.5 -28.5t31.5 -71.5q0 -24 -10 -46t-28.5 -38.5t-46 -26t-61.5 -9.5q-61 0 -124 31l31 81q42 -21 81 -21q26 0 39 11t13 27q0 34 -56 34h-54l-8 27l28 71q-142 21 -220 133l85 103q36 -51 87.5 -77t108.5 -26
q46 0 76 22t30 57q0 46 -67 77q-8 4 -26 11t-47 18t-50.5 21.5t-36.5 18.5q-117 67 -117 184q0 93 70 154q71 62 182 62q144 0 243 -100l-79 -108q-31 33 -75.5 51t-86.5 18q-45 0 -70 -19.5t-25 -51.5q0 -43 60 -73l73 -32q61 -26 90 -39q126 -62 126 -184z" />
    <glyph glyph-name="scedilla" unicode="&#x15f;" horiz-adv-x="490" 
d="M463 161q0 -35 -13.5 -64.5t-38 -52.5t-59 -38t-76.5 -19l-14 -34q45 -2 76.5 -28.5t31.5 -71.5q0 -24 -10 -46t-28.5 -38.5t-46 -26t-61.5 -9.5q-61 0 -124 31l31 81q42 -21 81 -21q26 0 39 11t13 27q0 34 -56 34h-54l-8 27l28 71q-93 23 -153 97l75 89q29 -35 69 -55.5
t82 -20.5q32 0 53.5 15t21.5 38q0 29 -39 47q-12 5 -65 25q-26 10 -43.5 17t-26.5 12q-94 45 -94 141q0 71 56 118q55 46 148 46q116 0 191 -78l-70 -91q-57 54 -125 54q-28 0 -45 -13.5t-17 -32.5q0 -34 48 -50q107 -40 131 -53q92 -48 92 -138z" />
    <glyph glyph-name="Scaron" unicode="&#x160;" horiz-adv-x="598" 
d="M119 969h134l65 -86l65 86h138l-149 -176h-105zM299 -12q-87 0 -160.5 35.5t-119.5 102.5l85 103q36 -51 87.5 -77t108.5 -26q46 0 76 22t30 57q0 46 -67 77q-8 4 -26 11t-47 18t-50.5 21.5t-36.5 18.5q-117 67 -117 184q0 93 70 154q71 62 182 62q144 0 243 -100
l-79 -108q-31 33 -75.5 51t-86.5 18q-45 0 -70 -19.5t-25 -51.5q0 -43 60 -73l73 -32q61 -26 90 -39q126 -62 126 -184q0 -99 -75 -162t-196 -63z" />
    <glyph glyph-name="scaron" unicode="&#x161;" horiz-adv-x="488" 
d="M52 801h134l65 -86l65 86h138l-149 -176h-105zM246 -14q-143 0 -225 105l75 89q29 -35 69 -55.5t82 -20.5q32 0 53.5 15t21.5 38q0 29 -39 47q-12 5 -65 25q-26 10 -43.5 17t-26.5 12q-94 45 -94 141q0 71 56 118q55 46 148 46q116 0 191 -78l-70 -91q-57 54 -125 54
q-28 0 -45 -13.5t-17 -32.5q0 -34 48 -50q107 -40 131 -53q92 -48 92 -138q0 -77 -60 -126q-58 -49 -157 -49z" />
    <glyph glyph-name="Tcaron" unicode="&#x164;" horiz-adv-x="600" 
d="M101 970h134l65 -86l65 86h138l-149 -176h-105zM225 596h-211v143h572v-143h-211v-596h-150v596z" />
    <glyph glyph-name="tcaron" unicode="&#x165;" horiz-adv-x="457" 
d="M549 803l-92 -179h-119l64 179h147zM325 115q42 0 91 28l42 -111q-68 -45 -161 -45q-94 0 -142 54.5t-48 160.5v225h-89v118h90v193h140v-193h180v-118h-180v-216q0 -96 77 -96z" />
    <glyph glyph-name="Tbar" unicode="&#x166;" horiz-adv-x="619" 
d="M596 596h-211v-159h136v-120h-136v-317h-150v317h-135v120h135v159h-211v143h572v-143z" />
    <glyph glyph-name="tbar" unicode="&#x167;" horiz-adv-x="467" 
d="M463 32q-68 -45 -161 -45q-94 0 -142 54.5t-48 160.5v49h-88v96h88v80h-89v118h90v193h140v-193h180v-118h-180v-80h174v-96h-174v-40q0 -96 77 -96q42 0 91 28z" />
    <glyph glyph-name="Utilde" unicode="&#x168;" horiz-adv-x="725" 
d="M147 836q49 118 147 118q35 0 78 -22t59 -22q35 0 61 48l91 -43q-21 -57 -57 -87.5t-81 -30.5q-31 0 -77 23t-64 23q-40 0 -65 -52zM74 739h149v-459q0 -75 37 -112t103 -37q63 0 100.5 38.5t37.5 110.5v459h150v-469q0 -139 -82 -211q-81 -72 -206 -72t-207 72t-82 211
v469z" />
    <glyph glyph-name="utilde" unicode="&#x169;" horiz-adv-x="614" 
d="M93 665q49 115 144 115q34 0 75 -22q43 -21 59 -21q33 0 59 47l89 -42q-20 -55 -55 -85t-80 -30q-32 0 -75 22q-44 23 -62 23q-39 0 -64 -51zM307 -13q-58 0 -104.5 16.5t-78.5 47.5t-49.5 76.5t-17.5 102.5v315h141v-315q0 -52 29 -83t80 -31t80 31t29 83v315h141v-315
q0 -115 -66 -179t-184 -64z" />
    <glyph glyph-name="Umacron" unicode="&#x16a;" horiz-adv-x="725" 
d="M179 810v124h368v-122zM74 739h149v-459q0 -75 37 -112t103 -37q63 0 100.5 38.5t37.5 110.5v459h150v-469q0 -139 -82 -211q-81 -72 -206 -72t-207 72t-82 211v469z" />
    <glyph glyph-name="umacron" unicode="&#x16b;" horiz-adv-x="614" 
d="M143 636v124h327v-122zM307 -13q-58 0 -104.5 16.5t-78.5 47.5t-49.5 76.5t-17.5 102.5v315h141v-315q0 -52 29 -83t80 -31t80 31t29 83v315h141v-315q0 -115 -66 -179t-184 -64z" />
    <glyph glyph-name="Ubreve" unicode="&#x16c;" horiz-adv-x="725" 
d="M283 973q2 -40 22.5 -64.5t57.5 -24.5q36 0 56.5 24.5t22.5 64.5h118q-5 -88 -57.5 -138t-139.5 -50t-138.5 50t-57.5 138h116zM74 739h149v-459q0 -75 37 -112t103 -37q63 0 100.5 38.5t37.5 110.5v459h150v-469q0 -139 -82 -211q-81 -72 -206 -72t-207 72t-82 211v469z
" />
    <glyph glyph-name="ubreve" unicode="&#x16d;" horiz-adv-x="614" 
d="M307 619q-82 0 -132.5 48t-55.5 133h111q2 -38 21.5 -62t55.5 -24t55.5 24t21.5 62h113q-5 -85 -55.5 -133t-134.5 -48zM307 -13q-58 0 -104.5 16.5t-78.5 47.5t-49.5 76.5t-17.5 102.5v315h141v-315q0 -52 29 -83t80 -31t80 31t29 83v315h141v-315q0 -115 -66 -179
t-184 -64z" />
    <glyph glyph-name="Uring" unicode="&#x16e;" horiz-adv-x="725" 
d="M224 911q0 56 40 95t98 39t97 -39q40 -39 40 -95q0 -57 -40 -94q-40 -38 -97 -38t-98 38q-40 39 -40 94zM362 858q22 0 37.5 16t15.5 39q0 22 -15.5 37.5t-37.5 15.5q-23 0 -39 -15.5t-16 -37.5q0 -23 16 -39t39 -16zM74 739h149v-459q0 -75 37 -112t103 -37
q63 0 100.5 38.5t37.5 110.5v459h150v-469q0 -139 -82 -211q-81 -72 -206 -72t-207 72t-82 211v469z" />
    <glyph glyph-name="uring" unicode="&#x16f;" horiz-adv-x="614" 
d="M307 598q-57 0 -95 37q-38 38 -38 90q0 53 38 91q40 38 95 38t93 -38q39 -38 39 -91t-39 -90q-37 -37 -93 -37zM307 674q21 0 36 15.5t15 37.5t-15 36.5t-36 14.5q-22 0 -37.5 -14.5t-15.5 -36.5t15.5 -37.5t37.5 -15.5zM307 -13q-58 0 -104.5 16.5t-78.5 47.5
t-49.5 76.5t-17.5 102.5v315h141v-315q0 -52 29 -83t80 -31t80 31t29 83v315h141v-315q0 -115 -66 -179t-184 -64z" />
    <glyph glyph-name="Uhungarumlaut" unicode="&#x170;" horiz-adv-x="726" 
d="M195 795l45 183h156l-80 -183h-121zM402 795l59 183h162l-98 -183h-123zM74 739h149v-459q0 -75 37 -112t103 -37q63 0 100.5 38.5t37.5 110.5v459h150v-469q0 -139 -82 -211q-81 -72 -206 -72t-207 72t-82 211v469z" />
    <glyph glyph-name="uhungarumlaut" unicode="&#x171;" horiz-adv-x="610" 
d="M141 626l43 176h151l-77 -176h-117zM340 626l57 176h156l-94 -176h-119zM307 -13q-58 0 -104.5 16.5t-78.5 47.5t-49.5 76.5t-17.5 102.5v315h141v-315q0 -52 29 -83t80 -31t80 31t29 83v315h141v-315q0 -115 -66 -179t-184 -64z" />
    <glyph glyph-name="Uogonek" unicode="&#x172;" horiz-adv-x="725" 
d="M501 739h150v-469q0 -106 -49 -173.5t-131 -93.5q-39 -20 -65.5 -51t-26.5 -60q0 -30 23.5 -38t58.5 8l31 -90q-50 -30 -106 -30q-58 0 -90.5 32t-32.5 83q0 74 73 131q-114 7 -189 79q-73 72 -73 203v469h149v-459q0 -75 37 -112t103 -37q63 0 100.5 38.5t37.5 110.5
v459z" />
    <glyph glyph-name="uogonek" unicode="&#x173;" horiz-adv-x="614" 
d="M416 545h141v-315q0 -90 -39.5 -148t-114.5 -81q-42 -20 -69.5 -52t-27.5 -62t23.5 -38t58.5 8l31 -90q-50 -30 -106 -30q-58 0 -90.5 32t-32.5 83q0 75 80 137q-100 10 -156.5 72.5t-56.5 168.5v315h141v-315q0 -52 29 -83t80 -31t80 31t29 83v315z" />
    <glyph glyph-name="Wcircumflex" unicode="&#x174;" horiz-adv-x="1065" 
d="M325 794l154 183h109l155 -183h-144l-67 89l-68 -89h-139zM251 0l-245 739h162l149 -497l168 497h94l171 -497l147 497h162l-244 -739h-125l-157 484l-157 -484h-125z" />
    <glyph glyph-name="wcircumflex" unicode="&#x175;" horiz-adv-x="877" 
d="M239 625l148 176h105l149 -176h-138l-65 86l-65 -86h-134zM194 1l-186 544h148l109 -357l123 357h99l127 -357l106 357h148l-184 -544h-123l-123 341l-121 -341h-123z" />
    <glyph glyph-name="Ycircumflex" unicode="&#x176;" horiz-adv-x="679" 
d="M131 794l154 183h109l155 -183h-144l-67 89l-68 -89h-139zM669 739l-256 -483v-256h-148v256l-253 483h171l156 -324l159 324h171z" />
    <glyph glyph-name="ycircumflex" unicode="&#x177;" horiz-adv-x="599" 
d="M306 711l-65 -86h-134l148 176h105l149 -176h-138zM436 545h154l-219 -572q-40 -105 -95 -155t-136 -50q-62 0 -105 27l24 118q37 -18 70 -18q65 0 106 86l11 25l-238 539h163l141 -355z" />
    <glyph glyph-name="Ydieresis" unicode="&#x178;" horiz-adv-x="679" 
d="M149 880q0 34 24 57.5t59 23.5t59 -23.5t24 -57.5q0 -36 -24 -60t-59 -24t-59 24t-24 60zM446 796q-36 0 -59.5 24t-23.5 60q0 34 24 57.5t59 23.5q34 0 58 -23.5t24 -57.5q0 -36 -24 -60t-58 -24zM669 739l-256 -483v-256h-148v256l-253 483h171l156 -324l159 324h171z
" />
    <glyph glyph-name="Zacute" unicode="&#x179;" horiz-adv-x="651" 
d="M260 795l65 183h163l-98 -183h-130zM35 0v106l366 496h-352v137h554v-110l-359 -492h370v-137h-579z" />
    <glyph glyph-name="zacute" unicode="&#x17a;" horiz-adv-x="538" 
d="M199 626l62 176h157l-94 -176h-125zM226 117h278v-117h-472v96l273 331h-259v117h448v-95z" />
    <glyph glyph-name="Zdotaccent" unicode="&#x17b;" horiz-adv-x="651" 
d="M393 820q-12 -12 -28.5 -18.5t-33.5 -6.5t-33.5 6.5t-28.5 18.5t-18.5 28.5t-6.5 33.5t6.5 33t18.5 28t28.5 18.5t33.5 6.5t33.5 -6.5t28.5 -18.5t18.5 -28t6.5 -33t-6.5 -33.5t-18.5 -28.5zM35 0v106l366 496h-352v137h554v-110l-359 -492h370v-137h-579z" />
    <glyph glyph-name="zdotaccent" unicode="&#x17c;" horiz-adv-x="538" 
d="M338 633q-12 -12 -28.5 -18.5t-33.5 -6.5t-33.5 6.5t-28.5 18.5t-18.5 28.5t-6.5 33.5t6.5 33t18.5 28t28.5 18.5t33.5 6.5t33.5 -6.5t28.5 -18.5t18.5 -28t6.5 -33t-6.5 -33.5t-18.5 -28.5zM226 117h278v-117h-472v96l273 331h-259v117h448v-95z" />
    <glyph glyph-name="Zcaron" unicode="&#x17d;" horiz-adv-x="651" 
d="M133 971h134l65 -86l65 86h138l-149 -176h-105zM35 0v106l366 496h-352v137h554v-110l-359 -492h370v-137h-579z" />
    <glyph glyph-name="zcaron" unicode="&#x17e;" horiz-adv-x="538" 
d="M68 802h134l65 -86l65 86h138l-149 -176h-105zM226 117h278v-117h-472v96l273 331h-259v117h448v-95z" />
    <glyph glyph-name="Ohorn" unicode="&#x1a0;" horiz-adv-x="848" 
d="M563 723q35 0 54 7.5t19 22.5q0 8 -23 67l90 30q34 -53 34 -100q0 -59 -42.5 -94.5t-131.5 -35.5v103zM423 -12q-165 0 -274 109q-110 110 -110 270t111 273q112 112 274 112t273 -112q112 -112 112 -271t-112 -270q-111 -111 -274 -111zM655 369q0 102 -67 169
q-68 68 -164 68t-164 -68q-67 -67 -67 -169q0 -101 66 -168q67 -67 165 -67t165 67t66 168z" />
    <glyph glyph-name="ohorn" unicode="&#x1a1;" 
d="M457 518q35 0 54 7.5t19 22.5q0 8 -23 67l90 30q34 -53 34 -100q0 -59 -42.5 -94.5t-131.5 -35.5v103zM35 273q0 121 82 203q82 84 210 84q127 0 210 -84q82 -82 82 -203q0 -122 -82 -204q-83 -83 -210 -83t-210 83q-82 82 -82 204zM219 162q43 -45 108 -45q63 0 107 45
q44 47 44 111t-44 110q-44 45 -107 45q-65 0 -108 -45q-43 -44 -43 -110q0 -65 43 -111z" />
    <glyph glyph-name="Uhorn" unicode="&#x1af;" horiz-adv-x="725" 
d="M542 734q35 0 54 12t19 27q0 8 -23 67l90 30q34 -53 34 -100q0 -59 -42.5 -94.5t-131.5 -35.5v94zM74 739h149v-459q0 -75 37 -112t103 -37q63 0 100.5 38.5t37.5 110.5v459h150v-469q0 -139 -82 -211q-81 -72 -206 -72t-207 72t-82 211v469z" />
    <glyph glyph-name="uhorn" unicode="&#x1b0;" horiz-adv-x="614" 
d="M453 544q35 0 54 12t19 27q0 8 -23 67l90 30q34 -53 34 -100q0 -59 -42.5 -94.5t-131.5 -35.5v94zM307 -13q-58 0 -104.5 16.5t-78.5 47.5t-49.5 76.5t-17.5 102.5v315h141v-315q0 -52 29 -83t80 -31t80 31t29 83v315h141v-315q0 -115 -66 -179t-184 -64z" />
    <glyph glyph-name="Scommaaccent" unicode="&#x218;" horiz-adv-x="598" 
d="M444 397q126 -62 126 -184q0 -99 -75 -162t-196 -63q-87 0 -160.5 35.5t-119.5 102.5l85 103q36 -51 87.5 -77t108.5 -26q46 0 76 22t30 57q0 46 -67 77q-8 4 -26 11t-47 18t-50.5 21.5t-36.5 18.5q-117 67 -117 184q0 93 70 154q71 62 182 62q144 0 243 -100l-79 -108
q-31 33 -75.5 51t-86.5 18q-45 0 -70 -19.5t-25 -51.5q0 -43 60 -73l73 -32q61 -26 90 -39zM296 -43q37 0 62.5 -24.5t25.5 -66.5q0 -48 -36 -93.5t-111 -97.5l-49 61q54 39 81 68q-24 6 -40.5 27t-16.5 47q0 33 24 56t60 23z" />
    <glyph glyph-name="scommaaccent" unicode="&#x219;" horiz-adv-x="490" 
d="M371 299q92 -48 92 -138q0 -77 -60 -126q-58 -49 -157 -49q-143 0 -225 105l75 89q29 -35 69 -55.5t82 -20.5q32 0 53.5 15t21.5 38q0 29 -39 47q-12 5 -65 25q-26 10 -43.5 17t-26.5 12q-94 45 -94 141q0 71 56 118q55 46 148 46q116 0 191 -78l-70 -91q-57 54 -125 54
q-28 0 -45 -13.5t-17 -32.5q0 -34 48 -50q107 -40 131 -53zM245 -48q36 0 61 -25t25 -64q0 -48 -35.5 -91.5t-108.5 -95.5l-48 60q60 46 78 66q-23 6 -38.5 26.5t-15.5 45.5q0 32 23.5 55t58.5 23z" />
    <glyph glyph-name="uni021A" unicode="&#x21a;" horiz-adv-x="600" 
d="M14 739h572v-143h-211v-596h-150v596h-211v143zM297 -29q37 0 62.5 -24.5t25.5 -66.5q0 -48 -36 -93.5t-111 -97.5l-49 61q54 39 81 68q-24 6 -40.5 27t-16.5 47q0 33 24 56t60 23z" />
    <glyph glyph-name="uni021B" unicode="&#x21b;" horiz-adv-x="461" 
d="M458 32q-68 -45 -161 -45q-94 0 -142 54.5t-48 160.5v225h-89v118h90v193h140v-193h180v-118h-180v-216q0 -96 77 -96q42 0 91 28zM279 -49q36 0 61 -25t25 -64q0 -48 -35.5 -91.5t-108.5 -95.5l-48 60q60 46 78 66q-23 6 -38.5 26.5t-15.5 45.5q0 32 23.5 55t58.5 23z
" />
    <glyph glyph-name="uni0237" unicode="&#x237;" horiz-adv-x="293" 
d="M20 -232q-81 0 -124 28l26 112q45 -16 75 -16q91 0 91 107v546h141v-553q0 -111 -57.5 -167.5t-151.5 -56.5z" />
    <glyph glyph-name="circumflex" unicode="&#x2c6;" horiz-adv-x="561" 
d="M39 621l148 176h105l149 -176h-138l-65 86l-65 -86h-134z" />
    <glyph glyph-name="caron" unicode="&#x2c7;" horiz-adv-x="548" 
d="M39 799h134l65 -86l65 86h138l-149 -176h-105z" />
    <glyph glyph-name="breve" unicode="&#x2d8;" horiz-adv-x="467" 
d="M228 616q-82 0 -132.5 48t-55.5 133h111q2 -38 21.5 -62t55.5 -24t55.5 24t21.5 62h113q-5 -85 -55.5 -133t-134.5 -48z" />
    <glyph glyph-name="dotaccent" unicode="&#x2d9;" horiz-adv-x="300" 
d="M189 625q-12 -12 -28.5 -18.5t-33.5 -6.5t-33.5 6.5t-28.5 18.5t-18.5 28.5t-6.5 33.5t6.5 33t18.5 28t28.5 18.5t33.5 6.5t33.5 -6.5t28.5 -18.5t18.5 -28t6.5 -33t-6.5 -33.5t-18.5 -28.5z" />
    <glyph glyph-name="ring" unicode="&#x2da;" horiz-adv-x="382" 
d="M173 595q-57 0 -95 37q-38 38 -38 90q0 53 38 91q40 38 95 38t93 -38q39 -38 39 -91t-39 -90q-37 -37 -93 -37zM173 671q21 0 36 15.5t15 37.5t-15 36.5t-36 14.5q-22 0 -37.5 -14.5t-15.5 -36.5t15.5 -37.5t37.5 -15.5z" />
    <glyph glyph-name="ogonek" unicode="&#x2db;" horiz-adv-x="360" 
d="M269 -234q-50 -30 -106 -30q-58 0 -90.5 32t-32.5 83q0 99 129 167l85 -18q-21 -9 -38.5 -22.5t-31 -29t-21 -31.5t-7.5 -31q0 -30 23.5 -38t58.5 8z" />
    <glyph glyph-name="tilde" unicode="&#x2dc;" horiz-adv-x="553" 
d="M40 673q49 115 144 115q34 0 75 -22q43 -21 59 -21q33 0 59 47l89 -42q-20 -55 -55 -85t-80 -30q-32 0 -75 22q-44 23 -62 23q-39 0 -64 -51z" />
    <glyph glyph-name="hungarumlaut" unicode="&#x2dd;" horiz-adv-x="544" 
d="M45 620l43 176h151l-77 -176h-117zM244 620l57 176h156l-94 -176h-119z" />
    <glyph glyph-name="hookabovecomb" unicode="&#x309;" horiz-adv-x="272" 
d="M91 530v19q0 6 1 15.5t4.5 20.5t11.5 23.5t23 24.5q12 9 21 19t9 19q0 8 -7 13t-17 5q-9 0 -24.5 -9t-38.5 -35l-70 68q32 38 66.5 55.5t66.5 17.5q24 0 46 -8t39.5 -23t27.5 -36.5t10 -47.5t-15.5 -51t-41.5 -50q-6 -4 -9 -6.5t-5 -6.5t-2.5 -10.5t-0.5 -16.5h-95z" />
    <glyph glyph-name="dotbelowcomb" unicode="&#x323;" horiz-adv-x="225" 
d="M177 -216q-12 -12 -28.5 -18.5t-33.5 -6.5t-33.5 6.5t-28.5 18.5t-18.5 28.5t-6.5 33.5t6.5 33t18.5 28t28.5 18.5t33.5 6.5t33.5 -6.5t28.5 -18.5t18.5 -28t6.5 -33t-6.5 -33.5t-18.5 -28.5z" />
    <glyph glyph-name="uni0394" unicode="&#x394;" horiz-adv-x="753" 
d="M20 0v102l309 637h96l309 -637v-102h-714zM190 140h374l-188 411z" />
    <glyph glyph-name="uni03A9" unicode="&#x3a9;" horiz-adv-x="863" 
d="M50 0v130h147q-30 19 -55.5 47t-44 62.5t-28.5 74.5t-10 84q0 149 108 251q107 103 265 103t264 -103q108 -102 108 -251q0 -44 -10 -84t-28.5 -74.5t-44 -62.5t-55.5 -47h147v-130h-337v133q39 15 71 39t54.5 56t35 69.5t12.5 79.5q0 98 -63 160q-62 63 -154 63
q-93 0 -156 -63q-63 -62 -63 -160q0 -42 12.5 -80t35 -69.5t55 -55.5t71.5 -39v-133h-337z" />
    <glyph glyph-name="uni03BC" unicode="&#x3bc;" horiz-adv-x="653" 
d="M448 535h141v-535h-135v78q-44 -89 -141 -89q-75 0 -112 58v-265h-137v753h141v-284q0 -66 30 -99.5t84 -33.5q57 0 93 40.5t36 115.5v261z" />
    <glyph glyph-name="pi" unicode="&#x3c0;" horiz-adv-x="634" 
d="M105 0v411h-75v124h574v-124h-75v-411h-143v411h-139v-411h-142z" />
    <glyph glyph-name="uni0401" unicode="&#x401;" horiz-adv-x="637" 
d="M144 880q0 34 24 57.5t59 23.5t59 -23.5t24 -57.5q0 -36 -24 -60t-59 -24t-59 24t-24 60zM441 796q-35 0 -59 24t-24 60q0 34 24 57.5t59 23.5q34 0 58 -23.5t24 -57.5q0 -36 -24 -60t-58 -24zM82 0v739h501v-138h-352v-159h326v-138h-326v-166h352v-138h-501z" />
    <glyph glyph-name="uni0410" unicode="&#x410;" horiz-adv-x="696" 
d="M532 0l-55 160h-258l-57 -160h-155l282 739h121l278 -739h-156zM349 538l-88 -246h174z" />
    <glyph glyph-name="uni0411" unicode="&#x411;" horiz-adv-x="666" 
d="M371 466q81 0 132 -24t80.5 -59.5t40.5 -77t11 -76.5q0 -97 -67 -163q-68 -66 -185 -66h-301v739h482v-129h-336v-144h143zM358 130q63 0 93.5 29t30.5 74q0 43 -29 73t-89 30h-136v-206h130z" />
    <glyph glyph-name="uni0412" unicode="&#x412;" horiz-adv-x="692" 
d="M513 405q68 -17 104 -69.5t36 -120.5q0 -92 -64 -153q-64 -62 -170 -62h-337v739h322q99 0 154 -55q56 -56 56 -129q0 -49 -28 -91.5t-73 -58.5zM228 610v-161h145q46 0 70 25t24 58q0 32 -23 55t-65 23h-151zM390 130q54 0 82 29t28 68q0 40 -28 69t-82 29h-162v-195
h162z" />
    <glyph glyph-name="uni0413" unicode="&#x413;" horiz-adv-x="555" 
d="M82 0v739h462v-133h-316v-606h-146z" />
    <glyph glyph-name="uni0414" unicode="&#x414;" horiz-adv-x="798" 
d="M684 134h84v-284h-143v150h-452v-150h-143v284h81l219 605h140zM264 134h268l-133 416z" />
    <glyph glyph-name="uni0415" unicode="&#x415;" horiz-adv-x="637" 
d="M82 0v739h501v-138h-352v-159h326v-138h-326v-166h352v-138h-501z" />
    <glyph glyph-name="uni0416" unicode="&#x416;" horiz-adv-x="1034" 
d="M1013 4q-35 -15 -82 -15q-24 0 -45.5 5t-37.5 12t-32.5 22.5t-26.5 25.5q-5 5 -11 14t-14 20l-22 37q-4 7 -9.5 18t-13.5 25l-23 44q-18 33 -27 47q-10 15 -26.5 28t-34.5 13h-17v-301h-148v301h-17q-26 0 -44.5 -21t-42.5 -67l-23 -44l-23 -43l-22 -36l-14 -21t-11 -14
q-10 -10 -27 -25.5t-33 -22.5q-16 -6 -37.5 -11.5t-45.5 -5.5q-48 0 -82 15l8 125q24 -8 54 -8q35 0 61 32q25 30 105 170q30 42 37 49q-15 12 -28.5 30.5t-21.5 32.5q-3 7 -8 18t-9.5 21.5t-8.5 19.5t-7 14q-16 32 -29 53.5t-23 32.5q-20 23 -56 23q-14 0 -42 -5l-11 119
q32 19 77 19q73 0 112 -42q39 -40 89 -150q6 -12 14 -30.5t11 -26.5q4 -7 10.5 -19.5t9.5 -16.5q12 -16 25 -22t40 -6h13v301h148v-301h13q23 0 37.5 4t24.5 18l7.5 12t8.5 16l9 19l23 52q50 109 88 150q40 42 113 42q45 0 77 -19l-11 -119q-12 2 -22.5 3.5t-18.5 1.5
q-36 0 -56 -23q-10 -11 -23 -32.5t-29 -53.5q-3 -5 -7 -14t-9.5 -19.5t-10.5 -21.5t-9 -18q-7 -14 -20 -33t-26 -32q12 -13 35 -47q40 -69 65.5 -111.5t38.5 -58.5q26 -32 62 -32q29 0 55 8z" />
    <glyph glyph-name="uni0417" unicode="&#x417;" horiz-adv-x="615" 
d="M277 -12q-137 0 -259 74l56 120q106 -59 208 -59q64 0 100.5 26t36.5 69q0 42 -34 65.5t-92 23.5h-129v130h97q61 0 98 26t37 68q1 39 -31 62t-83 23q-83 0 -180 -59l-67 106q51 42 121 65.5t143 23.5q114 0 181 -58q69 -57 69 -137q0 -51 -30.5 -92.5t-87.5 -62.5v-4
q69 -18 105.5 -66.5t36.5 -115.5q0 -96 -79 -162q-78 -66 -217 -66z" />
    <glyph glyph-name="uni0418" unicode="&#x418;" horiz-adv-x="784" 
d="M82 0v739h146v-487l381 487h93v-739h-146v483l-381 -483h-93z" />
    <glyph glyph-name="uni0419" unicode="&#x419;" horiz-adv-x="784" 
d="M409 773q-128 0 -219 115l75 78q38 -48 71 -66t73 -18t73 18.5t72 65.5l75 -78q-94 -115 -220 -115zM82 0v739h146v-487l381 487h93v-739h-146v483l-381 -483h-93z" />
    <glyph glyph-name="uni041A" unicode="&#x41a;" horiz-adv-x="696" 
d="M526 0l-205 293l-91 -109v-184h-148v739h148v-349l280 349h179l-271 -336l290 -403h-182z" />
    <glyph glyph-name="uni041B" unicode="&#x41b;" horiz-adv-x="685" 
d="M8 0l266 739h141l261 -739h-161l-171 531l-174 -531h-162z" />
    <glyph glyph-name="uni041C" unicode="&#x41c;" horiz-adv-x="939" 
d="M82 0v739h98l290 -419l287 419h100v-739h-148v419l-215 -309h-51l-215 309v-419h-146z" />
    <glyph glyph-name="uni041D" unicode="&#x41d;" horiz-adv-x="770" 
d="M82 0v739h148v-295h310v295h148v-739h-148v301h-310v-301h-148z" />
    <glyph glyph-name="uni041E" unicode="&#x41e;" horiz-adv-x="848" 
d="M423 -12q-165 0 -274 109q-110 110 -110 270t111 273q112 112 274 112t273 -112q112 -112 112 -271t-112 -270q-111 -111 -274 -111zM655 369q0 102 -67 169q-68 68 -164 68t-164 -68q-67 -67 -67 -169q0 -101 66 -168q67 -67 165 -67t165 67t66 168z" />
    <glyph glyph-name="uni041F" unicode="&#x41f;" horiz-adv-x="770" 
d="M82 0v739h606v-739h-148v596h-310v-596h-148z" />
    <glyph glyph-name="uni0420" unicode="&#x420;" horiz-adv-x="639" 
d="M355 739q130 0 195 -71q66 -71 66 -173t-68 -172q-68 -68 -204 -68h-114v-255h-148v739h273zM349 389q57 0 86.5 31.5t29.5 76.5t-28.5 75t-79.5 30h-127v-213h119z" />
    <glyph glyph-name="uni0421" unicode="&#x421;" horiz-adv-x="765" 
d="M420 -11q-162 0 -271 105q-109 106 -109 273q0 168 111 276q112 109 271 109q50 0 96.5 -11t88 -31t75.5 -48.5t58 -62.5l-99 -97q-87 107 -211 107q-101 0 -168 -69q-68 -68 -68 -173q0 -102 67 -169t168 -67q129 0 215 108l102 -93q-26 -35 -60.5 -64t-76.5 -49.5
t-90 -32t-99 -11.5z" />
    <glyph glyph-name="uni0422" unicode="&#x422;" horiz-adv-x="600" 
d="M225 596h-211v143h572v-143h-211v-596h-150v596z" />
    <glyph glyph-name="uni0423" unicode="&#x423;" horiz-adv-x="630" 
d="M140 -12q-55 0 -96 22l12 121q29 -13 62 -13q80 0 140 124l-235 496h174l140 -334l129 334h170l-78 -176q-48 -111 -84 -191.5t-68 -147.5l-19.5 -39t-16.5 -31q-7 -13 -17 -28.5t-23 -33.5q-13 -17 -25 -31t-25 -24q-25 -19 -61.5 -33.5t-78.5 -14.5z" />
    <glyph glyph-name="uni0424" unicode="&#x424;" horiz-adv-x="945" 
d="M547 -80h-149v91q-163 13 -263 112q-99 100 -99 248t100 247q100 98 262 112v89h149v-89q162 -14 262 -112q100 -99 100 -247t-100 -248q-99 -99 -262 -112v-91zM398 597q-48 -5 -87.5 -23t-67 -47.5t-43 -69.5t-15.5 -88q0 -96 57 -157q58 -62 156 -69v454zM547 142
q48 4 87.5 22t67 47.5t42.5 69.5t15 88t-15 88t-43 69.5t-67 47.5t-87 23v-455z" />
    <glyph glyph-name="uni0425" unicode="&#x425;" horiz-adv-x="669" 
d="M4 0l237 374l-221 365h171l144 -253l151 253h174l-233 -365l232 -374h-171l-154 259l-156 -259h-174z" />
    <glyph glyph-name="uni0426" unicode="&#x426;" horiz-adv-x="749" 
d="M560 -150v150h-478v739h149v-596h251v596h149v-596h77v-293h-148z" />
    <glyph glyph-name="uni0427" unicode="&#x427;" horiz-adv-x="698" 
d="M466 739h150v-739h-150v236q-78 -28 -150 -28q-55 0 -104 13t-85.5 43.5t-58 80.5t-21.5 125v269h149v-243q0 -78 31.5 -111t98.5 -33q71 0 140 25v362z" />
    <glyph glyph-name="uni0428" unicode="&#x428;" horiz-adv-x="1098" 
d="M82 0v739h149v-596h243v596h149v-596h244v596h149v-739h-934z" />
    <glyph glyph-name="uni0429" unicode="&#x429;" horiz-adv-x="1134" 
d="M945 -150v150h-863v739h149v-596h243v596h149v-596h244v596h149v-596h77v-293h-148z" />
    <glyph glyph-name="uni042A" unicode="&#x42a;" horiz-adv-x="759" 
d="M462 511q118 0 195 -69q76 -67 76 -190q0 -105 -68 -179q-67 -73 -200 -73h-285v610h-165v129h311v-251q69 23 136 23zM438 134q72 0 107 32.5t35 89.5q0 61 -36 91t-100 30q-55 0 -118 -22v-221h112z" />
    <glyph glyph-name="uni042B" unicode="&#x42b;" horiz-adv-x="958" 
d="M371 487q75 0 130 -23.5t83 -62.5t40.5 -78t12.5 -81q0 -103 -68 -173q-68 -69 -185 -69h-300v739h146v-252h141zM727 739h149v-739h-149v739zM359 131q61 0 93 32.5t32 81.5q0 48 -30.5 79.5t-90.5 31.5h-133v-225h129z" />
    <glyph glyph-name="uni042C" unicode="&#x42c;" horiz-adv-x="661" 
d="M364 511q118 0 195 -69q77 -68 77 -190q0 -105 -68 -179q-67 -73 -201 -73h-285v739h146v-251q69 23 136 23zM340 134q72 0 107 32.5t35 89.5q0 121 -136 121q-55 0 -118 -23v-220h112z" />
    <glyph glyph-name="uni042D" unicode="&#x42d;" horiz-adv-x="769" 
d="M347 752q160 0 270 -109q112 -108 112 -276q0 -166 -110 -273q-110 -105 -270 -105q-51 0 -99 11.5t-90 32t-77 49.5t-60 64l102 93q85 -108 215 -108q83 0 144 46q63 47 83 124h-343v133h343q-11 39 -32.5 71.5t-51.5 55.5t-66.5 35.5t-77.5 12.5q-124 0 -211 -107
l-99 97q24 34 58 62.5t75.5 48.5t88 31t96.5 11z" />
    <glyph glyph-name="uni042E" unicode="&#x42e;" horiz-adv-x="1129" 
d="M705 752q161 0 273 -112t112 -271t-112 -270q-111 -111 -274 -111q-145 0 -250 87q-104 87 -128 221h-95v-296h-149v739h149v-300h95q25 136 131 224q107 89 248 89zM936 369q0 102 -67 169q-68 68 -164 68t-164 -68q-67 -67 -67 -169q0 -101 66 -168q67 -67 165 -67
t165 67t66 168z" />
    <glyph glyph-name="uni042F" unicode="&#x42f;" horiz-adv-x="677" 
d="M595 739v-739h-146v256q-43 -7 -106 -9l-146 -247h-170l170 270q-73 29 -106.5 88.5t-33.5 134.5q0 107 70 176q70 70 208 70h260zM347 377q49 0 102 9v217h-105q-135 0 -135 -112q0 -114 138 -114z" />
    <glyph glyph-name="uni0430" unicode="&#x430;" horiz-adv-x="678" 
d="M479 545h134v-545h-134v63q-70 -76 -174 -76q-118 0 -194 82t-76 206q0 123 77 203q76 81 193 81q102 0 174 -79v65zM481 273q0 64 -44 111q-43 46 -109 46q-67 0 -110 -46q-42 -47 -42 -111q0 -66 43 -112t109 -46t109 46q44 47 44 112z" />
    <glyph glyph-name="uni0431" unicode="&#x431;" horiz-adv-x="687" 
d="M381 536q106 0 188 -74q82 -73 82 -196q0 -120 -80 -200t-214 -80q-84 0 -146.5 32.5t-98.5 89.5t-53.5 125t-17.5 146q0 156 65 247.5t180 118.5q12 3 29 6t39 7t38 7.5t27 5.5q22 6 59 24t76 48l54 -114q-41 -42 -87 -60q-47 -17 -157 -39q-23 -5 -40 -9t-32 -10
t-28 -14t-27 -20q-28 -22 -43.5 -61t-21.5 -99q30 57 86.5 88t122.5 31zM508 264q0 62 -43 105q-44 44 -105 44t-106 -42q-44 -41 -44 -105q0 -63 42 -109q42 -45 106 -45q63 0 107 44q43 44 43 108z" />
    <glyph glyph-name="uni0432" unicode="&#x432;" horiz-adv-x="645" 
d="M475 423q64 -18 99.5 -71t35.5 -129q0 -96 -74 -167q-74 -69 -199 -69q-55 0 -102.5 14.5t-90.5 46.5q-42 33 -66.5 94.5t-24.5 148.5v182q0 150 77 227q78 78 203 78q108 0 175 -56q67 -55 67 -148q0 -24 -7 -47.5t-20.5 -43.5t-32 -35.5t-40.5 -24.5zM331 649
q-33 0 -58 -13.5t-42.5 -37.5t-26.5 -58t-9 -74v-7h124q62 0 89 28.5t27 68.5q0 45 -28 69t-76 24zM338 116q60 0 94.5 33t34.5 81t-29.5 78t-96.5 30h-146v-46q0 -90 38.5 -133t104.5 -43z" />
    <glyph glyph-name="uni0433" unicode="&#x433;" horiz-adv-x="509" 
d="M248 -13q-103 0 -159.5 41t-56.5 111q0 54 28.5 92.5t68.5 57.5q30 14 61.5 26t57.5 24t42.5 25t16.5 31q0 20 -18 33t-56 13q-71 0 -149 -31l-33 107q100 42 206 42q46 0 84.5 -10t65.5 -28.5t42 -45.5t15 -61q0 -46 -20 -75.5t-50.5 -49t-66 -33t-66 -26.5t-50.5 -29
t-20 -41q0 -53 87 -53q86 0 171 43l31 -111q-108 -52 -232 -52z" />
    <glyph glyph-name="uni0434" unicode="&#x434;" horiz-adv-x="674" 
d="M481 545h130v-476q0 -149 -81 -225t-230 -76q-104 0 -222 41l30 115q93 -34 187 -34q91 0 135.5 39t44.5 112v28q-63 -70 -168 -70q-120 0 -196 79t-76 200t80 201t198 80q100 0 168 -74v60zM177 277q0 -68 43 -111q44 -44 108 -44t108 44q43 44 43 111q0 66 -43 109
q-44 44 -108 44t-108 -44q-43 -43 -43 -109z" />
    <glyph glyph-name="uni0435" unicode="&#x435;" horiz-adv-x="626" 
d="M593 285q0 -14 -1.5 -29.5t-3.5 -32.5h-409q30 -116 159 -116q44 0 92.5 15.5t83.5 39.5l56 -99q-104 -75 -238 -75q-143 0 -220 83q-76 82 -76 202q0 125 79 205q79 81 205 81q119 0 196 -74t77 -200zM320 442q-54 0 -91 -30t-50 -84h277q-10 54 -46 84t-90 30z" />
    <glyph glyph-name="uni0436" unicode="&#x436;" horiz-adv-x="886" 
d="M865 3q-35 -12 -74 -12q-22 0 -41 4t-33 9t-28.5 16t-22.5 18q-8 8 -19.5 24t-16.5 24l-15 27q-11 21 -15 26q-21 36 -36.5 51.5t-37.5 15.5h-15v-207h-137v207h-14q-22 0 -37.5 -15.5t-36.5 -51.5l-17 -30l-19 -31q-2 -4 -7 -10t-12 -16q-13 -18 -24.5 -25.5
t-28.5 -18.5q-17 -10 -37.5 -13.5t-45.5 -3.5q-40 0 -74 12l6 108q24 -6 43 -6q28 0 46 19q10 10 27.5 34t43.5 63l14 20q8 11 14 19t11 13q-10 6 -17 14t-14 18q-3 6 -5 9t-6 10q-2 6 -6.5 15t-8.5 16q-6 12 -10.5 20.5t-8.5 15.5t-7.5 12.5t-9.5 11.5q-10 14 -22 18.5
t-28 4.5q-19 0 -35 -3l-9 103q28 15 69 15q31 0 55 -7t42.5 -21.5t33.5 -37t29 -53.5l21 -46q3 -5 9 -16.5t9 -14.5q10 -11 22.5 -17t33.5 -6h11v211h137v-211h11q17 -3 30 4t20 12q5 3 12 15.5t9 17.5q4 6 11 24q5 10 8 16.5t5 10.5q14 31 29 53.5t33.5 37t42.5 21.5t56 7
q40 0 69 -15l-9 -103q-17 3 -35 3q-17 0 -28.5 -4.5t-22.5 -18.5q-6 -7 -9.5 -12.5t-7 -11.5t-8 -14.5t-10.5 -21.5q-1 -2 -5 -10.5t-6 -11.5l-4.5 -9t-5.5 -10l-16 -22t-20 -19q5 -5 11 -13t14 -19q29 -45 48.5 -73.5t30.5 -39.5q23 -23 52 -23q19 0 43 6z" />
    <glyph glyph-name="uni0437" unicode="&#x437;" horiz-adv-x="557" 
d="M257 -230q-136 0 -251 81l50 109q94 -63 180 -63q66 0 103.5 30t37.5 81q0 48 -34 75t-94 27h-106v121h73q69 0 105 29.5t36 74.5t-33 70.5t-82 25.5q-75 0 -163 -63l-63 99q22 20 50.5 37t60.5 29t66.5 19t69.5 7q104 0 172 -59t68 -143q0 -54 -30 -97.5t-84 -65.5v-4
q31 -9 56.5 -26.5t43.5 -42.5t27.5 -55.5t9.5 -64.5q0 -98 -72 -164q-71 -67 -197 -67z" />
    <glyph glyph-name="uni0438" unicode="&#x438;" horiz-adv-x="652" 
d="M588 545v-545h-136v77q-11 -19 -29.5 -35.5t-42.5 -28.5t-53.5 -19t-60.5 -7q-89 0 -149 57q-59 57 -59 175v326h141v-305q0 -60 28 -92t82 -32q63 0 100.5 39t37.5 108v282h141z" />
    <glyph glyph-name="uni0439" unicode="&#x439;" horiz-adv-x="652" 
d="M327 581q-115 0 -197 103l68 71q34 -43 63.5 -59.5t65.5 -16.5t66 16.5t65 59.5l67 -71q-84 -103 -198 -103zM588 545v-545h-136v77q-11 -19 -29.5 -35.5t-42.5 -28.5t-53.5 -19t-60.5 -7q-89 0 -149 57q-59 57 -59 175v326h141v-305q0 -60 28 -92t82 -32q63 0 100.5 39
t37.5 108v282h141z" />
    <glyph glyph-name="uni043A" unicode="&#x43a;" horiz-adv-x="583" 
d="M422 0l-180 233l-37 -33v-200h-141v760h141v-401l198 186h178l-243 -223l257 -322h-173z" />
    <glyph glyph-name="uni043B" unicode="&#x43b;" horiz-adv-x="608" 
d="M8 0l229 545h139l224 -545h-156l-137 373l-143 -373h-156z" />
    <glyph glyph-name="uni043C" unicode="&#x43c;" horiz-adv-x="781" 
d="M64 0v545h101l226 -291l226 291h101v-545h-137v289l-166 -206h-49l-165 206v-289h-137z" />
    <glyph glyph-name="uni043D" unicode="&#x43d;" horiz-adv-x="629" 
d="M425 545h140v-545h-140v210h-221v-210h-140v545h140v-209h221v209z" />
    <glyph glyph-name="uni043E" unicode="&#x43e;" 
d="M35 273q0 121 82 203q82 84 210 84q127 0 210 -84q82 -82 82 -203q0 -122 -82 -204q-83 -83 -210 -83t-210 83q-82 82 -82 204zM219 162q43 -45 108 -45q63 0 107 45q44 47 44 111t-44 110q-44 45 -107 45q-65 0 -108 -45q-43 -44 -43 -110q0 -65 43 -111z" />
    <glyph glyph-name="uni043F" unicode="&#x43f;" horiz-adv-x="643" 
d="M64 0v545h138v-76q22 40 67.5 65.5t103.5 25.5q89 0 151 -59t62 -168v-333h-141v295q0 66 -31.5 100.5t-83.5 34.5q-57 0 -91 -38.5t-34 -99.5v-292h-141z" />
    <glyph glyph-name="uni0440" unicode="&#x440;" horiz-adv-x="681" 
d="M377 559q115 0 192 -83q76 -82 76 -203q0 -120 -77 -203t-192 -83q-101 0 -171 76v-287h-141v769h140v-67q70 81 173 81zM352 116q67 0 109 45t42 111t-42 111t-109 45q-66 0 -108 -45t-42 -111t42 -111t108 -45z" />
    <glyph glyph-name="uni0441" unicode="&#x441;" horiz-adv-x="603" 
d="M324 -12q-126 0 -208 80q-81 79 -81 205t82 205q82 81 211 81q84 0 152 -39.5t102 -112.5l-113 -62q-50 83 -139 83q-68 0 -111 -45q-44 -44 -44 -110q0 -68 43 -112q44 -44 109 -44q43 0 82 23t57 59l114 -67q-18 -33 -44.5 -59.5t-59.5 -45.5t-71.5 -29t-80.5 -10z" />
    <glyph glyph-name="uni0442" unicode="&#x442;" horiz-adv-x="1002" 
d="M723 560q98 0 159 -61q63 -62 63 -170v-329h-141v303q0 63 -30 95t-79 32q-54 0 -87 -35.5t-33 -95.5v-299h-141v302q0 61 -29.5 94.5t-80.5 33.5q-52 0 -85.5 -35.5t-33.5 -96.5v-298h-141v545h138v-78q23 43 67.5 68.5t98.5 24.5q51 0 94.5 -24t65.5 -72q30 45 82 70.5
t113 25.5z" />
    <glyph glyph-name="uni0443" unicode="&#x443;" horiz-adv-x="599" 
d="M435 545h154l-219 -572q-40 -105 -95 -155t-136 -50q-62 0 -105 27l24 118q37 -18 70 -18q65 0 106 86l11 25l-238 539h163l141 -355z" />
    <glyph glyph-name="uni0444" unicode="&#x444;" horiz-adv-x="851" 
d="M816 272q0 -129 -88 -204q-89 -74 -236 -80v-215h-133v215q-147 6 -236 81q-88 75 -88 204q0 128 88 204q90 78 236 82v201h133v-201q146 -4 235 -81t89 -206zM492 107q88 1 137.5 45.5t49.5 120.5q0 75 -48 118.5t-139 45.5v-330zM172 273q0 -76 49.5 -119.5
t137.5 -45.5v329q-90 -2 -138.5 -45.5t-48.5 -118.5z" />
    <glyph glyph-name="uni0445" unicode="&#x445;" horiz-adv-x="554" 
d="M543 0h-162l-104 179l-109 -179h-163l181 278l-161 267h161l93 -167l100 167h159l-170 -271z" />
    <glyph glyph-name="uni0446" unicode="&#x446;" horiz-adv-x="720" 
d="M588 172q-1 -49 29.5 -64.5t96.5 -15.5v-272h-124v171q-51 0 -86 27.5t-40 78.5q-10 -24 -29.5 -44t-45.5 -35t-57.5 -23t-65.5 -8q-89 0 -149 57q-59 57 -59 175v326h141v-305q0 -60 28 -92t82 -32q63 0 100.5 39t37.5 108v282h141v-373z" />
    <glyph glyph-name="uni0447" unicode="&#x447;" horiz-adv-x="587" 
d="M382 545h141v-545h-141v164q-67 -16 -121 -16q-49 0 -86.5 9.5t-69.5 31.5q-32 23 -49.5 66.5t-17.5 106.5v183h140v-173q0 -96 99 -96q57 0 105 13v256z" />
    <glyph glyph-name="uni0448" unicode="&#x448;" horiz-adv-x="978" 
d="M773 545h141v-545h-133v77q-20 -38 -67 -64t-102 -26q-51 0 -93 22.5t-63 68.5q-27 -46 -77 -68.5t-107 -22.5q-91 0 -152 58q-62 59 -62 179v321h141v-307q0 -60 26 -91t75 -31q54 0 85 36.5t31 102.5v290h141v-311q0 -57 25.5 -87.5t73.5 -30.5q54 0 85.5 38t31.5 101
v290z" />
    <glyph glyph-name="uni0449" unicode="&#x449;" horiz-adv-x="1049" 
d="M914 172q0 -49 30.5 -64.5t96.5 -15.5v-272h-123v171q-51 0 -86 27.5t-40 78.5q-10 -24 -28.5 -44.5t-42.5 -35t-53 -22.5t-61 -8q-49 0 -89.5 22.5t-61.5 68.5q-28 -46 -78.5 -68.5t-105.5 -22.5q-91 0 -152 58q-62 59 -62 179v321h141v-307q0 -60 26 -91t75 -31
q54 0 85 36.5t31 102.5v290h141v-311q0 -57 25 -87.5t73 -30.5q54 0 86 38t32 101v290h141v-373z" />
    <glyph glyph-name="uni044A" unicode="&#x44a;" 
d="M397 444q98 0 162 -64q66 -63 66 -162q0 -96 -62 -164q-61 -67 -187 -67q-75 0 -122 26t-73.5 65t-35.5 86t-9 89v173h-124v119h262v-135q56 34 123 34zM379 109q52 0 79.5 30t27.5 78t-28.5 76.5t-82.5 28.5t-101 -25v-62q0 -126 105 -126z" />
    <glyph glyph-name="uni044B" unicode="&#x44b;" horiz-adv-x="796" 
d="M310 378q60 0 105 -17t69 -46q24 -28 35 -59.5t11 -65.5q0 -82 -57 -136q-56 -54 -158 -54h-251v545h135v-167h111zM592 545h140v-545h-140v545zM301 115q48 0 70 21t22 54q0 30 -21.5 51t-66.5 21h-107v-147h103z" />
    <glyph glyph-name="uni044C" unicode="&#x44c;" horiz-adv-x="575" 
d="M316 444q99 0 164 -64q66 -63 66 -162q0 -96 -62 -164q-61 -67 -187 -67q-72 0 -122 25t-75 67q-24 42 -34 84t-10 90v292h139v-133q56 32 121 32zM300 109q52 0 79 30t27 78t-28 76.5t-82 28.5q-52 0 -101 -24v-63q0 -126 105 -126z" />
    <glyph glyph-name="uni044D" unicode="&#x44d;" horiz-adv-x="603" 
d="M280 559q127 0 207 -81q81 -80 81 -205t-80 -205t-205 -80q-88 0 -156 39t-103 105l111 66q18 -36 58.5 -60.5t85.5 -24.5q51 0 90.5 30t54.5 79h-195v102h195q-16 48 -56.5 78t-91.5 30q-45 0 -82.5 -23.5t-60.5 -61.5l-111 60q18 37 44.5 65.5t60 47.5t72.5 29t81 10z
" />
    <glyph glyph-name="uni044E" unicode="&#x44e;" horiz-adv-x="881" 
d="M554 560q127 0 210 -84q82 -82 82 -203q0 -122 -82 -204q-83 -83 -210 -83q-111 0 -189 63q-78 66 -97 164h-65v-213h-139v760h139v-432h64q18 102 96 166q79 66 191 66zM446 162q43 -45 108 -45q63 0 107 45q44 47 44 111t-44 110q-44 45 -107 45q-65 0 -108 -45
q-43 -44 -43 -110q0 -65 43 -111z" />
    <glyph glyph-name="uni044F" unicode="&#x44f;" horiz-adv-x="580" 
d="M516 545v-545h-137v180q-20 -2 -42.5 -4t-48.5 -3l-111 -173h-154l133 193q-106 45 -106 166q0 83 60.5 134.5t180.5 51.5h225zM292 285q23 0 44.5 1.5t42.5 5.5v139h-84q-105 0 -105 -74q0 -72 102 -72z" />
    <glyph glyph-name="uni0451" unicode="&#x451;" horiz-adv-x="626" 
d="M136 682q0 17 6.5 32t18 26t26.5 17.5t33 6.5t33 -6.5t26.5 -17.5t18 -26t6.5 -32q0 -37 -24 -61t-60 -24t-60 24t-24 61zM438 597q-36 0 -60.5 24t-24.5 61q0 35 24.5 58.5t60.5 23.5q35 0 59 -24t24 -58q0 -37 -24 -61t-59 -24zM593 285q0 -14 -1.5 -29.5t-3.5 -32.5
h-409q30 -116 159 -116q44 0 92.5 15.5t83.5 39.5l56 -99q-104 -75 -238 -75q-143 0 -220 83q-76 82 -76 202q0 125 79 205q79 81 205 81q119 0 196 -74t77 -200zM320 442q-54 0 -91 -30t-50 -84h277q-10 54 -46 84t-90 30z" />
    <glyph glyph-name="Wgrave" unicode="&#x1e80;" horiz-adv-x="1065" 
d="M603 795h-133l-97 183h165zM251 0l-245 739h162l149 -497l168 497h94l171 -497l147 497h162l-244 -739h-125l-157 484l-157 -484h-125z" />
    <glyph glyph-name="wgrave" unicode="&#x1e81;" horiz-adv-x="877" 
d="M509 626h-125l-94 176h157zM194 1l-186 544h148l109 -357l123 357h99l127 -357l106 357h148l-184 -544h-123l-123 341l-121 -341h-123z" />
    <glyph glyph-name="Wacute" unicode="&#x1e82;" horiz-adv-x="1065" 
d="M474 794l65 183h163l-98 -183h-130zM251 0l-245 739h162l149 -497l168 497h94l171 -497l147 497h162l-244 -739h-125l-157 484l-157 -484h-125z" />
    <glyph glyph-name="wacute" unicode="&#x1e83;" horiz-adv-x="877" 
d="M379 626l62 176h157l-94 -176h-125zM194 1l-186 544h148l109 -357l123 357h99l127 -357l106 357h148l-184 -544h-123l-123 341l-121 -341h-123z" />
    <glyph glyph-name="Wdieresis" unicode="&#x1e84;" horiz-adv-x="1065" 
d="M343 880q0 34 24 57.5t59 23.5t59 -23.5t24 -57.5q0 -36 -24 -60t-59 -24t-59 24t-24 60zM640 796q-36 0 -59.5 24t-23.5 60q0 34 24 57.5t59 23.5q34 0 58 -23.5t24 -57.5q0 -36 -24 -60t-58 -24zM251 0l-245 739h162l149 -497l168 497h94l171 -497l147 497h162
l-244 -739h-125l-157 484l-157 -484h-125z" />
    <glyph glyph-name="wdieresis" unicode="&#x1e85;" horiz-adv-x="877" 
d="M246 701q0 17 6.5 32t18 26t26.5 17.5t33 6.5t33 -6.5t26.5 -17.5t18 -26t6.5 -32q0 -37 -24 -61t-60 -24t-60 24t-24 61zM548 616q-36 0 -60.5 24t-24.5 61q0 35 24.5 58.5t60.5 23.5q35 0 59 -24t24 -58q0 -37 -24 -61t-59 -24zM194 1l-186 544h148l109 -357l123 357
h99l127 -357l106 357h148l-184 -544h-123l-123 341l-121 -341h-123z" />
    <glyph glyph-name="uni1EA0" unicode="&#x1ea0;" horiz-adv-x="696" 
d="M532 0l-55 160h-258l-57 -160h-155l282 739h121l278 -739h-156zM349 538l-88 -246h174zM410 -216q-12 -12 -28.5 -18.5t-33.5 -6.5t-33.5 6.5t-28.5 18.5t-18.5 28.5t-6.5 33.5t6.5 33t18.5 28t28.5 18.5t33.5 6.5t33.5 -6.5t28.5 -18.5t18.5 -28t6.5 -33t-6.5 -33.5
t-18.5 -28.5z" />
    <glyph glyph-name="uni1EA1" unicode="&#x1ea1;" horiz-adv-x="676" 
d="M479 545h134v-545h-134v63q-70 -76 -174 -76q-118 0 -194 82t-76 206q0 123 77 203q76 81 193 81q102 0 174 -79v65zM481 273q0 64 -44 111q-43 46 -109 46q-67 0 -110 -46q-42 -47 -42 -111q0 -66 43 -112t109 -46t109 46q44 47 44 112zM400 -216q-12 -12 -28.5 -18.5
t-33.5 -6.5t-33.5 6.5t-28.5 18.5t-18.5 28.5t-6.5 33.5t6.5 33t18.5 28t28.5 18.5t33.5 6.5t33.5 -6.5t28.5 -18.5t18.5 -28t6.5 -33t-6.5 -33.5t-18.5 -28.5z" />
    <glyph glyph-name="uni1EA2" unicode="&#x1ea2;" horiz-adv-x="696" 
d="M532 0l-55 160h-258l-57 -160h-155l282 739h121l278 -739h-156zM349 538l-88 -246h174zM307 794v19q0 6 1 15.5t4.5 20.5t11.5 23.5t23 24.5q12 9 21 19t9 19q0 8 -7 13t-17 5q-9 0 -24.5 -9t-38.5 -35l-70 68q32 38 66.5 55.5t66.5 17.5q24 0 46 -8t39.5 -23t27.5 -36.5
t10 -47.5t-15.5 -51t-41.5 -50q-6 -4 -9 -6.5t-5 -6.5t-2.5 -10.5t-0.5 -16.5h-95z" />
    <glyph glyph-name="uni1EA3" unicode="&#x1ea3;" horiz-adv-x="676" 
d="M479 545h134v-545h-134v63q-70 -76 -174 -76q-118 0 -194 82t-76 206q0 123 77 203q76 81 193 81q102 0 174 -79v65zM481 273q0 64 -44 111q-43 46 -109 46q-67 0 -110 -46q-42 -47 -42 -111q0 -66 43 -112t109 -46t109 46q44 47 44 112zM297 624v19q0 6 1 15.5t4.5 20.5
t11.5 23.5t23 24.5q12 9 21 19t9 19q0 8 -7 13t-17 5q-9 0 -24.5 -9t-38.5 -35l-70 68q32 38 66.5 55.5t66.5 17.5q24 0 46 -8t39.5 -23t27.5 -36.5t10 -47.5t-15.5 -51t-41.5 -50q-6 -4 -9 -6.5t-5 -6.5t-2.5 -10.5t-0.5 -16.5h-95z" />
    <glyph glyph-name="uni1EA4" unicode="&#x1ea4;" horiz-adv-x="696" 
d="M348 883l-68 -89h-139l154 183h109l155 -183h-144zM532 0l-55 160h-258l-57 -160h-155l282 739h121l278 -739h-156zM349 538l-88 -246h174zM517 925l65 183h163l-98 -183h-130z" />
    <glyph glyph-name="uni1EA5" unicode="&#x1ea5;" horiz-adv-x="678" 
d="M336 712l-65 -86h-134l148 176h105l149 -176h-138zM479 545h134v-545h-134v63q-70 -76 -174 -76q-118 0 -194 82t-76 206q0 123 77 203q76 81 193 81q102 0 174 -79v65zM481 273q0 64 -44 111q-43 46 -109 46q-67 0 -110 -46q-42 -47 -42 -111q0 -66 43 -112t109 -46
t109 46q44 47 44 112zM498 750l62 176h157l-94 -176h-125z" />
    <glyph glyph-name="uni1EA6" unicode="&#x1ea6;" horiz-adv-x="696" 
d="M348 883l-68 -89h-139l154 183h109l155 -183h-144zM532 0l-55 160h-258l-57 -160h-155l282 739h121l278 -739h-156zM349 538l-88 -246h174zM667 925h-133l-97 183h165z" />
    <glyph glyph-name="uni1EA7" unicode="&#x1ea7;" horiz-adv-x="678" 
d="M336 712l-65 -86h-134l148 176h105l149 -176h-138zM479 545h134v-545h-134v63q-70 -76 -174 -76q-118 0 -194 82t-76 206q0 123 77 203q76 81 193 81q102 0 174 -79v65zM481 273q0 64 -44 111q-43 46 -109 46q-67 0 -110 -46q-42 -47 -42 -111q0 -66 43 -112t109 -46
t109 46q44 47 44 112zM652 750h-125l-94 176h157z" />
    <glyph glyph-name="uni1EA8" unicode="&#x1ea8;" horiz-adv-x="696" 
d="M348 883l-68 -89h-139l154 183h109l155 -183h-144zM532 0l-55 160h-258l-57 -160h-155l282 739h121l278 -739h-156zM349 538l-88 -246h174zM524 910v19q0 6 1 15.5t4.5 20.5t11.5 23.5t23 24.5q12 9 21 19t9 19q0 8 -7 13t-17 5q-9 0 -24.5 -9t-38.5 -35l-70 68
q32 38 66.5 55.5t66.5 17.5q24 0 46 -8t39.5 -23t27.5 -36.5t10 -47.5t-15.5 -51t-41.5 -50q-6 -4 -9 -6.5t-5 -6.5t-2.5 -10.5t-0.5 -16.5h-95z" />
    <glyph glyph-name="uni1EA9" unicode="&#x1ea9;" horiz-adv-x="678" 
d="M336 712l-65 -86h-134l148 176h105l149 -176h-138zM479 545h134v-545h-134v63q-70 -76 -174 -76q-118 0 -194 82t-76 206q0 123 77 203q76 81 193 81q102 0 174 -79v65zM481 273q0 64 -44 111q-43 46 -109 46q-67 0 -110 -46q-42 -47 -42 -111q0 -66 43 -112t109 -46
t109 46q44 47 44 112zM512 760v19q0 6 1 15.5t4.5 20.5t11.5 23.5t23 24.5q12 9 21 19t9 19q0 8 -7 13t-17 5q-9 0 -24.5 -9t-38.5 -35l-70 68q32 38 66.5 55.5t66.5 17.5q24 0 46 -8t39.5 -23t27.5 -36.5t10 -47.5t-15.5 -51t-41.5 -50q-6 -4 -9 -6.5t-5 -6.5t-2.5 -10.5
t-0.5 -16.5h-95z" />
    <glyph glyph-name="uni1EAA" unicode="&#x1eaa;" horiz-adv-x="696" 
d="M348 883l-68 -89h-139l154 183h109l155 -183h-144zM532 0l-55 160h-258l-57 -160h-155l282 739h121l278 -739h-156zM349 538l-88 -246h174zM130 1056q49 118 147 118q35 0 78 -22t59 -22q35 0 61 48l91 -43q-21 -57 -57 -87.5t-81 -30.5q-31 0 -77 23t-64 23
q-40 0 -65 -52z" />
    <glyph glyph-name="uni1EAB" unicode="&#x1eab;" horiz-adv-x="678" 
d="M336 712l-65 -86h-134l148 176h105l149 -176h-138zM479 545h134v-545h-134v63q-70 -76 -174 -76q-118 0 -194 82t-76 206q0 123 77 203q76 81 193 81q102 0 174 -79v65zM481 273q0 64 -44 111q-43 46 -109 46q-67 0 -110 -46q-42 -47 -42 -111q0 -66 43 -112t109 -46
t109 46q44 47 44 112zM126 873q49 115 144 115q34 0 75 -22q43 -21 59 -21q33 0 59 47l89 -42q-20 -55 -55 -85t-80 -30q-32 0 -75 22q-44 23 -62 23q-39 0 -64 -51z" />
    <glyph glyph-name="uni1EAC" unicode="&#x1eac;" horiz-adv-x="696" 
d="M410 -216q-12 -12 -28.5 -18.5t-33.5 -6.5t-33.5 6.5t-28.5 18.5t-18.5 28.5t-6.5 33.5t6.5 33t18.5 28t28.5 18.5t33.5 6.5t33.5 -6.5t28.5 -18.5t18.5 -28t6.5 -33t-6.5 -33.5t-18.5 -28.5zM348 883l-68 -89h-139l154 183h109l155 -183h-144zM532 0l-55 160h-258
l-57 -160h-155l282 739h121l278 -739h-156zM349 538l-88 -246h174z" />
    <glyph glyph-name="uni1EAD" unicode="&#x1ead;" horiz-adv-x="676" 
d="M400 -216q-12 -12 -28.5 -18.5t-33.5 -6.5t-33.5 6.5t-28.5 18.5t-18.5 28.5t-6.5 33.5t6.5 33t18.5 28t28.5 18.5t33.5 6.5t33.5 -6.5t28.5 -18.5t18.5 -28t6.5 -33t-6.5 -33.5t-18.5 -28.5zM336 712l-65 -86h-134l148 176h105l149 -176h-138zM479 545h134v-545h-134v63
q-70 -76 -174 -76q-118 0 -194 82t-76 206q0 123 77 203q76 81 193 81q102 0 174 -79v65zM481 273q0 64 -44 111q-43 46 -109 46q-67 0 -110 -46q-42 -47 -42 -111q0 -66 43 -112t109 -46t109 46q44 47 44 112z" />
    <glyph glyph-name="uni1EAE" unicode="&#x1eae;" horiz-adv-x="696" 
d="M279 955q2 -35 19.5 -55.5t49.5 -20.5q31 0 48 20.5t19 55.5h101q-5 -75 -49.5 -118t-118.5 -43q-75 0 -119 43t-49 118h99zM532 0l-55 160h-258l-57 -160h-155l282 739h121l278 -739h-156zM349 538l-88 -246h174zM281 995l65 183h163l-98 -183h-130z" />
    <glyph glyph-name="uni1EAF" unicode="&#x1eaf;" horiz-adv-x="678" 
d="M479 545h134v-545h-134v63q-70 -76 -174 -76q-118 0 -194 82t-76 206q0 123 77 203q76 81 193 81q102 0 174 -79v65zM481 273q0 64 -44 111q-43 46 -109 46q-67 0 -110 -46q-42 -47 -42 -111q0 -66 43 -112t109 -46t109 46q44 47 44 112zM268 782q2 -35 19.5 -55.5
t49.5 -20.5q31 0 48 20.5t19 55.5h101q-5 -75 -49.5 -118t-118.5 -43q-75 0 -119 43t-49 118h99zM261 820l62 176h157l-94 -176h-125z" />
    <glyph glyph-name="uni1EB0" unicode="&#x1eb0;" horiz-adv-x="696" 
d="M279 955q2 -35 19.5 -55.5t49.5 -20.5q31 0 48 20.5t19 55.5h101q-5 -75 -49.5 -118t-118.5 -43q-75 0 -119 43t-49 118h99zM532 0l-55 160h-258l-57 -160h-155l282 739h121l278 -739h-156zM349 538l-88 -246h174zM442 995h-133l-97 183h165z" />
    <glyph glyph-name="uni1EB1" unicode="&#x1eb1;" horiz-adv-x="678" 
d="M479 545h134v-545h-134v63q-70 -76 -174 -76q-118 0 -194 82t-76 206q0 123 77 203q76 81 193 81q102 0 174 -79v65zM481 273q0 64 -44 111q-43 46 -109 46q-67 0 -110 -46q-42 -47 -42 -111q0 -66 43 -112t109 -46t109 46q44 47 44 112zM268 782q2 -35 19.5 -55.5
t49.5 -20.5q31 0 48 20.5t19 55.5h101q-5 -75 -49.5 -118t-118.5 -43q-75 0 -119 43t-49 118h99zM417 820h-125l-94 176h157z" />
    <glyph glyph-name="uni1EB2" unicode="&#x1eb2;" horiz-adv-x="696" 
d="M279 955q2 -35 19.5 -55.5t49.5 -20.5q31 0 48 20.5t19 55.5h101q-5 -75 -49.5 -118t-118.5 -43q-75 0 -119 43t-49 118h99zM532 0l-55 160h-258l-57 -160h-155l282 739h121l278 -739h-156zM349 538l-88 -246h174zM307 980v19q0 6 1 15.5t4.5 20.5t11.5 23.5t23 24.5
q12 9 21 19t9 19q0 8 -7 13t-17 5q-9 0 -24.5 -9t-38.5 -35l-70 68q32 38 66.5 55.5t66.5 17.5q24 0 46 -8t39.5 -23t27.5 -36.5t10 -47.5t-15.5 -51t-41.5 -50q-6 -4 -9 -6.5t-5 -6.5t-2.5 -10.5t-0.5 -16.5h-95z" />
    <glyph glyph-name="uni1EB3" unicode="&#x1eb3;" horiz-adv-x="678" 
d="M479 545h134v-545h-134v63q-70 -76 -174 -76q-118 0 -194 82t-76 206q0 123 77 203q76 81 193 81q102 0 174 -79v65zM481 273q0 64 -44 111q-43 46 -109 46q-67 0 -110 -46q-42 -47 -42 -111q0 -66 43 -112t109 -46t109 46q44 47 44 112zM268 782q2 -35 19.5 -55.5
t49.5 -20.5q31 0 48 20.5t19 55.5h101q-5 -75 -49.5 -118t-118.5 -43q-75 0 -119 43t-49 118h99zM293 810v19q0 6 1 15.5t4.5 20.5t11.5 23.5t23 24.5q12 9 21 19t9 19q0 8 -7 13t-17 5q-9 0 -24.5 -9t-38.5 -35l-70 68q32 38 66.5 55.5t66.5 17.5q24 0 46 -8t39.5 -23
t27.5 -36.5t10 -47.5t-15.5 -51t-41.5 -50q-6 -4 -9 -6.5t-5 -6.5t-2.5 -10.5t-0.5 -16.5h-95z" />
    <glyph glyph-name="uni1EB4" unicode="&#x1eb4;" horiz-adv-x="696" 
d="M279 955q2 -35 19.5 -55.5t49.5 -20.5q31 0 48 20.5t19 55.5h101q-5 -75 -49.5 -118t-118.5 -43q-75 0 -119 43t-49 118h99zM532 0l-55 160h-258l-57 -160h-155l282 739h121l278 -739h-156zM349 538l-88 -246h174zM130 1056q49 118 147 118q35 0 78 -22t59 -22
q35 0 61 48l91 -43q-21 -57 -57 -87.5t-81 -30.5q-31 0 -77 23t-64 23q-40 0 -65 -52z" />
    <glyph glyph-name="uni1EB5" unicode="&#x1eb5;" horiz-adv-x="678" 
d="M479 545h134v-545h-134v63q-70 -76 -174 -76q-118 0 -194 82t-76 206q0 123 77 203q76 81 193 81q102 0 174 -79v65zM481 273q0 64 -44 111q-43 46 -109 46q-67 0 -110 -46q-42 -47 -42 -111q0 -66 43 -112t109 -46t109 46q44 47 44 112zM268 782q2 -35 19.5 -55.5
t49.5 -20.5q31 0 48 20.5t19 55.5h101q-5 -75 -49.5 -118t-118.5 -43q-75 0 -119 43t-49 118h99zM126 873q49 115 144 115q34 0 75 -22q43 -21 59 -21q33 0 59 47l89 -42q-20 -55 -55 -85t-80 -30q-32 0 -75 22q-44 23 -62 23q-39 0 -64 -51z" />
    <glyph glyph-name="uni1EB6" unicode="&#x1eb6;" horiz-adv-x="696" 
d="M410 -216q-12 -12 -28.5 -18.5t-33.5 -6.5t-33.5 6.5t-28.5 18.5t-18.5 28.5t-6.5 33.5t6.5 33t18.5 28t28.5 18.5t33.5 6.5t33.5 -6.5t28.5 -18.5t18.5 -28t6.5 -33t-6.5 -33.5t-18.5 -28.5zM279 955q2 -35 19.5 -55.5t49.5 -20.5q31 0 48 20.5t19 55.5h101
q-5 -75 -49.5 -118t-118.5 -43q-75 0 -119 43t-49 118h99zM532 0l-55 160h-258l-57 -160h-155l282 739h121l278 -739h-156zM349 538l-88 -246h174z" />
    <glyph glyph-name="uni1EB7" unicode="&#x1eb7;" horiz-adv-x="676" 
d="M400 -216q-12 -12 -28.5 -18.5t-33.5 -6.5t-33.5 6.5t-28.5 18.5t-18.5 28.5t-6.5 33.5t6.5 33t18.5 28t28.5 18.5t33.5 6.5t33.5 -6.5t28.5 -18.5t18.5 -28t6.5 -33t-6.5 -33.5t-18.5 -28.5zM479 545h134v-545h-134v63q-70 -76 -174 -76q-118 0 -194 82t-76 206
q0 123 77 203q76 81 193 81q102 0 174 -79v65zM481 273q0 64 -44 111q-43 46 -109 46q-67 0 -110 -46q-42 -47 -42 -111q0 -66 43 -112t109 -46t109 46q44 47 44 112zM268 782q2 -35 19.5 -55.5t49.5 -20.5q31 0 48 20.5t19 55.5h101q-5 -75 -49.5 -118t-118.5 -43
q-75 0 -119 43t-49 118h99z" />
    <glyph glyph-name="uni1EB8" unicode="&#x1eb8;" horiz-adv-x="637" 
d="M82 0v739h501v-138h-352v-159h326v-138h-326v-166h352v-138h-501zM380 -216q-12 -12 -28.5 -18.5t-33.5 -6.5t-33.5 6.5t-28.5 18.5t-18.5 28.5t-6.5 33.5t6.5 33t18.5 28t28.5 18.5t33.5 6.5t33.5 -6.5t28.5 -18.5t18.5 -28t6.5 -33t-6.5 -33.5t-18.5 -28.5z" />
    <glyph glyph-name="uni1EB9" unicode="&#x1eb9;" horiz-adv-x="626" 
d="M593 285q0 -14 -1.5 -29.5t-3.5 -32.5h-409q30 -116 159 -116q44 0 92.5 15.5t83.5 39.5l56 -99q-104 -75 -238 -75q-143 0 -220 83q-76 82 -76 202q0 125 79 205q79 81 205 81q119 0 196 -74t77 -200zM320 442q-54 0 -91 -30t-50 -84h277q-10 54 -46 84t-90 30z
M375 -216q-12 -12 -28.5 -18.5t-33.5 -6.5t-33.5 6.5t-28.5 18.5t-18.5 28.5t-6.5 33.5t6.5 33t18.5 28t28.5 18.5t33.5 6.5t33.5 -6.5t28.5 -18.5t18.5 -28t6.5 -33t-6.5 -33.5t-18.5 -28.5z" />
    <glyph glyph-name="uni1EBA" unicode="&#x1eba;" horiz-adv-x="637" 
d="M82 0v739h501v-138h-352v-159h326v-138h-326v-166h352v-138h-501zM277 794v19q0 6 1 15.5t4.5 20.5t11.5 23.5t23 24.5q12 9 21 19t9 19q0 8 -7 13t-17 5q-9 0 -24.5 -9t-38.5 -35l-70 68q32 38 66.5 55.5t66.5 17.5q24 0 46 -8t39.5 -23t27.5 -36.5t10 -47.5t-15.5 -51
t-41.5 -50q-6 -4 -9 -6.5t-5 -6.5t-2.5 -10.5t-0.5 -16.5h-95z" />
    <glyph glyph-name="uni1EBB" unicode="&#x1ebb;" horiz-adv-x="626" 
d="M593 285q0 -14 -1.5 -29.5t-3.5 -32.5h-409q30 -116 159 -116q44 0 92.5 15.5t83.5 39.5l56 -99q-104 -75 -238 -75q-143 0 -220 83q-76 82 -76 202q0 125 79 205q79 81 205 81q119 0 196 -74t77 -200zM320 442q-54 0 -91 -30t-50 -84h277q-10 54 -46 84t-90 30zM272 624
v19q0 6 1 15.5t4.5 20.5t11.5 23.5t23 24.5q12 9 21 19t9 19q0 8 -7 13t-17 5q-9 0 -24.5 -9t-38.5 -35l-70 68q32 38 66.5 55.5t66.5 17.5q24 0 46 -8t39.5 -23t27.5 -36.5t10 -47.5t-15.5 -51t-41.5 -50q-6 -4 -9 -6.5t-5 -6.5t-2.5 -10.5t-0.5 -16.5h-95z" />
    <glyph glyph-name="uni1EBC" unicode="&#x1ebc;" horiz-adv-x="637" 
d="M82 0v739h501v-138h-352v-159h326v-138h-326v-166h352v-138h-501zM100 835q49 118 147 118q35 0 78 -22t59 -22q35 0 61 48l91 -43q-21 -57 -57 -87.5t-81 -30.5q-31 0 -77 23t-64 23q-40 0 -65 -52z" />
    <glyph glyph-name="uni1EBD" unicode="&#x1ebd;" horiz-adv-x="626" 
d="M593 285q0 -14 -1.5 -29.5t-3.5 -32.5h-409q30 -116 159 -116q44 0 92.5 15.5t83.5 39.5l56 -99q-104 -75 -238 -75q-143 0 -220 83q-76 82 -76 202q0 125 79 205q79 81 205 81q119 0 196 -74t77 -200zM320 442q-54 0 -91 -30t-50 -84h277q-10 54 -46 84t-90 30zM100 666
q49 115 144 115q34 0 75 -22q43 -21 59 -21q33 0 59 47l89 -42q-20 -55 -55 -85t-80 -30q-32 0 -75 22q-44 23 -62 23q-39 0 -64 -51z" />
    <glyph glyph-name="uni1EBE" unicode="&#x1ebe;" horiz-adv-x="637" 
d="M124 794l154 183h109l155 -183h-144l-67 89l-68 -89h-139zM82 0v739h501v-138h-352v-159h326v-138h-326v-166h352v-138h-501zM500 925l65 183h163l-98 -183h-130z" />
    <glyph glyph-name="uni1EBF" unicode="&#x1ebf;" horiz-adv-x="626" 
d="M320 715l-65 -86h-134l148 176h105l149 -176h-138zM593 285q0 -14 -1.5 -29.5t-3.5 -32.5h-409q30 -116 159 -116q44 0 92.5 15.5t83.5 39.5l56 -99q-104 -75 -238 -75q-143 0 -220 83q-76 82 -76 202q0 125 79 205q79 81 205 81q119 0 196 -74t77 -200zM320 442
q-54 0 -91 -30t-50 -84h277q-10 54 -46 84t-90 30zM490 750l62 176h157l-94 -176h-125z" />
    <glyph glyph-name="uni1EC0" unicode="&#x1ec0;" horiz-adv-x="637" 
d="M124 794l154 183h109l155 -183h-144l-67 89l-68 -89h-139zM82 0v739h501v-138h-352v-159h326v-138h-326v-166h352v-138h-501zM650 925h-133l-97 183h165z" />
    <glyph glyph-name="uni1EC1" unicode="&#x1ec1;" horiz-adv-x="626" 
d="M320 715l-65 -86h-134l148 176h105l149 -176h-138zM593 285q0 -14 -1.5 -29.5t-3.5 -32.5h-409q30 -116 159 -116q44 0 92.5 15.5t83.5 39.5l56 -99q-104 -75 -238 -75q-143 0 -220 83q-76 82 -76 202q0 125 79 205q79 81 205 81q119 0 196 -74t77 -200zM320 442
q-54 0 -91 -30t-50 -84h277q-10 54 -46 84t-90 30zM630 750h-125l-94 176h157z" />
    <glyph glyph-name="uni1EC2" unicode="&#x1ec2;" horiz-adv-x="637" 
d="M124 794l154 183h109l155 -183h-144l-67 89l-68 -89h-139zM82 0v739h501v-138h-352v-159h326v-138h-326v-166h352v-138h-501zM524 910v19q0 6 1 15.5t4.5 20.5t11.5 23.5t23 24.5q12 9 21 19t9 19q0 8 -7 13t-17 5q-9 0 -24.5 -9t-38.5 -35l-70 68q32 38 66.5 55.5
t66.5 17.5q24 0 46 -8t39.5 -23t27.5 -36.5t10 -47.5t-15.5 -51t-41.5 -50q-6 -4 -9 -6.5t-5 -6.5t-2.5 -10.5t-0.5 -16.5h-95z" />
    <glyph glyph-name="uni1EC3" unicode="&#x1ec3;" horiz-adv-x="626" 
d="M320 715l-65 -86h-134l148 176h105l149 -176h-138zM593 285q0 -14 -1.5 -29.5t-3.5 -32.5h-409q30 -116 159 -116q44 0 92.5 15.5t83.5 39.5l56 -99q-104 -75 -238 -75q-143 0 -220 83q-76 82 -76 202q0 125 79 205q79 81 205 81q119 0 196 -74t77 -200zM320 442
q-54 0 -91 -30t-50 -84h277q-10 54 -46 84t-90 30zM483 760v19q0 6 1 15.5t4.5 20.5t11.5 23.5t23 24.5q12 9 21 19t9 19q0 8 -7 13t-17 5q-9 0 -24.5 -9t-38.5 -35l-70 68q32 38 66.5 55.5t66.5 17.5q24 0 46 -8t39.5 -23t27.5 -36.5t10 -47.5t-15.5 -51t-41.5 -50
q-6 -4 -9 -6.5t-5 -6.5t-2.5 -10.5t-0.5 -16.5h-95z" />
    <glyph glyph-name="uni1EC4" unicode="&#x1ec4;" horiz-adv-x="637" 
d="M124 794l154 183h109l155 -183h-144l-67 89l-68 -89h-139zM82 0v739h501v-138h-352v-159h326v-138h-326v-166h352v-138h-501zM114 1056q49 118 147 118q35 0 78 -22t59 -22q35 0 61 48l91 -43q-21 -57 -57 -87.5t-81 -30.5q-31 0 -77 23t-64 23q-40 0 -65 -52z" />
    <glyph glyph-name="uni1EC5" unicode="&#x1ec5;" horiz-adv-x="626" 
d="M320 715l-65 -86h-134l148 176h105l149 -176h-138zM593 285q0 -14 -1.5 -29.5t-3.5 -32.5h-409q30 -116 159 -116q44 0 92.5 15.5t83.5 39.5l56 -99q-104 -75 -238 -75q-143 0 -220 83q-76 82 -76 202q0 125 79 205q79 81 205 81q119 0 196 -74t77 -200zM320 442
q-54 0 -91 -30t-50 -84h277q-10 54 -46 84t-90 30zM104 873q49 115 144 115q34 0 75 -22q43 -21 59 -21q33 0 59 47l89 -42q-20 -55 -55 -85t-80 -30q-32 0 -75 22q-44 23 -62 23q-39 0 -64 -51z" />
    <glyph glyph-name="uni1EC6" unicode="&#x1ec6;" horiz-adv-x="637" 
d="M380 -216q-12 -12 -28.5 -18.5t-33.5 -6.5t-33.5 6.5t-28.5 18.5t-18.5 28.5t-6.5 33.5t6.5 33t18.5 28t28.5 18.5t33.5 6.5t33.5 -6.5t28.5 -18.5t18.5 -28t6.5 -33t-6.5 -33.5t-18.5 -28.5zM124 794l154 183h109l155 -183h-144l-67 89l-68 -89h-139zM82 0v739h501v-138
h-352v-159h326v-138h-326v-166h352v-138h-501z" />
    <glyph glyph-name="uni1EC7" unicode="&#x1ec7;" horiz-adv-x="626" 
d="M375 -216q-12 -12 -28.5 -18.5t-33.5 -6.5t-33.5 6.5t-28.5 18.5t-18.5 28.5t-6.5 33.5t6.5 33t18.5 28t28.5 18.5t33.5 6.5t33.5 -6.5t28.5 -18.5t18.5 -28t6.5 -33t-6.5 -33.5t-18.5 -28.5zM320 715l-65 -86h-134l148 176h105l149 -176h-138zM593 285q0 -14 -1.5 -29.5
t-3.5 -32.5h-409q30 -116 159 -116q44 0 92.5 15.5t83.5 39.5l56 -99q-104 -75 -238 -75q-143 0 -220 83q-76 82 -76 202q0 125 79 205q79 81 205 81q119 0 196 -74t77 -200zM320 442q-54 0 -91 -30t-50 -84h277q-10 54 -46 84t-90 30z" />
    <glyph glyph-name="uni1EC8" unicode="&#x1ec8;" horiz-adv-x="313" 
d="M82 739h149v-739h-149v739zM115 794v19q0 6 1 15.5t4.5 20.5t11.5 23.5t23 24.5q12 9 21 19t9 19q0 8 -7 13t-17 5q-9 0 -24.5 -9t-38.5 -35l-70 68q32 38 66.5 55.5t66.5 17.5q24 0 46 -8t39.5 -23t27.5 -36.5t10 -47.5t-15.5 -51t-41.5 -50q-6 -4 -9 -6.5t-5 -6.5
t-2.5 -10.5t-0.5 -16.5h-95z" />
    <glyph glyph-name="uni1EC9" unicode="&#x1ec9;" horiz-adv-x="269" 
d="M205 0h-141v545h141v-545zM93 624v19q0 6 1 15.5t4.5 20.5t11.5 23.5t23 24.5q12 9 21 19t9 19q0 8 -7 13t-17 5q-9 0 -24.5 -9t-38.5 -35l-70 68q32 38 66.5 55.5t66.5 17.5q24 0 46 -8t39.5 -23t27.5 -36.5t10 -47.5t-15.5 -51t-41.5 -50q-6 -4 -9 -6.5t-5 -6.5
t-2.5 -10.5t-0.5 -16.5h-95z" />
    <glyph glyph-name="uni1ECA" unicode="&#x1eca;" horiz-adv-x="313" 
d="M82 739h149v-739h-149v739zM218 -216q-12 -12 -28.5 -18.5t-33.5 -6.5t-33.5 6.5t-28.5 18.5t-18.5 28.5t-6.5 33.5t6.5 33t18.5 28t28.5 18.5t33.5 6.5t33.5 -6.5t28.5 -18.5t18.5 -28t6.5 -33t-6.5 -33.5t-18.5 -28.5z" />
    <glyph glyph-name="uni1ECB" unicode="&#x1ecb;" horiz-adv-x="269" 
d="M199 631q-12 -12 -28.5 -18.5t-33.5 -6.5t-33.5 6.5t-28.5 18.5t-18.5 28.5t-6.5 33.5t6.5 33t18.5 28t28.5 18.5t33.5 6.5t33.5 -6.5t28.5 -18.5t18.5 -28t6.5 -33t-6.5 -33.5t-18.5 -28.5zM207 0h-141v545h141v-545zM196 -216q-12 -12 -28.5 -18.5t-33.5 -6.5
t-33.5 6.5t-28.5 18.5t-18.5 28.5t-6.5 33.5t6.5 33t18.5 28t28.5 18.5t33.5 6.5t33.5 -6.5t28.5 -18.5t18.5 -28t6.5 -33t-6.5 -33.5t-18.5 -28.5z" />
    <glyph glyph-name="uni1ECC" unicode="&#x1ecc;" horiz-adv-x="848" 
d="M423 -12q-165 0 -274 109q-110 110 -110 270t111 273q112 112 274 112t273 -112q112 -112 112 -271t-112 -270q-111 -111 -274 -111zM655 369q0 102 -67 169q-68 68 -164 68t-164 -68q-67 -67 -67 -169q0 -101 66 -168q67 -67 165 -67t165 67t66 168zM486 -216
q-12 -12 -28.5 -18.5t-33.5 -6.5t-33.5 6.5t-28.5 18.5t-18.5 28.5t-6.5 33.5t6.5 33t18.5 28t28.5 18.5t33.5 6.5t33.5 -6.5t28.5 -18.5t18.5 -28t6.5 -33t-6.5 -33.5t-18.5 -28.5z" />
    <glyph glyph-name="uni1ECD" unicode="&#x1ecd;" 
d="M35 273q0 121 82 203q82 84 210 84q127 0 210 -84q82 -82 82 -203q0 -122 -82 -204q-83 -83 -210 -83t-210 83q-82 82 -82 204zM219 162q43 -45 108 -45q63 0 107 45q44 47 44 111t-44 110q-44 45 -107 45q-65 0 -108 -45q-43 -44 -43 -110q0 -65 43 -111zM389 -216
q-12 -12 -28.5 -18.5t-33.5 -6.5t-33.5 6.5t-28.5 18.5t-18.5 28.5t-6.5 33.5t6.5 33t18.5 28t28.5 18.5t33.5 6.5t33.5 -6.5t28.5 -18.5t18.5 -28t6.5 -33t-6.5 -33.5t-18.5 -28.5z" />
    <glyph glyph-name="uni1ECE" unicode="&#x1ece;" horiz-adv-x="848" 
d="M423 -12q-165 0 -274 109q-110 110 -110 270t111 273q112 112 274 112t273 -112q112 -112 112 -271t-112 -270q-111 -111 -274 -111zM655 369q0 102 -67 169q-68 68 -164 68t-164 -68q-67 -67 -67 -169q0 -101 66 -168q67 -67 165 -67t165 67t66 168zM383 794v19
q0 6 1 15.5t4.5 20.5t11.5 23.5t23 24.5q12 9 21 19t9 19q0 8 -7 13t-17 5q-9 0 -24.5 -9t-38.5 -35l-70 68q32 38 66.5 55.5t66.5 17.5q24 0 46 -8t39.5 -23t27.5 -36.5t10 -47.5t-15.5 -51t-41.5 -50q-6 -4 -9 -6.5t-5 -6.5t-2.5 -10.5t-0.5 -16.5h-95z" />
    <glyph glyph-name="uni1ECF" unicode="&#x1ecf;" 
d="M35 273q0 121 82 203q82 84 210 84q127 0 210 -84q82 -82 82 -203q0 -122 -82 -204q-83 -83 -210 -83t-210 83q-82 82 -82 204zM219 162q43 -45 108 -45q63 0 107 45q44 47 44 111t-44 110q-44 45 -107 45q-65 0 -108 -45q-43 -44 -43 -110q0 -65 43 -111zM286 624v19
q0 6 1 15.5t4.5 20.5t11.5 23.5t23 24.5q12 9 21 19t9 19q0 8 -7 13t-17 5q-9 0 -24.5 -9t-38.5 -35l-70 68q32 38 66.5 55.5t66.5 17.5q24 0 46 -8t39.5 -23t27.5 -36.5t10 -47.5t-15.5 -51t-41.5 -50q-6 -4 -9 -6.5t-5 -6.5t-2.5 -10.5t-0.5 -16.5h-95z" />
    <glyph glyph-name="uni1ED0" unicode="&#x1ed0;" horiz-adv-x="848" 
d="M216 794l154 183h109l155 -183h-144l-67 89l-68 -89h-139zM423 -12q-165 0 -274 109q-110 110 -110 270t111 273q112 112 274 112t273 -112q112 -112 112 -271t-112 -270q-111 -111 -274 -111zM655 369q0 102 -67 169q-68 68 -164 68t-164 -68q-67 -67 -67 -169
q0 -101 66 -168q67 -67 165 -67t165 67t66 168zM593 925l65 183h163l-98 -183h-130z" />
    <glyph glyph-name="uni1ED1" unicode="&#x1ed1;" 
d="M126 628l148 176h105l149 -176h-138l-65 86l-65 -86h-134zM35 273q0 121 82 203q82 84 210 84q127 0 210 -84q82 -82 82 -203q0 -122 -82 -204q-83 -83 -210 -83t-210 83q-82 82 -82 204zM219 162q43 -45 108 -45q63 0 107 45q44 47 44 111t-44 110q-44 45 -107 45
q-65 0 -108 -45q-43 -44 -43 -110q0 -65 43 -111zM486 750l62 176h157l-94 -176h-125z" />
    <glyph glyph-name="uni1ED2" unicode="&#x1ed2;" horiz-adv-x="848" 
d="M216 794l154 183h109l155 -183h-144l-67 89l-68 -89h-139zM423 -12q-165 0 -274 109q-110 110 -110 270t111 273q112 112 274 112t273 -112q112 -112 112 -271t-112 -270q-111 -111 -274 -111zM655 369q0 102 -67 169q-68 68 -164 68t-164 -68q-67 -67 -67 -169
q0 -101 66 -168q67 -67 165 -67t165 67t66 168zM751 925h-133l-97 183h165z" />
    <glyph glyph-name="uni1ED3" unicode="&#x1ed3;" 
d="M126 628l148 176h105l149 -176h-138l-65 86l-65 -86h-134zM35 273q0 121 82 203q82 84 210 84q127 0 210 -84q82 -82 82 -203q0 -122 -82 -204q-83 -83 -210 -83t-210 83q-82 82 -82 204zM219 162q43 -45 108 -45q63 0 107 45q44 47 44 111t-44 110q-44 45 -107 45
q-65 0 -108 -45q-43 -44 -43 -110q0 -65 43 -111zM641 750h-125l-94 176h157z" />
    <glyph glyph-name="uni1ED4" unicode="&#x1ed4;" horiz-adv-x="848" 
d="M216 794l154 183h109l155 -183h-144l-67 89l-68 -89h-139zM423 -12q-165 0 -274 109q-110 110 -110 270t111 273q112 112 274 112t273 -112q112 -112 112 -271t-112 -270q-111 -111 -274 -111zM655 369q0 102 -67 169q-68 68 -164 68t-164 -68q-67 -67 -67 -169
q0 -101 66 -168q67 -67 165 -67t165 67t66 168zM621 910v19q0 6 1 15.5t4.5 20.5t11.5 23.5t23 24.5q12 9 21 19t9 19q0 8 -7 13t-17 5q-9 0 -24.5 -9t-38.5 -35l-70 68q32 38 66.5 55.5t66.5 17.5q24 0 46 -8t39.5 -23t27.5 -36.5t10 -47.5t-15.5 -51t-41.5 -50
q-6 -4 -9 -6.5t-5 -6.5t-2.5 -10.5t-0.5 -16.5h-95z" />
    <glyph glyph-name="uni1ED5" unicode="&#x1ed5;" 
d="M126 628l148 176h105l149 -176h-138l-65 86l-65 -86h-134zM35 273q0 121 82 203q82 84 210 84q127 0 210 -84q82 -82 82 -203q0 -122 -82 -204q-83 -83 -210 -83t-210 83q-82 82 -82 204zM219 162q43 -45 108 -45q63 0 107 45q44 47 44 111t-44 110q-44 45 -107 45
q-65 0 -108 -45q-43 -44 -43 -110q0 -65 43 -111zM498 760v19q0 6 1 15.5t4.5 20.5t11.5 23.5t23 24.5q12 9 21 19t9 19q0 8 -7 13t-17 5q-9 0 -24.5 -9t-38.5 -35l-70 68q32 38 66.5 55.5t66.5 17.5q24 0 46 -8t39.5 -23t27.5 -36.5t10 -47.5t-15.5 -51t-41.5 -50
q-6 -4 -9 -6.5t-5 -6.5t-2.5 -10.5t-0.5 -16.5h-95z" />
    <glyph glyph-name="uni1ED6" unicode="&#x1ed6;" horiz-adv-x="848" 
d="M216 794l154 183h109l155 -183h-144l-67 89l-68 -89h-139zM423 -12q-165 0 -274 109q-110 110 -110 270t111 273q112 112 274 112t273 -112q112 -112 112 -271t-112 -270q-111 -111 -274 -111zM655 369q0 102 -67 169q-68 68 -164 68t-164 -68q-67 -67 -67 -169
q0 -101 66 -168q67 -67 165 -67t165 67t66 168zM206 1056q49 118 147 118q35 0 78 -22t59 -22q35 0 61 48l91 -43q-21 -57 -57 -87.5t-81 -30.5q-31 0 -77 23t-64 23q-40 0 -65 -52z" />
    <glyph glyph-name="uni1ED7" unicode="&#x1ed7;" 
d="M126 628l148 176h105l149 -176h-138l-65 86l-65 -86h-134zM35 273q0 121 82 203q82 84 210 84q127 0 210 -84q82 -82 82 -203q0 -122 -82 -204q-83 -83 -210 -83t-210 83q-82 82 -82 204zM219 162q43 -45 108 -45q63 0 107 45q44 47 44 111t-44 110q-44 45 -107 45
q-65 0 -108 -45q-43 -44 -43 -110q0 -65 43 -111zM114 873q49 115 144 115q34 0 75 -22q43 -21 59 -21q33 0 59 47l89 -42q-20 -55 -55 -85t-80 -30q-32 0 -75 22q-44 23 -62 23q-39 0 -64 -51z" />
    <glyph glyph-name="uni1ED8" unicode="&#x1ed8;" horiz-adv-x="848" 
d="M486 -216q-12 -12 -28.5 -18.5t-33.5 -6.5t-33.5 6.5t-28.5 18.5t-18.5 28.5t-6.5 33.5t6.5 33t18.5 28t28.5 18.5t33.5 6.5t33.5 -6.5t28.5 -18.5t18.5 -28t6.5 -33t-6.5 -33.5t-18.5 -28.5zM216 794l154 183h109l155 -183h-144l-67 89l-68 -89h-139zM423 -12
q-165 0 -274 109q-110 110 -110 270t111 273q112 112 274 112t273 -112q112 -112 112 -271t-112 -270q-111 -111 -274 -111zM655 369q0 102 -67 169q-68 68 -164 68t-164 -68q-67 -67 -67 -169q0 -101 66 -168q67 -67 165 -67t165 67t66 168z" />
    <glyph glyph-name="uni1ED9" unicode="&#x1ed9;" 
d="M389 -216q-12 -12 -28.5 -18.5t-33.5 -6.5t-33.5 6.5t-28.5 18.5t-18.5 28.5t-6.5 33.5t6.5 33t18.5 28t28.5 18.5t33.5 6.5t33.5 -6.5t28.5 -18.5t18.5 -28t6.5 -33t-6.5 -33.5t-18.5 -28.5zM126 628l148 176h105l149 -176h-138l-65 86l-65 -86h-134zM35 273
q0 121 82 203q82 84 210 84q127 0 210 -84q82 -82 82 -203q0 -122 -82 -204q-83 -83 -210 -83t-210 83q-82 82 -82 204zM219 162q43 -45 108 -45q63 0 107 45q44 47 44 111t-44 110q-44 45 -107 45q-65 0 -108 -45q-43 -44 -43 -110q0 -65 43 -111z" />
    <glyph glyph-name="uni1EDA" unicode="&#x1eda;" horiz-adv-x="848" 
d="M563 723q35 0 54 7.5t19 22.5q0 8 -23 67l90 30q34 -53 34 -100q0 -59 -42.5 -94.5t-131.5 -35.5v103zM423 -12q-165 0 -274 109q-110 110 -110 270t111 273q112 112 274 112t273 -112q112 -112 112 -271t-112 -270q-111 -111 -274 -111zM655 369q0 102 -67 169
q-68 68 -164 68t-164 -68q-67 -67 -67 -169q0 -101 66 -168q67 -67 165 -67t165 67t66 168zM358 794l65 183h163l-98 -183h-130z" />
    <glyph glyph-name="uni1EDB" unicode="&#x1edb;" 
d="M457 518q35 0 54 7.5t19 22.5q0 8 -23 67l90 30q34 -53 34 -100q0 -59 -42.5 -94.5t-131.5 -35.5v103zM35 273q0 121 82 203q82 84 210 84q127 0 210 -84q82 -82 82 -203q0 -122 -82 -204q-83 -83 -210 -83t-210 83q-82 82 -82 204zM219 162q43 -45 108 -45q63 0 107 45
q44 47 44 111t-44 110q-44 45 -107 45q-65 0 -108 -45q-43 -44 -43 -110q0 -65 43 -111zM256 626l62 176h157l-94 -176h-125z" />
    <glyph glyph-name="uni1EDC" unicode="&#x1edc;" horiz-adv-x="848" 
d="M563 723q35 0 54 7.5t19 22.5q0 8 -23 67l90 30q34 -53 34 -100q0 -59 -42.5 -94.5t-131.5 -35.5v103zM423 -12q-165 0 -274 109q-110 110 -110 270t111 273q112 112 274 112t273 -112q112 -112 112 -271t-112 -270q-111 -111 -274 -111zM655 369q0 102 -67 169
q-68 68 -164 68t-164 -68q-67 -67 -67 -169q0 -101 66 -168q67 -67 165 -67t165 67t66 168zM502 795h-133l-97 183h165z" />
    <glyph glyph-name="uni1EDD" unicode="&#x1edd;" 
d="M457 518q35 0 54 7.5t19 22.5q0 8 -23 67l90 30q34 -53 34 -100q0 -59 -42.5 -94.5t-131.5 -35.5v103zM35 273q0 121 82 203q82 84 210 84q127 0 210 -84q82 -82 82 -203q0 -122 -82 -204q-83 -83 -210 -83t-210 83q-82 82 -82 204zM219 162q43 -45 108 -45q63 0 107 45
q44 47 44 111t-44 110q-44 45 -107 45q-65 0 -108 -45q-43 -44 -43 -110q0 -65 43 -111zM395 627h-125l-94 176h157z" />
    <glyph glyph-name="uni1EDE" unicode="&#x1ede;" horiz-adv-x="848" 
d="M563 723q35 0 54 7.5t19 22.5q0 8 -23 67l90 30q34 -53 34 -100q0 -59 -42.5 -94.5t-131.5 -35.5v103zM423 -12q-165 0 -274 109q-110 110 -110 270t111 273q112 112 274 112t273 -112q112 -112 112 -271t-112 -270q-111 -111 -274 -111zM655 369q0 102 -67 169
q-68 68 -164 68t-164 -68q-67 -67 -67 -169q0 -101 66 -168q67 -67 165 -67t165 67t66 168zM383 794v19q0 6 1 15.5t4.5 20.5t11.5 23.5t23 24.5q12 9 21 19t9 19q0 8 -7 13t-17 5q-9 0 -24.5 -9t-38.5 -35l-70 68q32 38 66.5 55.5t66.5 17.5q24 0 46 -8t39.5 -23
t27.5 -36.5t10 -47.5t-15.5 -51t-41.5 -50q-6 -4 -9 -6.5t-5 -6.5t-2.5 -10.5t-0.5 -16.5h-95z" />
    <glyph glyph-name="uni1EDF" unicode="&#x1edf;" 
d="M457 518q35 0 54 7.5t19 22.5q0 8 -23 67l90 30q34 -53 34 -100q0 -59 -42.5 -94.5t-131.5 -35.5v103zM35 273q0 121 82 203q82 84 210 84q127 0 210 -84q82 -82 82 -203q0 -122 -82 -204q-83 -83 -210 -83t-210 83q-82 82 -82 204zM219 162q43 -45 108 -45q63 0 107 45
q44 47 44 111t-44 110q-44 45 -107 45q-65 0 -108 -45q-43 -44 -43 -110q0 -65 43 -111zM286 624v19q0 6 1 15.5t4.5 20.5t11.5 23.5t23 24.5q12 9 21 19t9 19q0 8 -7 13t-17 5q-9 0 -24.5 -9t-38.5 -35l-70 68q32 38 66.5 55.5t66.5 17.5q24 0 46 -8t39.5 -23t27.5 -36.5
t10 -47.5t-15.5 -51t-41.5 -50q-6 -4 -9 -6.5t-5 -6.5t-2.5 -10.5t-0.5 -16.5h-95z" />
    <glyph glyph-name="uni1EE0" unicode="&#x1ee0;" horiz-adv-x="848" 
d="M563 723q35 0 54 7.5t19 22.5q0 8 -23 67l90 30q34 -53 34 -100q0 -59 -42.5 -94.5t-131.5 -35.5v103zM423 -12q-165 0 -274 109q-110 110 -110 270t111 273q112 112 274 112t273 -112q112 -112 112 -271t-112 -270q-111 -111 -274 -111zM655 369q0 102 -67 169
q-68 68 -164 68t-164 -68q-67 -67 -67 -169q0 -101 66 -168q67 -67 165 -67t165 67t66 168zM210 835q49 118 147 118q35 0 78 -22t59 -22q35 0 61 48l91 -43q-21 -57 -57 -87.5t-81 -30.5q-31 0 -77 23t-64 23q-40 0 -65 -52z" />
    <glyph glyph-name="uni1EE1" unicode="&#x1ee1;" 
d="M457 518q35 0 54 7.5t19 22.5q0 8 -23 67l90 30q34 -53 34 -100q0 -59 -42.5 -94.5t-131.5 -35.5v103zM35 273q0 121 82 203q82 84 210 84q127 0 210 -84q82 -82 82 -203q0 -122 -82 -204q-83 -83 -210 -83t-210 83q-82 82 -82 204zM219 162q43 -45 108 -45q63 0 107 45
q44 47 44 111t-44 110q-44 45 -107 45q-65 0 -108 -45q-43 -44 -43 -110q0 -65 43 -111zM116 667q49 115 144 115q34 0 75 -22q43 -21 59 -21q33 0 59 47l89 -42q-20 -55 -55 -85t-80 -30q-32 0 -75 22q-44 23 -62 23q-39 0 -64 -51z" />
    <glyph glyph-name="uni1EE2" unicode="&#x1ee2;" horiz-adv-x="848" 
d="M563 723q35 0 54 7.5t19 22.5q0 8 -23 67l90 30q34 -53 34 -100q0 -59 -42.5 -94.5t-131.5 -35.5v103zM423 -12q-165 0 -274 109q-110 110 -110 270t111 273q112 112 274 112t273 -112q112 -112 112 -271t-112 -270q-111 -111 -274 -111zM655 369q0 102 -67 169
q-68 68 -164 68t-164 -68q-67 -67 -67 -169q0 -101 66 -168q67 -67 165 -67t165 67t66 168zM486 -216q-12 -12 -28.5 -18.5t-33.5 -6.5t-33.5 6.5t-28.5 18.5t-18.5 28.5t-6.5 33.5t6.5 33t18.5 28t28.5 18.5t33.5 6.5t33.5 -6.5t28.5 -18.5t18.5 -28t6.5 -33t-6.5 -33.5
t-18.5 -28.5z" />
    <glyph glyph-name="uni1EE3" unicode="&#x1ee3;" 
d="M457 518q35 0 54 7.5t19 22.5q0 8 -23 67l90 30q34 -53 34 -100q0 -59 -42.5 -94.5t-131.5 -35.5v103zM35 273q0 121 82 203q82 84 210 84q127 0 210 -84q82 -82 82 -203q0 -122 -82 -204q-83 -83 -210 -83t-210 83q-82 82 -82 204zM219 162q43 -45 108 -45q63 0 107 45
q44 47 44 111t-44 110q-44 45 -107 45q-65 0 -108 -45q-43 -44 -43 -110q0 -65 43 -111zM389 -216q-12 -12 -28.5 -18.5t-33.5 -6.5t-33.5 6.5t-28.5 18.5t-18.5 28.5t-6.5 33.5t6.5 33t18.5 28t28.5 18.5t33.5 6.5t33.5 -6.5t28.5 -18.5t18.5 -28t6.5 -33t-6.5 -33.5
t-18.5 -28.5z" />
    <glyph glyph-name="uni1EE4" unicode="&#x1ee4;" horiz-adv-x="725" 
d="M74 739h149v-459q0 -75 37 -112t103 -37q63 0 100.5 38.5t37.5 110.5v459h150v-469q0 -139 -82 -211q-81 -72 -206 -72t-207 72t-82 211v469zM424 -216q-12 -12 -28.5 -18.5t-33.5 -6.5t-33.5 6.5t-28.5 18.5t-18.5 28.5t-6.5 33.5t6.5 33t18.5 28t28.5 18.5t33.5 6.5
t33.5 -6.5t28.5 -18.5t18.5 -28t6.5 -33t-6.5 -33.5t-18.5 -28.5z" />
    <glyph glyph-name="uni1EE5" unicode="&#x1ee5;" horiz-adv-x="614" 
d="M307 -13q-58 0 -104.5 16.5t-78.5 47.5t-49.5 76.5t-17.5 102.5v315h141v-315q0 -52 29 -83t80 -31t80 31t29 83v315h141v-315q0 -115 -66 -179t-184 -64zM369 -216q-12 -12 -28.5 -18.5t-33.5 -6.5t-33.5 6.5t-28.5 18.5t-18.5 28.5t-6.5 33.5t6.5 33t18.5 28t28.5 18.5
t33.5 6.5t33.5 -6.5t28.5 -18.5t18.5 -28t6.5 -33t-6.5 -33.5t-18.5 -28.5z" />
    <glyph glyph-name="uni1EE6" unicode="&#x1ee6;" horiz-adv-x="725" 
d="M74 739h149v-459q0 -75 37 -112t103 -37q63 0 100.5 38.5t37.5 110.5v459h150v-469q0 -139 -82 -211q-81 -72 -206 -72t-207 72t-82 211v469zM321 794v19q0 6 1 15.5t4.5 20.5t11.5 23.5t23 24.5q12 9 21 19t9 19q0 8 -7 13t-17 5q-9 0 -24.5 -9t-38.5 -35l-70 68
q32 38 66.5 55.5t66.5 17.5q24 0 46 -8t39.5 -23t27.5 -36.5t10 -47.5t-15.5 -51t-41.5 -50q-6 -4 -9 -6.5t-5 -6.5t-2.5 -10.5t-0.5 -16.5h-95z" />
    <glyph glyph-name="uni1EE7" unicode="&#x1ee7;" horiz-adv-x="614" 
d="M307 -13q-58 0 -104.5 16.5t-78.5 47.5t-49.5 76.5t-17.5 102.5v315h141v-315q0 -52 29 -83t80 -31t80 31t29 83v315h141v-315q0 -115 -66 -179t-184 -64zM266 624v19q0 6 1 15.5t4.5 20.5t11.5 23.5t23 24.5q12 9 21 19t9 19q0 8 -7 13t-17 5q-9 0 -24.5 -9t-38.5 -35
l-70 68q32 38 66.5 55.5t66.5 17.5q24 0 46 -8t39.5 -23t27.5 -36.5t10 -47.5t-15.5 -51t-41.5 -50q-6 -4 -9 -6.5t-5 -6.5t-2.5 -10.5t-0.5 -16.5h-95z" />
    <glyph glyph-name="uni1EE8" unicode="&#x1ee8;" horiz-adv-x="725" 
d="M542 734q35 0 54 12t19 27q0 8 -23 67l90 30q34 -53 34 -100q0 -59 -42.5 -94.5t-131.5 -35.5v94zM74 739h149v-459q0 -75 37 -112t103 -37q63 0 100.5 38.5t37.5 110.5v459h150v-469q0 -139 -82 -211q-81 -72 -206 -72t-207 72t-82 211v469zM292 794l65 183h163
l-98 -183h-130z" />
    <glyph glyph-name="uni1EE9" unicode="&#x1ee9;" horiz-adv-x="614" 
d="M453 544q35 0 54 12t19 27q0 8 -23 67l90 30q34 -53 34 -100q0 -59 -42.5 -94.5t-131.5 -35.5v94zM307 -13q-58 0 -104.5 16.5t-78.5 47.5t-49.5 76.5t-17.5 102.5v315h141v-315q0 -52 29 -83t80 -31t80 31t29 83v315h141v-315q0 -115 -66 -179t-184 -64zM240 626l62 176
h157l-94 -176h-125z" />
    <glyph glyph-name="uni1EEA" unicode="&#x1eea;" horiz-adv-x="725" 
d="M542 734q35 0 54 12t19 27q0 8 -23 67l90 30q34 -53 34 -100q0 -59 -42.5 -94.5t-131.5 -35.5v94zM74 739h149v-459q0 -75 37 -112t103 -37q63 0 100.5 38.5t37.5 110.5v459h150v-469q0 -139 -82 -211q-81 -72 -206 -72t-207 72t-82 211v469zM438 795h-133l-97 183h165z
" />
    <glyph glyph-name="uni1EEB" unicode="&#x1eeb;" horiz-adv-x="614" 
d="M453 544q35 0 54 12t19 27q0 8 -23 67l90 30q34 -53 34 -100q0 -59 -42.5 -94.5t-131.5 -35.5v94zM307 -13q-58 0 -104.5 16.5t-78.5 47.5t-49.5 76.5t-17.5 102.5v315h141v-315q0 -52 29 -83t80 -31t80 31t29 83v315h141v-315q0 -115 -66 -179t-184 -64zM377 627h-125
l-94 176h157z" />
    <glyph glyph-name="uni1EEC" unicode="&#x1eec;" horiz-adv-x="725" 
d="M542 734q35 0 54 12t19 27q0 8 -23 67l90 30q34 -53 34 -100q0 -59 -42.5 -94.5t-131.5 -35.5v94zM74 739h149v-459q0 -75 37 -112t103 -37q63 0 100.5 38.5t37.5 110.5v459h150v-469q0 -139 -82 -211q-81 -72 -206 -72t-207 72t-82 211v469zM321 794v19q0 6 1 15.5
t4.5 20.5t11.5 23.5t23 24.5q12 9 21 19t9 19q0 8 -7 13t-17 5q-9 0 -24.5 -9t-38.5 -35l-70 68q32 38 66.5 55.5t66.5 17.5q24 0 46 -8t39.5 -23t27.5 -36.5t10 -47.5t-15.5 -51t-41.5 -50q-6 -4 -9 -6.5t-5 -6.5t-2.5 -10.5t-0.5 -16.5h-95z" />
    <glyph glyph-name="uni1EED" unicode="&#x1eed;" horiz-adv-x="614" 
d="M453 544q35 0 54 12t19 27q0 8 -23 67l90 30q34 -53 34 -100q0 -59 -42.5 -94.5t-131.5 -35.5v94zM307 -13q-58 0 -104.5 16.5t-78.5 47.5t-49.5 76.5t-17.5 102.5v315h141v-315q0 -52 29 -83t80 -31t80 31t29 83v315h141v-315q0 -115 -66 -179t-184 -64zM266 624v19
q0 6 1 15.5t4.5 20.5t11.5 23.5t23 24.5q12 9 21 19t9 19q0 8 -7 13t-17 5q-9 0 -24.5 -9t-38.5 -35l-70 68q32 38 66.5 55.5t66.5 17.5q24 0 46 -8t39.5 -23t27.5 -36.5t10 -47.5t-15.5 -51t-41.5 -50q-6 -4 -9 -6.5t-5 -6.5t-2.5 -10.5t-0.5 -16.5h-95z" />
    <glyph glyph-name="uni1EEE" unicode="&#x1eee;" horiz-adv-x="725" 
d="M542 734q35 0 54 12t19 27q0 8 -23 67l90 30q34 -53 34 -100q0 -59 -42.5 -94.5t-131.5 -35.5v94zM74 739h149v-459q0 -75 37 -112t103 -37q63 0 100.5 38.5t37.5 110.5v459h150v-469q0 -139 -82 -211q-81 -72 -206 -72t-207 72t-82 211v469zM144 856q49 118 147 118
q35 0 78 -22t59 -22q35 0 61 48l91 -43q-21 -57 -57 -87.5t-81 -30.5q-31 0 -77 23t-64 23q-40 0 -65 -52z" />
    <glyph glyph-name="uni1EEF" unicode="&#x1eef;" horiz-adv-x="614" 
d="M453 544q35 0 54 12t19 27q0 8 -23 67l90 30q34 -53 34 -100q0 -59 -42.5 -94.5t-131.5 -35.5v94zM307 -13q-58 0 -104.5 16.5t-78.5 47.5t-49.5 76.5t-17.5 102.5v315h141v-315q0 -52 29 -83t80 -31t80 31t29 83v315h141v-315q0 -115 -66 -179t-184 -64zM94 673
q49 115 144 115q34 0 75 -22q43 -21 59 -21q33 0 59 47l89 -42q-20 -55 -55 -85t-80 -30q-32 0 -75 22q-44 23 -62 23q-39 0 -64 -51z" />
    <glyph glyph-name="uni1EF0" unicode="&#x1ef0;" horiz-adv-x="725" 
d="M542 734q35 0 54 12t19 27q0 8 -23 67l90 30q34 -53 34 -100q0 -59 -42.5 -94.5t-131.5 -35.5v94zM74 739h149v-459q0 -75 37 -112t103 -37q63 0 100.5 38.5t37.5 110.5v459h150v-469q0 -139 -82 -211q-81 -72 -206 -72t-207 72t-82 211v469zM424 -216
q-12 -12 -28.5 -18.5t-33.5 -6.5t-33.5 6.5t-28.5 18.5t-18.5 28.5t-6.5 33.5t6.5 33t18.5 28t28.5 18.5t33.5 6.5t33.5 -6.5t28.5 -18.5t18.5 -28t6.5 -33t-6.5 -33.5t-18.5 -28.5z" />
    <glyph glyph-name="uni1EF1" unicode="&#x1ef1;" horiz-adv-x="614" 
d="M453 544q35 0 54 12t19 27q0 8 -23 67l90 30q34 -53 34 -100q0 -59 -42.5 -94.5t-131.5 -35.5v94zM307 -13q-58 0 -104.5 16.5t-78.5 47.5t-49.5 76.5t-17.5 102.5v315h141v-315q0 -52 29 -83t80 -31t80 31t29 83v315h141v-315q0 -115 -66 -179t-184 -64zM369 -216
q-12 -12 -28.5 -18.5t-33.5 -6.5t-33.5 6.5t-28.5 18.5t-18.5 28.5t-6.5 33.5t6.5 33t18.5 28t28.5 18.5t33.5 6.5t33.5 -6.5t28.5 -18.5t18.5 -28t6.5 -33t-6.5 -33.5t-18.5 -28.5z" />
    <glyph glyph-name="Ygrave" unicode="&#x1ef2;" horiz-adv-x="679" 
d="M417 794h-133l-97 183h165zM669 739l-256 -483v-256h-148v256l-253 483h171l156 -324l159 324h171z" />
    <glyph glyph-name="ygrave" unicode="&#x1ef3;" horiz-adv-x="599" 
d="M375 625h-125l-94 176h157zM436 545h154l-219 -572q-40 -105 -95 -155t-136 -50q-62 0 -105 27l24 118q37 -18 70 -18q65 0 106 86l11 25l-238 539h163l141 -355z" />
    <glyph glyph-name="uni1EF4" unicode="&#x1ef4;" horiz-adv-x="679" 
d="M669 739l-256 -483v-256h-148v256l-253 483h171l156 -324l159 324h171zM401 -216q-12 -12 -28.5 -18.5t-33.5 -6.5t-33.5 6.5t-28.5 18.5t-18.5 28.5t-6.5 33.5t6.5 33t18.5 28t28.5 18.5t33.5 6.5t33.5 -6.5t28.5 -18.5t18.5 -28t6.5 -33t-6.5 -33.5t-18.5 -28.5z" />
    <glyph glyph-name="uni1EF5" unicode="&#x1ef5;" horiz-adv-x="599" 
d="M436 545h154l-219 -572q-40 -105 -95 -155t-136 -50q-62 0 -105 27l24 118q37 -18 70 -18q65 0 106 86l11 25l-238 539h163l141 -355zM527 -216q-12 -12 -28.5 -18.5t-33.5 -6.5t-33.5 6.5t-28.5 18.5t-18.5 28.5t-6.5 33.5t6.5 33t18.5 28t28.5 18.5t33.5 6.5t33.5 -6.5
t28.5 -18.5t18.5 -28t6.5 -33t-6.5 -33.5t-18.5 -28.5z" />
    <glyph glyph-name="uni1EF6" unicode="&#x1ef6;" horiz-adv-x="679" 
d="M669 739l-256 -483v-256h-148v256l-253 483h171l156 -324l159 324h171zM298 794v19q0 6 1 15.5t4.5 20.5t11.5 23.5t23 24.5q12 9 21 19t9 19q0 8 -7 13t-17 5q-9 0 -24.5 -9t-38.5 -35l-70 68q32 38 66.5 55.5t66.5 17.5q24 0 46 -8t39.5 -23t27.5 -36.5t10 -47.5
t-15.5 -51t-41.5 -50q-6 -4 -9 -6.5t-5 -6.5t-2.5 -10.5t-0.5 -16.5h-95z" />
    <glyph glyph-name="uni1EF7" unicode="&#x1ef7;" horiz-adv-x="599" 
d="M436 545h154l-219 -572q-40 -105 -95 -155t-136 -50q-62 0 -105 27l24 118q37 -18 70 -18q65 0 106 86l11 25l-238 539h163l141 -355zM258 624v19q0 6 1 15.5t4.5 20.5t11.5 23.5t23 24.5q12 9 21 19t9 19q0 8 -7 13t-17 5q-9 0 -24.5 -9t-38.5 -35l-70 68
q32 38 66.5 55.5t66.5 17.5q24 0 46 -8t39.5 -23t27.5 -36.5t10 -47.5t-15.5 -51t-41.5 -50q-6 -4 -9 -6.5t-5 -6.5t-2.5 -10.5t-0.5 -16.5h-95z" />
    <glyph glyph-name="uni1EF8" unicode="&#x1ef8;" horiz-adv-x="679" 
d="M669 739l-256 -483v-256h-148v256l-253 483h171l156 -324l159 324h171zM121 835q49 118 147 118q35 0 78 -22t59 -22q35 0 61 48l91 -43q-21 -57 -57 -87.5t-81 -30.5q-31 0 -77 23t-64 23q-40 0 -65 -52z" />
    <glyph glyph-name="uni1EF9" unicode="&#x1ef9;" horiz-adv-x="599" 
d="M436 545h154l-219 -572q-40 -105 -95 -155t-136 -50q-62 0 -105 27l24 118q37 -18 70 -18q65 0 106 86l11 25l-238 539h163l141 -355zM86 666q49 115 144 115q34 0 75 -22q43 -21 59 -21q33 0 59 47l89 -42q-20 -55 -55 -85t-80 -30q-32 0 -75 22q-44 23 -62 23
q-39 0 -64 -51z" />
    <glyph glyph-name="uni1EFA" unicode="&#x1efa;" horiz-adv-x="976" 
d="M233 567q-21 0 -54 -3.5t-64 -12.5t-52 -22.5t-21 -36.5q-17 22 -17 42q0 23 18 41t46 30.5t62 19t66 6.5q16 0 35 -1.5t33 -8.5t21.5 -20t7.5 -31q0 -2 -0.5 -10t-4.5 -9q-19 7 -34.5 11.5t-41.5 4.5zM959 657q15 -20 15 -35q0 -19 -17 -31.5t-46 -21t-60.5 -11
t-59.5 -2.5q-8 0 -17.5 0.5t-17.5 0.5q-3 -5 -5.5 -9t-3.5 -8q-3 -5 -8 -17t-10.5 -28.5t-10 -33.5t-4.5 -29t4.5 -19.5t15.5 -7.5q14 0 38 10q-3 -12 -9 -26t-14.5 -26t-20.5 -18t-28 -6q-26 0 -37 17.5t-11 43.5q0 22 5 46q-9 -13 -21 -20.5t-28 -7.5q-24 0 -34.5 9.5
t-10.5 25.5q0 22 11.5 44.5t20.5 44.5q-11 0 -25 -12.5t-25 -32t-20.5 -40.5t-12.5 -39q-7 0 -14.5 1t-15.5 4t-13.5 8.5t-5.5 12.5q0 11 7.5 30t20.5 43q-7 -2 -12.5 -3.5t-8.5 -2.5q-9 -19 -20.5 -36.5t-27 -30t-33 -21t-38.5 -8.5q-22 0 -40.5 15.5t-18.5 40.5
q0 27 10.5 46.5t26.5 32.5q0 1 -0.5 3t-0.5 3q0 13 6.5 27t18.5 24.5t30 17t42 6.5q23 0 40.5 -13.5t17.5 -44.5v-9t-2 -8q19 4 34 13q8 19 14.5 34t8.5 27q14 -1 30 -9.5t16 -22.5q0 -6 -2 -11t-5 -13q20 17 36 30.5t40 13.5q10 0 16.5 -6t6.5 -20q0 -13 -6.5 -26.5
t-16 -28.5t-16.5 -29t-7 -25q0 -8 8 -8q6 0 14.5 2.5t16.5 8.5q7 26 16 49t19 39q-16 10 -16 27q0 8 5 17q11 -6 27 -9q7 15 14.5 31.5t14.5 31.5t10 27t3 21v3h9q19 0 34.5 -9.5t15.5 -23.5q0 -3 -13.5 -31t-30.5 -56q24 0 50 3t49 9.5t44 17t39 24.5zM365 470
q9 0 20.5 10.5t17.5 23.5q-23 0 -45 11q-7 -17 -7 -29q0 -8 3.5 -12t10.5 -4zM418 537q5 9 5 20t-8.5 18t-16.5 7q-10 0 -17 -7t-7 -14q0 -11 11.5 -17.5t26.5 -6.5h6zM212 276q0 -15 18.5 -22.5t41 -14.5t41 -19t18.5 -35q0 -17 -13.5 -35.5t-36 -32.5t-53.5 -21.5
t-61 -7.5q-14 0 -32 1t-32.5 7.5t-27 18.5t-12.5 31q0 14 9 29t22 22q13 -26 38.5 -36.5t54.5 -10.5q27 0 49.5 7.5t22.5 17.5q0 8 -11 11.5t-25.5 4t-31 3.5t-31 9.5t-24.5 17.5t-10 29q0 35 22.5 62t53 47t66.5 32t63 12q25 0 38.5 -9t13.5 -27q0 -12 -5.5 -24
t-12.5 -24.5t-14 -22.5t-7 -20q-42 0 -42 43v9.5t2 11.5q-14 -3 -29.5 -9.5t-29.5 -14.5t-23.5 -18.5t-9.5 -21.5zM848 388q34 0 34 -27q0 -14 -11 -30h-12q-45 0 -71.5 -11t-44.5 -27.5t-30.5 -36.5t-22.5 -39q-6 -20 -16 -40q-7 -17 -16 -38.5t-16 -44.5q-8 0 -16 1
t-15.5 4.5t-13 9t-5.5 17.5q0 7 8.5 26t17.5 43q-6 -4 -10.5 -4.5t-10.5 -3.5q-7 -19 -19 -36t-27 -30t-33.5 -20.5t-39.5 -7.5q-22 0 -39 15t-17 41q0 24 10 44.5t24 32.5v7q0 11 3 18q-13 0 -27 -1q-5 -7 -12.5 -26t-15 -42.5t-14.5 -47t-8 -40.5q-3 -26 21 -26q13 0 37 9
q-2 -14 -8 -26.5t-15.5 -24t-21.5 -19t-26 -7.5q-27 0 -38.5 18t-11.5 43q0 27 5 52t13.5 50.5t18 47.5t16.5 39q-7 4 -10.5 11.5t-3.5 16.5q0 11 4 15q7 0 15.5 1t15.5 4q27 49 40 92q15 0 31.5 -10.5t16.5 -27.5q0 -11 -10 -23.5t-14 -26.5h7q19 0 26 -10q24 17 62 17
q23 0 41 -14t18 -47v-8v-8q7 1 13.5 5t14.5 9q9 20 14 38t5 29q0 6 -1 9q13 -3 23 -6q8 -3 16 -10.5t9 -18.5q29 46 67.5 73.5t75.5 27.5zM491 147q9 0 20.5 10t21.5 24q-28 2 -47 10q-2 -8 -5 -14t-3 -13q0 -17 13 -17zM547 214q3 11 3 19q0 11 -8 19t-14 8q-12 0 -19.5 -8
t-7.5 -15q0 -11 11 -17t27 -6h8zM790 202q11 0 19.5 10.5t8.5 19.5q0 12 -11 12q-6 0 -16 -6.5t-19 -18t-16.5 -27t-7.5 -27.5q0 -10 7 -17t20 -7q9 0 21 4.5t23 8.5t20 11t15 12q-5 -19 -14.5 -34.5t-25 -27t-34.5 -17t-38 -5.5q-26 0 -42 12t-16 39q0 24 13 51.5t32 51.5
t44 40.5t48 16.5q26 0 38 -12.5t12 -31.5q0 -24 -8.5 -41t-21.5 -30t-28 -19t-28 -6q-10 0 -16 4.5t-6 14.5q0 8 6 16.5t7 8.5q8 -6 14 -6zM88 271q-19 -4 -33 5t-26 21t-19.5 27t-9.5 23q20 -10 31 -12t24 2q10 2 18.5 16t15 34.5t11 44t7 45t4.5 37t2 20.5q0 1 3 1
q13 5 27.5 7t27.5 2q6 0 11 -3.5t5 -12.5q0 -14 -10 -37q14 0 23.5 1t31.5 1q23 0 38 -14t15 -36v-8t-4 -9q-10 5 -21 5.5t-23 0.5q-6 0 -20 -0.5t-28 -4.5t-25 -10.5t-12 -13.5q-2 -6 -7 -25.5t-12.5 -42t-19 -42.5t-25.5 -22z" />
    <glyph glyph-name="uni1EFB" unicode="&#x1efb;" horiz-adv-x="2546" 
d="M1134 125q0 -9 -0.5 -11.5t-5.5 -9.5q-2 -5 -5.5 -5.5t-7.5 -0.5q-87 -21 -166 -21h-31h-65t-58 2q-44 5 -79.5 12.5t-72.5 12.5q-33 7 -71 15t-74 14q-32 9 -62.5 16t-65.5 12q-32 8 -61.5 11t-58.5 5h-22q-50 0 -93 -6q-27 -8 -51.5 -18.5t-49.5 -24.5q-3 -3 -15 -3
q-2 0 -5.5 1.5t-8.5 3.5q0 2 -2 8.5t-2 8.5q0 3 2 7l2 4l2 3q0 3 4 5.5t15 15.5q11 12 22 26t24 26q12 29 27 37l2 8q1 0 2 1q2 2 2 4q11 19 17 40t8.5 41.5t3 38.5t0.5 30q0 7 -3 12t-5 13q0 6 -3 12t-7 11q-6 8 -13 19t-17 21q-9 8 -18 15.5t-16 16.5q-8 6 -18 12.5
t-15 8.5q-5 7 -6 11t-1 12q0 11 14 19q22 11 46.5 16t53.5 11h73h44q29 0 60.5 -4.5t64.5 -8.5q26 -7 60 -11.5t68 -12.5q47 -12 99 -19.5t106 -19.5q51 -6 107.5 -11.5t116.5 -14.5h56q24 0 41.5 0.5t36.5 5.5q38 5 68 9.5t55 10.5q27 5 46.5 13.5t36.5 16.5q18 10 30 18.5
t17 19.5q7 9 7 18q0 8 -0.5 10t-2.5 4q0 4 -4 5t-10 4h-13q-3 0 -11.5 -2t-18.5 -2q-35 -13 -52 -25l-20 -10t-18 -7q-12 -19 -20 -24q0 -2 -1 -3t-2 -3t-2 -3q-2 -5 -7 -9.5t-12 -4.5q-8 0 -13 -1t-12 -8h-5q-2 0 -4 1q-4 2 -4 8q-1 0 0 2q1 3 8 12q0 13 14 30q8 6 17.5 13
t17.5 21q9 8 19.5 16t24.5 14q11 7 26 11.5t29 8.5q10 3 15 6.5t10 3.5h21h13h10q8 0 14 -5t12 -5q4 -7 8.5 -9t6.5 -4q8 -11 10.5 -22.5t2.5 -22.5q-2 -14 -5.5 -23.5t-9.5 -13.5q-17 -32 -57.5 -55.5t-99.5 -37.5q-29 -10 -59.5 -12.5t-65.5 -2.5q-22 -5 -43 -5.5
t-45 -0.5h-62q-62 5 -119 8t-108 13q-54 9 -105.5 20.5t-97.5 17.5q-53 10 -102 19t-93 17q-25 0 -48 3t-43 3t-39.5 -0.5t-37.5 -5.5q-8 0 -10.5 -4t-7.5 -7v-15q5 -8 5.5 -10.5t2.5 -7.5q4 0 7 -3.5t3 -8.5q18 -23 30 -43t17 -40v-6q0 -4 1.5 -7t1.5 -5v-7q1 -12 1.5 -31
t-1 -40t-6.5 -42t-14 -37v-5q-2 -8 -2.5 -17t5.5 -17t20 -14.5t40 -7.5h4h20q32 -2 64 -4.5t67 -10.5q34 -5 68.5 -13.5t69.5 -17.5q32 -9 65.5 -15.5t68.5 -14.5q35 -6 71.5 -11.5t77.5 -7.5q26 -2 55.5 -5.5t59.5 -3.5h34q38 0 78.5 6t82.5 14q1 0 3 3q0 1 1 3
q5 0 6.5 -3.5t9.5 -8.5q2 0 5.5 -3t3.5 -5zM2419 434q-3 -12 -8.5 -33.5t-10 -46t-4.5 -50.5t8 -48q4 -6 6 -8t2 -8q5 -10 13.5 -19.5t19.5 -19.5q10 -9 17 -18.5t15 -17.5q11 -8 19.5 -13t17.5 -7q5 -5 6 -10.5t1 -9.5q0 -9 -4 -14t-9 -7q-24 -9 -51 -17t-53 -8
q-17 -5 -35.5 -6t-38.5 -1h-42q-29 4 -59.5 6.5t-65.5 7.5q-31 9 -63.5 14.5t-66.5 12.5q-48 11 -99 18t-102 21q-55 7 -110.5 13.5t-116.5 9.5h-55q-23 0 -43.5 -0.5t-37.5 -3.5q-35 -5 -65 -8.5t-60 -10.5q-24 -5 -44 -13l-35 -14q-17 -9 -29.5 -19.5t-17.5 -21.5
q-8 -11 -8 -19v-13q2 -2 6.5 -2.5t13.5 -3.5h7q9 0 17 0.5t18 3.5q13 5 28 8.5t23 10.5q11 6 20.5 11.5t15.5 11.5q8 9 11.5 12.5t4.5 8.5q6 0 8 3q1 1 1 3q9 14 20 14l26 12h6h2q4 0 3.5 -7.5t-5.5 -18.5q-5 -5 -8.5 -11.5t-8.5 -15.5q-7 -10 -15.5 -16.5t-19.5 -15.5
q-16 -16 -41 -30q-11 -10 -27 -15.5t-31 -9.5q-8 -1 -13.5 -1h-10.5q-2 0 -7.5 -0.5t-10.5 -4.5h-6q-2 0 -3 0.5t-4 4.5h-12q-8 0 -14.5 1t-14.5 5q-1 5 -5.5 7t-8.5 8q-5 11 -8 20.5t-3 19.5q4 11 6 22.5t10 16.5q17 32 57.5 54t97.5 36q29 11 59 16t63 8q26 0 49.5 1.5
t46.5 1.5q17 0 29 -0.5t25 -2.5q61 0 120 -6.5t111 -17.5q52 -9 102.5 -17.5t102.5 -18.5q51 -10 100 -19.5t95 -13.5q23 -5 45 -8.5t42 -3.5t41 3t38 3q6 5 9.5 7.5t5.5 6.5v19q-2 2 -4.5 5t-2.5 8q-2 2 -2.5 3.5t-2.5 3.5l-3 3q-17 25 -29.5 42t-17.5 39
q-10 22 -12.5 45.5t0 45.5t8 41t11.5 31q0 8 0.5 9.5t4.5 5.5l4 9h6v2q4 19 4 30q0 4 -4 15q-8 0 -16 7h-18h-20h-8h-11h-18q-35 0 -66 6t-69 8q-32 8 -66.5 16t-69.5 15q-35 9 -68 15t-66 15q-37 9 -72.5 12.5t-73.5 6.5q-27 5 -58 6t-60 1h-33q-39 0 -80 -4.5t-80 -9.5h-4
h-18q0 2 -3 5.5t-3 8.5t0.5 8t3.5 11l6 3t11 2q40 11 81 15.5t79 6.5h40q29 0 60 -2t58 -6q42 -2 78 -6.5t75 -12.5q32 -8 67.5 -15t72.5 -18q33 -7 64.5 -12.5t64.5 -11.5q67 -18 118 -18h25q23 0 46 1.5t44 10.5q27 5 53 14t49 23q3 5 7 6t13 1q1 0 4 -1q2 -1 4.5 -2.5
t4.5 -3.5q0 -5 1.5 -7.5t1.5 -11.5q0 -3 -2 -7.5t-7 -4.5q0 -5 -5 -12t-14 -12q-6 -7 -9 -12t-10 -13q-5 -2 -12 -9.5t-12 -15.5q-11 -14 -17.5 -24.5t-13.5 -18.5l-4 -2q0 -2 -1 -4q-2 -3 -4 -3zM301 321h-7q-5 0 -15 -3.5t-10 -23.5v-2q0 -5 -4.5 -9t-9.5 -4
q-9 0 -10.5 4.5t-1.5 10.5v100q0 15 4 22t9 10q5 4 13 3h32q25 0 37.5 -17t12.5 -37t-12.5 -37t-37.5 -17zM295 396h-14q-4 -1 -6 -8q-1 -3 -1 -6v-4q0 -5 1 -9q2 -9 10 -12h10q10 0 15.5 6t5.5 13.5t-5.5 13.5t-15.5 6zM480 414v-120q0 -9 -5 -13t-10.5 -4t-10.5 4t-5 13
v14q0 9 -6.5 15t-23.5 11q-10 2 -15.5 -1.5t-7.5 -8.5q-3 -6 -3 -16q0 -4 2.5 -5.5t2.5 -8.5q0 -6 -5.5 -10.5t-13.5 -4.5q-7 0 -9 4.5t-2 10.5v120q0 7 4.5 11t10.5 4t10.5 -4t4.5 -11v-28q0 -6 12 -11t21 -10q11 0 14.5 8.5t5.5 20.5q0 5 -1 10.5t-1 9.5t7 9.5t12 5.5
t8.5 -5.5t3.5 -9.5zM646 351q-1 -14 -6 -27t-14.5 -22.5t-23.5 -14.5t-32 -3q-17 3 -29.5 11.5t-20 20t-10 24.5t-0.5 25q2 13 8 26.5t16.5 24t25.5 16t33 2.5q16 -2 27 -10t17 -20t8 -26t1 -27zM613 357q0 22 -9.5 31t-26.5 13q-11 0 -22 -10.5t-11 -28.5q0 -21 9.5 -31.5
t23.5 -10.5q17 0 26.5 8t9.5 29zM780 414v-120q0 -6 -1.5 -13.5t-12.5 -1.5q-5 0 -7 2.5t-8 4.5q-1 6 -2 8t-8 9v2q-8 13 -15 15.5t-12.5 -1t-9 -9t-3.5 -7.5v-9q0 -9 -4.5 -13t-10.5 -4t-11.5 4t-7.5 13v120q4 4 6 7t6 8q5 0 10.5 -1t11.5 -9q4 -8 8 -14t12 -11
q1 -3 6 -6.5t10 -4t9.5 3t4.5 14.5v13q0 7 4.5 11t10 4t10 -4t4.5 -11zM932 303q-10 -8 -22 -13.5t-23 -5.5q-20 0 -36 9t-26 24t-13.5 33t1.5 36q11 28 39 40.5t58 7.5q6 -4 10 -8q9 -11 5 -25q-4 -5 -15 -3q-5 1 -11 3h-31q-11 -5 -16.5 -16t-5.5 -23q0 -8 3.5 -18.5
t10.5 -15.5q6 -5 10.5 -7t8.5 -7h11h4q4 5 6 5.5l6 1.5h4v7v6q0 8 -8 12q-4 2 -8 2q-7 0 -7 6q-5 2 -4.5 7.5t7.5 10.5h4h7q0 5 0.5 5.5t4.5 0.5q8 0 17 -7t14.5 -17.5t5 -24t-10.5 -26.5zM1069 286q-9 -2 -15 -2h-11q-23 0 -41 13.5t-26 32.5t-5 40.5t21 38.5
q16 19 36.5 21.5t37.5 -1.5q8 -4 10 -11t0.5 -13.5t-7 -10t-12.5 -0.5h-1q-10 2 -19 1t-15 -9q-17 -16 -17 -33t14 -25q8 -6 17.5 -7t20.5 -1q2 0 2 1q10 3 15 -1t6.5 -10.5t-1.5 -13.5t-10 -10zM1223 414v-120q0 -9 -5.5 -13t-11.5 -4t-11.5 4t-5.5 13v14q0 9 -6 15t-22 11
q-10 2 -15 -1.5t-7 -8.5q-3 -6 -3 -16v-14q0 -6 -6.5 -10.5t-14.5 -4.5q-1 0 -5.5 4.5t-4.5 10.5v120q0 7 5 11t10.5 4t10.5 -4t5 -11v-28q0 -6 13.5 -11t19.5 -10q10 0 15 8.5t5 20.5v20q0 4 6.5 9.5t14.5 5.5q6 0 9.5 -5.5t3.5 -9.5zM1366 414v-36v-40q0 -13 -5.5 -23.5
t-16.5 -14.5q-14 -21 -34 -21q-33 0 -42 15q-7 7 -13 19t-6 25v40v36q0 7 5.5 11t10.5 4t12.5 -6t7.5 -14v-23v-45q0 -15 4 -21t16 -6q11 -5 18 2.5t7 21.5v44v27q0 8 4.5 11.5t9.5 8.5q7 0 14.5 -4t7.5 -11zM1505 409l-48 -117q0 -8 -14 -8q-4 0 -8.5 1.5t-4.5 6.5
q-6 21 -12.5 38t-13.5 35q-2 13 -6.5 23t-7.5 21q-2 7 1 13t8.5 8t11.5 -1t11 -13q0 -5 2 -10.5t2 -9.5q1 -5 6.5 -10t11.5 -6.5t11.5 1.5t7.5 15h6v5l2.5 7.5t0.5 5.5q4 11 12.5 15t10.5 0q8 0 9 -6t1 -14zM1553 414v-120q0 -6 -5 -10.5t-10 -4.5q-8 0 -12 4.5t-4 10.5v120
q0 7 7 11t14 4q10 0 10 -15zM1653 279h-48q-11 0 -18.5 7.5t-7.5 13.5v109q0 8 7.5 14t18.5 6h41q8 0 15 -4t7 -9t-3 -12.5t-12 -7.5h-9h-12h-8q-2 -1 -2.5 -2.5t-1.5 -3.5t-1 -4q0 -8 5 -8q3 -5 7 -5.5t13 -0.5q8 0 12 -5t4 -10.5t-4 -10.5t-12 -5h-10h-10q-4 -2 -4.5 -7
t-0.5 -6q0 -6 3 -7.5t6 -6.5q1 -2 3 -3q3 -3 7 -3h15q8 0 12 -4.5t4 -10t-4 -10t-12 -4.5zM1794 414q0 -4 -2 -11t-11 -7h-12q-6 0 -9.5 -5t-5 -11t-2 -11.5t-0.5 -6.5v-68q0 -6 -3 -10.5t-11 -4.5t-13.5 4.5t-5.5 10.5v71q0 22 -6 26.5t-12 4.5h-13q-4 0 -8.5 7.5
t-0.5 12.5q0 13 22 13h80q9 0 11 -5.5t2 -9.5zM1832 279q-7 0 -13 4.5t-6 10.5q0 8 6 14t13 6q5 0 10 -6t5 -14q0 -6 -5 -10.5t-10 -4.5zM1959 286q-9 -2 -15 -2h-11q-24 0 -41.5 13.5t-25.5 32.5t-4.5 40.5t21.5 38.5q12 19 34 21.5t42 -1.5q8 -4 10.5 -11t0.5 -13.5
t-8 -10t-15 -0.5h-4q-8 2 -15 1t-15 -9q-17 -16 -18 -33t12 -25q12 -6 21 -7t19 -1h6v1q8 3 13 -1t6 -10.5t-2 -13.5t-11 -10zM2135 351q-2 -14 -8 -27t-16.5 -22.5t-25 -14.5t-32.5 -3q-17 3 -29 11.5t-19 20t-9.5 24.5t-0.5 25q1 13 7.5 26.5t17 24t25 16t33.5 2.5
q16 -2 27.5 -10t18.5 -20t9.5 -26t1.5 -27zM2101 357q0 22 -11 31t-26 13q-13 0 -23.5 -10.5t-10.5 -28.5q0 -21 10.5 -31.5t23.5 -10.5t25 8t12 29zM2277 414v-120q0 -6 -1.5 -10.5t-12.5 -4.5q-5 0 -9 4.5t-4 10.5v27q-3 11 -6 14t-6 1.5t-5.5 -5t-4.5 -3.5q-4 -8 -4 -7
q-1 -1 0 -1q0 -5 -4 -8.5t-7 -3.5q-7 0 -9 3.5t-9 8.5v1q0 1 -0.5 2.5t-0.5 4.5q-2 0 -5.5 3t-7 3.5t-6 -3.5t-2.5 -17v-20q0 -9 -4.5 -13t-10.5 -4t-10.5 4t-4.5 13v120q0 11 11 13.5t19 -8.5q0 -3 4 -11q2 -4 4 -7q8 -11 18 -15q8 -4 18 -2t21 17q3 0 3.5 4t1.5 4q5 4 6 6
t1 4q2 6 6.5 7t9 -0.5t8 -5t3.5 -6.5z" />
    <glyph glyph-name="uni2009" unicode="&#x2009;" horiz-adv-x="78" 
 />
    <glyph glyph-name="endash" unicode="&#x2013;" horiz-adv-x="720" 
d="M60 211v132h600v-132h-600z" />
    <glyph glyph-name="emdash" unicode="&#x2014;" horiz-adv-x="1039" 
d="M60 211v132h919v-132h-919z" />
    <glyph glyph-name="quoteleft" unicode="&#x2018;" horiz-adv-x="251" 
d="M133 673q29 0 49.5 -21.5t20.5 -51.5q0 -34 -24.5 -57t-58.5 -23q-38 0 -62.5 26.5t-24.5 66.5q0 104 147 199l40 -57q-69 -52 -89 -82h2z" />
    <glyph glyph-name="quoteright" unicode="&#x2019;" horiz-adv-x="249" 
d="M136 807q37 0 62 -26t25 -68q0 -104 -148 -198l-39 56q71 53 88 83l-1 -1q-28 0 -49 22t-21 52q0 33 24.5 56.5t58.5 23.5z" />
    <glyph glyph-name="quotesinglbase" unicode="&#x201a;" horiz-adv-x="258" 
d="M127 145q37 0 62 -26t25 -68q0 -104 -148 -198l-39 56q71 53 88 83l-1 -1q-28 0 -49 22t-21 52q0 33 24.5 56.5t58.5 23.5z" />
    <glyph glyph-name="quotedblleft" unicode="&#x201c;" horiz-adv-x="503" 
d="M223 755q-69 -52 -89 -82h2q29 0 49.5 -21.5t20.5 -51.5q0 -34 -24.5 -57t-58.5 -23q-38 0 -62.5 26.5t-24.5 66.5q0 104 147 199zM385 673q29 0 49.5 -21.5t20.5 -51.5q0 -34 -24.5 -57t-58.5 -23q-38 0 -62.5 26.5t-24.5 66.5q0 104 147 199l40 -57q-69 -52 -89 -82h2z
" />
    <glyph glyph-name="quotedblright" unicode="&#x201d;" horiz-adv-x="497" 
d="M134 810q38 0 62.5 -26.5t24.5 -66.5q0 -105 -147 -199l-40 57q69 52 89 82h-2q-29 0 -49.5 21.5t-20.5 51.5q0 34 24.5 57t58.5 23zM383 810q38 0 62.5 -26.5t24.5 -66.5q0 -105 -147 -199l-40 57q69 52 89 82h-2q-29 0 -49.5 21.5t-20.5 51.5q0 34 24.5 57t58.5 23z
" />
    <glyph glyph-name="quotedblbase" unicode="&#x201e;" horiz-adv-x="505" 
d="M124 144q38 0 62.5 -26.5t24.5 -66.5q0 -105 -147 -199l-40 57q69 52 89 82h-2q-29 0 -49.5 21.5t-20.5 51.5q0 34 24.5 57t58.5 23zM373 144q38 0 62.5 -26.5t24.5 -66.5q0 -105 -147 -199l-40 57q69 52 89 82h-2q-29 0 -49.5 21.5t-20.5 51.5q0 34 24.5 57t58.5 23z
" />
    <glyph glyph-name="dagger" unicode="&#x2020;" horiz-adv-x="508" 
d="M471 534v-128h-148v-584h-138v584h-148v128h148v315h138v-315h148z" />
    <glyph glyph-name="daggerdbl" unicode="&#x2021;" horiz-adv-x="508" 
d="M471 448h-148v-225h148v-128h-148v-273h-138v273h-148v128h148v225h-148v128h148v273h138v-273h148v-128z" />
    <glyph glyph-name="bullet" unicode="&#x2022;" horiz-adv-x="458" 
d="M228 177q-67 0 -115 48t-48 115q0 68 48 116q48 49 115 49q68 0 116 -49q49 -48 49 -116q0 -67 -49 -115q-48 -48 -116 -48z" />
    <glyph glyph-name="ellipsis" unicode="&#x2026;" horiz-adv-x="744" 
d="M124 -16q-35 0 -59 23.5t-24 58.5q0 34 24 57t59 23q33 0 56.5 -23t23.5 -57q0 -35 -23.5 -58.5t-56.5 -23.5zM373 -16q-35 0 -59 23.5t-24 58.5q0 34 24 57t59 23q33 0 56.5 -23t23.5 -57q0 -35 -23.5 -58.5t-56.5 -23.5zM621 -16q-35 0 -59 23.5t-24 58.5q0 34 24 57
t59 23q33 0 56.5 -23t23.5 -57q0 -35 -23.5 -58.5t-56.5 -23.5z" />
    <glyph glyph-name="perthousand" unicode="&#x2030;" horiz-adv-x="1314" 
d="M31 567q0 77 56 131q55 54 135 54q78 0 134 -54t56 -131q0 -75 -56 -129q-56 -53 -134 -53q-79 0 -135 53q-56 54 -56 129zM111 0l538 739h138l-539 -739h-137zM222 483q34 0 59.5 24.5t25.5 60.5t-25.5 60.5t-59.5 24.5q-36 0 -61 -24.5t-25 -60.5t25.5 -60.5
t60.5 -24.5zM491 170q0 76 55 130t135 54q79 0 135 -54t56 -130q0 -75 -56 -129q-56 -53 -135 -53t-135 53q-55 54 -55 129zM908 170q0 76 56 129q55 54 135 54q79 0 135 -54q56 -53 56 -129q0 -75 -56 -129q-56 -53 -135 -53t-135 53q-56 54 -56 129zM1187 170
q0 38 -26 63.5t-62 25.5t-62 -25.5t-26 -63.5q0 -37 26 -62t62 -25t62 25t26 62zM767 171q0 36 -25 60.5t-61 24.5q-35 0 -60 -24.5t-25 -60.5q0 -37 25 -61t60 -24t60.5 24t25.5 61z" />
    <glyph glyph-name="guilsinglleft" unicode="&#x2039;" horiz-adv-x="361" 
d="M169 88l-136 203l136 203h147l-140 -203l140 -203h-147z" />
    <glyph glyph-name="guilsinglright" unicode="&#x203a;" horiz-adv-x="361" 
d="M192 88h-147l140 203l-140 203h147l136 -203z" />
    <glyph glyph-name="fraction" unicode="&#x2044;" horiz-adv-x="213" 
d="M-238 0l578 739h113l-576 -739h-115z" />
    <glyph glyph-name="uni2070" unicode="&#x2070;" horiz-adv-x="386" 
d="M319 558q-44 -57 -126 -57q-84 0 -127 57q-43 58 -43 148t43 148t127 58q83 0 126 -58q44 -59 44 -148t-44 -148zM193 588q73 0 73 118t-73 118q-72 0 -72 -118t72 -118z" />
    <glyph glyph-name="uni2074" unicode="&#x2074;" horiz-adv-x="370" 
d="M338 671v-75h-42v-89h-85v89h-178l-19 56l210 251h72v-232h42zM116 671h95v114z" />
    <glyph glyph-name="uni2075" unicode="&#x2075;" horiz-adv-x="341" 
d="M176 763q61 0 98 -36t37 -93q0 -29 -11 -53.5t-31 -42.5t-48.5 -28t-62.5 -10q-79 0 -140 46l37 72q53 -35 98 -35q32 0 50.5 15.5t18.5 39.5q0 22 -17.5 37.5t-46.5 15.5q-36 0 -67 -27l-46 43l24 194h216v-78h-153l-9 -69q27 9 53 9z" />
    <glyph glyph-name="uni2076" unicode="&#x2076;" horiz-adv-x="354" 
d="M329 635q0 -29 -11 -53.5t-30.5 -42.5t-46.5 -28.5t-59 -10.5q-39 0 -68.5 14t-49.5 39.5t-30 61t-10 77.5q0 93 47 157q46 63 136 63q67 0 114 -35l-36 -66q-35 23 -73 23q-45 0 -73 -31.5t-33 -77.5q30 38 89 38q60 0 97 -35.5t37 -92.5zM122 634q0 -24 17 -41t43 -17
t43.5 17t17.5 42t-17.5 41t-43.5 16t-43 -16.5t-17 -41.5z" />
    <glyph glyph-name="uni2077" unicode="&#x2077;" horiz-adv-x="299" 
d="M13 901h273v-64l-149 -328h-100l143 308h-167v84z" />
    <glyph glyph-name="uni2078" unicode="&#x2078;" horiz-adv-x="376" 
d="M188 501q-72 0 -113.5 32t-41.5 83q0 34 21 61t58 41v1q-62 29 -62 85q0 48 37.5 78t100.5 30t100.5 -30t37.5 -78q0 -58 -64 -85v-1q39 -15 60 -42t21 -59q0 -51 -41.5 -83.5t-113.5 -32.5zM241 794q0 20 -14.5 33t-38.5 13t-39 -13t-15 -33q0 -19 15 -32t39 -13
t38.5 13t14.5 32zM188 575q28 0 46 14.5t18 37.5t-17.5 37.5t-46.5 14.5q-30 0 -48 -14.5t-18 -37.5t18.5 -37.5t47.5 -14.5z" />
    <glyph glyph-name="uni2079" unicode="&#x2079;" horiz-adv-x="365" 
d="M174 912q77 0 117 -53.5t40 -140.5q0 -94 -46 -155q-47 -62 -135 -62q-68 0 -114 34l34 67q38 -23 76 -23q45 0 71.5 30t31.5 79q-36 -39 -90 -39q-60 0 -96 36t-36 91q0 30 10.5 55t30 43t46.5 28t60 10zM174 837q-26 0 -43.5 -17t-17.5 -42t17 -41t43 -16t43 16t17 41
t-17 42t-42 17z" />
    <glyph glyph-name="uni2080" unicode="&#x2080;" horiz-adv-x="386" 
d="M319 -103q-43 -58 -126 -58q-84 0 -127 58q-43 56 -43 147q0 90 43 148t127 58q83 0 126 -58q44 -59 44 -148t-44 -147zM193 -74q73 0 73 118t-73 118q-72 0 -72 -118t72 -118z" />
    <glyph glyph-name="uni2081" unicode="&#x2081;" horiz-adv-x="276" 
d="M154 239h70v-394h-94v264l-71 -53l-49 74z" />
    <glyph glyph-name="uni2082" unicode="&#x2082;" horiz-adv-x="346" 
d="M170 -72h139v-83h-272v75l129 130q46 46 46 75q0 18 -13.5 29.5t-33.5 11.5q-41 0 -96 -52l-45 68q63 68 147 68q30 0 55 -9t43 -25.5t28 -39.5t10 -50q0 -56 -56 -114z" />
    <glyph glyph-name="uni2083" unicode="&#x2083;" horiz-adv-x="333" 
d="M48 -49q55 -28 95 -28q31 -2 45.5 12t14.5 31t-15.5 30.5t-44.5 11.5h-53v79h47q23 0 41 10t18 30q0 19 -15.5 28.5t-36.5 9.5q-36 0 -79 -28l-45 66q56 47 135 47q59 0 97 -31q39 -30 39 -74q0 -32 -20 -55.5t-52 -33.5v-2q39 -9 60.5 -35t21.5 -61q2 -40 -24 -68.5
t-68.5 -41.5t-95 -6.5t-103.5 36.5z" />
    <glyph glyph-name="uni2084" unicode="&#x2084;" horiz-adv-x="370" 
d="M338 9v-75h-42v-89h-85v89h-178l-19 56l210 251h72v-232h42zM116 9h95v114z" />
    <glyph glyph-name="uni2085" unicode="&#x2085;" horiz-adv-x="341" 
d="M176 101q61 0 98 -36t37 -93q0 -29 -11 -53.5t-31 -42.5t-48.5 -28t-62.5 -10q-79 0 -140 46l37 72q53 -35 98 -35q32 0 50.5 15.5t18.5 39.5q0 22 -17.5 37.5t-46.5 15.5q-36 0 -67 -27l-46 43l24 194h216v-78h-153l-9 -69q27 9 53 9z" />
    <glyph glyph-name="uni2086" unicode="&#x2086;" horiz-adv-x="354" 
d="M329 -27q0 -29 -11 -53.5t-30.5 -42.5t-46.5 -28.5t-59 -10.5q-39 0 -68.5 14t-49.5 39.5t-30 61t-10 77.5q0 93 47 157q46 63 136 63q67 0 114 -35l-36 -66q-35 23 -73 23q-45 0 -73 -31.5t-33 -77.5q30 38 89 38q60 0 97 -35.5t37 -92.5zM122 -28q0 -24 17 -41t43 -17
t43.5 17t17.5 42t-17.5 41t-43.5 16t-43 -16.5t-17 -41.5z" />
    <glyph glyph-name="uni2087" unicode="&#x2087;" horiz-adv-x="299" 
d="M13 239h273v-64l-149 -328h-100l143 308h-167v84z" />
    <glyph glyph-name="uni2088" unicode="&#x2088;" horiz-adv-x="376" 
d="M188 -161q-72 0 -113.5 32t-41.5 83q0 34 21 61t58 41v1q-62 29 -62 85q0 48 37.5 78t100.5 30t100.5 -30t37.5 -78q0 -58 -64 -85v-1q39 -15 60 -42t21 -59q0 -51 -41.5 -83.5t-113.5 -32.5zM241 132q0 20 -14.5 33t-38.5 13t-39 -13t-15 -33q0 -19 15 -32t39 -13
t38.5 13t14.5 32zM188 -87q28 0 46 14.5t18 37.5t-17.5 37.5t-46.5 14.5q-30 0 -48 -14.5t-18 -37.5t18.5 -37.5t47.5 -14.5z" />
    <glyph glyph-name="uni2089" unicode="&#x2089;" horiz-adv-x="365" 
d="M174 250q77 0 117 -53.5t40 -140.5q0 -94 -46 -155q-47 -62 -135 -62q-68 0 -114 34l34 67q38 -23 76 -23q45 0 71.5 30t31.5 79q-36 -39 -90 -39q-60 0 -96 36t-36 91q0 30 10.5 55t30 43t46.5 28t60 10zM174 175q-26 0 -43.5 -17t-17.5 -42t17 -41t43 -16t43 16t17 41
t-17 42t-42 17z" />
    <glyph glyph-name="Euro" unicode="&#x20ac;" horiz-adv-x="767" 
d="M309 247q30 -57 83 -89t119 -32q92 0 181 50v-140q-83 -47 -198 -47q-123 0 -218 71t-130 187h-118l39 95h62q-1 5 -1 11.5v15.5v14.5t1 11.5h-85l39 95h62q35 120 129 190q94 72 220 72q139 0 237 -69l-68 -116q-71 48 -151 48q-66 0 -119.5 -33.5t-83.5 -91.5h344
l-43 -95h-329q-1 -5 -1 -11.5v-14.5v-15.5t1 -11.5h312l-38 -95h-246z" />
    <glyph glyph-name="trademark" unicode="&#x2122;" horiz-adv-x="817" 
d="M33 660v79h279v-79h-97v-271h-85v271h-97zM685 739h59v-350h-83v180l-98 -133h-34l-98 133v-180h-83v350h59l138 -192z" />
    <glyph glyph-name="estimated" unicode="&#x212e;" horiz-adv-x="953" 
d="M483 -17q-184 0 -312 110q-127 109 -127 273q0 165 127 274q127 111 312 111q183 0 310 -109q129 -110 129 -281v-21q0 -5 -7 -5h-686v-230q0 -3 4 -4q103 -72 250 -72q103 0 189 36.5t137 105.5l35 -29q-30 -37 -69.5 -66.5t-85.5 -50t-98.5 -31.5t-107.5 -11zM229 385
h508v244q0 2 -3 4q-106 73 -251 73q-146 0 -252 -73q-2 -2 -2 -5v-243z" />
    <glyph glyph-name="uni2150" unicode="&#x2150;" horiz-adv-x="885" 
d="M152 346v265l-71 -53l-49 74l144 109h70v-395h-94zM666 739h113l-576 -739h-115zM566 394h273v-64l-149 -328h-100l143 308h-167v84z" />
    <glyph glyph-name="uni2151" unicode="&#x2151;" horiz-adv-x="906" 
d="M150 346v265l-71 -53l-49 74l144 109h70v-395h-94zM668 739h113l-576 -739h-115zM710 405q77 0 117 -53.5t40 -140.5q0 -94 -46 -155q-47 -62 -135 -62q-68 0 -114 34l34 67q38 -23 76 -23q45 0 71.5 30t31.5 79q-36 -39 -90 -39q-60 0 -96 36t-36 91q0 30 10.5 55t30 43
t46.5 28t60 10zM710 330q-26 0 -43.5 -17t-17.5 -42t17 -41t43 -16t43 16t17 41t-17 42t-42 17z" />
    <glyph glyph-name="uni2153" unicode="&#x2153;" horiz-adv-x="875" 
d="M151 346v265l-71 -53l-49 74l144 109h70v-395h-94zM663 739h113l-576 -739h-115zM750 210q39 -9 60.5 -35t21.5 -61q2 -40 -24 -68.5t-68.5 -41.5t-95 -6.5t-103.5 36.5l38 73q55 -28 95 -28q31 -2 45.5 12t14.5 31t-15.5 30.5t-44.5 11.5h-53v79h47q23 0 41 10t18 30
q0 19 -15.5 28.5t-36.5 9.5q-36 0 -79 -28l-45 66q56 47 135 47q59 0 97 -31q39 -30 39 -74q0 -32 -20 -55.5t-52 -33.5v-2z" />
    <glyph glyph-name="uni2154" unicode="&#x2154;" horiz-adv-x="874" 
d="M46 422l129 130q46 46 46 75q0 18 -13.5 29.5t-33.5 11.5q-41 0 -96 -52l-45 68q63 68 147 68q30 0 55 -9t43 -25.5t28 -39.5t10 -50q0 -56 -56 -114l-81 -84h139v-83h-272v75zM693 739h113l-577 -739h-114zM739 208q39 -9 60.5 -35t21.5 -61q2 -40 -24 -68.5
t-68.5 -41.5t-95 -6.5t-103.5 36.5l38 73q55 -28 95 -28q31 -2 45.5 12t14.5 31t-15.5 30.5t-44.5 11.5h-53v79h47q23 0 41 10t18 30q0 19 -15.5 28.5t-36.5 9.5q-36 0 -79 -28l-45 66q56 47 135 47q59 0 97 -31q39 -30 39 -74q0 -32 -20 -55.5t-52 -33.5v-2z" />
    <glyph glyph-name="uni2155" unicode="&#x2155;" horiz-adv-x="869" 
d="M150 346v265l-71 -53l-49 74l144 109h70v-395h-94zM664 739h113l-577 -739h-114zM701 256q61 0 98 -36t37 -93q0 -29 -11 -53.5t-31 -42.5t-48.5 -28t-62.5 -10q-79 0 -140 46l37 72q53 -35 98 -35q32 0 50.5 15.5t18.5 39.5q0 23 -17.5 38t-46.5 15q-36 0 -67 -27
l-46 43l24 194h216v-78h-153l-9 -69q27 9 53 9z" />
    <glyph glyph-name="uni2156" unicode="&#x2156;" horiz-adv-x="868" 
d="M45 422l129 130q46 46 46 75q0 18 -13.5 29.5t-33.5 11.5q-41 0 -96 -52l-45 68q63 68 147 68q30 0 55 -9t43 -25.5t28 -39.5t10 -50q0 -56 -56 -114l-81 -84h139v-83h-272v75zM690 739h113l-576 -739h-115zM683 256q61 0 98 -36t37 -93q0 -29 -11 -53.5t-31 -42.5
t-48.5 -28t-62.5 -10q-79 0 -140 46l37 72q53 -35 98 -35q32 0 50.5 15.5t18.5 39.5q0 23 -17.5 38t-46.5 15q-36 0 -67 -27l-46 43l24 194h216v-78h-153l-9 -69q27 9 53 9z" />
    <glyph glyph-name="uni2157" unicode="&#x2157;" horiz-adv-x="836" 
d="M153 425q31 -2 45.5 12t14.5 31t-15.5 30.5t-44.5 11.5h-53v79h47q23 0 41 10t18 30q0 19 -15.5 28.5t-36.5 9.5q-36 0 -79 -28l-45 66q56 47 135 47q59 0 97 -31q39 -30 39 -74q0 -32 -20 -55.5t-52 -33.5v-2q39 -9 60.5 -35t21.5 -61q2 -40 -24 -68.5t-68.5 -41.5
t-95 -6.5t-103.5 36.5l38 73q55 -28 95 -28zM659 739h113l-576 -739h-115zM657 256q61 0 98 -36t37 -93q0 -29 -11 -53.5t-31 -42.5t-48.5 -28t-62.5 -10q-79 0 -140 46l37 72q53 -35 98 -35q32 0 50.5 15.5t18.5 39.5q0 23 -17.5 38t-46.5 15q-36 0 -67 -27l-46 43l24 194
h216v-78h-153l-9 -69q27 9 53 9z" />
    <glyph glyph-name="uni2158" unicode="&#x2158;" horiz-adv-x="893" 
d="M224 347v89h-178l-19 56l210 251h72v-232h42v-75h-42v-89h-85zM709 739h113l-576 -739h-115zM129 511h95v114zM702 256q61 0 98 -36t37 -93q0 -29 -11 -53.5t-31 -42.5t-48.5 -28t-62.5 -10q-79 0 -140 46l37 72q53 -35 98 -35q32 0 50.5 15.5t18.5 39.5q0 23 -17.5 38
t-46.5 15q-36 0 -67 -27l-46 43l24 194h216v-78h-153l-9 -69q27 9 53 9z" />
    <glyph glyph-name="uni2159" unicode="&#x2159;" horiz-adv-x="862" 
d="M150 346v265l-71 -53l-49 74l144 109h70v-395h-94zM659 739h113l-577 -739h-114zM693 256q61 0 98 -36t37 -93q0 -29 -11 -53.5t-31 -42.5t-48.5 -28t-62.5 -10q-79 0 -140 46l37 72q53 -35 98 -35q32 0 50.5 15.5t18.5 39.5q0 23 -17.5 38t-46.5 15q-36 0 -67 -27
l-46 43l24 194h216v-78h-153l-9 -69q27 9 53 9z" />
    <glyph glyph-name="uni215A" unicode="&#x215a;" horiz-adv-x="874" 
d="M162 423q32 0 50.5 15.5t18.5 39.5q0 22 -17.5 37.5t-46.5 15.5q-36 0 -67 -27l-46 43l24 194h216v-78h-153l-9 -69q27 9 53 9q61 0 98 -36t37 -93q0 -29 -11 -53.5t-31 -42.5t-48.5 -28t-62.5 -10q-79 0 -140 46l37 72q53 -35 98 -35zM678 739h114l-577 -739h-115z
M826 128q0 -29 -11 -53.5t-30.5 -42.5t-46.5 -28.5t-59 -10.5q-39 0 -68.5 14t-49.5 39.5t-30 61t-10 77.5q0 93 47 157q46 63 136 63q67 0 114 -35l-36 -66q-35 23 -73 23q-45 0 -73 -31.5t-33 -77.5q30 38 89 38q60 0 97 -35.5t37 -92.5zM619 127q0 -24 17 -41t43 -17
t43.5 17t17.5 42t-17.5 41t-43.5 16t-43 -16.5t-17 -41.5z" />
    <glyph glyph-name="oneeighth" unicode="&#x215b;" horiz-adv-x="890" 
d="M150 346v265l-71 -53l-49 74l144 109h70v-395h-94zM670 739h113l-576 -739h-115zM772 211q39 -15 60 -42t21 -59q0 -51 -41.5 -83.5t-113.5 -32.5t-113.5 32t-41.5 83q0 34 21 61t58 41v1q-62 29 -62 85q0 48 37.5 78t100.5 30t100.5 -30t37.5 -78q0 -58 -64 -85v-1z
M644 287q0 -19 15 -32t39 -13t38.5 13t14.5 32q0 20 -14.5 33t-38.5 13t-39 -13t-15 -33zM698 68q28 0 46 14.5t18 37.5t-17.5 37.5t-46.5 14.5q-30 0 -48 -14.5t-18 -37.5t18.5 -37.5t47.5 -14.5z" />
    <glyph glyph-name="threeeighths" unicode="&#x215c;" horiz-adv-x="870" 
d="M58 453q55 -28 95 -28q31 -2 45.5 12t14.5 31t-15.5 30.5t-44.5 11.5h-53v79h47q23 0 41 10t18 30q0 19 -15.5 28.5t-36.5 9.5q-36 0 -79 -28l-45 66q56 47 135 47q59 0 97 -31q39 -30 39 -74q0 -32 -20 -55.5t-52 -33.5v-2q39 -9 60.5 -35t21.5 -61q2 -40 -24 -68.5
t-68.5 -41.5t-95 -6.5t-103.5 36.5zM98 0l578 739h114l-577 -739h-115zM682 -6q-72 0 -113.5 32t-41.5 83q0 34 21 61t58 41v1q-62 29 -62 85q0 48 37.5 78t100.5 30t100.5 -30t37.5 -78q0 -58 -64 -85v-1q39 -15 60 -42t21 -59q0 -51 -41.5 -83.5t-113.5 -32.5zM735 287
q0 20 -14.5 33t-38.5 13t-39 -13t-15 -33q0 -19 15 -32t39 -13t38.5 13t14.5 32zM682 68q28 0 46 14.5t18 37.5t-17.5 37.5t-46.5 14.5q-30 0 -48 -14.5t-18 -37.5t18.5 -37.5t47.5 -14.5z" />
    <glyph glyph-name="fiveeighths" unicode="&#x215d;" horiz-adv-x="881" 
d="M162 423q32 0 50.5 15.5t18.5 39.5q0 22 -17.5 37.5t-46.5 15.5q-36 0 -67 -27l-46 43l24 194h216v-78h-153l-9 -69q27 9 53 9q61 0 98 -36t37 -93q0 -29 -11 -53.5t-31 -42.5t-48.5 -28t-62.5 -10q-79 0 -140 46l37 72q53 -35 98 -35zM688 739h113l-576 -739h-115z
M767 211q39 -15 60 -42t21 -59q0 -51 -41.5 -83.5t-113.5 -32.5t-113.5 32t-41.5 83q0 34 21 61t58 41v1q-62 29 -62 85q0 48 37.5 78t100.5 30t100.5 -30t37.5 -78q0 -58 -64 -85v-1zM639 287q0 -19 15 -32t39 -13t38.5 13t14.5 32q0 20 -14.5 33t-38.5 13t-39 -13t-15 -33
zM693 68q28 0 46 14.5t18 37.5t-17.5 37.5t-46.5 14.5q-30 0 -48 -14.5t-18 -37.5t18.5 -37.5t47.5 -14.5z" />
    <glyph glyph-name="seveneighths" unicode="&#x215e;" horiz-adv-x="820" 
d="M54 349l143 308h-167v84h273v-64l-149 -328h-100zM620 739h114l-577 -739h-115zM706 211q39 -15 60 -42t21 -59q0 -51 -41.5 -83.5t-113.5 -32.5t-113.5 32t-41.5 83q0 34 21 61t58 41v1q-62 29 -62 85q0 48 37.5 78t100.5 30t100.5 -30t37.5 -78q0 -58 -64 -85v-1z
M578 287q0 -19 15 -32t39 -13t38.5 13t14.5 32q0 20 -14.5 33t-38.5 13t-39 -13t-15 -33zM632 68q28 0 46 14.5t18 37.5t-17.5 37.5t-46.5 14.5q-30 0 -48 -14.5t-18 -37.5t18.5 -37.5t47.5 -14.5z" />
    <glyph glyph-name="partialdiff" unicode="&#x2202;" horiz-adv-x="622" 
d="M291 -12q-111 0 -184 72q-72 72 -72 181q0 107 68 180q67 71 172 73q101 0 158 -81q-22 91 -87 168t-161 126l84 99q51 -25 100 -63t100 -95t81.5 -138t30.5 -172q0 -150 -81 -250t-209 -100zM295 110q53 0 91 39q37 38 37 95q0 54 -37 91q-36 38 -88 38q-53 0 -90 -39
q-36 -38 -36 -94q0 -54 35 -92t88 -38z" />
    <glyph glyph-name="product" unicode="&#x220f;" horiz-adv-x="756" 
d="M722 734v-143h-93v-709h-149v709h-204v-709h-149v709h-93v143h688z" />
    <glyph glyph-name="summation" unicode="&#x2211;" 
d="M45 -179v120l207 338l-207 340v120h574v-140h-389l187 -320l-187 -318h389v-140h-574z" />
    <glyph glyph-name="minus" unicode="&#x2212;" horiz-adv-x="589" 
d="M63 267v131h462v-131h-462z" />
    <glyph glyph-name="radical" unicode="&#x221a;" horiz-adv-x="737" 
d="M295 -118l-169 432h-124v131h232l126 -348l241 711h157l-338 -926h-125z" />
    <glyph glyph-name="infinity" unicode="&#x221e;" horiz-adv-x="943" 
d="M693 576q86 0 147 -61q61 -60 61 -145q0 -84 -62 -146q-61 -61 -148 -61q-58 0 -104 30t-115 100q-72 -72 -120 -101q-50 -29 -104 -29q-85 0 -146 61q-60 61 -60 145q0 85 61 146t148 61q51 0 100 -28q50 -27 121 -97q71 69 120 97t101 28zM249 277q30 0 62.5 22
t82.5 72q-27 26 -47 43t-36 27.5t-29.5 14.5t-26.5 4q-20 0 -36.5 -7.5t-29.5 -20t-20 -29.5t-7 -36q0 -38 25 -64t62 -26zM686 277q19 0 36.5 7t30.5 20t20.5 29.5t7.5 36.5q0 19 -7.5 35.5t-20 28.5t-29.5 19t-36 7q-32 0 -62 -19.5t-77 -67.5q28 -29 48.5 -48t34.5 -29
q28 -19 54 -19z" />
    <glyph glyph-name="integral" unicode="&#x222b;" horiz-adv-x="479" 
d="M105 -210q-70 0 -126 32l33 117q35 -20 71 -20q39 0 64.5 26.5t25.5 86.5v570q0 56 14.5 97.5t40.5 69.5t62 41.5t79 13.5q71 0 133 -35l-40 -116q-34 20 -71 20q-39 0 -64 -27t-25 -87v-569q0 -111 -59 -165q-58 -55 -138 -55z" />
    <glyph glyph-name="approxequal" unicode="&#x2248;" horiz-adv-x="653" 
d="M415 385q-53 0 -116 31t-88 31q-24 0 -43 -13t-47 -48l-83 68q30 57 76.5 85t101.5 28q53 0 115 -31q64 -30 90 -30q25 0 44.5 14t45.5 51l85 -71q-67 -115 -181 -115zM420 165q-53 0 -116 31t-88 31q-24 0 -43 -13t-47 -48l-83 68q30 57 76.5 85t101.5 28q53 0 115 -31
q64 -30 90 -30q25 0 44.5 14t45.5 51l85 -71q-67 -115 -181 -115z" />
    <glyph glyph-name="notequal" unicode="&#x2260;" horiz-adv-x="590" 
d="M526 366h-174l-32 -77h206v-117h-255l-44 -106h-84l44 106h-123v117h172l32 77h-204v117h253l45 107h84l-45 -107h125v-117z" />
    <glyph glyph-name="lessequal" unicode="&#x2264;" horiz-adv-x="578" 
d="M508 193l-452 186v94l452 189v-134l-276 -101l276 -101v-133zM508 40h-457v116h457v-116z" />
    <glyph glyph-name="greaterequal" unicode="&#x2265;" horiz-adv-x="578" 
d="M70 193v133l276 101l-276 101v134l452 -189v-94zM70 40v116h457v-116h-457z" />
    <glyph glyph-name="lozenge" unicode="&#x25ca;" horiz-adv-x="706" 
d="M294 -42l-264 418l264 416h118l264 -416l-264 -418h-118zM353 123l158 255l-158 251l-158 -251z" />
    <glyph glyph-name="NULL" horiz-adv-x="0" 
 />
    <glyph glyph-name="Euro.osf" horiz-adv-x="590" 
d="M213 247q14 -69 66 -112t129 -43q71 0 153 43v-109q-65 -37 -165 -37q-120 0 -202 72t-97 186h-90l36 81h1l2 4h50q13 118 99 193q85 75 203 75t198 -55l-48 -90q-65 39 -137 39q-38 0 -71.5 -12t-60 -33t-44.5 -51t-24 -66h293l-37 -81h-5l-2 -4h-247z" />
    <glyph glyph-name="I_J.loclNLD" horiz-adv-x="895" 
d="M82 739h149v-739h-149v739zM544 -12q-138 0 -229 91l72 116q65 -65 146 -65q64 0 102 40t38 112v457h148v-462q0 -144 -78 -217q-78 -72 -199 -72z" />
    <glyph glyph-name="Iacute_J.loclNLD" horiz-adv-x="892" 
d="M90 795l65 183h163l-98 -183h-130zM677 794l65 183h163l-98 -183h-130zM82 739h149v-739h-149v739zM544 -12q-138 0 -229 91l72 116q65 -65 146 -65q64 0 102 40t38 112v457h148v-462q0 -144 -78 -217q-78 -72 -199 -72z" />
    <glyph glyph-name="J.loclNLD" horiz-adv-x="581" 
d="M366 794l65 183h163l-98 -183h-130zM233 -12q-138 0 -229 91l72 116q65 -65 146 -65q64 0 102 40t38 112v457h148v-462q0 -144 -78 -217q-78 -72 -199 -72z" />
    <glyph glyph-name="Jacute" horiz-adv-x="581" 
d="M368 794l65 183h163l-98 -183h-130zM233 -12q-138 0 -229 91l72 116q65 -65 146 -65q64 0 102 40t38 112v457h148v-462q0 -144 -78 -217q-78 -72 -199 -72z" />
    <glyph glyph-name="_1" horiz-adv-x="0" 
 />
    <glyph glyph-name="a.ss02" horiz-adv-x="583" 
d="M277 559q47 0 91.5 -11.5t79.5 -39t56.5 -72.5t21.5 -112v-324h-128v60q-62 -74 -174 -74q-91 0 -144 50q-52 49 -52 126q0 84 65 128t179 45q59 2 89.5 3t32.5 1q-10 97 -124 97q-88 0 -169 -45l-50 104q103 64 226 64zM248 100q59 0 100 38q40 37 45 97
q-22 -2 -46.5 -3t-50.5 -1q-67 -1 -99.5 -14.5t-32.5 -51.5q0 -30 23 -47.5t61 -17.5z" />
    <glyph glyph-name="aacute.ss02" horiz-adv-x="583" 
d="M439 802l-94 -176h-125l62 176h157zM277 559q47 0 91.5 -11.5t79.5 -39t56.5 -72.5t21.5 -112v-324h-128v60q-62 -74 -174 -74q-91 0 -144 50q-52 49 -52 126q0 84 65 128t179 45q59 2 89.5 3t32.5 1q-10 97 -124 97q-88 0 -169 -45l-50 104q103 64 226 64zM248 100
q59 0 100 38q40 37 45 97q-22 -2 -46.5 -3t-50.5 -1q-67 -1 -99.5 -14.5t-32.5 -51.5q0 -30 23 -47.5t61 -17.5z" />
    <glyph glyph-name="abreve.ss02" horiz-adv-x="583" 
d="M290 621q-82 0 -132.5 48t-55.5 133h111q2 -38 21.5 -62t55.5 -24t55.5 24t21.5 62h113q-5 -85 -55.5 -133t-134.5 -48zM277 559q47 0 91.5 -11.5t79.5 -39t56.5 -72.5t21.5 -112v-324h-128v60q-62 -74 -174 -74q-91 0 -144 50q-52 49 -52 126q0 84 65 128t179 45
q59 2 89.5 3t32.5 1q-10 97 -124 97q-88 0 -169 -45l-50 104q103 64 226 64zM248 100q59 0 100 38q40 37 45 97q-22 -2 -46.5 -3t-50.5 -1q-67 -1 -99.5 -14.5t-32.5 -51.5q0 -30 23 -47.5t61 -17.5z" />
    <glyph glyph-name="acircumflex.ss02" horiz-adv-x="583" 
d="M285 712l-65 -86h-134l148 176h105l149 -176h-138zM277 559q47 0 91.5 -11.5t79.5 -39t56.5 -72.5t21.5 -112v-324h-128v60q-62 -74 -174 -74q-91 0 -144 50q-52 49 -52 126q0 84 65 128t179 45q59 2 89.5 3t32.5 1q-10 97 -124 97q-88 0 -169 -45l-50 104q103 64 226 64
zM248 100q59 0 100 38q40 37 45 97q-22 -2 -46.5 -3t-50.5 -1q-67 -1 -99.5 -14.5t-32.5 -51.5q0 -30 23 -47.5t61 -17.5z" />
    <glyph glyph-name="acute.case" horiz-adv-x="341" 
d="M40 795l65 183h163l-98 -183h-130z" />
    <glyph glyph-name="adieresis.ss02" horiz-adv-x="583" 
d="M99 702q0 17 6.5 32t18 26t26.5 17.5t33 6.5t33 -6.5t26.5 -17.5t18 -26t6.5 -32q0 -37 -24 -61t-60 -24t-60 24t-24 61zM401 617q-36 0 -60.5 24t-24.5 61q0 35 24.5 58.5t60.5 23.5q35 0 59 -24t24 -58q0 -37 -24 -61t-59 -24zM277 559q47 0 91.5 -11.5t79.5 -39
t56.5 -72.5t21.5 -112v-324h-128v60q-62 -74 -174 -74q-91 0 -144 50q-52 49 -52 126q0 84 65 128t179 45q59 2 89.5 3t32.5 1q-10 97 -124 97q-88 0 -169 -45l-50 104q103 64 226 64zM248 100q59 0 100 38q40 37 45 97q-22 -2 -46.5 -3t-50.5 -1q-67 -1 -99.5 -14.5
t-32.5 -51.5q0 -30 23 -47.5t61 -17.5z" />
    <glyph glyph-name="agrave.ss02" horiz-adv-x="583" 
d="M367 627h-125l-94 176h157zM277 559q47 0 91.5 -11.5t79.5 -39t56.5 -72.5t21.5 -112v-324h-128v60q-62 -74 -174 -74q-91 0 -144 50q-52 49 -52 126q0 84 65 128t179 45q59 2 89.5 3t32.5 1q-10 97 -124 97q-88 0 -169 -45l-50 104q103 64 226 64zM248 100q59 0 100 38
q40 37 45 97q-22 -2 -46.5 -3t-50.5 -1q-67 -1 -99.5 -14.5t-32.5 -51.5q0 -30 23 -47.5t61 -17.5z" />
    <glyph glyph-name="amacron.ss02" horiz-adv-x="583" 
d="M455 761v-122l-327 -2v124h327zM277 559q47 0 91.5 -11.5t79.5 -39t56.5 -72.5t21.5 -112v-324h-128v60q-62 -74 -174 -74q-91 0 -144 50q-52 49 -52 126q0 84 65 128t179 45q59 2 89.5 3t32.5 1q-10 97 -124 97q-88 0 -169 -45l-50 104q103 64 226 64zM248 100
q59 0 100 38q40 37 45 97q-22 -2 -46.5 -3t-50.5 -1q-67 -1 -99.5 -14.5t-32.5 -51.5q0 -30 23 -47.5t61 -17.5z" />
    <glyph glyph-name="aogonek.ss02" horiz-adv-x="581" 
d="M540 -234q-50 -30 -106 -30q-58 0 -90.5 32t-32.5 83q0 86 98 149h-11v60q-62 -74 -174 -74q-91 0 -144 50q-52 49 -52 126q0 84 65 128t179 45q59 2 89.5 3t32.5 1q-10 97 -124 97q-88 0 -169 -45l-50 104q103 64 226 64q47 0 91.5 -11.5t79.5 -39t56.5 -72.5t21.5 -112
v-324h-1q-21 -9 -38.5 -22.5t-31 -29t-21 -31.5t-7.5 -31q0 -30 23.5 -38t58.5 8zM248 100q59 0 100 38q40 37 45 97q-22 -2 -46.5 -3t-50.5 -1q-67 -1 -99.5 -14.5t-32.5 -51.5q0 -30 23 -47.5t61 -17.5z" />
    <glyph glyph-name="aring.ss02" horiz-adv-x="583" 
d="M291 607q-57 0 -95 37q-38 38 -38 90q0 53 38 91q40 38 95 38t93 -38q39 -38 39 -91t-39 -90q-37 -37 -93 -37zM291 787q-22 0 -37.5 -14.5t-15.5 -36.5t15.5 -37.5t37.5 -15.5q21 0 36 15.5t15 37.5t-15 36.5t-36 14.5zM277 559q47 0 91.5 -11.5t79.5 -39t56.5 -72.5
t21.5 -112v-324h-128v60q-62 -74 -174 -74q-91 0 -144 50q-52 49 -52 126q0 84 65 128t179 45q59 2 89.5 3t32.5 1q-10 97 -124 97q-88 0 -169 -45l-50 104q103 64 226 64zM248 100q59 0 100 38q40 37 45 97q-22 -2 -46.5 -3t-50.5 -1q-67 -1 -99.5 -14.5t-32.5 -51.5
q0 -30 23 -47.5t61 -17.5z" />
    <glyph glyph-name="at.case" horiz-adv-x="966" 
d="M587 569h107v-258q0 -31 13 -47t32 -16q35 0 63 46t28 115q0 132 -99 224q-98 91 -238 89q-145 -1 -246 -106q-101 -104 -101 -249q0 -149 106 -254t257 -105q72 0 142.5 25t124.5 67l49 -82q-26 -22 -60 -41t-79 -35q-88 -32 -182 -32q-195 0 -329 134
q-134 136 -134 323q0 188 132 320q132 133 322 133q187 0 313 -120q126 -119 126 -286q0 -114 -62 -191q-62 -75 -151 -75q-88 0 -118 74q-53 -74 -151 -74q-86 0 -145 62q-58 61 -58 155t58 156q58 63 147 63q84 0 133 -58v43zM473 249q47 0 80 33q33 34 33 83q0 50 -33 85
q-32 35 -79 35q-24 0 -45 -9t-36 -25t-24 -38t-9 -47t8.5 -46.5t24 -37t36 -24.5t44.5 -9z" />
    <glyph glyph-name="atilde.ss02" horiz-adv-x="583" 
d="M233 673q-39 0 -64 -51l-90 44q49 115 144 115q34 0 75 -22q43 -21 59 -21q33 0 59 47l89 -42q-20 -55 -55 -85t-80 -30q-32 0 -75 22q-44 23 -62 23zM277 559q47 0 91.5 -11.5t79.5 -39t56.5 -72.5t21.5 -112v-324h-128v60q-62 -74 -174 -74q-91 0 -144 50
q-52 49 -52 126q0 84 65 128t179 45q59 2 89.5 3t32.5 1q-10 97 -124 97q-88 0 -169 -45l-50 104q103 64 226 64zM248 100q59 0 100 38q40 37 45 97q-22 -2 -46.5 -3t-50.5 -1q-67 -1 -99.5 -14.5t-32.5 -51.5q0 -30 23 -47.5t61 -17.5z" />
    <glyph glyph-name="backslash.case" horiz-adv-x="596" 
d="M576 0h-153l-405 739h154z" />
    <glyph glyph-name="braceleft.case" horiz-adv-x="415" 
d="M185 366q19 -6 37 -17.5t32 -27t22 -35.5t8 -44q0 -13 -1.5 -36t-3.5 -55t-3.5 -54.5t-1.5 -36.5q0 -79 80 -79h28v-134h-69q-182 0 -182 188q0 15 1 38t3 54q2 32 3 53.5t1 34.5q0 52 -29 71.5t-86 25.5v112q57 7 86 26t29 71q0 13 -1 35t-3 54t-3 56.5t-1 41.5
q0 181 190 181h61v-134h-28q-80 0 -80 -78q0 -14 1.5 -37t3.5 -56q2 -32 3.5 -54.5t1.5 -35.5q0 -24 -8 -44t-22 -36t-32 -27.5t-37 -17.5v-3z" />
    <glyph glyph-name="braceright.case" horiz-adv-x="415" 
d="M231 370q-20 6 -38 17.5t-31.5 27.5t-22 36t-8.5 44q0 13 1.5 35.5t3.5 54.5q6 66 6 93q0 78 -80 78h-28v134h61q190 0 190 -182q0 -17 -1.5 -41l-3.5 -56t-3 -54t-1 -35q0 -55 35 -74q18 -10 35.5 -14.5t44.5 -8.5v-112q-57 -6 -86 -25.5t-29 -71.5q0 -13 1 -34.5
t3 -53.5q2 -31 3.5 -54t1.5 -38q0 -188 -183 -188h-68v134h28q80 0 80 79q0 26 -6 91q-2 32 -3.5 55t-1.5 36q0 48 30 80t70 44v3z" />
    <glyph glyph-name="bracketleft.case" horiz-adv-x="417" 
d="M82 -147v1038h312v-125h-167v-788h167v-125h-312z" />
    <glyph glyph-name="bracketright.case" horiz-adv-x="417" 
d="M23 -147v125h167v788h-167v125h311v-1038h-311z" />
    <glyph glyph-name="breve.case" horiz-adv-x="482" 
d="M156 976q2 -40 22.5 -64.5t57.5 -24.5q36 0 56.5 24.5t22.5 64.5h118q-5 -88 -57.5 -138t-139.5 -50t-138.5 50t-57.5 138h116z" />
    <glyph glyph-name="brevecombcy" horiz-adv-x="0" 
d="M-239 590q-128 0 -219 115l75 78q38 -48 71 -66t73 -18t73 18.5t72 65.5l75 -78q-94 -115 -220 -115z" />
    <glyph glyph-name="caron.alt" horiz-adv-x="312" 
d="M25 624l64 179h147l-92 -179h-119z" />
    <glyph glyph-name="caron.case" horiz-adv-x="537" 
d="M69 968h134l65 -86l65 86h138l-149 -176h-105z" />
    <glyph glyph-name="cedilla.case" horiz-adv-x="345" 
d="M202 -48q45 -2 76.5 -28.5t31.5 -71.5q0 -24 -10 -46t-28.5 -38.5t-46 -26t-61.5 -9.5q-61 0 -124 31l31 81q42 -21 81 -21q26 0 39 11t13 27q0 34 -56 34h-54l-8 27l39 98l104 -2z" />
    <glyph glyph-name="circumflex.case" horiz-adv-x="529" 
d="M39 796l154 183h109l155 -183h-144l-67 89l-68 -89h-139z" />
    <glyph glyph-name="colon.case" horiz-adv-x="292" 
d="M147 441q-35 0 -59 23.5t-24 58.5q0 34 24 57t59 23q33 0 56.5 -23t23.5 -57q0 -35 -23.5 -58.5t-56.5 -23.5zM147 102q-35 0 -59 23.5t-24 58.5q0 34 24 57t59 23q33 0 56.5 -23t23.5 -57q0 -35 -23.5 -58.5t-56.5 -23.5z" />
    <glyph glyph-name="comma.ss03" horiz-adv-x="253" 
d="M86 135h138l-108 -315h-109z" />
    <glyph glyph-name="commaccent" horiz-adv-x="249" 
d="M137 -66q36 0 61 -25t25 -64q0 -48 -35.5 -91.5t-108.5 -95.5l-48 60q60 46 78 66q-23 6 -38.5 26.5t-15.5 45.5q0 32 23.5 55t58.5 23z" />
    <glyph glyph-name="commaccent.case" horiz-adv-x="228" 
d="M141 -68q37 0 62.5 -24.5t25.5 -66.5q0 -48 -36 -93.5t-111 -97.5l-49 61q54 39 81 68q-24 6 -40.5 27t-16.5 47q0 33 24 56t60 23z" />
    <glyph glyph-name="dieresis.case" horiz-adv-x="474" 
d="M43 885q0 34 24 57.5t59 23.5t59 -23.5t24 -57.5q0 -36 -24 -60t-59 -24t-59 24t-24 60zM340 801q-36 0 -59.5 23.5t-23.5 60.5q0 34 24 57.5t59 23.5q34 0 58 -23.5t24 -57.5q0 -36 -24 -60t-58 -24z" />
    <glyph glyph-name="dollar.osf" horiz-adv-x="520" 
d="M494 168q0 -66 -45.5 -112t-118.5 -62v-116h-122v113q-122 21 -184 120l86 81q26 -40 66 -63t88 -23q39 0 62.5 15.5t23.5 41.5q0 20 -14.5 32t-44.5 26q-52 22 -87 38t-52 26q-95 57 -95 142q0 66 42.5 109.5t114.5 57.5v109h123v-110q78 -15 143 -74l-73 -90
q-65 55 -135 55q-37 0 -59 -14t-22 -38q0 -18 17 -32.5t53 -30.5l68 -30q26 -11 44 -19.5t29 -13.5q92 -53 92 -138z" />
    </font>
</defs>
</svg>
