<?xml version="1.0" standalone="no"?>
<!DOCTYPE svg PUBLIC "-//W3C//DTD SVG 1.1//EN" "http://www.w3.org/Graphics/SVG/1.1/DTD/svg11.dtd" >
<svg xmlns="http://www.w3.org/2000/svg" xmlns:xlink="http://www.w3.org/1999/xlink" version="1.1">
<metadata>
Created by FontForge 20201107 at Tue Jun 29 03:18:51 2021
 By 
Copyright (c) 2017 by Kastelov. All rights reserved.
</metadata>
<defs>
<font id="FSAxiformaRegular" horiz-adv-x="645" >
  <font-face 
    font-family="FS Axiforma Regular"
    font-weight="400"
    font-stretch="normal"
    units-per-em="1000"
    panose-1="0 0 5 0 0 0 0 0 0 0"
    ascent="771"
    descent="-229"
    x-height="535"
    cap-height="739"
    bbox="-415 -317 2530 1171"
    underline-thickness="50"
    underline-position="-100"
    unicode-range="U+000D-25CA"
  />
<missing-glyph horiz-adv-x="130" 
 />
    <glyph glyph-name="f_b" unicode="fb" horiz-adv-x="1062" 
d="M119 570q0 96 50 148t132 52q65 0 121 -30l-30 -78q-45 19 -79 19q-98 0 -98 -112v-33h171v-82h-171v-454h-96v454h-93v82h93v34zM754 549q114 0 190 -82q77 -82 77 -199t-77 -200q-77 -81 -191 -81q-116 0 -188 91v-78h-96v757h96v-302q73 94 189 94zM742 77
q82 0 131 55q51 55 51 137q0 79 -51 135q-49 55 -131 55q-83 0 -132 -55t-49 -135q0 -82 49 -137t132 -55z" />
    <glyph glyph-name="f_f" unicode="ff" horiz-adv-x="769" 
d="M702 681q-55 0 -84 -28.5t-29 -83.5v-33h170v-82h-170v-454h-96v454h-278v-454h-96v454h-93v82h93v35q0 96 58.5 147.5t157.5 51.5q78 0 152 -38l-34 -78q-68 27 -109 27q-60 0 -94.5 -29t-34.5 -83v-33h278v35q0 96 54 147.5t144 51.5q66 0 122 -29l-30 -79
q-45 19 -81 19z" />
    <glyph glyph-name="f_f_i" unicode="ffi" horiz-adv-x="1019" 
d="M687 681q-98 0 -98 -112v-33h195v-82h-195v-454h-96v454h-278v-454h-96v454h-93v82h93v35q0 96 58.5 147.5t157.5 51.5q78 0 152 -38l-33 -78q-68 27 -111 27q-60 0 -94 -29t-34 -83v-33h278v34q0 96 49.5 148t133.5 52q65 0 121 -30l-31 -78q-45 19 -79 19zM898 750
q28 0 48 -20t20 -48q0 -30 -19.5 -49.5t-48.5 -19.5t-49 19.5t-20 49.5q0 29 20 48.5t49 19.5zM849 0v536h96v-536h-96z" />
    <glyph glyph-name="f_f_j" unicode="ffj" horiz-adv-x="1019" 
d="M770 454h-181v-454h-96v454h-278v-454h-96v454h-93v82h93v35q0 96 58.5 147.5t157.5 51.5q76 0 152 -38l-33 -78q-68 27 -111 27q-60 0 -94 -29t-34 -83v-33h278v34q0 96 49.5 148t133.5 52q65 0 121 -30l-31 -78q-45 19 -79 19q-98 0 -98 -112v-33h181v-82zM898 750
q28 0 48 -20t20 -48q0 -30 -19.5 -49.5t-48.5 -19.5t-49 19.5t-20 49.5q0 29 20 48.5t49 19.5zM849 536h96v-561q0 -100 -47.5 -152t-129.5 -52q-61 0 -95 22l19 80q39 -14 64 -14q93 0 93 110v567z" />
    <glyph glyph-name="f_h" unicode="fh" horiz-adv-x="1011" 
d="M119 570q0 96 50 148t132 52q65 0 121 -30l-30 -78q-45 19 -79 19q-98 0 -98 -112v-33h171v-82h-171v-454h-96v454h-93v82h93v34zM732 550q89 0 150 -58t61 -167v-325h-95v298q0 79 -37.5 121t-98.5 42q-33 0 -60 -12t-46.5 -33.5t-30 -51.5t-10.5 -66v-298h-96v757h93
v-287q25 36 70 58t100 22z" />
    <glyph glyph-name="f_i" unicode="fi" 
d="M119 570q0 96 49.5 148t133.5 52q65 0 121 -30l-31 -78q-45 19 -79 19q-98 0 -98 -112v-33h171v-82h-171v-454h-96v454h-93v82h93v34zM524 749q28 0 48 -19.5t20 -48.5q0 -30 -19.5 -49.5t-48.5 -19.5t-49 19.5t-20 49.5q0 29 20 48.5t49 19.5zM475 0v536h96v-536h-96z
" />
    <glyph glyph-name="f_j" unicode="fj" 
d="M395 454h-180v-454h-96v454h-93v82h93v34q0 96 49.5 148t133.5 52q65 0 121 -30l-31 -78q-45 19 -79 19q-98 0 -98 -112v-33h180v-82zM524 749q28 0 48 -19.5t20 -48.5q0 -30 -19.5 -49.5t-48.5 -19.5t-49 19.5t-20 49.5q0 29 20 48.5t49 19.5zM475 536h96v-561
q0 -100 -47.5 -152t-129.5 -52q-61 0 -95 22l19 80q39 -14 64 -14q93 0 93 110v567z" />
    <glyph glyph-name="f_k" unicode="fk" horiz-adv-x="939" 
d="M119 570q0 96 50 148t132 52q65 0 121 -30l-30 -78q-45 19 -79 19q-98 0 -98 -112v-33h171v-82h-171v-454h-96v454h-93v82h93v34zM818 0l-202 250l-51 -46v-204h-96v757h96v-438l240 217h130l-251 -225l260 -311h-126z" />
    <glyph glyph-name="f_l" unicode="fl" horiz-adv-x="639" 
d="M119 570q0 97 47.5 148.5t131.5 51.5q65 0 121 -30l-27 -78q-45 19 -79 19q-98 0 -98 -112v-33h171v-82h-171v-454h-96v454h-93v82h93v34zM469 757h96v-757h-96v757z" />
    <glyph glyph-name=".notdef" horiz-adv-x="130" 
 />
    <glyph glyph-name=".null" horiz-adv-x="0" 
 />
    <glyph glyph-name="nonmarkingreturn" unicode="&#xd;" horiz-adv-x="333" 
 />
    <glyph glyph-name="CR.001" horiz-adv-x="130" 
 />
    <glyph glyph-name="CR.001" horiz-adv-x="130" 
 />
    <glyph glyph-name="space" unicode=" " horiz-adv-x="247" 
 />
    <glyph glyph-name="exclam" unicode="!" horiz-adv-x="295" 
d="M99 180l-4 561h106l-6 -561h-96zM149 -12q-28 0 -46.5 18.5t-18.5 46.5q0 26 18.5 44t46.5 18q26 0 44.5 -18t18.5 -44q0 -28 -18 -46.5t-45 -18.5z" />
    <glyph glyph-name="quotedbl" unicode="&#x22;" horiz-adv-x="468" 
d="M46 446l82 293h116l-109 -293h-89zM249 446l82 293h116l-109 -293h-89z" />
    <glyph glyph-name="numbersign" unicode="#" horiz-adv-x="704" 
d="M654 461h-107l-32 -171h107l-15 -79h-107l-40 -211h-89l40 211h-173l-40 -211h-90l41 211h-114l14 79h115l33 171h-116l16 79h115l39 199h88l-38 -199h173l38 199h88l-38 -199h108zM426 290l33 171h-173l-33 -171h173z" />
    <glyph glyph-name="dollar" unicode="$" horiz-adv-x="565" 
d="M523 200q0 -84 -54 -139t-140 -69v-104h-74v101q-72 6 -132 44.5t-92 107.5l75 61q57 -118 174 -118q31 0 56 8.5t42 23.5t26.5 35t9.5 43q0 61 -76 104q-7 4 -25 12t-47 22q-58 28 -86 46q-110 69 -110 175q0 39 13.5 73.5t39 60.5t61 42.5t79.5 21.5v92h74v-94
q106 -19 170 -106l-68 -64q-60 79 -147 79q-49 0 -82 -27t-33 -72q0 -57 64 -97q9 -5 30 -16t55 -28q65 -31 94 -48q103 -63 103 -170z" />
    <glyph glyph-name="percent" unicode="%" horiz-adv-x="880" 
d="M354 441q-56 -53 -132 -53q-77 0 -133 53q-55 54 -55 129q0 76 55 128q55 54 133 54q76 0 132 -54q55 -52 55 -128q0 -75 -55 -129zM115 0l544 739h101l-545 -739h-100zM222 678q-48 0 -78.5 -31t-30.5 -77q0 -23 8.5 -43t23 -34.5t34.5 -23t43 -8.5t43 8.5t34.5 23
t23 34.5t8.5 43t-8.5 42.5t-23 34t-34.5 23t-43 8.5zM470 168q0 75 55 129t133 54q77 0 133 -54t56 -129q0 -74 -56 -127t-133 -53t-133 53q-55 52 -55 127zM658 61q48 0 79 30.5t31 76.5q0 48 -31 79.5t-79 31.5q-23 0 -43 -8.5t-34.5 -23.5t-23 -35t-8.5 -44
q0 -23 8.5 -42.5t23.5 -33.5t34.5 -22.5t42.5 -8.5z" />
    <glyph glyph-name="ampersand" unicode="&#x26;" horiz-adv-x="698" 
d="M695 55l-53 -62l-121 107q-112 -110 -238 -110q-102 0 -172 63q-70 64 -70 154q0 137 136 216q-44 64 -44 138q0 77 57 133q58 56 137 56q70 0 120 -44q51 -44 51 -110q0 -37 -15 -66.5t-43 -51.5q-27 -21 -55.5 -37t-66.5 -34l-16 -7q25 -24 57 -51l154 -135
q33 41 72 104l64 -50q-16 -28 -34.5 -55t-39.5 -53zM325 679q-23 0 -42.5 -9t-34 -24.5t-23 -37t-8.5 -46.5q0 -58 31 -102q94 43 120 63q43 31 43 73q0 35 -24.5 59t-61.5 24zM293 72q84 0 167 82l-174 154q-20 18 -34.5 31.5t-22.5 21.5q-93 -60 -93 -149q0 -59 44 -100
q44 -40 113 -40z" />
    <glyph glyph-name="quotesingle" unicode="'" horiz-adv-x="262" 
d="M44 446l82 293h116l-109 -293h-89z" />
    <glyph glyph-name="parenleft" unicode="(" horiz-adv-x="391" 
d="M342 -220q-143 76 -223 212q-78 133 -78 302q0 84 20 160.5t58.5 142.5t95 119.5t128.5 92.5l40 -72q-238 -159 -238 -443q0 -283 238 -442z" />
    <glyph glyph-name="parenright" unicode=")" horiz-adv-x="391" 
d="M8 -148q238 159 238 442q0 284 -238 443l40 72q72 -39 128.5 -92.5t95 -119.5t58.5 -142.5t20 -160.5q0 -170 -78 -303t-224 -211z" />
    <glyph glyph-name="asterisk" unicode="*" horiz-adv-x="456" 
d="M135 388l-58 47l95 110l-134 60l33 67l123 -62l-3 146h74l-2 -146l124 62l30 -67l-132 -60l94 -110l-58 -47l-92 118z" />
    <glyph glyph-name="plus" unicode="+" horiz-adv-x="536" 
d="M502 394v-90h-188v-189l-90 -1v190h-190v90h190v189h90v-189h188z" />
    <glyph glyph-name="comma" unicode="," horiz-adv-x="242" 
d="M119 108q30 0 49.5 -21t19.5 -53q0 -86 -124 -165l-31 43q61 46 74 66q3 3 7 11h-4q-23 0 -39.5 17t-16.5 40q0 25 19.5 43.5t45.5 18.5z" />
    <glyph glyph-name="hyphen" unicode="-" horiz-adv-x="518" 
d="M66 232v90h386v-90h-386z" />
    <glyph glyph-name="period" unicode="." horiz-adv-x="232" 
d="M52 49q0 26 18.5 44t45.5 18t45.5 -18t18.5 -44q0 -28 -18.5 -46.5t-45.5 -18.5t-45.5 18.5t-18.5 46.5z" />
    <glyph glyph-name="slash" unicode="/" horiz-adv-x="607" 
d="M20 -123l472 948h94l-472 -948h-94z" />
    <glyph glyph-name="zero" unicode="0" horiz-adv-x="679" 
d="M340 -12q-78 0 -135.5 34t-90.5 91q-32 57 -47.5 121t-15.5 136t15.5 136t47.5 121q33 57 90.5 91t135.5 34q80 0 135 -34.5t89 -89.5t49 -123t15 -135t-15 -135t-49 -123t-89 -89.5t-135 -34.5zM527 370q0 127 -46 207q-46 82 -141 82t-141 -82q-46 -80 -46 -207
q0 -128 46 -208q46 -81 141 -81q94 0 141 81q46 80 46 208z" />
    <glyph glyph-name="one" unicode="1" horiz-adv-x="386" 
d="M213 739h79v-739h-99v606l-134 -112l-55 69z" />
    <glyph glyph-name="two" unicode="2" horiz-adv-x="559" 
d="M191 92h318v-92h-461v83l237 254q30 31 52 57t37 49t22 45.5t7 46.5q0 27 -10.5 50t-28.5 39.5t-42.5 26t-52.5 9.5q-92 0 -179 -84l-55 71q106 105 236 105q101 0 165 -61t64 -161q0 -98 -103 -211z" />
    <glyph glyph-name="three" unicode="3" horiz-adv-x="554" 
d="M248 -12q-120 0 -227 73l45 81q98 -62 181 -62q69 0 109.5 34.5t40.5 91.5q0 28 -11 52t-31.5 41t-48.5 26.5t-61 9.5h-91v89h90q61 0 100 33t39 87q0 27 -10 48.5t-28 36.5t-42 23t-52 8q-77 0 -162 -65l-51 70q40 40 99 63.5t122 23.5q99 0 163 -56q63 -56 63 -139
q0 -60 -35.5 -105.5t-92.5 -63.5v-4q67 -15 105.5 -64.5t38.5 -116.5q0 -95 -71 -155t-182 -60z" />
    <glyph glyph-name="four" unicode="4" horiz-adv-x="594" 
d="M553 273v-87h-83v-186h-96v186h-344l-21 60l404 493h57v-466h83zM141 273h233v285z" />
    <glyph glyph-name="five" unicode="5" horiz-adv-x="572" 
d="M285 482q107 0 177 -70q71 -69 71 -175q0 -108 -74 -179q-73 -70 -188 -70q-130 0 -237 89l47 78q90 -75 186 -75q72 0 119 44q46 45 46 112q0 66 -45 110q-45 45 -114 45q-80 0 -136 -59l-66 38l42 369h370v-89h-293l-25 -197q56 29 120 29z" />
    <glyph glyph-name="six" unicode="6" horiz-adv-x="615" 
d="M320 -9q-130 0 -199 100t-69 256q0 77 18.5 150t56 129.5t95.5 91t136 34.5q112 0 189 -62l-42 -75q-65 50 -141 50q-57 0 -97.5 -29t-67 -73t-38.5 -96t-12 -98v-4q23 51 74 81.5t117 30.5q100 0 166 -68t66 -171q0 -106 -71 -177q-70 -70 -181 -70zM321 80q65 0 109 45
q45 46 45 113q0 65 -44 109q-43 43 -108 43q-66 0 -110 -44t-44 -109t44 -112q43 -45 108 -45z" />
    <glyph glyph-name="seven" unicode="7" horiz-adv-x="503" 
d="M21 739h465v-59l-288 -680h-107l282 650h-352v89z" />
    <glyph glyph-name="eight" unicode="8" horiz-adv-x="625" 
d="M313 -12q-118 0 -191 60q-74 60 -74 151q0 63 39.5 115t105.5 77v2q-54 25 -84 69t-30 96q0 83 65 139q64 55 169 55q104 0 168 -55q65 -56 65 -139q0 -54 -30.5 -97t-84.5 -68v-3q33 -12 60 -31.5t46 -44.5t29.5 -54.5t10.5 -60.5q0 -91 -74 -151t-190 -60zM450 549
q0 52 -38 85.5t-99 33.5q-63 0 -101.5 -33.5t-38.5 -85.5q0 -25 10 -46.5t28 -37.5t43.5 -25t57.5 -9q31 0 56.5 9t43.5 25t28 37.5t10 46.5zM313 75q36 0 66.5 10t52.5 28.5t34 43.5t12 55q0 29 -11.5 53.5t-33.5 42t-52.5 27.5t-67.5 10q-76 0 -121.5 -37.5t-45.5 -95.5
q0 -30 12 -55t34 -43.5t53 -28.5t68 -10z" />
    <glyph glyph-name="nine" unicode="9" horiz-adv-x="612" 
d="M295 752q128 0 196 -99q68 -98 68 -261q0 -80 -17 -153t-53 -128.5t-92.5 -89t-135.5 -33.5q-118 0 -192 62l38 77q70 -52 151 -52q56 0 95.5 25.5t64.5 67t36.5 95.5t11.5 111q-25 -48 -75.5 -78.5t-116.5 -30.5q-100 0 -166 68q-66 67 -66 171q0 107 71 178
q70 70 182 70zM445 505q0 66 -44 113q-43 46 -108 46q-67 0 -110 -46q-44 -46 -44 -114q0 -67 43 -110t109 -43q65 0 109 44q45 43 45 110z" />
    <glyph glyph-name="colon" unicode=":" horiz-adv-x="261" 
d="M66 418q0 26 18.5 44t45.5 18t45.5 -18t18.5 -44q0 -28 -18.5 -46.5t-45.5 -18.5t-45.5 18.5t-18.5 46.5zM66 49q0 26 18.5 44t45.5 18t45.5 -18t18.5 -44q0 -28 -18.5 -46.5t-45.5 -18.5t-45.5 18.5t-18.5 46.5z" />
    <glyph glyph-name="semicolon" unicode=";" horiz-adv-x="287" 
d="M83 417q0 26 18.5 44t45.5 18t46 -18t19 -44q0 -28 -19 -46.5t-46 -18.5t-45.5 18.5t-18.5 46.5zM144 108q30 0 49.5 -21t19.5 -53q0 -86 -124 -165l-31 43q61 46 74 66q3 3 7 11h-4q-23 0 -39.5 17t-16.5 40q0 25 19.5 43.5t45.5 18.5z" />
    <glyph glyph-name="less" unicode="&#x3c;" horiz-adv-x="572" 
d="M499 59l-465 229v87l465 229v-100l-363 -173l363 -171v-101z" />
    <glyph glyph-name="equal" unicode="=" horiz-adv-x="602" 
d="M70 372v86h462v-86h-462zM70 197v86h462v-86h-462z" />
    <glyph glyph-name="greater" unicode="&#x3e;" horiz-adv-x="546" 
d="M62 46v101l333 172l-333 171v101l454 -243v-60z" />
    <glyph glyph-name="question" unicode="?" horiz-adv-x="511" 
d="M172 167v73q0 35 14.5 63t37 51.5t48.5 44.5t48.5 44t37 48.5t14.5 58.5q0 27 -10.5 49t-28.5 37.5t-42.5 24.5t-52.5 9q-80 0 -152 -79l-59 67q40 46 97 74t120 28q93 0 158 -58q66 -59 66 -149q0 -46 -21 -85.5t-52 -67.5q-22 -20 -45.5 -39t-43 -38.5t-32 -40.5
t-12.5 -43v-72h-90zM153 53q0 26 19 44t46 18q26 0 44.5 -18t18.5 -44q0 -28 -18 -46.5t-45 -18.5t-46 18.5t-19 46.5z" />
    <glyph glyph-name="at" unicode="@" horiz-adv-x="974" 
d="M617 489h77v-275q0 -34 16 -54t40 -20q45 0 77 53q33 52 33 134q0 139 -106 238q-105 99 -256 99q-155 -2 -261 -111q-107 -110 -107 -268q0 -156 112 -267t277 -111q157 0 278 98l41 -63q-28 -23 -63 -43t-80 -36q-89 -33 -183 -33q-96 -2 -181.5 34.5t-149.5 99.5
t-100.5 146t-34.5 174q0 188 132 322t318 134q92 0 172.5 -33.5t140.5 -90t95 -131.5t35 -158q0 -111 -59 -185t-143 -74q-46 0 -75.5 23t-37.5 56q-26 -37 -68.5 -58t-90.5 -21q-85 0 -145 62q-59 64 -59 155q0 92 60 155q61 64 149 64q94 0 147 -65v50zM616 284
q0 63 -39 105q-37 43 -97 43q-59 0 -99 -42q-39 -41 -39 -104q0 -62 38 -105q39 -41 98 -41t98 41q40 41 40 103z" />
    <glyph glyph-name="A" unicode="A" horiz-adv-x="674" 
d="M552 0l-75 192h-281l-75 -192h-109l299 739h54l296 -739h-109zM337 565l-107 -279h213z" />
    <glyph glyph-name="B" unicode="B" horiz-adv-x="672" 
d="M488 404q69 -19 104 -72t35 -120q0 -87 -61 -149q-60 -63 -168 -63h-305v739h292q96 0 149 -56q54 -56 54 -129q0 -51 -27 -92t-73 -58zM192 646v-206h177q27 0 49 9t37 24t23 34.5t8 40.5q0 39 -30 68.5t-84 29.5h-180zM382 94q66 0 103 37q39 37 39 88q0 27 -9.5 50.5
t-28.5 41t-46 28t-62 10.5h-186v-255h190z" />
    <glyph glyph-name="C" unicode="C" horiz-adv-x="776" 
d="M426 -11q-160 0 -270 106q-110 107 -110 272q0 168 112 276q112 109 271 109q100 0 186 -45q85 -43 133 -117l-74 -62q-94 127 -243 127q-118 0 -200 -82t-82 -207q0 -122 80 -202q80 -79 201 -79q75 0 139 33.5t109 91.5l72 -61q-26 -36 -60.5 -65.5t-76 -50.5
t-89 -32.5t-98.5 -11.5z" />
    <glyph glyph-name="D" unicode="D" horiz-adv-x="758" 
d="M93 0v739h275q157 0 248 -100q92 -101 92 -271q0 -171 -94 -269q-93 -99 -256 -99h-265zM193 95h169q113 0 178 77q64 77 64 199q0 120 -64 196q-65 77 -178 77h-169v-549z" />
    <glyph glyph-name="E" unicode="E" horiz-adv-x="609" 
d="M93 0v739h460v-95h-360v-221h333v-95h-333v-233h360v-95h-460z" />
    <glyph glyph-name="F" unicode="F" horiz-adv-x="573" 
d="M93 0v739h452v-97h-352v-219h307v-97h-307v-326h-100z" />
    <glyph glyph-name="G" unicode="G" horiz-adv-x="812" 
d="M424 -11q-163 0 -271 108q-107 109 -107 272q0 166 112 274q112 109 272 109q94 0 175.5 -37.5t132.5 -98.5l-71 -65q-93 104 -236 104q-120 0 -202 -81q-81 -81 -81 -206q0 -122 81 -203q82 -80 199 -80q66 0 128.5 28t108.5 76v147h-247v92h341v-283
q-135 -156 -335 -156z" />
    <glyph glyph-name="H" unicode="H" horiz-adv-x="758" 
d="M93 0v739h101v-312h371v312h100v-739h-100v331h-371v-331h-101z" />
    <glyph glyph-name="I" unicode="I" horiz-adv-x="286" 
d="M93 739h100v-739h-100v739z" />
    <glyph glyph-name="J" unicode="J" horiz-adv-x="558" 
d="M225 -12q-129 0 -212 95l61 73q60 -73 151 -73q66 0 106.5 42t40.5 120v494h100v-499q0 -120 -69 -186q-68 -66 -178 -66z" />
    <glyph glyph-name="K" unicode="K" horiz-adv-x="666" 
d="M554 0l-260 324l-101 -119v-205h-100v739h100v-402l339 402h119l-292 -348l319 -391h-124z" />
    <glyph glyph-name="L" unicode="L" horiz-adv-x="603" 
d="M93 0v739h100v-642h397v-97h-497z" />
    <glyph glyph-name="M" unicode="M" horiz-adv-x="919" 
d="M93 0v739h48l319 -469l317 469h49v-739h-100v499l-254 -373h-26l-254 373v-499h-99z" />
    <glyph glyph-name="N" unicode="N" horiz-adv-x="780" 
d="M588 739h99v-739h-52l-443 524v-524h-99v739h45l450 -527v527z" />
    <glyph glyph-name="O" unicode="O" horiz-adv-x="855" 
d="M45 365q0 162 112 274q113 113 270 113t270 -113t113 -270t-113 -270q-113 -111 -273 -111q-161 0 -270 109t-109 268zM706 368q0 121 -81 204q-81 82 -198 82q-116 0 -197 -83t-81 -203q0 -119 80 -202q79 -81 198 -81q118 0 198 81q81 81 81 202z" />
    <glyph glyph-name="P" unicode="P" horiz-adv-x="608" 
d="M340 739q116 0 178 -68q61 -67 61 -160q0 -95 -64 -162q-65 -66 -184 -66h-138v-283h-100v739h247zM333 376q36 0 63.5 11t45.5 29.5t27.5 43.5t9.5 53q0 27 -9 51t-26 42t-41.5 28.5t-56.5 10.5h-153v-269h140z" />
    <glyph glyph-name="Q" unicode="Q" horiz-adv-x="855" 
d="M710 -40q43 0 88 16l12 -84q-47 -19 -106 -19q-138 0 -246 116q-5 -1 -12.5 -1h-17.5q-159 0 -271 112t-112 270q0 157 112 269q113 113 271 113t270 -112t112 -270q0 -120 -67 -217q-67 -96 -175 -139q64 -54 142 -54zM149 368q0 -121 81 -202t198 -81q118 0 198 81
q81 81 81 202t-81 204q-79 82 -198 82q-117 0 -198 -82q-81 -83 -81 -204z" />
    <glyph glyph-name="R" unicode="R" horiz-adv-x="641" 
d="M487 0l-192 300h-102v-300h-100v739h251q111 0 171 -66q61 -64 61 -154q0 -36 -11.5 -70t-33 -62.5t-53.5 -49t-74 -29.5l206 -308h-123zM193 644v-250h132q75 0 112 36t37 90t-33 89t-96 35h-152z" />
    <glyph glyph-name="S" unicode="S" horiz-adv-x="564" 
d="M279 -12q-40 0 -77.5 10t-70.5 29t-59.5 47.5t-44.5 65.5l74 61q30 -60 76.5 -89t100.5 -29q31 0 56.5 8.5t43 23.5t27 35.5t9.5 44.5q0 59 -77 103q-10 5 -29 14t-47 22t-48.5 23.5t-34.5 18.5q-111 70 -111 176q0 85 61 142q61 58 162 58q138 0 217 -109l-67 -64
q-60 79 -149 79q-51 0 -84 -27.5t-33 -72.5q0 -58 63 -95q10 -6 31 -17t55 -27t57 -27.5t36 -19.5q107 -65 107 -172q0 -95 -70 -153q-70 -59 -174 -59z" />
    <glyph glyph-name="T" unicode="T" horiz-adv-x="566" 
d="M233 642h-219v97h538v-97h-219v-642h-100v642z" />
    <glyph glyph-name="U" unicode="U" horiz-adv-x="706" 
d="M85 739h100v-472q0 -88 43.5 -135t124.5 -47q79 0 123 47.5t44 134.5v472h101v-490q0 -121 -74 -192q-73 -70 -194 -70t-194 70q-74 71 -74 192v490z" />
    <glyph glyph-name="V" unicode="V" horiz-adv-x="708" 
d="M589 739h109l-314 -739h-57l-319 739h114l234 -567z" />
    <glyph glyph-name="W" unicode="W" horiz-adv-x="1029" 
d="M265 0l-254 739h106l178 -541l196 541h45l201 -541l175 541h105l-252 -739h-55l-195 552l-194 -552h-56z" />
    <glyph glyph-name="X" unicode="X" horiz-adv-x="627" 
d="M8 0l246 375l-234 364h116l178 -288l180 288h120l-242 -364l244 -375h-116l-186 293l-186 -293h-120z" />
    <glyph glyph-name="Y" unicode="Y" horiz-adv-x="639" 
d="M622 739l-253 -473v-266h-100v266l-250 473h111l189 -374l192 374h111z" />
    <glyph glyph-name="Z" unicode="Z" horiz-adv-x="618" 
d="M31 0v62l402 583h-384v94h524v-63l-398 -582h409v-94h-553z" />
    <glyph glyph-name="bracketleft" unicode="[" horiz-adv-x="370" 
d="M87 -227v1038h266v-79h-167v-880h167v-79h-266z" />
    <glyph glyph-name="backslash" unicode="\" horiz-adv-x="605" 
d="M586 -123h-94l-471 948h94z" />
    <glyph glyph-name="bracketright" unicode="]" horiz-adv-x="370" 
d="M17 -227v79h167v880h-167v79h265v-1038h-265z" />
    <glyph glyph-name="asciicircum" unicode="^" horiz-adv-x="520" 
d="M40 431l193 311h56l191 -311h-95l-124 212l-124 -212h-97z" />
    <glyph glyph-name="underscore" unicode="_" horiz-adv-x="582" 
d="M0 -170v87h582v-87h-582z" />
    <glyph glyph-name="grave" unicode="`" horiz-adv-x="421" 
d="M216 620h-83l-93 167h117z" />
    <glyph glyph-name="a" unicode="a" horiz-adv-x="665" 
d="M498 536h92v-536h-92v76q-72 -89 -189 -89q-116 0 -192 82t-76 203t76 198q76 79 192 79q114 0 189 -91v78zM504 269q0 80 -51 136t-133 56t-132 -56t-50 -137t50 -137t132 -56t133 56q51 55 51 138z" />
    <glyph glyph-name="b" unicode="b" horiz-adv-x="668" 
d="M359 549q114 0 190 -82q77 -82 77 -199t-77 -200q-77 -81 -191 -81q-116 0 -188 91v-78h-96v757h96v-302q73 94 189 94zM347 77q82 0 131 55q51 55 51 137q0 79 -51 135q-49 55 -131 55q-83 0 -132 -55t-49 -135q0 -82 49 -137t132 -55z" />
    <glyph glyph-name="c" unicode="c" horiz-adv-x="599" 
d="M324 -12q-125 0 -204 79t-79 201t80 202q80 79 208 79q39 0 76.5 -10t69 -28t57 -44t40.5 -58l-79 -46q-27 45 -70 71.5t-94 26.5q-82 0 -137 -55q-54 -56 -54 -138q0 -81 53 -137q52 -55 133 -55q25 0 50 7t46.5 20t39.5 30.5t30 38.5l80 -46q-34 -63 -100 -100
q-68 -38 -146 -38z" />
    <glyph glyph-name="d" unicode="d" horiz-adv-x="667" 
d="M497 757h96v-757h-96v75q-70 -88 -186 -88q-118 0 -194 81q-76 82 -76 201q0 118 76 198q76 82 192 82q115 0 188 -91v299zM504 269q0 80 -51 136q-50 56 -132 56t-133 -56q-50 -56 -50 -136q0 -82 50 -138q51 -56 133 -56t132 56q51 55 51 138z" />
    <glyph glyph-name="e" unicode="e" horiz-adv-x="611" 
d="M572 278q0 -10 -3 -49h-427q12 -68 58 -110.5t130 -42.5q48 0 99 16.5t88 43.5l41 -73q-40 -31 -101.5 -53t-128.5 -22q-76 0 -130 24.5t-88.5 64.5t-51 90.5t-16.5 102.5q0 120 75 200q76 79 196 79q114 0 186 -73q73 -73 73 -198zM473 312q-2 35 -15 63t-34 48
t-49.5 30.5t-61.5 10.5t-61.5 -11t-51 -31.5t-37.5 -48.5t-21 -61h331z" />
    <glyph glyph-name="f" unicode="f" horiz-adv-x="395" 
d="M331 681q-116 0 -116 -112v-33h171v-82h-171v-454h-96v454h-93v82h93v35q0 48 14.5 85t40.5 62.5t63 38.5t82 13q64 0 120 -29l-29 -79q-45 19 -79 19z" />
    <glyph glyph-name="g" unicode="g" horiz-adv-x="667" 
d="M498 536h95v-481q0 -130 -78 -206q-79 -77 -209 -77q-131 0 -237 76l45 76q88 -65 191 -65q88 0 141 51q52 49 52 129v44q-72 -84 -188 -84t-192 79q-77 80 -77 197t79 195q79 79 195 79q111 0 183 -83v70zM190 139q52 -54 131 -54q78 0 131 54q52 53 52 135t-52 134
q-53 54 -131 54q-79 0 -131 -54q-52 -52 -52 -134t52 -135z" />
    <glyph glyph-name="h" unicode="h" horiz-adv-x="616" 
d="M74 0v757h93v-287q25 36 70 58t100 22q89 0 150 -58t61 -167v-325h-95v298q0 79 -37.5 121t-98.5 42q-33 0 -60 -12t-46.5 -33.5t-30 -51.5t-10.5 -66v-298h-96z" />
    <glyph glyph-name="i" unicode="i" horiz-adv-x="245" 
d="M124 612q-30 0 -50 19.5t-20 49.5q0 29 20 48t50 19q28 0 48 -19.5t20 -47.5q0 -30 -20 -49.5t-48 -19.5zM170 0h-96v536h96v-536z" />
    <glyph glyph-name="j" unicode="j" horiz-adv-x="269" 
d="M147 612q-30 0 -50 19.5t-20 49.5q0 29 20 48t50 19q28 0 48 -19.5t20 -47.5q0 -30 -20 -49.5t-48 -19.5zM17 -229q-60 0 -95 22l19 80q39 -14 65 -14q92 0 92 110v567h96v-561q0 -100 -47.5 -152t-129.5 -52z" />
    <glyph glyph-name="k" unicode="k" horiz-adv-x="545" 
d="M423 0l-202 250l-51 -46v-204h-96v757h96v-438l240 217h130l-251 -225l260 -311h-126z" />
    <glyph glyph-name="l" unicode="l" horiz-adv-x="245" 
d="M170 0h-96v757h96v-757z" />
    <glyph glyph-name="m" unicode="m" horiz-adv-x="974" 
d="M693 550q97 0 156 -63q58 -61 58 -168v-319h-96v304q0 75 -34.5 116t-94.5 41q-32 0 -58 -11.5t-45 -32.5t-29.5 -50t-10.5 -65v-302h-95v302q0 75 -35 117t-95 42q-32 0 -58 -11.5t-45.5 -32.5t-30 -51t-10.5 -66v-300h-96v536h94v-79q24 45 66 69.5t96 23.5
q54 0 100 -26t68 -74q27 46 79.5 73t115.5 27z" />
    <glyph glyph-name="n" unicode="n" horiz-adv-x="618" 
d="M74 0v536h94v-76q51 90 170 90q90 0 151 -58t61 -167v-325h-95v298q0 78 -38 120.5t-99 42.5q-65 0 -107 -46q-41 -47 -41 -118v-297h-96z" />
    <glyph glyph-name="o" unicode="o" 
d="M323 -13q-124 0 -203 81q-79 82 -79 201t79 199q79 82 203 82q122 0 201 -82q80 -83 80 -199q0 -118 -80 -201q-80 -81 -201 -81zM508 269q0 79 -54 135q-54 57 -131 57t-131 -57q-54 -56 -54 -135q0 -80 54 -137t131 -57t131 57t54 137z" />
    <glyph glyph-name="p" unicode="p" horiz-adv-x="670" 
d="M361 549q115 0 191 -82q77 -83 77 -199q0 -117 -77 -200q-77 -81 -192 -81q-117 0 -190 91v-299h-96v757h96v-81q75 94 191 94zM533 269q0 80 -51 136t-133 56t-133 -56q-50 -56 -50 -136q0 -82 50 -138q51 -56 133 -56t133 56q51 55 51 138z" />
    <glyph glyph-name="q" unicode="q" horiz-adv-x="670" 
d="M500 536h95v-757h-96v298q-74 -90 -190 -90t-192 81q-76 82 -76 201q0 116 77 198q76 82 191 82q116 0 191 -93v80zM504 269q0 80 -51 136q-50 56 -132 56t-133 -56q-50 -56 -50 -136q0 -82 50 -138q51 -56 133 -56t132 56q51 55 51 138z" />
    <glyph glyph-name="r" unicode="r" horiz-adv-x="389" 
d="M74 0v536h91v-79q46 93 154 93q29 0 63 -8l-9 -93q-29 9 -56 9q-64 0 -105.5 -43.5t-41.5 -130.5v-284h-96z" />
    <glyph glyph-name="s" unicode="s" horiz-adv-x="454" 
d="M224 -12q-60 0 -114 29t-85 87l69 53q23 -43 59.5 -64t73.5 -21q43 0 69 21.5t26 52.5q0 43 -49 68q-8 5 -25 12t-42 18q-50 21 -66 30q-82 45 -82 130q0 65 48 107q47 43 127 43q51 0 97 -21.5t73 -63.5l-61 -58q-44 62 -115 62q-36 0 -56.5 -19t-20.5 -46q0 -42 45 -63
l59 -26q48 -20 72 -33q91 -46 91 -135q0 -70 -54 -116q-55 -47 -139 -47z" />
    <glyph glyph-name="t" unicode="t" horiz-adv-x="427" 
d="M424 32q-59 -45 -143 -45q-85 0 -128 52t-43 149v266h-95v82h96v190h94v-190h190v-82h-190v-273q0 -106 87 -106q47 0 96 31z" />
    <glyph glyph-name="u" unicode="u" horiz-adv-x="595" 
d="M297 -13q-53 0 -95.5 16t-72.5 46t-46 72t-16 95v320h96v-317q0 -66 35.5 -104.5t98.5 -38.5q64 0 99.5 38.5t35.5 104.5v317h95v-320q0 -108 -61 -168.5t-169 -60.5z" />
    <glyph glyph-name="v" unicode="v" horiz-adv-x="563" 
d="M445 536h106l-236 -535h-67l-236 535h107l164 -401z" />
    <glyph glyph-name="w" unicode="w" horiz-adv-x="840" 
d="M195 1l-184 535h101l127 -402l146 402h67l152 -402l122 402h100l-179 -535h-80l-148 401l-145 -401h-79z" />
    <glyph glyph-name="x" unicode="x" horiz-adv-x="508" 
d="M494 0h-111l-130 201l-130 -201h-116l189 278l-170 258h111l119 -188l121 188h113l-180 -265z" />
    <glyph glyph-name="y" unicode="y" horiz-adv-x="555" 
d="M434 536h106l-225 -596q-34 -90 -78.5 -129t-107.5 -39q-52 0 -86 21l12 84q36 -16 65 -16q66 0 106 94l20 47l-233 534h111l166 -402z" />
    <glyph glyph-name="z" unicode="z" horiz-adv-x="508" 
d="M160 82h314v-82h-444v61l306 392h-288v82h417v-56z" />
    <glyph glyph-name="braceleft" unicode="{" horiz-adv-x="371" 
d="M121 288q45 -14 76.5 -50t31.5 -87q0 -15 -1 -41t-3 -63t-3 -62.5t-1 -41.5q0 -94 95 -94h33v-80h-43q-177 0 -177 176q0 20 1 48t3 64q2 37 3 61t1 35q0 54 -38 77q-19 11 -35.5 16.5t-41.5 10.5v66q26 6 41.5 11t34.5 16q39 23 39 77q0 11 -1 35t-3 61t-3 65.5t-1 48.5
q0 87 44.5 130.5t132.5 43.5h43v-80h-33q-95 0 -95 -93q0 -16 1 -42t3 -63t3 -62.5t1 -40.5q0 -26 -8.5 -48t-23.5 -40t-34.5 -31t-41.5 -19v-4z" />
    <glyph glyph-name="bar" unicode="|" horiz-adv-x="261" 
d="M87 -179v1026h86v-1026h-86z" />
    <glyph glyph-name="braceright" unicode="}" horiz-adv-x="371" 
d="M250 292q-22 6 -41.5 19t-34.5 31t-23.5 40t-8.5 48q0 15 1 40.5t3 62.5t3 63t1 42q0 93 -95 93h-33v80h43q87 0 132 -43.5t45 -130.5q0 -20 -1 -48.5t-3 -65.5q-3 -74 -3 -96q0 -53 38 -77q19 -11 35 -16t42 -11v-66q-25 -5 -42 -10.5t-36 -16.5q-37 -23 -37 -77
q0 -23 3 -96q2 -36 3 -64t1 -48q0 -88 -45.5 -132t-130.5 -44h-44v80h33q95 0 95 94q0 16 -1 41.5t-3 62.5t-3 63t-1 41q0 51 31.5 87t76.5 50v4z" />
    <glyph glyph-name="asciitilde" unicode="~" horiz-adv-x="668" 
d="M438 250q-49 0 -116 34t-96 34q-31 0 -53 -14t-48 -46l-61 45q57 99 168 99q49 0 116 -34t96 -34q32 0 53.5 14t47.5 47l62 -46q-60 -99 -169 -99z" />
    <glyph glyph-name="exclamdown" unicode="&#xa1;" horiz-adv-x="261" 
d="M142 526q27 0 45 -18.5t18 -46.5q0 -26 -18.5 -44t-44.5 -18q-28 0 -46.5 18t-18.5 44q0 28 18.5 46.5t46.5 18.5zM92 334h96l6 -561h-106z" />
    <glyph glyph-name="cent" unicode="&#xa2;" horiz-adv-x="610" 
d="M363 80q42 8 76.5 33t53.5 59l80 -46q-29 -55 -85 -91.5t-125 -44.5v-80h-68v79q-110 10 -182 88q-69 76 -69 191q0 113 69 190q71 77 182 89v83h68v-83q70 -7 127 -44t85 -94l-79 -46q-50 82 -133 95v-378zM141 268q0 -74 43 -126q43 -53 111 -63v379q-35 -6 -63 -23
t-48.5 -42t-31.5 -57t-11 -68z" />
    <glyph glyph-name="sterling" unicode="&#xa3;" horiz-adv-x="571" 
d="M529 92v-92h-474v79q42 32 70 86q29 56 29 108q0 28 -10 61h-90v82h61q-27 76 -27 122q1 91 65 152q63 60 161 62q66 1 122.5 -30.5t89.5 -86.5l-74 -53q-21 35 -56 57t-75 22q-29 0 -53 -10t-41.5 -28t-27.5 -42.5t-10 -52.5q0 -42 26 -112h242v-82h-214q10 -40 9 -74
q-1 -48 -23.5 -93t-57.5 -75h358z" />
    <glyph glyph-name="currency" unicode="&#xa4;" horiz-adv-x="636" 
d="M543 367q0 -71 -39 -126l72 -70l-53 -52l-70 68q-59 -46 -137 -46q-73 0 -134 44l-69 -66l-52 52l69 68q-40 58 -40 128q0 75 45 137l-74 73l52 52l75 -73q58 40 128 40q71 0 131 -42l76 75l53 -52l-76 -76q43 -58 43 -134zM461 369q0 63 -42 107q-42 43 -103 43
t-103 -43q-41 -44 -41 -107t41 -107q42 -44 103 -44t103 44q42 43 42 107z" />
    <glyph glyph-name="yen" unicode="&#xa5;" horiz-adv-x="641" 
d="M611 739l-199 -371h132v-74h-172l-3 -6v-51h175v-75h-175v-162h-99v162h-177v75h177v53l-2 4h-175v74h135l-197 371h107l183 -354l183 354h107z" />
    <glyph glyph-name="brokenbar" unicode="&#xa6;" horiz-adv-x="261" 
d="M87 434v413h86v-413h-86zM173 234v-413h-86v413h86z" />
    <glyph glyph-name="section" unicode="&#xa7;" horiz-adv-x="562" 
d="M524 212q0 -42 -20 -76.5t-55 -54.5q29 -44 29 -100q0 -84 -60 -139q-59 -56 -154 -56q-136 0 -219 107l67 63q64 -79 150 -79q54 0 85.5 30t31.5 73q0 25 -11.5 46.5t-37.5 40.5q-27 20 -47 32q-10 6 -24.5 13.5t-33.5 17.5l-68 36q-23 15 -54 39q-60 48 -60 119
q0 42 20 76t55 54q-30 43 -30 102q0 84 59 140q59 55 155 55q126 0 204 -101l-68 -59q-59 69 -131 69q-55 0 -87.5 -30t-32.5 -72q0 -25 10.5 -45.5t37.5 -40.5q14 -10 25 -17.5t19 -12.5l59 -32l17 -9q19 -11 34.5 -19.5t28.5 -16.5t25 -17.5t26 -21.5q55 -46 55 -114z
M270 212q45 -24 74.5 -41t43.5 -28q37 19 37 59q0 35 -28.5 60.5t-88.5 55.5q-99 50 -131 75q-36 -18 -36 -59q0 -20 8.5 -36t31.5 -33q12 -8 21.5 -14.5t16.5 -10.5t19.5 -11t31.5 -17z" />
    <glyph glyph-name="dieresis" unicode="&#xa8;" horiz-adv-x="496" 
d="M119 630q-30 0 -50 19.5t-20 50.5q0 28 20 47t50 19q28 0 47.5 -19t19.5 -47q0 -30 -19.5 -50t-47.5 -20zM248 700q0 28 20 47t49 19t48.5 -19t19.5 -47q0 -30 -19.5 -50t-48.5 -20t-49 20t-20 50z" />
    <glyph glyph-name="copyright" unicode="&#xa9;" horiz-adv-x="860" 
d="M45 369q0 157 113 270t272 113t272 -113t113 -270q0 -156 -113 -269q-112 -112 -272 -112t-272 112q-113 113 -113 269zM430 55q130 0 224 92q93 93 93 222q0 130 -93 222q-93 93 -224 93t-224 -93q-92 -92 -92 -222q0 -129 93 -222q94 -92 223 -92zM433 164
q-86 0 -145 59q-59 61 -59 146q0 87 59 146t145 59q102 0 157 -73l-47 -39q-45 50 -110 50q-30 0 -55 -10.5t-43 -29t-28 -45t-10 -58.5t10 -58t28 -44.5t43 -29t55 -10.5q70 0 111 47l45 -43q-57 -67 -156 -67z" />
    <glyph glyph-name="ordfeminine" unicode="&#xaa;" horiz-adv-x="412" 
d="M195 736q69 0 111 -40.5t42 -115.5v-189h-60v37q-40 -46 -114 -46q-60 0 -94 32.5t-34 80.5t37 74.5t101 26.5q48 0 104 -10q-5 89 -98 89q-59 0 -99 -28l-24 51q50 38 128 38zM181 444q93 0 105 90q-41 10 -96 10q-37 0 -58 -13t-21 -35q0 -24 19 -38t51 -14z" />
    <glyph glyph-name="guillemotleft" unicode="&#xab;" horiz-adv-x="516" 
d="M183 88l-142 203l142 203h95l-143 -203l143 -203h-95zM367 88l-140 203l140 203h96l-142 -203l142 -203h-96z" />
    <glyph glyph-name="logicalnot" unicode="&#xac;" horiz-adv-x="607" 
d="M70 274v90h463v-212h-85v122h-378z" />
    <glyph glyph-name="uni00AD" unicode="&#xad;" horiz-adv-x="512" 
d="M65 284v88h382v-88h-382z" />
    <glyph glyph-name="registered" unicode="&#xae;" horiz-adv-x="568" 
d="M114 692q71 71 170 71q98 0 169 -71t71 -169q0 -99 -71 -170q-70 -70 -169 -70q-100 0 -170 70t-70 170q0 99 70 169zM149 388q56 -56 135 -56t135 56t56 135t-56 135t-135 56t-135 -56t-56 -135t56 -135zM380 566q0 -52 -46 -71l52 -90h-52l-48 82h-40v-82h-46v241h97
q36 0 59.5 -22.5t23.5 -57.5zM246 607v-82h40q48 0 48 42q0 40 -48 40h-40z" />
    <glyph glyph-name="macron" unicode="&#xaf;" horiz-adv-x="471" 
d="M40 646v86h307v-85z" />
    <glyph glyph-name="degree" unicode="&#xb0;" horiz-adv-x="363" 
d="M283 581q-41 -40 -101 -40t-101 40q-42 40 -42 98t42 99q43 41 101 41t101 -41q42 -41 42 -99t-42 -98zM260 679q0 34 -23 57t-55 23t-55 -23t-23 -57q0 -33 23 -55.5t55 -22.5t55 22.5t23 55.5z" />
    <glyph glyph-name="plusminus" unicode="&#xb1;" horiz-adv-x="597" 
d="M345 484h188v-91h-188v-188l-90 -1v189h-190v91h190v189h90v-189zM65 82v87h468v-87h-468z" />
    <glyph glyph-name="uni00B2" unicode="&#xb2;" horiz-adv-x="344" 
d="M143 572h159v-65h-262v58l130 132q56 59 56 93q0 25 -17.5 40.5t-44.5 15.5q-46 0 -94 -45l-37 53q59 58 135 58q57 0 93.5 -33.5t36.5 -87.5q0 -55 -54 -113z" />
    <glyph glyph-name="uni00B3" unicode="&#xb3;" horiz-adv-x="331" 
d="M147 501q-69 0 -130 39l30 56q56 -32 98 -32q35 0 54.5 16t19.5 42t-20.5 42t-54.5 16h-51v61h48q29 0 49.5 14.5t20.5 39.5t-19 39t-45 14q-40 0 -85 -33l-35 50q50 47 127 47q57 0 93 -30t36 -75q0 -32 -19.5 -56.5t-51.5 -34.5v-2q38 -8 59 -34t21 -63
q0 -26 -10.5 -47t-30 -36.5t-46 -24t-58.5 -8.5z" />
    <glyph glyph-name="acute" unicode="&#xb4;" horiz-adv-x="449" 
d="M40 620l59 167h117l-93 -167h-83z" />
    <glyph glyph-name="paragraph" unicode="&#xb6;" horiz-adv-x="660" 
d="M608 734v-89h-69v-848h-93v848h-75v-848h-93v508h-29q-92 0 -156 62q-63 61 -63 154q0 90 63 152q64 61 158 61h357z" />
    <glyph glyph-name="periodcentered" unicode="&#xb7;" horiz-adv-x="255" 
d="M64 49q0 26 18.5 44t45.5 18t45.5 -18t18.5 -44q0 -28 -18.5 -46.5t-45.5 -18.5t-45.5 18.5t-18.5 46.5z" />
    <glyph glyph-name="cedilla" unicode="&#xb8;" horiz-adv-x="315" 
d="M181 -48q43 0 73 -24.5t30 -67.5q0 -45 -33.5 -78t-96.5 -33q-51 0 -114 29l25 63q43 -21 81 -21q28 0 43 12.5t15 31.5q0 36 -52 36h-56l-9 22l39 98l74 -2l-27 -66h8z" />
    <glyph glyph-name="uni00B9" unicode="&#xb9;" horiz-adv-x="265" 
d="M150 899h54v-392h-72v293l-76 -61l-38 54z" />
    <glyph glyph-name="ordmasculine" unicode="&#xba;" horiz-adv-x="440" 
d="M42 557q0 76 51 127q51 52 127 52t127 -52q51 -51 51 -127q0 -75 -51 -126q-52 -50 -127 -50t-127 50q-51 51 -51 126zM219 441q51 0 84 33t33 84q0 25 -9 47t-24.5 38t-37 25t-46.5 9q-24 0 -45 -9t-36.5 -25t-24 -38t-8.5 -47t8.5 -46.5t24 -37t36.5 -24.5t45 -9z" />
    <glyph glyph-name="guillemotright" unicode="&#xbb;" horiz-adv-x="516" 
d="M149 88h-96l142 203l-142 203h96l140 -203zM333 88h-95l143 203l-143 203h95l142 -203z" />
    <glyph glyph-name="onequarter" unicode="&#xbc;" horiz-adv-x="858" 
d="M148 346v293l-75 -60l-39 54l132 106h55v-393h-73zM684 739h83l-576 -739h-85zM816 155v-57h-44v-98h-63v98h-185l-15 41l214 257h49v-241h44zM594 155h115v137z" />
    <glyph glyph-name="onehalf" unicode="&#xbd;" horiz-adv-x="838" 
d="M149 346v293l-75 -60l-39 54l132 106h55v-393h-73zM661 739h84l-576 -739h-86zM638 65h159v-65h-262v58l130 132q56 59 56 93q0 25 -17.5 40.5t-44.5 15.5q-46 0 -94 -45l-37 53q59 58 135 58q57 0 93.5 -33.5t36.5 -87.5q0 -55 -54 -113z" />
    <glyph glyph-name="threequarters" unicode="&#xbe;" horiz-adv-x="840" 
d="M150 404q35 0 54.5 16t19.5 42t-20.5 42t-54.5 16h-51v61h48q29 0 49.5 14.5t20.5 39.5t-19 39t-45 14q-40 0 -85 -33l-35 50q50 47 127 47q57 0 93 -30t36 -75q0 -32 -19.5 -56.5t-51.5 -34.5v-2q38 -8 59 -34t21 -63q0 -26 -10.5 -47t-30 -36.5t-46 -24t-58.5 -8.5
q-69 0 -130 39l30 56q56 -32 98 -32zM712 739h83l-576 -739h-85zM739 396v-241h44v-57h-44v-98h-63v98h-185l-15 41l214 257h49zM561 155h115v137z" />
    <glyph glyph-name="questiondown" unicode="&#xbf;" horiz-adv-x="503" 
d="M352 462q0 -26 -19 -44t-46 -18q-26 0 -44.5 18t-18.5 44q0 28 18 46.5t45 18.5t46 -18.5t19 -46.5zM333 348v-73q0 -35 -14.5 -63t-37 -51.5t-48.5 -44.5t-48.5 -44t-37 -49t-14.5 -58q0 -27 10 -49t28 -37.5t42.5 -24.5t53.5 -9q80 0 152 79l59 -67q-40 -46 -97 -74
t-120 -28q-93 0 -158 58q-66 58 -66 149q0 46 21 85.5t51 66.5q23 21 46.5 40.5t43 39t32 39.5t12.5 43v72h90z" />
    <glyph glyph-name="Agrave" unicode="&#xc0;" horiz-adv-x="674" 
d="M382 794h-84l-94 168h118zM552 0l-75 192h-281l-75 -192h-109l299 739h54l296 -739h-109zM337 565l-107 -279h213z" />
    <glyph glyph-name="Aacute" unicode="&#xc1;" horiz-adv-x="674" 
d="M482 961l-93 -168h-84l59 168h118zM552 0l-75 192h-281l-75 -192h-109l299 739h54l296 -739h-109zM337 565l-107 -279h213z" />
    <glyph glyph-name="Acircumflex" unicode="&#xc2;" horiz-adv-x="674" 
d="M337 883l-72 -91h-103l141 165h69l141 -165h-104zM552 0l-75 192h-281l-75 -192h-109l299 739h54l296 -739h-109zM337 565l-107 -279h213z" />
    <glyph glyph-name="Atilde" unicode="&#xc3;" horiz-adv-x="674" 
d="M266 847q-37 0 -60 -47l-62 29q13 46 44.5 71t73.5 25q33 0 76 -22q44 -22 64 -22q37 0 58 45l60 -28q-12 -46 -43 -71t-73 -25q-32 0 -75 22q-44 23 -63 23zM552 0l-75 192h-281l-75 -192h-109l299 739h54l296 -739h-109zM337 565l-107 -279h213z" />
    <glyph glyph-name="Adieresis" unicode="&#xc4;" horiz-adv-x="674" 
d="M248 806q-27 0 -45.5 18t-18.5 45q0 25 18.5 42.5t45.5 17.5q25 0 42.5 -17.5t17.5 -42.5q0 -27 -17.5 -45t-42.5 -18zM427 806q-27 0 -45 18t-18 45q0 25 18.5 42.5t44.5 17.5t43.5 -17.5t17.5 -42.5q0 -27 -17.5 -45t-43.5 -18zM552 0l-75 192h-281l-75 -192h-109
l299 739h54l296 -739h-109zM337 565l-107 -279h213z" />
    <glyph glyph-name="Aring" unicode="&#xc5;" horiz-adv-x="674" 
d="M341 781q-25 0 -46.5 8.5t-37.5 24t-25 36t-9 44.5t9 44.5t25 35.5t37.5 24t46.5 9q49 0 82 -33q34 -33 34 -80q0 -24 -9 -44.5t-24.5 -36t-37 -24t-45.5 -8.5zM341 948q-23 0 -39 -15t-16 -37q0 -24 16 -40t39 -16q22 0 37.5 16t15.5 40q0 21 -16 36.5t-37 15.5zM552 0
l-75 192h-281l-75 -192h-109l299 739h54l296 -739h-109zM337 565l-107 -279h213z" />
    <glyph glyph-name="AE" unicode="&#xc6;" horiz-adv-x="1015" 
d="M959 644h-369v-221h339v-95h-339v-233h369v-95h-469v218h-259l-133 -218h-113l463 739h511v-95zM288 312h202v332z" />
    <glyph glyph-name="Ccedilla" unicode="&#xc7;" horiz-adv-x="776" 
d="M750 149q-48 -67 -126 -110t-172 -49l-15 -38h8q43 0 73 -24.5t30 -67.5q0 -45 -33.5 -78t-96.5 -33q-51 0 -114 29l25 63q43 -21 81 -21q28 0 43 12.5t15 31.5q0 36 -52 36h-56l-9 22l28 70q-145 17 -238 119q-95 104 -95 256q0 168 112 276q112 109 271 109
q100 0 186 -45q85 -43 133 -117l-74 -62q-94 127 -243 127q-118 0 -200 -82t-82 -207q0 -122 80 -202q80 -79 201 -79q75 0 139 33.5t109 91.5z" />
    <glyph glyph-name="Egrave" unicode="&#xc8;" horiz-adv-x="609" 
d="M378 794h-84l-94 168h118zM93 0v739h460v-95h-360v-221h333v-95h-333v-233h360v-95h-460z" />
    <glyph glyph-name="Eacute" unicode="&#xc9;" horiz-adv-x="609" 
d="M274 793l59 168h118l-93 -168h-84zM93 0v739h460v-95h-360v-221h333v-95h-333v-233h360v-95h-460z" />
    <glyph glyph-name="Ecircumflex" unicode="&#xca;" horiz-adv-x="609" 
d="M149 792l141 165h69l141 -165h-104l-72 91l-72 -91h-103zM93 0v739h460v-95h-360v-221h333v-95h-333v-233h360v-95h-460z" />
    <glyph glyph-name="Edieresis" unicode="&#xcb;" horiz-adv-x="609" 
d="M237 806q-27 0 -45.5 18t-18.5 45q0 25 18.5 42.5t45.5 17.5q25 0 42.5 -17.5t17.5 -42.5q0 -27 -17.5 -45t-42.5 -18zM416 806q-27 0 -45 18t-18 45q0 25 18.5 42.5t44.5 17.5t43.5 -17.5t17.5 -42.5q0 -27 -17.5 -45t-43.5 -18zM93 0v739h460v-95h-360v-221h333v-95
h-333v-233h360v-95h-460z" />
    <glyph glyph-name="Igrave" unicode="&#xcc;" horiz-adv-x="286" 
d="M189 794h-84l-94 168h118zM96 739h100v-739h-100v739z" />
    <glyph glyph-name="Iacute" unicode="&#xcd;" horiz-adv-x="283" 
d="M98 794l59 168h118l-93 -168h-84zM93 739h100v-739h-100v739z" />
    <glyph glyph-name="Icircumflex" unicode="&#xce;" horiz-adv-x="286" 
d="M-29 794l141 165h69l141 -165h-104l-72 91l-72 -91h-103zM96 739h100v-739h-100v739z" />
    <glyph glyph-name="Idieresis" unicode="&#xcf;" horiz-adv-x="286" 
d="M53 801q-29 0 -48 18.5t-19 47.5q0 26 19.5 44.5t47.5 18.5q26 0 44.5 -18.5t18.5 -44.5q0 -29 -18 -47.5t-45 -18.5zM240 801q-28 0 -46.5 18.5t-18.5 47.5q0 26 18.5 44.5t46.5 18.5q27 0 46 -18.5t19 -44.5q0 -29 -19 -47.5t-46 -18.5zM96 739h100v-739h-100v739z" />
    <glyph glyph-name="Eth" unicode="&#xd0;" horiz-adv-x="777" 
d="M387 739q157 0 248 -100q92 -101 92 -271q0 -171 -94 -269q-93 -99 -256 -99h-265v327h-100v86h100v326h275zM381 95q113 0 178 77q64 77 64 199q0 120 -64 196q-65 77 -178 77h-169v-231h213v-86h-213v-232h169z" />
    <glyph glyph-name="Ntilde" unicode="&#xd1;" horiz-adv-x="780" 
d="M205 829q13 46 44.5 71t73.5 25q33 0 76 -22q44 -22 64 -22q37 0 58 45l60 -28q-12 -46 -43 -71t-73 -25q-32 0 -75 22q-44 23 -63 23q-37 0 -60 -47zM588 739h99v-739h-52l-443 524v-524h-99v739h45l450 -527v527z" />
    <glyph glyph-name="Ograve" unicode="&#xd2;" horiz-adv-x="855" 
d="M485 794h-84l-94 168h118zM45 365q0 162 112 274q113 113 270 113t270 -113t113 -270t-113 -270q-113 -111 -273 -111q-161 0 -270 109t-109 268zM706 368q0 121 -81 204q-81 82 -198 82q-116 0 -197 -83t-81 -203q0 -119 80 -202q79 -81 198 -81q118 0 198 81
q81 81 81 202z" />
    <glyph glyph-name="Oacute" unicode="&#xd3;" horiz-adv-x="855" 
d="M382 793l59 168h118l-93 -168h-84zM45 365q0 162 112 274q113 113 270 113t270 -113t113 -270t-113 -270q-113 -111 -273 -111q-161 0 -270 109t-109 268zM706 368q0 121 -81 204q-81 82 -198 82q-116 0 -197 -83t-81 -203q0 -119 80 -202q79 -81 198 -81q118 0 198 81
q81 81 81 202z" />
    <glyph glyph-name="Ocircumflex" unicode="&#xd4;" horiz-adv-x="855" 
d="M252 792l141 165h69l141 -165h-104l-72 91l-72 -91h-103zM45 365q0 162 112 274q113 113 270 113t270 -113t113 -270t-113 -270q-113 -111 -273 -111q-161 0 -270 109t-109 268zM706 368q0 121 -81 204q-81 82 -198 82q-116 0 -197 -83t-81 -203q0 -119 80 -202
q79 -81 198 -81q118 0 198 81q81 81 81 202z" />
    <glyph glyph-name="Otilde" unicode="&#xd5;" horiz-adv-x="855" 
d="M244 829q13 46 44.5 71t73.5 25q33 0 76 -22q44 -22 64 -22q37 0 58 45l60 -28q-12 -46 -43 -71t-73 -25q-32 0 -75 22q-44 23 -63 23q-37 0 -60 -47zM45 365q0 162 112 274q113 113 270 113t270 -113t113 -270t-113 -270q-113 -111 -273 -111q-161 0 -270 109t-109 268z
M706 368q0 121 -81 204q-81 82 -198 82q-116 0 -197 -83t-81 -203q0 -119 80 -202q79 -81 198 -81q118 0 198 81q81 81 81 202z" />
    <glyph glyph-name="Odieresis" unicode="&#xd6;" horiz-adv-x="855" 
d="M345 806q-27 0 -45.5 18t-18.5 45q0 25 18.5 42.5t45.5 17.5q25 0 42.5 -17.5t17.5 -42.5q0 -27 -17.5 -45t-42.5 -18zM524 806q-27 0 -45 18t-18 45q0 25 18.5 42.5t44.5 17.5t43.5 -17.5t17.5 -42.5q0 -27 -17.5 -45t-43.5 -18zM45 365q0 162 112 274q113 113 270 113
t270 -113t113 -270t-113 -270q-113 -111 -273 -111q-161 0 -270 109t-109 268zM706 368q0 121 -81 204q-81 82 -198 82q-116 0 -197 -83t-81 -203q0 -119 80 -202q79 -81 198 -81q118 0 198 81q81 81 81 202z" />
    <glyph glyph-name="multiply" unicode="&#xd7;" horiz-adv-x="519" 
d="M465 488l-148 -149l148 -148l-57 -60l-149 150l-149 -150l-57 60l148 148l-147 147l56 59l148 -148l148 148z" />
    <glyph glyph-name="Oslash" unicode="&#xd8;" horiz-adv-x="855" 
d="M682 655q60 -54 94 -128t34 -158q0 -157 -113 -270q-113 -111 -273 -111q-98 0 -181 44l-56 -79l-65 45l55 78q-63 54 -97.5 127.5t-34.5 161.5q0 162 112 274q113 113 270 113q101 0 190 -51l61 86l65 -45zM149 368q0 -126 87 -208l325 461q-63 33 -134 33
q-116 0 -197 -83t-81 -203zM427 85q118 0 198 81q81 81 81 202q0 123 -82 205l-323 -459q56 -29 126 -29z" />
    <glyph glyph-name="Ugrave" unicode="&#xd9;" horiz-adv-x="706" 
d="M404 794h-84l-94 168h118zM85 739h100v-472q0 -88 43.5 -135t124.5 -47q79 0 123 47.5t44 134.5v472h101v-490q0 -121 -74 -192q-73 -70 -194 -70t-194 70q-74 71 -74 192v490z" />
    <glyph glyph-name="Uacute" unicode="&#xda;" horiz-adv-x="706" 
d="M307 793l59 168h118l-93 -168h-84zM85 739h100v-472q0 -88 43.5 -135t124.5 -47q79 0 123 47.5t44 134.5v472h101v-490q0 -121 -74 -192q-73 -70 -194 -70t-194 70q-74 71 -74 192v490z" />
    <glyph glyph-name="Ucircumflex" unicode="&#xdb;" horiz-adv-x="706" 
d="M178 792l141 165h69l141 -165h-104l-72 91l-72 -91h-103zM85 739h100v-472q0 -88 43.5 -135t124.5 -47q79 0 123 47.5t44 134.5v472h101v-490q0 -121 -74 -192q-73 -70 -194 -70t-194 70q-74 71 -74 192v490z" />
    <glyph glyph-name="Udieresis" unicode="&#xdc;" horiz-adv-x="706" 
d="M265 806q-27 0 -45.5 18t-18.5 45q0 25 18.5 42.5t45.5 17.5q25 0 42.5 -17.5t17.5 -42.5q0 -27 -17.5 -45t-42.5 -18zM444 806q-27 0 -45 18t-18 45q0 25 18.5 42.5t44.5 17.5t43.5 -17.5t17.5 -42.5q0 -27 -17.5 -45t-43.5 -18zM85 739h100v-472q0 -88 43.5 -135
t124.5 -47q79 0 123 47.5t44 134.5v472h101v-490q0 -121 -74 -192q-73 -70 -194 -70t-194 70q-74 71 -74 192v490z" />
    <glyph glyph-name="Yacute" unicode="&#xdd;" horiz-adv-x="639" 
d="M270 793l59 168h118l-93 -168h-84zM622 739l-253 -473v-266h-100v266l-250 473h111l189 -374l192 374h111z" />
    <glyph glyph-name="Thorn" unicode="&#xde;" horiz-adv-x="622" 
d="M342 609q115 0 177 -68q61 -67 61 -160q0 -95 -64 -162q-65 -66 -184 -66h-139v-153h-100v739h100v-130h149zM334 246q36 0 63.5 11t45.5 29.5t27.5 43.5t9.5 53q0 27 -9 51t-26 41.5t-41.5 28t-56.5 10.5h-154v-268h141z" />
    <glyph glyph-name="germandbls" unicode="&#xdf;" horiz-adv-x="643" 
d="M474 395q58 -22 93 -73t35 -117q0 -98 -73 -161q-74 -63 -180 -63q-64 0 -121 23l24 85q36 -17 95 -17q71 0 115 42q43 42 43 99q0 31 -13.5 56t-38 43t-58.5 27.5t-74 9.5v80q33 0 60.5 10.5t47.5 28.5t31 42.5t11 53.5q0 57 -38 91t-98 34q-75 0 -119 -57.5t-44 -165.5
v-643h-98v667q0 140 76 213q77 74 188 74q102 0 166 -59q64 -58 64 -149q0 -57 -24.5 -102.5t-69.5 -71.5z" />
    <glyph glyph-name="agrave" unicode="&#xe0;" horiz-adv-x="665" 
d="M373 623h-83l-93 167h117zM498 536h92v-536h-92v76q-72 -89 -189 -89q-116 0 -192 82t-76 203t76 198q76 79 192 79q114 0 189 -91v78zM504 269q0 80 -51 136t-133 56t-132 -56t-50 -137t50 -137t132 -56t133 56q51 55 51 138z" />
    <glyph glyph-name="aacute" unicode="&#xe1;" horiz-adv-x="665" 
d="M463 790l-93 -167h-83l59 167h117zM498 536h92v-536h-92v76q-72 -89 -189 -89q-116 0 -192 82t-76 203t76 198q76 79 192 79q114 0 189 -91v78zM504 269q0 80 -51 136t-133 56t-132 -56t-50 -137t50 -137t132 -56t133 56q51 55 51 138z" />
    <glyph glyph-name="acircumflex" unicode="&#xe2;" horiz-adv-x="665" 
d="M328 711l-72 -90h-102l140 164h69l140 -164h-103zM498 536h92v-536h-92v76q-72 -89 -189 -89q-116 0 -192 82t-76 203t76 198q76 79 192 79q114 0 189 -91v78zM504 269q0 80 -51 136t-133 56t-132 -56t-50 -137t50 -137t132 -56t133 56q51 55 51 138z" />
    <glyph glyph-name="atilde" unicode="&#xe3;" horiz-adv-x="665" 
d="M262 678q-36 0 -59 -47l-62 29q13 46 44.5 71t73.5 25q33 0 76 -22t63 -22q37 0 58 45l60 -28q-12 -46 -43 -71t-73 -25q-32 0 -75 22q-44 23 -63 23zM498 536h92v-536h-92v76q-72 -89 -189 -89q-116 0 -192 82t-76 203t76 198q76 79 192 79q114 0 189 -91v78zM504 269
q0 80 -51 136t-133 56t-132 -56t-50 -137t50 -137t132 -56t133 56q51 55 51 138z" />
    <glyph glyph-name="adieresis" unicode="&#xe4;" horiz-adv-x="665" 
d="M232 618q-30 0 -50 19.5t-20 50.5q0 28 20 47t50 19q28 0 47.5 -19t19.5 -47q0 -30 -19.5 -50t-47.5 -20zM430 618q-30 0 -49.5 20t-19.5 50q0 28 20 47t49 19t48.5 -19t19.5 -47q0 -30 -19.5 -50t-48.5 -20zM498 536h92v-536h-92v76q-72 -89 -189 -89q-116 0 -192 82
t-76 203t76 198q76 79 192 79q114 0 189 -91v78zM504 269q0 80 -51 136t-133 56t-132 -56t-50 -137t50 -137t132 -56t133 56q51 55 51 138z" />
    <glyph glyph-name="aring" unicode="&#xe5;" horiz-adv-x="665" 
d="M412 634q-34 -32 -82 -32t-83 32q-34 33 -34 80t34 80t83 33t82 -33q34 -33 34 -80t-34 -80zM330 768q-23 0 -39 -15t-16 -37q0 -24 16 -39.5t39 -15.5q22 0 37.5 15.5t15.5 39.5q0 21 -16 36.5t-37 15.5zM498 536h92v-536h-92v76q-72 -89 -189 -89q-116 0 -192 82
t-76 203t76 198q76 79 192 79q114 0 189 -91v78zM504 269q0 80 -51 136t-133 56t-132 -56t-50 -137t50 -137t132 -56t133 56q51 55 51 138z" />
    <glyph glyph-name="ae" unicode="&#xe6;" horiz-adv-x="995" 
d="M957 288q0 -13 -3 -49h-426q5 -35 19 -65t37.5 -52t55 -34.5t70.5 -12.5q45 0 95.5 17t86.5 44l43 -75q-20 -15 -45.5 -28.5t-55.5 -23.5t-62.5 -15.5t-65.5 -5.5q-162 0 -235 126q-37 -63 -98.5 -95t-134.5 -32q-48 0 -86 12.5t-65 35.5t-41.5 55t-14.5 71
q0 49 24.5 82.5t63.5 48.5q40 15 74 20.5t70 5.5h163q-21 143 -161 143q-106 0 -167 -50l-44 74q38 28 99 46q60 18 114 18q66 0 123.5 -28t89.5 -82q77 110 224 110q110 0 181 -69q72 -68 72 -192zM703 463q-69 0 -114.5 -39.5t-58.5 -105.5h331q-3 34 -16 61t-34 46
t-48.5 28.5t-59.5 9.5zM243 75q75 0 124 46q51 47 60 118h-164q-138 0 -138 -81q0 -38 33 -60.5t85 -22.5z" />
    <glyph glyph-name="ccedilla" unicode="&#xe7;" horiz-adv-x="599" 
d="M324 76q25 0 50 7t46.5 20t39.5 30.5t30 38.5l80 -46q-15 -29 -38.5 -52.5t-53 -41.5t-63 -29t-69.5 -14l-15 -37h8q43 0 73 -24.5t30 -67.5q0 -45 -33.5 -78t-96.5 -33q-51 0 -114 29l25 63q43 -21 81 -21q28 0 43 12.5t15 31.5q0 36 -52 36h-56l-9 22l28 70
q-105 16 -169 91q-63 76 -63 185q0 122 80 202q80 79 208 79q39 0 76.5 -10t69 -28t57 -44t40.5 -58l-79 -46q-27 45 -70 71.5t-94 26.5q-82 0 -137 -55q-54 -56 -54 -138q0 -81 53 -137q52 -55 133 -55z" />
    <glyph glyph-name="egrave" unicode="&#xe8;" horiz-adv-x="611" 
d="M358 623h-83l-93 167h117zM572 278q0 -10 -3 -49h-427q12 -68 58 -110.5t130 -42.5q48 0 99 16.5t88 43.5l41 -73q-40 -31 -101.5 -53t-128.5 -22q-76 0 -130 24.5t-88.5 64.5t-51 90.5t-16.5 102.5q0 120 75 200q76 79 196 79q114 0 186 -73q73 -73 73 -198zM473 312
q-2 35 -15 63t-34 48t-49.5 30.5t-61.5 10.5t-61.5 -11t-51 -31.5t-37.5 -48.5t-21 -61h331z" />
    <glyph glyph-name="eacute" unicode="&#xe9;" horiz-adv-x="611" 
d="M447 790l-93 -167h-83l59 167h117zM572 278q0 -10 -3 -49h-427q12 -68 58 -110.5t130 -42.5q48 0 99 16.5t88 43.5l41 -73q-40 -31 -101.5 -53t-128.5 -22q-76 0 -130 24.5t-88.5 64.5t-51 90.5t-16.5 102.5q0 120 75 200q76 79 196 79q114 0 186 -73q73 -73 73 -198z
M473 312q-2 35 -15 63t-34 48t-49.5 30.5t-61.5 10.5t-61.5 -11t-51 -31.5t-37.5 -48.5t-21 -61h331z" />
    <glyph glyph-name="ecircumflex" unicode="&#xea;" horiz-adv-x="611" 
d="M316 713l-72 -90h-102l140 164h69l140 -164h-103zM572 278q0 -10 -3 -49h-427q12 -68 58 -110.5t130 -42.5q48 0 99 16.5t88 43.5l41 -73q-40 -31 -101.5 -53t-128.5 -22q-76 0 -130 24.5t-88.5 64.5t-51 90.5t-16.5 102.5q0 120 75 200q76 79 196 79q114 0 186 -73
q73 -73 73 -198zM473 312q-2 35 -15 63t-34 48t-49.5 30.5t-61.5 10.5t-61.5 -11t-51 -31.5t-37.5 -48.5t-21 -61h331z" />
    <glyph glyph-name="edieresis" unicode="&#xeb;" horiz-adv-x="611" 
d="M227 613q-30 0 -50 19.5t-20 50.5q0 28 20 47t50 19q28 0 47.5 -19t19.5 -47q0 -30 -19.5 -50t-47.5 -20zM356 683q0 28 20 47t49 19t48.5 -19t19.5 -47q0 -30 -19.5 -50t-48.5 -20t-49 19.5t-20 50.5zM572 278q0 -10 -3 -49h-427q12 -68 58 -110.5t130 -42.5
q48 0 99 16.5t88 43.5l41 -73q-40 -31 -101.5 -53t-128.5 -22q-76 0 -130 24.5t-88.5 64.5t-51 90.5t-16.5 102.5q0 120 75 200q76 79 196 79q114 0 186 -73q73 -73 73 -198zM473 312q-2 35 -15 63t-34 48t-49.5 30.5t-61.5 10.5t-61.5 -11t-51 -31.5t-37.5 -48.5t-21 -61
h331z" />
    <glyph glyph-name="igrave" unicode="&#xec;" horiz-adv-x="245" 
d="M167 623h-83l-93 167h117zM170 0h-96v536h96v-536z" />
    <glyph glyph-name="iacute" unicode="&#xed;" horiz-adv-x="244" 
d="M80 623l59 167h117l-93 -167h-83zM170 0h-96v536h96v-536z" />
    <glyph glyph-name="icircumflex" unicode="&#xee;" horiz-adv-x="245" 
d="M-53 619l140 164h69l140 -164h-103l-72 90l-72 -90h-102zM170 0h-96v536h96v-536z" />
    <glyph glyph-name="idieresis" unicode="&#xef;" horiz-adv-x="245" 
d="M24 616q-30 0 -50 19.5t-20 50.5q0 28 20 47t50 19q28 0 47.5 -19t19.5 -47q0 -30 -19.5 -50t-47.5 -20zM222 616q-30 0 -49.5 20t-19.5 50q0 28 20 47t49 19t48.5 -19t19.5 -47q0 -30 -19.5 -50t-48.5 -20zM170 0h-96v536h96v-536z" />
    <glyph glyph-name="eth" unicode="&#xf0;" horiz-adv-x="656" 
d="M484 689q125 -161 125 -341q0 -155 -85 -258t-216 -103q-114 0 -191 74q-75 75 -75 187q0 111 74 187q73 75 184 75q36 0 68.5 -9.5t60.5 -26.5t49.5 -40.5t35.5 -52.5q-4 112 -83 227q-4 5 -9.5 12.5t-13.5 17.5l-101 -68l-41 56l96 64q-50 52 -107 94l66 64
q66 -51 118 -106l97 65l39 -57zM310 73q75 0 124 52q51 52 51 128q0 73 -51 123q-50 50 -122 50q-76 0 -125 -51q-49 -50 -49 -126q0 -73 48 -125q49 -51 124 -51z" />
    <glyph glyph-name="ntilde" unicode="&#xf1;" horiz-adv-x="618" 
d="M126 655q13 46 44.5 71t73.5 25q33 0 76 -22t63 -22q37 0 58 45l60 -28q-12 -46 -43 -71t-73 -25q-32 0 -75 22q-44 23 -63 23q-36 0 -59 -47zM74 0v536h94v-76q51 90 170 90q90 0 151 -58t61 -167v-325h-95v298q0 78 -38 120.5t-99 42.5q-65 0 -107 -46
q-41 -47 -41 -118v-297h-96z" />
    <glyph glyph-name="ograve" unicode="&#xf2;" 
d="M368 623h-83l-93 167h117zM323 -13q-124 0 -203 81q-79 82 -79 201t79 199q79 82 203 82q122 0 201 -82q80 -83 80 -199q0 -118 -80 -201q-80 -81 -201 -81zM508 269q0 79 -54 135q-54 57 -131 57t-131 -57q-54 -56 -54 -135q0 -80 54 -137t131 -57t131 57t54 137z" />
    <glyph glyph-name="oacute" unicode="&#xf3;" 
d="M272 623l59 167h117l-93 -167h-83zM323 -13q-124 0 -203 81q-79 82 -79 201t79 199q79 82 203 82q122 0 201 -82q80 -83 80 -199q0 -118 -80 -201q-80 -81 -201 -81zM508 269q0 79 -54 135q-54 57 -131 57t-131 -57q-54 -56 -54 -135q0 -80 54 -137t131 -57t131 57
t54 137z" />
    <glyph glyph-name="ocircumflex" unicode="&#xf4;" 
d="M150 625l140 164h69l140 -164h-103l-72 90l-72 -90h-102zM323 -13q-124 0 -203 81q-79 82 -79 201t79 199q79 82 203 82q122 0 201 -82q80 -83 80 -199q0 -118 -80 -201q-80 -81 -201 -81zM508 269q0 79 -54 135q-54 57 -131 57t-131 -57q-54 -56 -54 -135q0 -80 54 -137
t131 -57t131 57t54 137z" />
    <glyph glyph-name="otilde" unicode="&#xf5;" 
d="M136 658q13 46 44.5 71t73.5 25q33 0 76 -22t63 -22q37 0 58 45l60 -28q-12 -46 -43 -71t-73 -25q-32 0 -75 22q-44 23 -63 23q-36 0 -59 -47zM323 -13q-124 0 -203 81q-79 82 -79 201t79 199q79 82 203 82q122 0 201 -82q80 -83 80 -199q0 -118 -80 -201
q-80 -81 -201 -81zM508 269q0 79 -54 135q-54 57 -131 57t-131 -57q-54 -56 -54 -135q0 -80 54 -137t131 -57t131 57t54 137z" />
    <glyph glyph-name="odieresis" unicode="&#xf6;" 
d="M226 616q-30 0 -50 19.5t-20 50.5q0 28 20 47t50 19q28 0 47.5 -19t19.5 -47q0 -30 -19.5 -50t-47.5 -20zM424 616q-30 0 -49.5 20t-19.5 50q0 28 20 47t49 19t48.5 -19t19.5 -47q0 -30 -19.5 -50t-48.5 -20zM323 -13q-124 0 -203 81q-79 82 -79 201t79 199q79 82 203 82
q122 0 201 -82q80 -83 80 -199q0 -118 -80 -201q-80 -81 -201 -81zM508 269q0 79 -54 135q-54 57 -131 57t-131 -57q-54 -56 -54 -135q0 -80 54 -137t131 -57t131 57t54 137z" />
    <glyph glyph-name="divide" unicode="&#xf7;" horiz-adv-x="550" 
d="M211 504q0 26 18 43.5t45 17.5t45.5 -17.5t18.5 -43.5q0 -28 -18.5 -46.5t-45.5 -18.5t-45 18.5t-18 46.5zM52 286v86h447v-86h-447zM211 157q0 26 18 43.5t45 17.5t45.5 -17.5t18.5 -43.5q0 -28 -18.5 -46.5t-45.5 -18.5t-45 18.5t-18 46.5z" />
    <glyph glyph-name="oslash" unicode="&#xf8;" 
d="M510 481q94 -81 94 -212q0 -118 -80 -201q-80 -81 -201 -81q-74 0 -133 31l-54 -78l-54 37l53 77q-94 82 -94 215q0 119 79 199q79 82 203 82q74 0 133 -31l50 73l56 -36zM138 269q0 -79 52 -135l213 308q-37 19 -80 19q-77 0 -131 -57q-54 -56 -54 -135zM323 75
q77 0 131 57t54 137q0 78 -52 134l-213 -309q37 -19 80 -19z" />
    <glyph glyph-name="ugrave" unicode="&#xf9;" horiz-adv-x="595" 
d="M350 623h-83l-93 167h117zM297 -13q-53 0 -95.5 16t-72.5 46t-46 72t-16 95v320h96v-317q0 -66 35.5 -104.5t98.5 -38.5q64 0 99.5 38.5t35.5 104.5v317h95v-320q0 -108 -61 -168.5t-169 -60.5z" />
    <glyph glyph-name="uacute" unicode="&#xfa;" horiz-adv-x="595" 
d="M252 623l59 167h117l-93 -167h-83zM297 -13q-53 0 -95.5 16t-72.5 46t-46 72t-16 95v320h96v-317q0 -66 35.5 -104.5t98.5 -38.5q64 0 99.5 38.5t35.5 104.5v317h95v-320q0 -108 -61 -168.5t-169 -60.5z" />
    <glyph glyph-name="ucircumflex" unicode="&#xfb;" horiz-adv-x="595" 
d="M124 620l140 164h69l140 -164h-103l-72 90l-72 -90h-102zM297 -13q-53 0 -95.5 16t-72.5 46t-46 72t-16 95v320h96v-317q0 -66 35.5 -104.5t98.5 -38.5q64 0 99.5 38.5t35.5 104.5v317h95v-320q0 -108 -61 -168.5t-169 -60.5z" />
    <glyph glyph-name="udieresis" unicode="&#xfc;" horiz-adv-x="595" 
d="M199 616q-30 0 -50 19.5t-20 50.5q0 28 20 47t50 19q28 0 47.5 -19t19.5 -47q0 -30 -19.5 -50t-47.5 -20zM328 686q0 28 20 47t49 19t48.5 -19t19.5 -47q0 -30 -19.5 -50t-48.5 -20t-49 20t-20 50zM297 -13q-53 0 -95.5 16t-72.5 46t-46 72t-16 95v320h96v-317
q0 -66 35.5 -104.5t98.5 -38.5q64 0 99.5 38.5t35.5 104.5v317h95v-320q0 -108 -61 -168.5t-169 -60.5z" />
    <glyph glyph-name="yacute" unicode="&#xfd;" horiz-adv-x="555" 
d="M408 788l-93 -167h-83l59 167h117zM434 536h106l-225 -596q-34 -90 -78.5 -129t-107.5 -39q-52 0 -86 21l12 84q36 -16 65 -16q66 0 106 94l20 47l-233 534h111l166 -402z" />
    <glyph glyph-name="thorn" unicode="&#xfe;" horiz-adv-x="668" 
d="M355 549q119 0 195 -82q77 -82 77 -198q0 -118 -77 -201q-77 -81 -195 -81q-110 0 -185 89v-297h-96v978h96v-298q76 90 185 90zM348 75q81 0 132 56q51 55 51 138q0 80 -51 136t-132 56q-82 0 -133 -56t-51 -136q0 -82 50 -138q51 -56 134 -56z" />
    <glyph glyph-name="ydieresis" unicode="&#xff;" horiz-adv-x="555" 
d="M184 616q-30 0 -50 19.5t-20 50.5q0 28 20 47t50 19q28 0 47.5 -19t19.5 -47q0 -30 -19.5 -50t-47.5 -20zM382 616q-30 0 -49.5 20t-19.5 50q0 28 20 47t49 19t48.5 -19t19.5 -47q0 -30 -19.5 -50t-48.5 -20zM434 536h106l-225 -596q-34 -90 -78.5 -129t-107.5 -39
q-52 0 -86 21l12 84q36 -16 65 -16q66 0 106 94l20 47l-233 534h111l166 -402z" />
    <glyph glyph-name="Amacron" unicode="&#x100;" horiz-adv-x="674" 
d="M507 897v-85l-339 -1v86h339zM552 0l-75 192h-281l-75 -192h-109l299 739h54l296 -739h-109zM337 565l-107 -279h213z" />
    <glyph glyph-name="amacron" unicode="&#x101;" horiz-adv-x="665" 
d="M482 723v-85l-307 -1v86h307zM498 536h92v-536h-92v76q-72 -89 -189 -89q-116 0 -192 82t-76 203t76 198q76 79 192 79q114 0 189 -91v78zM504 269q0 80 -51 136t-133 56t-132 -56t-50 -137t50 -137t132 -56t133 56q51 55 51 138z" />
    <glyph glyph-name="Abreve" unicode="&#x102;" horiz-adv-x="674" 
d="M340 791q-65 0 -105 39t-42 107h70q1 -40 21.5 -62t55.5 -22t56 22t22 62h70q-1 -68 -41.5 -107t-106.5 -39zM552 0l-75 192h-281l-75 -192h-109l299 739h54l296 -739h-109zM337 565l-107 -279h213z" />
    <glyph glyph-name="abreve" unicode="&#x103;" horiz-adv-x="665" 
d="M498 536h92v-536h-92v76q-72 -89 -189 -89q-116 0 -192 82t-76 203t76 198q76 79 192 79q114 0 189 -91v78zM504 269q0 80 -51 136t-133 56t-132 -56t-50 -137t50 -137t132 -56t133 56q51 55 51 138zM329 617q-65 0 -105 39t-42 107h70q1 -40 21.5 -62t55.5 -22t56 22
t22 62h70q-1 -68 -41.5 -107t-106.5 -39z" />
    <glyph glyph-name="Aogonek" unicode="&#x104;" horiz-adv-x="672" 
d="M676 -231q-46 -29 -95 -29q-54 0 -85.5 31t-31.5 79q0 87 106 150h-18l-75 192h-281l-75 -192h-109l299 739h54l296 -739q-49 -21 -80 -56.5t-31 -69.5q0 -22 13 -35.5t35 -13.5q20 0 41 12zM337 565l-107 -279h213z" />
    <glyph glyph-name="aogonek" unicode="&#x105;" horiz-adv-x="662" 
d="M606 -231q-46 -29 -95 -29q-54 0 -85.5 31t-31.5 79q0 87 106 150h-2v76q-72 -89 -189 -89q-116 0 -192 82t-76 203t76 198q76 79 192 79q114 0 189 -91v78h92v-536h1q-49 -21 -80 -56.5t-31 -69.5q0 -22 13 -35.5t35 -13.5q20 0 41 12zM504 269q0 80 -51 136t-133 56
t-132 -56t-50 -137t50 -137t132 -56t133 56q51 55 51 138z" />
    <glyph glyph-name="Cacute" unicode="&#x106;" horiz-adv-x="776" 
d="M394 793l59 168h118l-93 -168h-84zM426 -11q-160 0 -270 106q-110 107 -110 272q0 168 112 276q112 109 271 109q100 0 186 -45q85 -43 133 -117l-74 -62q-94 127 -243 127q-118 0 -200 -82t-82 -207q0 -122 80 -202q80 -79 201 -79q75 0 139 33.5t109 91.5l72 -61
q-26 -36 -60.5 -65.5t-76 -50.5t-89 -32.5t-98.5 -11.5z" />
    <glyph glyph-name="cacute" unicode="&#x107;" horiz-adv-x="599" 
d="M282 623l59 167h117l-93 -167h-83zM324 -12q-125 0 -204 79t-79 201t80 202q80 79 208 79q39 0 76.5 -10t69 -28t57 -44t40.5 -58l-79 -46q-27 45 -70 71.5t-94 26.5q-82 0 -137 -55q-54 -56 -54 -138q0 -81 53 -137q52 -55 133 -55q25 0 50 7t46.5 20t39.5 30.5t30 38.5
l80 -46q-34 -63 -100 -100q-68 -38 -146 -38z" />
    <glyph glyph-name="Ccircumflex" unicode="&#x108;" horiz-adv-x="776" 
d="M247 792l141 165h69l141 -165h-104l-72 91l-72 -91h-103zM426 -11q-160 0 -270 106q-110 107 -110 272q0 168 112 276q112 109 271 109q100 0 186 -45q85 -43 133 -117l-74 -62q-94 127 -243 127q-118 0 -200 -82t-82 -207q0 -122 80 -202q80 -79 201 -79q75 0 139 33.5
t109 91.5l72 -61q-26 -36 -60.5 -65.5t-76 -50.5t-89 -32.5t-98.5 -11.5z" />
    <glyph glyph-name="ccircumflex" unicode="&#x109;" horiz-adv-x="599" 
d="M150 622l140 164h69l140 -164h-103l-72 90l-72 -90h-102zM324 -12q-125 0 -204 79t-79 201t80 202q80 79 208 79q39 0 76.5 -10t69 -28t57 -44t40.5 -58l-79 -46q-27 45 -70 71.5t-94 26.5q-82 0 -137 -55q-54 -56 -54 -138q0 -81 53 -137q52 -55 133 -55q25 0 50 7
t46.5 20t39.5 30.5t30 38.5l80 -46q-34 -63 -100 -100q-68 -38 -146 -38z" />
    <glyph glyph-name="Cdotaccent" unicode="&#x10a;" horiz-adv-x="776" 
d="M425 799q-30 0 -50 19.5t-20 49.5q0 29 20 48t50 19q28 0 48 -19.5t20 -47.5q0 -30 -20 -49.5t-48 -19.5zM426 -11q-160 0 -270 106q-110 107 -110 272q0 168 112 276q112 109 271 109q100 0 186 -45q85 -43 133 -117l-74 -62q-94 127 -243 127q-118 0 -200 -82t-82 -207
q0 -122 80 -202q80 -79 201 -79q75 0 139 33.5t109 91.5l72 -61q-26 -36 -60.5 -65.5t-76 -50.5t-89 -32.5t-98.5 -11.5z" />
    <glyph glyph-name="cdotaccent" unicode="&#x10b;" horiz-adv-x="599" 
d="M326 613q-30 0 -50 19.5t-20 49.5q0 29 20 48t50 19q28 0 48 -19.5t20 -47.5q0 -30 -20 -49.5t-48 -19.5zM324 -12q-125 0 -204 79t-79 201t80 202q80 79 208 79q39 0 76.5 -10t69 -28t57 -44t40.5 -58l-79 -46q-27 45 -70 71.5t-94 26.5q-82 0 -137 -55
q-54 -56 -54 -138q0 -81 53 -137q52 -55 133 -55q25 0 50 7t46.5 20t39.5 30.5t30 38.5l80 -46q-34 -63 -100 -100q-68 -38 -146 -38z" />
    <glyph glyph-name="Ccaron" unicode="&#x10c;" horiz-adv-x="776" 
d="M249 958h102l72 -90l72 90h103l-140 -164h-69zM426 -11q-160 0 -270 106q-110 107 -110 272q0 168 112 276q112 109 271 109q100 0 186 -45q85 -43 133 -117l-74 -62q-94 127 -243 127q-118 0 -200 -82t-82 -207q0 -122 80 -202q80 -79 201 -79q75 0 139 33.5t109 91.5
l72 -61q-26 -36 -60.5 -65.5t-76 -50.5t-89 -32.5t-98.5 -11.5z" />
    <glyph glyph-name="ccaron" unicode="&#x10d;" horiz-adv-x="599" 
d="M150 788h102l72 -90l72 90h103l-140 -164h-69zM324 -12q-125 0 -204 79t-79 201t80 202q80 79 208 79q39 0 76.5 -10t69 -28t57 -44t40.5 -58l-79 -46q-27 45 -70 71.5t-94 26.5q-82 0 -137 -55q-54 -56 -54 -138q0 -81 53 -137q52 -55 133 -55q25 0 50 7t46.5 20
t39.5 30.5t30 38.5l80 -46q-34 -63 -100 -100q-68 -38 -146 -38z" />
    <glyph glyph-name="Dcaron" unicode="&#x10e;" horiz-adv-x="758" 
d="M172 958h102l72 -90l72 90h103l-140 -164h-69zM93 0v739h275q157 0 248 -100q92 -101 92 -271q0 -171 -94 -269q-93 -99 -256 -99h-265zM193 95h169q113 0 178 77q64 77 64 199q0 120 -64 196q-65 77 -178 77h-169v-549z" />
    <glyph glyph-name="dcaron" unicode="&#x10f;" horiz-adv-x="700" 
d="M690 790h106l-82 -167h-80zM497 757h96v-757h-96v75q-70 -88 -186 -88q-118 0 -194 81q-76 82 -76 201q0 118 76 198q76 82 192 82q115 0 188 -91v299zM504 269q0 80 -51 136q-50 56 -132 56t-133 -56q-50 -56 -50 -136q0 -82 50 -138q51 -56 133 -56t132 56
q51 55 51 138z" />
    <glyph glyph-name="Dcroat" unicode="&#x110;" horiz-adv-x="777" 
d="M387 739q157 0 248 -100q92 -101 92 -271q0 -171 -94 -269q-93 -99 -256 -99h-265v327h-100v86h100v326h275zM381 95q113 0 178 77q64 77 64 199q0 120 -64 196q-65 77 -178 77h-169v-231h213v-86h-213v-232h169z" />
    <glyph glyph-name="dcroat" unicode="&#x111;" horiz-adv-x="670" 
d="M675 664v-69h-82v-595h-96v75q-70 -88 -186 -88q-118 0 -194 81q-76 82 -76 201q0 118 76 198q76 82 192 82q115 0 188 -91v137h-160v69h160v93h96v-93h82zM504 269q0 80 -51 136q-50 56 -132 56t-133 -56q-50 -56 -50 -136q0 -82 50 -138q51 -56 133 -56t132 56
q51 55 51 138z" />
    <glyph glyph-name="Emacron" unicode="&#x112;" horiz-adv-x="609" 
d="M158 811v86h339v-85zM93 0v739h460v-95h-360v-221h333v-95h-333v-233h360v-95h-460z" />
    <glyph glyph-name="emacron" unicode="&#x113;" horiz-adv-x="611" 
d="M466 722v-85l-307 -1v86h307zM572 278q0 -10 -3 -49h-427q12 -68 58 -110.5t130 -42.5q48 0 99 16.5t88 43.5l41 -73q-40 -31 -101.5 -53t-128.5 -22q-76 0 -130 24.5t-88.5 64.5t-51 90.5t-16.5 102.5q0 120 75 200q76 79 196 79q114 0 186 -73q73 -73 73 -198zM473 312
q-2 35 -15 63t-34 48t-49.5 30.5t-61.5 10.5t-61.5 -11t-51 -31.5t-37.5 -48.5t-21 -61h331z" />
    <glyph glyph-name="Ebreve" unicode="&#x114;" horiz-adv-x="609" 
d="M329 785q-78 0 -125.5 46.5t-49.5 127.5h83q1 -48 25.5 -74t66.5 -26t67 26t26 74h83q0 -40 -13 -72.5t-36.5 -55t-55.5 -34.5t-71 -12zM93 0v739h460v-95h-360v-221h333v-95h-333v-233h360v-95h-460z" />
    <glyph glyph-name="ebreve" unicode="&#x115;" horiz-adv-x="611" 
d="M226 788q1 -48 25.5 -73.5t66.5 -25.5t66.5 25.5t25.5 73.5h83q-2 -80 -50 -126q-49 -47 -125 -47q-39 0 -70.5 12.5t-54 35t-35.5 54.5t-14 71h82zM572 278q0 -10 -3 -49h-427q12 -68 58 -110.5t130 -42.5q48 0 99 16.5t88 43.5l41 -73q-40 -31 -101.5 -53t-128.5 -22
q-76 0 -130 24.5t-88.5 64.5t-51 90.5t-16.5 102.5q0 120 75 200q76 79 196 79q114 0 186 -73q73 -73 73 -198zM473 312q-2 35 -15 63t-34 48t-49.5 30.5t-61.5 10.5t-61.5 -11t-51 -31.5t-37.5 -48.5t-21 -61h331z" />
    <glyph glyph-name="Edotaccent" unicode="&#x116;" horiz-adv-x="609" 
d="M327 799q-30 0 -50 19.5t-20 49.5q0 29 20 48t50 19q28 0 48 -19.5t20 -47.5q0 -30 -20 -49.5t-48 -19.5zM93 0v739h460v-95h-360v-221h333v-95h-333v-233h360v-95h-460z" />
    <glyph glyph-name="edotaccent" unicode="&#x117;" horiz-adv-x="611" 
d="M319 613q-30 0 -50 19.5t-20 49.5q0 29 20 48t50 19q28 0 48 -19.5t20 -47.5q0 -30 -20 -49.5t-48 -19.5zM572 278q0 -10 -3 -49h-427q12 -68 58 -110.5t130 -42.5q48 0 99 16.5t88 43.5l41 -73q-40 -31 -101.5 -53t-128.5 -22q-76 0 -130 24.5t-88.5 64.5t-51 90.5
t-16.5 102.5q0 120 75 200q76 79 196 79q114 0 186 -73q73 -73 73 -198zM473 312q-2 35 -15 63t-34 48t-49.5 30.5t-61.5 10.5t-61.5 -11t-51 -31.5t-37.5 -48.5t-21 -61h331z" />
    <glyph glyph-name="Eogonek" unicode="&#x118;" horiz-adv-x="607" 
d="M569 -231q-46 -29 -95 -29q-54 0 -85.5 31t-31.5 79q0 87 106 150h-370v739h460v-95h-360v-221h333v-95h-333v-233h360v-95h1q-49 -21 -80 -56.5t-31 -69.5q0 -22 13 -35.5t35 -13.5q20 0 41 12z" />
    <glyph glyph-name="eogonek" unicode="&#x119;" horiz-adv-x="611" 
d="M572 278q0 -10 -3 -49h-427q12 -68 58 -110.5t130 -42.5q48 0 99 16.5t88 43.5l41 -73q-25 -19 -54 -33.5t-64 -24.5q-48 -22 -79 -57t-31 -69q0 -22 13 -35.5t35 -13.5q20 0 41 12l37 -68q-46 -29 -95 -29q-54 0 -85.5 31t-31.5 79q0 77 80 133q-75 1 -128.5 25.5
t-87.5 64.5t-50 90t-16 102q0 120 75 200q76 79 196 79q114 0 186 -73q73 -73 73 -198zM473 312q-2 35 -15 63t-34 48t-49.5 30.5t-61.5 10.5t-61.5 -11t-51 -31.5t-37.5 -48.5t-21 -61h331z" />
    <glyph glyph-name="Ecaron" unicode="&#x11a;" horiz-adv-x="609" 
d="M151 958h102l72 -90l72 90h103l-140 -164h-69zM93 0v739h460v-95h-360v-221h333v-95h-333v-233h360v-95h-460z" />
    <glyph glyph-name="ecaron" unicode="&#x11b;" horiz-adv-x="611" 
d="M351 624h-69l-140 164h102l72 -90l72 90h103zM572 278q0 -10 -3 -49h-427q12 -68 58 -110.5t130 -42.5q48 0 99 16.5t88 43.5l41 -73q-40 -31 -101.5 -53t-128.5 -22q-76 0 -130 24.5t-88.5 64.5t-51 90.5t-16.5 102.5q0 120 75 200q76 79 196 79q114 0 186 -73
q73 -73 73 -198zM473 312q-2 35 -15 63t-34 48t-49.5 30.5t-61.5 10.5t-61.5 -11t-51 -31.5t-37.5 -48.5t-21 -61h331z" />
    <glyph glyph-name="Gcircumflex" unicode="&#x11c;" horiz-adv-x="812" 
d="M256 794l141 165h69l141 -165h-104l-72 91l-72 -91h-103zM424 -11q-163 0 -271 108q-107 109 -107 272q0 166 112 274q112 109 272 109q94 0 175.5 -37.5t132.5 -98.5l-71 -65q-93 104 -236 104q-120 0 -202 -81q-81 -81 -81 -206q0 -122 81 -203q82 -80 199 -80
q66 0 128.5 28t108.5 76v147h-247v92h341v-283q-135 -156 -335 -156z" />
    <glyph glyph-name="gcircumflex" unicode="&#x11d;" horiz-adv-x="667" 
d="M317 712l-72 -90h-102l140 164h69l140 -164h-103zM498 536h95v-481q0 -130 -78 -206q-79 -77 -209 -77q-131 0 -237 76l45 76q88 -65 191 -65q88 0 141 51q52 49 52 129v44q-72 -84 -188 -84t-192 79q-77 80 -77 197t79 195q79 79 195 79q111 0 183 -83v70zM190 139
q52 -54 131 -54q78 0 131 54q52 53 52 135t-52 134q-53 54 -131 54q-79 0 -131 -54q-52 -52 -52 -134t52 -135z" />
    <glyph glyph-name="Gbreve" unicode="&#x11e;" horiz-adv-x="812" 
d="M430 787q-78 0 -125.5 46.5t-49.5 127.5h83q1 -48 25.5 -74t66.5 -26t67 26t26 74h83q0 -40 -13 -72.5t-36.5 -55t-55.5 -34.5t-71 -12zM424 -11q-163 0 -271 108q-107 109 -107 272q0 166 112 274q112 109 272 109q94 0 175.5 -37.5t132.5 -98.5l-71 -65
q-93 104 -236 104q-120 0 -202 -81q-81 -81 -81 -206q0 -122 81 -203q82 -80 199 -80q66 0 128.5 28t108.5 76v147h-247v92h341v-283q-135 -156 -335 -156z" />
    <glyph glyph-name="gbreve" unicode="&#x11f;" horiz-adv-x="667" 
d="M222 791q1 -48 25.5 -73.5t66.5 -25.5t66.5 25.5t25.5 73.5h83q-2 -80 -50 -126q-49 -47 -125 -47q-39 0 -70.5 12.5t-54 35t-35.5 54.5t-14 71h82zM498 536h95v-481q0 -130 -78 -206q-79 -77 -209 -77q-131 0 -237 76l45 76q88 -65 191 -65q88 0 141 51q52 49 52 129v44
q-72 -84 -188 -84t-192 79q-77 80 -77 197t79 195q79 79 195 79q111 0 183 -83v70zM190 139q52 -54 131 -54q78 0 131 54q52 53 52 135t-52 134q-53 54 -131 54q-79 0 -131 -54q-52 -52 -52 -134t52 -135z" />
    <glyph glyph-name="Gdotaccent" unicode="&#x120;" horiz-adv-x="812" 
d="M433 799q-30 0 -50 19.5t-20 49.5q0 29 20 48t50 19q28 0 48 -19.5t20 -47.5q0 -30 -20 -49.5t-48 -19.5zM424 -11q-163 0 -271 108q-107 109 -107 272q0 166 112 274q112 109 272 109q94 0 175.5 -37.5t132.5 -98.5l-71 -65q-93 104 -236 104q-120 0 -202 -81
q-81 -81 -81 -206q0 -122 81 -203q82 -80 199 -80q66 0 128.5 28t108.5 76v147h-247v92h341v-283q-135 -156 -335 -156z" />
    <glyph glyph-name="gdotaccent" unicode="&#x121;" horiz-adv-x="667" 
d="M318 615q-30 0 -50 19.5t-20 49.5q0 29 20 48t50 19q28 0 48 -19.5t20 -47.5q0 -30 -20 -49.5t-48 -19.5zM498 536h95v-481q0 -130 -78 -206q-79 -77 -209 -77q-131 0 -237 76l45 76q88 -65 191 -65q88 0 141 51q52 49 52 129v44q-72 -84 -188 -84t-192 79
q-77 80 -77 197t79 195q79 79 195 79q111 0 183 -83v70zM190 139q52 -54 131 -54q78 0 131 54q52 53 52 135t-52 134q-53 54 -131 54q-79 0 -131 -54q-52 -52 -52 -134t52 -135z" />
    <glyph glyph-name="Gcommaaccent" unicode="&#x122;" horiz-adv-x="812" 
d="M418 428h341v-283q-135 -156 -335 -156q-163 0 -271 108q-107 109 -107 272q0 166 112 274q112 109 272 109q94 0 175.5 -37.5t132.5 -98.5l-71 -65q-93 104 -236 104q-120 0 -202 -81q-81 -81 -81 -206q0 -122 81 -203q82 -80 199 -80q66 0 128.5 28t108.5 76v147h-247
v92zM429 -38q30 0 50 -21.5t20 -53.5q0 -85 -125 -166l-32 44q63 48 79 74h-2q-23 0 -39.5 17.5t-16.5 41.5q0 26 19 45t47 19z" />
    <glyph glyph-name="gcommaaccent" unicode="&#x123;" horiz-adv-x="667" 
d="M318 599q-29 0 -49 21.5t-20 53.5q0 86 124 165l32 -44q-63 -48 -79 -74h2q22 0 39 -17.5t17 -40.5q0 -26 -19 -45t-47 -19zM498 536h95v-481q0 -130 -78 -206q-79 -77 -209 -77q-131 0 -237 76l45 76q88 -65 191 -65q88 0 141 51q52 49 52 129v44q-72 -84 -188 -84
t-192 79q-77 80 -77 197t79 195q79 79 195 79q111 0 183 -83v70zM190 139q52 -54 131 -54q78 0 131 54q52 53 52 135t-52 134q-53 54 -131 54q-79 0 -131 -54q-52 -52 -52 -134t52 -135z" />
    <glyph glyph-name="Hcircumflex" unicode="&#x124;" horiz-adv-x="758" 
d="M205 792l141 165h69l141 -165h-104l-72 91l-72 -91h-103zM93 0v739h101v-312h371v312h100v-739h-100v331h-371v-331h-101z" />
    <glyph glyph-name="hcircumflex" unicode="&#x125;" horiz-adv-x="617" 
d="M-53 793l141 165h69l141 -165h-104l-72 91l-72 -91h-103zM75 0v757h93v-287q25 36 70 58t100 22q89 0 150 -58t61 -167v-325h-95v298q0 79 -37.5 121t-98.5 42q-33 0 -60 -12t-46.5 -33.5t-30 -51.5t-10.5 -66v-298h-96z" />
    <glyph glyph-name="Hbar" unicode="&#x126;" horiz-adv-x="795" 
d="M768 618v-82h-93v-536h-100v331h-371v-331h-101v536h-93v82h93v121h101v-121h371v121h100v-121h93zM575 427v109h-371v-109h371z" />
    <glyph glyph-name="hbar" unicode="&#x127;" horiz-adv-x="617" 
d="M338 550q89 0 150 -58t61 -167v-325h-95v298q0 79 -37.5 121t-98.5 42q-33 0 -60 -12t-46.5 -33.5t-30 -51.5t-10.5 -66v-298h-96v595h-65v69h65v93h93v-93h180v-69h-180v-125q25 36 70 58t100 22z" />
    <glyph glyph-name="Itilde" unicode="&#x128;" horiz-adv-x="286" 
d="M-43 846q13 46 44.5 71t73.5 25q33 0 76 -22q44 -22 64 -22q37 0 58 45l60 -28q-12 -46 -43 -71t-73 -25q-32 0 -75 22q-44 23 -63 23q-37 0 -60 -47zM96 739h100v-739h-100v739z" />
    <glyph glyph-name="itilde" unicode="&#x129;" horiz-adv-x="245" 
d="M-65 658q13 46 44.5 71t73.5 25q33 0 76 -22t63 -22q37 0 58 45l60 -28q-12 -46 -43 -71t-73 -25q-32 0 -75 22q-44 23 -63 23q-36 0 -59 -47zM170 0h-96v536h96v-536z" />
    <glyph glyph-name="Imacron" unicode="&#x12a;" horiz-adv-x="286" 
d="M-23 828v86h339v-85zM96 739h100v-739h-100v739z" />
    <glyph glyph-name="imacron" unicode="&#x12b;" horiz-adv-x="245" 
d="M-30 636v86h307v-85zM170 0h-96v536h96v-536z" />
    <glyph glyph-name="Ibreve" unicode="&#x12c;" horiz-adv-x="286" 
d="M145 788q-78 0 -125.5 46.5t-49.5 127.5h83q1 -48 25.5 -74t66.5 -26t67 26t26 74h83q0 -40 -13 -72.5t-36.5 -55t-55.5 -34.5t-71 -12zM96 739h100v-739h-100v739z" />
    <glyph glyph-name="ibreve" unicode="&#x12d;" horiz-adv-x="245" 
d="M31 788q1 -48 25.5 -73.5t66.5 -25.5t66.5 25.5t25.5 73.5h83q-2 -80 -50 -126q-49 -47 -125 -47q-39 0 -70.5 12.5t-54 35t-35.5 54.5t-14 71h82zM170 0h-96v536h96v-536z" />
    <glyph glyph-name="Iogonek" unicode="&#x12e;" horiz-adv-x="286" 
d="M210 -231q-46 -29 -95 -29q-54 0 -85.5 31t-31.5 79q0 87 106 150h-9v739h100v-739q-49 -21 -80 -56.5t-31 -69.5q0 -22 13 -35.5t35 -13.5q20 0 41 12z" />
    <glyph glyph-name="iogonek" unicode="&#x12f;" horiz-adv-x="245" 
d="M124 612q-30 0 -50 19.5t-20 49.5q0 29 20 48t50 19q28 0 48 -19.5t20 -47.5q0 -30 -20 -49.5t-48 -19.5zM108 -175q20 0 41 12l37 -68q-46 -29 -95 -29q-54 0 -85.5 31t-31.5 79q0 87 106 150h-6v536h96v-536h1q-49 -21 -80 -56.5t-31 -69.5q0 -22 13 -35.5t35 -13.5z
" />
    <glyph glyph-name="Idotaccent" unicode="&#x130;" horiz-adv-x="286" 
d="M151 797q-30 0 -50 19.5t-20 49.5q0 29 20 48t50 19q28 0 48 -19.5t20 -47.5q0 -30 -20 -49.5t-48 -19.5zM100 739h100v-739h-100v739z" />
    <glyph glyph-name="dotlessi" unicode="&#x131;" horiz-adv-x="245" 
d="M170 0h-96v536h96v-536z" />
    <glyph glyph-name="IJ" unicode="&#x132;" horiz-adv-x="840" 
d="M93 739h100v-739h-100v739zM507 -12q-129 0 -212 95l61 73q60 -73 151 -73q66 0 106.5 42t40.5 120v494h100v-499q0 -120 -69 -186q-68 -66 -178 -66z" />
    <glyph glyph-name="ij" unicode="&#x133;" horiz-adv-x="515" 
d="M124 612q-30 0 -50 19.5t-20 49.5q0 29 20 48t50 19q28 0 48 -19.5t20 -47.5q0 -30 -20 -49.5t-48 -19.5zM390 612q-30 0 -50 19.5t-20 49.5q0 29 20 48t50 19q28 0 48 -19.5t20 -47.5q0 -30 -20 -49.5t-48 -19.5zM170 0h-96v536h96v-536zM260 -229q-60 0 -95 22l19 80
q39 -14 65 -14q92 0 92 110v567h96v-561q0 -100 -47.5 -152t-129.5 -52z" />
    <glyph glyph-name="Jcircumflex" unicode="&#x134;" horiz-adv-x="558" 
d="M246 792l141 165h69l141 -165h-104l-72 91l-72 -91h-103zM225 -12q-129 0 -212 95l61 73q60 -73 151 -73q66 0 106.5 42t40.5 120v494h100v-499q0 -120 -69 -186q-68 -66 -178 -66z" />
    <glyph glyph-name="jcircumflex" unicode="&#x135;" horiz-adv-x="269" 
d="M-29 619l140 164h69l140 -164h-103l-72 90l-72 -90h-102zM17 -229q-60 0 -95 22l19 80q39 -14 65 -14q92 0 92 110v567h96v-561q0 -100 -47.5 -152t-129.5 -52z" />
    <glyph glyph-name="Kcommaaccent" unicode="&#x136;" horiz-adv-x="666" 
d="M359 391l319 -391h-124l-260 324l-101 -119v-205h-100v739h100v-402l339 402h119zM366 -33q30 0 50 -21.5t20 -53.5q0 -85 -125 -166l-32 44q63 48 79 74h-2q-23 0 -39.5 17.5t-16.5 41.5q0 26 19 45t47 19z" />
    <glyph glyph-name="kcommaaccent" unicode="&#x137;" horiz-adv-x="545" 
d="M289 311l260 -311h-126l-202 250l-51 -46v-204h-96v757h96v-438l240 217h130zM286 -17q29 0 49 -21.5t20 -53.5q0 -86 -124 -165l-32 44q63 48 79 74h-2q-22 0 -39 17.5t-17 40.5q0 26 19 45t47 19z" />
    <glyph glyph-name="kgreenlandic" unicode="&#x138;" horiz-adv-x="543" 
d="M422 0l-200 249l-52 -47v-202h-96v536h96v-219l240 219h129l-248 -225l253 -311h-122z" />
    <glyph glyph-name="Lacute" unicode="&#x139;" horiz-adv-x="603" 
d="M101 793l59 168h118l-93 -168h-84zM93 0v739h100v-642h397v-97h-497z" />
    <glyph glyph-name="lacute" unicode="&#x13a;" horiz-adv-x="243" 
d="M80 795l59 168h118l-93 -168h-84zM170 0h-96v757h96v-757z" />
    <glyph glyph-name="Lcommaaccent" unicode="&#x13b;" horiz-adv-x="603" 
d="M193 97h397v-97h-497v739h100v-642zM348 -34q30 0 50 -21.5t20 -53.5q0 -85 -125 -166l-32 44q63 48 79 74h-2q-23 0 -39.5 17.5t-16.5 41.5q0 26 19 45t47 19z" />
    <glyph glyph-name="lcommaaccent" unicode="&#x13c;" horiz-adv-x="245" 
d="M172 757v-757h-96v757h96zM122 -40q29 0 49 -21.5t20 -53.5q0 -86 -124 -165l-32 44q63 48 79 74h-2q-22 0 -39 17.5t-17 40.5q0 26 19 45t47 19z" />
    <glyph glyph-name="Lcaron" unicode="&#x13d;" horiz-adv-x="609" 
d="M411 621l56 167h106l-82 -167h-80zM93 0v739h100v-642h397v-97h-497z" />
    <glyph glyph-name="lcaron" unicode="&#x13e;" horiz-adv-x="273" 
d="M205 622l56 167h106l-82 -167h-80zM170 0h-96v757h96v-757z" />
    <glyph glyph-name="Ldot" unicode="&#x13f;" horiz-adv-x="606" 
d="M93 0v739h100v-642h397v-97h-497zM381 392q0 26 18.5 44t45.5 18t45.5 -18t18.5 -44q0 -28 -18.5 -46.5t-45.5 -18.5t-45.5 18.5t-18.5 46.5z" />
    <glyph glyph-name="ldot" unicode="&#x140;" horiz-adv-x="357" 
d="M170 0h-96v757h96v-757zM237 364q0 26 18.5 44t45.5 18t45.5 -18t18.5 -44q0 -28 -18.5 -46.5t-45.5 -18.5t-45.5 18.5t-18.5 46.5z" />
    <glyph glyph-name="Lslash" unicode="&#x141;" horiz-adv-x="612" 
d="M202 97h397v-97h-497v290l-74 -49v96l74 49v353h100v-286l114 76v-97l-114 -76v-259z" />
    <glyph glyph-name="lslash" unicode="&#x142;" horiz-adv-x="304" 
d="M266 513v-97l-68 -50v-366h-96v295l-60 -44v96l60 44v366h96v-294z" />
    <glyph glyph-name="Nacute" unicode="&#x143;" horiz-adv-x="780" 
d="M339 793l59 168h118l-93 -168h-84zM588 739h99v-739h-52l-443 524v-524h-99v739h45l450 -527v527z" />
    <glyph glyph-name="nacute" unicode="&#x144;" horiz-adv-x="618" 
d="M263 623l59 167h117l-93 -167h-83zM74 0v536h94v-76q51 90 170 90q90 0 151 -58t61 -167v-325h-95v298q0 78 -38 120.5t-99 42.5q-65 0 -107 -46q-41 -47 -41 -118v-297h-96z" />
    <glyph glyph-name="Ncommaaccent" unicode="&#x145;" horiz-adv-x="780" 
d="M588 739h99v-739h-52l-443 524v-524h-99v739h45l450 -527v527zM401 -25q30 0 50 -21.5t20 -53.5q0 -85 -125 -166l-32 44q63 48 79 74h-2q-23 0 -39.5 17.5t-16.5 41.5q0 26 19 45t47 19z" />
    <glyph glyph-name="ncommaaccent" unicode="&#x146;" horiz-adv-x="618" 
d="M338 550q90 0 151 -58t61 -167v-325h-95v298q0 78 -38 120.5t-99 42.5q-65 0 -107 -46q-41 -47 -41 -118v-297h-96v536h94v-76q51 90 170 90zM320 -28q29 0 49 -21.5t20 -53.5q0 -86 -124 -165l-32 44q63 48 79 74h-2q-22 0 -39 17.5t-17 40.5q0 26 19 45t47 19z" />
    <glyph glyph-name="Ncaron" unicode="&#x147;" horiz-adv-x="780" 
d="M224 958h102l72 -90l72 90h103l-140 -164h-69zM588 739h99v-739h-52l-443 524v-524h-99v739h45l450 -527v527z" />
    <glyph glyph-name="ncaron" unicode="&#x148;" horiz-adv-x="618" 
d="M142 787h102l72 -90l72 90h103l-140 -164h-69zM74 0v536h94v-76q51 90 170 90q90 0 151 -58t61 -167v-325h-95v298q0 78 -38 120.5t-99 42.5q-65 0 -107 -46q-41 -47 -41 -118v-297h-96z" />
    <glyph glyph-name="napostrophe" unicode="&#x149;" horiz-adv-x="644" 
d="M-27 621l56 167h106l-82 -167h-80zM100 0v536h94v-76q51 90 170 90q90 0 151 -58t61 -167v-325h-95v298q0 78 -38 120.5t-99 42.5q-65 0 -107 -46q-41 -47 -41 -118v-297h-96z" />
    <glyph glyph-name="Eng" unicode="&#x14a;" horiz-adv-x="780" 
d="M588 739h99v-737q0 -119 -69 -186q-68 -67 -173 -67q-79 0 -147 43l39 85q50 -32 107 -32q63 0 103.5 41t40.5 119v39l-396 481v-525h-99v739h45l450 -541v541z" />
    <glyph glyph-name="eng" unicode="&#x14b;" horiz-adv-x="617" 
d="M340 -138q114 -9 114 108v337q0 75 -36.5 114.5t-97.5 39.5q-33 0 -60.5 -12t-47.5 -34t-31 -52t-11 -66v-297h-96v536h93v-68q25 37 70 59.5t100 22.5q89 0 151 -59q61 -58 61 -167v-352q0 -109 -55 -159.5t-158 -37.5z" />
    <glyph glyph-name="Omacron" unicode="&#x14c;" horiz-adv-x="855" 
d="M256 811v86h339v-85zM45 365q0 162 112 274q113 113 270 113t270 -113t113 -270t-113 -270q-113 -111 -273 -111q-161 0 -270 109t-109 268zM706 368q0 121 -81 204q-81 82 -198 82q-116 0 -197 -83t-81 -203q0 -119 80 -202q79 -81 198 -81q118 0 198 81q81 81 81 202z
" />
    <glyph glyph-name="omacron" unicode="&#x14d;" 
d="M170 635v86h307v-85zM323 -13q-124 0 -203 81q-79 82 -79 201t79 199q79 82 203 82q122 0 201 -82q80 -83 80 -199q0 -118 -80 -201q-80 -81 -201 -81zM508 269q0 79 -54 135q-54 57 -131 57t-131 -57q-54 -56 -54 -135q0 -80 54 -137t131 -57t131 57t54 137z" />
    <glyph glyph-name="Obreve" unicode="&#x14e;" horiz-adv-x="855" 
d="M431 785q-78 0 -125.5 46.5t-49.5 127.5h83q1 -48 25.5 -74t66.5 -26t67 26t26 74h83q0 -40 -13 -72.5t-36.5 -55t-55.5 -34.5t-71 -12zM45 365q0 162 112 274q113 113 270 113t270 -113t113 -270t-113 -270q-113 -111 -273 -111q-161 0 -270 109t-109 268zM706 368
q0 121 -81 204q-81 82 -198 82q-116 0 -197 -83t-81 -203q0 -119 80 -202q79 -81 198 -81q118 0 198 81q81 81 81 202z" />
    <glyph glyph-name="obreve" unicode="&#x14f;" 
d="M232 788q1 -48 25.5 -73.5t66.5 -25.5t66.5 25.5t25.5 73.5h83q-2 -80 -50 -126q-49 -47 -125 -47q-39 0 -70.5 12.5t-54 35t-35.5 54.5t-14 71h82zM323 -13q-124 0 -203 81q-79 82 -79 201t79 199q79 82 203 82q122 0 201 -82q80 -83 80 -199q0 -118 -80 -201
q-80 -81 -201 -81zM508 269q0 79 -54 135q-54 57 -131 57t-131 -57q-54 -56 -54 -135q0 -80 54 -137t131 -57t131 57t54 137z" />
    <glyph glyph-name="Ohungarumlaut" unicode="&#x150;" horiz-adv-x="855" 
d="M303 795l41 168h118l-77 -168h-82zM480 795l48 168h119l-85 -168h-82zM45 365q0 162 112 274q113 113 270 113t270 -113t113 -270t-113 -270q-113 -111 -273 -111q-161 0 -270 109t-109 268zM706 368q0 121 -81 204q-81 82 -198 82q-116 0 -197 -83t-81 -203
q0 -119 80 -202q79 -81 198 -81q118 0 198 81q81 81 81 202z" />
    <glyph glyph-name="ohungarumlaut" unicode="&#x151;" 
d="M197 622l41 167h117l-77 -167h-81zM373 622l48 167h118l-85 -167h-81zM323 -13q-124 0 -203 81q-79 82 -79 201t79 199q79 82 203 82q122 0 201 -82q80 -83 80 -199q0 -118 -80 -201q-80 -81 -201 -81zM508 269q0 79 -54 135q-54 57 -131 57t-131 -57q-54 -56 -54 -135
q0 -80 54 -137t131 -57t131 57t54 137z" />
    <glyph glyph-name="OE" unicode="&#x152;" horiz-adv-x="982" 
d="M926 644h-360v-221h333v-95h-333v-233h360v-95h-456q-17 -1 -29 -1.5t-20 -0.5q-189 0 -280 100t-91 270t89 271q90 102 273 102q8 0 20 -0.5t29 -1.5h465v-95zM154 370q0 -55 13.5 -105t45 -88.5t82.5 -61t126 -22.5q8 0 19 0.5t26 1.5v549q-15 1 -26 1.5t-19 0.5
q-75 0 -126 -23t-82.5 -61t-45 -88t-13.5 -104z" />
    <glyph glyph-name="oe" unicode="&#x153;" horiz-adv-x="1074" 
d="M1035 278q0 -10 -3 -49h-427q12 -68 58 -110.5t130 -42.5q48 0 99 16.5t88 43.5l41 -73q-40 -31 -101.5 -53t-128.5 -22q-163 0 -239 114q-38 -54 -97.5 -84.5t-132.5 -30.5q-123 0 -202 81q-79 82 -79 201q0 118 79 198q79 82 202 82q73 0 132.5 -30.5t97.5 -84.5
q36 54 94 84.5t130 30.5q114 0 186 -73q73 -73 73 -198zM936 312q-2 35 -15 63t-34 48t-49.5 30.5t-61.5 10.5t-61.5 -11t-51 -31.5t-37.5 -48.5t-21 -61h331zM505 269q0 78 -53 134t-130 56t-130 -56t-53 -134t53 -136q53 -56 130 -56t130 56q53 58 53 136z" />
    <glyph glyph-name="Racute" unicode="&#x154;" horiz-adv-x="641" 
d="M428 961l-93 -168h-84l59 168h118zM487 0l-192 300h-102v-300h-100v739h251q111 0 171 -66q61 -64 61 -154q0 -36 -11.5 -70t-33 -62.5t-53.5 -49t-74 -29.5l206 -308h-123zM193 644v-250h132q75 0 112 36t37 90t-33 89t-96 35h-152z" />
    <glyph glyph-name="racute" unicode="&#x155;" horiz-adv-x="397" 
d="M178 623l59 167h117l-93 -167h-83zM74 0v536h91v-79q46 93 154 93q29 0 63 -8l-9 -93q-29 9 -56 9q-64 0 -105.5 -43.5t-41.5 -130.5v-284h-96z" />
    <glyph glyph-name="Rcommaaccent" unicode="&#x156;" horiz-adv-x="641" 
d="M610 0h-123l-192 300h-102v-300h-100v739h251q111 0 171 -66q61 -64 61 -154q0 -36 -11.5 -70t-33 -62.5t-53.5 -49t-74 -29.5zM193 644v-250h132q75 0 112 36t37 90t-33 89t-96 35h-152zM335 -27q30 0 50 -21.5t20 -53.5q0 -85 -125 -166l-32 44q63 48 79 74h-2
q-23 0 -39.5 17.5t-16.5 41.5q0 26 19 45t47 19z" />
    <glyph glyph-name="rcommaaccent" unicode="&#x157;" horiz-adv-x="398" 
d="M320 550q29 0 63 -8l-9 -93q-29 9 -56 9q-64 0 -105.5 -43.5t-41.5 -130.5v-284h-96v536h91v-79q46 93 154 93zM122 -39q29 0 49 -21.5t20 -53.5q0 -86 -124 -165l-32 44q63 48 79 74h-2q-22 0 -39 17.5t-17 40.5q0 26 19 45t47 19z" />
    <glyph glyph-name="Rcaron" unicode="&#x158;" horiz-adv-x="641" 
d="M343 794h-69l-140 164h102l72 -90l72 90h103zM487 0l-192 300h-102v-300h-100v739h251q111 0 171 -66q61 -64 61 -154q0 -36 -11.5 -70t-33 -62.5t-53.5 -49t-74 -29.5l206 -308h-123zM193 644v-250h132q75 0 112 36t37 90t-33 89t-96 35h-152z" />
    <glyph glyph-name="rcaron" unicode="&#x159;" horiz-adv-x="397" 
d="M49 787h102l72 -90l72 90h103l-140 -164h-69zM75 0v536h91v-79q46 93 154 93q29 0 63 -8l-9 -93q-29 9 -56 9q-64 0 -105.5 -43.5t-41.5 -130.5v-284h-96z" />
    <glyph glyph-name="Sacute" unicode="&#x15a;" horiz-adv-x="563" 
d="M234 793l59 168h118l-93 -168h-84zM279 -12q-40 0 -77.5 10t-70.5 29t-59.5 47.5t-44.5 65.5l74 61q30 -60 76.5 -89t100.5 -29q31 0 56.5 8.5t43 23.5t27 35.5t9.5 44.5q0 59 -77 103q-10 5 -29 14t-47 22t-48.5 23.5t-34.5 18.5q-111 70 -111 176q0 85 61 142
q61 58 162 58q138 0 217 -109l-67 -64q-60 79 -149 79q-51 0 -84 -27.5t-33 -72.5q0 -58 63 -95q10 -6 31 -17t55 -27t57 -27.5t36 -19.5q107 -65 107 -172q0 -95 -70 -153q-70 -59 -174 -59z" />
    <glyph glyph-name="sacute" unicode="&#x15b;" horiz-adv-x="453" 
d="M188 623l59 167h117l-93 -167h-83zM224 -12q-60 0 -114 29t-85 87l69 53q23 -43 59.5 -64t73.5 -21q43 0 69 21.5t26 52.5q0 43 -49 68q-8 5 -25 12t-42 18q-50 21 -66 30q-82 45 -82 130q0 65 48 107q47 43 127 43q51 0 97 -21.5t73 -63.5l-61 -58q-44 62 -115 62
q-36 0 -56.5 -19t-20.5 -46q0 -42 45 -63l59 -26q48 -20 72 -33q91 -46 91 -135q0 -70 -54 -116q-55 -47 -139 -47z" />
    <glyph glyph-name="Scircumflex" unicode="&#x15c;" horiz-adv-x="563" 
d="M121 792l141 165h69l141 -165h-104l-72 91l-72 -91h-103zM279 -12q-40 0 -77.5 10t-70.5 29t-59.5 47.5t-44.5 65.5l74 61q30 -60 76.5 -89t100.5 -29q31 0 56.5 8.5t43 23.5t27 35.5t9.5 44.5q0 59 -77 103q-10 5 -29 14t-47 22t-48.5 23.5t-34.5 18.5q-111 70 -111 176
q0 85 61 142q61 58 162 58q138 0 217 -109l-67 -64q-60 79 -149 79q-51 0 -84 -27.5t-33 -72.5q0 -58 63 -95q10 -6 31 -17t55 -27t57 -27.5t36 -19.5q107 -65 107 -172q0 -95 -70 -153q-70 -59 -174 -59z" />
    <glyph glyph-name="scircumflex" unicode="&#x15d;" horiz-adv-x="453" 
d="M57 622l140 164h69l140 -164h-103l-72 90l-72 -90h-102zM224 -12q-60 0 -114 29t-85 87l69 53q23 -43 59.5 -64t73.5 -21q43 0 69 21.5t26 52.5q0 43 -49 68q-8 5 -25 12t-42 18q-50 21 -66 30q-82 45 -82 130q0 65 48 107q47 43 127 43q51 0 97 -21.5t73 -63.5l-61 -58
q-44 62 -115 62q-36 0 -56.5 -19t-20.5 -46q0 -42 45 -63l59 -26q48 -20 72 -33q91 -46 91 -135q0 -70 -54 -116q-55 -47 -139 -47z" />
    <glyph glyph-name="Scedilla" unicode="&#x15e;" horiz-adv-x="563" 
d="M523 200q0 -87 -60 -145q-60 -57 -154 -66l-15 -37h8q43 0 73 -24.5t30 -67.5q0 -45 -33.5 -78t-96.5 -33q-51 0 -114 29l25 63q43 -21 81 -21q28 0 43 12.5t15 31.5q0 36 -52 36h-56l-9 22l27 69q-67 9 -122 47.5t-86 101.5l74 61q30 -60 76.5 -89t100.5 -29
q31 0 56.5 8.5t43 23.5t27 35.5t9.5 44.5q0 59 -77 103q-10 5 -29 14t-47 22t-48.5 23.5t-34.5 18.5q-111 70 -111 176q0 85 61 142q61 58 162 58q138 0 217 -109l-67 -64q-60 79 -149 79q-51 0 -84 -27.5t-33 -72.5q0 -58 63 -95q10 -6 31 -17t55 -27t57 -27.5t36 -19.5
q107 -65 107 -172z" />
    <glyph glyph-name="scedilla" unicode="&#x15f;" horiz-adv-x="453" 
d="M417 151q0 -64 -48 -110q-47 -46 -124 -52l-15 -37h8q43 0 73 -24.5t30 -67.5q0 -45 -33.5 -78t-96.5 -33q-51 0 -114 29l25 63q43 -21 81 -21q28 0 43 12.5t15 31.5q0 36 -52 36h-56l-9 22l28 72q-99 19 -147 110l69 53q23 -43 59.5 -64t73.5 -21q43 0 69 21.5t26 52.5
q0 43 -49 68q-8 5 -25 12t-42 18q-50 21 -66 30q-82 45 -82 130q0 65 48 107q47 43 127 43q51 0 97 -21.5t73 -63.5l-61 -58q-44 62 -115 62q-36 0 -56.5 -19t-20.5 -46q0 -42 45 -63l59 -26q48 -20 72 -33q91 -46 91 -135z" />
    <glyph glyph-name="Scaron" unicode="&#x160;" horiz-adv-x="563" 
d="M126 958h102l72 -90l72 90h103l-140 -164h-69zM279 -12q-40 0 -77.5 10t-70.5 29t-59.5 47.5t-44.5 65.5l74 61q30 -60 76.5 -89t100.5 -29q31 0 56.5 8.5t43 23.5t27 35.5t9.5 44.5q0 59 -77 103q-10 5 -29 14t-47 22t-48.5 23.5t-34.5 18.5q-111 70 -111 176
q0 85 61 142q61 58 162 58q138 0 217 -109l-67 -64q-60 79 -149 79q-51 0 -84 -27.5t-33 -72.5q0 -58 63 -95q10 -6 31 -17t55 -27t57 -27.5t36 -19.5q107 -65 107 -172q0 -95 -70 -153q-70 -59 -174 -59z" />
    <glyph glyph-name="scaron" unicode="&#x161;" horiz-adv-x="453" 
d="M58 787h102l72 -90l72 90h103l-140 -164h-69zM224 -12q-60 0 -114 29t-85 87l69 53q23 -43 59.5 -64t73.5 -21q43 0 69 21.5t26 52.5q0 43 -49 68q-8 5 -25 12t-42 18q-50 21 -66 30q-82 45 -82 130q0 65 48 107q47 43 127 43q51 0 97 -21.5t73 -63.5l-61 -58
q-44 62 -115 62q-36 0 -56.5 -19t-20.5 -46q0 -42 45 -63l59 -26q48 -20 72 -33q91 -46 91 -135q0 -70 -54 -116q-55 -47 -139 -47z" />
    <glyph glyph-name="Tcaron" unicode="&#x164;" horiz-adv-x="566" 
d="M109 958h102l72 -90l72 90h103l-140 -164h-69zM233 642h-219v97h538v-97h-219v-642h-100v642z" />
    <glyph glyph-name="tcaron" unicode="&#x165;" horiz-adv-x="429" 
d="M473 790l-82 -167h-80l56 167h106zM292 75q47 0 96 31l36 -74q-59 -45 -143 -45q-85 0 -128 52t-43 149v266h-95v82h96v190h94v-190h190v-82h-190v-273q0 -106 87 -106z" />
    <glyph glyph-name="Tbar" unicode="&#x166;" horiz-adv-x="595" 
d="M566 642h-219v-210h158v-86h-158v-346h-100v346h-155v86h155v210h-219v97h538v-97z" />
    <glyph glyph-name="tbar" unicode="&#x167;" horiz-adv-x="435" 
d="M430 32q-59 -45 -143 -45q-85 0 -128 52t-43 149v81h-94v81h94v104h-95v82h96v190h94v-190h190v-82h-190v-104h187v-81h-187v-88q0 -106 87 -106q47 0 96 31z" />
    <glyph glyph-name="Utilde" unicode="&#x168;" horiz-adv-x="706" 
d="M168 829q13 46 44.5 71t73.5 25q33 0 76 -22q44 -22 64 -22q37 0 58 45l60 -28q-12 -46 -43 -71t-73 -25q-32 0 -75 22q-44 23 -63 23q-37 0 -60 -47zM85 739h100v-472q0 -88 43.5 -135t124.5 -47q79 0 123 47.5t44 134.5v472h101v-490q0 -121 -74 -192q-73 -70 -194 -70
t-194 70q-74 71 -74 192v490z" />
    <glyph glyph-name="utilde" unicode="&#x169;" horiz-adv-x="595" 
d="M111 654q13 46 44.5 71t73.5 25q33 0 76 -22t63 -22q37 0 58 45l60 -28q-12 -46 -43 -71t-73 -25q-32 0 -75 22q-44 23 -63 23q-36 0 -59 -47zM297 -13q-53 0 -95.5 16t-72.5 46t-46 72t-16 95v320h96v-317q0 -66 35.5 -104.5t98.5 -38.5q64 0 99.5 38.5t35.5 104.5v317
h95v-320q0 -108 -61 -168.5t-169 -60.5z" />
    <glyph glyph-name="Umacron" unicode="&#x16a;" horiz-adv-x="706" 
d="M182 811v86h339v-85zM85 739h100v-472q0 -88 43.5 -135t124.5 -47q79 0 123 47.5t44 134.5v472h101v-490q0 -121 -74 -192q-73 -70 -194 -70t-194 70q-74 71 -74 192v490z" />
    <glyph glyph-name="umacron" unicode="&#x16b;" horiz-adv-x="595" 
d="M144 636v86h307v-85zM297 -13q-53 0 -95.5 16t-72.5 46t-46 72t-16 95v320h96v-317q0 -66 35.5 -104.5t98.5 -38.5q64 0 99.5 38.5t35.5 104.5v317h95v-320q0 -108 -61 -168.5t-169 -60.5z" />
    <glyph glyph-name="Ubreve" unicode="&#x16c;" horiz-adv-x="706" 
d="M353 785q-78 0 -125.5 46.5t-49.5 127.5h83q1 -48 25.5 -74t66.5 -26t67 26t26 74h83q0 -40 -13 -72.5t-36.5 -55t-55.5 -34.5t-71 -12zM85 739h100v-472q0 -88 43.5 -135t124.5 -47q79 0 123 47.5t44 134.5v472h101v-490q0 -121 -74 -192q-73 -70 -194 -70t-194 70
q-74 71 -74 192v490z" />
    <glyph glyph-name="ubreve" unicode="&#x16d;" horiz-adv-x="595" 
d="M206 788q1 -48 25.5 -73.5t66.5 -25.5t66.5 25.5t25.5 73.5h83q-2 -80 -50 -126q-49 -47 -125 -47q-39 0 -70.5 12.5t-54 35t-35.5 54.5t-14 71h82zM297 -13q-53 0 -95.5 16t-72.5 46t-46 72t-16 95v320h96v-317q0 -66 35.5 -104.5t98.5 -38.5q64 0 99.5 38.5t35.5 104.5
v317h95v-320q0 -108 -61 -168.5t-169 -60.5z" />
    <glyph glyph-name="Uring" unicode="&#x16e;" horiz-adv-x="706" 
d="M354 781q-25 0 -46.5 8.5t-37.5 24t-25 36t-9 44.5t9 44.5t25 35.5t37.5 24t46.5 9q49 0 82 -33q34 -33 34 -80q0 -24 -9 -44.5t-24.5 -36t-37 -24t-45.5 -8.5zM354 840q22 0 37.5 16t15.5 40q0 21 -16 36.5t-37 15.5q-23 0 -39 -15t-16 -37q0 -24 16 -40t39 -16zM85 739
h100v-472q0 -88 43.5 -135t124.5 -47q79 0 123 47.5t44 134.5v472h101v-490q0 -121 -74 -192q-73 -70 -194 -70t-194 70q-74 71 -74 192v490z" />
    <glyph glyph-name="uring" unicode="&#x16f;" horiz-adv-x="595" 
d="M380 622q-34 -32 -82 -32t-83 32q-34 33 -34 80t34 80t83 33t82 -33q34 -33 34 -80t-34 -80zM298 649q22 0 37.5 15.5t15.5 39.5q0 21 -16 36.5t-37 15.5q-23 0 -39 -15t-16 -37q0 -24 16 -39.5t39 -15.5zM297 -13q-53 0 -95.5 16t-72.5 46t-46 72t-16 95v320h96v-317
q0 -66 35.5 -104.5t98.5 -38.5q64 0 99.5 38.5t35.5 104.5v317h95v-320q0 -108 -61 -168.5t-169 -60.5z" />
    <glyph glyph-name="Uhungarumlaut" unicode="&#x170;" horiz-adv-x="706" 
d="M221 795l41 168h118l-77 -168h-82zM398 795l48 168h119l-85 -168h-82zM85 739h100v-472q0 -88 43.5 -135t124.5 -47q79 0 123 47.5t44 134.5v472h101v-490q0 -121 -74 -192q-73 -70 -194 -70t-194 70q-74 71 -74 192v490z" />
    <glyph glyph-name="uhungarumlaut" unicode="&#x171;" horiz-adv-x="594" 
d="M161 622l41 167h117l-77 -167h-81zM337 622l48 167h118l-85 -167h-81zM297 -13q-53 0 -95.5 16t-72.5 46t-46 72t-16 95v320h96v-317q0 -66 35.5 -104.5t98.5 -38.5q64 0 99.5 38.5t35.5 104.5v317h95v-320q0 -108 -61 -168.5t-169 -60.5z" />
    <glyph glyph-name="Uogonek" unicode="&#x172;" horiz-adv-x="706" 
d="M520 739h101v-490q0 -94 -43.5 -157.5t-121.5 -88.5q-46 -22 -75 -56t-29 -67q0 -22 13 -35.5t35 -13.5q20 0 41 12l37 -68q-46 -29 -95 -29q-54 0 -85.5 31t-31.5 79q0 75 77 131q-117 3 -187 73q-71 71 -71 189v490h100v-472q0 -88 43.5 -135t124.5 -47q79 0 123 47.5
t44 134.5v472z" />
    <glyph glyph-name="uogonek" unicode="&#x173;" horiz-adv-x="595" 
d="M432 536h95v-320q0 -81 -36 -136.5t-102 -78.5q-49 -21 -80 -56.5t-31 -69.5q0 -22 13 -35.5t35 -13.5q20 0 41 12l37 -68q-46 -29 -95 -29q-54 0 -85.5 31t-31.5 79q0 77 85 137q-48 3 -87 20.5t-66 47t-42 70t-15 90.5v320h96v-317q0 -66 35.5 -104.5t98.5 -38.5
q64 0 99.5 38.5t35.5 104.5v317z" />
    <glyph glyph-name="Wcircumflex" unicode="&#x174;" horiz-adv-x="1029" 
d="M341 792l141 165h69l141 -165h-104l-72 91l-72 -91h-103zM265 0l-254 739h106l178 -541l196 541h45l201 -541l175 541h105l-252 -739h-55l-195 552l-194 -552h-56z" />
    <glyph glyph-name="wcircumflex" unicode="&#x175;" horiz-adv-x="840" 
d="M246 622l140 164h69l140 -164h-103l-72 90l-72 -90h-102zM195 1l-184 535h101l127 -402l146 402h67l152 -402l122 402h100l-179 -535h-80l-148 401l-145 -401h-79z" />
    <glyph glyph-name="Ycircumflex" unicode="&#x176;" horiz-adv-x="639" 
d="M143 792l141 165h69l141 -165h-104l-72 91l-72 -91h-103zM622 739l-253 -473v-266h-100v266l-250 473h111l189 -374l192 374h111z" />
    <glyph glyph-name="ycircumflex" unicode="&#x177;" horiz-adv-x="555" 
d="M284 709l-72 -90h-102l140 164h69l140 -164h-103zM434 536h106l-225 -596q-34 -90 -78.5 -129t-107.5 -39q-52 0 -86 21l12 84q36 -16 65 -16q66 0 106 94l20 47l-233 534h111l166 -402z" />
    <glyph glyph-name="Ydieresis" unicode="&#x178;" horiz-adv-x="639" 
d="M231 806q-27 0 -45.5 18t-18.5 45q0 25 18.5 42.5t45.5 17.5q25 0 42.5 -17.5t17.5 -42.5q0 -27 -17.5 -45t-42.5 -18zM410 806q-27 0 -45 18t-18 45q0 25 18.5 42.5t44.5 17.5t43.5 -17.5t17.5 -42.5q0 -27 -17.5 -45t-43.5 -18zM622 739l-253 -473v-266h-100v266
l-250 473h111l189 -374l192 374h111z" />
    <glyph glyph-name="Zacute" unicode="&#x179;" horiz-adv-x="618" 
d="M268 793l59 168h118l-93 -168h-84zM31 0v62l402 583h-384v94h524v-63l-398 -582h409v-94h-553z" />
    <glyph glyph-name="zacute" unicode="&#x17a;" horiz-adv-x="508" 
d="M202 623l59 167h117l-93 -167h-83zM160 82h314v-82h-444v61l306 392h-288v82h417v-56z" />
    <glyph glyph-name="Zdotaccent" unicode="&#x17b;" horiz-adv-x="618" 
d="M316 799q-30 0 -50 19.5t-20 49.5q0 29 20 48t50 19q28 0 48 -19.5t20 -47.5q0 -30 -20 -49.5t-48 -19.5zM31 0v62l402 583h-384v94h524v-63l-398 -582h409v-94h-553z" />
    <glyph glyph-name="zdotaccent" unicode="&#x17c;" horiz-adv-x="508" 
d="M264 613q-30 0 -50 19.5t-20 49.5q0 29 20 48t50 19q28 0 48 -19.5t20 -47.5q0 -30 -20 -49.5t-48 -19.5zM160 82h314v-82h-444v61l306 392h-288v82h417v-56z" />
    <glyph glyph-name="Zcaron" unicode="&#x17d;" horiz-adv-x="618" 
d="M143 959h102l72 -90l72 90h103l-140 -164h-69zM31 0v62l402 583h-384v94h524v-63l-398 -582h409v-94h-553z" />
    <glyph glyph-name="zcaron" unicode="&#x17e;" horiz-adv-x="508" 
d="M80 787h102l72 -90l72 90h103l-140 -164h-69zM160 82h314v-82h-444v61l306 392h-288v82h417v-56z" />
    <glyph glyph-name="Ohorn" unicode="&#x1a0;" horiz-adv-x="855" 
d="M45 365q0 162 112 274q113 113 270 113t270 -113t113 -270t-113 -270q-113 -111 -273 -111q-161 0 -270 109t-109 268zM706 368q0 121 -81 204q-81 82 -198 82q-116 0 -197 -83t-81 -203q0 -119 80 -202q79 -81 198 -81q118 0 198 81q81 81 81 202zM573 719q35 0 54 10
t19 30q0 11 -20 61l73 25q28 -44 28 -89q0 -54 -38 -87t-116 -33v83z" />
    <glyph glyph-name="ohorn" unicode="&#x1a1;" 
d="M323 -13q-124 0 -203 81q-79 82 -79 201t79 199q79 82 203 82q122 0 201 -82q80 -83 80 -199q0 -118 -80 -201q-80 -81 -201 -81zM508 269q0 79 -54 135q-54 57 -131 57t-131 -57q-54 -56 -54 -135q0 -80 54 -137t131 -57t131 57t54 137zM427 525q35 0 54 10t19 30
q0 11 -20 61l73 25q28 -44 28 -89q0 -54 -38 -87t-116 -33v83z" />
    <glyph glyph-name="Uhorn" unicode="&#x1af;" horiz-adv-x="706" 
d="M85 739h100v-472q0 -88 43.5 -135t124.5 -47q79 0 123 47.5t44 134.5v472h101v-490q0 -121 -74 -192q-73 -70 -194 -70t-194 70q-74 71 -74 192v490zM545 739q35 0 54 10t19 30q0 11 -20 61l73 25q28 -44 28 -89q0 -54 -38 -87t-116 -33v83z" />
    <glyph glyph-name="uhorn" unicode="&#x1b0;" horiz-adv-x="595" 
d="M297 -13q-53 0 -95.5 16t-72.5 46t-46 72t-16 95v320h96v-317q0 -66 35.5 -104.5t98.5 -38.5q64 0 99.5 38.5t35.5 104.5v317h95v-320q0 -108 -61 -168.5t-169 -60.5zM453 534q35 0 54 10t19 30q0 11 -20 61l73 25q28 -44 28 -89q0 -54 -38 -87t-116 -33v83z" />
    <glyph glyph-name="Scommaaccent" unicode="&#x218;" horiz-adv-x="563" 
d="M416 372q107 -65 107 -172q0 -95 -70 -153q-70 -59 -174 -59q-40 0 -77.5 10t-70.5 29t-59.5 47.5t-44.5 65.5l74 61q30 -60 76.5 -89t100.5 -29q31 0 56.5 8.5t43 23.5t27 35.5t9.5 44.5q0 59 -77 103q-10 5 -29 14t-47 22t-48.5 23.5t-34.5 18.5q-111 70 -111 176
q0 85 61 142q61 58 162 58q138 0 217 -109l-67 -64q-60 79 -149 79q-51 0 -84 -27.5t-33 -72.5q0 -58 63 -95q10 -6 31 -17t55 -27t57 -27.5t36 -19.5zM280 -41q30 0 50 -21.5t20 -53.5q0 -85 -125 -166l-32 44q63 48 79 74h-2q-23 0 -39.5 17.5t-16.5 41.5q0 26 19 45
t47 19z" />
    <glyph glyph-name="scommaaccent" unicode="&#x219;" horiz-adv-x="453" 
d="M326 286q91 -46 91 -135q0 -70 -54 -116q-55 -47 -139 -47q-60 0 -114 29t-85 87l69 53q23 -43 59.5 -64t73.5 -21q43 0 69 21.5t26 52.5q0 43 -49 68q-8 5 -25 12t-42 18q-50 21 -66 30q-82 45 -82 130q0 65 48 107q47 43 127 43q51 0 97 -21.5t73 -63.5l-61 -58
q-44 62 -115 62q-36 0 -56.5 -19t-20.5 -46q0 -42 45 -63l59 -26q48 -20 72 -33zM230 -48q29 0 49 -21.5t20 -53.5q0 -86 -124 -165l-32 44q63 48 79 74h-2q-22 0 -39 17.5t-17 40.5q0 26 19 45t47 19z" />
    <glyph glyph-name="uni021A" unicode="&#x21a;" horiz-adv-x="566" 
d="M14 739h538v-97h-219v-642h-100v642h-219v97zM281 -28q30 0 50 -21.5t20 -53.5q0 -85 -125 -166l-32 44q63 48 79 74h-2q-23 0 -39.5 17.5t-16.5 41.5q0 26 19 45t47 19z" />
    <glyph glyph-name="uni021B" unicode="&#x21b;" horiz-adv-x="427" 
d="M424 32q-59 -45 -143 -45q-85 0 -128 52t-43 149v266h-95v82h96v190h94v-190h190v-82h-190v-273q0 -106 87 -106q47 0 96 31zM267 -54q29 0 49 -21.5t20 -53.5q0 -86 -124 -165l-32 44q63 48 79 74h-2q-22 0 -39 17.5t-17 40.5q0 26 19 45t47 19z" />
    <glyph glyph-name="uni0237" unicode="&#x237;" horiz-adv-x="269" 
d="M17 -229q-60 0 -95 22l19 80q39 -14 65 -14q92 0 92 110v567h96v-561q0 -100 -47.5 -152t-129.5 -52z" />
    <glyph glyph-name="circumflex" unicode="&#x2c6;" horiz-adv-x="573" 
d="M38 622l140 164h69l140 -164h-103l-72 90l-72 -90h-102z" />
    <glyph glyph-name="caron" unicode="&#x2c7;" horiz-adv-x="549" 
d="M38 788h102l72 -90l72 90h103l-140 -164h-69z" />
    <glyph glyph-name="breve" unicode="&#x2d8;" horiz-adv-x="446" 
d="M122 788q1 -48 25.5 -73.5t66.5 -25.5t66.5 25.5t25.5 73.5h83q-2 -80 -50 -126q-49 -47 -125 -47q-39 0 -70.5 12.5t-54 35t-35.5 54.5t-14 71h82z" />
    <glyph glyph-name="dotaccent" unicode="&#x2d9;" horiz-adv-x="300" 
d="M110 615q-30 0 -50 19.5t-20 49.5q0 29 20 48t50 19q28 0 48 -19.5t20 -47.5q0 -30 -20 -49.5t-48 -19.5z" />
    <glyph glyph-name="ring" unicode="&#x2da;" horiz-adv-x="379" 
d="M239 632q-34 -32 -82 -32t-83 32q-34 33 -34 80t34 80t83 33t82 -33q34 -33 34 -80t-34 -80zM157 659q21 0 37 15.5t16 39.5q0 21 -16 36.5t-37 15.5q-23 0 -39 -15t-16 -37q0 -24 16 -39.5t39 -15.5z" />
    <glyph glyph-name="ogonek" unicode="&#x2db;" horiz-adv-x="384" 
d="M252 -231q-46 -29 -95 -29q-54 0 -85.5 31t-31.5 79q0 99 138 167l59 -17q-49 -21 -80 -56.5t-31 -69.5q0 -22 13 -35.5t35 -13.5q20 0 41 12z" />
    <glyph glyph-name="tilde" unicode="&#x2dc;" horiz-adv-x="541" 
d="M40 676q13 46 44.5 71t73.5 25q33 0 76 -22t63 -22q37 0 58 45l60 -28q-12 -46 -43 -71t-73 -25q-32 0 -75 22q-44 23 -63 23q-36 0 -59 -47z" />
    <glyph glyph-name="hungarumlaut" unicode="&#x2dd;" horiz-adv-x="517" 
d="M50 620l41 167h117l-77 -167h-81zM226 620l48 167h118l-85 -167h-81z" />
    <glyph glyph-name="hookabovecomb" unicode="&#x309;" horiz-adv-x="241" 
d="M88 545v10.5t3 18.5t10 23t21 24q14 11 25 23.5t11 26.5q0 15 -11.5 24t-27.5 9q-23 0 -64 -46l-48 47q26 31 55 48.5t57 17.5q21 0 40.5 -7t34.5 -20t24 -31.5t9 -41.5t-13 -44.5t-39 -45.5q-5 -5 -9 -7t-7 -5t-4.5 -8.5t-1.5 -15.5h-65z" />
    <glyph glyph-name="dotbelowcomb" unicode="&#x323;" horiz-adv-x="217" 
d="M106 -201q-30 0 -50 19.5t-20 49.5q0 29 20 48t50 19q28 0 48 -19.5t20 -47.5q0 -30 -20 -49.5t-48 -19.5z" />
    <glyph glyph-name="uni0394" unicode="&#x394;" horiz-adv-x="736" 
d="M23 0v72l306 667h79l304 -667v-72h-689zM134 92h467l-234 535z" />
    <glyph glyph-name="uni03A9" unicode="&#x3a9;" horiz-adv-x="865" 
d="M56 0v88h167q-76 43 -120 125q-43 82 -43 174q0 151 108 258q109 107 265 107q155 0 264 -107q108 -107 108 -258q0 -93 -43 -175q-44 -81 -119 -124h166v-88h-322v84q95 34 154 116q59 83 59 183q0 117 -76 193q-77 77 -191 77q-116 0 -193 -77q-76 -76 -76 -193
q0 -101 58 -183q59 -81 155 -116v-84h-321z" />
    <glyph glyph-name="uni03BC" unicode="&#x3bc;" horiz-adv-x="621" 
d="M451 535h95v-535h-90v79q-24 -43 -68 -66.5t-96 -23.5q-76 0 -122 52v-259h-96v753h96v-308q0 -75 34 -112.5t97 -37.5q67 0 108.5 45t41.5 127v286z" />
    <glyph glyph-name="pi" unicode="&#x3c0;" horiz-adv-x="622" 
d="M116 0v452h-87v83h564v-83h-88v-452h-95v452h-198v-452h-96z" />
    <glyph glyph-name="uni0401" unicode="&#x401;" horiz-adv-x="609" 
d="M237 806q-27 0 -45.5 18t-18.5 45q0 25 18.5 42.5t45.5 17.5q25 0 42.5 -17.5t17.5 -42.5q0 -27 -17.5 -45t-42.5 -18zM416 806q-27 0 -45 18t-18 45q0 25 18.5 42.5t44.5 17.5t43.5 -17.5t17.5 -42.5q0 -27 -17.5 -45t-43.5 -18zM93 0v739h460v-95h-360v-221h333v-95
h-333v-233h360v-95h-460z" />
    <glyph glyph-name="uni0410" unicode="&#x410;" horiz-adv-x="674" 
d="M552 0l-75 192h-281l-75 -192h-109l299 739h54l296 -739h-109zM337 565l-107 -279h213z" />
    <glyph glyph-name="uni0411" unicode="&#x411;" horiz-adv-x="648" 
d="M350 461q63 0 111 -16.5t76 -41.5q22 -20 36.5 -43t23 -46t12 -46t3.5 -42q0 -94 -66 -160q-65 -66 -186 -66h-267v739h456v-93h-357v-185h158zM343 94q81 0 123.5 38t42.5 98q0 28 -9.5 53t-29.5 44t-50 29.5t-71 10.5h-157v-273h151z" />
    <glyph glyph-name="uni0412" unicode="&#x412;" horiz-adv-x="672" 
d="M488 404q69 -19 104 -72t35 -120q0 -87 -61 -149q-60 -63 -168 -63h-305v739h292q96 0 149 -56q54 -56 54 -129q0 -51 -27 -92t-73 -58zM192 646v-206h177q27 0 49 9t37 24t23 34.5t8 40.5q0 39 -30 68.5t-84 29.5h-180zM382 94q66 0 103 37q39 37 39 88q0 27 -9.5 50.5
t-28.5 41t-46 28t-62 10.5h-186v-255h190z" />
    <glyph glyph-name="uni0413" unicode="&#x413;" horiz-adv-x="543" 
d="M93 0v739h436v-94h-337v-645h-99z" />
    <glyph glyph-name="uni0414" unicode="&#x414;" horiz-adv-x="762" 
d="M653 92h78v-242h-98v150h-504v-150h-99v242h79l244 647h57zM215 92h331l-165 475z" />
    <glyph glyph-name="uni0415" unicode="&#x415;" horiz-adv-x="609" 
d="M93 0v739h460v-95h-360v-221h333v-95h-333v-233h360v-95h-460z" />
    <glyph glyph-name="uni0416" unicode="&#x416;" horiz-adv-x="996" 
d="M980 3q-34 -14 -71 -14q-77 0 -133 65q-14 17 -39 55.5t-62 99.5l-3 5l-13 22q-5 9 -7.5 14t-5.5 9t-6 8.5l-7 10.5q-8 13 -14 18t-15 12q-8 8 -17.5 10.5t-19.5 2.5h-19v-323h-100v323h-19q-16 0 -28.5 -7.5t-24.5 -17.5q-6 -6 -14 -18t-13 -19l-26 -45
q-37 -63 -62 -102t-39 -56q-58 -65 -135 -67q-37 0 -71 14l5 90q25 -9 53 -9q30 0 50 16q21 16 52 60q16 23 39.5 61t55.5 93q14 19 26 31t22 19q-22 15 -40.5 40t-28.5 46l-22 52l-19 43q-31 64 -52 86q-20 23 -60 23q-17 0 -42 -6l-16 86q31 16 69 16q75 0 112 -43
q39 -43 94 -167q2 -5 6.5 -14.5t9.5 -23.5l14 -33l14 -22q13 -20 29.5 -23.5t48.5 -7.5h12v321h100v-321h12q32 3 48 7.5t29 23.5q5 8 8.5 13.5t5.5 9.5t5.5 12t8.5 20q5 13 9.5 22t7.5 16q55 122 93 167q39 43 113 43q37 0 68 -16l-15 -86q-29 6 -42 6q-40 0 -61 -23
q-10 -11 -22.5 -32.5t-28.5 -53.5l-24 -56q-19 -45 -37.5 -77.5t-41.5 -52.5q21 -16 41 -45q89 -153 122 -192q33 -38 74 -38q28 0 54 9z" />
    <glyph glyph-name="uni0417" unicode="&#x417;" horiz-adv-x="598" 
d="M271 -12q-132 0 -250 75l43 82q111 -66 210 -66q39 0 70.5 9.5t54 27t34.5 41.5t12 53q0 58 -45.5 91.5t-120.5 33.5h-126v89h112q35 0 64.5 9t51 25.5t33.5 39.5t12 50q0 25 -11 46t-30.5 35.5t-46 22.5t-57.5 8q-92 0 -192 -67l-46 74q48 40 113 62.5t131 22.5
q108 0 174 -57q66 -56 66 -139q0 -57 -32.5 -100t-95.5 -64v-4q69 -15 108.5 -63.5t39.5 -118.5q0 -97 -75 -158q-75 -60 -201 -60z" />
    <glyph glyph-name="uni0418" unicode="&#x418;" horiz-adv-x="779" 
d="M93 0v739h99v-557l437 557h56v-739h-99v554l-434 -554h-59z" />
    <glyph glyph-name="uni0419" unicode="&#x419;" horiz-adv-x="779" 
d="M397 777q-116 0 -198 103l53 58q67 -81 145 -81q79 0 145 81l55 -58q-85 -103 -200 -103zM93 0v739h99v-557l437 557h56v-739h-99v554l-434 -554h-59z" />
    <glyph glyph-name="uni041A" unicode="&#x41a;" horiz-adv-x="666" 
d="M554 0l-260 324l-101 -119v-205h-100v739h100v-402l339 402h119l-292 -348l319 -391h-124z" />
    <glyph glyph-name="uni041B" unicode="&#x41b;" horiz-adv-x="642" 
d="M15 0l279 739h57l276 -739h-109l-197 555l-196 -555h-110z" />
    <glyph glyph-name="uni041C" unicode="&#x41c;" horiz-adv-x="919" 
d="M93 0v739h48l319 -469l317 469h49v-739h-100v499l-254 -373h-26l-254 373v-499h-99z" />
    <glyph glyph-name="uni041D" unicode="&#x41d;" horiz-adv-x="758" 
d="M93 0v739h101v-312h371v312h100v-739h-100v331h-371v-331h-101z" />
    <glyph glyph-name="uni041E" unicode="&#x41e;" horiz-adv-x="855" 
d="M45 365q0 162 112 274q113 113 270 113t270 -113t113 -270t-113 -270q-113 -111 -273 -111q-161 0 -270 109t-109 268zM706 368q0 121 -81 204q-81 82 -198 82q-116 0 -197 -83t-81 -203q0 -119 80 -202q79 -81 198 -81q118 0 198 81q81 81 81 202z" />
    <glyph glyph-name="uni041F" unicode="&#x41f;" horiz-adv-x="758" 
d="M93 0v739h572v-739h-100v643h-371v-643h-101z" />
    <glyph glyph-name="uni0420" unicode="&#x420;" horiz-adv-x="608" 
d="M340 739q116 0 178 -68q61 -67 61 -160q0 -95 -64 -162q-65 -66 -184 -66h-138v-283h-100v739h247zM333 376q36 0 63.5 11t45.5 29.5t27.5 43.5t9.5 53q0 27 -9 51t-26 42t-41.5 28.5t-56.5 10.5h-153v-269h140z" />
    <glyph glyph-name="uni0421" unicode="&#x421;" horiz-adv-x="776" 
d="M426 -11q-160 0 -270 106q-110 107 -110 272q0 168 112 276q112 109 271 109q100 0 186 -45q85 -43 133 -117l-74 -62q-94 127 -243 127q-118 0 -200 -82t-82 -207q0 -122 80 -202q80 -79 201 -79q75 0 139 33.5t109 91.5l72 -61q-26 -36 -60.5 -65.5t-76 -50.5
t-89 -32.5t-98.5 -11.5z" />
    <glyph glyph-name="uni0422" unicode="&#x422;" horiz-adv-x="566" 
d="M233 642h-219v97h538v-97h-219v-642h-100v642z" />
    <glyph glyph-name="uni0423" unicode="&#x423;" horiz-adv-x="602" 
d="M118 -12q-46 0 -77 18l10 86q30 -13 60 -13q26 0 48.5 12t43.5 40q11 14 19 26t13 22q12 19 33 60l-241 499h115l178 -392l170 392h110l-79 -176q-52 -116 -93.5 -206.5t-79.5 -170.5q-22 -46 -46 -82.5t-52 -62t-60.5 -39t-71.5 -13.5z" />
    <glyph glyph-name="uni0424" unicode="&#x424;" horiz-adv-x="915" 
d="M872 371q0 -149 -103 -251q-104 -103 -262 -113v-87h-99v87q-159 10 -263 113q-103 103 -103 251q0 147 104 249q102 102 262 113v86h99v-86q158 -11 261 -112q104 -102 104 -250zM144 371q0 -114 73 -188q75 -75 191 -82v537q-116 -7 -191 -82q-73 -73 -73 -185z
M507 101q115 7 190 82q73 74 73 188q0 112 -73 185q-75 75 -190 82v-537z" />
    <glyph glyph-name="uni0425" unicode="&#x425;" horiz-adv-x="627" 
d="M8 0l246 375l-234 364h116l178 -288l180 288h120l-242 -364l244 -375h-116l-186 293l-186 -293h-120z" />
    <glyph glyph-name="uni0426" unicode="&#x426;" horiz-adv-x="712" 
d="M568 -150v150h-475v739h100v-643h303v643h99v-643h72v-246h-99z" />
    <glyph glyph-name="uni0427" unicode="&#x427;" horiz-adv-x="680" 
d="M486 739h100v-739h-100v260q-96 -35 -175 -35q-123 0 -191 60.5t-68 181.5v272h100v-244q0 -93 38 -134q39 -39 122 -39q82 0 174 36v381z" />
    <glyph glyph-name="uni0428" unicode="&#x428;" horiz-adv-x="1088" 
d="M93 0v739h100v-643h301v643h99v-643h302v643h99v-739h-901z" />
    <glyph glyph-name="uni0429" unicode="&#x429;" horiz-adv-x="1110" 
d="M967 -150v150h-874v739h100v-643h301v643h99v-643h302v643h99v-643h72v-246h-99z" />
    <glyph glyph-name="uni042A" unicode="&#x42a;" horiz-adv-x="748" 
d="M457 493q113 0 186 -67q74 -66 74 -184q0 -103 -67 -173q-68 -69 -197 -69h-256v646h-181v93h280v-278q81 32 161 32zM436 94q90 0 133.5 40.5t43.5 112.5q0 75 -43 113t-121 38q-80 0 -153 -36v-268h140z" />
    <glyph glyph-name="uni042B" unicode="&#x42b;" horiz-adv-x="907" 
d="M352 473q78 0 132.5 -24.5t80.5 -64.5q27 -39 38 -76.5t11 -75.5q0 -98 -66 -165q-64 -67 -187 -67h-266v739h99v-266h158zM714 739h100v-739h-100v739zM345 94q81 0 123.5 40t42.5 103q0 30 -9.5 56t-29.5 45t-50 30t-71 11h-157v-285h151z" />
    <glyph glyph-name="uni042C" unicode="&#x42c;" horiz-adv-x="644" 
d="M353 493q112 0 185 -67q74 -66 74 -184q0 -103 -67 -173q-68 -69 -196 -69h-256v739h99v-278q81 32 161 32zM332 94q90 0 133.5 40.5t43.5 112.5q0 75 -43 113t-121 38q-80 0 -153 -36v-268h140z" />
    <glyph glyph-name="uni042D" unicode="&#x42d;" horiz-adv-x="781" 
d="M352 752q159 0 271 -109q112 -108 112 -276q0 -166 -111 -272q-109 -106 -269 -106q-51 0 -98.5 11.5t-89 32.5t-76 50.5t-60.5 65.5l72 61q45 -58 109 -91.5t139 -33.5q109 0 186 66q79 67 92 172h-435v95h434q-16 105 -95 171q-78 66 -183 66q-149 0 -243 -127l-74 62
q48 74 133 117q85 45 186 45z" />
    <glyph glyph-name="uni042E" unicode="&#x42e;" horiz-adv-x="1107" 
d="M679 752q157 0 270 -113t113 -270t-113 -270q-113 -111 -273 -111q-150 0 -256 94q-104 94 -121 239h-106v-321h-100v739h100v-322h107q20 145 127 239q108 96 252 96zM958 368q0 121 -81 204q-81 82 -198 82q-116 0 -197 -83t-81 -203q0 -119 80 -202q79 -81 198 -81
q118 0 198 81q81 81 81 202z" />
    <glyph glyph-name="uni042F" unicode="&#x42f;" horiz-adv-x="647" 
d="M553 739v-739h-99v284q-58 -11 -130 -11l-165 -273h-122l181 286q-40 12 -70 33.5t-49.5 50t-29 63t-9.5 72.5q0 98 64 165q64 69 188 69h241zM330 367q80 0 124 10v267h-131q-84 0 -122.5 -38t-38.5 -99q0 -140 168 -140z" />
    <glyph glyph-name="uni0430" unicode="&#x430;" horiz-adv-x="665" 
d="M498 536h92v-536h-92v76q-72 -89 -189 -89q-116 0 -192 82t-76 203t76 198q76 79 192 79q114 0 189 -91v78zM504 269q0 80 -51 136t-133 56t-132 -56t-50 -137t50 -137t132 -56t133 56q51 55 51 138z" />
    <glyph glyph-name="uni0431" unicode="&#x431;" horiz-adv-x="669" 
d="M363 526q104 0 183 -73q81 -72 81 -193q0 -116 -78 -195q-77 -78 -202 -78q-146 0 -222 108q-76 107 -76 274q0 143 59 232t177 116l62 12l63 12q22 6 58 23.5t73 47.5l38 -87q-11 -11 -22.5 -20.5t-20.5 -16.5q-9 -6 -24 -12.5t-23 -9.5l-29 -9l-30 -7l-37 -8l-40 -9
q-20 -5 -35 -8.5t-26 -7.5q-19 -5 -51 -23q-21 -11 -36.5 -27.5t-27 -40.5t-19.5 -57t-14 -77q30 64 90 99t129 35zM349 75q76 0 129 54q52 53 52 130q0 75 -52 127q-51 53 -125 53q-72 0 -127 -50q-54 -50 -54 -127q0 -76 49 -131q50 -56 128 -56z" />
    <glyph glyph-name="uni0432" unicode="&#x432;" horiz-adv-x="622" 
d="M446 413q61 -16 97.5 -68t36.5 -127q0 -102 -69 -166q-68 -65 -185 -65q-131 0 -197 80t-66 233v177q0 133 69 214q69 82 191 82q105 0 164.5 -56t59.5 -153q0 -47 -28 -91q-29 -44 -73 -60zM323 685q-70 0 -118 -55q-47 -56 -47 -178v-9h167q33 0 56.5 10t39 26.5
t23 38.5t7.5 46q0 57 -32.5 89t-95.5 32zM328 75q36 0 64.5 11t48.5 30.5t31 46.5t11 59q0 57 -35.5 96t-108.5 39h-181v-56q0 -70 16.5 -118t44.5 -70q29 -22 54.5 -30t54.5 -8z" />
    <glyph glyph-name="uni0433" unicode="&#x433;" horiz-adv-x="495" 
d="M238 -13q-45 0 -82.5 9.5t-64.5 27.5t-42 45.5t-15 63.5q0 51 31 87.5t76 55.5q33 15 67.5 27.5t63.5 27t47.5 31.5t18.5 40q0 27 -23.5 44.5t-71.5 17.5q-70 0 -162 -31l-22 80q91 36 190 36q85 0 141 -35q57 -35 57 -103q0 -49 -31.5 -82.5t-76.5 -52.5
q-32 -13 -67 -25.5t-64 -27.5t-47.5 -34.5t-18.5 -46.5q0 -69 105 -69q96 0 188 47l27 -79q-110 -54 -224 -54z" />
    <glyph glyph-name="uni0434" unicode="&#x434;" horiz-adv-x="666" 
d="M498 536h95v-479q0 -142 -76 -214t-219 -72q-101 0 -210 39l21 82q99 -33 186 -33q203 0 203 180v44q-72 -84 -188 -84t-192 79q-77 80 -77 197t79 195q79 79 195 79q111 0 183 -83v70zM190 139q52 -54 131 -54q78 0 131 54q52 53 52 135t-52 134q-53 54 -131 54
q-79 0 -131 -54q-52 -52 -52 -134t52 -135z" />
    <glyph glyph-name="uni0435" unicode="&#x435;" horiz-adv-x="611" 
d="M572 278q0 -10 -3 -49h-427q12 -68 58 -110.5t130 -42.5q48 0 99 16.5t88 43.5l41 -73q-40 -31 -101.5 -53t-128.5 -22q-76 0 -130 24.5t-88.5 64.5t-51 90.5t-16.5 102.5q0 120 75 200q76 79 196 79q114 0 186 -73q73 -73 73 -198zM473 312q-2 35 -15 63t-34 48
t-49.5 30.5t-61.5 10.5t-61.5 -11t-51 -31.5t-37.5 -48.5t-21 -61h331z" />
    <glyph glyph-name="uni0436" unicode="&#x436;" horiz-adv-x="836" 
d="M820 2q-33 -11 -63 -11q-33 3 -55 7.5t-42 23.5l-23 20q-8 8 -22 29l-20 29l-22 36q-19 29 -32.5 47.5t-22.5 25.5q-19 14 -39 14h-17v-225h-89v225h-16q-27 0 -45 -18.5t-43 -58.5l-6 -10q-50 -78 -74 -102q-43 -43 -111 -43q-29 0 -62 11l4 73q22 -6 47 -6q17 0 29 6
t26 22q6 7 16.5 21.5t19.5 27.5l58 83q17 23 35 34q-17 10 -29.5 24t-21.5 31l-14 25q-2 5 -3 8.5t-2 4.5q0 1 -1.5 5t-3.5 8.5t-3.5 8.5l-1.5 4q-6 13 -9.5 21.5t-6.5 14.5t-6 11t-9 13q-10 15 -23 20t-31 5q-6 0 -15 -1.5l-21 -3.5l-14 72q30 11 61 11q65 0 97 -29
t62 -102q1 -3 3.5 -9.5t5.5 -13t5.5 -12.5t2.5 -9l8 -16t8 -15q3 -2 9.5 -10t11.5 -10q9 -2 22 -6t31 -4h10v227h89v-227h10q24 0 38.5 5t25.5 14q7 8 10 11.5t8 14.5l8 16l18 44q28 72 61 102q34 29 98 29q32 0 60 -11l-13 -72q-28 5 -36 5q-18 0 -31 -5t-24 -20
q-11 -16 -15 -25l-15 -35q-1 -3 -6.5 -16t-7.5 -17t-7.5 -15.5t-9.5 -16.5q-8 -15 -20.5 -29.5t-29.5 -24.5q20 -12 36 -34l29 -43q51 -78 71 -99q19 -18 49 -18q23 0 46 6z" />
    <glyph glyph-name="uni0437" unicode="&#x437;" horiz-adv-x="545" 
d="M251 -227q-128 0 -237 78l40 77q94 -68 189 -68q76 0 121.5 38.5t45.5 101.5q0 60 -42 93.5t-109 33.5h-121v87h82q81 0 126.5 37t45.5 94q0 54 -40 85.5t-100 31.5q-87 0 -176 -71l-51 67q43 39 106 65t129 26q98 0 163 -57q65 -56 65 -139q0 -57 -32.5 -102.5
t-92.5 -67.5v-4q64 -14 105 -66q40 -52 40 -122q0 -94 -71 -156t-186 -62z" />
    <glyph glyph-name="uni0438" unicode="&#x438;" horiz-adv-x="633" 
d="M558 536v-536h-91v77q-24 -39 -75.5 -64.5t-115.5 -25.5q-90 0 -149 53q-59 54 -59 174v322h96v-318q0 -142 128 -142q79 0 125 47t46 132v281h95z" />
    <glyph glyph-name="uni0439" unicode="&#x439;" horiz-adv-x="633" 
d="M317 574q-105 0 -178 93l48 52q61 -73 130 -73q73 0 131 73l49 -52q-77 -93 -180 -93zM558 536v-536h-91v77q-24 -39 -75.5 -64.5t-115.5 -25.5q-90 0 -149 53q-59 54 -59 174v322h96v-318q0 -142 128 -142q79 0 125 47t46 132v281h95z" />
    <glyph glyph-name="uni043A" unicode="&#x43a;" horiz-adv-x="545" 
d="M423 0l-202 250l-51 -46v-204h-96v757h96v-438l240 217h130l-251 -225l260 -311h-126z" />
    <glyph glyph-name="uni043B" unicode="&#x43b;" horiz-adv-x="567" 
d="M11 0l244 536h59l242 -536h-105l-166 391l-169 -391h-105z" />
    <glyph glyph-name="uni043C" unicode="&#x43c;" horiz-adv-x="770" 
d="M74 0v536h57l255 -334l252 334h57v-536h-94v346l-202 -266h-28l-202 266v-346h-95z" />
    <glyph glyph-name="uni043D" unicode="&#x43d;" horiz-adv-x="611" 
d="M441 536h95v-536h-95v230h-271v-230h-96v536h96v-223h271v223z" />
    <glyph glyph-name="uni043E" unicode="&#x43e;" 
d="M323 -13q-124 0 -203 81q-79 82 -79 201t79 199q79 82 203 82q122 0 201 -82q80 -83 80 -199q0 -118 -80 -201q-80 -81 -201 -81zM508 269q0 79 -54 135q-54 57 -131 57t-131 -57q-54 -56 -54 -135q0 -80 54 -137t131 -57t131 57t54 137z" />
    <glyph glyph-name="uni043F" unicode="&#x43f;" horiz-adv-x="618" 
d="M74 0v536h94v-76q51 90 170 90q90 0 151 -58t61 -167v-325h-95v298q0 78 -38 120.5t-99 42.5q-65 0 -107 -46q-41 -47 -41 -118v-297h-96z" />
    <glyph glyph-name="uni0440" unicode="&#x440;" horiz-adv-x="670" 
d="M361 549q115 0 191 -82q77 -83 77 -199q0 -117 -77 -200q-77 -81 -192 -81q-117 0 -190 91v-299h-96v757h96v-81q75 94 191 94zM533 269q0 80 -51 136t-133 56t-133 -56q-50 -56 -50 -136q0 -82 50 -138q51 -56 133 -56t133 56q51 55 51 138z" />
    <glyph glyph-name="uni0441" unicode="&#x441;" horiz-adv-x="599" 
d="M324 -12q-125 0 -204 79t-79 201t80 202q80 79 208 79q39 0 76.5 -10t69 -28t57 -44t40.5 -58l-79 -46q-27 45 -70 71.5t-94 26.5q-82 0 -137 -55q-54 -56 -54 -138q0 -81 53 -137q52 -55 133 -55q25 0 50 7t46.5 20t39.5 30.5t30 38.5l80 -46q-34 -63 -100 -100
q-68 -38 -146 -38z" />
    <glyph glyph-name="uni0442" unicode="&#x442;" horiz-adv-x="974" 
d="M693 550q97 0 156 -63q58 -61 58 -168v-319h-96v304q0 75 -34.5 116t-94.5 41q-32 0 -58 -11.5t-45 -32.5t-29.5 -50t-10.5 -65v-302h-95v302q0 75 -35 117t-95 42q-32 0 -58 -11.5t-45.5 -32.5t-30 -51t-10.5 -66v-300h-96v536h94v-79q24 45 66 69.5t96 23.5
q54 0 100 -26t68 -74q27 46 79.5 73t115.5 27z" />
    <glyph glyph-name="uni0443" unicode="&#x443;" horiz-adv-x="555" 
d="M433 536h106l-225 -596q-34 -90 -78.5 -129t-107.5 -39q-52 0 -86 21l12 84q36 -16 65 -16q66 0 106 94l20 47l-233 534h111l166 -402z" />
    <glyph glyph-name="uni0444" unicode="&#x444;" horiz-adv-x="821" 
d="M780 267q0 -125 -90 -201q-90 -75 -236 -78v-212h-87v212q-149 3 -237 79q-89 77 -89 201q0 127 91 203q92 77 235 78v208h87v-208q144 -3 235 -79t91 -203zM454 69q54 1 97 15t74 40t47.5 62.5t16.5 83.5q0 91 -63 142.5t-172 53.5v-397zM131 269q0 -47 17 -83.5t48 -62
t74.5 -39.5t96.5 -15v397q-108 -2 -172 -53.5t-64 -143.5z" />
    <glyph glyph-name="uni0445" unicode="&#x445;" horiz-adv-x="509" 
d="M495 0h-111l-130 201l-130 -201h-116l189 278l-170 258h111l119 -188l121 188h113l-180 -265z" />
    <glyph glyph-name="uni0446" unicode="&#x446;" horiz-adv-x="677" 
d="M558 128q0 -65 112 -65v-243h-88v173q-22 0 -41.5 7.5t-34.5 20t-24.5 29t-10.5 34.5q-21 -41 -76 -69t-119 -28q-90 0 -149 53q-59 54 -59 174v322h96v-318q0 -142 128 -142q79 0 125 47t46 132v281h95v-408z" />
    <glyph glyph-name="uni0447" unicode="&#x447;" horiz-adv-x="560" 
d="M390 536h96v-536h-96v181q-77 -20 -138 -20q-211 0 -211 203v172h95v-165q0 -66 31 -94t92 -28q74 0 131 19v268z" />
    <glyph glyph-name="uni0448" unicode="&#x448;" horiz-adv-x="965" 
d="M795 536h96v-536h-90v77q-11 -20 -29.5 -36.5t-41.5 -28.5t-49.5 -18.5t-53.5 -6.5q-54 0 -98 24.5t-65 75.5q-25 -51 -77 -75.5t-113 -24.5q-37 0 -74 11.5t-66 37.5t-47.5 69.5t-18.5 108.5v322h96v-309q0 -151 122 -151q69 0 107.5 46.5t38.5 131.5v282h95v-318
q0 -69 31.5 -105.5t89.5 -36.5q69 0 108 49.5t39 128.5v282z" />
    <glyph glyph-name="uni0449" unicode="&#x449;" horiz-adv-x="1010" 
d="M891 128q0 -65 109 -65v-243h-87v173q-45 0 -75.5 27t-34.5 64q-21 -42 -70 -69.5t-110 -27.5q-55 0 -97.5 24t-61.5 75q-12 -25 -32 -43.5t-45 -31t-53.5 -18.5t-58.5 -6q-38 0 -75 11.5t-66.5 37.5t-47.5 69.5t-18 108.5v322h96v-309q0 -151 122 -151q69 0 107.5 46.5
t38.5 131.5v282h95v-318q0 -69 31.5 -105.5t88.5 -36.5q34 0 61.5 13t47 36.5t29.5 56.5t10 72v282h96v-408z" />
    <glyph glyph-name="uni044A" unicode="&#x44a;" horiz-adv-x="643" 
d="M384 431q98 0 161 -64q63 -63 63 -159q0 -93 -60 -157q-58 -64 -174 -64q-55 0 -97 17t-66 42q-36 42 -49 93t-12 96v214h-140v87h235v-145q61 40 139 40zM376 74q66 0 101 38t35 98t-35.5 97t-102.5 37q-74 0 -129 -43v-69q0 -158 131 -158z" />
    <glyph glyph-name="uni044B" unicode="&#x44b;" horiz-adv-x="757" 
d="M300 355q61 0 105.5 -16.5t66.5 -44.5q23 -27 33 -55.5t10 -60.5q0 -73 -53 -126q-52 -52 -157 -52h-231v536h95v-181h131zM587 536h95v-536h-95v536zM294 82q126 0 126 98q0 38 -28 65.5t-91 27.5h-132v-191h125z" />
    <glyph glyph-name="uni044C" unicode="&#x44c;" horiz-adv-x="560" 
d="M301 431q99 0 162 -64q63 -63 63 -159q0 -93 -60 -157q-58 -64 -174 -64q-55 0 -97 17t-66 42q-36 42 -50 93t-12 96v301h96v-144q61 39 138 39zM293 74q67 0 102 38t35 98t-35.5 97t-102.5 37q-74 0 -129 -42v-70q0 -158 130 -158z" />
    <glyph glyph-name="uni044D" unicode="&#x44d;" horiz-adv-x="603" 
d="M280 549q123 0 202 -79q80 -80 80 -202t-79 -201q-78 -79 -199 -79q-42 0 -80.5 10t-70.5 28.5t-57.5 44t-41.5 55.5l78 46q12 -21 30 -38.5t40.5 -30.5t48 -20t52.5 -7q33 0 63 11t53.5 31.5t40 48t22.5 60.5h-231v84h231q-7 33 -24 61t-41 48t-54.5 31t-64.5 11
q-54 0 -98 -27t-71 -72l-78 46q33 66 100 103t149 37z" />
    <glyph glyph-name="uni044E" unicode="&#x44e;" horiz-adv-x="844" 
d="M522 550q122 0 201 -82q80 -83 80 -199q0 -118 -80 -201q-80 -81 -201 -81q-112 0 -188 67t-91 170h-73v-224h-96v757h96v-451h72q13 105 90 174q77 70 190 70zM707 269q0 79 -54 135q-54 57 -131 57t-131 -57q-54 -56 -54 -135q0 -80 54 -137t131 -57t131 57t54 137z
" />
    <glyph glyph-name="uni044F" unicode="&#x44f;" horiz-adv-x="554" 
d="M479 536v-536h-95v203q-21 -4 -49 -5.5t-63 -1.5l-131 -196h-110l145 206q-61 18 -92 61.5t-31 97.5q0 36 13.5 67t40.5 54.5t67 36.5t94 13h211zM275 276q71 0 109 7v171h-115q-121 0 -121 -88q0 -90 127 -90z" />
    <glyph glyph-name="uni0451" unicode="&#x451;" horiz-adv-x="611" 
d="M220 592q-30 0 -50 19.5t-20 50.5q0 28 20 47t50 19q28 0 47.5 -19t19.5 -47q0 -30 -19.5 -50t-47.5 -20zM418 592q-30 0 -49.5 20t-19.5 50q0 28 20 47t49 19t48.5 -19t19.5 -47q0 -30 -19.5 -50t-48.5 -20zM572 278q0 -10 -3 -49h-427q12 -68 58 -110.5t130 -42.5
q48 0 99 16.5t88 43.5l41 -73q-40 -31 -101.5 -53t-128.5 -22q-76 0 -130 24.5t-88.5 64.5t-51 90.5t-16.5 102.5q0 120 75 200q76 79 196 79q114 0 186 -73q73 -73 73 -198zM473 312q-2 35 -15 63t-34 48t-49.5 30.5t-61.5 10.5t-61.5 -11t-51 -31.5t-37.5 -48.5t-21 -61
h331z" />
    <glyph glyph-name="Wgrave" unicode="&#x1e80;" horiz-adv-x="1029" 
d="M562 794h-84l-94 168h118zM265 0l-254 739h106l178 -541l196 541h45l201 -541l175 541h105l-252 -739h-55l-195 552l-194 -552h-56z" />
    <glyph glyph-name="wgrave" unicode="&#x1e81;" horiz-adv-x="840" 
d="M472 622h-83l-93 167h117zM195 1l-184 535h101l127 -402l146 402h67l152 -402l122 402h100l-179 -535h-80l-148 401l-145 -401h-79z" />
    <glyph glyph-name="Wacute" unicode="&#x1e82;" horiz-adv-x="1029" 
d="M479 793l59 168h118l-93 -168h-84zM265 0l-254 739h106l178 -541l196 541h45l201 -541l175 541h105l-252 -739h-55l-195 552l-194 -552h-56z" />
    <glyph glyph-name="wacute" unicode="&#x1e83;" horiz-adv-x="840" 
d="M383 623l59 167h117l-93 -167h-83zM195 1l-184 535h101l127 -402l146 402h67l152 -402l122 402h100l-179 -535h-80l-148 401l-145 -401h-79z" />
    <glyph glyph-name="Wdieresis" unicode="&#x1e84;" horiz-adv-x="1029" 
d="M427 806q-27 0 -45.5 18t-18.5 45q0 25 18.5 42.5t45.5 17.5q25 0 42.5 -17.5t17.5 -42.5q0 -27 -17.5 -45t-42.5 -18zM606 806q-27 0 -45 18t-18 45q0 25 18.5 42.5t44.5 17.5t43.5 -17.5t17.5 -42.5q0 -27 -17.5 -45t-43.5 -18zM265 0l-254 739h106l178 -541l196 541
h45l201 -541l175 541h105l-252 -739h-55l-195 552l-194 -552h-56z" />
    <glyph glyph-name="wdieresis" unicode="&#x1e85;" horiz-adv-x="840" 
d="M321 616q-30 0 -50 19.5t-20 50.5q0 28 20 47t50 19q28 0 47.5 -19t19.5 -47q0 -30 -19.5 -50t-47.5 -20zM450 686q0 28 20 47t49 19t48.5 -19t19.5 -47q0 -30 -19.5 -50t-48.5 -20t-49 20t-20 50zM195 1l-184 535h101l127 -402l146 402h67l152 -402l122 402h100
l-179 -535h-80l-148 401l-145 -401h-79z" />
    <glyph glyph-name="uni1EA0" unicode="&#x1ea0;" horiz-adv-x="674" 
d="M552 0l-75 192h-281l-75 -192h-109l299 739h54l296 -739h-109zM337 565l-107 -279h213zM338 -201q-30 0 -50 19.5t-20 49.5q0 29 20 48t50 19q28 0 48 -19.5t20 -47.5q0 -30 -20 -49.5t-48 -19.5z" />
    <glyph glyph-name="uni1EA1" unicode="&#x1ea1;" horiz-adv-x="665" 
d="M498 536h92v-536h-92v76q-72 -89 -189 -89q-116 0 -192 82t-76 203t76 198q76 79 192 79q114 0 189 -91v78zM504 269q0 80 -51 136t-133 56t-132 -56t-50 -137t50 -137t132 -56t133 56q51 55 51 138zM333 -201q-30 0 -50 19.5t-20 49.5q0 29 20 48t50 19q28 0 48 -19.5
t20 -47.5q0 -30 -20 -49.5t-48 -19.5z" />
    <glyph glyph-name="uni1EA2" unicode="&#x1ea2;" horiz-adv-x="674" 
d="M552 0l-75 192h-281l-75 -192h-109l299 739h54l296 -739h-109zM337 565l-107 -279h213zM308 790v10.5t3 18.5t10 23t21 24q14 11 25 23.5t11 26.5q0 15 -11.5 24t-27.5 9q-23 0 -64 -46l-48 47q26 31 55 48.5t57 17.5q21 0 40.5 -7t34.5 -20t24 -31.5t9 -41.5t-13 -44.5
t-39 -45.5q-5 -5 -9 -7t-7 -5t-4.5 -8.5t-1.5 -15.5h-65z" />
    <glyph glyph-name="uni1EA3" unicode="&#x1ea3;" horiz-adv-x="665" 
d="M498 536h92v-536h-92v76q-72 -89 -189 -89q-116 0 -192 82t-76 203t76 198q76 79 192 79q114 0 189 -91v78zM504 269q0 80 -51 136t-133 56t-132 -56t-50 -137t50 -137t132 -56t133 56q51 55 51 138zM303 621v10.5t3 18.5t10 23t21 24q14 11 25 23.5t11 26.5
q0 15 -11.5 24t-27.5 9q-23 0 -64 -46l-48 47q26 31 55 48.5t57 17.5q21 0 40.5 -7t34.5 -20t24 -31.5t9 -41.5t-13 -44.5t-39 -45.5q-5 -5 -9 -7t-7 -5t-4.5 -8.5t-1.5 -15.5h-65z" />
    <glyph glyph-name="uni1EA4" unicode="&#x1ea4;" horiz-adv-x="674" 
d="M337 883l-72 -91h-103l141 165h69l141 -165h-104zM552 0l-75 192h-281l-75 -192h-109l299 739h54l296 -739h-109zM337 565l-107 -279h213zM471 914l59 168h118l-93 -168h-84z" />
    <glyph glyph-name="uni1EA5" unicode="&#x1ea5;" horiz-adv-x="665" 
d="M328 711l-72 -90h-102l140 164h69l140 -164h-103zM498 536h92v-536h-92v76q-72 -89 -189 -89q-116 0 -192 82t-76 203t76 198q76 79 192 79q114 0 189 -91v78zM504 269q0 80 -51 136t-133 56t-132 -56t-50 -137t50 -137t132 -56t133 56q51 55 51 138zM484 740l59 167h117
l-93 -167h-83z" />
    <glyph glyph-name="uni1EA6" unicode="&#x1ea6;" horiz-adv-x="674" 
d="M337 883l-72 -91h-103l141 165h69l141 -165h-104zM552 0l-75 192h-281l-75 -192h-109l299 739h54l296 -739h-109zM337 565l-107 -279h213zM576 914h-84l-94 168h118z" />
    <glyph glyph-name="uni1EA7" unicode="&#x1ea7;" horiz-adv-x="665" 
d="M328 711l-72 -90h-102l140 164h69l140 -164h-103zM498 536h92v-536h-92v76q-72 -89 -189 -89q-116 0 -192 82t-76 203t76 198q76 79 192 79q114 0 189 -91v78zM504 269q0 80 -51 136t-133 56t-132 -56t-50 -137t50 -137t132 -56t133 56q51 55 51 138zM575 740h-83
l-93 167h117z" />
    <glyph glyph-name="uni1EA8" unicode="&#x1ea8;" horiz-adv-x="674" 
d="M337 883l-72 -91h-103l141 165h69l141 -165h-104zM552 0l-75 192h-281l-75 -192h-109l299 739h54l296 -739h-109zM337 565l-107 -279h213zM499 885v10.5t3 18.5t10 23t21 24q14 11 25 23.5t11 26.5q0 15 -11.5 24t-27.5 9q-23 0 -64 -46l-48 47q26 31 55 48.5t57 17.5
q21 0 40.5 -7t34.5 -20t24 -31.5t9 -41.5t-13 -44.5t-39 -45.5q-5 -5 -9 -7t-7 -5t-4.5 -8.5t-1.5 -15.5h-65z" />
    <glyph glyph-name="uni1EA9" unicode="&#x1ea9;" horiz-adv-x="665" 
d="M328 711l-72 -90h-102l140 164h69l140 -164h-103zM498 536h92v-536h-92v76q-72 -89 -189 -89q-116 0 -192 82t-76 203t76 198q76 79 192 79q114 0 189 -91v78zM504 269q0 80 -51 136t-133 56t-132 -56t-50 -137t50 -137t132 -56t133 56q51 55 51 138zM501 725v10.5
t3 18.5t10 23t21 24q14 11 25 23.5t11 26.5q0 15 -11.5 24t-27.5 9q-23 0 -64 -46l-48 47q26 31 55 48.5t57 17.5q21 0 40.5 -7t34.5 -20t24 -31.5t9 -41.5t-13 -44.5t-39 -45.5q-5 -5 -9 -7t-7 -5t-4.5 -8.5t-1.5 -15.5h-65z" />
    <glyph glyph-name="uni1EAA" unicode="&#x1eaa;" horiz-adv-x="674" 
d="M337 883l-72 -91h-103l141 165h69l141 -165h-104zM552 0l-75 192h-281l-75 -192h-109l299 739h54l296 -739h-109zM337 565l-107 -279h213zM149 1031q13 46 44.5 71t73.5 25q33 0 76 -22q44 -22 64 -22q37 0 58 45l60 -28q-12 -46 -43 -71t-73 -25q-32 0 -75 22
q-44 23 -63 23q-37 0 -60 -47z" />
    <glyph glyph-name="uni1EAB" unicode="&#x1eab;" horiz-adv-x="665" 
d="M328 711l-72 -90h-102l140 164h69l140 -164h-103zM498 536h92v-536h-92v76q-72 -89 -189 -89q-116 0 -192 82t-76 203t76 198q76 79 192 79q114 0 189 -91v78zM504 269q0 80 -51 136t-133 56t-132 -56t-50 -137t50 -137t132 -56t133 56q51 55 51 138zM143 856
q13 46 44.5 71t73.5 25q33 0 76 -22t63 -22q37 0 58 45l60 -28q-12 -46 -43 -71t-73 -25q-32 0 -75 22q-44 23 -63 23q-36 0 -59 -47z" />
    <glyph glyph-name="uni1EAC" unicode="&#x1eac;" horiz-adv-x="674" 
d="M338 -201q-30 0 -50 19.5t-20 49.5q0 29 20 48t50 19q28 0 48 -19.5t20 -47.5q0 -30 -20 -49.5t-48 -19.5zM337 883l-72 -91h-103l141 165h69l141 -165h-104zM552 0l-75 192h-281l-75 -192h-109l299 739h54l296 -739h-109zM337 565l-107 -279h213z" />
    <glyph glyph-name="uni1EAD" unicode="&#x1ead;" horiz-adv-x="665" 
d="M333 -201q-30 0 -50 19.5t-20 49.5q0 29 20 48t50 19q28 0 48 -19.5t20 -47.5q0 -30 -20 -49.5t-48 -19.5zM328 711l-72 -90h-102l140 164h69l140 -164h-103zM498 536h92v-536h-92v76q-72 -89 -189 -89q-116 0 -192 82t-76 203t76 198q76 79 192 79q114 0 189 -91v78z
M504 269q0 80 -51 136t-133 56t-132 -56t-50 -137t50 -137t132 -56t133 56q51 55 51 138z" />
    <glyph glyph-name="uni1EAE" unicode="&#x1eae;" horiz-adv-x="674" 
d="M340 791q-65 0 -105 39t-42 107h70q1 -40 21.5 -62t55.5 -22t56 22t22 62h70q-1 -68 -41.5 -107t-106.5 -39zM552 0l-75 192h-281l-75 -192h-109l299 739h54l296 -739h-109zM337 565l-107 -279h213zM290 954l59 168h118l-93 -168h-84z" />
    <glyph glyph-name="uni1EAF" unicode="&#x1eaf;" horiz-adv-x="665" 
d="M498 536h92v-536h-92v76q-72 -89 -189 -89q-116 0 -192 82t-76 203t76 198q76 79 192 79q114 0 189 -91v78zM504 269q0 80 -51 136t-133 56t-132 -56t-50 -137t50 -137t132 -56t133 56q51 55 51 138zM329 617q-65 0 -105 39t-42 107h70q1 -40 21.5 -62t55.5 -22t56 22
t22 62h70q-1 -68 -41.5 -107t-106.5 -39zM282 800l59 167h117l-93 -167h-83z" />
    <glyph glyph-name="uni1EB0" unicode="&#x1eb0;" horiz-adv-x="674" 
d="M340 791q-65 0 -105 39t-42 107h70q1 -40 21.5 -62t55.5 -22t56 22t22 62h70q-1 -68 -41.5 -107t-106.5 -39zM552 0l-75 192h-281l-75 -192h-109l299 739h54l296 -739h-109zM337 565l-107 -279h213zM389 954h-84l-94 168h118z" />
    <glyph glyph-name="uni1EB1" unicode="&#x1eb1;" horiz-adv-x="665" 
d="M498 536h92v-536h-92v76q-72 -89 -189 -89q-116 0 -192 82t-76 203t76 198q76 79 192 79q114 0 189 -91v78zM504 269q0 80 -51 136t-133 56t-132 -56t-50 -137t50 -137t132 -56t133 56q51 55 51 138zM329 617q-65 0 -105 39t-42 107h70q1 -40 21.5 -62t55.5 -22t56 22
t22 62h70q-1 -68 -41.5 -107t-106.5 -39zM386 800h-83l-93 167h117z" />
    <glyph glyph-name="uni1EB2" unicode="&#x1eb2;" horiz-adv-x="674" 
d="M340 791q-65 0 -105 39t-42 107h70q1 -40 21.5 -62t55.5 -22t56 22t22 62h70q-1 -68 -41.5 -107t-106.5 -39zM552 0l-75 192h-281l-75 -192h-109l299 739h54l296 -739h-109zM337 565l-107 -279h213zM308 945v10.5t3 18.5t10 23t21 24q14 11 25 23.5t11 26.5
q0 15 -11.5 24t-27.5 9q-23 0 -64 -46l-48 47q26 31 55 48.5t57 17.5q21 0 40.5 -7t34.5 -20t24 -31.5t9 -41.5t-13 -44.5t-39 -45.5q-5 -5 -9 -7t-7 -5t-4.5 -8.5t-1.5 -15.5h-65z" />
    <glyph glyph-name="uni1EB3" unicode="&#x1eb3;" horiz-adv-x="665" 
d="M498 536h92v-536h-92v76q-72 -89 -189 -89q-116 0 -192 82t-76 203t76 198q76 79 192 79q114 0 189 -91v78zM504 269q0 80 -51 136t-133 56t-132 -56t-50 -137t50 -137t132 -56t133 56q51 55 51 138zM329 617q-65 0 -105 39t-42 107h70q1 -40 21.5 -62t55.5 -22t56 22
t22 62h70q-1 -68 -41.5 -107t-106.5 -39zM296 795v10.5t3 18.5t10 23t21 24q14 11 25 23.5t11 26.5q0 15 -11.5 24t-27.5 9q-23 0 -64 -46l-48 47q26 31 55 48.5t57 17.5q21 0 40.5 -7t34.5 -20t24 -31.5t9 -41.5t-13 -44.5t-39 -45.5q-5 -5 -9 -7t-7 -5t-4.5 -8.5
t-1.5 -15.5h-65z" />
    <glyph glyph-name="uni1EB4" unicode="&#x1eb4;" horiz-adv-x="674" 
d="M340 791q-65 0 -105 39t-42 107h70q1 -40 21.5 -62t55.5 -22t56 22t22 62h70q-1 -68 -41.5 -107t-106.5 -39zM552 0l-75 192h-281l-75 -192h-109l299 739h54l296 -739h-109zM337 565l-107 -279h213zM149 1031q13 46 44.5 71t73.5 25q33 0 76 -22q44 -22 64 -22
q37 0 58 45l60 -28q-12 -46 -43 -71t-73 -25q-32 0 -75 22q-44 23 -63 23q-37 0 -60 -47z" />
    <glyph glyph-name="uni1EB5" unicode="&#x1eb5;" horiz-adv-x="665" 
d="M498 536h92v-536h-92v76q-72 -89 -189 -89q-116 0 -192 82t-76 203t76 198q76 79 192 79q114 0 189 -91v78zM504 269q0 80 -51 136t-133 56t-132 -56t-50 -137t50 -137t132 -56t133 56q51 55 51 138zM329 617q-65 0 -105 39t-42 107h70q1 -40 21.5 -62t55.5 -22t56 22
t22 62h70q-1 -68 -41.5 -107t-106.5 -39zM145 856q13 46 44.5 71t73.5 25q33 0 76 -22t63 -22q37 0 58 45l60 -28q-12 -46 -43 -71t-73 -25q-32 0 -75 22q-44 23 -63 23q-36 0 -59 -47z" />
    <glyph glyph-name="uni1EB6" unicode="&#x1eb6;" horiz-adv-x="674" 
d="M338 -201q-30 0 -50 19.5t-20 49.5q0 29 20 48t50 19q28 0 48 -19.5t20 -47.5q0 -30 -20 -49.5t-48 -19.5zM340 791q-65 0 -105 39t-42 107h70q1 -40 21.5 -62t55.5 -22t56 22t22 62h70q-1 -68 -41.5 -107t-106.5 -39zM552 0l-75 192h-281l-75 -192h-109l299 739h54
l296 -739h-109zM337 565l-107 -279h213z" />
    <glyph glyph-name="uni1EB7" unicode="&#x1eb7;" horiz-adv-x="665" 
d="M333 -201q-30 0 -50 19.5t-20 49.5q0 29 20 48t50 19q28 0 48 -19.5t20 -47.5q0 -30 -20 -49.5t-48 -19.5zM498 536h92v-536h-92v76q-72 -89 -189 -89q-116 0 -192 82t-76 203t76 198q76 79 192 79q114 0 189 -91v78zM504 269q0 80 -51 136t-133 56t-132 -56t-50 -137
t50 -137t132 -56t133 56q51 55 51 138zM329 617q-65 0 -105 39t-42 107h70q1 -40 21.5 -62t55.5 -22t56 22t22 62h70q-1 -68 -41.5 -107t-106.5 -39z" />
    <glyph glyph-name="uni1EB8" unicode="&#x1eb8;" horiz-adv-x="609" 
d="M93 0v739h460v-95h-360v-221h333v-95h-333v-233h360v-95h-460zM305 -201q-30 0 -50 19.5t-20 49.5q0 29 20 48t50 19q28 0 48 -19.5t20 -47.5q0 -30 -20 -49.5t-48 -19.5z" />
    <glyph glyph-name="uni1EB9" unicode="&#x1eb9;" horiz-adv-x="611" 
d="M572 278q0 -10 -3 -49h-427q12 -68 58 -110.5t130 -42.5q48 0 99 16.5t88 43.5l41 -73q-40 -31 -101.5 -53t-128.5 -22q-76 0 -130 24.5t-88.5 64.5t-51 90.5t-16.5 102.5q0 120 75 200q76 79 196 79q114 0 186 -73q73 -73 73 -198zM473 312q-2 35 -15 63t-34 48
t-49.5 30.5t-61.5 10.5t-61.5 -11t-51 -31.5t-37.5 -48.5t-21 -61h331zM306 -201q-30 0 -50 19.5t-20 49.5q0 29 20 48t50 19q28 0 48 -19.5t20 -47.5q0 -30 -20 -49.5t-48 -19.5z" />
    <glyph glyph-name="uni1EBA" unicode="&#x1eba;" horiz-adv-x="609" 
d="M93 0v739h460v-95h-360v-221h333v-95h-333v-233h360v-95h-460zM275 790v10.5t3 18.5t10 23t21 24q14 11 25 23.5t11 26.5q0 15 -11.5 24t-27.5 9q-23 0 -64 -46l-48 47q26 31 55 48.5t57 17.5q21 0 40.5 -7t34.5 -20t24 -31.5t9 -41.5t-13 -44.5t-39 -45.5q-5 -5 -9 -7
t-7 -5t-4.5 -8.5t-1.5 -15.5h-65z" />
    <glyph glyph-name="uni1EBB" unicode="&#x1ebb;" horiz-adv-x="611" 
d="M572 278q0 -10 -3 -49h-427q12 -68 58 -110.5t130 -42.5q48 0 99 16.5t88 43.5l41 -73q-40 -31 -101.5 -53t-128.5 -22q-76 0 -130 24.5t-88.5 64.5t-51 90.5t-16.5 102.5q0 120 75 200q76 79 196 79q114 0 186 -73q73 -73 73 -198zM473 312q-2 35 -15 63t-34 48
t-49.5 30.5t-61.5 10.5t-61.5 -11t-51 -31.5t-37.5 -48.5t-21 -61h331zM276 621v10.5t3 18.5t10 23t21 24q14 11 25 23.5t11 26.5q0 15 -11.5 24t-27.5 9q-23 0 -64 -46l-48 47q26 31 55 48.5t57 17.5q21 0 40.5 -7t34.5 -20t24 -31.5t9 -41.5t-13 -44.5t-39 -45.5
q-5 -5 -9 -7t-7 -5t-4.5 -8.5t-1.5 -15.5h-65z" />
    <glyph glyph-name="uni1EBC" unicode="&#x1ebc;" horiz-adv-x="609" 
d="M93 0v739h460v-95h-360v-221h333v-95h-333v-233h360v-95h-460zM116 831q13 46 44.5 71t73.5 25q33 0 76 -22q44 -22 64 -22q37 0 58 45l60 -28q-12 -46 -43 -71t-73 -25q-32 0 -75 22q-44 23 -63 23q-37 0 -60 -47z" />
    <glyph glyph-name="uni1EBD" unicode="&#x1ebd;" horiz-adv-x="611" 
d="M572 278q0 -10 -3 -49h-427q12 -68 58 -110.5t130 -42.5q48 0 99 16.5t88 43.5l41 -73q-40 -31 -101.5 -53t-128.5 -22q-76 0 -130 24.5t-88.5 64.5t-51 90.5t-16.5 102.5q0 120 75 200q76 79 196 79q114 0 186 -73q73 -73 73 -198zM473 312q-2 35 -15 63t-34 48
t-49.5 30.5t-61.5 10.5t-61.5 -11t-51 -31.5t-37.5 -48.5t-21 -61h331zM118 662q13 46 44.5 71t73.5 25q33 0 76 -22t63 -22q37 0 58 45l60 -28q-12 -46 -43 -71t-73 -25q-32 0 -75 22q-44 23 -63 23q-36 0 -59 -47z" />
    <glyph glyph-name="uni1EBE" unicode="&#x1ebe;" horiz-adv-x="609" 
d="M149 792l141 165h69l141 -165h-104l-72 91l-72 -91h-103zM93 0v739h460v-95h-360v-221h333v-95h-333v-233h360v-95h-460zM459 914l59 168h118l-93 -168h-84z" />
    <glyph glyph-name="uni1EBF" unicode="&#x1ebf;" horiz-adv-x="611" 
d="M316 713l-72 -90h-102l140 164h69l140 -164h-103zM572 278q0 -10 -3 -49h-427q12 -68 58 -110.5t130 -42.5q48 0 99 16.5t88 43.5l41 -73q-40 -31 -101.5 -53t-128.5 -22q-76 0 -130 24.5t-88.5 64.5t-51 90.5t-16.5 102.5q0 120 75 200q76 79 196 79q114 0 186 -73
q73 -73 73 -198zM473 312q-2 35 -15 63t-34 48t-49.5 30.5t-61.5 10.5t-61.5 -11t-51 -31.5t-37.5 -48.5t-21 -61h331zM458 740l59 167h117l-93 -167h-83z" />
    <glyph glyph-name="uni1EC0" unicode="&#x1ec0;" horiz-adv-x="609" 
d="M149 792l141 165h69l141 -165h-104l-72 91l-72 -91h-103zM93 0v739h460v-95h-360v-221h333v-95h-333v-233h360v-95h-460zM563 914h-84l-94 168h118z" />
    <glyph glyph-name="uni1EC1" unicode="&#x1ec1;" horiz-adv-x="611" 
d="M316 713l-72 -90h-102l140 164h69l140 -164h-103zM572 278q0 -10 -3 -49h-427q12 -68 58 -110.5t130 -42.5q48 0 99 16.5t88 43.5l41 -73q-40 -31 -101.5 -53t-128.5 -22q-76 0 -130 24.5t-88.5 64.5t-51 90.5t-16.5 102.5q0 120 75 200q76 79 196 79q114 0 186 -73
q73 -73 73 -198zM473 312q-2 35 -15 63t-34 48t-49.5 30.5t-61.5 10.5t-61.5 -11t-51 -31.5t-37.5 -48.5t-21 -61h331zM559 740h-83l-93 167h117z" />
    <glyph glyph-name="uni1EC2" unicode="&#x1ec2;" horiz-adv-x="609" 
d="M149 792l141 165h69l141 -165h-104l-72 91l-72 -91h-103zM93 0v739h460v-95h-360v-221h333v-95h-333v-233h360v-95h-460zM477 885v10.5t3 18.5t10 23t21 24q14 11 25 23.5t11 26.5q0 15 -11.5 24t-27.5 9q-23 0 -64 -46l-48 47q26 31 55 48.5t57 17.5q21 0 40.5 -7
t34.5 -20t24 -31.5t9 -41.5t-13 -44.5t-39 -45.5q-5 -5 -9 -7t-7 -5t-4.5 -8.5t-1.5 -15.5h-65z" />
    <glyph glyph-name="uni1EC3" unicode="&#x1ec3;" horiz-adv-x="611" 
d="M316 713l-72 -90h-102l140 164h69l140 -164h-103zM572 278q0 -10 -3 -49h-427q12 -68 58 -110.5t130 -42.5q48 0 99 16.5t88 43.5l41 -73q-40 -31 -101.5 -53t-128.5 -22q-76 0 -130 24.5t-88.5 64.5t-51 90.5t-16.5 102.5q0 120 75 200q76 79 196 79q114 0 186 -73
q73 -73 73 -198zM473 312q-2 35 -15 63t-34 48t-49.5 30.5t-61.5 10.5t-61.5 -11t-51 -31.5t-37.5 -48.5t-21 -61h331zM485 725v10.5t3 18.5t10 23t21 24q14 11 25 23.5t11 26.5q0 15 -11.5 24t-27.5 9q-23 0 -64 -46l-48 47q26 31 55 48.5t57 17.5q21 0 40.5 -7t34.5 -20
t24 -31.5t9 -41.5t-13 -44.5t-39 -45.5q-5 -5 -9 -7t-7 -5t-4.5 -8.5t-1.5 -15.5h-65z" />
    <glyph glyph-name="uni1EC4" unicode="&#x1ec4;" horiz-adv-x="609" 
d="M149 792l141 165h69l141 -165h-104l-72 91l-72 -91h-103zM93 0v739h460v-95h-360v-221h333v-95h-333v-233h360v-95h-460zM135 1031q13 46 44.5 71t73.5 25q33 0 76 -22q44 -22 64 -22q37 0 58 45l60 -28q-12 -46 -43 -71t-73 -25q-32 0 -75 22q-44 23 -63 23
q-37 0 -60 -47z" />
    <glyph glyph-name="uni1EC5" unicode="&#x1ec5;" horiz-adv-x="611" 
d="M316 713l-72 -90h-102l140 164h69l140 -164h-103zM572 278q0 -10 -3 -49h-427q12 -68 58 -110.5t130 -42.5q48 0 99 16.5t88 43.5l41 -73q-40 -31 -101.5 -53t-128.5 -22q-76 0 -130 24.5t-88.5 64.5t-51 90.5t-16.5 102.5q0 120 75 200q76 79 196 79q114 0 186 -73
q73 -73 73 -198zM473 312q-2 35 -15 63t-34 48t-49.5 30.5t-61.5 10.5t-61.5 -11t-51 -31.5t-37.5 -48.5t-21 -61h331zM129 856q13 46 44.5 71t73.5 25q33 0 76 -22t63 -22q37 0 58 45l60 -28q-12 -46 -43 -71t-73 -25q-32 0 -75 22q-44 23 -63 23q-36 0 -59 -47z" />
    <glyph glyph-name="uni1EC6" unicode="&#x1ec6;" horiz-adv-x="609" 
d="M305 -201q-30 0 -50 19.5t-20 49.5q0 29 20 48t50 19q28 0 48 -19.5t20 -47.5q0 -30 -20 -49.5t-48 -19.5zM149 792l141 165h69l141 -165h-104l-72 91l-72 -91h-103zM93 0v739h460v-95h-360v-221h333v-95h-333v-233h360v-95h-460z" />
    <glyph glyph-name="uni1EC7" unicode="&#x1ec7;" horiz-adv-x="611" 
d="M306 -201q-30 0 -50 19.5t-20 49.5q0 29 20 48t50 19q28 0 48 -19.5t20 -47.5q0 -30 -20 -49.5t-48 -19.5zM316 713l-72 -90h-102l140 164h69l140 -164h-103zM572 278q0 -10 -3 -49h-427q12 -68 58 -110.5t130 -42.5q48 0 99 16.5t88 43.5l41 -73q-40 -31 -101.5 -53
t-128.5 -22q-76 0 -130 24.5t-88.5 64.5t-51 90.5t-16.5 102.5q0 120 75 200q76 79 196 79q114 0 186 -73q73 -73 73 -198zM473 312q-2 35 -15 63t-34 48t-49.5 30.5t-61.5 10.5t-61.5 -11t-51 -31.5t-37.5 -48.5t-21 -61h331z" />
    <glyph glyph-name="uni1EC8" unicode="&#x1ec8;" horiz-adv-x="286" 
d="M93 739h100v-739h-100v739zM114 790v10.5t3 18.5t10 23t21 24q14 11 25 23.5t11 26.5q0 15 -11.5 24t-27.5 9q-23 0 -64 -46l-48 47q26 31 55 48.5t57 17.5q21 0 40.5 -7t34.5 -20t24 -31.5t9 -41.5t-13 -44.5t-39 -45.5q-5 -5 -9 -7t-7 -5t-4.5 -8.5t-1.5 -15.5h-65z
" />
    <glyph glyph-name="uni1EC9" unicode="&#x1ec9;" horiz-adv-x="245" 
d="M170 0h-96v536h96v-536zM93 621v10.5t3 18.5t10 23t21 24q14 11 25 23.5t11 26.5q0 15 -11.5 24t-27.5 9q-23 0 -64 -46l-48 47q26 31 55 48.5t57 17.5q21 0 40.5 -7t34.5 -20t24 -31.5t9 -41.5t-13 -44.5t-39 -45.5q-5 -5 -9 -7t-7 -5t-4.5 -8.5t-1.5 -15.5h-65z" />
    <glyph glyph-name="uni1ECA" unicode="&#x1eca;" horiz-adv-x="286" 
d="M93 739h100v-739h-100v739zM144 -201q-30 0 -50 19.5t-20 49.5q0 29 20 48t50 19q28 0 48 -19.5t20 -47.5q0 -30 -20 -49.5t-48 -19.5z" />
    <glyph glyph-name="uni1ECB" unicode="&#x1ecb;" horiz-adv-x="245" 
d="M124 612q-30 0 -50 19.5t-20 49.5q0 29 20 48t50 19q28 0 48 -19.5t20 -47.5q0 -30 -20 -49.5t-48 -19.5zM170 0h-96v536h96v-536zM123 -201q-30 0 -50 19.5t-20 49.5q0 29 20 48t50 19q28 0 48 -19.5t20 -47.5q0 -30 -20 -49.5t-48 -19.5z" />
    <glyph glyph-name="uni1ECC" unicode="&#x1ecc;" horiz-adv-x="855" 
d="M45 365q0 162 112 274q113 113 270 113t270 -113t113 -270t-113 -270q-113 -111 -273 -111q-161 0 -270 109t-109 268zM706 368q0 121 -81 204q-81 82 -198 82q-116 0 -197 -83t-81 -203q0 -119 80 -202q79 -81 198 -81q118 0 198 81q81 81 81 202zM428 -201
q-30 0 -50 19.5t-20 49.5q0 29 20 48t50 19q28 0 48 -19.5t20 -47.5q0 -30 -20 -49.5t-48 -19.5z" />
    <glyph glyph-name="uni1ECD" unicode="&#x1ecd;" 
d="M323 -13q-124 0 -203 81q-79 82 -79 201t79 199q79 82 203 82q122 0 201 -82q80 -83 80 -199q0 -118 -80 -201q-80 -81 -201 -81zM508 269q0 79 -54 135q-54 57 -131 57t-131 -57q-54 -56 -54 -135q0 -80 54 -137t131 -57t131 57t54 137zM323 -201q-30 0 -50 19.5
t-20 49.5q0 29 20 48t50 19q28 0 48 -19.5t20 -47.5q0 -30 -20 -49.5t-48 -19.5z" />
    <glyph glyph-name="uni1ECE" unicode="&#x1ece;" horiz-adv-x="855" 
d="M45 365q0 162 112 274q113 113 270 113t270 -113t113 -270t-113 -270q-113 -111 -273 -111q-161 0 -270 109t-109 268zM706 368q0 121 -81 204q-81 82 -198 82q-116 0 -197 -83t-81 -203q0 -119 80 -202q79 -81 198 -81q118 0 198 81q81 81 81 202zM398 790v10.5t3 18.5
t10 23t21 24q14 11 25 23.5t11 26.5q0 15 -11.5 24t-27.5 9q-23 0 -64 -46l-48 47q26 31 55 48.5t57 17.5q21 0 40.5 -7t34.5 -20t24 -31.5t9 -41.5t-13 -44.5t-39 -45.5q-5 -5 -9 -7t-7 -5t-4.5 -8.5t-1.5 -15.5h-65z" />
    <glyph glyph-name="uni1ECF" unicode="&#x1ecf;" 
d="M323 -13q-124 0 -203 81q-79 82 -79 201t79 199q79 82 203 82q122 0 201 -82q80 -83 80 -199q0 -118 -80 -201q-80 -81 -201 -81zM508 269q0 79 -54 135q-54 57 -131 57t-131 -57q-54 -56 -54 -135q0 -80 54 -137t131 -57t131 57t54 137zM293 545v10.5t3 18.5t10 23
t21 24q14 11 25 23.5t11 26.5q0 15 -11.5 24t-27.5 9q-23 0 -64 -46l-48 47q26 31 55 48.5t57 17.5q21 0 40.5 -7t34.5 -20t24 -31.5t9 -41.5t-13 -44.5t-39 -45.5q-5 -5 -9 -7t-7 -5t-4.5 -8.5t-1.5 -15.5h-65z" />
    <glyph glyph-name="uni1ED0" unicode="&#x1ed0;" horiz-adv-x="855" 
d="M252 792l141 165h69l141 -165h-104l-72 91l-72 -91h-103zM45 365q0 162 112 274q113 113 270 113t270 -113t113 -270t-113 -270q-113 -111 -273 -111q-161 0 -270 109t-109 268zM706 368q0 121 -81 204q-81 82 -198 82q-116 0 -197 -83t-81 -203q0 -119 80 -202
q79 -81 198 -81q118 0 198 81q81 81 81 202zM566 914l59 168h118l-93 -168h-84z" />
    <glyph glyph-name="uni1ED1" unicode="&#x1ed1;" 
d="M150 625l140 164h69l140 -164h-103l-72 90l-72 -90h-102zM323 -13q-124 0 -203 81q-79 82 -79 201t79 199q79 82 203 82q122 0 201 -82q80 -83 80 -199q0 -118 -80 -201q-80 -81 -201 -81zM508 269q0 79 -54 135q-54 57 -131 57t-131 -57q-54 -56 -54 -135q0 -80 54 -137
t131 -57t131 57t54 137zM464 740l59 167h117l-93 -167h-83z" />
    <glyph glyph-name="uni1ED2" unicode="&#x1ed2;" horiz-adv-x="855" 
d="M252 792l141 165h69l141 -165h-104l-72 91l-72 -91h-103zM45 365q0 162 112 274q113 113 270 113t270 -113t113 -270t-113 -270q-113 -111 -273 -111q-161 0 -270 109t-109 268zM706 368q0 121 -81 204q-81 82 -198 82q-116 0 -197 -83t-81 -203q0 -119 80 -202
q79 -81 198 -81q118 0 198 81q81 81 81 202zM669 914h-84l-94 168h118z" />
    <glyph glyph-name="uni1ED3" unicode="&#x1ed3;" 
d="M150 625l140 164h69l140 -164h-103l-72 90l-72 -90h-102zM323 -13q-124 0 -203 81q-79 82 -79 201t79 199q79 82 203 82q122 0 201 -82q80 -83 80 -199q0 -118 -80 -201q-80 -81 -201 -81zM508 269q0 79 -54 135q-54 57 -131 57t-131 -57q-54 -56 -54 -135q0 -80 54 -137
t131 -57t131 57t54 137zM572 740h-83l-93 167h117z" />
    <glyph glyph-name="uni1ED4" unicode="&#x1ed4;" horiz-adv-x="855" 
d="M252 792l141 165h69l141 -165h-104l-72 91l-72 -91h-103zM45 365q0 162 112 274q113 113 270 113t270 -113t113 -270t-113 -270q-113 -111 -273 -111q-161 0 -270 109t-109 268zM706 368q0 121 -81 204q-81 82 -198 82q-116 0 -197 -83t-81 -203q0 -119 80 -202
q79 -81 198 -81q118 0 198 81q81 81 81 202zM593 885v10.5t3 18.5t10 23t21 24q14 11 25 23.5t11 26.5q0 15 -11.5 24t-27.5 9q-23 0 -64 -46l-48 47q26 31 55 48.5t57 17.5q21 0 40.5 -7t34.5 -20t24 -31.5t9 -41.5t-13 -44.5t-39 -45.5q-5 -5 -9 -7t-7 -5t-4.5 -8.5
t-1.5 -15.5h-65z" />
    <glyph glyph-name="uni1ED5" unicode="&#x1ed5;" 
d="M150 625l140 164h69l140 -164h-103l-72 90l-72 -90h-102zM323 -13q-124 0 -203 81q-79 82 -79 201t79 199q79 82 203 82q122 0 201 -82q80 -83 80 -199q0 -118 -80 -201q-80 -81 -201 -81zM508 269q0 79 -54 135q-54 57 -131 57t-131 -57q-54 -56 -54 -135q0 -80 54 -137
t131 -57t131 57t54 137zM480 725v10.5t3 18.5t10 23t21 24q14 11 25 23.5t11 26.5q0 15 -11.5 24t-27.5 9q-23 0 -64 -46l-48 47q26 31 55 48.5t57 17.5q21 0 40.5 -7t34.5 -20t24 -31.5t9 -41.5t-13 -44.5t-39 -45.5q-5 -5 -9 -7t-7 -5t-4.5 -8.5t-1.5 -15.5h-65z" />
    <glyph glyph-name="uni1ED6" unicode="&#x1ed6;" horiz-adv-x="855" 
d="M252 792l141 165h69l141 -165h-104l-72 91l-72 -91h-103zM45 365q0 162 112 274q113 113 270 113t270 -113t113 -270t-113 -270q-113 -111 -273 -111q-161 0 -270 109t-109 268zM706 368q0 121 -81 204q-81 82 -198 82q-116 0 -197 -83t-81 -203q0 -119 80 -202
q79 -81 198 -81q118 0 198 81q81 81 81 202zM239 1031q13 46 44.5 71t73.5 25q33 0 76 -22q44 -22 64 -22q37 0 58 45l60 -28q-12 -46 -43 -71t-73 -25q-32 0 -75 22q-44 23 -63 23q-37 0 -60 -47z" />
    <glyph glyph-name="uni1ED7" unicode="&#x1ed7;" 
d="M150 625l140 164h69l140 -164h-103l-72 90l-72 -90h-102zM323 -13q-124 0 -203 81q-79 82 -79 201t79 199q79 82 203 82q122 0 201 -82q80 -83 80 -199q0 -118 -80 -201q-80 -81 -201 -81zM508 269q0 79 -54 135q-54 57 -131 57t-131 -57q-54 -56 -54 -135q0 -80 54 -137
t131 -57t131 57t54 137zM135 856q13 46 44.5 71t73.5 25q33 0 76 -22t63 -22q37 0 58 45l60 -28q-12 -46 -43 -71t-73 -25q-32 0 -75 22q-44 23 -63 23q-36 0 -59 -47z" />
    <glyph glyph-name="uni1ED8" unicode="&#x1ed8;" horiz-adv-x="855" 
d="M428 -201q-30 0 -50 19.5t-20 49.5q0 29 20 48t50 19q28 0 48 -19.5t20 -47.5q0 -30 -20 -49.5t-48 -19.5zM252 792l141 165h69l141 -165h-104l-72 91l-72 -91h-103zM45 365q0 162 112 274q113 113 270 113t270 -113t113 -270t-113 -270q-113 -111 -273 -111
q-161 0 -270 109t-109 268zM706 368q0 121 -81 204q-81 82 -198 82q-116 0 -197 -83t-81 -203q0 -119 80 -202q79 -81 198 -81q118 0 198 81q81 81 81 202z" />
    <glyph glyph-name="uni1ED9" unicode="&#x1ed9;" 
d="M323 -201q-30 0 -50 19.5t-20 49.5q0 29 20 48t50 19q28 0 48 -19.5t20 -47.5q0 -30 -20 -49.5t-48 -19.5zM150 625l140 164h69l140 -164h-103l-72 90l-72 -90h-102zM323 -13q-124 0 -203 81q-79 82 -79 201t79 199q79 82 203 82q122 0 201 -82q80 -83 80 -199
q0 -118 -80 -201q-80 -81 -201 -81zM508 269q0 79 -54 135q-54 57 -131 57t-131 -57q-54 -56 -54 -135q0 -80 54 -137t131 -57t131 57t54 137z" />
    <glyph glyph-name="uni1EDA" unicode="&#x1eda;" horiz-adv-x="855" 
d="M45 365q0 162 112 274q113 113 270 113t270 -113t113 -270t-113 -270q-113 -111 -273 -111q-161 0 -270 109t-109 268zM706 368q0 121 -81 204q-81 82 -198 82q-116 0 -197 -83t-81 -203q0 -119 80 -202q79 -81 198 -81q118 0 198 81q81 81 81 202zM573 719q35 0 54 10
t19 30q0 11 -20 61l73 25q28 -44 28 -89q0 -54 -38 -87t-116 -33v83zM382 793l59 168h118l-93 -168h-84z" />
    <glyph glyph-name="uni1EDB" unicode="&#x1edb;" 
d="M323 -13q-124 0 -203 81q-79 82 -79 201t79 199q79 82 203 82q122 0 201 -82q80 -83 80 -199q0 -118 -80 -201q-80 -81 -201 -81zM508 269q0 79 -54 135q-54 57 -131 57t-131 -57q-54 -56 -54 -135q0 -80 54 -137t131 -57t131 57t54 137zM427 525q35 0 54 10t19 30
q0 11 -20 61l73 25q28 -44 28 -89q0 -54 -38 -87t-116 -33v83zM272 623l59 167h117l-93 -167h-83z" />
    <glyph glyph-name="uni1EDC" unicode="&#x1edc;" horiz-adv-x="855" 
d="M45 365q0 162 112 274q113 113 270 113t270 -113t113 -270t-113 -270q-113 -111 -273 -111q-161 0 -270 109t-109 268zM706 368q0 121 -81 204q-81 82 -198 82q-116 0 -197 -83t-81 -203q0 -119 80 -202q79 -81 198 -81q118 0 198 81q81 81 81 202zM573 719q35 0 54 10
t19 30q0 11 -20 61l73 25q28 -44 28 -89q0 -54 -38 -87t-116 -33v83zM485 794h-84l-94 168h118z" />
    <glyph glyph-name="uni1EDD" unicode="&#x1edd;" 
d="M323 -13q-124 0 -203 81q-79 82 -79 201t79 199q79 82 203 82q122 0 201 -82q80 -83 80 -199q0 -118 -80 -201q-80 -81 -201 -81zM508 269q0 79 -54 135q-54 57 -131 57t-131 -57q-54 -56 -54 -135q0 -80 54 -137t131 -57t131 57t54 137zM427 525q35 0 54 10t19 30
q0 11 -20 61l73 25q28 -44 28 -89q0 -54 -38 -87t-116 -33v83zM368 623h-83l-93 167h117z" />
    <glyph glyph-name="uni1EDE" unicode="&#x1ede;" horiz-adv-x="855" 
d="M45 365q0 162 112 274q113 113 270 113t270 -113t113 -270t-113 -270q-113 -111 -273 -111q-161 0 -270 109t-109 268zM706 368q0 121 -81 204q-81 82 -198 82q-116 0 -197 -83t-81 -203q0 -119 80 -202q79 -81 198 -81q118 0 198 81q81 81 81 202zM573 719q35 0 54 10
t19 30q0 11 -20 61l73 25q28 -44 28 -89q0 -54 -38 -87t-116 -33v83zM398 790v10.5t3 18.5t10 23t21 24q14 11 25 23.5t11 26.5q0 15 -11.5 24t-27.5 9q-23 0 -64 -46l-48 47q26 31 55 48.5t57 17.5q21 0 40.5 -7t34.5 -20t24 -31.5t9 -41.5t-13 -44.5t-39 -45.5
q-5 -5 -9 -7t-7 -5t-4.5 -8.5t-1.5 -15.5h-65z" />
    <glyph glyph-name="uni1EDF" unicode="&#x1edf;" 
d="M323 -13q-124 0 -203 81q-79 82 -79 201t79 199q79 82 203 82q122 0 201 -82q80 -83 80 -199q0 -118 -80 -201q-80 -81 -201 -81zM508 269q0 79 -54 135q-54 57 -131 57t-131 -57q-54 -56 -54 -135q0 -80 54 -137t131 -57t131 57t54 137zM427 525q35 0 54 10t19 30
q0 11 -20 61l73 25q28 -44 28 -89q0 -54 -38 -87t-116 -33v83zM293 621v10.5t3 18.5t10 23t21 24q14 11 25 23.5t11 26.5q0 15 -11.5 24t-27.5 9q-23 0 -64 -46l-48 47q26 31 55 48.5t57 17.5q21 0 40.5 -7t34.5 -20t24 -31.5t9 -41.5t-13 -44.5t-39 -45.5q-5 -5 -9 -7
t-7 -5t-4.5 -8.5t-1.5 -15.5h-65z" />
    <glyph glyph-name="uni1EE0" unicode="&#x1ee0;" horiz-adv-x="855" 
d="M45 365q0 162 112 274q113 113 270 113t270 -113t113 -270t-113 -270q-113 -111 -273 -111q-161 0 -270 109t-109 268zM706 368q0 121 -81 204q-81 82 -198 82q-116 0 -197 -83t-81 -203q0 -119 80 -202q79 -81 198 -81q118 0 198 81q81 81 81 202zM573 719q35 0 54 10
t19 30q0 11 -20 61l73 25q28 -44 28 -89q0 -54 -38 -87t-116 -33v83zM244 829q13 46 44.5 71t73.5 25q33 0 76 -22q44 -22 64 -22q37 0 58 45l60 -28q-12 -46 -43 -71t-73 -25q-32 0 -75 22q-44 23 -63 23q-37 0 -60 -47z" />
    <glyph glyph-name="uni1EE1" unicode="&#x1ee1;" 
d="M323 -13q-124 0 -203 81q-79 82 -79 201t79 199q79 82 203 82q122 0 201 -82q80 -83 80 -199q0 -118 -80 -201q-80 -81 -201 -81zM508 269q0 79 -54 135q-54 57 -131 57t-131 -57q-54 -56 -54 -135q0 -80 54 -137t131 -57t131 57t54 137zM427 525q35 0 54 10t19 30
q0 11 -20 61l73 25q28 -44 28 -89q0 -54 -38 -87t-116 -33v83zM136 658q13 46 44.5 71t73.5 25q33 0 76 -22t63 -22q37 0 58 45l60 -28q-12 -46 -43 -71t-73 -25q-32 0 -75 22q-44 23 -63 23q-36 0 -59 -47z" />
    <glyph glyph-name="uni1EE2" unicode="&#x1ee2;" horiz-adv-x="855" 
d="M45 365q0 162 112 274q113 113 270 113t270 -113t113 -270t-113 -270q-113 -111 -273 -111q-161 0 -270 109t-109 268zM706 368q0 121 -81 204q-81 82 -198 82q-116 0 -197 -83t-81 -203q0 -119 80 -202q79 -81 198 -81q118 0 198 81q81 81 81 202zM573 719q35 0 54 10
t19 30q0 11 -20 61l73 25q28 -44 28 -89q0 -54 -38 -87t-116 -33v83zM428 -201q-30 0 -50 19.5t-20 49.5q0 29 20 48t50 19q28 0 48 -19.5t20 -47.5q0 -30 -20 -49.5t-48 -19.5z" />
    <glyph glyph-name="uni1EE3" unicode="&#x1ee3;" 
d="M323 -13q-124 0 -203 81q-79 82 -79 201t79 199q79 82 203 82q122 0 201 -82q80 -83 80 -199q0 -118 -80 -201q-80 -81 -201 -81zM508 269q0 79 -54 135q-54 57 -131 57t-131 -57q-54 -56 -54 -135q0 -80 54 -137t131 -57t131 57t54 137zM427 525q35 0 54 10t19 30
q0 11 -20 61l73 25q28 -44 28 -89q0 -54 -38 -87t-116 -33v83zM323 -201q-30 0 -50 19.5t-20 49.5q0 29 20 48t50 19q28 0 48 -19.5t20 -47.5q0 -30 -20 -49.5t-48 -19.5z" />
    <glyph glyph-name="uni1EE4" unicode="&#x1ee4;" horiz-adv-x="706" 
d="M85 739h100v-472q0 -88 43.5 -135t124.5 -47q79 0 123 47.5t44 134.5v472h101v-490q0 -121 -74 -192q-73 -70 -194 -70t-194 70q-74 71 -74 192v490zM354 -201q-30 0 -50 19.5t-20 49.5q0 29 20 48t50 19q28 0 48 -19.5t20 -47.5q0 -30 -20 -49.5t-48 -19.5z" />
    <glyph glyph-name="uni1EE5" unicode="&#x1ee5;" horiz-adv-x="595" 
d="M297 -13q-53 0 -95.5 16t-72.5 46t-46 72t-16 95v320h96v-317q0 -66 35.5 -104.5t98.5 -38.5q64 0 99.5 38.5t35.5 104.5v317h95v-320q0 -108 -61 -168.5t-169 -60.5zM298 -201q-30 0 -50 19.5t-20 49.5q0 29 20 48t50 19q28 0 48 -19.5t20 -47.5q0 -30 -20 -49.5
t-48 -19.5z" />
    <glyph glyph-name="uni1EE6" unicode="&#x1ee6;" horiz-adv-x="706" 
d="M85 739h100v-472q0 -88 43.5 -135t124.5 -47q79 0 123 47.5t44 134.5v472h101v-490q0 -121 -74 -192q-73 -70 -194 -70t-194 70q-74 71 -74 192v490zM324 790v10.5t3 18.5t10 23t21 24q14 11 25 23.5t11 26.5q0 15 -11.5 24t-27.5 9q-23 0 -64 -46l-48 47q26 31 55 48.5
t57 17.5q21 0 40.5 -7t34.5 -20t24 -31.5t9 -41.5t-13 -44.5t-39 -45.5q-5 -5 -9 -7t-7 -5t-4.5 -8.5t-1.5 -15.5h-65z" />
    <glyph glyph-name="uni1EE7" unicode="&#x1ee7;" horiz-adv-x="595" 
d="M297 -13q-53 0 -95.5 16t-72.5 46t-46 72t-16 95v320h96v-317q0 -66 35.5 -104.5t98.5 -38.5q64 0 99.5 38.5t35.5 104.5v317h95v-320q0 -108 -61 -168.5t-169 -60.5zM268 621v10.5t3 18.5t10 23t21 24q14 11 25 23.5t11 26.5q0 15 -11.5 24t-27.5 9q-23 0 -64 -46
l-48 47q26 31 55 48.5t57 17.5q21 0 40.5 -7t34.5 -20t24 -31.5t9 -41.5t-13 -44.5t-39 -45.5q-5 -5 -9 -7t-7 -5t-4.5 -8.5t-1.5 -15.5h-65z" />
    <glyph glyph-name="uni1EE8" unicode="&#x1ee8;" horiz-adv-x="706" 
d="M85 739h100v-472q0 -88 43.5 -135t124.5 -47q79 0 123 47.5t44 134.5v472h101v-490q0 -121 -74 -192q-73 -70 -194 -70t-194 70q-74 71 -74 192v490zM545 739q35 0 54 10t19 30q0 11 -20 61l73 25q28 -44 28 -89q0 -54 -38 -87t-116 -33v83zM307 793l59 168h118l-93 -168
h-84z" />
    <glyph glyph-name="uni1EE9" unicode="&#x1ee9;" horiz-adv-x="595" 
d="M297 -13q-53 0 -95.5 16t-72.5 46t-46 72t-16 95v320h96v-317q0 -66 35.5 -104.5t98.5 -38.5q64 0 99.5 38.5t35.5 104.5v317h95v-320q0 -108 -61 -168.5t-169 -60.5zM453 534q35 0 54 10t19 30q0 11 -20 61l73 25q28 -44 28 -89q0 -54 -38 -87t-116 -33v83zM252 623
l59 167h117l-93 -167h-83z" />
    <glyph glyph-name="uni1EEA" unicode="&#x1eea;" horiz-adv-x="706" 
d="M85 739h100v-472q0 -88 43.5 -135t124.5 -47q79 0 123 47.5t44 134.5v472h101v-490q0 -121 -74 -192q-73 -70 -194 -70t-194 70q-74 71 -74 192v490zM545 739q35 0 54 10t19 30q0 11 -20 61l73 25q28 -44 28 -89q0 -54 -38 -87t-116 -33v83zM404 794h-84l-94 168h118z
" />
    <glyph glyph-name="uni1EEB" unicode="&#x1eeb;" horiz-adv-x="595" 
d="M297 -13q-53 0 -95.5 16t-72.5 46t-46 72t-16 95v320h96v-317q0 -66 35.5 -104.5t98.5 -38.5q64 0 99.5 38.5t35.5 104.5v317h95v-320q0 -108 -61 -168.5t-169 -60.5zM453 534q35 0 54 10t19 30q0 11 -20 61l73 25q28 -44 28 -89q0 -54 -38 -87t-116 -33v83zM350 623h-83
l-93 167h117z" />
    <glyph glyph-name="uni1EEC" unicode="&#x1eec;" horiz-adv-x="706" 
d="M85 739h100v-472q0 -88 43.5 -135t124.5 -47q79 0 123 47.5t44 134.5v472h101v-490q0 -121 -74 -192q-73 -70 -194 -70t-194 70q-74 71 -74 192v490zM545 739q35 0 54 10t19 30q0 11 -20 61l73 25q28 -44 28 -89q0 -54 -38 -87t-116 -33v83zM324 748v10.5t3 18.5t10 23
t21 24q14 11 25 23.5t11 26.5q0 15 -11.5 24t-27.5 9q-23 0 -64 -46l-48 47q26 31 55 48.5t57 17.5q21 0 40.5 -7t34.5 -20t24 -31.5t9 -41.5t-13 -44.5t-39 -45.5q-5 -5 -9 -7t-7 -5t-4.5 -8.5t-1.5 -15.5h-65z" />
    <glyph glyph-name="uni1EED" unicode="&#x1eed;" horiz-adv-x="595" 
d="M297 -13q-53 0 -95.5 16t-72.5 46t-46 72t-16 95v320h96v-317q0 -66 35.5 -104.5t98.5 -38.5q64 0 99.5 38.5t35.5 104.5v317h95v-320q0 -108 -61 -168.5t-169 -60.5zM453 534q35 0 54 10t19 30q0 11 -20 61l73 25q28 -44 28 -89q0 -54 -38 -87t-116 -33v83zM268 621
v10.5t3 18.5t10 23t21 24q14 11 25 23.5t11 26.5q0 15 -11.5 24t-27.5 9q-23 0 -64 -46l-48 47q26 31 55 48.5t57 17.5q21 0 40.5 -7t34.5 -20t24 -31.5t9 -41.5t-13 -44.5t-39 -45.5q-5 -5 -9 -7t-7 -5t-4.5 -8.5t-1.5 -15.5h-65z" />
    <glyph glyph-name="uni1EEE" unicode="&#x1eee;" horiz-adv-x="706" 
d="M85 739h100v-472q0 -88 43.5 -135t124.5 -47q79 0 123 47.5t44 134.5v472h101v-490q0 -121 -74 -192q-73 -70 -194 -70t-194 70q-74 71 -74 192v490zM545 739q35 0 54 10t19 30q0 11 -20 61l73 25q28 -44 28 -89q0 -54 -38 -87t-116 -33v83zM168 829q13 46 44.5 71
t73.5 25q33 0 76 -22q44 -22 64 -22q37 0 58 45l60 -28q-12 -46 -43 -71t-73 -25q-32 0 -75 22q-44 23 -63 23q-37 0 -60 -47z" />
    <glyph glyph-name="uni1EEF" unicode="&#x1eef;" horiz-adv-x="595" 
d="M297 -13q-53 0 -95.5 16t-72.5 46t-46 72t-16 95v320h96v-317q0 -66 35.5 -104.5t98.5 -38.5q64 0 99.5 38.5t35.5 104.5v317h95v-320q0 -108 -61 -168.5t-169 -60.5zM453 534q35 0 54 10t19 30q0 11 -20 61l73 25q28 -44 28 -89q0 -54 -38 -87t-116 -33v83zM111 654
q13 46 44.5 71t73.5 25q33 0 76 -22t63 -22q37 0 58 45l60 -28q-12 -46 -43 -71t-73 -25q-32 0 -75 22q-44 23 -63 23q-36 0 -59 -47z" />
    <glyph glyph-name="uni1EF0" unicode="&#x1ef0;" horiz-adv-x="706" 
d="M85 739h100v-472q0 -88 43.5 -135t124.5 -47q79 0 123 47.5t44 134.5v472h101v-490q0 -121 -74 -192q-73 -70 -194 -70t-194 70q-74 71 -74 192v490zM545 739q35 0 54 10t19 30q0 11 -20 61l73 25q28 -44 28 -89q0 -54 -38 -87t-116 -33v83zM354 -201q-30 0 -50 19.5
t-20 49.5q0 29 20 48t50 19q28 0 48 -19.5t20 -47.5q0 -30 -20 -49.5t-48 -19.5z" />
    <glyph glyph-name="uni1EF1" unicode="&#x1ef1;" horiz-adv-x="595" 
d="M297 -13q-53 0 -95.5 16t-72.5 46t-46 72t-16 95v320h96v-317q0 -66 35.5 -104.5t98.5 -38.5q64 0 99.5 38.5t35.5 104.5v317h95v-320q0 -108 -61 -168.5t-169 -60.5zM453 534q35 0 54 10t19 30q0 11 -20 61l73 25q28 -44 28 -89q0 -54 -38 -87t-116 -33v83zM298 -201
q-30 0 -50 19.5t-20 49.5q0 29 20 48t50 19q28 0 48 -19.5t20 -47.5q0 -30 -20 -49.5t-48 -19.5z" />
    <glyph glyph-name="Ygrave" unicode="&#x1ef2;" horiz-adv-x="639" 
d="M372 793h-84l-94 168h118zM622 739l-253 -473v-266h-100v266l-250 473h111l189 -374l192 374h111z" />
    <glyph glyph-name="ygrave" unicode="&#x1ef3;" horiz-adv-x="555" 
d="M338 623h-83l-93 167h117zM434 536h106l-225 -596q-34 -90 -78.5 -129t-107.5 -39q-52 0 -86 21l12 84q36 -16 65 -16q66 0 106 94l20 47l-233 534h111l166 -402z" />
    <glyph glyph-name="uni1EF4" unicode="&#x1ef4;" horiz-adv-x="639" 
d="M622 739l-253 -473v-266h-100v266l-250 473h111l189 -374l192 374h111zM320 -201q-30 0 -50 19.5t-20 49.5q0 29 20 48t50 19q28 0 48 -19.5t20 -47.5q0 -30 -20 -49.5t-48 -19.5z" />
    <glyph glyph-name="uni1EF5" unicode="&#x1ef5;" horiz-adv-x="555" 
d="M434 536h106l-225 -596q-34 -90 -78.5 -129t-107.5 -39q-52 0 -86 21l12 84q36 -16 65 -16q66 0 106 94l20 47l-233 534h111l166 -402zM426 -201q-30 0 -50 19.5t-20 49.5q0 29 20 48t50 19q28 0 48 -19.5t20 -47.5q0 -30 -20 -49.5t-48 -19.5z" />
    <glyph glyph-name="uni1EF6" unicode="&#x1ef6;" horiz-adv-x="639" 
d="M622 739l-253 -473v-266h-100v266l-250 473h111l189 -374l192 374h111zM290 790v10.5t3 18.5t10 23t21 24q14 11 25 23.5t11 26.5q0 15 -11.5 24t-27.5 9q-23 0 -64 -46l-48 47q26 31 55 48.5t57 17.5q21 0 40.5 -7t34.5 -20t24 -31.5t9 -41.5t-13 -44.5t-39 -45.5
q-5 -5 -9 -7t-7 -5t-4.5 -8.5t-1.5 -15.5h-65z" />
    <glyph glyph-name="uni1EF7" unicode="&#x1ef7;" horiz-adv-x="555" 
d="M434 536h106l-225 -596q-34 -90 -78.5 -129t-107.5 -39q-52 0 -86 21l12 84q36 -16 65 -16q66 0 106 94l20 47l-233 534h111l166 -402zM248 621v10.5t3 18.5t10 23t21 24q14 11 25 23.5t11 26.5q0 15 -11.5 24t-27.5 9q-23 0 -64 -46l-48 47q26 31 55 48.5t57 17.5
q21 0 40.5 -7t34.5 -20t24 -31.5t9 -41.5t-13 -44.5t-39 -45.5q-5 -5 -9 -7t-7 -5t-4.5 -8.5t-1.5 -15.5h-65z" />
    <glyph glyph-name="uni1EF8" unicode="&#x1ef8;" horiz-adv-x="639" 
d="M622 739l-253 -473v-266h-100v266l-250 473h111l189 -374l192 374h111zM131 831q13 46 44.5 71t73.5 25q33 0 76 -22q44 -22 64 -22q37 0 58 45l60 -28q-12 -46 -43 -71t-73 -25q-32 0 -75 22q-44 23 -63 23q-37 0 -60 -47z" />
    <glyph glyph-name="uni1EF9" unicode="&#x1ef9;" horiz-adv-x="555" 
d="M434 536h106l-225 -596q-34 -90 -78.5 -129t-107.5 -39q-52 0 -86 21l12 84q36 -16 65 -16q66 0 106 94l20 47l-233 534h111l166 -402zM90 662q13 46 44.5 71t73.5 25q33 0 76 -22t63 -22q37 0 58 45l60 -28q-12 -46 -43 -71t-73 -25q-32 0 -75 22q-44 23 -63 23
q-36 0 -59 -47z" />
    <glyph glyph-name="uni1EFA" unicode="&#x1efa;" horiz-adv-x="976" 
d="M233 567q-21 0 -54 -3.5t-64 -12.5t-52 -22.5t-21 -36.5q-17 22 -17 42q0 23 18 41t46 30.5t62 19t66 6.5q16 0 35 -1.5t33 -8.5t21.5 -20t7.5 -31q0 -2 -0.5 -10t-4.5 -9q-19 7 -34.5 11.5t-41.5 4.5zM959 657q15 -20 15 -35q0 -19 -17 -31.5t-46 -21t-60.5 -11
t-59.5 -2.5q-8 0 -17.5 0.5t-17.5 0.5q-3 -5 -5.5 -9t-3.5 -8q-3 -5 -8 -17t-10.5 -28.5t-10 -33.5t-4.5 -29t4.5 -19.5t15.5 -7.5q14 0 38 10q-3 -12 -9 -26t-14.5 -26t-20.5 -18t-28 -6q-26 0 -37 17.5t-11 43.5q0 22 5 46q-9 -13 -21 -20.5t-28 -7.5q-24 0 -34.5 9.5
t-10.5 25.5q0 22 11.5 44.5t20.5 44.5q-11 0 -25 -12.5t-25 -32t-20.5 -40.5t-12.5 -39q-7 0 -14.5 1t-15.5 4t-13.5 8.5t-5.5 12.5q0 11 7.5 30t20.5 43q-7 -2 -12.5 -3.5t-8.5 -2.5q-9 -19 -20.5 -36.5t-27 -30t-33 -21t-38.5 -8.5q-22 0 -40.5 15.5t-18.5 40.5
q0 27 10.5 46.5t26.5 32.5q0 1 -0.5 3t-0.5 3q0 13 6.5 27t18.5 24.5t30 17t42 6.5q23 0 40.5 -13.5t17.5 -44.5v-9t-2 -8q19 4 34 13q8 19 14.5 34t8.5 27q14 -1 30 -9.5t16 -22.5q0 -6 -2 -11t-5 -13q20 17 36 30.5t40 13.5q10 0 16.5 -6t6.5 -20q0 -13 -6.5 -26.5
t-16 -28.5t-16.5 -29t-7 -25q0 -8 8 -8q6 0 14.5 2.5t16.5 8.5q7 26 16 49t19 39q-16 10 -16 27q0 8 5 17q11 -6 27 -9q7 15 14.5 31.5t14.5 31.5t10 27t3 21v3h9q19 0 34.5 -9.5t15.5 -23.5q0 -3 -13.5 -31t-30.5 -56q24 0 50 3t49 9.5t44 17t39 24.5zM365 470
q9 0 20.5 10.5t17.5 23.5q-23 0 -45 11q-7 -17 -7 -29q0 -8 3.5 -12t10.5 -4zM418 537q5 9 5 20t-8.5 18t-16.5 7q-10 0 -17 -7t-7 -14q0 -11 11.5 -17.5t26.5 -6.5h6zM212 276q0 -15 18.5 -22.5t41 -14.5t41 -19t18.5 -35q0 -17 -13.5 -35.5t-36 -32.5t-53.5 -21.5
t-61 -7.5q-14 0 -32 1t-32.5 7.5t-27 18.5t-12.5 31q0 14 9 29t22 22q13 -26 38.5 -36.5t54.5 -10.5q27 0 49.5 7.5t22.5 17.5q0 8 -11 11.5t-25.5 4t-31 3.5t-31 9.5t-24.5 17.5t-10 29q0 35 22.5 62t53 47t66.5 32t63 12q25 0 38.5 -9t13.5 -27q0 -12 -5.5 -24
t-12.5 -24.5t-14 -22.5t-7 -20q-42 0 -42 43v9.5t2 11.5q-14 -3 -29.5 -9.5t-29.5 -14.5t-23.5 -18.5t-9.5 -21.5zM848 388q34 0 34 -27q0 -14 -11 -30h-12q-45 0 -71.5 -11t-44.5 -27.5t-30.5 -36.5t-22.5 -39q-6 -20 -16 -40q-7 -17 -16 -38.5t-16 -44.5q-8 0 -16 1
t-15.5 4.5t-13 9t-5.5 17.5q0 7 8.5 26t17.5 43q-6 -4 -10.5 -4.5t-10.5 -3.5q-7 -19 -19 -36t-27 -30t-33.5 -20.5t-39.5 -7.5q-22 0 -39 15t-17 41q0 24 10 44.5t24 32.5v7q0 11 3 18q-13 0 -27 -1q-5 -7 -12.5 -26t-15 -42.5t-14.5 -47t-8 -40.5q-3 -26 21 -26q13 0 37 9
q-2 -14 -8 -26.5t-15.5 -24t-21.5 -19t-26 -7.5q-27 0 -38.5 18t-11.5 43q0 27 5 52t13.5 50.5t18 47.5t16.5 39q-7 4 -10.5 11.5t-3.5 16.5q0 11 4 15q7 0 15.5 1t15.5 4q27 49 40 92q15 0 31.5 -10.5t16.5 -27.5q0 -11 -10 -23.5t-14 -26.5h7q19 0 26 -10q24 17 62 17
q23 0 41 -14t18 -47v-8v-8q7 1 13.5 5t14.5 9q9 20 14 38t5 29q0 6 -1 9q13 -3 23 -6q8 -3 16 -10.5t9 -18.5q29 46 67.5 73.5t75.5 27.5zM491 147q9 0 20.5 10t21.5 24q-28 2 -47 10q-2 -8 -5 -14t-3 -13q0 -17 13 -17zM547 214q3 11 3 19q0 11 -8 19t-14 8q-12 0 -19.5 -8
t-7.5 -15q0 -11 11 -17t27 -6h8zM790 202q11 0 19.5 10.5t8.5 19.5q0 12 -11 12q-6 0 -16 -6.5t-19 -18t-16.5 -27t-7.5 -27.5q0 -10 7 -17t20 -7q9 0 21 4.5t23 8.5t20 11t15 12q-5 -19 -14.5 -34.5t-25 -27t-34.5 -17t-38 -5.5q-26 0 -42 12t-16 39q0 24 13 51.5t32 51.5
t44 40.5t48 16.5q26 0 38 -12.5t12 -31.5q0 -24 -8.5 -41t-21.5 -30t-28 -19t-28 -6q-10 0 -16 4.5t-6 14.5q0 8 6 16.5t7 8.5q8 -6 14 -6zM88 271q-19 -4 -33 5t-26 21t-19.5 27t-9.5 23q20 -10 31 -12t24 2q10 2 18.5 16t15 34.5t11 44t7 45t4.5 37t2 20.5q0 1 3 1
q13 5 27.5 7t27.5 2q6 0 11 -3.5t5 -12.5q0 -14 -10 -37q14 0 23.5 1t31.5 1q23 0 38 -14t15 -36v-8t-4 -9q-10 5 -21 5.5t-23 0.5q-6 0 -20 -0.5t-28 -4.5t-25 -10.5t-12 -13.5q-2 -6 -7 -25.5t-12.5 -42t-19 -42.5t-25.5 -22z" />
    <glyph glyph-name="uni1EFB" unicode="&#x1efb;" horiz-adv-x="2546" 
d="M1134 125q0 -9 -0.5 -11.5t-5.5 -9.5q-2 -5 -5.5 -5.5t-7.5 -0.5q-87 -21 -166 -21h-31h-65t-58 2q-44 5 -79.5 12.5t-72.5 12.5q-33 7 -71 15t-74 14q-32 9 -62.5 16t-65.5 12q-32 8 -61.5 11t-58.5 5h-22q-50 0 -93 -6q-27 -8 -51.5 -18.5t-49.5 -24.5q-3 -3 -15 -3
q-2 0 -5.5 1.5t-8.5 3.5q0 2 -2 8.5t-2 8.5q0 3 2 7l2 4l2 3q0 3 4 5.5t15 15.5q11 12 22 26t24 26q12 29 27 37l2 8q1 0 2 1q2 2 2 4q11 19 17 40t8.5 41.5t3 38.5t0.5 30q0 7 -3 12t-5 13q0 6 -3 12t-7 11q-6 8 -13 19t-17 21q-9 8 -18 15.5t-16 16.5q-8 6 -18 12.5
t-15 8.5q-5 7 -6 11t-1 12q0 11 14 19q22 11 46.5 16t53.5 11h73h44q29 0 60.5 -4.5t64.5 -8.5q26 -7 60 -11.5t68 -12.5q47 -12 99 -19.5t106 -19.5q51 -6 107.5 -11.5t116.5 -14.5h56q24 0 41.5 0.5t36.5 5.5q38 5 68 9.5t55 10.5q27 5 46.5 13.5t36.5 16.5q18 10 30 18.5
t17 19.5q7 9 7 18q0 8 -0.5 10t-2.5 4q0 4 -4 5t-10 4h-13q-3 0 -11.5 -2t-18.5 -2q-35 -13 -52 -25l-20 -10t-18 -7q-12 -19 -20 -24q0 -2 -1 -3t-2 -3t-2 -3q-2 -5 -7 -9.5t-12 -4.5q-8 0 -13 -1t-12 -8h-5q-2 0 -4 1q-4 2 -4 8q-1 0 0 2q1 3 8 12q0 13 14 30q8 6 17.5 13
t17.5 21q9 8 19.5 16t24.5 14q11 7 26 11.5t29 8.5q10 3 15 6.5t10 3.5h21h13h10q8 0 14 -5t12 -5q4 -7 8.5 -9t6.5 -4q8 -11 10.5 -22.5t2.5 -22.5q-2 -14 -5.5 -23.5t-9.5 -13.5q-17 -32 -57.5 -55.5t-99.5 -37.5q-29 -10 -59.5 -12.5t-65.5 -2.5q-22 -5 -43 -5.5
t-45 -0.5h-62q-62 5 -119 8t-108 13q-54 9 -105.5 20.5t-97.5 17.5q-53 10 -102 19t-93 17q-25 0 -48 3t-43 3t-39.5 -0.5t-37.5 -5.5q-8 0 -10.5 -4t-7.5 -7v-15q5 -8 5.5 -10.5t2.5 -7.5q4 0 7 -3.5t3 -8.5q18 -23 30 -43t17 -40v-6q0 -4 1.5 -7t1.5 -5v-7q1 -12 1.5 -31
t-1 -40t-6.5 -42t-14 -37v-5q-2 -8 -2.5 -17t5.5 -17t20 -14.5t40 -7.5h4h20q32 -2 64 -4.5t67 -10.5q34 -5 68.5 -13.5t69.5 -17.5q32 -9 65.5 -15.5t68.5 -14.5q35 -6 71.5 -11.5t77.5 -7.5q26 -2 55.5 -5.5t59.5 -3.5h34q38 0 78.5 6t82.5 14q1 0 3 3q0 1 1 3
q5 0 6.5 -3.5t9.5 -8.5q2 0 5.5 -3t3.5 -5zM2419 434q-3 -12 -8.5 -33.5t-10 -46t-4.5 -50.5t8 -48q4 -6 6 -8t2 -8q5 -10 13.5 -19.5t19.5 -19.5q10 -9 17 -18.5t15 -17.5q11 -8 19.5 -13t17.5 -7q5 -5 6 -10.5t1 -9.5q0 -9 -4 -14t-9 -7q-24 -9 -51 -17t-53 -8
q-17 -5 -35.5 -6t-38.5 -1h-42q-29 4 -59.5 6.5t-65.5 7.5q-31 9 -63.5 14.5t-66.5 12.5q-48 11 -99 18t-102 21q-55 7 -110.5 13.5t-116.5 9.5h-55q-23 0 -43.5 -0.5t-37.5 -3.5q-35 -5 -65 -8.5t-60 -10.5q-24 -5 -44 -13l-35 -14q-17 -9 -29.5 -19.5t-17.5 -21.5
q-8 -11 -8 -19v-13q2 -2 6.5 -2.5t13.5 -3.5h7q9 0 17 0.5t18 3.5q13 5 28 8.5t23 10.5q11 6 20.5 11.5t15.5 11.5q8 9 11.5 12.5t4.5 8.5q6 0 8 3q1 1 1 3q9 14 20 14l26 12h6h2q4 0 3.5 -7.5t-5.5 -18.5q-5 -5 -8.5 -11.5t-8.5 -15.5q-7 -10 -15.5 -16.5t-19.5 -15.5
q-16 -16 -41 -30q-11 -10 -27 -15.5t-31 -9.5q-8 -1 -13.5 -1h-10.5q-2 0 -7.5 -0.5t-10.5 -4.5h-6q-2 0 -3 0.5t-4 4.5h-12q-8 0 -14.5 1t-14.5 5q-1 5 -5.5 7t-8.5 8q-5 11 -8 20.5t-3 19.5q4 11 6 22.5t10 16.5q17 32 57.5 54t97.5 36q29 11 59 16t63 8q26 0 49.5 1.5
t46.5 1.5q17 0 29 -0.5t25 -2.5q61 0 120 -6.5t111 -17.5q52 -9 102.5 -17.5t102.5 -18.5q51 -10 100 -19.5t95 -13.5q23 -5 45 -8.5t42 -3.5t41 3t38 3q6 5 9.5 7.5t5.5 6.5v19q-2 2 -4.5 5t-2.5 8q-2 2 -2.5 3.5t-2.5 3.5l-3 3q-17 25 -29.5 42t-17.5 39
q-10 22 -12.5 45.5t0 45.5t8 41t11.5 31q0 8 0.5 9.5t4.5 5.5l4 9h6v2q4 19 4 30q0 4 -4 15q-8 0 -16 7h-18h-20h-8h-11h-18q-35 0 -66 6t-69 8q-32 8 -66.5 16t-69.5 15q-35 9 -68 15t-66 15q-37 9 -72.5 12.5t-73.5 6.5q-27 5 -58 6t-60 1h-33q-39 0 -80 -4.5t-80 -9.5h-4
h-18q0 2 -3 5.5t-3 8.5t0.5 8t3.5 11l6 3t11 2q40 11 81 15.5t79 6.5h40q29 0 60 -2t58 -6q42 -2 78 -6.5t75 -12.5q32 -8 67.5 -15t72.5 -18q33 -7 64.5 -12.5t64.5 -11.5q67 -18 118 -18h25q23 0 46 1.5t44 10.5q27 5 53 14t49 23q3 5 7 6t13 1q1 0 4 -1q2 -1 4.5 -2.5
t4.5 -3.5q0 -5 1.5 -7.5t1.5 -11.5q0 -3 -2 -7.5t-7 -4.5q0 -5 -5 -12t-14 -12q-6 -7 -9 -12t-10 -13q-5 -2 -12 -9.5t-12 -15.5q-11 -14 -17.5 -24.5t-13.5 -18.5l-4 -2q0 -2 -1 -4q-2 -3 -4 -3zM301 321h-7q-5 0 -15 -3.5t-10 -23.5v-2q0 -5 -4.5 -9t-9.5 -4
q-9 0 -10.5 4.5t-1.5 10.5v100q0 15 4 22t9 10q5 4 13 3h32q25 0 37.5 -17t12.5 -37t-12.5 -37t-37.5 -17zM295 396h-14q-4 -1 -6 -8q-1 -3 -1 -6v-4q0 -5 1 -9q2 -9 10 -12h10q10 0 15.5 6t5.5 13.5t-5.5 13.5t-15.5 6zM480 414v-120q0 -9 -5 -13t-10.5 -4t-10.5 4t-5 13
v14q0 9 -6.5 15t-23.5 11q-10 2 -15.5 -1.5t-7.5 -8.5q-3 -6 -3 -16q0 -4 2.5 -5.5t2.5 -8.5q0 -6 -5.5 -10.5t-13.5 -4.5q-7 0 -9 4.5t-2 10.5v120q0 7 4.5 11t10.5 4t10.5 -4t4.5 -11v-28q0 -6 12 -11t21 -10q11 0 14.5 8.5t5.5 20.5q0 5 -1 10.5t-1 9.5t7 9.5t12 5.5
t8.5 -5.5t3.5 -9.5zM646 351q-1 -14 -6 -27t-14.5 -22.5t-23.5 -14.5t-32 -3q-17 3 -29.5 11.5t-20 20t-10 24.5t-0.5 25q2 13 8 26.5t16.5 24t25.5 16t33 2.5q16 -2 27 -10t17 -20t8 -26t1 -27zM613 357q0 22 -9.5 31t-26.5 13q-11 0 -22 -10.5t-11 -28.5q0 -21 9.5 -31.5
t23.5 -10.5q17 0 26.5 8t9.5 29zM780 414v-120q0 -6 -1.5 -13.5t-12.5 -1.5q-5 0 -7 2.5t-8 4.5q-1 6 -2 8t-8 9v2q-8 13 -15 15.5t-12.5 -1t-9 -9t-3.5 -7.5v-9q0 -9 -4.5 -13t-10.5 -4t-11.5 4t-7.5 13v120q4 4 6 7t6 8q5 0 10.5 -1t11.5 -9q4 -8 8 -14t12 -11
q1 -3 6 -6.5t10 -4t9.5 3t4.5 14.5v13q0 7 4.5 11t10 4t10 -4t4.5 -11zM932 303q-10 -8 -22 -13.5t-23 -5.5q-20 0 -36 9t-26 24t-13.5 33t1.5 36q11 28 39 40.5t58 7.5q6 -4 10 -8q9 -11 5 -25q-4 -5 -15 -3q-5 1 -11 3h-31q-11 -5 -16.5 -16t-5.5 -23q0 -8 3.5 -18.5
t10.5 -15.5q6 -5 10.5 -7t8.5 -7h11h4q4 5 6 5.5l6 1.5h4v7v6q0 8 -8 12q-4 2 -8 2q-7 0 -7 6q-5 2 -4.5 7.5t7.5 10.5h4h7q0 5 0.5 5.5t4.5 0.5q8 0 17 -7t14.5 -17.5t5 -24t-10.5 -26.5zM1069 286q-9 -2 -15 -2h-11q-23 0 -41 13.5t-26 32.5t-5 40.5t21 38.5
q16 19 36.5 21.5t37.5 -1.5q8 -4 10 -11t0.5 -13.5t-7 -10t-12.5 -0.5h-1q-10 2 -19 1t-15 -9q-17 -16 -17 -33t14 -25q8 -6 17.5 -7t20.5 -1q2 0 2 1q10 3 15 -1t6.5 -10.5t-1.5 -13.5t-10 -10zM1223 414v-120q0 -9 -5.5 -13t-11.5 -4t-11.5 4t-5.5 13v14q0 9 -6 15t-22 11
q-10 2 -15 -1.5t-7 -8.5q-3 -6 -3 -16v-14q0 -6 -6.5 -10.5t-14.5 -4.5q-1 0 -5.5 4.5t-4.5 10.5v120q0 7 5 11t10.5 4t10.5 -4t5 -11v-28q0 -6 13.5 -11t19.5 -10q10 0 15 8.5t5 20.5v20q0 4 6.5 9.5t14.5 5.5q6 0 9.5 -5.5t3.5 -9.5zM1366 414v-36v-40q0 -13 -5.5 -23.5
t-16.5 -14.5q-14 -21 -34 -21q-33 0 -42 15q-7 7 -13 19t-6 25v40v36q0 7 5.5 11t10.5 4t12.5 -6t7.5 -14v-23v-45q0 -15 4 -21t16 -6q11 -5 18 2.5t7 21.5v44v27q0 8 4.5 11.5t9.5 8.5q7 0 14.5 -4t7.5 -11zM1505 409l-48 -117q0 -8 -14 -8q-4 0 -8.5 1.5t-4.5 6.5
q-6 21 -12.5 38t-13.5 35q-2 13 -6.5 23t-7.5 21q-2 7 1 13t8.5 8t11.5 -1t11 -13q0 -5 2 -10.5t2 -9.5q1 -5 6.5 -10t11.5 -6.5t11.5 1.5t7.5 15h6v5l2.5 7.5t0.5 5.5q4 11 12.5 15t10.5 0q8 0 9 -6t1 -14zM1553 414v-120q0 -6 -5 -10.5t-10 -4.5q-8 0 -12 4.5t-4 10.5v120
q0 7 7 11t14 4q10 0 10 -15zM1653 279h-48q-11 0 -18.5 7.5t-7.5 13.5v109q0 8 7.5 14t18.5 6h41q8 0 15 -4t7 -9t-3 -12.5t-12 -7.5h-9h-12h-8q-2 -1 -2.5 -2.5t-1.5 -3.5t-1 -4q0 -8 5 -8q3 -5 7 -5.5t13 -0.5q8 0 12 -5t4 -10.5t-4 -10.5t-12 -5h-10h-10q-4 -2 -4.5 -7
t-0.5 -6q0 -6 3 -7.5t6 -6.5q1 -2 3 -3q3 -3 7 -3h15q8 0 12 -4.5t4 -10t-4 -10t-12 -4.5zM1794 414q0 -4 -2 -11t-11 -7h-12q-6 0 -9.5 -5t-5 -11t-2 -11.5t-0.5 -6.5v-68q0 -6 -3 -10.5t-11 -4.5t-13.5 4.5t-5.5 10.5v71q0 22 -6 26.5t-12 4.5h-13q-4 0 -8.5 7.5
t-0.5 12.5q0 13 22 13h80q9 0 11 -5.5t2 -9.5zM1832 279q-7 0 -13 4.5t-6 10.5q0 8 6 14t13 6q5 0 10 -6t5 -14q0 -6 -5 -10.5t-10 -4.5zM1959 286q-9 -2 -15 -2h-11q-24 0 -41.5 13.5t-25.5 32.5t-4.5 40.5t21.5 38.5q12 19 34 21.5t42 -1.5q8 -4 10.5 -11t0.5 -13.5
t-8 -10t-15 -0.5h-4q-8 2 -15 1t-15 -9q-17 -16 -18 -33t12 -25q12 -6 21 -7t19 -1h6v1q8 3 13 -1t6 -10.5t-2 -13.5t-11 -10zM2135 351q-2 -14 -8 -27t-16.5 -22.5t-25 -14.5t-32.5 -3q-17 3 -29 11.5t-19 20t-9.5 24.5t-0.5 25q1 13 7.5 26.5t17 24t25 16t33.5 2.5
q16 -2 27.5 -10t18.5 -20t9.5 -26t1.5 -27zM2101 357q0 22 -11 31t-26 13q-13 0 -23.5 -10.5t-10.5 -28.5q0 -21 10.5 -31.5t23.5 -10.5t25 8t12 29zM2277 414v-120q0 -6 -1.5 -10.5t-12.5 -4.5q-5 0 -9 4.5t-4 10.5v27q-3 11 -6 14t-6 1.5t-5.5 -5t-4.5 -3.5q-4 -8 -4 -7
q-1 -1 0 -1q0 -5 -4 -8.5t-7 -3.5q-7 0 -9 3.5t-9 8.5v1q0 1 -0.5 2.5t-0.5 4.5q-2 0 -5.5 3t-7 3.5t-6 -3.5t-2.5 -17v-20q0 -9 -4.5 -13t-10.5 -4t-10.5 4t-4.5 13v120q0 11 11 13.5t19 -8.5q0 -3 4 -11q2 -4 4 -7q8 -11 18 -15q8 -4 18 -2t21 17q3 0 3.5 4t1.5 4q5 4 6 6
t1 4q2 6 6.5 7t9 -0.5t8 -5t3.5 -6.5z" />
    <glyph glyph-name="uni2009" unicode="&#x2009;" horiz-adv-x="78" 
 />
    <glyph glyph-name="endash" unicode="&#x2013;" horiz-adv-x="716" 
d="M66 232v90h584v-90h-584z" />
    <glyph glyph-name="emdash" unicode="&#x2014;" horiz-adv-x="1035" 
d="M66 232v90h903v-90h-903z" />
    <glyph glyph-name="quoteleft" unicode="&#x2018;" horiz-adv-x="236" 
d="M122 643q23 0 39 -17t16 -41q0 -26 -19 -44t-46 -18q-29 0 -49 21.5t-20 52.5q0 86 124 165l30 -43q-60 -48 -74 -67q-4 -6 -5 -9h4z" />
    <glyph glyph-name="quoteright" unicode="&#x2019;" horiz-adv-x="234" 
d="M130 759q30 0 49.5 -21t19.5 -53q0 -85 -124 -164l-30 43q64 47 79 75h-4q-23 0 -39 17t-16 41q0 26 19 44t46 18z" />
    <glyph glyph-name="quotesinglbase" unicode="&#x201a;" horiz-adv-x="242" 
d="M119 108q30 0 49.5 -21t19.5 -53q0 -85 -124 -164l-30 43q64 47 79 75h-4q-23 0 -39 17t-16 41q0 26 19 44t46 18z" />
    <glyph glyph-name="quotedblleft" unicode="&#x201c;" horiz-adv-x="476" 
d="M201 719q-60 -48 -74 -67q-4 -6 -5 -9h4q23 0 39 -17t16 -41q0 -26 -19 -44t-46 -18q-29 0 -49 21.5t-20 52.5q0 86 124 165zM362 643q23 0 39 -17t16 -41q0 -26 -19 -44t-46 -18q-29 0 -49 21.5t-20 52.5q0 86 124 165l30 -43q-60 -48 -74 -67q-4 -6 -5 -9h4z" />
    <glyph glyph-name="quotedblright" unicode="&#x201d;" horiz-adv-x="466" 
d="M127 763q29 0 49 -21.5t20 -52.5q0 -86 -124 -165l-30 43q60 48 74 67q4 6 5 9h-4q-23 0 -39 17t-16 41q0 26 19 44t46 18zM361 763q29 0 49 -21.5t20 -52.5q0 -86 -124 -165l-30 43q60 48 74 67q4 6 5 9h-4q-23 0 -39 17t-16 41q0 26 19 44t46 18z" />
    <glyph glyph-name="quotedblbase" unicode="&#x201e;" horiz-adv-x="471" 
d="M115 107q29 0 49 -21.5t20 -52.5q0 -86 -124 -165l-30 43q60 48 74 67q4 6 5 9h-4q-23 0 -39 17t-16 41q0 26 19 44t46 18zM349 107q29 0 49 -21.5t20 -52.5q0 -86 -124 -165l-30 43q60 48 74 67q4 6 5 9h-4q-23 0 -39 17t-16 41q0 26 19 44t46 18z" />
    <glyph glyph-name="dagger" unicode="&#x2020;" horiz-adv-x="481" 
d="M445 511v-83h-160v-606h-89v606h-160v83h160v338h89v-338h160z" />
    <glyph glyph-name="daggerdbl" unicode="&#x2021;" horiz-adv-x="481" 
d="M445 470h-160v-270h160v-83h-160v-295h-89v295h-160v83h160v270h-160v83h160v296h89v-296h160v-83z" />
    <glyph glyph-name="bullet" unicode="&#x2022;" horiz-adv-x="419" 
d="M209 207q-55 0 -95 39q-39 40 -39 95q0 56 39 95q40 40 95 40q56 0 95 -40q40 -39 40 -95q0 -55 -40 -95q-39 -39 -95 -39z" />
    <glyph glyph-name="ellipsis" unicode="&#x2026;" horiz-adv-x="698" 
d="M51 49q0 26 18.5 44t45.5 18t45.5 -18t18.5 -44q0 -28 -18.5 -46.5t-45.5 -18.5t-45.5 18.5t-18.5 46.5zM284 49q0 26 18.5 44t45.5 18t45.5 -18t18.5 -44q0 -28 -18.5 -46.5t-45.5 -18.5t-45.5 18.5t-18.5 46.5zM518 49q0 26 18.5 44t45.5 18t45.5 -18t18.5 -44
q0 -28 -18.5 -46.5t-45.5 -18.5t-45.5 18.5t-18.5 46.5z" />
    <glyph glyph-name="perthousand" unicode="&#x2030;" horiz-adv-x="1295" 
d="M354 441q-56 -53 -132 -53q-77 0 -133 53q-55 54 -55 129q0 76 55 128q55 54 133 54q76 0 132 -54q55 -52 55 -128q0 -75 -55 -129zM115 0l544 739h101l-545 -739h-100zM222 678q-48 0 -78.5 -31t-30.5 -77q0 -23 8.5 -43t23 -34.5t34.5 -23t43 -8.5t43 8.5t34.5 23
t23 34.5t8.5 43t-8.5 42.5t-23 34t-34.5 23t-43 8.5zM470 168q0 75 55 129t133 54q77 0 133 -54t56 -129q0 -74 -56 -127t-133 -53t-133 53q-55 52 -55 127zM894 168q0 76 55 128q55 54 133 54q77 0 133 -54q56 -53 56 -128q0 -74 -56 -127t-133 -53t-133 53q-55 52 -55 127
zM658 61q48 0 79 30.5t31 76.5q0 48 -31 79.5t-79 31.5q-23 0 -43 -8.5t-34.5 -23.5t-23 -35t-8.5 -44q0 -23 8.5 -42.5t23.5 -33.5t34.5 -22.5t42.5 -8.5zM1082 60q24 0 44 8.5t34.5 23t23 34t8.5 42.5q0 48 -31 79.5t-79 31.5q-23 0 -43 -8.5t-34.5 -23.5t-23 -35
t-8.5 -44q0 -23 8.5 -42.5t23.5 -34t34.5 -23t42.5 -8.5z" />
    <glyph glyph-name="guilsinglleft" unicode="&#x2039;" horiz-adv-x="331" 
d="M183 88l-142 203l142 203h95l-143 -203l143 -203h-95z" />
    <glyph glyph-name="guilsinglright" unicode="&#x203a;" horiz-adv-x="331" 
d="M148 88h-95l143 203l-143 203h95l142 -203z" />
    <glyph glyph-name="fraction" unicode="&#x2044;" horiz-adv-x="191" 
d="M-234 0l578 739h84l-576 -739h-86z" />
    <glyph glyph-name="uni2070" unicode="&#x2070;" horiz-adv-x="372" 
d="M307 560q-41 -59 -121 -59q-81 0 -122 59q-40 59 -40 146t40 146q40 60 122 60q80 0 121 -60q41 -61 41 -146t-41 -146zM274 706q0 60 -21.5 98.5t-66.5 38.5t-66.5 -38.5t-21.5 -98.5t21 -98.5t67 -38.5t67 38.5t21 98.5z" />
    <glyph glyph-name="uni2074" unicode="&#x2074;" horiz-adv-x="366" 
d="M328 662v-57h-44v-98h-63v98h-185l-15 41l214 257h49v-241h44zM106 662h115v137z" />
    <glyph glyph-name="uni2075" unicode="&#x2075;" horiz-adv-x="347" 
d="M176 763q60 0 97.5 -36t37.5 -93q0 -59 -42 -96q-41 -38 -106 -38q-72 0 -134 47l30 54q50 -38 100 -38q36 0 59.5 20.5t23.5 51.5q0 30 -21.5 50t-55.5 20q-41 0 -71 -30l-40 29l24 199h207v-60h-157l-12 -92q27 12 60 12z" />
    <glyph glyph-name="uni2076" unicode="&#x2076;" horiz-adv-x="348" 
d="M190 763q28 0 52.5 -9.5t42 -27t27.5 -41t10 -51.5q0 -29 -10.5 -53.5t-30 -42.5t-46 -28t-57.5 -10q-75 0 -115 54q-40 55 -40 138q0 91 45 156q46 64 133 64q63 0 110 -34l-29 -51q-35 25 -77 25q-54 0 -84 -43q-31 -43 -32 -96q32 50 101 50zM179 706q-33 0 -55 -20.5
t-22 -52.5q-2 -24 12 -41.5t35 -25.5t44 -5t39 20q18 16 21 38.5t-5 42.5t-26 33t-43 11z" />
    <glyph glyph-name="uni2077" unicode="&#x2077;" horiz-adv-x="288" 
d="M14 899h262v-46l-156 -346h-74l151 331h-183v61z" />
    <glyph glyph-name="uni2078" unicode="&#x2078;" horiz-adv-x="383" 
d="M41 615q0 33 22 61t59 42v1q-64 28 -64 87q0 46 36.5 76t96.5 30t97 -30t37 -76q0 -58 -65 -87v-2q38 -13 60 -41t22 -61q0 -49 -41 -81.5t-110 -32.5t-109.5 31.5t-40.5 82.5zM257 799q0 24 -18.5 40t-47.5 16t-48 -16t-19 -40q0 -23 18.5 -39t48.5 -16t48 16t18 39z
M271 624q0 27 -21.5 45t-58.5 18q-36 0 -58 -18t-22 -45q0 -28 22.5 -46.5t57.5 -18.5t57.5 18.5t22.5 46.5z" />
    <glyph glyph-name="uni2079" unicode="&#x2079;" horiz-adv-x="375" 
d="M181 912q75 0 113.5 -53t38.5 -141q0 -93 -44 -155t-129 -62q-69 0 -111 33l26 52q37 -25 81 -25q54 0 82.5 39.5t30.5 100.5q-36 -52 -101 -52q-29 0 -53 9.5t-41.5 27t-27 41t-9.5 50.5q0 30 10.5 54.5t29.5 42.5t45.5 28t58.5 10zM179 706q32 0 54 20.5t22 51.5
q0 32 -21.5 53.5t-53.5 21.5q-33 0 -54.5 -21.5t-21.5 -53.5t21 -52t54 -20z" />
    <glyph glyph-name="uni2080" unicode="&#x2080;" horiz-adv-x="372" 
d="M307 -101q-41 -60 -121 -60q-82 0 -122 60q-40 58 -40 145t40 146q40 60 122 60q80 0 121 -60q41 -61 41 -146q0 -86 -41 -145zM274 44q0 60 -21.5 98.5t-66.5 38.5t-66.5 -38.5t-21.5 -98.5t21 -98.5t67 -38.5t67 38.5t21 98.5z" />
    <glyph glyph-name="uni2081" unicode="&#x2081;" horiz-adv-x="265" 
d="M150 237h54v-392h-72v293l-76 -61l-38 54z" />
    <glyph glyph-name="uni2082" unicode="&#x2082;" horiz-adv-x="344" 
d="M143 -90h159v-65h-262v58l130 132q56 59 56 93q0 25 -17.5 40.5t-44.5 15.5q-46 0 -94 -45l-37 53q59 58 135 58q57 0 93.5 -33.5t36.5 -87.5q0 -55 -54 -113z" />
    <glyph glyph-name="uni2083" unicode="&#x2083;" horiz-adv-x="331" 
d="M147 -161q-69 0 -130 39l30 56q56 -32 98 -32q35 0 54.5 16t19.5 42t-20.5 42t-54.5 16h-51v61h48q29 0 49.5 14.5t20.5 39.5t-19 39t-45 14q-40 0 -85 -33l-35 50q50 47 127 47q57 0 93 -30t36 -75q0 -32 -19.5 -56.5t-51.5 -34.5v-2q38 -8 59 -34t21 -63
q0 -26 -10.5 -47t-30 -36.5t-46 -24t-58.5 -8.5z" />
    <glyph glyph-name="uni2084" unicode="&#x2084;" horiz-adv-x="366" 
d="M328 0v-57h-44v-98h-63v98h-185l-15 41l214 257h49v-241h44zM106 0h115v137z" />
    <glyph glyph-name="uni2085" unicode="&#x2085;" horiz-adv-x="347" 
d="M176 101q60 0 97.5 -36t37.5 -93q0 -59 -42 -96q-41 -38 -106 -38q-72 0 -134 47l30 54q50 -38 100 -38q36 0 59.5 20.5t23.5 51.5q0 30 -21.5 50t-55.5 20q-41 0 -71 -30l-40 29l24 199h207v-60h-157l-12 -92q27 12 60 12z" />
    <glyph glyph-name="uni2086" unicode="&#x2086;" horiz-adv-x="348" 
d="M190 101q28 0 52.5 -9.5t42 -27t27.5 -41t10 -51.5q0 -29 -10.5 -53.5t-30 -42.5t-46 -28t-57.5 -10q-75 0 -115 55q-40 53 -40 137q0 91 45 156q46 64 133 64q63 0 110 -34l-29 -51q-35 25 -77 25q-54 0 -84 -43q-31 -43 -32 -96q32 50 101 50zM179 44q-33 0 -55 -20.5
t-22 -52.5q-2 -24 12 -41.5t35 -25.5t44 -5t39 21q18 16 21 38t-5 41.5t-26 33t-43 11.5z" />
    <glyph glyph-name="uni2087" unicode="&#x2087;" horiz-adv-x="288" 
d="M14 237h262v-46l-156 -346h-74l151 331h-183v61z" />
    <glyph glyph-name="uni2088" unicode="&#x2088;" horiz-adv-x="383" 
d="M41 -47q0 33 22 61t59 42v1q-64 28 -64 87q0 46 36.5 76t96.5 30t97 -30t37 -76q0 -58 -65 -87v-2q38 -13 60 -41t22 -61q0 -49 -41 -81.5t-110 -32.5t-109.5 31.5t-40.5 82.5zM257 137q0 24 -18.5 40t-47.5 16t-48 -16t-19 -40q0 -23 18.5 -39t48.5 -16t48 16t18 39z
M271 -38q0 27 -21.5 45t-58.5 18q-36 0 -58 -18t-22 -45q0 -28 22.5 -46.5t57.5 -18.5t57.5 18.5t22.5 46.5z" />
    <glyph glyph-name="uni2089" unicode="&#x2089;" horiz-adv-x="375" 
d="M181 250q75 0 113.5 -53t38.5 -141q0 -93 -44 -155t-129 -62q-69 0 -111 33l26 52q37 -25 81 -25q54 0 82.5 39.5t30.5 100.5q-36 -52 -101 -52q-29 0 -53 9.5t-41.5 27t-27 41t-9.5 50.5q0 30 10.5 54.5t29.5 42.5t45.5 28t58.5 10zM179 44q32 0 54 20.5t22 51.5
q0 32 -21.5 53.5t-53.5 21.5q-33 0 -54.5 -21.5t-21.5 -53.5t21 -52t54 -20z" />
    <glyph glyph-name="Euro" unicode="&#x20ac;" horiz-adv-x="748" 
d="M241 255q15 -40 39.5 -72.5t57 -55.5t70.5 -35.5t80 -12.5q93 0 191 54v-95q-86 -49 -195 -49q-123 0 -218 73q-94 73 -129 193h-105l34 80h56q0 6 -0.5 15t-0.5 19t0.5 19t0.5 15h-83l34 80h63q34 121 129 195q97 74 219 74q130 0 228 -69l-46 -79q-79 58 -176 58
q-84 0 -151 -49t-97 -130h384l-36 -80h-367q-1 -11 -1.5 -19.5t-0.5 -15.5q0 -5 0.5 -13.5t1.5 -19.5h345l-31 -80h-296z" />
    <glyph glyph-name="trademark" unicode="&#x2122;" horiz-adv-x="816" 
d="M35 682v57h267v-57h-99v-293h-69v293h-99zM707 739h28v-350h-64v209l-124 -155h-21l-122 154v-208h-65v350h29l168 -213z" />
    <glyph glyph-name="estimated" unicode="&#x212e;" horiz-adv-x="960" 
d="M487 -17q-184 0 -312 110q-127 109 -127 273q0 165 127 274q127 111 312 111q183 0 310 -109q129 -110 129 -281v-21q0 -5 -7 -5h-686v-230q0 -3 4 -4q103 -72 250 -72q103 0 189 36.5t137 105.5l35 -29q-30 -37 -69.5 -66.5t-85.5 -50t-98.5 -31.5t-107.5 -11zM233 385
h508v244q0 2 -3 4q-106 73 -251 73q-146 0 -252 -73q-2 -2 -2 -5v-243z" />
    <glyph glyph-name="uni2150" unicode="&#x2150;" horiz-adv-x="852" 
d="M153 346v293l-75 -60l-39 54l132 106h55v-393h-73zM673 739h83l-576 -739h-85zM541 392h262v-46l-156 -346h-74l151 331h-183v61z" />
    <glyph glyph-name="uni2151" unicode="&#x2151;" horiz-adv-x="865" 
d="M149 346v293l-75 -60l-39 54l132 106h55v-393h-73zM661 739h84l-577 -739h-85zM677 405q75 0 113.5 -53t38.5 -141q0 -93 -44 -155t-129 -62q-69 0 -111 33l26 52q37 -25 81 -25q54 0 82.5 39.5t30.5 100.5q-36 -52 -101 -52q-58 0 -94.5 35.5t-36.5 92.5q0 30 10.5 54.5
t29.5 42.5t45.5 28t58.5 10zM675 199q32 0 54 20.5t22 51.5q0 32 -21.5 53.5t-53.5 21.5q-33 0 -54.5 -21.5t-21.5 -53.5t21 -52t54 -20z" />
    <glyph glyph-name="uni2153" unicode="&#x2153;" horiz-adv-x="838" 
d="M149 346v293l-75 -60l-39 54l132 106h55v-393h-73zM660 739h83l-576 -739h-85zM719 208q38 -8 59 -34t21 -63q0 -26 -10.5 -47t-30 -36.5t-46 -24t-58.5 -8.5q-69 0 -130 39l30 56q56 -32 98 -32q35 0 54.5 16t19.5 42t-20.5 42t-54.5 16h-51v61h48q29 0 49.5 14.5
t20.5 39.5t-19 39t-45 14q-40 0 -85 -33l-35 50q50 47 127 47q57 0 93 -30t36 -75q0 -32 -19.5 -56.5t-51.5 -34.5v-2z" />
    <glyph glyph-name="uni2154" unicode="&#x2154;" horiz-adv-x="841" 
d="M45 405l130 132q56 59 56 93q0 25 -17.5 40.5t-44.5 15.5q-46 0 -94 -45l-37 53q59 58 135 58q57 0 93.5 -33.5t36.5 -87.5q0 -55 -54 -113l-101 -106h159v-65h-262v58zM697 739h84l-576 -739h-86zM702 206q38 -8 59 -34t21 -63q0 -26 -10.5 -47t-30 -36.5t-46 -24
t-58.5 -8.5q-69 0 -130 39l30 56q56 -32 98 -32q35 0 54.5 16t19.5 42t-20.5 42t-54.5 16h-51v61h48q29 0 49.5 14.5t20.5 39.5t-19 39t-45 14q-40 0 -85 -33l-35 50q50 47 127 47q57 0 93 -30t36 -75q0 -32 -19.5 -56.5t-51.5 -34.5v-2z" />
    <glyph glyph-name="uni2155" unicode="&#x2155;" horiz-adv-x="839" 
d="M149 346v293l-75 -60l-39 54l132 106h55v-393h-73zM656 739h84l-576 -739h-86zM675 256q60 0 97.5 -36t37.5 -93q0 -59 -42 -96q-41 -38 -106 -38q-72 0 -134 47l30 54q50 -38 100 -38q36 0 59.5 20.5t23.5 51.5q0 30 -21.5 50t-55.5 20q-41 0 -71 -30l-40 29l24 199h207
v-60h-157l-12 -92q27 12 60 12z" />
    <glyph glyph-name="uni2156" unicode="&#x2156;" horiz-adv-x="846" 
d="M45 405l130 132q56 59 56 93q0 25 -17.5 40.5t-44.5 15.5q-46 0 -94 -45l-37 53q59 58 135 58q57 0 93.5 -33.5t36.5 -87.5q0 -55 -54 -113l-101 -106h159v-65h-262v58zM697 739h83l-576 -739h-85zM671 256q60 0 97.5 -36t37.5 -93q0 -59 -42 -96q-41 -38 -106 -38
q-72 0 -134 47l30 54q50 -38 100 -38q36 0 59.5 20.5t23.5 51.5q0 30 -21.5 50t-55.5 20q-41 0 -71 -30l-40 29l24 199h207v-60h-157l-12 -92q27 12 60 12z" />
    <glyph glyph-name="uni2157" unicode="&#x2157;" horiz-adv-x="828" 
d="M151 404q35 0 54.5 16t19.5 42t-20.5 42t-54.5 16h-51v61h48q29 0 49.5 14.5t20.5 39.5t-19 39t-45 14q-40 0 -85 -33l-35 50q50 47 127 47q57 0 93 -30t36 -75q0 -32 -19.5 -56.5t-51.5 -34.5v-2q38 -8 59 -34t21 -63q0 -26 -10.5 -47t-30 -36.5t-46 -24t-58.5 -8.5
q-69 0 -130 39l30 56q56 -32 98 -32zM677 739h84l-576 -739h-86zM653 256q60 0 97.5 -36t37.5 -93q0 -59 -42 -96q-41 -38 -106 -38q-72 0 -134 47l30 54q50 -38 100 -38q36 0 59.5 20.5t23.5 51.5q0 30 -21.5 50t-55.5 20q-41 0 -71 -30l-40 29l24 199h207v-60h-157
l-12 -92q27 12 60 12z" />
    <glyph glyph-name="uni2158" unicode="&#x2158;" horiz-adv-x="879" 
d="M230 347v98h-185l-15 41l214 257h49v-241h44v-57h-44v-98h-63zM726 739h83l-576 -739h-85zM115 502h115v137zM693 256q60 0 97.5 -36t37.5 -93q0 -59 -42 -96q-41 -38 -106 -38q-72 0 -134 47l30 54q50 -38 100 -38q36 0 59.5 20.5t23.5 51.5q0 30 -21.5 50t-55.5 20
q-41 0 -71 -30l-40 29l24 199h207v-60h-157l-12 -92q27 12 60 12z" />
    <glyph glyph-name="uni2159" unicode="&#x2159;" horiz-adv-x="843" 
d="M149 639l-75 -60l-39 54l132 106h55v-393h-73v293zM650 739h84l-576 -739h-86zM663 256q60 0 97.5 -36t37.5 -93q0 -59 -42 -96q-41 -38 -106 -38q-72 0 -134 47l30 54q50 -38 100 -38q36 0 59.5 20.5t23.5 51.5q0 30 -21.5 50t-55.5 20q-41 0 -71 -30l-40 29l24 199h207
v-60h-157l-12 -92q27 12 60 12z" />
    <glyph glyph-name="uni215A" unicode="&#x215a;" horiz-adv-x="857" 
d="M164 403q36 0 59.5 20.5t23.5 51.5q0 30 -21.5 50t-55.5 20q-41 0 -71 -30l-40 29l24 199h207v-60h-157l-12 -92q27 12 60 12q60 0 97.5 -36t37.5 -93q0 -59 -42 -96q-41 -38 -106 -38q-72 0 -134 47l30 54q50 -38 100 -38zM688 739h84l-576 -739h-86zM666 256
q28 0 52.5 -9.5t42 -27t27.5 -41t10 -51.5q0 -29 -10.5 -53.5t-30 -42.5t-46 -28t-57.5 -10q-75 0 -115 54q-40 55 -40 138q0 91 45 156q46 64 133 64q63 0 110 -34l-29 -51q-35 25 -77 25q-54 0 -84 -43q-31 -43 -32 -96q32 50 101 50zM655 199q-33 0 -55 -20.5t-22 -52.5
q-2 -24 12 -41.5t35 -25.5t44 -5t39 20q18 16 21 38.5t-5 42.5t-26 33t-43 11z" />
    <glyph glyph-name="oneeighth" unicode="&#x215b;" horiz-adv-x="867" 
d="M149 346v293l-75 -60l-39 54l132 106h55v-393h-73zM668 739h84l-576 -739h-86zM748 210q38 -13 60 -41t22 -61q0 -49 -41 -81.5t-110 -32.5t-109.5 31.5t-40.5 82.5q0 33 22 61t59 42v1q-64 28 -64 87q0 46 36.5 76t96.5 30t97 -30t37 -76q0 -58 -65 -87v-2zM612 292
q0 -23 18.5 -39t48.5 -16t48 16t18 39q0 24 -18.5 40t-47.5 16t-48 -16t-19 -40zM759 117q0 27 -21.5 45t-58.5 18q-36 0 -58 -18t-22 -45q0 -28 22.5 -46.5t57.5 -18.5t57.5 18.5t22.5 46.5z" />
    <glyph glyph-name="threeeighths" unicode="&#x215c;" horiz-adv-x="864" 
d="M152 341q-69 0 -130 39l30 56q56 -32 98 -32q35 0 54.5 16t19.5 42t-20.5 42t-54.5 16h-51v61h48q29 0 49.5 14.5t20.5 39.5t-19 39t-45 14q-40 0 -85 -33l-35 50q50 47 127 47q57 0 93 -30t36 -75q0 -32 -19.5 -56.5t-51.5 -34.5v-2q38 -8 59 -34t21 -63
q0 -26 -10.5 -47t-30 -36.5t-46 -24t-58.5 -8.5zM108 0l578 739h84l-576 -739h-86zM527 108q0 33 22 61t59 42v1q-64 28 -64 87q0 46 36.5 76t96.5 30t97 -30t37 -76q0 -58 -65 -87v-2q38 -13 60 -41t22 -61q0 -49 -41 -81.5t-110 -32.5t-109.5 31.5t-40.5 82.5zM743 292
q0 24 -18.5 40t-47.5 16t-48 -16t-19 -40q0 -23 18.5 -39t48.5 -16t48 16t18 39zM757 117q0 27 -21.5 45t-58.5 18q-36 0 -58 -18t-22 -45q0 -28 22.5 -46.5t57.5 -18.5t57.5 18.5t22.5 46.5z" />
    <glyph glyph-name="fiveeighths" unicode="&#x215d;" horiz-adv-x="864" 
d="M164 403q36 0 59.5 20.5t23.5 51.5q0 30 -21.5 50t-55.5 20q-41 0 -71 -30l-40 29l24 199h207v-60h-157l-12 -92q27 12 60 12q60 0 97.5 -36t37.5 -93q0 -59 -42 -96q-41 -38 -106 -38q-72 0 -134 47l30 54q50 -38 100 -38zM686 739h84l-576 -739h-86zM746 210
q38 -13 60 -41t22 -61q0 -49 -41 -81.5t-110 -32.5t-109.5 31.5t-40.5 82.5q0 33 22 61t59 42v1q-64 28 -64 87q0 46 36.5 76t96.5 30t97 -30t37 -76q0 -58 -65 -87v-2zM610 292q0 -23 18.5 -39t48.5 -16t48 16t18 39q0 24 -18.5 40t-47.5 16t-48 -16t-19 -40zM757 117
q0 27 -21.5 45t-58.5 18q-36 0 -58 -18t-22 -45q0 -28 22.5 -46.5t57.5 -18.5t57.5 18.5t22.5 46.5z" />
    <glyph glyph-name="seveneighths" unicode="&#x215e;" horiz-adv-x="814" 
d="M53 347l151 331h-183v61h262v-46l-156 -346h-74zM627 739h83l-576 -739h-85zM696 210q38 -13 60 -41t22 -61q0 -49 -41 -81.5t-110 -32.5t-109.5 31.5t-40.5 82.5q0 33 22 61t59 42v1q-64 28 -64 87q0 46 36.5 76t96.5 30t97 -30t37 -76q0 -58 -65 -87v-2zM560 292
q0 -23 18.5 -39t48.5 -16t48 16t18 39q0 24 -18.5 40t-47.5 16t-48 -16t-19 -40zM707 117q0 27 -21.5 45t-58.5 18q-36 0 -58 -18t-22 -45q0 -28 22.5 -46.5t57.5 -18.5t57.5 18.5t22.5 46.5z" />
    <glyph glyph-name="partialdiff" unicode="&#x2202;" horiz-adv-x="625" 
d="M291 -12q-108 0 -178 72q-71 73 -71 180q0 109 69 181q70 73 174 73q67 0 121.5 -34t79.5 -89q-4 109 -77 207q-71 99 -196 155l56 63q38 -17 76.5 -42.5t80.5 -67.5q31 -29 58 -65.5t47.5 -80.5t32.5 -94.5t12 -108.5q0 -150 -81 -250q-81 -99 -204 -99zM292 72
q70 0 118 50q48 49 48 122q0 71 -48 118q-47 48 -115 48q-70 0 -116 -49t-46 -121q0 -70 45 -119t114 -49z" />
    <glyph glyph-name="product" unicode="&#x220f;" horiz-adv-x="734" 
d="M699 734v-97h-97v-755h-99v755h-271v-755h-100v755h-96v97h663z" />
    <glyph glyph-name="summation" unicode="&#x2211;" horiz-adv-x="638" 
d="M46 -179v88l218 370l-218 372v88h557v-99h-434l208 -361l-208 -359h434v-99h-557z" />
    <glyph glyph-name="minus" unicode="&#x2212;" horiz-adv-x="602" 
d="M70 293v90h462v-90h-462z" />
    <glyph glyph-name="radical" unicode="&#x221a;" horiz-adv-x="679" 
d="M282 -118l-170 432h-111v91h183l141 -370l262 773h108l-330 -926h-83z" />
    <glyph glyph-name="infinity" unicode="&#x221e;" horiz-adv-x="913" 
d="M674 560q76 0 133 -57q57 -56 57 -134t-58 -135q-57 -57 -134 -57q-53 0 -100 31q-49 32 -116 105q-34 -37 -62.5 -63t-54.5 -42t-50.5 -23.5t-51.5 -7.5q-76 0 -133 57t-57 135t57 134q58 57 136 57q52 0 100 -30q48 -29 117 -104q33 36 61.5 61.5t54.5 41.5t50.5 23.5
t50.5 7.5zM238 254q36 0 71 24q36 25 96 91q-64 67 -97 90q-35 24 -65 24q-47 0 -81 -34q-33 -35 -33 -82q0 -48 31 -80q31 -33 78 -33zM668 254q46 0 81 33q34 34 34 83q0 46 -32 80q-32 33 -78 33q-37 0 -71 -24q-17 -11 -40.5 -33.5t-54.5 -56.5q62 -68 95 -92
q34 -23 66 -23z" />
    <glyph glyph-name="integral" unicode="&#x222b;" horiz-adv-x="429" 
d="M88 -210q-59 0 -109 32l30 74q34 -21 70 -21q39 0 64.5 26.5t25.5 86.5v641q0 47 12.5 83.5t35 61t54 37.5t68.5 13q59 0 112 -33l-32 -74q-34 22 -70 22q-39 0 -64 -27t-25 -87v-641q0 -47 -13 -83t-36 -61t-54.5 -37.5t-68.5 -12.5z" />
    <glyph glyph-name="approxequal" unicode="&#x2248;" horiz-adv-x="658" 
d="M430 395q-48 0 -115 33q-65 34 -94 34q-31 0 -53 -14t-47 -46l-61 45q57 99 167 99q47 0 114 -34t95 -34q32 0 53.5 14t46.5 47l62 -46q-59 -98 -168 -98zM432 198q-48 0 -115 33q-65 34 -94 34q-31 0 -53 -14t-47 -46l-61 45q57 99 167 99q47 0 114 -34t95 -34
q32 0 53.5 14t46.5 47l62 -46q-59 -98 -168 -98z" />
    <glyph glyph-name="notequal" unicode="&#x2260;" horiz-adv-x="602" 
d="M532 372h-174l-40 -89h214v-86h-253l-50 -112h-76l50 112h-133v86h172l40 89h-212v86h250l51 113h76l-51 -113h136v-86z" />
    <glyph glyph-name="lessequal" unicode="&#x2264;" horiz-adv-x="590" 
d="M513 192l-449 200v58l449 198v-97l-316 -130l316 -131v-98zM513 56h-457v84h457v-84z" />
    <glyph glyph-name="greaterequal" unicode="&#x2265;" horiz-adv-x="590" 
d="M77 192v98l316 131l-316 130v97l449 -198v-58zM77 56v84h457v-84h-457z" />
    <glyph glyph-name="lozenge" unicode="&#x25ca;" horiz-adv-x="701" 
d="M312 -42l-280 418l280 416h77l280 -416l-280 -418h-77zM350 59l208 319l-208 315l-207 -315z" />
    <glyph glyph-name="NULL" horiz-adv-x="0" 
 />
    <glyph glyph-name="Euro.osf" horiz-adv-x="567" 
d="M175 205q22 -66 77 -104.5t131 -38.5q81 0 160 43v-78q-74 -38 -164 -38q-107 0 -187 59q-77 58 -103 157h-85l29 65h46q-1 4 -1 19v17h-70l28 65h52q25 99 107 159q81 60 186 60q108 0 190 -55l-38 -63q-67 46 -147 46q-36 0 -68.5 -10.5t-60 -30t-48.5 -46.5t-33 -60
h320l-32 -65h-301q-1 -6 -1 -18t1 -18h291l-27 -65h-252z" />
    <glyph glyph-name="I_J.loclNLD" horiz-adv-x="840" 
d="M93 739h100v-739h-100v739zM507 -12q-129 0 -212 95l61 73q60 -73 151 -73q66 0 106.5 42t40.5 120v494h100v-499q0 -120 -69 -186q-68 -66 -178 -66z" />
    <glyph glyph-name="Iacute_J.loclNLD" horiz-adv-x="840" 
d="M101 794l59 168h118l-93 -168h-84zM658 793l59 168h118l-93 -168h-84zM93 739h100v-739h-100v739zM507 -12q-129 0 -212 95l61 73q60 -73 151 -73q66 0 106.5 42t40.5 120v494h100v-499q0 -120 -69 -186q-68 -66 -178 -66z" />
    <glyph glyph-name="J.loclNLD" horiz-adv-x="558" 
d="M376 793l59 168h118l-93 -168h-84zM225 -12q-129 0 -212 95l61 73q60 -73 151 -73q66 0 106.5 42t40.5 120v494h100v-499q0 -120 -69 -186q-68 -66 -178 -66z" />
    <glyph glyph-name="Jacute" horiz-adv-x="558" 
d="M379 793l59 168h118l-93 -168h-84zM225 -12q-129 0 -212 95l61 73q60 -73 151 -73q66 0 106.5 42t40.5 120v494h100v-499q0 -120 -69 -186q-68 -66 -178 -66z" />
    <glyph glyph-name="_1" horiz-adv-x="0" 
 />
    <glyph glyph-name="a.ss02" horiz-adv-x="573" 
d="M267 549q103 0 171 -57q68 -56 68 -168v-324h-90v72q-61 -88 -186 -88q-90 0 -145 50q-54 49 -54 126q0 75 58.5 121t172.5 46q109 0 152 8q-10 127 -149 127q-88 0 -164 -48l-44 71q35 27 91.5 45.5t118.5 18.5zM239 71q75 0 122 51q48 54 52 131q-32 -7 -106 -7
q-47 0 -80.5 -3.5t-55 -13t-32 -26t-10.5 -43.5q0 -42 31 -65.5t79 -23.5z" />
    <glyph glyph-name="aacute.ss02" horiz-adv-x="573" 
d="M406 790l-93 -167h-83l59 167h117zM267 549q103 0 171 -57q68 -56 68 -168v-324h-90v72q-61 -88 -186 -88q-90 0 -145 50q-54 49 -54 126q0 75 58.5 121t172.5 46q109 0 152 8q-10 127 -149 127q-88 0 -164 -48l-44 71q35 27 91.5 45.5t118.5 18.5zM239 71q75 0 122 51
q48 54 52 131q-32 -7 -106 -7q-47 0 -80.5 -3.5t-55 -13t-32 -26t-10.5 -43.5q0 -42 31 -65.5t79 -23.5z" />
    <glyph glyph-name="abreve.ss02" horiz-adv-x="573" 
d="M188 790q1 -48 25.5 -73.5t66.5 -25.5t66.5 25.5t25.5 73.5h83q-2 -80 -50 -126q-49 -47 -125 -47q-39 0 -70.5 12.5t-54 35t-35.5 54.5t-14 71h82zM267 549q103 0 171 -57q68 -56 68 -168v-324h-90v72q-61 -88 -186 -88q-90 0 -145 50q-54 49 -54 126q0 75 58.5 121
t172.5 46q109 0 152 8q-10 127 -149 127q-88 0 -164 -48l-44 71q35 27 91.5 45.5t118.5 18.5zM239 71q75 0 122 51q48 54 52 131q-32 -7 -106 -7q-47 0 -80.5 -3.5t-55 -13t-32 -26t-10.5 -43.5q0 -42 31 -65.5t79 -23.5z" />
    <glyph glyph-name="acircumflex.ss02" horiz-adv-x="573" 
d="M280 711l-72 -90h-102l140 164h69l140 -164h-103zM267 549q103 0 171 -57q68 -56 68 -168v-324h-90v72q-61 -88 -186 -88q-90 0 -145 50q-54 49 -54 126q0 75 58.5 121t172.5 46q109 0 152 8q-10 127 -149 127q-88 0 -164 -48l-44 71q35 27 91.5 45.5t118.5 18.5zM239 71
q75 0 122 51q48 54 52 131q-32 -7 -106 -7q-47 0 -80.5 -3.5t-55 -13t-32 -26t-10.5 -43.5q0 -42 31 -65.5t79 -23.5z" />
    <glyph glyph-name="acute.case" horiz-adv-x="314" 
d="M40 794l59 168h118l-93 -168h-84z" />
    <glyph glyph-name="adieresis.ss02" horiz-adv-x="573" 
d="M182 618q-30 0 -50 19.5t-20 50.5q0 28 20 47t50 19q28 0 47.5 -19t19.5 -47q0 -30 -19.5 -50t-47.5 -20zM380 618q-30 0 -49.5 20t-19.5 50q0 28 20 47t49 19t48.5 -19t19.5 -47q0 -30 -19.5 -50t-48.5 -20zM267 549q103 0 171 -57q68 -56 68 -168v-324h-90v72
q-61 -88 -186 -88q-90 0 -145 50q-54 49 -54 126q0 75 58.5 121t172.5 46q109 0 152 8q-10 127 -149 127q-88 0 -164 -48l-44 71q35 27 91.5 45.5t118.5 18.5zM239 71q75 0 122 51q48 54 52 131q-32 -7 -106 -7q-47 0 -80.5 -3.5t-55 -13t-32 -26t-10.5 -43.5
q0 -42 31 -65.5t79 -23.5z" />
    <glyph glyph-name="agrave.ss02" horiz-adv-x="573" 
d="M334 623h-83l-93 167h117zM267 549q103 0 171 -57q68 -56 68 -168v-324h-90v72q-61 -88 -186 -88q-90 0 -145 50q-54 49 -54 126q0 75 58.5 121t172.5 46q109 0 152 8q-10 127 -149 127q-88 0 -164 -48l-44 71q35 27 91.5 45.5t118.5 18.5zM239 71q75 0 122 51
q48 54 52 131q-32 -7 -106 -7q-47 0 -80.5 -3.5t-55 -13t-32 -26t-10.5 -43.5q0 -42 31 -65.5t79 -23.5z" />
    <glyph glyph-name="amacron.ss02" horiz-adv-x="573" 
d="M432 723v-85l-307 -1v86h307zM267 549q103 0 171 -57q68 -56 68 -168v-324h-90v72q-61 -88 -186 -88q-90 0 -145 50q-54 49 -54 126q0 75 58.5 121t172.5 46q109 0 152 8q-10 127 -149 127q-88 0 -164 -48l-44 71q35 27 91.5 45.5t118.5 18.5zM239 71q75 0 122 51
q48 54 52 131q-32 -7 -106 -7q-47 0 -80.5 -3.5t-55 -13t-32 -26t-10.5 -43.5q0 -42 31 -65.5t79 -23.5z" />
    <glyph glyph-name="aogonek.ss02" horiz-adv-x="573" 
d="M521 -231q-46 -29 -95 -29q-54 0 -85.5 31t-31.5 79q0 86 107 151v71q-61 -88 -186 -88q-90 0 -145 50q-54 49 -54 126q0 75 58.5 121t172.5 46q109 0 152 8q-10 127 -149 127q-88 0 -164 -48l-44 71q35 27 91.5 45.5t118.5 18.5q103 0 171 -57q68 -56 68 -168v-324
q-49 -21 -80 -56.5t-31 -69.5q0 -22 13 -35.5t35 -13.5q20 0 41 12zM239 71q75 0 122 51q48 54 52 131q-32 -7 -106 -7q-47 0 -80.5 -3.5t-55 -13t-32 -26t-10.5 -43.5q0 -42 31 -65.5t79 -23.5z" />
    <glyph glyph-name="aring.ss02" horiz-adv-x="573" 
d="M364 634q-34 -32 -82 -32t-83 32q-34 33 -34 80t34 80t83 33t82 -33q34 -33 34 -80t-34 -80zM282 768q-23 0 -39 -15t-16 -37q0 -24 16 -39.5t39 -15.5q22 0 37.5 15.5t15.5 39.5q0 21 -16 36.5t-37 15.5zM267 549q103 0 171 -57q68 -56 68 -168v-324h-90v72
q-61 -88 -186 -88q-90 0 -145 50q-54 49 -54 126q0 75 58.5 121t172.5 46q109 0 152 8q-10 127 -149 127q-88 0 -164 -48l-44 71q35 27 91.5 45.5t118.5 18.5zM239 71q75 0 122 51q48 54 52 131q-32 -7 -106 -7q-47 0 -80.5 -3.5t-55 -13t-32 -26t-10.5 -43.5
q0 -42 31 -65.5t79 -23.5z" />
    <glyph glyph-name="at.case" horiz-adv-x="974" 
d="M617 566h77v-276q0 -34 16 -53.5t40 -19.5q45 0 77 53q33 52 33 134q0 138 -106 237q-106 100 -256 99q-154 0 -261 -110t-107 -268q0 -157 112 -268q113 -110 277 -110q157 0 278 98l41 -63q-28 -23 -63 -43t-80 -36q-89 -33 -183 -33q-97 0 -183 36.5t-149 97.5
q-61 61 -97.5 144.5t-36.5 174.5q0 189 132 323t318 134q181 0 312 -123t131 -290q0 -111 -59 -185t-143 -74q-46 0 -75 23t-37 55q-57 -78 -160 -78q-86 0 -145 62t-59 155q0 92 60 155q61 64 149 64q94 0 147 -65v50zM616 361q0 63 -39 105q-38 42 -97 42t-99 -42
q-39 -41 -39 -103t38 -105q39 -41 98 -41t98 41q40 41 40 103z" />
    <glyph glyph-name="atilde.ss02" horiz-adv-x="573" 
d="M221 678q-36 0 -59 -47l-62 29q13 46 44.5 71t73.5 25q33 0 76 -22t63 -22q37 0 58 45l60 -28q-12 -46 -43 -71t-73 -25q-32 0 -75 22q-44 23 -63 23zM267 549q103 0 171 -57q68 -56 68 -168v-324h-90v72q-61 -88 -186 -88q-90 0 -145 50q-54 49 -54 126q0 75 58.5 121
t172.5 46q109 0 152 8q-10 127 -149 127q-88 0 -164 -48l-44 71q35 27 91.5 45.5t118.5 18.5zM239 71q75 0 122 51q48 54 52 131q-32 -7 -106 -7q-47 0 -80.5 -3.5t-55 -13t-32 -26t-10.5 -43.5q0 -42 31 -65.5t79 -23.5z" />
    <glyph glyph-name="backslash.case" horiz-adv-x="544" 
d="M521 0h-94l-406 739h94z" />
    <glyph glyph-name="braceleft.case" horiz-adv-x="378" 
d="M124 359q22 -7 41.5 -20t34.5 -30.5t23.5 -39.5t8.5 -47q0 -15 -1 -41t-3 -63t-3 -62.5t-1 -41.5q0 -94 95 -94h33v-80h-43q-176 0 -176 176q0 39 3 113q2 37 3 61t1 35q0 54 -39 76q-19 12 -34.5 17t-41.5 11v65q26 6 41.5 11t34.5 16q39 23 39 77q0 11 -1 35t-3 61
q-3 73 -3 114q0 174 177 174h42v-80h-33q-95 0 -95 -93q0 -16 1 -42t3 -63t3 -62.5t1 -40.5q0 -26 -8.5 -48t-23.5 -39.5t-34.5 -30.5t-41.5 -20v-4z" />
    <glyph glyph-name="braceright.case" horiz-adv-x="379" 
d="M254 363q-45 14 -76.5 50.5t-31.5 87.5q0 15 1 40.5t3 62.5t3 63t1 42q0 93 -95 93h-33v80h43q87 0 132 -43.5t45 -130.5q0 -20 -1 -48.5t-3 -65.5q-3 -74 -3 -96q0 -53 38 -77q19 -11 35 -16t42 -11v-65q-26 -6 -42 -11t-35 -17q-38 -23 -38 -76q0 -23 3 -96
q2 -37 3 -65t1 -48q0 -88 -45.5 -132t-130.5 -44h-44v80h33q95 0 95 94q0 16 -1 42t-3 63t-3 62.5t-1 40.5q0 25 8.5 47.5t23.5 40t34.5 30.5t41.5 19v4z" />
    <glyph glyph-name="bracketleft.case" horiz-adv-x="379" 
d="M93 -156v1038h266v-79h-167v-880h167v-79h-266z" />
    <glyph glyph-name="bracketright.case" horiz-adv-x="379" 
d="M20 -156v79h167v880h-167v79h265v-1038h-265z" />
    <glyph glyph-name="breve.case" horiz-adv-x="446" 
d="M215 788q-78 0 -125.5 46.5t-49.5 127.5h83q1 -48 25.5 -74t66.5 -26t67 26t26 74h83q0 -40 -13 -72.5t-36.5 -55t-55.5 -34.5t-71 -12z" />
    <glyph glyph-name="brevecombcy" horiz-adv-x="0" 
d="M-217 599q-116 0 -198 103l53 58q67 -81 145 -81q79 0 145 81l55 -58q-85 -103 -200 -103z" />
    <glyph glyph-name="caron.alt" horiz-adv-x="301" 
d="M29 621l56 167h106l-82 -167h-80z" />
    <glyph glyph-name="caron.case" horiz-adv-x="485" 
d="M64 954h102l72 -90l72 90h103l-140 -164h-69z" />
    <glyph glyph-name="cedilla.case" horiz-adv-x="315" 
d="M181 -48q43 0 73 -24.5t30 -67.5q0 -45 -33.5 -78t-96.5 -33q-51 0 -114 29l25 63q43 -21 81 -21q28 0 43 12.5t15 31.5q0 36 -52 36h-56l-9 22l39 98l74 -2l-27 -66h8z" />
    <glyph glyph-name="circumflex.case" horiz-adv-x="485" 
d="M38 795l141 165h69l141 -165h-104l-72 91l-72 -91h-103z" />
    <glyph glyph-name="colon.case" horiz-adv-x="269" 
d="M71 523q0 26 18.5 44t45.5 18t45.5 -18t18.5 -44q0 -28 -18.5 -46.5t-45.5 -18.5t-45.5 18.5t-18.5 46.5zM71 182q0 26 18.5 44t45.5 18t45.5 -18t18.5 -44q0 -28 -18.5 -46.5t-45.5 -18.5t-45.5 18.5t-18.5 46.5z" />
    <glyph glyph-name="comma.ss03" horiz-adv-x="206" 
d="M85 119h95l-98 -295h-68z" />
    <glyph glyph-name="commaccent" horiz-adv-x="231" 
d="M127 -76q29 0 49 -21.5t20 -53.5q0 -86 -124 -165l-32 44q63 48 79 74h-2q-22 0 -39 17.5t-17 40.5q0 26 19 45t47 19z" />
    <glyph glyph-name="commaccent.case" horiz-adv-x="171" 
d="M127 -76q30 0 50 -21.5t20 -53.5q0 -85 -125 -166l-32 44q63 48 79 74h-2q-23 0 -39.5 17.5t-16.5 41.5q0 26 19 45t47 19z" />
    <glyph glyph-name="dieresis.case" horiz-adv-x="403" 
d="M108 814q-27 0 -45.5 18t-18.5 45q0 25 18.5 42.5t45.5 17.5q25 0 42.5 -17.5t17.5 -42.5q0 -27 -17.5 -45t-42.5 -18zM287 814q-27 0 -45 18t-18 45q0 25 18.5 42.5t44.5 17.5t43.5 -17.5t17.5 -42.5q0 -27 -17.5 -45t-43.5 -18z" />
    <glyph glyph-name="dollar.osf" horiz-adv-x="491" 
d="M463 158q0 -64 -48 -109q-46 -45 -121 -57v-113h-83v111q-63 8 -111 40t-75 84l67 55q52 -96 158 -96q52 0 83 22.5t31 58.5q0 26 -17.5 42t-51.5 33q-9 5 -25.5 11.5t-41.5 16.5q-24 10 -42 18.5t-31 15.5q-96 55 -96 139q0 62 44 105.5t119 51.5v106h84v-108
q86 -16 142 -83l-61 -58q-53 63 -132 63q-45 0 -74 -19t-29 -52q0 -44 63 -75q10 -5 29 -13.5t47 -20.5q55 -23 79 -36q93 -51 93 -133z" />
    <glyph glyph-name="dotaccent.case" horiz-adv-x="302" 
d="M110 810q-30 0 -50 19.5t-20 49.5q0 29 20 48t50 19q28 0 48 -19.5t20 -47.5q0 -30 -20 -49.5t-48 -19.5z" />
    <glyph glyph-name="eight.dnom" horiz-adv-x="383" 
d="M41 108q0 33 22 61t59 42v1q-64 28 -64 87q0 46 36.5 76t96.5 30t97 -30t37 -76q0 -58 -65 -87v-2q38 -13 60 -41t22 -61q0 -49 -41 -81.5t-110 -32.5t-109.5 31.5t-40.5 82.5zM257 292q0 24 -18.5 40t-47.5 16t-48 -16t-19 -40q0 -23 18.5 -39t48.5 -16t48 16t18 39z
M271 117q0 27 -21.5 45t-58.5 18q-36 0 -58 -18t-22 -45q0 -28 22.5 -46.5t57.5 -18.5t57.5 18.5t22.5 46.5z" />
    <glyph glyph-name="eight.lf" horiz-adv-x="625" 
d="M313 -12q-118 0 -191 60q-74 60 -74 151q0 63 39.5 115t105.5 77v2q-54 25 -84 69t-30 96q0 83 65 139q64 55 169 55q104 0 168 -55q65 -56 65 -139q0 -54 -30.5 -97t-84.5 -68v-3q33 -12 60 -31.5t46 -44.5t29.5 -54.5t10.5 -60.5q0 -91 -74 -151t-190 -60zM450 549
q0 52 -38 85.5t-99 33.5q-63 0 -101.5 -33.5t-38.5 -85.5q0 -25 10 -46.5t28 -37.5t43.5 -25t57.5 -9q31 0 56.5 9t43.5 25t28 37.5t10 46.5zM313 75q36 0 66.5 10t52.5 28.5t34 43.5t12 55q0 29 -11.5 53.5t-33.5 42t-52.5 27.5t-67.5 10q-76 0 -121.5 -37.5t-45.5 -95.5
q0 -30 12 -55t34 -43.5t53 -28.5t68 -10z" />
    <glyph glyph-name="eight.num" horiz-adv-x="383" 
d="M41 455q0 33 22 61t59 42v1q-64 28 -64 87q0 46 36.5 76t96.5 30t97 -30t37 -76q0 -58 -65 -87v-2q38 -13 60 -41t22 -61q0 -49 -41 -81.5t-110 -32.5t-109.5 31.5t-40.5 82.5zM257 639q0 24 -18.5 40t-47.5 16t-48 -16t-19 -40q0 -23 18.5 -39t48.5 -16t48 16t18 39z
M271 464q0 27 -21.5 45t-58.5 18q-36 0 -58 -18t-22 -45q0 -28 22.5 -46.5t57.5 -18.5t57.5 18.5t22.5 46.5z" />
    <glyph glyph-name="eight.osf" horiz-adv-x="619" 
d="M310 -11q-118 0 -191 57q-74 57 -74 145q0 30 10.5 57.5t29 51.5t45.5 43t60 31v2q-54 25 -84 66.5t-30 90.5q0 80 65 133t169 53q103 0 168 -53t65 -133q0 -49 -31 -91t-85 -66v-3q67 -22 107 -73q40 -49 40 -109q0 -86 -74 -145q-74 -57 -190 -57zM447 525q0 49 -37 81
t-100 32t-101.5 -32t-38.5 -81q0 -48 38 -80.5t101 -32.5t100.5 32.5t37.5 80.5zM310 73q36 0 66.5 9.5t52.5 27t34 41t12 52.5q0 27 -11.5 50.5t-33.5 40.5t-52.5 26.5t-67.5 9.5q-38 0 -69 -9.5t-53 -26.5t-34 -40.5t-12 -50.5q0 -29 12.5 -52.5t34.5 -41t53 -27t68 -9.5z
" />
    </font>
</defs>
</svg>
